<?xml version="1.0" encoding="utf-8"?>
<!-- Generator: Adobe Illustrator 27.0.1, SVG Export Plug-In . SVG Version: 6.00 Build 0)  -->
<svg version="1.1" id="Layer_1" xmlns="http://www.w3.org/2000/svg" xmlns:xlink="http://www.w3.org/1999/xlink" x="0px" y="0px"
	 viewBox="0 0 64 64" style="enable-background:new 0 0 64 64;" xml:space="preserve">
<style type="text/css">
	.st0{fill:#212120;}
	.st1{fill:#FFFFFF;}
	.st2{fill:#D54A30;}
</style>
<path class="st0" d="M61.8,37.8l-11.8-5c-0.2-0.1-0.5-0.1-0.8,0l-1.5,0.6c-1.2-1.3-2.7-2.2-4.3-2.7c-2.4-0.7-4.9-1.9-6.5-2.8
	c-1.1-0.5-2.2-1.2-3.4-1.9c3.2-3.4,5.2-9,5.2-14.2C38.7,4.3,34.4,0,26.9,0S15.1,4.3,15.1,11.9c0,5.2,2,10.8,5.2,14.2
	c-1.2,0.7-2.3,1.3-3.4,1.9c-1.7,0.9-4.1,2-6.5,2.7C1.9,33.2,1.6,45,1.6,45.5v6.8c0,0.5,0.4,1,1,1h34.8c1.6,4.6,7.8,8.2,11.7,10.5
	l0.1,0.1c0.2,0.1,0.3,0.2,0.5,0.2c0.2,0,0.3,0,0.5-0.1l0.1-0.1c4.5-2.6,12.1-7.1,12.1-12.6V38.7C62.4,38.3,62.2,37.9,61.8,37.8z"/>
<path class="st1" d="M17,11.9c0-8.7,6.2-10,9.9-10s9.9,1.3,9.9,10c0,5.1-2.1,10.7-5.4,13.6c0,0-0.1,0.1-0.1,0.1
	c-1.3,1.1-2.8,1.8-4.4,1.8c-1.6,0-3-0.7-4.4-1.8c0,0-0.1-0.1-0.2-0.1C19.2,22.6,17,17,17,11.9z"/>
<path class="st1" d="M26.9,29.4c1.9,0,3.6-0.7,5.1-1.9c1,0.6,2,1.1,2.9,1.6c-3.4,2.1-6.9,4-8.1,4.7c-1.2-0.6-4.7-2.5-8.1-4.6
	c1-0.5,2-1.1,3-1.7C23.3,28.7,25,29.4,26.9,29.4z"/>
<path class="st1" d="M12.5,51.4v-7.3c0-0.5-0.4-1-1-1s-1,0.4-1,1v7.3h-7v-5.8c0-0.1,0.3-10.9,7.3-13c2.1-0.6,4.3-1.6,5.9-2.4
	c4.5,3,9.6,5.5,9.7,5.6c0.1,0.1,0.3,0.1,0.4,0.1s0.3,0,0.5-0.1c0,0,5-2.6,9.6-5.6c1.7,0.8,3.8,1.8,6,2.4c1.1,0.3,2.1,0.9,3,1.7
	l-8.3,3.5c-0.4,0.2-0.6,0.5-0.6,0.9v12.5c0,0.1,0,0.1,0,0.2H12.5z"/>
<path class="st2" d="M60.5,51.2c0,4.3-6.8,8.4-10.8,10.7c-4-2.3-10.8-6.4-10.8-10.7V39.3l10.8-4.5l10.8,4.5V51.2z"/>
<path class="st1" d="M45.6,44.1V46c-0.6,0.3-1,1-1,1.7v4.1c0,1.7,1.3,3,3,3h4.3c1.7,0,3-1.3,3-3v-4.1c0-0.7-0.4-1.4-1-1.7v-1.9
	c0-1.1-0.4-2.1-1.2-2.9c-0.8-0.8-1.8-1.2-2.9-1.2C47.4,40,45.6,41.8,45.6,44.1z M52.9,51.8c0,0.6-0.5,1-1,1h-4.3c-0.6,0-1-0.5-1-1
	l0-4.1l6.3,0V51.8z M49.7,41.9c0.6,0,1.1,0.2,1.5,0.6s0.6,1,0.6,1.5v1.6h-4.4v-1.6C47.5,42.9,48.5,41.9,49.7,41.9z"/>
<path class="st1" d="M49.7,51c0.5,0,1-0.4,1-1s-0.4-1-1-1h0c-0.5,0-1,0.4-1,1S49.2,51,49.7,51z"/>
</svg>
