<?xml version="1.0" encoding="utf-8"?>
<!-- Generator: Adobe Illustrator 26.3.1, SVG Export Plug-In . SVG Version: 6.00 Build 0)  -->
<svg version="1.1" xmlns="http://www.w3.org/2000/svg" xmlns:xlink="http://www.w3.org/1999/xlink" x="0px" y="0px"
	 viewBox="0 0 128 128" style="enable-background:new 0 0 128 128;" xml:space="preserve">
<style type="text/css">
	.st0{fill:#FFFFFF;}
	.st1{fill:#010101;}
	.st2{fill:#EE2A43;}
</style>
<g id="Layer_1">
	<rect x="26.5" y="29.6" class="st0" width="53.2" height="68.6"/>
	<g id="XMLID_1538_">
		<path id="XMLID_1546_" class="st1" d="M75.6,27.8h-4.1c-1,0-1.9,0.8-1.9,1.9c0,1,0.8,1.9,1.9,1.9h4.1c1.2,0,2.2,1,2.2,2.2v61.2
			c0,1.2-1,2.2-2.2,2.2H30.7c-1.2,0-2.2-1-2.2-2.2V33.7c0-1.2,1-2.2,2.2-2.2h4.1c1,0,1.9-0.8,1.9-1.9c0-1-0.8-1.9-1.9-1.9h-4.1
			c-3.3,0-5.9,2.7-5.9,5.9v61.2c0,3.3,2.7,5.9,5.9,5.9h44.8c3.3,0,5.9-2.7,5.9-5.9V33.7C81.5,30.5,78.9,27.8,75.6,27.8z"/>
		<path id="XMLID_1543_" class="st1" d="M40.6,36.5h25.1c1.1,0,2-0.9,2-2v-8.3c0-1.1-0.9-2-2-2h-4.2c0.4-1.2,0.6-2.6,0.4-3.9
			c-0.4-4-3.7-7.3-7.7-7.8c-2.5-0.3-5,0.5-6.9,2.2c-1.9,1.7-3,4.1-3,6.6c0,1,0.2,2,0.5,2.9h-4.2c-1.1,0-2,0.9-2,2v8.3
			C38.6,35.6,39.5,36.5,40.6,36.5z M42.3,27.9H47c0.9,0,1.7-0.5,2.1-1.3c0.4-0.8,0.4-1.8-0.2-2.5c-0.6-0.8-0.9-1.8-0.9-2.9
			c0-1.4,0.6-2.8,1.7-3.8c1.1-1,2.5-1.4,4-1.3c2.3,0.3,4.2,2.1,4.4,4.5c0.1,1.2-0.2,2.4-0.9,3.4c-0.5,0.7-0.6,1.7-0.2,2.5
			c0.4,0.8,1.2,1.3,2.1,1.3H64v4.8H42.3V27.9z"/>
		<path id="XMLID_1542_" class="st1" d="M38.3,49.7h29.8c1,0,1.9-0.8,1.9-1.9s-0.8-1.9-1.9-1.9H38.3c-1,0-1.9,0.8-1.9,1.9
			C36.4,48.9,37.2,49.7,38.3,49.7z"/>
		<path id="XMLID_1541_" class="st1" d="M68.1,59.1H38.3c-1,0-1.9,0.8-1.9,1.9c0,1,0.8,1.9,1.9,1.9h29.8c1,0,1.9-0.8,1.9-1.9
			C70,59.9,69.1,59.1,68.1,59.1z"/>
		<path id="XMLID_1540_" class="st1" d="M68.1,72.2H38.3c-1,0-1.9,0.8-1.9,1.9s0.8,1.9,1.9,1.9h29.8c1,0,1.9-0.8,1.9-1.9
			S69.1,72.2,68.1,72.2z"/>
		<path id="XMLID_1539_" class="st1" d="M68.1,85.4H38.3c-1,0-1.9,0.8-1.9,1.9c0,1,0.8,1.9,1.9,1.9h29.8c1,0,1.9-0.8,1.9-1.9
			C70,86.2,69.1,85.4,68.1,85.4z"/>
	</g>
</g>
<g id="Layer_2">
	<g>
		<g>
			<g>
				<circle class="st2" cx="79" cy="91.6" r="24.9"/>
			</g>
		</g>
		<g>
			<g>
				<rect x="63.6" y="88.1" transform="matrix(0.73 -0.6834 0.6834 0.73 -41.2858 78.6949)" class="st0" width="30.7" height="7"/>
			</g>
			<g>
				<rect x="75.5" y="76.3" transform="matrix(0.6834 -0.73 0.73 0.6834 -41.8715 86.6416)" class="st0" width="7" height="30.7"/>
			</g>
		</g>
	</g>
</g>
</svg>
