<?xml version="1.0" encoding="utf-8"?>
<!-- Generator: Adobe Illustrator 27.0.1, SVG Export Plug-In . SVG Version: 6.00 Build 0)  -->
<svg version="1.1" id="Layer_1" xmlns="http://www.w3.org/2000/svg" xmlns:xlink="http://www.w3.org/1999/xlink" x="0px" y="0px"
	 viewBox="0 0 256 256" style="enable-background:new 0 0 256 256;" xml:space="preserve">
<style type="text/css">
	.st0{fill:#C42727;}
	.st1{fill:#F0F4FA;}
	.st2{fill:#3BB44A;}
	.st3{fill:#212120;}
	.st4{fill:#D3D4D7;}
	.st5{fill:none;stroke:#D54A30;stroke-width:4.2057;stroke-linecap:round;stroke-miterlimit:10;}
</style>
<path class="st0" d="M177.4,61c-6.7,0-12.1,5.4-12.1,12.1s5.4,12.1,12.1,12.1c6.7,0,12.1-5.4,12.1-12.1S184.1,61,177.4,61z
	 M177.4,81.6c-4.7,0-8.5-3.8-8.5-8.5s3.8-8.5,8.5-8.5s8.5,3.8,8.5,8.5S182.1,81.6,177.4,81.6z"/>
<path class="st0" d="M78.1,61C71.4,61,66,66.4,66,73.1s5.4,12.1,12.1,12.1s12.1-5.4,12.1-12.1S84.8,61,78.1,61z M78.1,81.6
	c-4.7,0-8.5-3.8-8.5-8.5s3.8-8.5,8.5-8.5s8.5,3.8,8.5,8.5S82.7,81.6,78.1,81.6z"/>
<path class="st1" d="M195.3,44.9H60.7c-13.4,0-24.3,10.9-24.3,24.3v134.5c0,13.4,10.9,24.3,24.3,24.3h134.5
	c13.4,0,24.3-10.9,24.3-24.3V69.2C219.5,55.8,208.7,44.9,195.3,44.9z M78.1,85.2c-6.7,0-12.1-5.4-12.1-12.1S71.4,61,78.1,61
	s12.1,5.4,12.1,12.1C90.2,79.8,84.8,85.2,78.1,85.2z M177.4,85.2c-6.7,0-12.1-5.4-12.1-12.1S170.7,61,177.4,61
	c6.7,0,12.1,5.4,12.1,12.1C189.5,79.8,184.1,85.2,177.4,85.2z"/>
<path class="st2" d="M195.3,44.9H60.7c-13.4,0-24.3,10.9-24.3,24.3v32.1h183.1V69.2C219.5,55.8,208.7,44.9,195.3,44.9z M78.1,85.2
	c-6.7,0-12.1-5.4-12.1-12.1S71.4,61,78.1,61s12.1,5.4,12.1,12.1C90.2,79.8,84.8,85.2,78.1,85.2z M177.4,85.2
	c-6.7,0-12.1-5.4-12.1-12.1S170.7,61,177.4,61c6.7,0,12.1,5.4,12.1,12.1C189.5,79.8,184.1,85.2,177.4,85.2z"/>
<g>
	<path class="st3" d="M78.1,78.6L78.1,78.6c-3.9,0-7-3.1-7-7V35c0-3.9,3.1-7,7-7l0,0c3.9,0,7,3.1,7,7v36.6
		C85.1,75.4,81.9,78.6,78.1,78.6z"/>
	<path class="st3" d="M177.4,78.6L177.4,78.6c-3.9,0-7-3.1-7-7V35c0-3.9,3.1-7,7-7l0,0c3.9,0,7,3.1,7,7v36.6
		C184.4,75.4,181.3,78.6,177.4,78.6z"/>
</g>
<path class="st4" d="M68.1,142.9h-13c-1.6,0-3-1.3-3-3v-13c0-1.6,1.3-3,3-3h13c1.6,0,3,1.3,3,3v13C71.1,141.5,69.7,142.9,68.1,142.9
	z"/>
<path class="st4" d="M101,142.9H88c-1.6,0-3-1.3-3-3v-13c0-1.6,1.3-3,3-3h13c1.6,0,3,1.3,3,3v13C104,141.5,102.7,142.9,101,142.9z"
	/>
<path class="st4" d="M134,142.9h-13c-1.6,0-3-1.3-3-3v-13c0-1.6,1.3-3,3-3h13c1.6,0,3,1.3,3,3v13C137,141.5,135.6,142.9,134,142.9z"
	/>
<path class="st4" d="M166.9,142.9h-13c-1.6,0-3-1.3-3-3v-13c0-1.6,1.3-3,3-3h13c1.6,0,3,1.3,3,3v13
	C169.9,141.5,168.6,142.9,166.9,142.9z"/>
<path class="st4" d="M199.9,142.9h-13c-1.6,0-3-1.3-3-3v-13c0-1.6,1.3-3,3-3h13c1.6,0,3,1.3,3,3v13
	C202.8,141.5,201.5,142.9,199.9,142.9z"/>
<path class="st4" d="M68.1,174.1h-13c-1.6,0-3-1.3-3-3v-13c0-1.6,1.3-3,3-3h13c1.6,0,3,1.3,3,3v13C71.1,172.8,69.7,174.1,68.1,174.1
	z"/>
<path class="st4" d="M101,174.1H88c-1.6,0-3-1.3-3-3v-13c0-1.6,1.3-3,3-3h13c1.6,0,3,1.3,3,3v13C104,172.8,102.7,174.1,101,174.1z"
	/>
<path class="st4" d="M134,174.1h-13c-1.6,0-3-1.3-3-3v-13c0-1.6,1.3-3,3-3h13c1.6,0,3,1.3,3,3v13C137,172.8,135.6,174.1,134,174.1z"
	/>
<path class="st4" d="M166.9,174.1h-13c-1.6,0-3-1.3-3-3v-13c0-1.6,1.3-3,3-3h13c1.6,0,3,1.3,3,3v13
	C169.9,172.8,168.6,174.1,166.9,174.1z"/>
<path class="st4" d="M199.9,174.1h-13c-1.6,0-3-1.3-3-3v-13c0-1.6,1.3-3,3-3h13c1.6,0,3,1.3,3,3v13
	C202.8,172.8,201.5,174.1,199.9,174.1z"/>
<path class="st4" d="M68.1,205.3h-13c-1.6,0-3-1.3-3-3v-13c0-1.6,1.3-3,3-3h13c1.6,0,3,1.3,3,3v13C71.1,204,69.7,205.3,68.1,205.3z"
	/>
<path class="st4" d="M101,205.3H88c-1.6,0-3-1.3-3-3v-13c0-1.6,1.3-3,3-3h13c1.6,0,3,1.3,3,3v13C104,204,102.7,205.3,101,205.3z"/>
<path class="st4" d="M134,205.3h-13c-1.6,0-3-1.3-3-3v-13c0-1.6,1.3-3,3-3h13c1.6,0,3,1.3,3,3v13C137,204,135.6,205.3,134,205.3z"/>
<path class="st4" d="M166.9,205.3h-13c-1.6,0-3-1.3-3-3v-13c0-1.6,1.3-3,3-3h13c1.6,0,3,1.3,3,3v13
	C169.9,204,168.6,205.3,166.9,205.3z"/>
<path class="st4" d="M199.9,205.3h-13c-1.6,0-3-1.3-3-3v-13c0-1.6,1.3-3,3-3h13c1.6,0,3,1.3,3,3v13
	C202.8,204,201.5,205.3,199.9,205.3z"/>
<path class="st5" d="M85.1,145.7c23.7-0.7,27.5,11.5,27.5,18.9c0,8.3-8.1,14.9-18,14.9s-16.3-6.7-16.3-14.9
	c0-3.9,2.3-13.2,13.9-12.5"/>
</svg>
