<?xml version="1.0" encoding="utf-8"?>
<!-- Generator: Adobe Illustrator 27.0.1, SVG Export Plug-In . SVG Version: 6.00 Build 0)  -->
<svg version="1.1" id="Layer_1" xmlns="http://www.w3.org/2000/svg" xmlns:xlink="http://www.w3.org/1999/xlink" x="0px" y="0px"
	 viewBox="0 0 50 50" style="enable-background:new 0 0 50 50;" xml:space="preserve">
<style type="text/css">
	.st0{fill:#FF5892;}
	.st1{fill:#02BEFF;}
	.st2{fill:#FF5F4A;}
	.st3{fill:#FDCB4D;}
	.st4{fill:#2E3F68;}
	.st5{fill:#3BB44A;}
	.st6{fill:#00A3FE;}
	.st7{fill:#D54A30;}
</style>
<circle class="st0" cx="6.8" cy="11.8" r="0.9"/>
<circle class="st1" cx="47" cy="37.4" r="0.9"/>
<circle class="st2" cx="35.3" cy="6.4" r="0.9"/>
<path class="st3" d="M20.7,27.1c-0.8,0.8-2.2,0.8-3,0c-0.8-0.8-0.8-2.2,0-3c0.8-0.8,2.2-0.8,3,0S21.5,26.2,20.7,27.1z M29.1,33.4
	c-1.1,1.1-2.8,1.1-3.9,0c-1.1-1.1-1.1-2.8,0-3.8c1.1-1.1,2.8-1.1,3.8,0C30.1,30.6,30.1,32.3,29.1,33.4z M17.7,36.3
	c-0.7,0.7-1.8,0.7-2.5,0c-0.7-0.7-0.7-1.8,0-2.4s1.8-0.7,2.4,0S18.4,35.7,17.7,36.3z M47.9,23.5l-0.7,1.9l1.2,1.6
	c0.2,0.3,0,0.6-0.3,0.6l-2,0l-1.2,1.6c-0.2,0.3-0.6,0.2-0.7-0.1l-0.6-1.9l-1.9-0.6c-0.2-0.1-0.3-0.3-0.3-0.5c0-0.1,0.1-0.2,0.1-0.2
	l1.6-1.2l0-2c0-0.3,0.4-0.5,0.6-0.3l1.6,1.2l1.9-0.6C47.7,22.9,48,23.2,47.9,23.5z M39,13l-0.7,1.9l1.2,1.6c0.2,0.3,0,0.6-0.3,0.6
	l-2,0l-1.2,1.6c-0.2,0.3-0.6,0.2-0.7-0.1l-0.6-1.9l-1.9-0.6c-0.2-0.1-0.3-0.3-0.3-0.5c0-0.1,0.1-0.2,0.1-0.2l1.6-1.2l0-2
	c0-0.3,0.4-0.5,0.6-0.3l1.6,1.2l1.9-0.6C38.9,12.4,39.1,12.7,39,13z M27.9,3l-0.6,1.9l1.2,1.6c0.2,0.3,0,0.6-0.3,0.6l-2,0L25,8.8
	c-0.2,0.3-0.6,0.2-0.7-0.1l-0.6-1.9l-1.9-0.6c-0.2-0.1-0.3-0.3-0.3-0.5c0-0.1,0.1-0.2,0.1-0.2l1.6-1.2l0-2c0-0.3,0.4-0.5,0.6-0.3
	l1.6,1.2l1.9-0.6C27.7,2.4,28,2.7,27.9,3z M15.2,46.8c0,0.7-0.6,1.3-1.3,1.3c-0.7,0-1.3-0.6-1.3-1.3c0-0.7,0.6-1.3,1.3-1.3
	C14.6,45.4,15.2,46,15.2,46.8C15.2,46.7,15.2,46.7,15.2,46.8z"/>
<path class="st4" d="M17.2,23.5c-1.1,1.1-1.1,2.9,0,4c0.6,0.6,1.3,0.8,2,0.8s1.5-0.3,2-0.8c1.1-1.1,1.1-2.9,0-4
	C20.1,22.5,18.3,22.5,17.2,23.5z"/>
<path class="st5" d="M20.2,26.5c-0.5,0.5-1.4,0.5-2,0c-0.5-0.6-0.5-1.4,0-2c0.3-0.3,0.6-0.4,1-0.4c0.4,0,0.7,0.1,1,0.4
	C20.7,25.1,20.7,26,20.2,26.5z"/>
<path class="st4" d="M29.6,29c-1.3-1.3-3.6-1.3-4.9,0c-0.6,0.6-1,1.5-1,2.4s0.4,1.8,1,2.4c1.3,1.3,3.5,1.3,4.9,0
	C31,32.6,30.9,30.4,29.6,29z"/>
<path class="st6" d="M28.6,32.9c-0.8,0.8-2.1,0.8-2.8,0c-0.4-0.4-0.6-0.9-0.6-1.4c0-0.5,0.2-1,0.6-1.4c0.4-0.4,0.9-0.6,1.4-0.6
	s1,0.2,1.4,0.6C29.3,30.8,29.4,32.1,28.6,32.9z"/>
<path class="st4" d="M14.7,33.4c-1,1-1,2.5,0,3.5c0,0,0,0,0,0c0.5,0.5,1.1,0.7,1.7,0.7c0.6,0,1.3-0.2,1.7-0.7c1-1,1-2.5,0-3.5
	C17.3,32.4,15.7,32.4,14.7,33.4z"/>
<path class="st7" d="M17.2,35.8c-0.4,0.4-1,0.4-1.4,0s-0.4-1,0-1.4c0.4-0.4,1-0.4,1.4,0C17.6,34.8,17.6,35.4,17.2,35.8z"/>
<path class="st4" d="M48.8,26.8l-1-1.4l0.6-1.7c0.1-0.3,0-0.7-0.2-0.9c-0.2-0.2-0.6-0.3-0.9-0.2l-1.7,0.6l-1.4-1
	c-0.3-0.2-0.6-0.2-0.9-0.1c-0.3,0.1-0.5,0.5-0.5,0.8l0,1.3c-2.2-1-4.7-1.1-7-0.3c-1.1-1.3-2.3-2.6-3.6-3.9l2.3-2.3l0.4,1.2
	c0.1,0.3,0.4,0.5,0.7,0.6c0,0,0.1,0,0.1,0c0.3,0,0.5-0.1,0.7-0.4l1-1.4l1.8,0c0.4,0,0.6-0.2,0.8-0.5c0.2-0.3,0.1-0.7-0.1-0.9l-1-1.4
	l0.6-1.7c0.1-0.3,0-0.7-0.2-0.9C39,12,38.7,11.9,38.4,12l-1.7,0.6l-1.4-1.1c-0.3-0.2-0.6-0.2-0.9-0.1c-0.3,0.1-0.5,0.5-0.5,0.8
	l0,1.8l-1.4,1c-0.3,0.2-0.4,0.5-0.4,0.9c0,0.3,0.3,0.6,0.6,0.7l1.2,0.4l-2.3,2.3c-1.2-1.2-2.5-2.4-3.8-3.5c0.4-1,0.6-2.1,0.6-3.2
	c0-1.8-0.5-3.5-1.6-4.9l1.3,0c0.3,0,0.6-0.2,0.8-0.5c0.1-0.3,0.1-0.7-0.1-0.9l-1-1.4l0.6-1.7c0.1-0.3,0-0.7-0.2-0.9
	C27.9,2,27.6,2,27.3,2.1l-1.7,0.6l-1.4-1c-0.4-0.3-0.9-0.2-1.2,0.2c-0.1,0.2-0.2,0.3-0.2,0.5l0,1.8l-1.4,1C21.1,5.3,21,5.6,21,5.9
	c0,0.3,0.3,0.6,0.6,0.7l1.7,0.5l0.5,1.7c0.1,0.3,0.4,0.6,0.7,0.6c0,0,0.1,0,0.1,0c0.3,0,0.5-0.1,0.7-0.4L26,8.2c1.4,2,1.8,4.6,1,6.9
	c-1.2-0.9-2.3-1.8-3.3-2.5c-2.8-1.8-4.5-2.3-5.3-1.5c-0.2,0.2-0.3,0.5-0.3,0.8L7.6,41c-0.2,0.4-0.1,0.9,0.1,1.3l-1.9,2
	c-0.5,0.5-0.6,1.2-0.4,1.9s0.9,1.1,1.6,1.1h5.2c0.2,0.8,0.9,1.3,1.7,1.3c1,0,1.8-0.8,1.8-1.8c0-1-0.8-1.8-1.8-1.8
	c-0.8,0-1.5,0.6-1.7,1.3H7c-0.3,0-0.6-0.2-0.7-0.5S6.2,45.2,6.5,45l1.9-1.9c0.4,0.3,1,0.3,1.5,0.2l29.7-9.7c0.3,0,0.7-0.1,0.9-0.3
	c0.8-0.8,0.3-2.5-1.5-5.3c-0.8-1.1-1.6-2.2-2.5-3.3c1.9-0.6,4-0.5,5.8,0.3l-0.9,0.6c-0.3,0.2-0.4,0.5-0.4,0.9c0,0.3,0.3,0.6,0.6,0.7
	l1.7,0.5l0.5,1.7c0.1,0.3,0.4,0.6,0.7,0.6c0,0,0.1,0,0.1,0c0.3,0,0.5-0.1,0.7-0.4l1-1.4l1.8,0c0.4,0,0.6-0.2,0.8-0.5
	C49.1,27.4,49,27,48.8,26.8z M24.7,8.4l-0.5-1.8c-0.1-0.2-0.2-0.3-0.3-0.3l-1.8-0.5l1.5-1.1c0.1-0.1,0.2-0.2,0.2-0.4l0-1.8l1.5,1.1
	c0.1,0.1,0.3,0.1,0.5,0.1L27.4,3l-0.6,1.8c0,0.2,0,0.3,0.1,0.4L28,6.7l-1.8,0h0c-0.2,0-0.3,0.1-0.4,0.2C25.7,6.9,24.7,8.4,24.7,8.4z
	 M13.9,45.9c0.5,0,0.9,0.4,0.9,0.8s-0.4,0.9-0.9,0.9S13,47.2,13,46.8C13,46.3,13.4,45.9,13.9,45.9z M34.7,14.7
	c0.1-0.1,0.2-0.2,0.2-0.4l0-1.8l1.5,1.1c0.1,0.1,0.3,0.1,0.5,0.1l1.8-0.6l-0.6,1.8c0,0.1,0,0.3,0.1,0.4l1.1,1.5l-1.8,0
	c-0.2,0-0.3,0.1-0.4,0.2l-1.1,1.5l-0.5-1.8c-0.1-0.2-0.2-0.3-0.3-0.3l-1.8-0.5C33.2,15.7,34.7,14.7,34.7,14.7z M9.5,42.3
	c-0.3,0.1-0.6,0-0.8-0.2c-0.2-0.2-0.3-0.5-0.2-0.8l9.8-27.6c1.2,3.1,5.2,7.8,8.4,11c3.2,3.2,7.8,7.1,10.9,8.4L9.5,42.3z M38.1,28.5
	c1.8,2.7,1.8,3.9,1.6,4.1c-0.7,0.7-5.4-1.7-12.2-8.5c-2.8-2.8-5.3-5.7-6.9-8.1c-1.8-2.7-1.9-3.9-1.6-4.1c0-0.1,0.2-0.1,0.3-0.1
	c0.5,0,1.7,0.4,3.8,1.7c1.1,0.7,2.2,1.6,3.5,2.6c-0.4,0.7-0.9,1.4-1.4,2c-0.2,0.2-0.2,0.5,0,0.7c0.1,0.1,0.2,0.1,0.3,0.1
	s0.2,0,0.3-0.1c0.6-0.6,1.1-1.3,1.5-2c1.2,1,2.4,2.1,3.5,3.2L29,21.9c-0.2,0.2-0.2,0.5,0,0.7c0.1,0.1,0.2,0.1,0.3,0.1s0.2,0,0.3-0.1
	l1.9-1.9c1.2,1.2,2.3,2.4,3.3,3.6c-0.7,0.4-1.4,0.9-2.1,1.5c-0.2,0.2-0.2,0.5,0,0.7c0.2,0.2,0.5,0.2,0.6,0c0.6-0.6,1.3-1.1,2-1.4
	C36.5,26.2,37.4,27.4,38.1,28.5z M46.1,27.2c-0.2,0-0.3,0.1-0.4,0.2l-1.1,1.5l-0.5-1.8c-0.1-0.2-0.2-0.3-0.3-0.3L42,26.2l1.5-1.1
	c0.1-0.1,0.2-0.2,0.2-0.4l0-1.8l1.5,1.1c0.1,0.1,0.3,0.1,0.5,0.1l1.8-0.6l-0.6,1.8c0,0.1,0,0.3,0.1,0.5l1.1,1.5
	C47.9,27.2,46.1,27.2,46.1,27.2z"/>
</svg>
