<?xml version="1.0" encoding="utf-8"?>
<!-- Generator: Adobe Illustrator 27.0.1, SVG Export Plug-In . SVG Version: 6.00 Build 0)  -->
<svg version="1.1" id="Layer_1" xmlns="http://www.w3.org/2000/svg" xmlns:xlink="http://www.w3.org/1999/xlink" x="0px" y="0px"
	 viewBox="0 0 128 128" style="enable-background:new 0 0 128 128;" xml:space="preserve">
<style type="text/css">
	.st0{fill:#D54A30;}
	.st1{fill:#00A3FE;}
</style>
<path class="st0" d="M64,40.6c4.8-1.9,9.6-2.9,14.4-2.9c3.8,0,7.7,0.5,11,1.4C80.8,19.5,58.2,10.8,39,19
	c-19.2,8.6-28.3,31.2-19.7,50.9c1.4,2.9,2.9,5.8,4.8,8.2l-6.7,6.7c-1.9,1.9-1.9,4.8,0,6.7c1,1,1.9,1.4,3.4,1.4h19.7
	C32.3,71.8,42.9,48.3,64,40.6z"/>
<path class="st1" d="M110.6,103.9l-5.3-5.3c11-14.9,8.2-36-6.7-47s-36-8.2-47,6.7s-8.2,36,6.7,47c5.8,4.3,13,6.7,20.2,6.7h28.8
	c2.9,0,4.8-1.9,4.8-4.8C112,105.9,111.5,104.9,110.6,103.9z"/>
</svg>
