<?xml version="1.0" encoding="utf-8"?>
<!-- Generator: Adobe Illustrator 26.3.1, SVG Export Plug-In . SVG Version: 6.00 Build 0)  -->
<svg version="1.1" id="Layer_1" xmlns="http://www.w3.org/2000/svg" xmlns:xlink="http://www.w3.org/1999/xlink" x="0px" y="0px"
	 viewBox="0 0 128.7 128" style="enable-background:new 0 0 128.7 128;" xml:space="preserve">
<style type="text/css">
	.st0{fill:#D54A30;stroke:#D54A30;stroke-width:1;stroke-miterlimit:9.9996;}
	.st1{fill:#FFFFFF;}
	.st2{fill:#B0B0B5;}
</style>
<g id="Layer_1_00000080907169249535844030000002738741137401685670_">
</g>
<ellipse class="st0" cx="66.2" cy="44.7" rx="14.2" ry="14.2"/>
<path class="st1" d="M67.4,51.8v1.8h-2.6v-1.9c-1.3-0.3-2.6-0.9-3.8-1.8l1.9-1.9c0,0,1.4,1.1,2.8,1.2c1.5,0.2,2.5-0.5,2.6-1.3
	c0.2-1.6-3.3-2.2-4.6-2.9c-1.5-0.8-3-1.7-3-3.8s1.6-3.7,4.2-3.9v-1.9h2.6v2c1.6,0.3,2.8,1,3.6,1.7l-1.8,2.1c-0.6-0.5-1.5-1-2.5-1.2
	c-1.2-0.3-2.6,0-2.7,1.2c0,0.5,0.2,1.4,2.9,2.2c1.4,0.4,4.7,1.2,4.7,4.4C71.6,49.9,69.8,51.5,67.4,51.8z"/>
<polygon class="st2" points="102,33.8 67.5,15.9 30.4,33.8 32.5,38.1 36.8,36 36.8,56 41.6,56 41.6,34.1 67.4,21.2 91.1,33.7 
	91.1,56 95.8,56 95.8,36 99.8,38.1 "/>
<path class="st2" d="M70.1,81.3L65,79.7v0.1c-1.4,0.9-3.8,2.7-4.9,3.4c-4.1,2.8-8.4,1-10.6-1.9l-0.8-0.9l8.1-6.6L44.4,74L36,92.5
	l-0.1,0.2L65,110.3c0.3,0.3,0.8,0.3,1.1,0.3c0.5,0,1-0.2,1.5-0.5l1.1-0.9l-4.2-3.1c-0.5-0.4-0.7-1.2-0.3-1.7
	c0.4-0.5,1.2-0.7,1.7-0.3l5.3,3.9c0.1,0.1,0.2,0.1,0.3,0.3l0.2,0.2c0.7,0.5,1.5,0.4,2.2-0.1c0.4-0.3,0.7-0.9,0.7-1.4s-0.2-1-0.6-1.5
	l-5.5-5.1c-0.3-0.3-0.3-0.5-0.4-0.9c-0.1-0.3,0.1-0.7,0.3-0.9c0.3-0.3,0.5-0.3,0.9-0.4c0.3,0,0.7,0.1,0.9,0.3l5.5,5.1l0,0l0,0
	l1.9,1.8c0.9,0.8,2.1,0.8,2.9,0c0.4-0.4,0.7-0.9,0.7-1.5s-0.2-1.2-0.6-1.6l-7.4-7.5c-0.5-0.5-0.5-1.3,0-1.7c0.5-0.5,1.3-0.5,1.7,0
	l7.4,7.5l0.1,0.1c0,0,0.1,0.1,0.1,0.2l1.5,1.5c0.9,0.9,2.1,0.9,3,0c0.4-0.4,0.7-0.9,0.7-1.6c0-0.6-0.2-1.2-0.6-1.6L70.1,81.3z"/>
<polygon class="st2" points="43.3,70.8 32.1,65.4 21,89.4 20.9,89.6 32.2,94.9 43.2,70.9 "/>
<path class="st2" d="M84.1,75.6l-1.9-1.4c-1.5-1-3.3-1.6-5.1-1.7C73.3,72.4,67,72.1,64.4,72c-0.9-0.1-1.5,0.1-2.1,0.5l-9.8,7.9
	l-0.2,0.2l0.2,0.2c1.1,0.9,3.4,2.2,6.2,0.3c1.2-0.9,3.9-2.7,5.3-3.8l0.6-0.4l6.8,2.1L88,96.5l0.1,0.1l7.9-4.1l-7.5-18.6L84.1,75.6z"
	/>
<polygon class="st2" points="100.9,65.6 89.8,70.3 99.8,95 110.9,90.3 "/>
</svg>
