<?xml version="1.0" encoding="utf-8"?>
<!-- Generator: Adobe Illustrator 26.3.1, SVG Export Plug-In . SVG Version: 6.00 Build 0)  -->
<svg version="1.1" id="Layer_1" xmlns="http://www.w3.org/2000/svg" xmlns:xlink="http://www.w3.org/1999/xlink" x="0px" y="0px"
	 viewBox="0 0 128 128" style="enable-background:new 0 0 128 128;" xml:space="preserve">
<style type="text/css">
	.st0{fill:#00A3FE;stroke:#00A3FE;stroke-miterlimit:10;}
	.st1{fill:#FFFFFF;}
	.st2{font-family:'Arial-BoldMT';}
	.st3{font-size:20.5657px;}
	.st4{fill:none;stroke:#B0B0B5;stroke-width:4;stroke-miterlimit:10;}
	.st5{fill:#B0B0B5;}
</style>
<circle class="st0" cx="62.7" cy="39.1" r="16.7"/>
<text transform="matrix(1 0 0 1 56.6774 45.3607)" class="st1 st2 st3">$</text>
<g>
	<path class="st4" d="M46.8,68.9c0,8.1,6.6,14.7,14.7,14.7h2.1c8.1,0,14.7-6.6,14.7-14.7v-5.1c0-8.1-6.6-14.7-14.7-14.7h-1.8
		c-8.1,0-14.7,6.6-14.7,14.7L46.8,68.9L46.8,68.9z"/>
	<path class="st4" d="M46.8,68.9c0,8.1,6.6,14.7,14.7,14.7h2.1c8.1,0,14.7-6.6,14.7-14.7v-5.1c0-8.1-6.6-14.7-14.7-14.7h-1.8
		c-8.1,0-14.7,6.6-14.7,14.7L46.8,68.9L46.8,68.9z"/>
</g>
<path class="st5" d="M78.6,102.8c-3.9,0-28.2,0-31.8,0c-3.6,0-3.6-4.2-3.6-4.2V71h38.7v27.9C82.2,98.9,82.5,102.8,78.6,102.8z"/>
<circle class="st1" cx="63" cy="84.8" r="3.3"/>
<rect x="61.8" y="84.8" class="st1" width="3" height="8.7"/>
</svg>
