<?xml version="1.0" encoding="utf-8"?>
<!-- Generator: Adobe Illustrator 27.0.1, SVG Export Plug-In . SVG Version: 6.00 Build 0)  -->
<svg version="1.1" id="Layer_1" xmlns="http://www.w3.org/2000/svg" xmlns:xlink="http://www.w3.org/1999/xlink" x="0px" y="0px"
	 viewBox="0 0 51 51" style="enable-background:new 0 0 51 51;" xml:space="preserve">
<style type="text/css">
	.st0{fill:#00A3FE;}
	.st1{fill:#D54A30;}
	.st2{fill:#212223;}
	.st3{fill:#3BB44A;}
</style>
<path class="st0" d="M29.3,21.4v1.3c1,0.6,1.7,1.7,1.7,2.8c0,1.8-1.5,3.3-3.3,3.3c-1.8,0-3.3-1.5-3.3-3.2c0,0,0,0,0,0
	c0-1.2,0.7-2.3,1.7-2.8v-1.3h-6.5V5.3h13.1c1.7,0,3,1.3,3,3v13.1H29.3L29.3,21.4z"/>
<path class="st1" d="M35.8,21.4l10.4,7.9c1.3,1,1.6,2.9,0.6,4.2L38.8,44L33.7,40l-0.8,1c0.6,1.3,0.3,2.9-1,3.9
	c-0.9,0.7-2.2,0.9-3.2,0.4c-1.7-0.7-2.5-2.6-1.8-4.3c0.1-0.3,0.3-0.5,0.4-0.7c0.7-0.9,1.9-1.4,3.1-1.2l0.8-1L26,34.2l3.9-5.1
	l1.1,0.8c-0.2,1.4,0.5,2.9,2,3.5c1.1,0.5,2.3,0.3,3.2-0.4c1.4-1.1,1.7-3.2,0.6-4.6c-0.2-0.2-0.4-0.4-0.6-0.6
	c-0.9-0.7-2.2-0.9-3.3-0.4l-1-0.8L35.8,21.4z"/>
<path class="st2" d="M27.1,13.4c0,1.8-1.5,3.3-3.3,3.3c-1.2,0-2.3-0.7-2.8-1.7h-1.3v6.5H3.6V8.3c0-1.6,1.3-3,3-3h13.1v6.5H21
	c0.6-1,1.7-1.7,2.8-1.7C25.7,10.1,27.1,11.6,27.1,13.4L27.1,13.4z"/>
<path class="st3" d="M12.4,30.3c0.3,1.1,1.2,2,2.3,2.3c1.6,0.4,3-0.4,3.7-1.6h1.3v6.5H6.6c-1.7,0-3-1.3-3-3V21.4h6.5v-1.3
	c-1-0.6-1.7-1.6-1.7-2.8c0-1.8,1.5-3.3,3.3-3.3s3.3,1.5,3.3,3.3c0,1.2-0.7,2.3-1.7,2.8v1.3h6.5v6.5h-1.3c-0.9-1.6-2.9-2.1-4.4-1.3
	C12.7,27.4,12,28.9,12.4,30.3L12.4,30.3z"/>
<text transform="matrix(1 0 0 1 128 128)" style="font-family:'MyriadPro-Regular'; font-size:12px;">3bb44a</text>
</svg>
