<?xml version="1.0" encoding="utf-8"?>
<!-- Generator: Adobe Illustrator 26.3.1, SVG Export Plug-In . SVG Version: 6.00 Build 0)  -->
<svg version="1.1" id="Layer_1" xmlns="http://www.w3.org/2000/svg" xmlns:xlink="http://www.w3.org/1999/xlink" x="0px" y="0px"
	 viewBox="0 0 128 128" style="enable-background:new 0 0 128 128;" xml:space="preserve">
<style type="text/css">
	.st0{fill:#3C4752;}
	.st1{fill:#3BB44A;}
	.st2{fill:#FFFFFF;}
</style>
<path class="st0" d="M81.2,71.5c0,1.4,1.1,2.5,2.5,2.5h25.9l9.1-21.7c0.3-0.6,0.3-1.3,0-1.9c-0.2-0.6-0.7-1.1-1.3-1.3l-0.1-0.1
	c-1.3-0.5-2.7,0.1-3.2,1.3l-8,18.7H83.6C82.3,69,81.2,70.1,81.2,71.5z M71.7,94.9c-0.8-1.6-2.2-2.8-3.9-3.3l-14.2-4.1V75.9
	c-0.3-0.2-0.6-0.5-0.9-0.8l-5.6-6c-0.5-0.5-0.6-1.4-0.1-1.9c0.6-0.7,1.6-0.7,2.2-0.1l4.4,4.7l1.3,1.3c1.1,1.2,2.8,1.9,4.4,1.8
	L73.2,74c2-0.1,3.5-1.8,3.5-3.7c0-2-1.5-3.6-3.5-3.7l-12-0.8l-10-15l-0.1-0.1L50.8,50l0,0c-0.4-0.6-0.9-1.1-1.4-1.6
	c-0.2-0.2-0.4-0.4-0.6-0.6c-2.5-2.3-5.9-3.6-9.5-3.6c-7.9,0-14.2,6.6-14.2,14.5V90c0,7,5.1,12.9,11.8,14l0,0h0.2
	c0.5,0.1,1.1,0.1,1.6,0.2l22.2,2.2l13.6,18c1.7,2.3,4.9,2.7,7.1,0.9l0,0c1.9-1.5,2.5-4,1.5-6.1L71.7,94.9z"/>
<circle class="st0" cx="39.4" cy="27" r="12.3"/>
<path class="st1" d="M122.6,78c-0.6-0.6-1.5-1-2.5-1H56.8v7h63.3c1.9,0,3.5-1.6,3.5-3.5C123.6,79.5,123.2,78.6,122.6,78z"/>
<path class="st1" d="M48,112l-12.6-0.7c-8.3-1.5-14.8-8.3-15.8-16.7v-0.1L14.7,63c-0.4-2.8-3.1-4.8-5.9-4.3C6,59.1,4,61.8,4.5,64.6
	L9.3,96c0.8,6.4,3.6,12.2,8,16.9c4.5,4.7,10.2,7.7,16.6,8.8h0.3l13.2,0.7c0.1,0,0.2,0,0.3,0c2.7,0,5-2.1,5.2-4.9
	C53,114.6,50.8,112.2,48,112z"/>
<path class="st1" d="M84.4,37.3c4.7,0,9.2-1.9,12.6-5.2c3.4-3.4,5.2-7.8,5.2-12.6c0-9.8-8-17.8-17.8-17.9l0,0
	c-4.8,0-9.2,1.9-12.6,5.2c-3.4,3.4-5.2,7.8-5.2,12.6C66.6,29.3,74.6,37.3,84.4,37.3z"/>
<path class="st2" d="M74.1,9.1c2.7-2.8,6.4-4.3,10.3-4.3l0,0c8,0,14.6,6.6,14.6,14.6c0,3.9-1.5,7.5-4.3,10.3
	C92,32.5,88.3,34,84.4,34c-8,0-14.6-6.6-14.6-14.6C69.9,15.5,71.4,11.9,74.1,9.1z"/>
<path class="st0" d="M85.9,21.1l5.8-6.8c0.4-0.5,0.4-1.1,0-1.6c-0.4-0.6-1.2-0.6-1.8-0.2l-7.1,5.4c-0.1,0.1-0.2,0.2-0.3,0.3
	c-0.8,1-0.7,2.4,0.2,3.2C83.7,22.1,85.1,22,85.9,21.1z"/>
</svg>
