<?xml version="1.0" encoding="utf-8"?>
<!-- Generator: Adobe Illustrator 26.3.1, SVG Export Plug-In . SVG Version: 6.00 Build 0)  -->
<svg version="1.1" id="Layer_1" xmlns="http://www.w3.org/2000/svg" xmlns:xlink="http://www.w3.org/1999/xlink" x="0px" y="0px"
	 viewBox="0 0 128 128" style="enable-background:new 0 0 128 128;" xml:space="preserve">
<style type="text/css">
	.st0{fill:#3C4752;}
	.st1{fill:#00A3FE;}
</style>
<path class="st0" d="M56.5,29.2c0.7,3.6,3.8,6.1,7.5,6.1c3.6,0,6.8-2.6,7.5-6.1l1.2-6c0.7-4.8-3.1-9.1-7.9-9.1H64h-0.7
	c-4.8,0-8.6,4.3-7.9,9.1L56.5,29.2z M46.5,63.5h35c1.4,0,2.4-1.2,2.3-2.6l-2.4-18.7c-0.2-0.8-0.7-1.4-1.5-1.7l-8.1-2.9L64,45.4
	l-7.8-7.8l-8.1,2.9c-0.7,0.3-1.3,0.9-1.5,1.7l-2.4,18.7C44.1,62.3,45.1,63.5,46.5,63.5z M37.9,82.3l-0.5-0.1L29,80.9
	c0-0.4,0-0.7,0-1.1l-2-20c-0.4-7-6.4-12.3-13.4-11.9S1.3,54.3,1.7,61.3l1.9,19.9c0.3,5.2,3.7,9.4,8.3,11.1c1.1,0.6,2.4,0.9,3.7,0.8
	l16.6,0.7V109c0,2.7,2.2,4.9,4.9,4.9s4.9-2.2,4.9-4.9V87C42,84.7,40.2,82.6,37.9,82.3z M15.3,42.8c6.1,0,11.1-5,11.1-11.1
	s-5-11.1-11.1-11.1s-11.1,5-11.1,11.1C4.2,37.8,9.2,42.8,15.3,42.8z M114.4,48c-7-0.4-13,4.9-13.4,11.9l-1.9,19.9c0,0.4,0,0.7,0,1.1
	l-8.4,1.3l-0.5,0.1c-2.4,0.4-4.1,2.4-4.1,4.8v22c0,2.7,2.2,4.9,4.9,4.9s4.9-2.2,4.9-4.9V93.9l16.6-0.7c1.3,0.1,2.6-0.2,3.7-0.8
	c4.6-1.7,7.9-5.9,8.3-11.1l1.9-19.9C126.7,54.4,121.4,48.4,114.4,48z M112.7,42.8c6.1,0,11.1-5,11.1-11.1s-5-11.1-11.1-11.1
	s-11.1,5-11.1,11.1S106.6,42.8,112.7,42.8z"/>
<path class="st1" d="M91.2,72.6c0-2.7-2.2-4.9-4.9-4.9H64H41.7c-2.7,0-4.9,2.2-4.9,4.9c0,2.7,2.2,4.9,4.9,4.9H47v36.4h17h17V77.5
	h5.3C89,77.5,91.2,75.3,91.2,72.6z"/>
</svg>
