<?xml version="1.0" encoding="utf-8"?>
<!-- Generator: Adobe Illustrator 27.0.1, SVG Export Plug-In . SVG Version: 6.00 Build 0)  -->
<svg version="1.1" id="Layer_1" xmlns="http://www.w3.org/2000/svg" xmlns:xlink="http://www.w3.org/1999/xlink" x="0px" y="0px"
	 viewBox="0 0 64 64" style="enable-background:new 0 0 64 64;" xml:space="preserve">
<style type="text/css">
	.st0{fill:#2F4051;}
	.st1{fill:#3BB44A;}
	.st2{fill:#307BBF;}
</style>
<path class="st0" d="M54.8,39.1c0.6,0.3,1.2,1.3,1.2,2c0,0.4-0.2,0.7-0.5,0.9s-0.6,0.3-1,0.4c-1.4,0.2-2.9,0.4-4.3,0.6L46,43.6
	c-0.4,0.1-0.8,0-1.1-0.1c-0.8-0.3-1.2-1.2-1-2.2c0.2-0.7,0.6-1.2,1.4-1.3c2.6-0.4,5.1-0.7,7.7-1C53.6,38.8,54.3,38.8,54.8,39.1z"/>
<path class="st0" d="M44.6,57.3c-0.1,0.1-0.1,0.3-0.2,0.4c-0.5,1.5-0.3,3,0.7,4.2l0.2,0.2c-1.3,0.2-2.7,0.3-4,0.3
	c-2.3,0.1-4.6,0-6.9-0.6c-2.1-0.5-4-1.5-6.1-1.8c-1.6-0.2-3.2-0.2-4.9-0.3c-1.2,0-2.2-1-2.4-2.2l-2-16.1c-0.1-1.1,0.5-2.2,1.5-2.6
	c1.2-0.5,2.4-1.2,3.5-1.9c3.4-2.4,9.4-7.3,13.5-8.3c4.5-1.2,8.4,1.4,12.8,2.2c1.3,0.2,3.9,0.3,4,2.1c0.2,3.3-3.9,3.9-6.4,3.9
	c-1.5,0-3.1-0.1-4.6-0.4c-0.4-0.1-1.4-0.5-1.8-0.4c-0.1,0-0.3,0.1-0.4,0.2c-0.9,0.6-0.9,2.1-1.2,3.1c-0.5,1.3-1.3,2.7-2.1,3.8
	c-1.3,1.7-3.6,4-5.9,4.7c-0.1,0-0.1,0.1-0.1,0.1l0.1,0.1c4.5-0.4,7.6-3.8,9.5-7.6c0,0.1-0.1,0.2-0.1,0.3c-0.3,1.2-0.1,2.5,0.6,3.4
	c-0.9,0.6-1.6,1.6-1.8,2.8c-0.2,1.3,0.1,2.5,0.9,3.5c0.3,0.4,0.7,0.7,1.2,0.9c-0.2,0.3-0.3,0.6-0.4,0.9c0.1,1.4,0.4,2.8,1.2,3.8
	C43.4,56.6,44,57,44.6,57.3z"/>
<path class="st1" d="M54.5,5.2c0.1-1.7-1-2.9-2.7-2.9C46.2,2,40.6,1.8,35,1.6h-0.8C32.9,2,32.1,3,32.1,4.4
	c-0.2,5.4-0.3,9.5-0.5,14.5l-0.1,2.7l-0.1,2.7c-0.1,1.8-0.2,3.5-0.3,5.1c1.2-1,2.5-1.8,4-2.3l0.3-5.4c0.1-3.2,0.2-6.3,0.4-10
	c0.1,0,0.2-0.1,0.3-0.1h0.1c1.9-0.5,3.2-1.7,3.6-3.6c2.5,0.1,4.7,0.2,6.7,0.2c0.5,2.1,1.8,3.5,3.8,4.1c-0.2,3.9-0.3,7.1-0.4,9.9v0.4
	c-0.1,1.9-0.2,3.9-0.3,6.3l1.5,0.3c0.2,0,0.3,0.1,0.5,0.1c0.4,0.1,1.1,0.2,1.8,0.3l0.4-8.2v-0.7C53.8,20.7,54.5,5.2,54.5,5.2z"/>
<circle class="st2" cx="42.5" cy="22.1" r="4.3"/>
<circle class="st1" cx="42.5" cy="22.1" r="4.3"/>
<path class="st1" d="M24,5.9C23.8,6,23.5,6,23.3,6.2c-1.2,0.7-1.6,1.9-1.3,3.3c1.5,5.2,2.5,9.2,3.9,14l0.7,2.6l0.7,2.7
	c0.3,1.2,0.6,2.3,0.9,3.4l0.6-0.6c0.1-1.1,0.1-2.3,0.2-3.4l0.3-6.6v-0.2c-0.5-1.9-1.1-3.8-1.6-5.9c0.1-0.1,0.2-0.1,0.2-0.2l0.1-0.1
	c0.6-0.4,1.2-0.9,1.5-1.4c0.1-3,0.2-5.9,0.3-9.4V4.3C28,4.8,26,5.4,24,5.9z"/>
<path class="st0" d="M17.6,61.1l-6.9,0.8C9.9,62,9,61.4,8.9,60.5L6.4,40.1c-0.1-0.9,0.5-1.7,1.4-1.8l6.9-0.8
	c0.9-0.1,1.7,0.5,1.8,1.4L19,59.3C19.1,60.2,18.5,61,17.6,61.1z M54.9,59.8c-0.8,0.2-1.6,0.4-2.4,0.5c-1.3,0.2-2.5,0.4-3.8,0.7
	c-0.7,0.1-1.3,0-1.8-0.6s-0.6-1.3-0.3-2c0.2-0.6,0.7-0.9,1.4-1.1c0.1,0,0.4-0.1,0.7-0.1c1.5-0.3,4.7-0.8,5.7-0.9h0.3
	c0.9,0,1.3,0.3,1.4,1C56.3,58.4,55.8,59.5,54.9,59.8z M55.6,53.8c-0.4,0.1-0.8,0.1-1.2,0.2c-1.4,0.2-2.7,0.4-4.1,0.6
	c-0.6,0.1-1.2,0.2-1.9,0.3h-0.1c-0.6,0.1-1.2,0.1-1.7,0.2c-1.7,0.3-2.3-1.3-2-2.4c0.1-0.6,0.5-0.9,1-1.1c0.2-0.1,0.3-0.1,0.5-0.1
	c1.5-0.2,3.1-0.4,4.6-0.6c1.5-0.2,3-0.4,4.6-0.6H56c0.8,0.1,1.3,0.4,1.4,1.1C57.4,52.6,56.8,53.6,55.6,53.8z M57.6,45.8
	c-0.1,1.4-0.6,2-1.9,2.2c-1.8,0.2-3.5,0.5-5.3,0.7c-1.8,0.3-3.6,0.5-5.4,0.7h-0.3c-1.2,0-2-0.9-1.8-2.2c0.1-0.8,0.6-1.3,1.4-1.4
	c0.2,0,0.3,0,0.5-0.1c3.5-0.5,7-1,10.5-1.4h0.9c0.2,0,0.4,0.1,0.5,0.1C57.3,44.6,57.6,45.1,57.6,45.8z"/>
</svg>
