<?xml version="1.0" encoding="utf-8"?>
<!-- Generator: Adobe Illustrator 26.3.1, SVG Export Plug-In . SVG Version: 6.00 Build 0)  -->
<svg version="1.1" id="Layer_2" xmlns="http://www.w3.org/2000/svg" xmlns:xlink="http://www.w3.org/1999/xlink" x="0px" y="0px"
	 viewBox="0 0 128 128" style="enable-background:new 0 0 128 128;" xml:space="preserve">
<style type="text/css">
	.st0{fill:#3C4752;}
	.st1{fill:#00A3FE;}
</style>
<path class="st0" d="M97.6,81l-9.4-5.1c-2.3-1.2-4.1-0.3-6.1,2.4c-4.3,6-6.4,7.2-11.8,4.2c-5-2.8-8.5-6.1-13-10.5
	c-4.5-4.5-7.8-8-10.5-13c-3-5.3-1.8-7.4,4.2-11.8c2.7-2,3.6-3.8,2.4-6.1l-5.1-9.4c-2.1-4-5-4.5-9.4-3c-6,2-11.8,10.7-11.5,14.8
	c0.9,12,6.9,26.5,19.4,39c12.5,12.5,27,18.6,39,19.4c4.1,0.3,12.7-5.6,14.8-11.6C102.1,86,101.6,83.1,97.6,81z"/>
<path class="st1" d="M69.4,44.7c-2,0-3.6,1.6-3.6,3.6c0,2,1.6,3.6,3.6,3.6c0,0,0.1,0,0.1,0c2.1,0,4.1,0.8,5.7,2.3
	c1.5,1.5,2.4,3.6,2.3,5.7c0,2,1.6,3.6,3.6,3.6h0c2,0,3.6-1.6,3.6-3.6c0-4.1-1.5-8-4.4-10.9C77.4,46.2,73.4,44.7,69.4,44.7z
	 M90.9,38.5c-5.7-5.7-13.5-8.9-21.5-8.8c-2,0-3.6,1.6-3.6,3.6c0,2,1.6,3.6,3.6,3.6c0,0,0.1,0,0.1,0c6.1,0,11.9,2.4,16.3,6.7
	c4.4,4.4,6.8,10.2,6.7,16.4c0,2,1.6,3.6,3.6,3.6h0c2,0,3.6-1.6,3.6-3.6C99.8,51.9,96.6,44.3,90.9,38.5z"/>
</svg>
