<?xml version="1.0" encoding="utf-8"?>
<!-- Generator: Adobe Illustrator 27.0.1, SVG Export Plug-In . SVG Version: 6.00 Build 0)  -->
<svg version="1.1" id="Layer_1" xmlns="http://www.w3.org/2000/svg" xmlns:xlink="http://www.w3.org/1999/xlink" x="0px" y="0px"
	 viewBox="0 0 64 64" style="enable-background:new 0 0 64 64;" xml:space="preserve">
<style type="text/css">
	.st0{fill:#2D3E4F;}
	.st1{fill:#00A3FE;}
</style>
<path class="st0" d="M42,21.1c-0.2-0.4-0.7-0.7-1.1-0.8c-1.6-0.5-3.3-0.9-5-1.3c-0.4-0.1-0.7-0.1-1.1,0.3c-0.9,1-1.9,1.9-2.9,2.8
	c-1-1-2-1.9-3-2.8C28.6,19,28.4,19,28,19.1c-1.6,0.4-3.2,0.9-4.8,1.2c-0.8,0.2-1.4,0.7-1.5,1.4c-0.3,1.3-0.5,2.7-0.7,4.1
	c0.6,0.2,1.1,0.5,1.5,0.6c1.3,0.3,2.6,0.6,3.9,0.8c3.7,0.5,7.5,0.5,11.2,0c1.6-0.2,3.2-0.7,4.8-1.1c0.2,0,0.5-0.3,0.5-0.4
	C42.8,24,42.8,22.5,42,21.1z M29.8,17.3c1.5,1.4,3.3,1.3,4.6-0.3c1.1-1.3,1.7-2.9,1.9-4.6c0.2-1.2,0.3-2.4,0.1-3.5
	c-0.4-2.1-2.2-3.2-4.7-3.2h-0.8c-2,0.1-3.3,1.3-3.6,3.3c-0.1,0.9-0.1,1.9,0,2.9C27.7,14,28.2,15.9,29.8,17.3z M16.5,53.6
	c-0.2-0.3-0.5-0.5-0.8-0.6c-1.2-0.4-2.4-0.6-3.6-1c-0.3-0.1-0.5-0.1-0.8,0.2l-2.1,2.1c-0.8-0.7-1.5-1.4-2.2-2.1
	C6.7,52,6.5,51.9,6.3,52c-1.2,0.3-2.3,0.6-3.5,0.9c-0.6,0.1-1,0.5-1.1,1.1c-0.2,1-0.3,2-0.5,3c0.5,0.2,0.8,0.3,1.1,0.4
	c1,0.2,1.9,0.5,2.9,0.6c2.7,0.3,5.5,0.4,8.2,0c1.2-0.2,2.3-0.5,3.5-0.8c0.1,0,0.3-0.2,0.3-0.3C17.1,55.7,17.1,54.6,16.5,53.6z
	 M7.5,50.8c1.1,1,2.4,1,3.4-0.2c0.8-1,1.2-2.1,1.4-3.3c0.1-0.8,0.2-1.7,0.1-2.6c-0.3-1.5-1.6-2.4-3.4-2.3H8.4
	c-1.5,0.1-2.5,1-2.7,2.4c-0.1,0.7-0.1,1.4,0,2.1C6,48.3,6.4,49.7,7.5,50.8z M39.3,53.6c-0.2-0.3-0.5-0.5-0.8-0.6
	c-1.2-0.4-2.4-0.6-3.6-1c-0.3-0.1-0.5-0.1-0.8,0.2L32,54.3c-0.8-0.7-1.5-1.4-2.2-2.1c-0.2-0.2-0.4-0.3-0.7-0.2
	c-1.2,0.3-2.3,0.6-3.5,0.9c-0.6,0.1-1,0.5-1.1,1.1c-0.2,1-0.3,2-0.5,3c0.5,0.2,0.8,0.3,1.1,0.4c1,0.2,1.9,0.5,2.9,0.6
	c2.7,0.3,5.5,0.4,8.2,0c1.2-0.2,2.3-0.5,3.5-0.8c0.1,0,0.3-0.2,0.3-0.3C39.9,55.7,39.9,54.6,39.3,53.6z M30.4,50.8
	c1.1,1,2.4,1,3.4-0.2c0.8-1,1.2-2.1,1.4-3.3c0.1-0.8,0.2-1.7,0.1-2.6c-0.3-1.5-1.6-2.4-3.4-2.3h-0.6c-1.5,0.1-2.5,1-2.7,2.4
	c-0.1,0.7-0.1,1.4,0,2.1C28.8,48.3,29.2,49.7,30.4,50.8z M62.3,53.6c-0.2-0.3-0.5-0.5-0.8-0.6c-1.2-0.4-2.4-0.6-3.6-1
	c-0.3-0.1-0.5-0.1-0.8,0.2L55,54.3c-0.8-0.7-1.5-1.4-2.2-2.1C52.5,52,52.3,51.9,52,52c-1.2,0.3-2.3,0.6-3.5,0.9
	c-0.6,0.1-1,0.5-1.1,1.1c-0.2,1-0.3,2-0.5,3c0.5,0.2,0.8,0.3,1.1,0.4c1,0.2,1.9,0.5,2.9,0.6c2.7,0.3,5.5,0.4,8.2,0
	c1.2-0.2,2.3-0.5,3.5-0.8c0.1,0,0.3-0.2,0.3-0.3C62.8,55.7,62.9,54.6,62.3,53.6z M53.3,50.8c1.1,1,2.4,1,3.4-0.2
	c0.8-1,1.2-2.1,1.4-3.3c0.1-0.8,0.2-1.7,0.1-2.6c-0.3-1.5-1.6-2.4-3.4-2.3h-0.6c-1.5,0.1-2.5,1-2.7,2.4c-0.1,0.7-0.1,1.4,0,2.1
	C51.7,48.3,52.1,49.7,53.3,50.8z"/>
<path class="st1" d="M33.1,36.2v4.3h-2.3v-4.4h-16c-2.5,0-4.2,1.5-4.6,4c0,0.1-0.1,0.2-0.1,0.4H7.8C8,39.8,8.1,39,8.3,38.4
	c0.9-2.7,3.5-4.5,6.3-4.5h16.2v-4.6h2.3v4.6h16.1c3.4,0,6,2.2,6.7,5.5c0.1,0.4,0.1,0.8,0.1,1.2h-2.2c0-0.2-0.1-0.5-0.1-0.7
	c-0.3-2-2.1-3.6-4.1-3.6H33.5C33.4,36.2,33.3,36.2,33.1,36.2z"/>
</svg>
