<?xml version="1.0" encoding="utf-8"?>
<!-- Generator: Adobe Illustrator 26.3.1, SVG Export Plug-In . SVG Version: 6.00 Build 0)  -->
<svg version="1.1" id="Layer_1" xmlns="http://www.w3.org/2000/svg" xmlns:xlink="http://www.w3.org/1999/xlink" x="0px" y="0px"
	 viewBox="0 0 128 128" style="enable-background:new 0 0 128 128;" xml:space="preserve">
<style type="text/css">
	.st0{fill:#D54A30;}
	.st1{fill:#344A5E;}
	.st2{fill:#3C4752;}
</style>
<path class="st0" d="M27.7,49h5v15.8c0,2.2-0.4,3.6-0.7,4.7c-0.4,1.4-1.4,2.5-2.5,3.6s-2.9,1.4-5,1.4c-2.5,0-4.3-0.7-5.8-2.2
	c-1.4-1.4-2.2-3.6-2.2-6.1l4.7-0.7c0,1.4,0.4,2.5,0.7,2.9c0.7,1.1,1.4,1.4,2.5,1.4s1.8-0.4,2.5-1.1c0.4-0.7,0.7-2.2,0.7-4
	C27.7,64.8,27.7,49,27.7,49z M37,61.9c0-2.5,0.4-4.7,1.1-6.5c0.7-1.4,1.4-2.5,2.5-3.6s2.2-1.8,3.2-2.2c1.4-0.7,3.2-1.1,5.4-1.1
	c3.6,0,6.8,1.1,9,3.6s3.2,5.4,3.2,9.7c0,4-1.1,7.2-3.2,9.4c-2.2,2.2-5,3.6-9,3.6c-3.6,0-6.8-1.1-9-3.6S37,65.9,37,61.9z M42.4,61.6
	c0,2.9,0.7,5,1.8,6.5c1.4,1.4,2.9,2.2,5,2.2s3.6-0.7,5-2.2s1.8-3.6,1.8-6.5s-0.7-5-1.8-6.5c-1.4-1.4-2.9-2.2-5-2.2s-3.6,0.7-5,2.2
	C43.2,56.5,42.4,58.7,42.4,61.6z M65.5,49h10.1c2.2,0,3.6,0,4.3,0.4s1.8,0.4,2.5,1.1c0.7,0.4,1.4,1.1,1.8,2.2
	c0.4,0.7,0.7,1.8,0.7,2.9c0,1.1-0.4,2.2-1.1,3.2c-0.7,1.1-1.4,1.8-2.5,2.2c1.4,0.4,2.9,1.1,3.6,2.2c0.7,1.1,1.1,2.2,1.1,4
	c0,1.1-0.4,2.2-0.7,3.2c-0.4,1.1-1.1,1.8-2.2,2.5S80.9,74,79.9,74H65.1V49H65.5z M70.5,53.3v5.8h6.8c0.7,0,1.4-0.4,2.2-1.1
	c0.4-0.4,0.7-1.1,0.7-1.8s-0.4-1.4-0.7-1.8c-0.4-0.4-1.1-0.7-1.8-0.7h-7.2V53.3z M70.5,63.4v6.8h8.3c0.7,0,1.4-0.4,1.8-1.1
	s0.7-1.1,0.7-2.2c0-0.7-0.4-1.4-0.7-1.8c-0.4-0.4-0.7-1.1-1.4-1.1c-0.7-0.7-2.2-0.7-4.3-0.7C74.8,63.4,70.5,63.4,70.5,63.4z"/>
<path class="st1" d="M94.3,87.7l-4.1-4l7.5-7.7l4.1,4L94.3,87.7z"/>
<path class="st0" d="M118.1,94.3l-16.6-16.2l-9,9l16.6,16.2c2.5,2.5,6.5,2.5,9,0S120.6,96.9,118.1,94.3z"/>
<path class="st2" d="M95,43.6c-10.4-10.1-27.4-10.1-37.4,0.7c-10.1,10.4-10.1,27.4,0.7,37.4c10.4,10.1,27.4,10.1,37.4-0.4
	C105.8,70.6,105.5,53.7,95,43.6z M90.7,76.3c-7.6,7.9-20.2,7.9-27.7,0.4c-8-7.6-8-20.2-0.4-27.7c7.6-7.9,20.2-7.9,27.7-0.4
	C98.3,56.2,98.3,68.4,90.7,76.3z"/>
<path class="st0" d="M100.8,13.8c0,2.5,0,12,0,12s0.8,0,10,0C111.6,19.8,106.2,13.1,100.8,13.8z"/>
<path class="st2" d="M111.5,14.3L111.5,14.3l1.1-1.1c0.4-0.4,0.4-1.1,0-1.6c-0.4-0.4-1.1-0.4-1.6,0l-1.1,1.1l0,0c-2.2-1.8-5-3-8-3.2
	V8h1.1c0.6,0,1.1-0.5,1.1-1.1s-0.5-1.1-1.1-1.1h-4.4c-0.6,0-1.1,0.5-1.1,1.1S98,8,98.6,8h1.1v1.5c-3.1,0.2-5.9,1.4-8.1,3.3
	c0,0,0-0.1-0.1-0.1l-1.1-1.1c-0.4-0.4-1.1-0.4-1.6,0c-0.4,0.4-0.4,1.1,0,1.6l1.1,1.1c0,0,0.1,0,0.1,0.1c-2.2,2.5-3.5,5.7-3.5,9.3
	c0,7.8,6.4,14.2,14.2,14.2S115,31.5,115,23.7C115,20.1,113.7,16.8,111.5,14.3z M100.8,35.8c-6.6,0-12-5.4-12-12s5.4-12,12-12
	s12,5.4,12,12S107.5,35.8,100.8,35.8z"/>
</svg>
