<?xml version="1.0" encoding="utf-8"?>
<!-- Generator: Adobe Illustrator 27.0.1, SVG Export Plug-In . SVG Version: 6.00 Build 0)  -->
<svg version="1.1" id="Layer_2_00000101087251530388926330000007151315292832577160_"
	 xmlns="http://www.w3.org/2000/svg" xmlns:xlink="http://www.w3.org/1999/xlink" x="0px" y="0px" viewBox="0 0 128 128"
	 style="enable-background:new 0 0 128 128;" xml:space="preserve">
<style type="text/css">
	.st0{fill:#D54A30;stroke:#D54A30;stroke-miterlimit:9.9996;}
	.st1{fill:#3C4752;}
</style>
<path class="st0" d="M59.9,69.1v-4.4h-5.8c0.3,1,0.4,2.1,0,3.2c-0.1,0.4-0.3,1.2-0.6,1.2h1.1l8.8,40.8h51.3v-4.4h-47l-0.6-2.8
	l48.7-7.3l6-20.5H61.1L59.9,69.1z"/>
<circle class="st1" cx="69.1" cy="117.1" r="4.7"/>
<circle class="st1" cx="110.1" cy="117.1" r="4.7"/>
<ellipse class="st1" cx="36" cy="16.1" rx="12.2" ry="12.2"/>
<path class="st1" d="M20.2,36.1c0.9-1.1,2.1-1.8,3.7-2c0.3,0,0.6-0.1,0.9-0.1c2.8,0,5,1.8,5.5,4.2c0,0.2,0.4,2.3,1.7,5.2
	c0.1-0.6,0.2-1.2,0.3-1.7c1.6-4.8-0.4-10.7-5.2-11.7c-4.6-1-11.4,1.2-14.1,8.4c-3.7,9.9-4.5,16.3-3.1,27.2c1.1,5.3,4.3,7.4,7.7,8.2
	c2.5,7.4,6,23.2-1.1,40.4c-1.3,3.1,0.4,6.7,4,7.9c0.8,0.3,1.6,0.4,2.4,0.4c2.8,0,5.4-1.5,6.4-4c9.7-23.7,2.9-44.7,0.1-51.6
	c-0.3-2.4-0.3-4.9-0.2-7.5c-8.1-9-9.9-18.7-10-19.5C18.9,38.5,19.4,37.2,20.2,36.1z"/>
<path class="st1" d="M57,70.2c1.8-0.3,3.2-1.7,3.6-3.7c0.4-2.3-1.3-4.6-3.7-4.9c-20.8-3-28-22.6-28.2-23.5c-0.7-2.3-3.2-3.4-5.6-2.7
	c-2.3,0.7-3.5,3.2-2.7,5.6c0.4,1.1,9.1,25.2,35.2,29.2C56.1,70.3,56.5,70.3,57,70.2z"/>
</svg>
