<?xml version="1.0" encoding="utf-8"?>
<!-- Generator: Adobe Illustrator 27.0.1, SVG Export Plug-In . SVG Version: 6.00 Build 0)  -->
<svg version="1.1" id="Layer_1" xmlns="http://www.w3.org/2000/svg" xmlns:xlink="http://www.w3.org/1999/xlink" x="0px" y="0px"
	 viewBox="0 0 64 64" style="enable-background:new 0 0 64 64;" xml:space="preserve">
<style type="text/css">
	.st0{fill:#00A3FE;}
</style>
<path d="M17,40.5c3.3,0,6-2.7,6-6s-2.7-6-6-6s-6,2.7-6,6S13.7,40.5,17,40.5z M17,30.5c2.2,0,4,1.8,4,4s-1.8,4-4,4s-4-1.8-4-4
	S14.8,30.5,17,30.5z M13,56.5h-1c-0.6,0-1,0.4-1,1s0.4,1,1,1h1c0.6,0,1-0.4,1-1S13.6,56.5,13,56.5z M24.8,45.7
	c-0.4,0.4-0.5,1-0.1,1.4c0,0,0,0,0,0c1.5,1.8,2.3,4.1,2.3,6.4v3H16c-0.6,0-1,0.4-1,1s0.4,1,1,1h12c0.6,0,1-0.4,1-1v-4
	c0-2.8-1-5.6-2.8-7.7C25.8,45.4,25.2,45.3,24.8,45.7C24.8,45.7,24.8,45.7,24.8,45.7z"/>
<path d="M9,56.5H7v-3c0-5.5,4.5-10,10-10c1.9,0,3.9,0.6,5.5,1.6c0.5,0.3,1.1,0.2,1.4-0.3c0.3-0.5,0.2-1.1-0.3-1.4c0,0,0,0,0,0
	c-5.5-3.6-13-2.1-16.6,3.5c-1.3,2-2,4.2-2,6.6v4c0,0.6,0.4,1,1,1h3c0.6,0,1-0.4,1-1S9.6,56.5,9,56.5z"/>
<path d="M47,17.5c3.3,0,6-2.7,6-6c0-0.6-0.1-1.2-0.3-1.8C52.6,9.2,52,8.9,51.5,9c0,0,0,0,0,0c-0.5,0.2-0.8,0.7-0.7,1.2
	c0.1,0.4,0.2,0.8,0.2,1.2c0,2.2-1.8,4-4,4s-4-1.8-4-4s1.8-4,4-4c0.7,0,1.3,0.2,1.9,0.5c0.5,0.3,1.1,0.1,1.4-0.4s0.1-1.1-0.4-1.4
	c0,0,0,0,0,0c-2.9-1.6-6.6-0.5-8.1,2.4s-0.5,6.6,2.4,8.1C45,17.3,46,17.5,47,17.5z"/>
<path d="M47,18.5c-1.3,0-2.6,0.2-3.8,0.6c-0.5,0.2-0.8,0.7-0.6,1.3c0.2,0.5,0.7,0.8,1.3,0.6l0,0c1-0.3,2.1-0.5,3.2-0.5
	c5.5,0,10,4.5,10,10v3h-1.9c-0.6,0-1,0.4-1,1s0.4,1,1,1H58c0.6,0,1-0.4,1-1v-4C59,23.9,53.6,18.5,47,18.5z"/>
<path d="M39.9,23.1c0.2,0,0.5-0.1,0.7-0.2c0.3-0.2,0.5-0.4,0.8-0.6c0.5-0.3,0.6-0.9,0.3-1.4c-0.3-0.5-0.9-0.6-1.4-0.3
	c-0.3,0.2-0.7,0.5-1,0.7c-0.4,0.4-0.5,1-0.1,1.4c0,0,0,0,0,0C39.3,22.9,39.6,23.1,39.9,23.1z"/>
<path d="M36,35.5h15c0.6,0,1-0.4,1-1s-0.4-1-1-1H37v-3c0-2.1,0.6-4.1,1.8-5.7c0.3-0.4,0.3-1.1-0.1-1.4s-1.1-0.3-1.4,0.1
	c0,0-0.1,0.1-0.1,0.1c-1.4,2-2.2,4.4-2.2,6.9v4C35,35.1,35.4,35.5,36,35.5z"/>
<path class="st0" d="M47.7,37.8c-0.1-0.1-0.2-0.2-0.3-0.2c-0.2-0.1-0.5-0.1-0.8,0c-0.1,0-0.2,0.1-0.3,0.2l-5,5c-0.4,0.4-0.4,1,0,1.4
	s1,0.4,1.4,0l3.3-3.3v10.6h-4.9c-0.6,0-1,0.4-1,1s0.4,1,1,1H47c0.6,0,1-0.4,1-1V40.9l3.3,3.3c0.4,0.4,1,0.4,1.4,0c0,0,0,0,0,0
	c0.4-0.4,0.4-1,0-1.4c0,0,0,0,0,0L47.7,37.8z"/>
<path class="st0" d="M38,51.5h-6c-0.6,0-1,0.4-1,1s0.4,1,1,1h6c0.6,0,1-0.4,1-1S38.6,51.5,38,51.5z"/>
</svg>
