<?xml version="1.0" encoding="utf-8"?>
<!-- Generator: Adobe Illustrator 26.0.3, SVG Export Plug-In . SVG Version: 6.00 Build 0)  -->
<svg version="1.1" xmlns="http://www.w3.org/2000/svg" xmlns:xlink="http://www.w3.org/1999/xlink" x="0px" y="0px"
	 viewBox="0 0 74 74" style="enable-background:new 0 0 74 74;" xml:space="preserve">
<style type="text/css">
	.st0{fill:none;stroke:#000000;stroke-miterlimit:10;}
	.st1{fill:#81DAFC;}
	.st2{fill:#2F3A5A;}
	.st3{fill:#EF5361;}
	.st4{fill:#9297AB;}
	.st5{fill:#8AE0A1;}
	.st6{fill:#D669D6;}
	.st7{fill:#D8C566;}
	.st8{fill:#39C651;}
	.st9{fill:#D1CCEC;}
	.st10{fill:#A0A0A0;}
</style>
<g id="Layer_1">
	<circle class="st0" cx="37" cy="37.06" r="24.93"/>
</g>
<g id="Layer_3">
	<g>
		<circle class="st1" cx="18.69" cy="19.38" r="5.97"/>
		<path class="st2" d="M24.01,15.56c2.11,2.93,1.44,7.02-1.5,9.13c-2.93,2.11-7.02,1.44-9.13-1.5c-2.11-2.93-1.44-7.02,1.5-9.13
			C17.81,11.96,21.9,12.63,24.01,15.56z M14.31,22.53c1.74,2.42,5.11,2.97,7.53,1.23s2.97-5.11,1.23-7.53s-5.11-2.97-7.53-1.23
			C13.13,16.74,12.58,20.11,14.31,22.53L14.31,22.53z"/>
	</g>
	<g>
		<circle class="st3" cx="11.35" cy="37.06" r="5.97"/>
		<path class="st2" d="M16.66,33.24c2.11,2.93,1.44,7.02-1.5,9.13c-2.93,2.11-7.02,1.44-9.13-1.5c-2.11-2.93-1.44-7.02,1.5-9.13l0,0
			C10.46,29.64,14.55,30.31,16.66,33.24z M6.97,40.21c1.74,2.42,5.11,2.97,7.53,1.23c2.42-1.74,2.97-5.11,1.23-7.53
			s-5.11-2.97-7.53-1.23C5.78,34.42,5.23,37.79,6.97,40.21L6.97,40.21z"/>
	</g>
	<g>
		<circle class="st4" cx="18.69" cy="54.5" r="5.97"/>
		<path class="st2" d="M24.01,50.69c2.11,2.93,1.44,7.02-1.5,9.13s-7.02,1.44-9.13-1.5c-2.11-2.93-1.44-7.02,1.5-9.13l0,0
			C17.81,47.09,21.9,47.76,24.01,50.69z M14.31,57.65c1.74,2.42,5.11,2.97,7.53,1.23s2.97-5.11,1.23-7.53
			c-1.74-2.42-5.11-2.97-7.53-1.23C13.13,51.86,12.58,55.23,14.31,57.65L14.31,57.65z"/>
	</g>
	<g>
		<circle class="st5" cx="36.95" cy="61.93" r="5.97"/>
		<path class="st2" d="M42.26,58.11c2.11,2.93,1.44,7.02-1.5,9.13c-2.93,2.11-7.02,1.44-9.13-1.5c-2.11-2.93-1.44-7.02,1.5-9.13
			C36.06,54.51,40.15,55.18,42.26,58.11z M32.56,65.07c1.74,2.42,5.11,2.97,7.53,1.23c2.42-1.74,2.97-5.11,1.23-7.53
			c-1.74-2.42-5.11-2.97-7.53-1.23h0C31.38,59.28,30.83,62.65,32.56,65.07L32.56,65.07z"/>
	</g>
	<circle class="st6" cx="55.85" cy="54.51" r="5.97"/>
	<path class="st2" d="M50.54,58.33c-2.11-2.93-1.44-7.02,1.5-9.13c2.93-2.11,7.02-1.44,9.13,1.5c2.11,2.93,1.44,7.02-1.5,9.13
		C56.74,61.93,52.65,61.26,50.54,58.33z M60.24,51.36c-1.74-2.42-5.11-2.97-7.53-1.23c-2.42,1.74-2.97,5.11-1.23,7.53
		c1.74,2.42,5.11,2.97,7.53,1.23C61.42,57.15,61.97,53.78,60.24,51.36L60.24,51.36z"/>
	<circle class="st7" cx="62.93" cy="37.06" r="5.97"/>
	<path class="st2" d="M57.61,40.88c-2.11-2.93-1.44-7.02,1.5-9.13c2.93-2.11,7.02-1.44,9.13,1.5c2.11,2.93,1.44,7.02-1.5,9.13l0,0
		C63.81,44.48,59.72,43.81,57.61,40.88z M67.31,33.91c-1.74-2.42-5.11-2.97-7.53-1.23c-2.42,1.74-2.97,5.11-1.23,7.53
		c1.74,2.42,5.11,2.97,7.53,1.23C68.49,39.7,69.05,36.33,67.31,33.91L67.31,33.91z"/>
	<circle class="st8" cx="55.85" cy="19.38" r="5.97"/>
	<path class="st2" d="M50.54,23.2c-2.11-2.93-1.44-7.02,1.5-9.13c2.93-2.11,7.02-1.44,9.13,1.5s1.44,7.02-1.5,9.13l0,0
		C56.74,26.8,52.65,26.13,50.54,23.2z M60.24,16.24c-1.74-2.42-5.11-2.97-7.53-1.23c-2.42,1.74-2.97,5.11-1.23,7.53
		s5.11,2.97,7.53,1.23C61.42,22.02,61.97,18.66,60.24,16.24L60.24,16.24z"/>
	<g>
		<circle class="st9" cx="36.95" cy="12.07" r="5.97"/>
		<path class="st2" d="M31.63,15.89c-2.11-2.93-1.44-7.02,1.5-9.13c2.93-2.11,7.02-1.44,9.13,1.5s1.44,7.02-1.5,9.13
			C37.83,19.49,33.74,18.82,31.63,15.89z M41.33,8.93c-1.74-2.42-5.11-2.97-7.53-1.23s-2.97,5.11-1.23,7.53s5.11,2.97,7.53,1.23
			C42.51,14.72,43.06,11.35,41.33,8.93L41.33,8.93z"/>
	</g>
</g>
<g id="Layer_4">
	<path class="st10" d="M47.53,28.93c-2.46-3.18-6.27-5.09-10.4-5.09c-7.27,0-13.17,5.89-13.17,13.17s5.89,13.17,13.17,13.17
		c6.38,0,11.82-4.58,12.95-10.79l1.99,0.36c-1.31,7.17-7.58,12.45-14.94,12.45c-8.39,0-15.19-6.8-15.19-15.19s6.8-15.19,15.19-15.19
		c4.82,0,9.25,2.26,12.09,5.99l0.55-3.06l1.92,0.4l-1.16,6.41l-6.38-1.32l0.35-1.93L47.53,28.93z"/>
</g>
<g id="Layer_2">
</g>
</svg>
