<?xml version="1.0" encoding="utf-8"?>
<!-- Generator: Adobe Illustrator 27.0.1, SVG Export Plug-In . SVG Version: 6.00 Build 0)  -->
<svg version="1.1" id="Layer_1" xmlns="http://www.w3.org/2000/svg" xmlns:xlink="http://www.w3.org/1999/xlink" x="0px" y="0px"
	 viewBox="0 0 128 128" style="enable-background:new 0 0 128 128;" xml:space="preserve">
<style type="text/css">
	.st0{fill:#FFFFFF;}
	.st1{fill:#3BB44A;}
</style>
<path d="M123.9,43c0-0.2,0-0.5,0-0.7v-0.2l-0.3-0.3l-0.3-0.2H123l-0.9-0.6H41.2l-0.3,0.2l-0.3,0.3v0.2c0,0.2,0,0.5,0,0.7V85
	c0,1.1,0.9,1.9,1.9,1.9h79.5c1.1,0,1.9-0.9,1.9-1.9L123.9,43z"/>
<polygon class="st0" points="44.1,46.2 66.6,58.1 44.1,80.6 "/>
<polygon class="st0" points="82,62 49.9,44.8 114.3,44.8 "/>
<path class="st0" d="M70.2,60l11,5.8c0.6,0.3,1.3,0.3,1.8,0L94,60l23.2,23.2H46.8L70.2,60z"/>
<polygon class="st0" points="97.5,58.1 120,46.2 120,80.6 "/>
<path class="st1" d="M31.1,49.1H5.9C4.9,49.1,4,50,4,51C4,52.1,4.9,53,5.9,53h25.2c1.1,0,1.9-0.9,1.9-1.9C33,50,32.2,49.1,31.1,49.1
	z"/>
<path class="st1" d="M31.1,57.9H5.9c-1.1,0-1.9,0.9-1.9,1.9c0,1.1,0.9,1.9,1.9,1.9h25.2c1.1,0,1.9-0.9,1.9-1.9
	C33,58.7,32.2,57.9,31.1,57.9z"/>
<path class="st1" d="M31.1,66.6H5.9c-1.1,0-1.9,0.9-1.9,1.9s0.9,1.9,1.9,1.9h25.2c1.1,0,1.9-0.9,1.9-1.9S32.2,66.6,31.1,66.6z"/>
<path class="st1" d="M31.1,75.4H5.9c-1.1,0-1.9,0.9-1.9,1.9c0,1.1,0.9,1.9,1.9,1.9h25.2c1.1,0,1.9-0.9,1.9-1.9
	C33,76.3,32.2,75.4,31.1,75.4z"/>
</svg>
