<?xml version="1.0" encoding="utf-8"?>
<!-- Generator: Adobe Illustrator 27.0.1, SVG Export Plug-In . SVG Version: 6.00 Build 0)  -->
<svg version="1.1" id="Layer_1" xmlns="http://www.w3.org/2000/svg" xmlns:xlink="http://www.w3.org/1999/xlink" x="0px" y="0px"
	 viewBox="0 0 128.7 128" style="enable-background:new 0 0 128.7 128;" xml:space="preserve">
<style type="text/css">
	.st0{fill:#D54A30;stroke:#D54A30;stroke-miterlimit:9.9996;}
	.st1{fill:#B0B0B5;}
</style>
<g id="Layer_1_00000158737633246734242090000003905913070929373115_">
</g>
<polygon class="st0" points="40,51.9 51.4,37.5 49.2,35.7 35.6,53.2 69.8,80 72,77.3 "/>
<path class="st1" d="M65.7,87.7l-17.3-3.5l0.1-0.1c-1-0.1-1.9-0.5-2.7-1.1l-8.1-6.9c-0.4-0.3-0.4-0.9-0.1-1.3
	c0.3-0.4,0.9-0.4,1.3-0.1l8.1,6.9c0.7,0.5,1.4,0.8,2.3,0.7c0.8-0.1,1.6-0.5,2.1-1.1c1-1.3,0.9-3.2-0.4-4.3c0,0-12.7-11-13.7-11.8
	c-4.2-3.5-10.1-3.2-12.9-1.4l-7.6-0.1v14.5l9.1,0.3l16.2,12c1.2,1.1,2.9,1.8,4.5,1.6l18.9,1.6c1.6-0.1,2.8-1.4,2.8-3
	C68.5,89.1,67.3,87.8,65.7,87.7z"/>
<path class="st1" d="M68,60.6c1.4-1.8,0-3.6-0.6-4.4c-1.1-1.6-0.8-2.2-0.5-2.5c0.6-0.7,1.4-0.2,2,0.4c0.4,0.5,0.7,1.3,0.8,1.8
	l1.9-0.4c-0.2-0.7-0.5-1.6-1.2-2.5l0.7-1l-1.4-1L69,51.9c-1.4-1-3-0.8-3.9,0.4c-0.9,1.1-0.5,2.4-0.1,3.4c0.4,0.9,2.1,2.7,1.2,3.6
	c-0.4,0.4-1.2,0.4-1.9-0.4c-0.7-0.7-0.9-1.9-0.9-1.9l-1.9,0.2c0.2,1,0.6,1.9,1.2,2.6l-0.7,1l1.4,1.1L64,61
	C65.4,61.9,67.1,61.8,68,60.6z"/>
<path class="st0" d="M80.8,53.6c-2.9,0.7-6-0.6-7.5-3.3l-0.5-0.8l1.6-0.9L56.3,34.3L42.6,51.7l34.1,27l13.8-17.4L80.8,53.6z
	 M56.8,48.6c-0.6,0.8-1.7,0.9-2.5,0.3c-0.8-0.6-0.9-1.7-0.3-2.5c0.6-0.8,1.7-0.9,2.5-0.3S57.4,47.9,56.8,48.6z M71.8,60.7
	c-2.6,3.3-7.1,4-10,1.7c-2.9-2.4-3.2-6.8-0.6-10.1c2.6-3.3,7.1-4,10-1.7C74.1,53,74.3,57.4,71.8,60.7z M79,66.2
	c-0.6,0.8-1.7,0.9-2.5,0.3s-0.9-1.7-0.3-2.5c0.6-0.8,1.7-0.9,2.5-0.3S79.6,65.4,79,66.2z"/>
<path class="st1" d="M107,48.1l-15.3-7.4c-1.8-1-3.9-1.1-5.8-0.6l-14.4,4l4.6,3.6l5.6-3.1c0.5-0.2,1-0.4,1.4-0.5l9.4-1.1
	c0.5-0.1,1,0.3,1,0.8c0.1,0.4-0.2,1-0.8,1l-9.4,1.1C83,46,82.8,46,82.5,46.1l-7.2,4c1.5,1.8,4.1,2.4,6.3,1.2l2.2-1.2l5.7,0.4
	c0,0,1,3.9,3.3,5.3c2.7,1.7,6.7,1.7,6.7,1.7c0.5,0,0.9,0.4,1,0.8c0.1,0.5-0.4,0.9-0.8,1c-0.1,0-4.5,0.2-7.8-1.9
	c-2.1-1.3-3.2-3.9-3.7-5.1l-4-0.2l-1.5,0.8L93,61l-4.9,6.2c11,2.4,15.3-3.4,15.3-3.4l9.6,1.6V49.1L107,48.1z"/>
<rect x="114.8" y="46.7" class="st1" width="9.1" height="22.3"/>
<rect x="4.9" y="59.4" class="st1" width="10.3" height="22.9"/>
</svg>
