<?xml version="1.0" encoding="utf-8"?>
<!-- Generator: Adobe Illustrator 26.3.1, SVG Export Plug-In . SVG Version: 6.00 Build 0)  -->
<svg version="1.1" id="Layer_1" xmlns="http://www.w3.org/2000/svg" xmlns:xlink="http://www.w3.org/1999/xlink" x="0px" y="0px"
	 viewBox="0 0 512 512" style="enable-background:new 0 0 512 512;" xml:space="preserve">
<style type="text/css">
	.st0{fill:#3276BC;}
</style>
<path class="st0" d="M256.9,362.2c-58.5,0-85.2-29.8-85.2-51.6c0-11.2,8.8-18.9,20-18.9c25,0,18.5,37.5,65.2,37.5
	c23.9,0,37.9-14.4,37.9-27.9c0-8.1-4.7-17.1-20.4-21.1l-52-13.2c-41.9-10.6-49.2-34-49.2-55.5c0-44.9,41-61.1,80.1-61.1
	c36,0,78.8,19.9,78.8,46.8c0,11.5-9.7,17.8-20.9,17.8c-21.4,0-17.8-30-60.8-30c-21.4,0-32.6,10-32.6,24c0,14,16.5,18.8,31.2,22.2
	l38.5,8.7c42.2,9.5,53.4,34.2,53.4,57.8C340.8,334.1,312.5,362.2,256.9,362.2 M418.4,285.1c1.6-9.3,2.5-18.9,2.5-28.8
	c0-91.4-73.7-165.6-164.6-165.6c-9.8,0-19.3,0.8-28.6,2.5c-14.3-8.2-30.9-12.9-48.5-12.9c-54.1,0-97.9,44.1-97.9,98.4
	c0,17.8,4.7,34.4,12.9,48.8c-1.6,9.3-2.5,18.9-2.5,28.7c0,91.4,73.7,165.6,164.6,165.6c9.8,0,19.3-0.9,28.6-2.5
	c14.3,8.2,30.9,12.9,48.5,12.9c54.1,0,97.9-44.1,97.9-98.4C431.2,316.1,426.6,299.4,418.4,285.1"/>
</svg>
