<?xml version="1.0" encoding="utf-8"?>
<!-- Generator: Adobe Illustrator 26.0.3, SVG Export Plug-In . SVG Version: 6.00 Build 0)  -->
<svg version="1.1" id="Layer_1" xmlns="http://www.w3.org/2000/svg" xmlns:xlink="http://www.w3.org/1999/xlink" x="0px" y="0px"
	 viewBox="0 0 53 53" style="enable-background:new 0 0 53 53;" xml:space="preserve">
<style type="text/css">
	.st0{fill:#60C752;}
	.st1{fill:#5DC34D;}
	.st2{fill:#FFFFFF;}
	.st3{fill:#D0D0F7;}
	.st4{fill:#FC3027;}
	.st5{fill:#E4E3FF;}
</style>
<g>
	<path class="st0" d="M45.77,17.37v16.55c0,3.69-2.99,6.68-6.68,6.68H22.53c-0.29,0-0.57,0.12-0.78,0.33l-7.3,7.29
		c-0.9,0.9-2.45,0.25-2.45-1.03v-5.47c0-0.62-0.5-1.12-1.11-1.12H9.19c-3.7,0-6.69-2.99-6.69-6.68V17.37c0-3.69,2.99-6.68,6.69-6.68
		h29.9C42.78,10.69,45.77,13.68,45.77,17.37z"/>
	<path class="st1" d="M20.12,40.59h2.41c-0.29,0-0.57,0.12-0.78,0.33l-7.3,7.29c-0.68,0.68-1.72,0.48-2.2-0.21l7.09-7.08
		C19.54,40.71,19.83,40.59,20.12,40.59z M45.77,17.37v16.55c0,3.69-2.99,6.68-6.68,6.68h-2.41c3.69,0,6.68-2.99,6.68-6.68V17.37
		c0-3.69-2.99-6.68-6.68-6.68h2.41C42.78,10.69,45.77,13.68,45.77,17.37z"/>
	<path class="st2" d="M38.66,22.54c0,0.66-0.54,1.19-1.19,1.19H10.81c-0.66,0-1.19-0.54-1.19-1.19c0-0.66,0.54-1.19,1.19-1.19h26.66
		C38.12,21.34,38.66,21.88,38.66,22.54z"/>
	<path class="st3" d="M38.53,22.02c-0.16-0.08-0.33-0.12-0.52-0.12H11.36c-0.66,0-1.19,0.54-1.19,1.19c0,0.19,0.05,0.36,0.12,0.52
		c-0.4-0.19-0.68-0.6-0.68-1.07c0-0.66,0.54-1.19,1.19-1.19h26.66C37.93,21.34,38.35,21.62,38.53,22.02z"/>
	<path class="st2" d="M28.06,28.74c0,0.66-0.54,1.19-1.18,1.19H10.81c-0.66,0-1.19-0.54-1.19-1.19s0.54-1.19,1.19-1.19h16.07
		C27.52,27.54,28.06,28.08,28.06,28.74z"/>
	<path class="st3" d="M27.92,28.22c-0.15-0.08-0.32-0.12-0.5-0.12H11.36c-0.66,0-1.19,0.54-1.19,1.19c0,0.19,0.05,0.36,0.12,0.52
		c-0.4-0.19-0.68-0.6-0.68-1.07c0-0.66,0.54-1.19,1.19-1.19h16.07C27.34,27.54,27.75,27.82,27.92,28.22z"/>
	<path class="st4" d="M50.5,11.25c0,3.8-3.08,6.87-6.87,6.87c-3.81,0-6.89-3.08-6.89-6.87c0-3.8,3.08-6.88,6.89-6.88
		C47.42,4.37,50.5,7.45,50.5,11.25z"/>
	<path class="st5" d="M45.88,12.67c0,1.85-2.46,2.14-4.21,1.44c-0.09-0.05-0.16-0.1-0.22-0.17c-0.06-0.08-0.09-0.17-0.09-0.29
		c0-0.14,0.05-0.25,0.14-0.35c0.14-0.16,0.35-0.2,0.57-0.12c0.91,0.38,2.75,0.41,2.75-0.57c0-1.1-1.78-0.9-1.88-0.94
		c-0.26,0-0.51-0.21-0.51-0.5c0-0.3,0.25-0.51,0.51-0.51c0.16-0.01,0.81,0.03,1.28-0.24c0.5-0.3,0.49-0.92,0.1-1.18
		c-0.51-0.37-1.6-0.23-2.2,0.06c-0.39,0.16-0.67-0.12-0.67-0.42c0-0.18,0.08-0.34,0.24-0.42c1.26-0.7,2.7-0.53,3.37-0.02
		c0.8,0.59,0.72,1.75,0.27,2.28c-0.14,0.15-0.29,0.28-0.46,0.38c0.21,0.09,0.4,0.22,0.58,0.38C45.74,11.77,45.88,12.16,45.88,12.67z
		"/>
</g>
</svg>
