<?xml version="1.0" encoding="utf-8"?>
<!-- Generator: Adobe Illustrator 26.3.1, SVG Export Plug-In . SVG Version: 6.00 Build 0)  -->
<svg version="1.1" id="Layer_1" xmlns="http://www.w3.org/2000/svg" xmlns:xlink="http://www.w3.org/1999/xlink" x="0px" y="0px"
	 viewBox="0 0 512 503.4" style="enable-background:new 0 0 512 503.4;" xml:space="preserve">
<style type="text/css">
	.st0{fill:#7B83EB;}
	.st1{opacity:0.1;enable-background:new    ;}
	.st2{opacity:0.2;enable-background:new    ;}
	.st3{fill:#5059C9;}
	.st4{fill:#4B53BC;}
	.st5{fill:#FFFFFF;}
	.st6{fill:none;}
</style>
<g>
	<circle class="st0" cx="271.3" cy="98.6" r="71.5"/>
	<path class="st1" d="M266.2,113.9h-64.7l0.3,1.4l0,0.1l0.3,1.3c9.8,37.1,47,59.8,84.4,51.6v-34.1
		C286.6,123,277.5,113.9,266.2,113.9z"/>
	<path class="st2" d="M250.9,129.2h-44.2c11.8,24.9,37,40.8,64.6,40.8v-20.4C271.3,138.4,262.2,129.2,250.9,129.2z"/>
	<circle class="st3" cx="432.1" cy="121.5" r="53.6"/>
	<path class="st3" d="M478,190.4H357.7c-5.4,0-9.8,4.4-9.8,9.8v124.2c-0.7,37,24.6,69.5,60.7,77.8c41.4,8.7,82.1-17.8,90.8-59.3
		c1.1-5.2,1.6-10.4,1.6-15.7V213.4C501,200.7,490.7,190.4,478,190.4z"/>
	<path class="st0" d="M393.8,213.4v145.5c0,67.6-54.7,122.5-122.4,122.5c-43.8,0-84.2-23.3-106.1-61.2c-2.9-4.9-5.5-10-7.7-15.3
		c-2-5-3.7-10.1-5.1-15.3c-2.5-10-3.8-20.3-3.8-30.6V213.4c0-12.7,10.2-23,22.9-23c0,0,0,0,0.1,0h199.1
		C383.5,190.4,393.8,200.7,393.8,213.4C393.8,213.4,393.8,213.4,393.8,213.4z"/>
	<path class="st2" d="M250.9,129.2h-44.2c11.8,24.9,37,40.8,64.6,40.8v-20.4C271.3,138.4,262.2,129.2,250.9,129.2z"/>
	<path class="st1" d="M286.6,190.4v194c0,9.5-6.6,17.7-15.9,19.8c-1.4,0.4-2.9,0.6-4.4,0.6H157.7c-2-5-3.7-10.1-5.1-15.3
		c-2.5-10-3.8-20.3-3.8-30.6V213.4c0-12.7,10.2-23,22.9-23c0,0,0,0,0.1,0H286.6z"/>
	<path class="st2" d="M271.3,190.4v209.3c0,1.5-0.2,3-0.6,4.4c-2,9.3-10.2,15.9-19.8,15.9h-85.6c-2.9-4.9-5.5-10-7.7-15.3
		c-2-5-3.7-10.1-5.1-15.3c-2.5-10-3.8-20.3-3.8-30.6V213.4c0-12.7,10.2-23,22.9-23c0,0,0,0,0.1,0H271.3z"/>
	<path class="st2" d="M271.3,190.4v178.7c-0.1,11.2-9.1,20.3-20.4,20.4h-98.3c-2.5-10-3.8-20.3-3.8-30.6V213.4
		c0-12.7,10.2-23,22.9-23c0,0,0,0,0.1,0H271.3z"/>
	<path class="st2" d="M171.8,190.4c-12.7,0-23,10.2-23,22.9c0,0,0,0,0,0.1v145.5c0,10.3,1.3,20.6,3.8,30.6h83
		c11.2-0.1,20.3-9.1,20.4-20.4V190.4H171.8z"/>
	<path class="st4" d="M31.4,129.2h204.2c11.3,0,20.4,9.1,20.4,20.4l0,0v204.2c0,11.3-9.1,20.4-20.4,20.4c0,0,0,0,0,0H31.4
		c-11.3,0-20.4-9.1-20.4-20.4c0,0,0,0,0,0V149.6C11,138.3,20.1,129.2,31.4,129.2C31.4,129.2,31.4,129.2,31.4,129.2z"/>
	<path class="st5" d="M194.4,205.4h-45.8v122.8h-30V205.4H72.6v-30.2h121.9V205.4z"/>
	<path class="st6" d="M11,6.7h490v490H11V6.7z"/>
</g>
</svg>
