<?xml version="1.0" encoding="utf-8"?>
<!-- Generator: Adobe Illustrator 27.0.1, SVG Export Plug-In . SVG Version: 6.00 Build 0)  -->
<svg version="1.1" xmlns="http://www.w3.org/2000/svg" xmlns:xlink="http://www.w3.org/1999/xlink" x="0px" y="0px"
	 viewBox="0 0 256 256" style="enable-background:new 0 0 256 256;" xml:space="preserve">
<style type="text/css">
	.st0{fill:#C42727;}
	.st1{fill:#F0F4FA;}
	.st2{fill:#3BB44A;}
	.st3{fill:#212120;}
	.st4{fill:#D3D4D7;}
	.st5{fill:#00A3FE;}
	.st6{fill:url(#SVGID_1_);}
	.st7{fill:url(#SVGID_00000145737881897743149490000009910174506888620674_);}
	.st8{fill:url(#SVGID_00000075156089885126232060000017311123960823538052_);}
	.st9{fill:url(#SVGID_00000007389990184223867100000006636363669352024737_);}
	.st10{fill:url(#SVGID_00000071550987117598625930000004135300693420778653_);}
	.st11{fill:url(#SVGID_00000170978559483642172020000006293427709615388831_);}
	.st12{fill:url(#SVGID_00000085210227058740734790000012199400574314536840_);}
	.st13{fill:url(#SVGID_00000103228251604126415890000005138009922269969589_);}
	.st14{fill:url(#SVGID_00000078046884344589830050000005603855186042485664_);}
	.st15{fill:url(#SVGID_00000125560556735036895350000015913871267579946159_);}
	.st16{fill:url(#SVGID_00000164513549131881171170000004403231023571864226_);}
	.st17{fill:url(#SVGID_00000030479086540240636820000003005440869043956664_);}
	.st18{fill:url(#SVGID_00000012433099188031536960000007810462261896000130_);}
	.st19{fill:url(#SVGID_00000109011000497891939410000005554305604638767244_);}
	.st20{opacity:0.1;fill:url(#SVGID_00000058573166923840828990000007754122729927246987_);}
	.st21{fill:#FFFFFF;}
	.st22{fill:url(#SVGID_00000036966299953857527950000012990199850279281335_);}
</style>
<g id="Layer_1">
	<path class="st0" d="M177.4,61c-6.7,0-12.1,5.4-12.1,12.1s5.4,12.1,12.1,12.1c6.7,0,12.1-5.4,12.1-12.1S184.1,61,177.4,61z
		 M177.4,81.6c-4.7,0-8.5-3.8-8.5-8.5s3.8-8.5,8.5-8.5s8.5,3.8,8.5,8.5S182.1,81.6,177.4,81.6z"/>
	<path class="st0" d="M78.1,61C71.4,61,66,66.4,66,73.1s5.4,12.1,12.1,12.1s12.1-5.4,12.1-12.1S84.8,61,78.1,61z M78.1,81.6
		c-4.7,0-8.5-3.8-8.5-8.5s3.8-8.5,8.5-8.5s8.5,3.8,8.5,8.5S82.7,81.6,78.1,81.6z"/>
	<path class="st1" d="M195.3,44.9H60.7c-13.4,0-24.3,10.9-24.3,24.3v134.5c0,13.4,10.9,24.3,24.3,24.3h134.5
		c13.4,0,24.3-10.9,24.3-24.3V69.2C219.5,55.8,208.7,44.9,195.3,44.9z M78.1,85.2c-6.7,0-12.1-5.4-12.1-12.1S71.4,61,78.1,61
		s12.1,5.4,12.1,12.1C90.2,79.8,84.8,85.2,78.1,85.2z M177.4,85.2c-6.7,0-12.1-5.4-12.1-12.1S170.7,61,177.4,61
		c6.7,0,12.1,5.4,12.1,12.1C189.5,79.8,184.1,85.2,177.4,85.2z"/>
	<path class="st2" d="M195.3,44.9H60.7c-13.4,0-24.3,10.9-24.3,24.3v32.1h183.1V69.2C219.5,55.8,208.7,44.9,195.3,44.9z M78.1,85.2
		c-6.7,0-12.1-5.4-12.1-12.1S71.4,61,78.1,61s12.1,5.4,12.1,12.1C90.2,79.8,84.8,85.2,78.1,85.2z M177.4,85.2
		c-6.7,0-12.1-5.4-12.1-12.1S170.7,61,177.4,61c6.7,0,12.1,5.4,12.1,12.1C189.5,79.8,184.1,85.2,177.4,85.2z"/>
	<g>
		<path class="st3" d="M78.1,78.6L78.1,78.6c-3.9,0-7-3.1-7-7V35c0-3.9,3.1-7,7-7l0,0c3.9,0,7,3.1,7,7v36.6
			C85.1,75.4,81.9,78.6,78.1,78.6z"/>
		<path class="st3" d="M177.4,78.6L177.4,78.6c-3.9,0-7-3.1-7-7V35c0-3.9,3.1-7,7-7l0,0c3.9,0,7,3.1,7,7v36.6
			C184.4,75.4,181.3,78.6,177.4,78.6z"/>
	</g>
	<path class="st4" d="M68.1,142.9h-13c-1.6,0-3-1.3-3-3v-13c0-1.6,1.3-3,3-3h13c1.6,0,3,1.3,3,3v13
		C71.1,141.5,69.7,142.9,68.1,142.9z"/>
	<path class="st4" d="M85,132.9v-6c0-1.6,1.3-3,3-3h13c1.6,0,3,1.3,3,3v5L85,132.9z"/>
	<path class="st4" d="M134,142.9h-13c-1.6,0-3-1.3-3-3v-13c0-1.6,1.3-3,3-3h13c1.6,0,3,1.3,3,3v13C137,141.5,135.6,142.9,134,142.9z
		"/>
	<path class="st4" d="M166.9,142.9h-13c-1.6,0-3-1.3-3-3v-13c0-1.6,1.3-3,3-3h13c1.6,0,3,1.3,3,3v13
		C169.9,141.5,168.6,142.9,166.9,142.9z"/>
	<path class="st4" d="M199.9,142.9h-13c-1.6,0-3-1.3-3-3v-13c0-1.6,1.3-3,3-3h13c1.6,0,3,1.3,3,3v13
		C202.8,141.5,201.5,142.9,199.9,142.9z"/>
	<path class="st4" d="M63.1,174.1h-8c-1.6,0-3-1.3-3-3v-13c0-1.6,1.3-3,3-3h9l-1,3l-1,11L63.1,174.1z"/>
	<path class="st4" d="M101,174.1H88c-1.6,0-3-1.3-3-3v-13c0-1.6,1.3-3,3-3h13c1.6,0,3,1.3,3,3v13C104,172.8,102.7,174.1,101,174.1z"
		/>
	<path class="st4" d="M134,174.1h-6l1-3l-1-13v-3h6c1.6,0,3,1.3,3,3v13C137,172.8,135.6,174.1,134,174.1z"/>
	<path class="st4" d="M166.9,174.1h-13c-1.6,0-3-1.3-3-3v-13c0-1.6,1.3-3,3-3h13c1.6,0,3,1.3,3,3v13
		C169.9,172.8,168.6,174.1,166.9,174.1z"/>
	<path class="st4" d="M199.9,174.1h-13c-1.6,0-3-1.3-3-3v-13c0-1.6,1.3-3,3-3h13c1.6,0,3,1.3,3,3v13
		C202.8,172.8,201.5,174.1,199.9,174.1z"/>
	<path class="st4" d="M68.1,205.3h-13c-1.6,0-3-1.3-3-3v-13c0-1.6,1.3-3,3-3h13c1.6,0,3,1.3,3,3v13C71.1,204,69.7,205.3,68.1,205.3z
		"/>
	<path class="st4" d="M101,205.3H88c-1.6,0-3-1.3-3-3v-5l4,1h9l6-1v5C104,204,102.7,205.3,101,205.3z"/>
	<path class="st4" d="M134,205.3h-13c-1.6,0-3-1.3-3-3v-13c0-1.6,1.3-3,3-3h13c1.6,0,3,1.3,3,3v13C137,204,135.6,205.3,134,205.3z"
		/>
	<path class="st4" d="M166.9,205.3h-13c-1.6,0-3-1.3-3-3v-13c0-1.6,1.3-3,3-3h13c1.6,0,3,1.3,3,3v13
		C169.9,204,168.6,205.3,166.9,205.3z"/>
	<path class="st4" d="M199.9,205.3h-13c-1.6,0-3-1.3-3-3v-13c0-1.6,1.3-3,3-3h13c1.6,0,3,1.3,3,3v13
		C202.8,204,201.5,205.3,199.9,205.3z"/>
</g>
<g id="Layer_3">
	<path class="st5" d="M104.9,178.8H85.4c-2.4,0-4.5-1.9-4.5-4.5v-19.5c0-2.4,2-4.5,4.5-4.5h19.5c2.4,0,4.5,2,4.5,4.5v19.5
		C109.4,176.9,107.4,178.8,104.9,178.8z"/>
</g>
<g id="Layer_2">
	<g>
		
			<linearGradient id="SVGID_1_" gradientUnits="userSpaceOnUse" x1="-1313.3102" y1="-1415.1636" x2="-1312.9159" y2="-1415.1636" gradientTransform="matrix(24.8083 20.3423 20.3423 -24.8083 61412.8789 -8172.9868)">
			<stop  offset="0" style="stop-color:#231F20"/>
			<stop  offset="0.1414" style="stop-color:#353334"/>
			<stop  offset="0.3762" style="stop-color:#4E4F50"/>
			<stop  offset="0.5119" style="stop-color:#58595B"/>
			<stop  offset="0.589" style="stop-color:#5C5D5F"/>
			<stop  offset="0.6689" style="stop-color:#68696C"/>
			<stop  offset="0.7498" style="stop-color:#7C7D80"/>
			<stop  offset="0.7619" style="stop-color:#808184"/>
			<stop  offset="1" style="stop-color:#231F20"/>
		</linearGradient>
		<path class="st6" d="M35.7,249.7c-2.2,2.7-11.9-5.4-9.8-8l37-45.1c0.8-1,2.3-1.1,3.3-0.3l6.2,5.1c1,0.8,1.1,2.3,0.3,3.3
			L35.7,249.7z"/>
		
			<linearGradient id="SVGID_00000000925125649624713870000009885150743192098488_" gradientUnits="userSpaceOnUse" x1="-1313.3256" y1="-1416.5493" x2="-1312.9313" y2="-1416.5493" gradientTransform="matrix(24.8061 20.3405 20.3405 -24.8061 61454.1484 -8228.3047)">
			<stop  offset="0" style="stop-color:#6D6F71"/>
			<stop  offset="0.2909" style="stop-color:#A6A8AB"/>
			<stop  offset="0.3555" style="stop-color:#B4B6B9"/>
			<stop  offset="0.4777" style="stop-color:#DADBDC"/>
			<stop  offset="0.5833" style="stop-color:#FFFFFF"/>
			<stop  offset="0.632" style="stop-color:#F1F1F1"/>
			<stop  offset="0.724" style="stop-color:#CBCCCE"/>
			<stop  offset="0.8036" style="stop-color:#A6A8AB"/>
			<stop  offset="0.8712" style="stop-color:#96989A"/>
			<stop  offset="1" style="stop-color:#6D6F71"/>
		</linearGradient>
		<path style="fill:url(#SVGID_00000000925125649624713870000009885150743192098488_);" d="M71.8,205.6c-2.2,2.7-12-5.3-9.8-8l2.5-3
			c-1.9,2.3,8.3,9.8,9.8,8L71.8,205.6z"/>
		
			<linearGradient id="SVGID_00000001623080049895539230000006534994607911482810_" gradientUnits="userSpaceOnUse" x1="-1313.3246" y1="-1413.8875" x2="-1312.9303" y2="-1413.8875" gradientTransform="matrix(24.8053 20.3399 20.3399 -24.8053 61363.0859 -8119.1528)">
			<stop  offset="0" style="stop-color:#6D6F71"/>
			<stop  offset="0.2909" style="stop-color:#A6A8AB"/>
			<stop  offset="0.3555" style="stop-color:#B4B6B9"/>
			<stop  offset="0.4777" style="stop-color:#DADBDC"/>
			<stop  offset="0.5833" style="stop-color:#FFFFFF"/>
			<stop  offset="0.632" style="stop-color:#F1F1F1"/>
			<stop  offset="0.724" style="stop-color:#CBCCCE"/>
			<stop  offset="0.8036" style="stop-color:#A6A8AB"/>
			<stop  offset="0.8712" style="stop-color:#96989A"/>
			<stop  offset="1" style="stop-color:#6D6F71"/>
		</linearGradient>
		<path style="fill:url(#SVGID_00000001623080049895539230000006534994607911482810_);" d="M36.7,248.4c-2.2,2.7-12-5.3-9.8-8l2.5-3
			c-1.9,2.3,8.3,9.8,9.8,8L36.7,248.4z"/>
		
			<radialGradient id="SVGID_00000043457724363653119150000006433719489682792617_" cx="-1294.7927" cy="-1534.9254" r="0.3943" gradientTransform="matrix(11.5253 9.45 3.8666 -4.7155 20927.1328 5196.5898)" gradientUnits="userSpaceOnUse">
			<stop  offset="0" style="stop-color:#E6E7E8"/>
			<stop  offset="0.2659" style="stop-color:#D4D6D7"/>
			<stop  offset="0.7949" style="stop-color:#A6A8AA"/>
			<stop  offset="1" style="stop-color:#939597"/>
		</radialGradient>
		<path style="fill:url(#SVGID_00000043457724363653119150000006433719489682792617_);" d="M74.1,202.8c-0.9,1.1-3.8,0.1-6.5-2.1
			c-2.7-2.2-4.2-4.9-3.3-5.9c0.9-1.1,3.8-0.1,6.5,2.1C73.5,199,75,201.7,74.1,202.8z"/>
		
			<linearGradient id="SVGID_00000004503626538259829770000013678332449511492529_" gradientUnits="userSpaceOnUse" x1="-1311.7668" y1="-1419.6129" x2="-1311.3726" y2="-1419.6129" gradientTransform="matrix(22.6592 18.5801 18.5801 -22.6592 56168.5352 -7604.002)">
			<stop  offset="0" style="stop-color:#6D6F71"/>
			<stop  offset="0.2909" style="stop-color:#A6A8AB"/>
			<stop  offset="0.3555" style="stop-color:#B4B6B9"/>
			<stop  offset="0.4777" style="stop-color:#DADBDC"/>
			<stop  offset="0.5833" style="stop-color:#FFFFFF"/>
			<stop  offset="0.632" style="stop-color:#F1F1F1"/>
			<stop  offset="0.724" style="stop-color:#CBCCCE"/>
			<stop  offset="0.8036" style="stop-color:#A6A8AB"/>
			<stop  offset="0.8712" style="stop-color:#96989A"/>
			<stop  offset="1" style="stop-color:#6D6F71"/>
		</linearGradient>
		<path style="fill:url(#SVGID_00000004503626538259829770000013678332449511492529_);" d="M74.1,201.9c-2,2.5-10.9-5-8.9-7.3
			l6.7-8.1c0.7-0.9,2.1-1,3-0.3l5.6,4.6c0.9,0.7,1,2.1,0.3,3L74.1,201.9z"/>
		
			<linearGradient id="SVGID_00000028314462416515367110000006232076462372363136_" gradientUnits="userSpaceOnUse" x1="-1018.1602" y1="-1910.8284" x2="-1017.7661" y2="-1910.8284" gradientTransform="matrix(1.3086 1.0731 1.0731 -1.3086 3447.1824 -1207.6119)">
			<stop  offset="0" style="stop-color:#E6E7E8"/>
			<stop  offset="0.169" style="stop-color:#D6D7D8"/>
			<stop  offset="0.5" style="stop-color:#ABADB0"/>
			<stop  offset="0.5357" style="stop-color:#A6A8AB"/>
			<stop  offset="0.6957" style="stop-color:#96989A"/>
			<stop  offset="1" style="stop-color:#6D6F71"/>
		</linearGradient>
		<path style="fill:url(#SVGID_00000028314462416515367110000006232076462372363136_);" d="M64,201.7c-0.1,0.1-0.3,0.2-0.5,0
			c-0.1-0.1-0.2-0.3,0-0.5l1.6-1.9c0.1-0.1,0.3-0.2,0.5,0c0.1,0.1,0.2,0.3,0,0.5L64,201.7z"/>
		
			<linearGradient id="SVGID_00000052805155648018123640000008697221755906035337_" gradientUnits="userSpaceOnUse" x1="-1019.5579" y1="-1910.6727" x2="-1019.1633" y2="-1910.6727" gradientTransform="matrix(1.3086 1.0731 1.0731 -1.3086 3449.9265 -1204.7994)">
			<stop  offset="0" style="stop-color:#E6E7E8"/>
			<stop  offset="0.169" style="stop-color:#D6D7D8"/>
			<stop  offset="0.5" style="stop-color:#ABADB0"/>
			<stop  offset="0.5357" style="stop-color:#A6A8AB"/>
			<stop  offset="0.6957" style="stop-color:#96989A"/>
			<stop  offset="1" style="stop-color:#6D6F71"/>
		</linearGradient>
		<path style="fill:url(#SVGID_00000052805155648018123640000008697221755906035337_);" d="M65.1,202.8c-0.1,0.1-0.3,0.2-0.5,0
			c-0.1-0.1-0.2-0.3,0-0.5l1.6-1.9c0.1-0.1,0.3-0.2,0.5,0c0.1,0.1,0.2,0.3,0,0.5L65.1,202.8z"/>
		
			<linearGradient id="SVGID_00000084504736433191114370000010928519387405779335_" gradientUnits="userSpaceOnUse" x1="-1021.2425" y1="-1910.634" x2="-1020.8478" y2="-1910.634" gradientTransform="matrix(1.3094 1.0737 1.0737 -1.3094 3455.3845 -1202.7645)">
			<stop  offset="0" style="stop-color:#E6E7E8"/>
			<stop  offset="0.169" style="stop-color:#D6D7D8"/>
			<stop  offset="0.5" style="stop-color:#ABADB0"/>
			<stop  offset="0.5357" style="stop-color:#A6A8AB"/>
			<stop  offset="0.6957" style="stop-color:#96989A"/>
			<stop  offset="1" style="stop-color:#6D6F71"/>
		</linearGradient>
		<path style="fill:url(#SVGID_00000084504736433191114370000010928519387405779335_);" d="M66.4,203.9c-0.1,0.1-0.3,0.2-0.5,0
			c-0.1-0.1-0.2-0.3,0-0.5l1.6-1.9c0.1-0.1,0.3-0.2,0.5,0c0.1,0.1,0.2,0.3,0,0.5L66.4,203.9z"/>
		
			<linearGradient id="SVGID_00000059279399591425823250000009257422848978476707_" gradientUnits="userSpaceOnUse" x1="-1022.9662" y1="-1910.7891" x2="-1022.5717" y2="-1910.7891" gradientTransform="matrix(1.3094 1.0737 1.0737 -1.3094 3459.3855 -1200.0448)">
			<stop  offset="0" style="stop-color:#E6E7E8"/>
			<stop  offset="0.169" style="stop-color:#D6D7D8"/>
			<stop  offset="0.5" style="stop-color:#ABADB0"/>
			<stop  offset="0.5357" style="stop-color:#A6A8AB"/>
			<stop  offset="0.6957" style="stop-color:#96989A"/>
			<stop  offset="1" style="stop-color:#6D6F71"/>
		</linearGradient>
		<path style="fill:url(#SVGID_00000059279399591425823250000009257422848978476707_);" d="M68,205c-0.1,0.1-0.3,0.2-0.5,0
			c-0.1-0.1-0.2-0.3,0-0.5l1.6-1.9c0.1-0.1,0.3-0.2,0.5,0c0.1,0.1,0.2,0.3,0,0.5L68,205z"/>
		
			<linearGradient id="SVGID_00000143602604567420853900000007194378445465455768_" gradientUnits="userSpaceOnUse" x1="-1024.4307" y1="-1911.2549" x2="-1024.0364" y2="-1911.2549" gradientTransform="matrix(1.3094 1.0737 1.0737 -1.3094 3463.3767 -1198.4559)">
			<stop  offset="0" style="stop-color:#E6E7E8"/>
			<stop  offset="0.169" style="stop-color:#D6D7D8"/>
			<stop  offset="0.5" style="stop-color:#ABADB0"/>
			<stop  offset="0.5357" style="stop-color:#A6A8AB"/>
			<stop  offset="0.6957" style="stop-color:#96989A"/>
			<stop  offset="1" style="stop-color:#6D6F71"/>
		</linearGradient>
		<path style="fill:url(#SVGID_00000143602604567420853900000007194378445465455768_);" d="M69.6,205.6c-0.1,0.1-0.3,0.2-0.5,0
			c-0.1-0.1-0.2-0.3,0-0.5l1.6-1.9c0.1-0.1,0.3-0.2,0.5,0s0.2,0.3,0,0.5L69.6,205.6z"/>
		
			<linearGradient id="SVGID_00000097461985026073363590000012505572149749500557_" gradientUnits="userSpaceOnUse" x1="-1025.5582" y1="-1912.0264" x2="-1025.1633" y2="-1912.0264" gradientTransform="matrix(1.3086 1.0731 1.0731 -1.3086 3465.2859 -1197.0933)">
			<stop  offset="0" style="stop-color:#E6E7E8"/>
			<stop  offset="0.169" style="stop-color:#D6D7D8"/>
			<stop  offset="0.5" style="stop-color:#ABADB0"/>
			<stop  offset="0.5357" style="stop-color:#A6A8AB"/>
			<stop  offset="0.6957" style="stop-color:#96989A"/>
			<stop  offset="1" style="stop-color:#6D6F71"/>
		</linearGradient>
		<path style="fill:url(#SVGID_00000097461985026073363590000012505572149749500557_);" d="M71.2,205.9c-0.1,0.1-0.3,0.2-0.5,0
			c-0.1-0.1-0.2-0.3,0-0.5l1.6-1.9c0.1-0.1,0.3-0.2,0.5,0c0.1,0.1,0.2,0.3,0,0.5L71.2,205.9z"/>
		
			<linearGradient id="SVGID_00000052095966923596516800000002018202807975910803_" gradientUnits="userSpaceOnUse" x1="-1016.1035" y1="-1911.9703" x2="-1015.7088" y2="-1911.9703" gradientTransform="matrix(1.3079 1.0724 1.0724 -1.3079 3442.7144 -1212.1304)">
			<stop  offset="0" style="stop-color:#E6E7E8"/>
			<stop  offset="0.169" style="stop-color:#D6D7D8"/>
			<stop  offset="0.5" style="stop-color:#ABADB0"/>
			<stop  offset="0.5357" style="stop-color:#A6A8AB"/>
			<stop  offset="0.6957" style="stop-color:#96989A"/>
			<stop  offset="1" style="stop-color:#6D6F71"/>
		</linearGradient>
		<path style="fill:url(#SVGID_00000052095966923596516800000002018202807975910803_);" d="M63.1,200.3c-0.1,0.1-0.3,0.2-0.5,0
			c-0.1-0.1-0.2-0.3,0-0.5l1.6-1.9c0.1-0.1,0.3-0.2,0.5,0c0.1,0.1,0.2,0.3,0,0.5L63.1,200.3z"/>
		
			<linearGradient id="SVGID_00000083070304632358189360000013145475242229927070_" gradientUnits="userSpaceOnUse" x1="-1015.4672" y1="-1911.9858" x2="-1015.073" y2="-1911.9858" gradientTransform="matrix(1.3094 1.0737 1.0737 -1.3094 3445.2947 -1215.9237)">
			<stop  offset="0" style="stop-color:#E6E7E8"/>
			<stop  offset="0.169" style="stop-color:#D6D7D8"/>
			<stop  offset="0.5" style="stop-color:#ABADB0"/>
			<stop  offset="0.5357" style="stop-color:#A6A8AB"/>
			<stop  offset="0.6957" style="stop-color:#96989A"/>
			<stop  offset="1" style="stop-color:#6D6F71"/>
		</linearGradient>
		<path style="fill:url(#SVGID_00000083070304632358189360000013145475242229927070_);" d="M62.5,198.7c-0.1,0.1-0.3,0.2-0.5,0
			c-0.1-0.1-0.2-0.3,0-0.5l1.6-1.9c0.1-0.1,0.3-0.2,0.5,0c0.1,0.1,0.2,0.3,0,0.5L62.5,198.7z"/>
		
			<linearGradient id="SVGID_00000088843698697358523150000018122777551652265113_" gradientUnits="userSpaceOnUse" x1="-1311.7655" y1="-1419.4197" x2="-1311.3712" y2="-1419.4197" gradientTransform="matrix(22.6585 18.5795 18.5795 -22.6585 56160.7734 -7596.1724)">
			<stop  offset="0" style="stop-color:#231F20"/>
			<stop  offset="0.1414" style="stop-color:#353334"/>
			<stop  offset="0.3762" style="stop-color:#4E4F50"/>
			<stop  offset="0.5119" style="stop-color:#58595B"/>
			<stop  offset="0.6211" style="stop-color:#5C5D5F"/>
			<stop  offset="0.7297" style="stop-color:#67696B"/>
			<stop  offset="0.7679" style="stop-color:#6D6F71"/>
			<stop  offset="1" style="stop-color:#231F20"/>
		</linearGradient>
		<path style="fill:url(#SVGID_00000088843698697358523150000018122777551652265113_);" d="M74.5,201.5c-1.9,2.4-10.9-5-8.9-7.3
			l2.2-2.6c-1.6,2,7.7,8.9,8.9,7.3L74.5,201.5z"/>
		
			<radialGradient id="SVGID_00000075864026908656915130000011731079730653738917_" cx="-1323.309" cy="-1401.0706" r="0.4213" gradientTransform="matrix(61.0603 50.0682 50.0682 -61.0603 151046.4531 -19129.3418)" gradientUnits="userSpaceOnUse">
			<stop  offset="0" style="stop-color:#FFFFFF"/>
			<stop  offset="0.4596" style="stop-color:#FDFDFD"/>
			<stop  offset="0.6256" style="stop-color:#F6F7F7"/>
			<stop  offset="0.744" style="stop-color:#EAEBEC"/>
			<stop  offset="0.8397" style="stop-color:#DADADC"/>
			<stop  offset="0.9208" style="stop-color:#C4C5C7"/>
			<stop  offset="0.9923" style="stop-color:#A9ABAE"/>
			<stop  offset="1" style="stop-color:#A6A8AB"/>
		</radialGradient>
		<path style="opacity:0.1;fill:url(#SVGID_00000075864026908656915130000011731079730653738917_);" d="M121.6,185.8
			c-11.7,14.2-32.6,16.3-46.9,4.6c-14.2-11.7-16.3-32.6-4.6-46.9c11.7-14.2,32.6-16.3,46.9-4.6C131.2,150.6,133.2,171.5,121.6,185.8
			z"/>
		<path class="st21" d="M81,188.3c0,0,18.7,11.9,37.8-7.1C118.7,181.2,104.1,204.2,81,188.3z"/>
		<path class="st21" d="M111.7,140.5c0,0-18.7-11.9-37.8,7.1C74,147.6,88.6,124.6,111.7,140.5z"/>
		
			<linearGradient id="SVGID_00000032648461468803290830000004806093413844816281_" gradientUnits="userSpaceOnUse" x1="158.1855" y1="1136.7762" x2="228.8495" y2="1136.7762" gradientTransform="matrix(0.9758 0.2185 -0.2185 0.9758 155.6609 -986.8484)">
			<stop  offset="0" style="stop-color:#6D6F71"/>
			<stop  offset="0.2976" style="stop-color:#A6A8AB"/>
			<stop  offset="0.3523" style="stop-color:#B4B6B9"/>
			<stop  offset="0.4559" style="stop-color:#DADBDC"/>
			<stop  offset="0.5455" style="stop-color:#FFFFFF"/>
			<stop  offset="0.5985" style="stop-color:#F1F1F1"/>
			<stop  offset="0.6989" style="stop-color:#CBCCCE"/>
			<stop  offset="0.7857" style="stop-color:#A6A8AB"/>
			<stop  offset="0.8595" style="stop-color:#96989A"/>
			<stop  offset="1" style="stop-color:#6D6F71"/>
		</linearGradient>
		<path style="fill:url(#SVGID_00000032648461468803290830000004806093413844816281_);" d="M118.6,137.4
			c-15.1-12.4-37.3-10.2-49.7,4.9c-12.4,15.1-10.2,37.3,4.9,49.7c15.1,12.4,37.3,10.2,49.7-4.9C135.9,172,133.7,149.8,118.6,137.4z
			 M120.5,185.2c-11.3,13.8-31.6,15.8-45.3,4.5c-13.7-11.3-15.7-31.6-4.5-45.4s31.6-15.8,45.3-4.5
			C129.8,151.1,131.8,171.5,120.5,185.2z"/>
	</g>
</g>
</svg>
