<?xml version="1.0" encoding="utf-8"?>
<!-- Generator: Adobe Illustrator 26.3.1, SVG Export Plug-In . SVG Version: 6.00 Build 0)  -->
<svg version="1.1" id="Layer_1" xmlns="http://www.w3.org/2000/svg" xmlns:xlink="http://www.w3.org/1999/xlink" x="0px" y="0px"
	 viewBox="0 0 512 512" style="enable-background:new 0 0 512 512;" xml:space="preserve">
<g>
	<path style="fill:#FFFFFF;" d="M403.26,251.52c0,63.66-32.72,119.66-82.25,152.13c-0.1,0.06-0.21,0.14-0.31,0.2
		c-4.82,3.17-9.81,6.09-14.94,8.78c-9.28,4.87-19.05,8.96-29.19,12.19c-17.38,5.52-35.9,8.51-55.12,8.51
		c-4.73,0-9.43-0.17-14.07-0.54c-8.53-0.64-16.9-1.89-25.06-3.69c-5.71-1.26-11.32-2.77-16.8-4.56c-3.22-1.04-6.41-2.16-9.55-3.39
		c-1.84-0.69-3.66-1.43-5.46-2.21C85.36,391.31,39.65,326.75,39.65,251.52c0-100.41,81.4-181.8,181.8-181.8
		S403.26,151.11,403.26,251.52z"/>
	<g>
		<path style="fill:#323757;" d="M225.52,406.35l-18.13,26.43c-8.53-0.64-16.9-1.89-25.06-3.69c-5.71-1.26-11.32-2.77-16.8-4.56
			c-3.22-1.04-6.41-2.16-9.55-3.39c1.28-27.68,1.36-56.72-1.4-80.84c-7.96-69.77,6.19-139.88,6.19-139.88L225.52,406.35z"/>
	</g>
	<path style="fill:#FFF8F1;" d="M305.76,412.62c-25.2,13.22-53.87,20.7-84.31,20.7c-13.44,0-26.53-1.45-39.13-4.23
		c1.94-8.91,3.41-16.33,3.6-18.92c0.58-8.19-14.57-56.23-15.51-58.48c-0.92-2.24-24.96-18.89-29.64-35.4
		c-4.67-16.53,15.67-99.94,15.67-99.94s39.36-45.34,69.07-39.31c29.72,6.02,68.77,25.69,72.25,32.79s-1.45,79.67-4.13,86.99
		c-2.69,7.32-0.47,67.57,0.06,75.62C293.94,376.09,299.61,394.04,305.76,412.62z"/>
	<g>
		<path style="fill:#E8744E;" d="M321.01,403.65c-4.92,3.24-10.01,6.23-15.25,8.97c-9.28,4.87-19.05,8.96-29.19,12.19
			c-18.05-38.74-34.37-75.49-41.31-99.63c-19.08-66.36,0.39-147.13,0.39-147.13c0.01,0,0.01,0,0.02,0
			c22.35,3.8,52.66,16.61,60.18,26.45c0.32,0.41,0.59,0.94,0.86,1.55c2.6,4.78,9.55,25.43,17.3,40.68c0,0-10.42,7.69-17.73,24.79
			c-3.08,7.2-5.4,15.08-5.73,22.92c-0.17,3.5,0.07,7,0.81,10.43c0.25,1.11,0.53,2.22,0.88,3.32c9.52,29.88,19.88,62.71,19.88,62.71
			c0.12,2.88,0.54,5.95,1.23,9.18c0,0.05,0,0.07,0,0.07v0.01c1.39,6.59,3.82,13.88,6.89,21.61
			C320.51,402.4,320.75,403.02,321.01,403.65z"/>
	</g>
	<path style="fill:#81402B;" d="M321.01,403.65c-0.1,0.06-0.21,0.14-0.31,0.2c-19.23-22.07-44.44-118.17-44.44-118.17
		c5.44-0.55,10.18,2.9,14.3,8.78c16.14,23.03,22.56,83.33,22.81,85.64c0,0.05,0,0.07,0,0.07v0.01c1.39,6.59,3.82,13.88,6.89,21.61
		C320.51,402.4,320.75,403.02,321.01,403.65z"/>
	<g>
		<path style="fill:#EFA986;" d="M419.08,424.74c0,0,10.8,4.18,15.93-1.27c3.92-4.15,10.76-11.8,11.83-14.03
			c0.99-2.05,6.86-10.18,7.99-5.96c1.13,4.21-5.53,22.96-8.51,25.24c-2.99,2.28,12.98,6.05,15.31,9.1
			c2.33,3.05-5.9,29.94-16.53,26.05c-10.63-3.89-18.41-14.88-20.23-15.78c-3.07-1.51-15.04-6.52-15.04-6.52L419.08,424.74z"/>
	</g>
	<g>
		<path style="fill:#EFA986;" d="M459.38,436.31c0,0,31.73,14.14,33.04,16.92c1.3,2.77,0.41,4.51-2.62,3.31
			c-3.02-1.19-31.07-12.74-31.07-12.74s34.66,23.27,36.22,25.29c0.91,1.19-0.62,4.64-2.3,4.16c-1.68-0.48-37.37-21.5-37.37-21.5
			s32.32,21.79,33.12,23.89c0.7,1.84-1.48,4.67-3.99,3.23c-2.51-1.44-33.67-19.9-33.67-19.9s22.09,17.33,22.16,19.61
			c0.06,1.98-1.41,4.4-7.08-0.28c-5.67-4.68-20.21-14.25-20.21-14.25L459.38,436.31z"/>
	</g>
	<g>
		<path style="fill:#E8744E;" d="M324.4,282.62c6.34,30.41,18.29,74.13,21.39,79.51c1.38,2.4,6.65,6.59,13.86,12.63
			c10.47,8.76,68.77,50.36,68.77,50.36c0.26,10.45-13.98,24.95-13.98,24.95c-9.51-5.85-29.23-17.46-50.35-28.86
			c-24.34-13.13-41.92-26.18-46.48-33.08c-8.53-12.89-38.17-91.32-44.18-111.07c-2.31-7.61-4.93-20.31-7.28-33.07
			c-3.1-16.82-5.72-33.71-6.54-39.09c-0.16-1.06-0.25-1.67-0.26-1.75c0-0.01,0-0.01,0-0.01s12.61-16.51,35.69,0.4
			C295.04,203.52,311.38,220.16,324.4,282.62z"/>
	</g>
	<g>
		<polygon style="fill:#52588D;" points="111.92,171.48 149.7,115.62 115.88,99.25 83.49,156.22 		"/>
	</g>
	<g>
		<polygon style="fill:#D6CBE3;" points="112.12,166.61 144.82,118.26 115.55,104.1 87.52,153.4 		"/>
	</g>
	<g>
		<path style="fill:#E4A180;" d="M84.38,179.27c0,0,6.93-3.55,2.64-11.3c-4.29-7.75-1.39-10.53-1.39-10.53l31.61,16.88
			c0,0-9.56,14.49-13.22,15.91C100.36,191.65,81.73,184.77,84.38,179.27z"/>
	</g>
	<g>
		<path style="fill:#E4A180;" d="M117.25,174.32c0,0,13.19-13.39,14.3-15.18c1.11-1.78,6.48-9.85,8.39-14.3
			c1.91-4.45-9.24-0.63-11.56,4.08c-2.32,4.71-5,6.55-7.07,7.99s-15.69,5.74-17.46,10.25C102.09,171.69,117.25,174.32,117.25,174.32
			z"/>
	</g>
	<g>
		<path style="fill:#E4A180;" d="M89.17,151.17c0,0,2.45,1.83,3.26-1.22c0.81-3.05-0.88-9.16-4.29-6.72
			C84.72,145.68,89.17,151.17,89.17,151.17z"/>
	</g>
	<g>
		<path style="fill:#E4A180;" d="M91.89,141.81c0,0,1.81,4.38,3.64,1.73c1.83-2.64,2.25-10.85-1.8-9.61
			C89.69,135.17,91.89,141.81,91.89,141.81z"/>
	</g>
	<g>
		<path style="fill:#E4A180;" d="M96.91,133.48c0,0,1.39,5.48,3.71,3.21c1.75-1.71,2.18-12.33-1.87-11.09
			C94.7,126.84,96.91,133.48,96.91,133.48z"/>
	</g>
	<g>
		<path style="fill:#E8744E;" d="M174.1,188.2l-5.85,21.74l-16.93,62.9c0,0-5.64,4.63-13.6,11.06
			c-17.58,14.23-57.29,40.81-61.58,42.33c-5.56,1.97-33.79,2.75-35.64-16.49C38.65,290.5,83.11,179.5,83.11,179.5
			c13.71-3.34,29.06,3.24,29.06,3.24l-23.63,88.71c0.32-0.21,16-10.32,29.04-29.31c6.77-9.85,21.55-23.86,34.3-35.13
			c8.63-7.63,16.33-14,19.98-16.99C173.29,188.86,174.1,188.2,174.1,188.2z"/>
	</g>
	<g>
		<path style="fill:#464543;" d="M123.84,54.21c0,0-31.62,20.16-26,48.6c8.7,43.97,41.14,56.71,43.83,84.9
			c2.69,28.2-9.84,38.3-9.84,38.3l48.97-43.34L123.84,54.21z"/>
	</g>
	<g>
		<path style="fill:#EFA986;" d="M223.42,174.95c-4.19,44.98-28.4,77.68-37.81,82.67c-9.41,4.98-19.85-46.78-14.71-55.95
			c1.38-2.46,1.6-6.02,1.18-9.92c-0.78-7.4-3.85-16.01-5.66-20.6c-0.8-2.03-1.36-3.28-1.36-3.28s30.56-59.24,36.75-27.97
			C208.01,171.18,223.42,174.95,223.42,174.95z"/>
	</g>
	<g>
		<path style="fill:#A87861;" d="M193.85,158.8c-0.12,0.37-7.66,24.25-21.77,32.95c-0.78-7.4-3.85-16.01-5.66-20.6L193.85,158.8z"/>
	</g>
	<g>
		<path style="fill:#EFA986;" d="M109.32,68.97c0,0,3.41,59.81,21.2,86.51c28.55,42.84,42.15,28.49,60.2,7.62
			C216.79,132.96,181,55.89,181,55.89L109.32,68.97z"/>
	</g>
	<g>
		<path style="fill:#464543;" d="M108.13,117.18c0,0,18.96,4.53,46.18-11.93c27.01-16.34,37.95,46.29,44.44,47.97
			c6.49,1.68,10.17-68.22-4.5-84.56c-14.67-16.34-40.98-36.32-67.18-19.58C98.36,67.42,94.18,92.29,108.13,117.18z"/>
	</g>
	<g>
		<path style="fill:#464543;" d="M115.48,59.26c0,0,9.87-16.64,39.42-18.1c22.48-1.12,57.7,21.87,61.61,68.06
			c5.01,59.17,32.54,70.1,45.02,75.91c12.48,5.82-42.54,2.07-59.13-23.66c-7.54-11.69-17.55-28.87-21.1-41.01
			c-3.56-12.15-30.29-58.46-49.8-49.8C111.99,79.31,115.48,59.26,115.48,59.26z"/>
	</g>
	<g>
		<path style="fill:#EFA986;" d="M175.86,122.07c-2.54-7.53,8.68-15.57,12.87-9.83c4.2,5.74,2.94,26.33-4.04,24.09
			C177.73,134.08,175.86,122.07,175.86,122.07z"/>
	</g>
	<g>
		<path style="fill:#E8744E;" d="M159.72,278.98c-1.13,26.43,10.64,68.16,5.81,145.55c-5.1-1.64-10.12-3.5-15.01-5.6
			c1.33-36,0.73-70.7-5.05-86.13c-8-21.35-8.83-20.29-7.74-48.9c0.84-22.07,1.25-42.49,10.24-72.15
			c8.63-7.63,20.24-18.74,23.9-21.72c0,0,1.6,7.06-0.42,18.95C168.2,227.92,160.63,257.62,159.72,278.98z"/>
	</g>
	<g>
		<polygon style="fill:#81402B;" points="88.54,271.46 79.23,301.04 99.54,262.73 		"/>
	</g>
</g>
<g>
	<path style="fill:#E8744E;" d="M397.1,249.5h-2.61c0-94.99-77.28-172.27-172.27-172.27v-2.61
		C318.65,74.61,397.1,153.07,397.1,249.5z"/>
</g>
<g>
	<path style="fill:#E8744E;" d="M216.51,452.81c-110.99,0-201.29-90.3-201.29-201.29h2.61c0,109.55,89.13,198.68,198.68,198.68
		c109.55,0,198.68-89.13,198.68-198.68c0-109.55-89.13-198.68-198.68-198.68v-2.61c110.99,0,201.29,90.3,201.29,201.3
		C417.8,362.51,327.5,452.81,216.51,452.81z"/>
</g>
</svg>
