<?xml version="1.0" encoding="utf-8"?>
<!-- Generator: Adobe Illustrator 26.3.1, SVG Export Plug-In . SVG Version: 6.00 Build 0)  -->
<svg version="1.1" id="Layer_1" xmlns="http://www.w3.org/2000/svg" xmlns:xlink="http://www.w3.org/1999/xlink" x="0px" y="0px"
	 viewBox="0 0 512 512" style="enable-background:new 0 0 512 512;" xml:space="preserve">
<style type="text/css">
	.st0{fill:#EFBC90;}
	.st1{fill:#F4CAAB;}
	.st2{fill:#03053E;}
	.st3{fill:url(#SVGID_1_);}
	.st4{fill:url(#SVGID_00000053530189648320600660000005221328600884695484_);}
	.st5{fill:url(#SVGID_00000145741733186257113260000010066667712997917119_);}
	.st6{fill:#DBC6AF;}
	.st7{fill:url(#SVGID_00000047770729908559762410000011278674179823874493_);}
	.st8{fill:url(#SVGID_00000165203615317764167820000003442271604402528168_);}
	.st9{fill:url(#SVGID_00000158721349446907856630000018086595736647959168_);}
	.st10{fill:#FFFFFF;}
	.st11{opacity:0.4;fill:url(#SVGID_00000106839464811157432010000002592442020202201259_);enable-background:new    ;}
	.st12{opacity:0.4;fill:#FFFFFF;enable-background:new    ;}
	.st13{fill:#3BB44A;}
	.st14{fill:#E7744D;}
</style>
<g id="_x2014_ÎÓÈ_x5F_2">
</g>
<g>
	<g>
		<polygon class="st0" points="201.7,215.1 181.9,209.6 192.4,171.7 204.5,175 		"/>
		<path class="st1" d="M232.1,162c-0.9,16.5-7.7,31.5-18.1,32.3c-9.7,0.8-22.7-11.9-25.4-29.2c-2.9-18.2,4-29.3,18.3-30.3
			C222.1,133.9,233.1,143.9,232.1,162z"/>
		<path class="st2" d="M205.4,161.4c3.2-6,9.5-7.6,14.3-8.1s12.5,1.6,13.5-1.9c0.9-3.4-1-16.2-20.6-19.6c-17.7-3-28.8,6.9-33.2,19.6
			c-3.9,11.1,2.6,23.9,11.5,22.1C199.7,171.9,201.5,168.6,205.4,161.4z"/>
		<ellipse transform="matrix(0.9896 -0.1435 0.1435 0.9896 -21.9403 30.4374)" class="st1" cx="200" cy="167.3" rx="4.5" ry="5.4"/>
		<path class="st2" d="M211.8,115c2.9,7.6-1.2,19.5-10.5,23.1c-9.4,3.6-20.5-2.4-23.4-9.9c-2.9-7.6,4-12.3,13.3-15.9
			C200.6,108.6,208.9,107.4,211.8,115z"/>
		<path class="st0" d="M296.8,306.3c-0.2,3.6-5.8,7.7-13.5,8.3c-7.1,0.5-11.7-3.5-11.8-7.1C271.4,299.3,297,300.7,296.8,306.3z"/>
		<path class="st0" d="M305,346.1l-1.4-0.3l-102.2-18.9l-18-3.3l-4.5,38.7l18.3,0.9l88.6,4.2L250,453.5l-1.7,4.1l7.5,3.7l2.2-3.9
			l54.4-95.6c0.6-1,1-2.1,1.2-3.3C314.6,352.7,310.8,347.2,305,346.1z"/>
		<path class="st0" d="M314.9,351.4l-1.3-0.2l-113.3-20.9l-18-3.3l-4.7,38.4l18.2,1.1l105.8,6.3l5.8,109.2l0.2,4.4l8.4,0l0.3-4.4
			l7.2-119.7C323.8,357.1,320.2,352.4,314.9,351.4z"/>
		
			<linearGradient id="SVGID_1_" gradientUnits="userSpaceOnUse" x1="331.863" y1="184.7186" x2="276.5155" y2="158.5823" gradientTransform="matrix(1 0 0 -1 0 512)">
			<stop  offset="0" style="stop-color:#435AC2"/>
			<stop  offset="1" style="stop-color:#0F24A4"/>
		</linearGradient>
		<path class="st3" d="M214.9,317.9c12.9,20.9,89.9,13.7,101,29c14.8,20.5-46,99.5-46,99.5l-20.2-11.3c0,0,31-55.9,29.8-59.9
			c-1.6-5.1-86.1,7-108.9-12.3c-17.8-15-9-44.9-9-44.9L214.9,317.9z"/>
		
			<linearGradient id="SVGID_00000162325560208791580980000002779166328179682749_" gradientUnits="userSpaceOnUse" x1="300.0091" y1="182.308" x2="234.9244" y2="111.0738" gradientTransform="matrix(1 0 0 -1 0 512)">
			<stop  offset="0" style="stop-color:#435AC2"/>
			<stop  offset="1" style="stop-color:#0F24A4"/>
		</linearGradient>
		<path style="fill:url(#SVGID_00000162325560208791580980000002779166328179682749_);" d="M208.8,317.9
			c11.3,25.6,103.1,16.2,116.2,38.5c10.5,18-0.3,109.6-0.3,109.6l-24.3-0.7c0,0,0.1-78-4.6-83.3c-3.5-3.9-101,5.1-125.3-12.3
			c-20.8-14.9-9-51.9-9-51.9L208.8,317.9z"/>
		<path class="st0" d="M204.5,223.4l13.8,78.7l-6.6-5.6l57.6,4.3l5.2,0.4l-0.4,10.2l-5.2-0.1l-57.8-0.8c-3.2,0-5.8-2.3-6.5-5.3
			l-0.1-0.4l-17.3-78l-1.9-8.6l17.7-3.5L204.5,223.4z"/>
		
			<linearGradient id="SVGID_00000130637430840845682860000009260774204827709630_" gradientUnits="userSpaceOnUse" x1="252.3822" y1="253.2076" x2="196.6504" y2="242.83" gradientTransform="matrix(1 0 0 -1 0 512)">
			<stop  offset="0" style="stop-color:#FFC1C2"/>
			<stop  offset="1" style="stop-color:#FE958F"/>
		</linearGradient>
		<path style="fill:url(#SVGID_00000130637430840845682860000009260774204827709630_);" d="M177.3,225.2
			c-1.4,18.8,10.8,67.8,30,84.6c11.4,10,49.4,3.3,49.4,3.3l1.9-14.8c0,0-28.4,4.3-34.9-12.2s-10.6-61.6-20.2-68.5
			C195,211.5,177.9,216.7,177.3,225.2z"/>
		<path class="st6" d="M186.4,207.8c0,0,10.5,9.8,21.5,3.9c0,0,2.4,39.5,6.7,55.7s17.1,58.9,17.1,58.9l-78.4-2.5
			C152.4,287.7,167.4,247.3,186.4,207.8z"/>
		
			<linearGradient id="SVGID_00000036217010535817555640000004954870613651379333_" gradientUnits="userSpaceOnUse" x1="232.2337" y1="238.8453" x2="154.209" y2="247.3013" gradientTransform="matrix(1 0 0 -1 0 512)">
			<stop  offset="0" style="stop-color:#FE958F"/>
			<stop  offset="1" style="stop-color:#F77C77"/>
		</linearGradient>
		<path style="fill:url(#SVGID_00000036217010535817555640000004954870613651379333_);" d="M182.8,204.4c0,0-39.3,54.8-33.6,114.8
			c0,0-3.6,11.6,38.9,11.4c42.6-0.2,45.2-6,45.2-6c-12.4-32.5-21.7-69.1-25.4-113C207.9,211.6,192,211.7,182.8,204.4z"/>
		<path class="st1" d="M195.5,235.6c-5.7,9-11.3,18.4-16.5,27.7c-2.6,4.7-5.1,9.5-7.4,14.2c-2.3,4.8-4.4,9.6-6,14.3
			c-0.4,1.2-0.7,2.3-1,3.5l-0.9,3.8c-0.6,2.6-1.1,5.2-1.6,7.8c-1,5.3-1.8,10.6-2.6,16c-1.5,10.7-2.8,21.6-3.9,32.4l-0.5,5.2
			l-10.2-0.7l0.2-5.2c0.5-11.1,1.2-22,2.1-33.1c0.5-5.5,1-11,1.7-16.6c0.3-2.8,0.7-5.6,1.2-8.4l0.7-4.2c0.3-1.5,0.7-3,1.1-4.5
			c1.6-5.8,3.7-11.1,5.8-16.4c2.2-5.2,4.5-10.3,7-15.4c4.9-10.1,10-19.8,15.6-29.6l4.4-7.7l15.4,9.4L195.5,235.6z"/>
		
			<linearGradient id="SVGID_00000016043515067445801570000015165748282785449857_" gradientUnits="userSpaceOnUse" x1="178.6203" y1="226.9027" x2="147.3593" y2="236.896" gradientTransform="matrix(1 0 0 -1 0 512)">
			<stop  offset="0" style="stop-color:#FFC1C2"/>
			<stop  offset="1" style="stop-color:#FE958F"/>
		</linearGradient>
		<path style="fill:url(#SVGID_00000016043515067445801570000015165748282785449857_);" d="M177.8,216.9
			c-14.1,12.6-23.2,42.2-30,66.8c-6.8,24.6-3.8,62.6-3.8,62.6l15.4,1.4c0,0,2.6-38.4,9.4-54.8c6.8-16.4,35.2-51.6,33.1-63.3
			C200.1,219.4,184.1,211.3,177.8,216.9z"/>
		<path class="st1" d="M144.7,390.9c-3.5-0.9-6.1-9.3-4.6-19.9c1.4-9.8,6.6-15.5,10.2-14.9C158.4,357.4,150.1,392.2,144.7,390.9z"/>
		<path class="st1" d="M155.1,377.4c1.6-0.2,3-4.4,2.7-9.8c-0.3-5-2.4-8.2-4-8.1C150.1,359.6,152.6,377.7,155.1,377.4z"/>
		<path class="st2" d="M348.2,491.1l-6.4-1.1l0,0l-23.2-9v0.2c0,0-0.3,4-5.1,4.7c-3.6,0.5-5.9-0.4-6.8-0.9c-0.2-0.2-0.4-0.3-0.5-0.3
			c-1.5,0-2.8,2.5-2.8,5.7c0,1,0.1,2,0.4,2.8v4.4h46.3V493C350,492,349.3,491.2,348.2,491.1z"/>
		<path class="st2" d="M276.8,484.9l-4.3-4.8l0,0l-12.8-21.4l-0.1,0.1c0,0-2.7,3-6.9,0.6c-3.1-1.8-4.4-3.9-4.8-4.9
			c-0.1-0.3-0.1-0.5-0.2-0.6c-1.2-1-3.8,0.3-5.7,2.7c-0.6,0.8-1.1,1.6-1.4,2.5l-2.7,3.4l36.5,28.5l2.7-3.5
			C277.6,486.7,277.5,485.6,276.8,484.9z"/>
		<path class="st0" d="M290.3,299.8c-0.5-1.5-4.7-2.4-10.1-1.3c-5,1-7.8,3.5-7.5,5.1C273.4,307.1,291,302.2,290.3,299.8z"/>
	</g>
	<g>
		
			<linearGradient id="SVGID_00000018915821227737454900000001098027951494161035_" gradientUnits="userSpaceOnUse" x1="269.4901" y1="230.6476" x2="335.5462" y2="230.6476" gradientTransform="matrix(1 0 0 -1 0 512)">
			<stop  offset="0" style="stop-color:#7A8FD8"/>
			<stop  offset="1" style="stop-color:#435AC2"/>
		</linearGradient>
		<path style="fill:url(#SVGID_00000018915821227737454900000001098027951494161035_);" d="M333.1,254.7L333.1,254.7
			c-1.9-0.6-3.9,0.4-4.5,2.3l-13.9,44H273c-2,0-3.5,1.6-3.5,3.5s1.6,3.5,3.5,3.5h44.3c1.8,0,3.3-1.3,3.5-3.1l14.5-45.9
			C336,257.3,334.9,255.3,333.1,254.7z"/>
		<polygon class="st10" points="314.7,301 316.9,301 330.4,257.8 328.4,257.8 		"/>
	</g>
</g>
<linearGradient id="SVGID_00000100352697805929429270000006577166272808852884_" gradientUnits="userSpaceOnUse" x1="200.7874" y1="301.6823" x2="516.5807" y2="301.6823" gradientTransform="matrix(0.9848 -0.1736 -0.1736 -0.9848 -57.0452 583.9234)">
	<stop  offset="0" style="stop-color:#FFE2E4"/>
	<stop  offset="1" style="stop-color:#A4B8EA"/>
</linearGradient>
<path style="opacity:0.4;fill:url(#SVGID_00000100352697805929429270000006577166272808852884_);enable-background:new    ;" d="
	M399.3,197.1c0.6,3.4,1.1,6.9,1.5,10.3c4.2,38.1-5.4,76-27.6,107.7c-24.2,34.5-60.4,57.6-101.9,64.9s-83.4-2-118-26.2
	c-31.7-22.2-53.7-54.5-62.8-91.7c-0.8-3.4-1.5-6.8-2.1-10.2c-2.4-13.5-3-27.1-1.9-40.5c0.5-5.8,1.3-11.5,2.4-17.2
	c1.9-9.8,4.7-19.3,8.5-28.6c4.5-11.1,10.2-21.7,17.2-31.7c24.2-34.6,60.4-57.6,101.9-64.9c41.5-7.3,83.4,2,118,26.2
	c10,7,19,15,27,23.9c6.7,7.4,12.6,15.5,17.8,24c3,5,5.7,10.1,8.1,15.4C392.9,170.6,396.9,183.6,399.3,197.1z"/>
<g>
	<path class="st12" d="M379.2,143.1L88.8,194.3c1.9-9.8,4.7-19.3,8.5-28.6l264.1-46.6C368.1,126.5,374,134.6,379.2,143.1z"/>
	<path class="st12" d="M399.3,197.1c0.6,3.4,1.1,6.9,1.5,10.3L90.5,262.1c-0.8-3.4-1.5-6.8-2.1-10.2c-2.4-13.5-3-27.1-1.9-40.5
		l300.9-53.1C392.9,170.6,396.9,183.6,399.3,197.1z"/>
</g>
<path class="st13" d="M507.6,432.7c-11.7,22.2-33.3,43.8-55.5,55.5c-26.1-28.7-52.4-57.7-78.9-87.1c-2.6-2.8-5.1-5.7-7.7-8.5
	c-1.8-2-3.6-4-5.5-6c-2.5-2.8-5.1-5.7-7.7-8.5c-5.1-5.7-10.3-11.5-15.5-17.2l43.2-43.2c5.7,5.2,11.5,10.3,17.2,15.5
	c2.8,2.5,5.7,5.1,8.5,7.7c2,1.8,4,3.6,6,5.5c2.8,2.6,5.7,5.1,8.5,7.7C449.9,380.3,478.9,406.6,507.6,432.7z"/>
<path class="st13" d="M370.3,98.1c-69.8-69.8-183-69.8-252.8,0c-69.8,69.8-69.8,183,0,252.8c69.8,69.8,183,69.8,252.8,0
	C440.1,281,440.1,167.9,370.3,98.1z M340.8,321.4c-13.1,13.1-28.3,23.2-45.3,30.1c-16.4,6.7-33.8,10-51.6,10s-35.2-3.4-51.6-10
	c-17-6.9-32.2-17-45.3-30.1c-13.1-13.1-23.2-28.3-30.1-45.3c-6.7-16.4-10-33.8-10-51.6s3.4-35.2,10-51.6c6.9-17,17-32.2,30.1-45.3
	s28.3-23.2,45.3-30.1c16.4-6.7,33.8-10,51.6-10s35.2,3.4,51.6,10c17,6.9,32.2,17,45.3,30.1s23.2,28.3,30.1,45.3
	c6.7,16.4,10,33.8,10,51.6s-3.4,35.2-10,51.6C364,293,353.9,308.3,340.8,321.4z"/>
<path class="st14" d="M431.6,366.4l-45.8,45.8c-5.4-5.7-10.8-11.3-16.2-17l44.9-44.9C420.3,355.6,425.9,361,431.6,366.4z"/>
<path class="st14" d="M460.7,394l-47.2,47.2c-5.4-5.7-10.8-11.3-16.2-17l46.4-46.4C449.3,383.3,455,388.6,460.7,394z"/>
</svg>
