<?xml version="1.0" encoding="utf-8"?>
<!-- Generator: Adobe Illustrator 26.3.1, SVG Export Plug-In . SVG Version: 6.00 Build 0)  -->
<svg version="1.1" id="Layer_1" xmlns="http://www.w3.org/2000/svg" xmlns:xlink="http://www.w3.org/1999/xlink" x="0px" y="0px"
	 viewBox="0 0 3200 3200" style="enable-background:new 0 0 3200 3200;" xml:space="preserve">
<ellipse style="fill:#B0B0B5;" cx="1197.38" cy="2685.51" rx="1132.58" ry="40.89"/>
<g>
	<g>
		<g id="XMLID_1_">
			<g>
				<g>
					<path style="fill:#9E2880;" d="M2093.98,1515.97c25.23,25.25,40.9,60.04,40.9,98.34c0,76.58-62.66,139.22-139.24,139.22h-24.51
						v538.29c0,72.22-55.72,132.06-126.3,138.62l-29.23,0.02l-618.09,0.58h-0.25l-618.11-0.58l-29.21-0.02
						c-70.58-6.56-126.3-66.4-126.3-138.62v-538.29H399.1c-76.56,0-139.22-62.64-139.22-139.22c0-38.3,15.67-73.09,40.9-98.34
						c25.23-25.23,60.04-40.9,98.32-40.9h163.75c27.53,0,53.27,8.11,74.94,22.04c38.6,24.82,64.28,68.15,64.28,117.2v226.51v177.92
						h495.18h0.25h495.17v-177.92v-226.51c0-49.05,25.7-92.4,64.3-117.2c21.67-13.94,47.41-22.04,74.94-22.04h163.74
						C2033.92,1475.07,2068.75,1490.74,2093.98,1515.97z M2024.89,1622.59v-16.58c0-36.22-29.47-65.7-65.72-65.7h-144.46
						c-24.38,0-46.65,13.48-58.12,35.19l-0.11,0.09l-0.02,0.25v752.79h157.81v-639.44l-1.24-0.91h46.14
						C1995.42,1688.29,2024.89,1658.81,2024.89,1622.59z M638.3,2328.63v-752.79l-0.04-0.25l-0.09-0.09
						c-11.46-21.7-33.74-35.19-58.12-35.19H435.57c-36.22,0-65.7,29.47-65.7,65.7v16.58c0,36.22,29.47,65.7,65.7,65.7h46.16
						l-1.24,0.91v639.44H638.3z"/>
					<path style="fill:#7B0C5D;" d="M1197.5,2431.4h-0.25l-618.11-0.58l-29.21-0.02c-34.41-3.2-66.32-19.11-89.88-44.8
						c-23.72-25.86-36.78-59.3-36.78-94.17v-537.93H399.1c-37.12,0-72.13-14.56-98.57-41c-26.44-26.44-41.01-61.45-41.01-98.58
						c0-37.11,14.56-72.13,41.01-98.59c26.44-26.44,61.45-41.01,98.57-41.01h163.75c26.67,0,52.65,7.64,75.13,22.1
						c40.35,25.94,64.45,69.87,64.45,117.5v404.07h989.88v-404.07c0-23.72,6.13-47.19,17.72-67.87
						c11.23-20.04,27.4-37.2,46.74-49.63c22.48-14.46,48.46-22.1,75.13-22.1h163.74c37.14,0,72.15,14.56,98.59,41.01l0,0
						c26.44,26.46,41.01,61.48,41.01,98.59c0,37.13-14.56,72.14-41.01,98.58c-26.44,26.44-61.46,41-98.59,41h-24.16v537.93
						c0,34.87-13.06,68.32-36.78,94.17c-23.57,25.69-55.48,41.6-89.85,44.8l-29.26,0.02L1197.5,2431.4z M399.1,1475.43
						c-36.93,0-71.76,14.49-98.07,40.8c-26.31,26.33-40.8,61.16-40.8,98.09c0,76.57,62.29,138.86,138.86,138.86h24.89v538.65
						c0,70.96,55.34,131.69,125.98,138.26l29.18,0.02l618.36,0.58l618.09-0.58l29.23-0.02c70.61-6.57,125.95-67.3,125.95-138.26
						v-538.65h24.87c76.58,0,138.88-62.29,138.88-138.86c0-36.92-14.49-71.76-40.8-98.09l0,0c-26.31-26.31-61.14-40.8-98.09-40.8
						h-163.74c-26.53,0-52.38,7.6-74.74,21.99c-40.16,25.8-64.14,69.5-64.14,116.9v404.78H701.71v-404.78
						c0-47.38-23.97-91.08-64.12-116.9c-22.36-14.38-48.21-21.99-74.74-21.99H399.1z M1914.63,2328.99H1756.1l0.03-753.57l0.17-0.15
						c11.54-21.78,33.91-35.32,58.4-35.32h144.46c36.43,0,66.07,29.63,66.07,66.05v16.58c0,36.42-29.64,66.05-66.07,66.05h-45.05
						l0.5,0.37V2328.99z M1756.82,2328.28h157.1v-638.9l-1.99-1.44h47.24c36.04,0,65.36-29.31,65.36-65.34v-16.58
						c0-36.03-29.32-65.34-65.36-65.34h-144.46c-24.25,0-46.4,13.41-57.8,35l-0.08,0.11l-0.01,0.09L1756.82,2328.28z
						 M638.65,2328.99H480.13v-639.98l0.5-0.37h-45.06c-36.42,0-66.05-29.63-66.05-66.05v-16.58c0-36.42,29.63-66.05,66.05-66.05
						h144.48c24.5,0,46.87,13.54,58.41,35.33l0.14,0.14l0.06,0.36L638.65,2328.99z M480.84,2328.28h157.1v-752.43l-0.09-0.17
						c-11.4-21.59-33.55-35-57.8-35H435.57c-36.03,0-65.34,29.31-65.34,65.34v16.58c0,36.03,29.31,65.34,65.34,65.34h47.26
						l-1.99,1.44V2328.28z"/>
				</g>
				<g>
					<path style="fill:#231F20;" d="M2024.89,1606.01v16.58c0,36.22-29.47,65.7-65.72,65.7h-46.14l1.24,0.91v639.44h-157.81v-752.79
						l0.02-0.25l0.11-0.09c11.46-21.7,33.74-35.19,58.12-35.19h144.46C1995.42,1540.32,2024.89,1569.79,2024.89,1606.01z
						 M2023.87,1622.59v-16.58c0-35.66-29.02-64.7-64.7-64.7h-144.46c-24.02,0-45.94,13.28-57.23,34.66v751.66h155.8V1689.7
						l-3.38-2.41h49.27C1994.85,1687.29,2023.87,1658.27,2023.87,1622.59z"/>
					<path style="fill:#7B0C5D;" d="M1914.63,2328.99H1756.1l0.03-753.57l0.17-0.15c11.54-21.78,33.91-35.32,58.4-35.32h144.46
						c36.43,0,66.07,29.63,66.07,66.05v16.58c0,36.42-29.64,66.05-66.07,66.05h-45.05l0.5,0.37V2328.99z M1756.82,2328.28h157.1
						v-638.9l-1.99-1.44h47.24c36.04,0,65.36-29.31,65.36-65.34v-16.58c0-36.03-29.32-65.34-65.36-65.34h-144.46
						c-24.25,0-46.4,13.41-57.8,35l-0.08,0.11l-0.01,0.09L1756.82,2328.28z M1913.63,2327.99h-156.51v-752.1l0.04-0.08
						c11.35-21.5,33.41-34.85,57.55-34.85h144.46c35.87,0,65.06,29.18,65.06,65.06v16.58c0,35.87-29.18,65.06-65.06,65.06h-48.16
						l2.62,1.87V2327.99z M1757.84,2327.28h155.08v-637.39l-4.13-2.95h50.39c35.48,0,64.34-28.86,64.34-64.34v-16.58
						c0-35.48-28.86-64.34-64.34-64.34h-144.46c-23.85,0-45.63,13.17-56.87,34.39V2327.28z"/>
				</g>
				<g>
					<path style="fill:#9E2880;" d="M2023.87,1606.01v16.58c0,35.68-29.02,64.7-64.7,64.7h-49.27l3.38,2.41v637.93h-155.8v-751.66
						c11.3-21.38,33.21-34.66,57.23-34.66h144.46C1994.85,1541.32,2023.87,1570.36,2023.87,1606.01z"/>
					<path style="fill:#7B0C5D;" d="M1913.63,2327.99h-156.51v-752.1l0.04-0.08c11.35-21.5,33.41-34.85,57.55-34.85h144.46
						c35.87,0,65.06,29.18,65.06,65.06v16.58c0,35.87-29.18,65.06-65.06,65.06h-48.16l2.62,1.87V2327.99z M1757.84,2327.28h155.08
						v-637.39l-4.13-2.95h50.39c35.48,0,64.34-28.86,64.34-64.34v-16.58c0-35.48-28.86-64.34-64.34-64.34h-144.46
						c-23.85,0-45.63,13.17-56.87,34.39V2327.28z"/>
				</g>
				<g>
					<path style="fill:#000209;" d="M1761.38,2474.42l74.05,195.04l-46.97-1.11l-90.38-193.93H1198.5h-2.24H696.68l-90.38,193.93
						l-46.97,1.11l74.05-195.04h-11.99c-23.25,0-42.26-19.01-42.26-42.26c0-0.57,0-1.13,0.02-1.68v-0.02l618.11,0.58h0.25
						l618.09-0.58v0.02c0.04,0.55,0.04,1.11,0.04,1.68c0,23.25-19.03,42.26-42.28,42.26H1761.38z"/>
					<path style="fill:#7B0C5D;" d="M1835.96,2669.82l-47.73-1.13l-0.09-0.2l-90.29-193.72H696.91l-90.38,193.92l-0.22,0.01
						l-47.5,1.12l0.19-0.5l73.87-194.55h-11.48c-23.5,0-42.62-19.12-42.62-42.62c0-0.57,0-1.14,0.02-1.69l0.01-0.35l0.35-0.02
						l618.36,0.58l618.45-0.58v0.36c0.04,0.55,0.04,1.13,0.04,1.7c0,23.5-19.13,42.62-42.63,42.62h-11.46L1835.96,2669.82z
						 M1788.69,2667.99l46.22,1.09l-74.05-195.02h12.49c23.11,0,41.92-18.8,41.92-41.9c0-0.44,0-0.9-0.02-1.34l-618,0.58
						l-617.77-0.58c-0.01,0.45-0.01,0.9-0.01,1.34c0,23.1,18.8,41.9,41.9,41.9h12.51l-74.05,195.02l46.22-1.09l90.38-193.93h1001.85
						L1788.69,2667.99z"/>
				</g>
				<g>
					<path style="fill:#59204D;" d="M1756.97,1105.46v391.66c-38.6,24.8-64.3,68.15-64.3,117.2v226.51H1197.5h-0.25H702.07v-226.51
						c0-49.05-25.68-92.38-64.28-117.2v-391.66c0-88.8,71.98-160.77,160.77-160.77h398.69h0.25h398.69
						C1684.99,944.68,1756.97,1016.66,1756.97,1105.46z"/>
					<path style="fill:#7B0C5D;" d="M1693.02,1841.18H701.71v-226.87c0-47.38-23.97-91.08-64.12-116.9l-0.16-0.11v-391.85
						c0-43.04,16.76-83.51,47.19-113.94c30.43-30.43,70.9-47.19,113.94-47.19h797.63c43.04,0,83.51,16.76,113.94,47.19
						c30.43,30.43,47.19,70.9,47.19,113.94v391.85l-0.16,0.11c-40.16,25.8-64.14,69.5-64.14,116.9V1841.18z M702.43,1840.46h989.88
						v-226.15c0-23.72,6.13-47.19,17.72-67.87c11.2-19.98,27.31-37.11,46.58-49.52v-391.47c0-88.45-71.96-160.42-160.42-160.42
						H798.56c-88.45,0-160.42,71.96-160.42,160.42v391.47c40.26,25.96,64.28,69.83,64.28,117.39V1840.46z"/>
				</g>
				<g>
					<polygon style="fill:#000008;" points="1692.67,1840.82 1692.67,2018.74 1197.5,2018.74 1197.26,2018.74 702.07,2018.74 
						702.07,1840.82 1197.26,1840.82 1197.5,1840.82 					"/>
					<path style="fill:#7B0C5D;" d="M1693.02,2019.09H701.71v-178.63h991.31V2019.09z M702.43,2018.38h989.88v-177.2H702.43V2018.38
						z"/>
				</g>
				<g>
					<path style="fill:#7E1161;" d="M638.3,1575.84v752.79H480.48v-639.44l1.24-0.91h-46.16c-36.22,0-65.7-29.47-65.7-65.7v-16.58
						c0-36.22,29.47-65.7,65.7-65.7h144.48c24.38,0,46.65,13.48,58.12,35.19l0.09,0.09L638.3,1575.84z M637.28,2327.63v-751.66
						c-11.3-21.38-33.23-34.66-57.23-34.66H435.57c-35.66,0-64.68,29.04-64.68,64.7v16.58c0,35.68,29.02,64.7,64.68,64.7h49.29
						l-3.38,2.41v637.93H637.28z"/>
					<path style="fill:#7B0C5D;" d="M638.65,2328.99H480.13v-639.98l0.5-0.37h-45.06c-36.42,0-66.05-29.63-66.05-66.05v-16.58
						c0-36.42,29.63-66.05,66.05-66.05h144.48c24.5,0,46.87,13.54,58.41,35.33l0.14,0.14l0.06,0.41V2328.99z M480.84,2328.28h157.1
						v-752.4l-0.09-0.2c-11.4-21.59-33.55-35-57.8-35H435.57c-36.03,0-65.34,29.31-65.34,65.34v16.58
						c0,36.03,29.31,65.34,65.34,65.34h47.26l-1.99,1.44V2328.28z M637.64,2327.99H481.13v-638.47l2.62-1.87h-48.18
						c-35.86,0-65.04-29.18-65.04-65.06v-16.58c0-35.87,29.18-65.06,65.04-65.06h144.48c24.14,0,46.19,13.35,57.55,34.85l0.04,0.08
						V2327.99z M481.84,2327.28h155.08v-751.21c-11.24-21.22-33.03-34.39-56.87-34.39H435.57c-35.47,0-64.32,28.86-64.32,64.34
						v16.58c0,35.48,28.85,64.34,64.32,64.34h50.41l-4.13,2.95V2327.28z"/>
				</g>
				<g>
					<path style="fill:#9E2880;" d="M637.28,1575.97v751.66h-155.8V1689.7l3.38-2.41h-49.29c-35.66,0-64.68-29.02-64.68-64.7v-16.58
						c0-35.66,29.02-64.7,64.68-64.7h144.48C604.05,1541.32,625.98,1554.59,637.28,1575.97z"/>
					<path style="fill:#7B0C5D;" d="M637.64,2327.99H481.13v-638.47l2.62-1.87h-48.18c-35.86,0-65.04-29.18-65.04-65.06v-16.58
						c0-35.87,29.18-65.06,65.04-65.06h144.48c24.14,0,46.19,13.35,57.55,34.85l0.04,0.08V2327.99z M481.84,2327.28h155.08v-751.21
						c-11.24-21.22-33.03-34.39-56.87-34.39H435.57c-35.47,0-64.32,28.86-64.32,64.34v16.58c0,35.48,28.85,64.34,64.32,64.34h50.41
						l-4.13,2.95V2327.28z"/>
				</g>
			</g>
			<g>
				<g>
					<path style="fill:#7B0C5D;" d="M640.44,2330.77h-162.1v-640.35h-42.77c-37.41,0-67.84-30.43-67.84-67.84v-16.58
						c0-37.41,30.43-67.84,67.84-67.84h144.48c25.07,0,47.98,13.8,59.86,36.04l0.36,0.36l0.17,1.27V2330.77z M482.63,2326.49h153.53
						v-750.2c-11.13-20.87-32.6-33.83-56.11-33.83H435.57c-35.04,0-63.56,28.51-63.56,63.56v16.58c0,35.04,28.51,63.56,63.56,63.56
						h52.75l-5.69,4.14V2326.49z"/>
				</g>
				<g>
					<path style="fill:#7B0C5D;" d="M639.42,2329.78H479.34v-640.35h-43.77c-36.85,0-66.82-29.98-66.82-66.84v-16.58
						c0-36.86,29.98-66.84,66.82-66.84h144.48c24.81,0,47.46,13.72,59.13,35.8l0.25,0.47V2329.78z M483.63,2325.49h151.51v-748.98
						c-10.99-20.4-32.05-33.05-55.09-33.05H435.57c-34.48,0-62.54,28.06-62.54,62.56v16.58c0,34.49,28.05,62.56,62.54,62.56h55.97
						l-7.91,5.66V2325.49z"/>
				</g>
				<g>
					<path style="fill:#7B0C5D;" d="M1197.26,2431.76l-618.11-0.58l-29.21-0.02c-34.53-3.21-66.52-19.16-90.15-44.92
						c-23.78-25.92-36.87-59.45-36.87-94.41v-537.58H399.1c-37.22,0-72.32-14.6-98.83-41.1c-26.51-26.51-41.11-61.61-41.11-98.83
						c0-37.21,14.6-72.31,41.11-98.84c26.51-26.51,61.61-41.11,98.83-41.11h163.75c26.74,0,52.79,7.66,75.32,22.16
						c40.46,26.01,64.61,70.05,64.61,117.8v403.71h494.47v1.43h-495.9v-405.14c0-47.26-23.91-90.85-63.96-116.6
						c-22.31-14.35-48.09-21.93-74.55-21.93H399.1c-36.84,0-71.57,14.45-97.82,40.69c-26.24,26.26-40.69,61.01-40.69,97.83
						c0,76.37,62.13,138.51,138.51,138.51h25.25v539.01c0,70.78,55.19,131.36,125.66,137.91l29.14,0.02l618.11,0.58L1197.26,2431.76
						z"/>
				</g>
				<g>
					<path style="fill:#7B0C5D;" d="M638.5,1497.11h-1.43v-391.66c0-43.14,16.8-83.69,47.3-114.19c30.5-30.5,71.05-47.3,114.19-47.3
						h398.69v1.43H798.56c-88.26,0-160.06,71.8-160.06,160.06V1497.11z"/>
				</g>
				<g>
					<rect x="702.07" y="1840.11" style="fill:#7B0C5D;" width="495.18" height="1.43"/>
				</g>
				<g>
					<rect x="696.68" y="2473.7" style="fill:#7B0C5D;" width="499.58" height="1.43"/>
				</g>
				<g>
					<path style="fill:#7B0C5D;" d="M633.38,2475.13h-11.99c-23.7,0-42.97-19.28-42.97-42.97c0-0.57,0-1.15,0.02-1.7l1.43,0.05
						c-0.02,0.54-0.02,1.1-0.02,1.65c0,22.91,18.64,41.54,41.54,41.54h11.99V2475.13z"/>
				</g>
				<g>
					<polygon style="fill:#7B0C5D;" points="558.28,2670.19 632.71,2474.16 634.04,2474.67 560.37,2668.71 605.84,2667.64 
						696.03,2474.11 697.33,2474.72 606.76,2669.04 					"/>
				</g>
				<g>
					<path style="fill:#7B0C5D;" d="M1916.42,2330.77h-162.1l0.03-755.34l0.07-0.9l0.49-0.41c11.89-22.19,34.77-35.95,59.81-35.95
						h144.46c37.42,0,67.86,30.43,67.86,67.84v16.58c0,37.41-30.44,67.84-67.86,67.84h-42.76V2330.77z M1758.6,2326.49h153.53
						v-636.21l-5.69-4.14h52.73c35.05,0,63.57-28.51,63.57-63.56v-16.58c0-35.04-28.52-63.56-63.57-63.56h-144.46
						c-23.5,0-44.98,12.95-56.11,33.83V2326.49z"/>
				</g>
				<g>
					<path style="fill:#7B0C5D;" d="M1915.42,2329.78h-160.08v-754.33l0.25-0.47c11.66-22.08,34.32-35.8,59.13-35.8h144.46
						c36.86,0,66.84,29.98,66.84,66.84v16.58c0,36.86-29.98,66.84-66.84,66.84h-43.76V2329.78z M1759.62,2325.49h151.51V1690.8
						l-7.91-5.66h55.95c34.49,0,62.56-28.06,62.56-62.56v-16.58c0-34.49-28.06-62.56-62.56-62.56h-144.46
						c-23.04,0-44.1,12.65-55.09,33.05V2325.49z"/>
				</g>
				<g>
					<path style="fill:#7B0C5D;" d="M1197.5,2431.76h-0.25v-1.43h0.25l618.09-0.58l29.23-0.02c70.4-6.55,125.59-67.12,125.59-137.9
						v-539.01h25.23c76.38,0,138.53-62.13,138.53-138.51c0-36.83-14.45-71.57-40.69-97.83c-26.24-26.24-60.99-40.69-97.83-40.69
						h-163.74c-26.47,0-52.24,7.58-74.55,21.93c-40.06,25.73-63.97,69.32-63.97,116.6v405.14h-496.12v-1.43h494.7v-403.71
						c0-23.78,6.14-47.31,17.77-68.04c11.26-20.09,27.47-37.3,46.86-49.76c22.54-14.49,48.58-22.16,75.32-22.16h163.74
						c37.23,0,72.33,14.6,98.84,41.11c26.51,26.53,41.11,61.63,41.11,98.84c0,37.23-14.6,72.33-41.11,98.83
						c-26.51,26.51-61.61,41.1-98.84,41.1h-23.8v537.58c0,34.96-13.09,68.49-36.87,94.41c-23.63,25.76-55.62,41.71-90.08,44.92
						l-29.29,0.02L1197.5,2431.76z"/>
				</g>
				<g>
					<path style="fill:#7B0C5D;" d="M1757.68,1497.11h-1.43v-391.66c0-88.26-71.8-160.06-160.06-160.06h-398.94v-1.43h398.94
						c43.14,0,83.69,16.8,114.19,47.3c30.5,30.5,47.3,71.05,47.3,114.19V1497.11z"/>
				</g>
				<g>
					<rect x="1197.26" y="1840.11" style="fill:#7B0C5D;" width="495.41" height="1.43"/>
				</g>
				<g>
					<rect x="1196.26" y="2473.7" style="fill:#7B0C5D;" width="501.82" height="1.43"/>
				</g>
				<g>
					<path style="fill:#7B0C5D;" d="M1773.36,2475.13h-11.97v-1.43h11.97c22.92,0,41.56-18.64,41.56-41.54c0-0.57,0-1.11-0.04-1.63
						l1.42-0.1c0.04,0.57,0.04,1.16,0.04,1.73C1816.35,2455.85,1797.06,2475.13,1773.36,2475.13z"/>
				</g>
				<g>
					<polygon style="fill:#7B0C5D;" points="1836.48,2670.19 1788,2669.04 1697.43,2474.72 1698.73,2474.11 1788.92,2667.64 
						1834.39,2668.71 1760.71,2474.67 1762.05,2474.16 					"/>
				</g>
			</g>
		</g>
	</g>
</g>
<ellipse style="fill:#B0B0B5;" cx="2822.84" cy="2644.63" rx="283.6" ry="17.87"/>
<g>
	<path style="fill:#00A3FE;" d="M3125.02,2284.72c0,96.79-23.64,185.83-63.25,256.32c-6.01,10.7-12.39,20.97-19.11,30.78
		c-1.9,2.78-3.84,5.53-5.8,8.24c-3.82,5.28-7.75,10.41-11.77,15.39c-13.2,16.34-27.44,31.04-42.57,43.88
		c-0.01,0.01-0.02,0.01-0.03,0.01h-304.12c-0.01,0-0.03,0-0.04-0.01c-15.13-12.84-29.37-27.54-42.57-43.88
		c-4.02-4.98-7.95-10.11-11.77-15.39c-1.96-2.71-3.9-5.46-5.81-8.24c-6.72-9.81-13.1-20.08-19.1-30.78
		c-39.61-70.49-63.25-159.53-63.25-256.32c0-74.06,13.84-143.57,38.08-203.71c2.09-5.2,4.26-10.33,6.52-15.39
		c1.22-2.77,2.48-5.51,3.76-8.24c4.97-10.61,10.28-20.88,15.91-30.78c16.5-29.05,35.74-54.91,57.15-76.82
		c0.03-0.03,0.01-0.07-0.03-0.08c-14.82-1.63-26.43-14.27-26.43-29.5c0-8.16,3.34-15.58,8.72-20.96c5.38-5.38,12.8-8.72,20.96-8.72
		h339.28c15.68,0,29.13,11.9,30.24,27.54c0.64,9-2.79,17.26-8.64,23.1c-4.66,4.66-10.84,7.78-17.71,8.54
		c-0.04,0.01-0.06,0.05-0.03,0.08c21.41,21.91,40.64,47.77,57.14,76.82c5.64,9.9,10.95,20.17,15.91,30.78
		c1.28,2.73,2.54,5.47,3.76,8.24c2.26,5.06,4.43,10.19,6.52,15.39C3111.18,2141.15,3125.02,2210.66,3125.02,2284.72z"/>
	<path style="fill:#FFFFFF;" d="M3076.66,2057.38h-492.47c4.97-10.61,10.28-20.88,15.91-30.78h460.65
		C3066.39,2036.5,3071.7,2046.77,3076.66,2057.38z"/>
	<path style="fill:#FFFFFF;" d="M3086.94,2081.01h-513.03l6.52-15.39h499.99C3082.68,2070.68,3084.84,2075.81,3086.94,2081.01z"/>
	<path style="fill:#FFFFFF;" d="M2599.07,2541.04h462.69c-6.01,10.7-12.39,20.97-19.11,30.78h-424.48L2599.07,2541.04z"/>
	<path style="fill:#FFFFFF;" d="M3036.85,2580.06c-3.82,5.28-7.75,10.41-11.77,15.39h-389.33c-4.02-4.98-7.95-10.11-11.77-15.39
		H3036.85z"/>
</g>
<g id="XMLID_3_">
	<g>
		<path style="fill:#3BB44A;" d="M2847.42,1848.74c-15.58-11.92-33.11-29.83-50.49-51.71c-28.74-36.17-57.06-83.2-75.5-132.05
			c-16.78-44.47-63.21-167.53,1.01-272.72c0.74-1.23,1.51-2.46,2.29-3.68c45.51-71.35,101-67.88,134.94-123.37
			c2.4-3.92,4.69-8.13,6.86-12.68c29.82-62.56,8.19-128.57-15.32-176.51c-19.45-39.65-40.17-66.97-34.15-69.82
			c3.9-1.84,18.47,6.84,38.29,23.6c71.14,60.11,209.99,224.05,166.17,377.4c-15.96,55.86-46.99,78.22-75.99,119.48
			c-15.04,21.4-29.53,47.88-41.08,86.74c-21.5,72.34-16.82,133.73-11.55,177.75c4.97,41.49,10.46,67.57-4.94,72.87
			C2878.37,1867.35,2864,1861.45,2847.42,1848.74z"/>
		<path style="fill:#026636;" d="M2945.53,1526.68c8.06,26.29,12.17,53.7,9.54,89.12c-4.96,66.78-31.34,128.04-62.17,175.38
			c-5.27-44.03-9.95-105.41,11.55-177.75C2916,1574.56,2930.49,1548.08,2945.53,1526.68z"/>
		<path style="fill:#026636;" d="M2869.33,885.03c12.86,2.54-4.14,57.47-13.97,144.76l-0.01,0.01
			c-19.82-16.75-34.39-25.44-38.29-23.6c-6.02,2.85,14.7,30.17,34.15,69.82h-0.01c-3.63,55.02-3.02,119.29,8.47,189.19
			c-33.94,55.49-89.43,52.02-134.94,123.37c-0.78,1.22-1.55,2.45-2.29,3.68c1.56-29.68,7.27-72.08,21.58-138.67
			C2778.35,1093.9,2843.97,880.01,2869.33,885.03z"/>
		<path style="fill:#026636;" d="M2847.42,1848.74L2847.42,1848.74c-27.05,27.88-51.3,42.26-61.6,37.64
			c-8.03-3.6-4.84-17.48,0.81-40.88c3.18-13.18,7.14-29.39,10.3-48.47C2814.31,1818.91,2831.84,1836.82,2847.42,1848.74z"/>
	</g>
</g>
<path style="fill:#198F34;" d="M2847.17,1802.07c-32.48-93.42-71.1-194.35-45.2-292.52c20.03-75.91,162.56-176.27,151.51-251.98
	c9.21,85.34-104.38,158.78-133.13,236.48C2783.32,1594.12,2823.67,1701.41,2847.17,1802.07z"/>
<g>
	<g id="XMLID_2_">
		<g>
			<path style="fill:#DFB28B;" d="M1907.47,1903.69c12.89,6.17,30.3,23.08,18.72,34.3c-6.42,6.21-32.43,0.19-42.97,0.34
				c-21.56,0.3-52.66-4.05-72.49,2.3c-14.26,4.56-22.48,15.56-38.78,18.64c-15.52,2.94-31.71,1.62-47.35,3
				c-26.82,2.37-50.93,14.26-77.2,20.17c-33.13,7.45-67.8,11.12-101.74,13.42c1.82-15.02,9.1-82.96,10.82-98.99
				c10.1-0.09,24.68,5.78,39.1-4.73c27.32-34.37,62.3-29.42,99.76-17.37c15.97,5.15,32.9,11.89,50.1,9.65
				c22-2.86,37.01-22.24,58.64-27.14c23.27-5.29,41.26,0.78,56.7,17.72c7.32,8.02,10.88,17.04,20.86,22.35
				C1889.21,1901.41,1899.36,1899.8,1907.47,1903.69z"/>
			<polygon style="fill:#F0F5FA;" points="1836.04,1191.67 1845.39,1209.47 1460.64,1274.04 1437.92,1257.13 			"/>
			<polygon style="fill:#758D99;" points="1845.39,1209.47 1735.84,1563.73 1665.44,1582.99 1665.43,1582.99 1335.32,1673.36 
				1460.64,1274.04 			"/>
			<path style="fill:#273343;" d="M1698.1,1626.18c1,33.07,4.01,68.14,0,80.16c-4.01,12.02-8.02,30.06-40.08,49.1
				c-25.5,15.14-126.22,71.07-165.67,92.67c-27.58-21.23-57.45-44.19-64.78-49.23c-14.02-9.66-63.11-71.5-79.14-94.54
				c-16.04-23.04-39.09-28.05-39.09-28.05l-18.41-6.22l14.02,2.15l1.57,0.24h0.01h0.01l5.81,0.9h22.97l330.11-90.36h0.01
				C1678.57,1590.37,1697.46,1604.68,1698.1,1626.18z"/>
			<path style="fill:#273343;" d="M1556.46,1896.87c-1.71,16.03-8.99,83.97-10.82,98.99c-0.22,1.8-0.36,2.83-0.4,2.94
				c-0.45,1.12-138.72-15.58-192.16-52.32c-11.12-7.64-23.27-13.48-35.29-20.66c-5.68-3.39-11.31-7.09-16.81-11.41
				c-38.79-30.59-54.35-54.8-59.44-58.97c-2.87-2.35-97.46,40.64-170.28,68.47c-0.5,2.38-0.95,4.86-1.34,7.39l-0.19-0.02
				c-8.68,2.27-25.39,6.32-32.77,5.81c-10.18-0.72-32.56,5.38-61.28,13.39c-28.73,8.02-46.77,16.03-55.44,13.37
				c-8.69-2.67-62.78,3-62.78,3s-18.7,5.68-26.73,15.7c-2.1,2.63-4.12,6.14-6,10.68c-2.56,1.02-10.62,2.13-13.87,0.89
				c-20.79-7.92-47.59-41.47-59.28-66.35c-12.2-25.97-53.66-94.92-27.49-178.13c10.78-34.27,27.69-67.86,45.16-96.32
				c5.8,1.07,11.35,1.25,16.29,0.24c11.41-2.35,85.01-21.51,155.87-40l-1.79,2.48l351.31,54.01l18.41,6.22
				c0,0,23.04,5.01,39.09,28.05c16.03,23.04,65.12,84.88,79.14,94.54c7.33,5.04,37.2,28,64.78,49.23
				c25.24,19.43,48.56,37.43,50.9,38.92c4.9,3.11,13.59,6.45,13.59,6.45S1556.7,1894.69,1556.46,1896.87z"/>
			<polygon style="fill:#F0F5FA;" points="1460.64,1274.04 1335.32,1673.36 1312.35,1673.36 1313.17,1670.63 1313.18,1670.63 
				1318.34,1653.47 1318.36,1653.47 1325.49,1629.81 1331.54,1609.74 1332.5,1606.56 1350.81,1545.89 1383.55,1437.36 
				1437.92,1257.13 			"/>
			<path style="fill:#DFB28B;" d="M1383.55,1437.36l-32.74,108.53c-7.3-1.73-13.47-3.32-15.48-4.21
				c-4.17-1.84-15.37-4.52-28.34-7.18c0.18-8.85,0.16-17.93-0.64-19.87c-0.5-1.23-2.36-6.11-4.68-12.57
				c-5.29-14.67-13.03-37.41-13.03-43.22c0-8.35-8.35-140.6-5.68-155.96l81.5-60.45c0,0-1.05,159.65,5.15,168.32
				C1372.04,1414.17,1377.64,1425.22,1383.55,1437.36z"/>
			<path style="fill:#D54A30;" d="M860.12,1379.36c0,0-2.94,4.23-9.89,8.45c-2.44,1.48-5.38,2.97-8.86,4.25
				c-5.48,2.03-12.3,3.61-20.65,4c-25.97,1.2-102.67-2.5-124.58-6.17c-2.33-0.4-4.05-0.79-5.01-1.18
				c-9.36-3.77-1.58-40.84-0.68-47.76c6.3-48.33,7.49-96.69,10.09-145.29c1.85-34.55,0-74.86,10.63-108.2
				c14.78-46.32,15.46-97.45,38.74-140.98c20.81-38.88,63.48-55.36,105.41-58.64c33.4-2.61,70.7,8.43,102.33-6.11
				c0,0,0.53,1.19,1.54,3.33c7.92,16.76,45.45,92.01,89.3,111.57c24.74,11.04,55.99,20.3,82.72,11
				c20.62-7.18,23.59-21.58,28.93-40.67c5.85-20.89,10.65-42.14,14.97-63.39c2.18-10.67,9.21-29.13,6.38-40.24
				c-0.02-0.1-0.05-0.19-0.07-0.29c-0.7-2.6,11.68-4.62,28.51-5.46c25.62,24.34,37.38,52.99-15.59,67.35
				c38.51,23.31,71.47,36.23,95.26-7.72c5.35-9.88,10.31-19.9,14.89-30.04c10.74,23.37,16.61,52.21,23.61,74.43
				c28.58,90.7,33.97,182.79,42.35,276.83l-6,4.01l-81.5,60.45c-2.67,15.36,5.68,147.61,5.68,155.96c0,5.81,7.74,28.55,13.03,43.22
				l-65.51,17.84c-12.83-6.03-18.53-22.91-34.69-24.09c-18.25-1.34-133.59,1.34-169.22,0.89c-35.62-0.45-136.26,4.01-158.98,4.01
				c-14.6,0-22.02,1.47-26.29,1.81c-2.37,0.19-3.77,0.04-4.89-0.92C846.7,1465.03,861.68,1384.03,860.12,1379.36z"/>
			<path style="fill:#DFB28B;" d="M1350.81,1545.89l-18.3,60.67c-14.96-6.65-31.31-13.85-32.85-14.33c-2.89-0.9-0.67,3.33,3.79,4.67
				c2.19,0.66,15.3,6.78,28.1,12.85l-6.05,20.07c-3.82-2.22-6.71-3.93-7.46-4.41c-2.78-1.77-35.96-18.25-39.89-18.7
				c-3.93-0.44-10.77-5.79-35.26,0.45c-24.5,6.23-33.85-1.34-43.64-5.79c-9.8-4.46-28.06-19.6-32.96-24.05
				c-4.9-4.45-20.48-11.58-25.83-12.02c-5.35-0.45-46.32,9.8-60.12,12.47c-5.21,1.01-45.3,11.4-94.4,24.2
				c-14.29,3.73-29.35,7.66-44.53,11.62c-70.85,18.49-144.46,37.65-155.87,40c-4.93,1.01-10.49,0.83-16.29-0.24
				c-20.38-3.72-43.72-18.23-53.1-29.14c-12.06-14.04-20.02-37.08-20.02-46.1c0-7.38,0-140.1,0-188.19
				c21.91,3.67,98.61,7.38,124.58,6.17c8.35-0.39,15.17-1.97,20.65-4c3.48-1.29,6.42-2.77,8.86-4.25
				c0.8,36.11-10.6,111.68-8.14,113.79c1.12,0.96,2.52,1.12,4.89,0.92c4.27-0.34,11.69-1.81,26.29-1.81
				c22.71,0,123.36-4.46,158.98-4.01c35.63,0.45,150.97-2.22,169.22-0.89c16.15,1.18,21.85,18.06,34.69,24.09
				c1.67,0.78,3.45,1.39,5.4,1.74c16.92,3.11,27.6,5.79,47.2,9.35c6.11,1.12,12.35,2.31,18.23,3.51
				c12.97,2.66,24.17,5.35,28.34,7.18C1337.34,1542.57,1343.5,1544.16,1350.81,1545.89z"/>
			<path style="fill:#704A33;" d="M1240.31,378.45c133.6,60.3,119.37,246.34,104.6,363.18c-6.38,50.49-19.53,99.35-40.42,145.54
				c-4.58,10.15-9.54,20.16-14.89,30.04c-23.78,43.95-56.74,31.03-95.26,7.72c52.98-14.37,41.21-43.01,15.59-67.35
				c-15.35-14.61-35.68-27.67-50.01-35.2c44.64-30.63,78.02-97.09,96.3-144.15c12.54-32.3,28.91-85.02,23.5-120.2
				c-3.6-23.36-32.06-31.87-53.47-42.32c-30.23-14.74-25.59-8.35-53.29,14.67c-29.05,24.12-65.42,35.88-100.45,48.55
				c-27.72,10.03-54.65,28.29-57.61,59.41c-3,31.68,7.49,68.54,13.27,99.46c3.96,21.17,6.56,31.73,17.48,49.14
				c11.19,17.87,10.57,25.63,3.84,26.99c-7,1.43-20.6-4.07-34.39-12.36c-44.43-27.7-60.72-45.77-62.92-97.88
				c-1.48-35.03,4.76-68.28,5.58-103c0.95-39.91-3.11-71.15,11.51-108.92c17-43.91,35.83-100.1,83.19-119.56
				C1101.33,352.11,1192.71,356.96,1240.31,378.45z"/>
			<path style="fill:#A6B8C6;" d="M1332.5,1606.56l-0.96,3.18c-12.8-6.06-25.91-12.19-28.1-12.85c-4.46-1.34-6.68-5.57-3.79-4.67
				C1301.2,1592.71,1317.54,1599.91,1332.5,1606.56z"/>
			<path style="fill:#A6B8C6;" d="M1325.49,1629.81l-7.13,23.66h-0.01l-0.32,0.1l-39.89-6.2h-0.01l-292.19-45.42
				c49.1-12.8,89.18-23.19,94.4-24.2c13.81-2.67,54.78-12.92,60.12-12.47c5.35,0.44,20.93,7.57,25.83,12.02
				c4.9,4.45,23.16,19.59,32.96,24.05c9.8,4.45,19.14,12.02,43.64,5.79c24.49-6.23,31.33-0.89,35.26-0.45
				c3.93,0.45,37.1,16.93,39.89,18.7C1318.78,1625.88,1321.67,1627.59,1325.49,1629.81z"/>
			<path style="fill:#748C98;" d="M1318.03,1653.57l-4.9,17.08l-0.78,2.71l-5.81-0.9h-0.01h-0.01l-1.57-0.24l-14.02-2.15
				l-351.31-54.01l1.79-2.48c15.18-3.96,30.24-7.89,44.53-11.62l292.19,45.42h0.01L1318.03,1653.57z"/>
			<path style="fill:#A6B8C6;" d="M1306.34,1514.63c0.8,1.94,0.83,11.02,0.64,19.87c-5.88-1.2-12.12-2.39-18.23-3.51
				c-19.6-3.56-30.29-6.23-47.2-9.35c-1.94-0.35-3.73-0.96-5.4-1.74l65.51-17.84C1303.98,1508.52,1305.84,1513.4,1306.34,1514.63z"
				/>
			<path style="fill:#273343;" d="M1300.99,1914.41c5.49,4.33,11.13,8.02,16.81,11.41c-39.4,17.09-110.26,49.88-151.09,63.29
				c-16.58,5.44-43.44,19.58-61.08,16.55c-36.42-6.25-40.29-44.49-35.69-74.37c0.39-2.53,0.84-5.01,1.34-7.39
				c72.82-27.83,167.41-70.82,170.28-68.47C1246.64,1859.61,1262.2,1883.82,1300.99,1914.41z"/>
			<path style="fill:#DFB28B;" d="M1279.73,558.03c5.41,35.17-10.96,87.89-23.5,120.2c-18.28,47.06-51.66,113.52-96.3,144.15
				c-9.55,6.55-19.62,11.46-30.15,14.2c-24.37,6.31-51.28,0.98-80.27-22.64c6.73-1.36,7.35-9.13-3.84-26.99
				c-10.91-17.4-13.51-27.96-17.48-49.14c-5.78-30.92-16.27-67.78-13.27-99.46c2.95-31.11,29.89-49.38,57.61-59.41
				c35.03-12.68,71.4-24.43,100.45-48.55c27.7-23.02,23.07-29.41,53.29-14.67C1247.67,526.16,1276.14,534.67,1279.73,558.03z"/>
			<path style="fill:#DFB28B;" d="M1181.5,863.32c2.83,11.11-4.21,29.57-6.38,40.24c-4.33,21.26-9.13,42.5-14.97,63.39
				c-5.34,19.08-8.3,33.48-28.93,40.67c-26.73,9.3-57.97,0.04-82.72-11c-43.85-19.55-81.38-94.81-89.3-111.57
				c23.37-22.22,50.38-51.45,55.91-83.48c13.79,8.29,27.39,13.79,34.39,12.36c29,23.63,55.91,28.95,80.27,22.64
				c0,4.67,0,12.55,0,15.76c0,4.68,5.57,5.13,14.69,6.68C1151.67,860.25,1172.88,862.45,1181.5,863.32z"/>
			<path style="fill:#DFB28B;" d="M1105.62,2005.66c-8.29,4.68-29.28,13.13-35.76,15.62c-8.68,3.34-45.42,18.7-96.85,42.76
				c-51.43,24.05-89.51,41.42-103.53,44.75c-14.03,3.34-32.06,11.36-43.42,0c-11.35-11.35-18.04-4-14.03-48.76
				c1.28-14.23,2.82-26.24,4.59-36.3c2.35-13.3,5.08-23.23,8.11-30.49c1.88-4.55,3.9-8.06,6-10.68c8.02-10.03,26.73-15.7,26.73-15.7
				s54.09-5.68,62.78-3c8.68,2.66,26.71-5.35,55.44-13.37c28.72-8.01,51.09-14.11,61.28-13.39c7.38,0.51,24.09-3.54,32.77-5.81
				l0.19,0.02C1065.33,1961.17,1069.2,1999.42,1105.62,2005.66z"/>
		</g>
		<g>
			<path style="fill:none;stroke:#231F20;stroke-miterlimit:10;" d="M1556.03,1896.88c0.15,0,0.29,0,0.44-0.01
				c10.1-0.09,24.68,5.78,39.1-4.73c27.32-34.37,62.3-29.42,99.76-17.37c15.97,5.15,32.9,11.89,50.1,9.65
				c22-2.86,37.01-22.24,58.64-27.14c23.27-5.29,41.26,0.78,56.7,17.72c7.32,8.02,10.88,17.04,20.86,22.35
				c7.61,4.06,17.76,2.44,25.86,6.33c12.89,6.17,30.3,23.08,18.72,34.3c-6.42,6.21-32.43,0.19-42.97,0.34
				c-21.56,0.3-52.66-4.05-72.49,2.3c-14.26,4.56-22.48,15.56-38.78,18.64c-15.52,2.94-31.71,1.62-47.35,3
				c-26.82,2.37-50.93,14.26-77.2,20.17c-33.13,7.45-67.8,11.12-101.74,13.42h-0.01"/>
			<path style="fill:none;stroke:#231F20;stroke-miterlimit:10;" d="M769.25,1653.33c-17.48,28.45-34.38,62.04-45.16,96.32
				c-26.17,83.21,15.29,152.16,27.49,178.13c11.69,24.88,38.49,58.42,59.28,66.35c3.24,1.24,11.3,0.13,13.87-0.89"/>
			<path style="fill:none;stroke:#231F20;stroke-miterlimit:10;" d="M1290.93,1670.06l18.41,6.22c0,0,23.04,5.01,39.09,28.05
				c16.03,23.04,65.12,84.88,79.14,94.54c7.33,5.04,37.2,28,64.78,49.23c25.24,19.43,48.56,37.43,50.9,38.92
				c4.9,3.11,13.59,6.45,13.59,6.45s-0.13,1.22-0.36,3.39c-1.71,16.03-8.99,83.97-10.82,98.99c-0.22,1.8-0.36,2.83-0.4,2.94
				c-0.45,1.12-138.72-15.58-192.16-52.32c-11.12-7.64-23.27-13.48-35.29-20.66c-5.68-3.39-11.31-7.09-16.81-11.41
				c-38.79-30.59-54.35-54.8-59.44-58.97c-2.87-2.35-97.46,40.64-170.28,68.47"/>
			<path style="fill:none;stroke:#231F20;stroke-miterlimit:10;" d="M1105.62,2005.66c-8.29,4.68-29.28,13.13-35.76,15.62
				c-8.68,3.34-45.42,18.7-96.85,42.76c-51.43,24.05-89.51,41.42-103.53,44.75c-14.03,3.34-32.06,11.36-43.42,0
				c-11.35-11.35-18.04-4-14.03-48.76c1.28-14.23,2.82-26.24,4.59-36.3c2.35-13.3,5.08-23.23,8.11-30.49c1.88-4.55,3.9-8.06,6-10.68
				c8.02-10.03,26.73-15.7,26.73-15.7s54.09-5.68,62.78-3c8.68,2.66,26.71-5.35,55.44-13.37c28.72-8.01,51.09-14.11,61.28-13.39
				c7.38,0.51,24.09-3.54,32.77-5.81v-0.01"/>
			<path style="fill:none;stroke:#231F20;stroke-miterlimit:10;" d="M1317.8,1925.82c-39.4,17.09-110.26,49.88-151.09,63.29
				c-16.58,5.44-43.44,19.58-61.08,16.55c-36.42-6.25-40.29-44.49-35.69-74.37c0.39-2.53,0.84-5.01,1.34-7.39"/>
			<polyline style="fill:none;stroke:#231F20;stroke-miterlimit:10;" points="1665.44,1582.99 1735.84,1563.73 1845.39,1209.47 			
				"/>
			<line style="fill:none;stroke:#231F20;stroke-miterlimit:10;" x1="1335.32" y1="1673.36" x2="1665.43" y2="1582.99"/>
			<polyline style="fill:none;stroke:#231F20;stroke-miterlimit:10;" points="1318.36,1653.47 1325.49,1629.81 1331.54,1609.74 
				1332.5,1606.56 1350.81,1545.89 1383.55,1437.36 1437.92,1257.13 			"/>
			<line style="fill:none;stroke:#231F20;stroke-miterlimit:10;" x1="1313.18" y1="1670.63" x2="1318.34" y2="1653.47"/>
			<polyline style="fill:none;stroke:#231F20;stroke-miterlimit:10;" points="1460.64,1274.04 1335.32,1673.36 1312.35,1673.36 
				1313.17,1670.63 			"/>
			<polygon style="fill:none;stroke:#231F20;stroke-miterlimit:10;" points="1845.39,1209.47 1836.04,1191.67 1437.92,1257.13 
				1460.64,1274.04 			"/>
			<polyline style="fill:none;stroke:#231F20;stroke-miterlimit:10;" points="1306.52,1672.46 1304.95,1672.21 1290.93,1670.06 
				939.62,1616.05 941.41,1613.57 			"/>
			<polyline style="fill:none;stroke:#231F20;stroke-miterlimit:10;" points="1318.03,1653.57 1313.13,1670.64 1312.35,1673.36 
				1306.54,1672.46 			"/>
			<polyline style="fill:none;stroke:#231F20;stroke-miterlimit:10;" points="1318.36,1653.47 1318.34,1653.47 1318.03,1653.57 
				1278.14,1647.37 1278.13,1647.37 985.94,1601.95 			"/>
			<line style="fill:none;stroke:#231F20;stroke-miterlimit:10;" x1="1301.66" y1="1502.07" x2="1236.15" y2="1519.91"/>
			<polyline style="fill:none;stroke:#231F20;stroke-miterlimit:10;" points="1306.52,1672.46 1306.53,1672.46 1306.54,1672.46 			
				"/>
			<polyline style="fill:none;stroke:#231F20;stroke-miterlimit:10;" points="1313.13,1670.64 1313.17,1670.63 1313.18,1670.63 			
				"/>
			<path style="fill:none;stroke:#231F20;stroke-miterlimit:10;" d="M1665.43,1582.99h0.01c13.13,7.38,32.01,21.68,32.66,43.18
				c1,33.07,4.01,68.14,0,80.16c-4.01,12.02-8.02,30.06-40.08,49.1c-25.5,15.14-126.22,71.07-165.67,92.67"/>
			<path style="fill:none;stroke:#231F20;stroke-miterlimit:10;" d="M1332.5,1606.56c-14.96-6.65-31.31-13.85-32.85-14.33
				c-2.89-0.9-0.67,3.33,3.79,4.67c2.19,0.66,15.3,6.78,28.1,12.85"/>
			<path style="fill:none;stroke:#231F20;stroke-miterlimit:10;" d="M696.14,1389.89c0,48.09,0,180.82,0,188.19
				c0,9.02,7.96,32.06,20.02,46.1c9.38,10.91,32.72,25.42,53.1,29.14c5.8,1.07,11.35,1.25,16.29,0.24
				c11.41-2.35,85.01-21.51,155.87-40c15.18-3.96,30.24-7.89,44.53-11.62c49.1-12.8,89.18-23.19,94.4-24.2
				c13.81-2.67,54.78-12.92,60.12-12.47c5.35,0.44,20.93,7.57,25.83,12.02c4.9,4.45,23.16,19.59,32.96,24.05
				c9.8,4.45,19.14,12.02,43.64,5.79c24.49-6.23,31.33-0.89,35.26-0.45c3.93,0.45,37.1,16.93,39.89,18.7
				c0.75,0.49,3.65,2.19,7.46,4.41"/>
			<path style="fill:none;stroke:#231F20;stroke-miterlimit:10;" d="M1350.81,1545.89c-7.3-1.73-13.47-3.32-15.48-4.21
				c-4.17-1.84-15.37-4.52-28.34-7.18c-5.88-1.2-12.12-2.39-18.23-3.51c-19.6-3.56-30.29-6.23-47.2-9.35
				c-1.94-0.35-3.73-0.96-5.4-1.74c-12.83-6.03-18.53-22.91-34.69-24.09c-18.25-1.34-133.59,1.34-169.22,0.89
				c-35.62-0.45-136.26,4.01-158.98,4.01c-14.6,0-22.02,1.47-26.29,1.81c-2.37,0.19-3.77,0.04-4.89-0.92
				c-2.45-2.11,8.94-77.68,8.14-113.79"/>
			<path style="fill:none;stroke:#231F20;stroke-miterlimit:10;" d="M1306.98,1534.5c0.18-8.85,0.16-17.93-0.64-19.87
				c-0.5-1.23-2.36-6.11-4.68-12.57c-5.29-14.67-13.03-37.41-13.03-43.22c0-8.35-8.35-140.6-5.68-155.96l81.5-60.45
				c0,0-1.05,159.65,5.15,168.32c2.43,3.42,8.03,14.46,13.94,26.6"/>
			<path style="fill:none;stroke:#231F20;stroke-miterlimit:10;" d="M1304.49,887.17c10.74,23.37,16.61,52.21,23.61,74.43
				c28.58,90.7,33.97,182.79,42.35,276.83l-6,4.01"/>
			<path style="fill:none;stroke:#231F20;stroke-miterlimit:10;" d="M1209.94,857.57c-16.83,0.84-29.22,2.86-28.51,5.46
				c0.02,0.1,0.05,0.19,0.07,0.29c2.83,11.11-4.21,29.57-6.38,40.24c-4.33,21.26-9.13,42.5-14.97,63.39
				c-5.34,19.08-8.3,33.48-28.93,40.67c-26.73,9.3-57.97,0.04-82.72-11c-43.85-19.55-81.38-94.81-89.3-111.57
				c-1.01-2.14-1.54-3.33-1.54-3.33c-31.64,14.55-68.93,3.5-102.33,6.11c-41.93,3.28-84.6,19.76-105.41,58.64
				c-23.29,43.53-23.97,94.66-38.74,140.98c-10.63,33.34-8.79,73.65-10.63,108.2c-2.6,48.6-3.79,96.96-10.09,145.29
				c-0.9,6.93-8.68,44,0.68,47.76c0.96,0.39,2.67,0.78,5.01,1.18c21.91,3.67,98.61,7.38,124.58,6.17c8.35-0.39,15.17-1.97,20.65-4
				c3.48-1.29,6.42-2.77,8.86-4.25c6.95-4.22,9.89-8.45,9.89-8.45c1.56,4.67-13.43,85.67-18.04,122.24"/>
			<path style="fill:none;stroke:#231F20;stroke-miterlimit:10;" d="M1049.5,813.93c29,23.63,55.91,28.95,80.27,22.64
				c10.54-2.73,20.6-7.64,30.15-14.2c44.64-30.63,78.02-97.09,96.3-144.15c12.54-32.3,28.91-85.02,23.5-120.2
				c-3.6-23.36-32.06-31.87-53.47-42.32c-30.23-14.74-25.59-8.35-53.29,14.67c-29.05,24.12-65.42,35.88-100.45,48.55
				c-27.72,10.03-54.65,28.29-57.61,59.41c-3,31.68,7.49,68.54,13.27,99.46c3.96,21.17,6.56,31.73,17.48,49.14
				C1056.85,804.8,1056.23,812.57,1049.5,813.93c-7,1.43-20.6-4.07-34.39-12.36c-5.53,32.04-32.53,61.27-55.91,83.48"/>
			<path style="fill:none;stroke:#231F20;stroke-miterlimit:10;" d="M1129.77,836.57c0,4.67,0,12.55,0,15.76
				c0,4.68,5.57,5.13,14.69,6.68c7.21,1.23,28.41,3.43,37.03,4.3"/>
			<path style="fill:none;stroke:#231F20;stroke-miterlimit:10;" d="M1159.92,822.38c14.33,7.52,34.66,20.59,50.01,35.2
				c25.62,24.34,37.38,52.99-15.59,67.35c38.51,23.31,71.47,36.23,95.26-7.72c5.35-9.88,10.31-19.9,14.89-30.04
				c20.89-46.18,34.04-95.05,40.42-145.54c14.77-116.84,29-302.87-104.6-363.18c-47.59-21.49-138.97-26.34-187.84-6.25
				c-47.36,19.47-66.19,75.65-83.19,119.56c-14.62,37.77-10.56,69.01-11.51,108.92c-0.81,34.72-7.06,67.97-5.58,103
				c2.2,52.11,18.49,70.19,62.92,97.88"/>
			<path style="fill:none;stroke:#231F20;stroke-miterlimit:10;" d="M1282.95,1302.88c0,0,2.35-127.59-24.71-167.67"/>
			<path style="fill:none;stroke:#231F20;stroke-miterlimit:10;" d="M860.12,1379.36c0,0,4.68-110.89,10.69-130.92
				c6-20.04,0-33.41,0-33.41"/>
		</g>
	</g>
</g>
<ellipse style="fill:#B0B0B5;" cx="1737.81" cy="2928.7" rx="742.84" ry="94.3"/>
<g>
	<g id="XMLID_4_">
		<g>
			<path style="fill:#020202;" d="M1340.17,2703.63c9.49,35.1-64.9,26.93-50.86,4.7
				C1300.42,2724.46,1336.22,2733.24,1340.17,2703.63z"/>
			<path style="fill:#A07352;" d="M1766.55,2744.99c20.06-107.14,157.94-153.15,246.36-89.4c-76.21-22.03-209.07-31.26-215.45,78.71
				c-4.5,77.52,39.37,135.77,85.12,193.2c-18.64-3.17-39.57-6.37-60.74-7.68c-5.77-1.66-10.76-3.65-14.2-6.33h-0.01
				c-0.03-0.01-0.04-0.04-0.06-0.05C1771.15,2884.69,1758.99,2785.3,1766.55,2744.99z"/>
			<path style="fill:#BE8862;" d="M1687.61,2886.87c20.68-31.27,56.59-87.25,38.86-126.3
				C1735.59,2780.8,1686.93,2859.73,1687.61,2886.87z M1403.22,2933.2c-16.54,2.58-64.97,18.05-79.02-0.56
				c-14.39-19.08-12.32-32.08-0.12-40.71h0.01c42.86-30.32,210.51-6.72,227.62-2.64c1.77-69.32-1.91-122.68,58.37-170.35
				c-21.66-0.93-38.28,9.48-50.31,25.59c4.32-18.55,5.55-37.35,4.7-56.6c-0.58-13.04-2.35-26.09-6.22-38.58
				c-5.64-18.25-17.82-35.85-30.44-50.13c-1.83-2.07-3.68-4.16-5.32-6c0.03,0.01,0.04,0.03,0.04,0.03
				c119.15-8.16,232.14-35.53,348.58-51.4c51.9-7.08,107.89-2.61,158.25,11.66c36.02,10.21,80.02,24.26,107.3,51.59
				c31.58,31.65,29.71,85.85,54.06,118.17c82.42,109.43,121.18-252.52,148.01-260.39c59.35-17.41,62.55,127.67,63.67,153.9
				c3.75,87.99-23.8,126.12-97.87,170.55c2.93-1.75,20.88-1.47,26.73-2.81c-15.51,39.98-71.06,26.47-105.34,33.19
				c-42.68,8.37-34.06,10.56-57.31,43.02c-52.47,73.22-116.14,89.53-203.5,67.72c5.34,53.78,11.63,73.63-45.65,62.23
				c-44.96-8.94-87.98-16.97-133.91-15.26c-20.32,0.76-49.22,17.99-66.1-8.7c-16.65-26.31,2.44-30.96,26.93-39.37
				c22.83-7.84,49.31-9.12,75.48-7.51c21.16,1.3,42.09,4.5,60.74,7.68c-45.75-57.44-89.63-115.68-85.12-193.2
				c6.38-109.97,139.25-100.75,215.45-78.71c-88.42-63.76-226.3-17.75-246.36,89.4c-7.56,40.32,4.59,139.71,41.02,168.46
				c0.03,0.01,0.04,0.04,0.06,0.05c-38.33,0-83.58-16.22-121.01-25.14c-39.33,74.88-113.54,67.49-185.23,49.86
				C1463.67,2928.94,1440.92,2927.33,1403.22,2933.2z"/>
			<path style="fill:#BE8862;" d="M1223.32,2682.19c0.54,14.06-7.51,26.83-19.46,21.23c1.2-1.37,2.42-2.74,3.63-4.11
				C1212.63,2693.58,1219.08,2688.11,1223.32,2682.19z"/>
			<path style="fill:#A07352;" d="M1551.71,2889.29c-17.11-4.08-184.76-27.69-227.62,2.64h-0.01c-7.41-0.52-16.47-1.42-22.37-2.87
				c-6.96-1.7-10.39-7.8-12-12.33c6.61-3.29,13.05-6.67,19.28-10.04c33.01-17.9,44.27-27.18,78.92-26.97h0.01
				c7.36,12.01,18.05,17.43,33.42,6.36c13.2,1.43,26.54,2.34,39.82,1.46c11.98-0.81,22.93-6.54,33.15-12.4
				c0.54-0.31,1.09-0.63,1.62-0.95c0.01,0.01,0.01,0,0.01,0c12.88,9.12,31.16,22.95,43.63,32.6c-5.59-18.33-6.27-44.55-1.34-69.82
				c0.01,0,0.01-0.01,0.01-0.01c3.77-19.33,10.84-38.12,21.52-52.41v-0.01c12.03-16.11,28.65-26.52,50.31-25.59
				C1549.81,2766.61,1553.48,2819.96,1551.71,2889.29z"/>
			<path style="fill:#B03525;" d="M1538.25,2796.95c0,0,0,0.01-0.01,0.01c-2.35,3.65-4.9,7.11-7.65,10.34
				c-9.6,11.26-21.94,19.51-34.64,26.88c0,0,0,0.01-0.01,0c-0.54,0.32-1.09,0.64-1.62,0.95c-10.22,5.86-21.18,11.59-33.15,12.4
				c-13.28,0.88-26.61-0.03-39.82-1.46c0.08-0.05,0.15-0.12,0.23-0.17c0.01-0.01,0.04-0.03,0.05-0.04
				c30.37-15.47,65-30.25,78.46-63.99c6.1-15.29,9.47-32.05,12.68-48.16c0.65-3.31,1.27-6.63,1.79-9.94v-0.01
				c2.05-12.87,2.93-25.85,1.18-38.9c-2.3-17.11-6.04-34.41-14.33-49.68c-8.34-15.35-19.33-29.22-31.26-41.94
				c-10.56-11.26-24.96-15.83-24.96-15.83l1.79,0.05c0.01,0.01,0.01,0.01,0.03,0.01c0.01,0,0.01,0,0.03,0l9.4,0.29
				c0,0,32.35,0.7,40.43,2.8c7.83,2.05,24.58,12.01,25.62,12.64h0.01c1.64,1.84,3.49,3.93,5.32,6
				c12.62,14.28,24.8,31.88,30.44,50.13c3.86,12.49,5.64,25.54,6.22,38.58c0.86,19.26-0.37,38.05-4.7,56.6v0.01
				C1549.09,2758.83,1542.03,2777.61,1538.25,2796.95z"/>
			<path style="fill:#BE8862;" d="M1539.59,2866.78c-12.47-9.65-30.75-23.48-43.63-32.6c12.69-7.37,25.04-15.62,34.64-26.88
				c2.75-3.22,5.3-6.69,7.65-10.34C1533.32,2822.23,1533.99,2848.45,1539.59,2866.78z"/>
			<path style="fill:#020202;" d="M1224.91,2679.79c13.63,14.65-6.69,36.95-23.22,26.11c-4.2-2.74-8.15-7.64-11.23-15.34
				c4.8,6.88,9.33,10.94,13.41,12.86c11.95,5.6,20-7.17,19.46-21.23c-0.05-1.42-0.19-2.87-0.42-4.3
				C1223.64,2678.51,1224.31,2679.13,1224.91,2679.79z"/>
			<path style="fill:#BE8862;" d="M1372.74,2771.32c0.12,12.28,3.3,48.97,15.19,68.39h-0.01c-34.65-0.2-45.91,9.07-78.92,26.97
				c-6.23,3.38-12.67,6.76-19.28,10.04c-36.52,18.19-78.16,33.68-118.22,31.68c-28.34-1.42-59.06-12.79-69.42-34.89v-0.01
				c6.46,2.55,14.97,2.8,25.78-1.09c23.88-8.59,40.87-31.13,36.57-43.07c-4.29-11.94-28.16-18.44-52.04-9.85
				c-0.51,0.18-1.01,0.37-1.51,0.58c9.44-16.2,22.22-31.08,33.7-45.09c18.9-23.06,37.46-46.61,57.12-69.08
				c16.53,10.84,36.85-11.46,23.22-26.11c0.77-1.27,1.41-2.57,1.91-3.9c5.36-14.51,1.19-27.65,9.71-42.7
				c42.85-75.71,136.98-78.68,210.45-55.72l-1.79-0.05c0,0,14.41,4.57,24.96,15.83c11.92,12.72,22.92,26.59,31.26,41.94
				c8.29,15.28,12.03,32.58,14.33,49.68c1.75,13.05,0.87,26.02-1.18,38.9c-9.01-49.75-50.51-157.84-105.86-103.22
				C1373.34,2655.44,1372.29,2725.56,1372.74,2771.32z M1289.31,2708.33c-14.04,22.24,60.35,30.4,50.86-4.7
				C1336.22,2733.24,1300.42,2724.46,1289.31,2708.33z"/>
			<path style="fill:#946549;" d="M1514.56,2723.76v0.01c-0.52,3.31-1.14,6.63-1.79,9.94c-3.21,16.11-6.58,32.87-12.68,48.16
				c-13.46,33.74-48.08,48.52-78.46,63.99c-0.01,0.01-0.04,0.03-0.05,0.04c-0.1,0.05-0.2,0.1-0.31,0.15c0.03,0,0.05,0,0.08,0.01
				c-15.37,11.07-26.06,5.66-33.42-6.36c-11.89-19.42-15.07-56.1-15.19-68.39c-0.45-45.75,0.6-115.88,35.95-150.77
				C1464.04,2565.92,1505.55,2674.01,1514.56,2723.76z"/>
			<path style="fill:#A07352;" d="M1726.47,2760.57c17.73,39.05-18.18,95.03-38.86,126.3
				C1686.93,2859.73,1735.59,2780.8,1726.47,2760.57z"/>
			<path style="fill:#020202;" d="M1110.87,2820.07c0.5-0.2,1-0.4,1.51-0.58c23.88-8.59,47.75-2.09,52.04,9.85
				c4.3,11.94-12.69,34.48-36.57,43.07c-10.81,3.89-19.32,3.63-25.78,1.09c-7.82-3.07-12.65-9.49-15.01-16.03
				C1082.86,2845.78,1088.26,2828.83,1110.87,2820.07z"/>
		</g>
	</g>
</g>
</svg>
