<?xml version="1.0" encoding="utf-8"?>
<!-- Generator: Adobe Illustrator 26.3.1, SVG Export Plug-In . SVG Version: 6.00 Build 0)  -->
<svg version="1.1" xmlns="http://www.w3.org/2000/svg" xmlns:xlink="http://www.w3.org/1999/xlink" x="0px" y="0px"
	 viewBox="0 0 3200 3200" style="enable-background:new 0 0 3200 3200;" xml:space="preserve">
<g id="Layer_1">
	<g>
		
			<line style="fill:none;stroke:#8C3030;stroke-width:9.7834;stroke-linecap:round;stroke-linejoin:round;stroke-miterlimit:10;" x1="113" y1="2487.92" x2="3113" y2="2487.92"/>
		<path style="fill:#244E73;" d="M1647.23,1204.64c0.66-16.51,42.26-94.71-174.31-68.64c-121.86-26.07-203.66-15.13-203.66,61.93
			S1388.85,1389,1465.91,1389S1644.13,1281.64,1647.23,1204.64z"/>
		<path style="opacity:0.5;fill:#231F20;" d="M1647.23,1204.64c0.66-16.51,42.26-94.71-174.31-68.64
			c-121.86-26.07-203.66-15.13-203.66,61.93S1388.85,1389,1465.91,1389S1644.13,1281.64,1647.23,1204.64z"/>
		<path style="fill:#F9C88F;" d="M1343.04,1030.8c11.11,105.52-8.84,172.04-23.99,187.2c-20.73,20.73-127.46,13.61-325.43,133.13
			c-16.25,9.81,243.94,344.09,487.9,337.42c243.96-6.66,455.69-305.69,445.17-314.43c-128.11-106.45-321.05-140.62-332.32-157.14
			c-31.84-46.65-12.95-188.33-12.95-188.33L1343.04,1030.8z"/>
		<path style="opacity:0.15;" d="M1575.87,1119.2c-0.27-46.85,5.55-90.54,5.55-90.54l-238.38,2.14c2.56,24.35,3.46,46.59,3.15,66.64
			c33.18,54.35,75.86,92.52,122.06,92.52C1508,1189.96,1545.14,1161.7,1575.87,1119.2z"/>
		<path style="fill:#F9C88F;" d="M1758.75,1273.64c-123.42-57.28-177.31-51.87-188.58-68.38c-1.54-2.26-2.96-4.71-4.28-7.33
			l-216.56,1.3c-1.82,3.49-3.75,6.25-5.75,8.25c-20.73,20.73-99.1,14.34-242.02,89.27c-16.81,8.81,113.97,228.4,357.93,221.73
			C1703.45,1511.82,1771.16,1279.4,1758.75,1273.64z"/>
		<path style="fill:#244E73;stroke:#030140;stroke-width:17.6622;stroke-miterlimit:10;" d="M1238.67,849.67
			c0-159.55,101.28-288.89,226.21-288.89c124.93,0,226.21,129.34,226.21,288.89"/>
		<path style="fill:none;stroke:#9E2880;stroke-width:15.6534;stroke-miterlimit:10;" d="M1238.67,849.67
			c0-159.55,101.28-288.89,226.21-288.89c124.93,0,226.21,129.34,226.21,288.89"/>
		
			<ellipse transform="matrix(0.1756 -0.9845 0.9845 0.1756 489.5311 2428.7783)" style="fill:#9E2880;" cx="1694.92" cy="922.1" rx="77.44" ry="30.2"/>
		
			<ellipse transform="matrix(0.1773 -0.9842 0.9842 0.1773 480.434 2414.8735)" style="opacity:0.15;" cx="1684.65" cy="920.07" rx="85.26" ry="21.98"/>
		<path style="fill:#9E2880;" d="M1683.39,816.47L1683.39,816.47c15.81,3.13,26.29,19.22,23.29,35.75l-25.29,139.43
			c-3,16.53-18.38,27.49-34.19,24.35l0,0c-15.81-3.13-26.29-19.22-23.29-35.75l25.29-139.43
			C1652.19,824.29,1667.58,813.33,1683.39,816.47z"/>
		<path style="opacity:0.15;" d="M1643.27,984.08l25.29-139.43c2.35-12.97,12.35-22.48,24.18-24.47c-2.82-1.75-5.96-3.05-9.35-3.72
			c-15.81-3.13-31.19,7.82-34.19,24.35l-25.29,139.43c-3,16.53,7.48,32.61,23.29,35.75c3.4,0.67,6.77,0.66,10.01,0.12
			C1646.89,1009.73,1640.91,997.06,1643.27,984.08z"/>
		
			<ellipse transform="matrix(0.986 -0.167 0.167 0.986 -136.7182 218.0614)" style="fill:#9E2880;" cx="1228.25" cy="921.97" rx="30.19" ry="77.45"/>
		
			<ellipse transform="matrix(0.9857 -0.1687 0.1687 0.9857 -137.4254 222.0626)" style="opacity:0.15;" cx="1238.53" cy="920.03" rx="21.97" ry="85.28"/>
		<path style="fill:#9E2880;" d="M1240.71,816.44L1240.71,816.44c-15.83,2.98-26.46,18.97-23.6,35.52l24.06,139.67
			c2.85,16.56,18.14,27.66,33.97,24.68l0,0c15.83-2.98,26.46-18.97,23.6-35.52l-24.06-139.67
			C1271.83,824.57,1256.55,813.46,1240.71,816.44z"/>
		<path style="opacity:0.15;" d="M1279.35,984.44l-24.06-139.67c-2.24-13-12.15-22.6-23.97-24.7c2.84-1.72,5.98-2.99,9.39-3.63
			c15.83-2.98,31.12,8.12,33.97,24.68l24.06,139.66c2.85,16.56-7.77,32.54-23.6,35.52c-3.4,0.64-6.77,0.6-10.01,0.02
			C1275.5,1010.05,1281.59,997.44,1279.35,984.44z"/>
		<path style="fill:#F9C88F;" d="M1269.26,828.79c0-136.25,85.17-182.14,190.24-182.14c105.07,0,190.24,45.89,190.24,182.14
			s-86.2,329.7-190.24,329.7C1355.46,1158.48,1269.26,965.04,1269.26,828.79z"/>
		<g style="opacity:0.15;">
			<path d="M1692.78,830.71c5.76-4.09-20.28-65.6-20.28-65.6c-7.65-13.38-158.05-172.62-185.78-173.99
				c-83.11-4.11-139.49,40.94-172.55,72.55c-12.29,11.75-25.44,33.54-36.24,61.72c-5.46,13.45-9,24.58-11.08,34.54l38.82,18.9
				c4.44-5.15,11.09-8.71,11.09-8.71c72.84-37.65,201.73,71.52,173.69,26.16c-11.07-17.91-21.57-38.77,9.33-9.35
				c28.14,26.79,88.58,78.3,149.94,89.99C1683.41,883.36,1677.78,841.36,1692.78,830.71z"/>
		</g>
		<g>
			<path style="fill:#8C3030;" d="M1294.38,973.01c-27.53-66.43-6.17-183.79,11.29-219.6l-27.74-53.44
				C1249.25,774.79,1229.72,875.38,1294.38,973.01z"/>
		</g>
		<g style="opacity:0.3;">
			<path d="M1294.38,973.01c-27.53-64.39-6.17-183.79,11.29-219.6l-27.74-53.44C1249.25,774.79,1229.72,875.38,1294.38,973.01z"/>
		</g>
		<g>
			<path style="fill:#704A33;" d="M1624.92,805.28c24.81,46.22-7.73,187.13-7.73,187.13s61.26-74.26,49.44-160.98
				C1654.81,744.7,1624.92,805.28,1624.92,805.28z"/>
		</g>
		<g>
			<path style="fill:#704A33;" d="M1692.78,805.28c5.76-4.09,76.66-29.19,42.7-34.42c-33.89-5.22-62.98-31.18-62.98-31.18
				c-7.65-13.38,6.46-32.63,38.11-32.63c-60.87-122.97-196.16-139.99-223.89-141.36c-83.11-4.11-139.49,40.94-172.55,72.55
				c-12.29,11.75-25.44,33.54-36.24,61.72c-5.46,13.45-9,24.58-11.08,34.54l38.82,18.9c4.44-5.15,11.09-8.71,11.09-8.71
				c72.84-37.65,201.73,71.52,173.69,26.16c-11.07-17.91-21.57-38.77,9.33-9.35c28.14,26.79,88.58,78.3,149.94,89.99
				c33.68,6.42,52.79-4.7,80.27-20.72C1738.59,825.78,1677.78,815.93,1692.78,805.28z"/>
		</g>
		<g style="opacity:0.2;">
			<path d="M1692.78,805.28c5.76-4.09,76.66-29.19,42.7-34.42c-33.89-5.22-62.98-31.18-62.98-31.18
				c-7.65-13.38,6.46-32.63,38.11-32.63c-60.87-122.97-196.16-139.99-223.89-141.36c-83.11-4.11-139.49,40.94-172.55,72.55
				c-2.5,2.39-5.03,5.22-7.58,8.4c190.4-156.88,371.49,32.68,375.22,45.76c-9.34,0-37.02,11.21-42.88,37.35
				c-5.87,26.15,33.87,41.97,69.36,49.49c-50.69,23.35-100.18,4.72-100.18,4.72s26.15,30.99,67.24,46.64
				c-9.82-4.07-52.3,3.74-137.2-35.98c30.72,23.92,70.94,49.13,111.58,56.87c33.68,6.42,52.79-4.7,80.27-20.72
				C1738.59,825.78,1677.78,815.93,1692.78,805.28z"/>
		</g>
		<g style="opacity:0.2;">
			<g>
				<path d="M1543.79,742.94c-0.84,0.87-12.97-11.32-34.98-27.74c-11.03-8.12-24.63-17.26-40.91-24.93
					c-4.02-2.03-8.31-3.68-12.64-5.49c-2.21-0.79-4.44-1.58-6.69-2.38c-2.24-0.83-4.59-1.4-6.91-2.12
					c-9.35-2.65-19.27-4.49-29.51-5.05c-10.24-0.57-20.28,0.2-29.76,2.08c-9.48,1.89-18.36,4.98-26.5,8.61
					c-4.12,1.72-7.91,3.89-11.68,5.83c-3.6,2.24-7.24,4.2-10.48,6.54c-1.65,1.13-3.29,2.21-4.86,3.33
					c-1.54,1.17-3.05,2.31-4.53,3.44c-3.02,2.18-5.66,4.59-8.31,6.75c-20.6,18.03-30.85,31.96-31.85,31.14
					c-0.38-0.29,1.88-3.95,6.46-10.25c4.73-6.17,11.85-14.98,22.04-24.6c2.61-2.34,5.22-4.93,8.24-7.29c1.48-1.21,3-2.45,4.54-3.71
					c1.58-1.21,3.25-2.38,4.92-3.61c3.28-2.53,7-4.69,10.7-7.11c3.88-2.13,7.79-4.48,12.08-6.38c8.46-3.98,17.8-7.38,27.83-9.48
					c10.03-2.09,20.69-2.95,31.53-2.35c10.84,0.59,21.29,2.59,31.06,5.45c2.42,0.78,4.87,1.4,7.2,2.3c2.34,0.87,4.65,1.73,6.94,2.58
					c4.47,1.94,8.91,3.74,13.02,5.91c16.69,8.27,30.29,18.07,41.12,26.84c10.88,8.75,18.82,16.77,24.26,22.31
					C1541.4,739.28,1544.13,742.59,1543.79,742.94z"/>
			</g>
		</g>
		<g style="opacity:0.2;">
			<g>
				<path d="M1607.98,699.97c-0.63,0.75-12.19-8.65-31.69-22.59c-9.75-6.95-21.53-14.99-35.16-22.9c-3.37-2.04-6.96-3.88-10.56-5.88
					c-3.68-1.84-7.38-3.83-11.29-5.56c-7.74-3.61-15.92-6.96-24.53-9.61c-17.2-5.43-34.38-7.56-49.94-6.85
					c-15.58,0.74-29.39,4.07-40.71,7.64c-11.3,3.69-20.23,7.48-26.36,10.19c-6.14,2.69-9.58,4.16-9.8,3.76
					c-0.19-0.35,2.86-2.53,8.73-5.9c5.86-3.39,14.62-7.84,26.01-12.16c11.4-4.19,25.59-8.1,41.82-9.19c16.2-1.08,34.26,1,52.09,6.63
					c8.93,2.76,17.36,6.25,25.26,10.03c3.99,1.82,7.76,3.9,11.49,5.84c3.65,2.09,7.28,4.04,10.68,6.18
					c13.72,8.33,25.38,16.84,34.88,24.29c9.51,7.45,16.87,13.88,21.84,18.44C1605.66,696.95,1608.25,699.64,1607.98,699.97z"/>
			</g>
		</g>
		<path style="fill:#F9C88F;" d="M1968.03,1764.27c11.21,127.22,30.58,195.32,1.65,233.65c-28.93,38.33-290.73,230.94-318.83,260.53
			c-28.1,29.59-78.55-405.95-27.1-308.43c89.92,26.67,122.42-11.11,189.76-17.51c-1.73-62.51-6.58-139.15,15.77-164.82
			C1861.57,1730.59,1968.03,1764.27,1968.03,1764.27z"/>
		<path style="fill:#F9C88F;" d="M923.9,1727.76c-14.58,125.08-35.03,202.89-6.88,241.8c28.15,38.9,264.9,260.08,318.18,271.51
			c39.9,8.56,37.94-334.78-15.47-238.31c-90.44,24.85-76.33-87.12-143.52-94.87c2.99-62.46,9.38-138.99-12.45-165.1
			C1032.22,1705.06,923.9,1727.76,923.9,1727.76z"/>
		<g>
			<path style="fill:#244E73;" d="M1602.42,2145.29c290.36-58.11,470.74-151.49,565.99-73.05c72.6,59.79,86.15,229.7-448.23,382.24
				c-147.95,42.23-137.47,52.87-279.64,32.37c-396.09-57.11-836.96-289-766.04-393.61c87.35-128.84,285.04,11.7,527.37,44.33
				C1301.13,2150.95,1512.7,2140.92,1602.42,2145.29z"/>
			<path style="opacity:0.5;fill:#231F20;" d="M1602.42,2145.29c290.36-58.11,470.74-151.49,565.99-73.05
				c72.6,59.79,86.15,229.7-448.23,382.24c-147.95,42.23-137.47,52.87-279.64,32.37c-396.09-57.11-836.96-289-766.04-393.61
				c87.35-128.84,285.04,11.7,527.37,44.33C1301.13,2150.95,1512.7,2140.92,1602.42,2145.29z"/>
		</g>
		<path style="fill:#486773;" d="M1305.67,1222.62c-63.68,10.37-276.83,82.76-325.92,143.1c-41.21,50.65-69.28,321.41-69.28,424.92
			l140.33,7.19l731.59,12.18l178.21-39.29c0,0,10.58-61.44,6.48-147.27c-5.13-107.44-10.95-223.37-42.85-257.73
			c-36.34-39.15-307.83-143.1-307.83-143.1s-1.68,101.02-156.34,101.02S1305.67,1222.62,1305.67,1222.62z"/>
		<path style="fill:#F0F2F2;" d="M1305.67,1240.23c-63.68,10.37-276.83,82.76-325.92,143.1c-41.21,50.65-69.28,321.41-69.28,424.92
			l140.33,7.19l731.59,12.18l178.21-39.29c0,0,10.58-61.44,6.48-147.27c-5.13-107.44-10.95-223.37-42.85-257.73
			c-36.34-39.15-307.83-143.1-307.83-143.1s-1.68,101.02-156.34,101.02S1305.67,1240.23,1305.67,1240.23z"/>
		<g style="opacity:0.5;">
			<path style="fill:#486773;" d="M1947.57,1438.01h-107.21h-0.98h-139.9h-0.98h-139.9h-0.98h-139.9h-0.98h-139.9h-0.98h-139.9
				h-0.98h-139.9h-0.98h-37.65c-0.13,0.46-0.26,0.94-0.39,1.41h38.04h0.98h139.9h0.98h139.9h0.98h139.9h0.98h139.9h0.98h139.9h0.98
				h139.9h0.98h107.54C1947.79,1438.95,1947.68,1438.48,1947.57,1438.01z"/>
			<path style="fill:#486773;" d="M1840.36,1409.84h-0.98h-139.9h-0.98h-139.9h-0.98h-139.9h-0.98h-139.9h-0.98h-139.9h-0.98h-139.9
				h-0.98h-28.35c-0.18,0.47-0.37,0.93-0.55,1.41h28.9h0.98h139.9h0.98h139.9h0.98h139.9h0.98h139.9h0.98h139.9h0.98h139.9h0.98
				h99.44c-0.17-0.47-0.35-0.94-0.53-1.41H1840.36z"/>
			<path style="fill:#486773;" d="M1840.36,1381.66h-0.98h-139.9h-0.98h-139.9h-0.98h-139.9h-0.98h-139.9h-0.98h-139.9h-0.98h-139.9
				h-0.98h-12.92c-0.4,0.47-0.82,0.94-1.2,1.41h14.12h0.98h139.9h0.98h139.9h0.98h139.9h0.98h139.9h0.98h139.9h0.98h139.9h0.98
				h83.61c-0.44-0.46-0.9-0.93-1.4-1.41H1840.36z"/>
			<path style="fill:#486773;" d="M1840.36,1353.49h-0.98h-139.9h-0.98h-139.9h-0.98h-139.9h-0.98h-139.9h-0.98h-139.9h-0.98
				h-119.93c-0.71,0.47-1.42,0.94-2.11,1.41h122.04h0.98h139.9h0.98h139.9h0.98h139.9h0.98h139.9h0.98h139.9h0.98h40.66
				c-0.87-0.47-1.75-0.94-2.64-1.41H1840.36z"/>
			<path style="fill:#486773;" d="M1840.36,1423.93h-0.98h-139.9h-0.98h-139.9h-0.98h-139.9h-0.98h-139.9h-0.98h-139.9h-0.98h-139.9
				h-0.98h-33.35c-0.15,0.47-0.3,0.93-0.46,1.41h33.81h0.98h139.9h0.98h139.9h0.98h139.9h0.98h139.9h0.98h139.9h0.98h139.9h0.98
				h103.97c-0.13-0.47-0.27-0.94-0.4-1.41H1840.36z"/>
			<path style="fill:#486773;" d="M1840.36,1395.75h-0.98h-139.9h-0.98h-139.9h-0.98h-139.9h-0.98h-139.9h-0.98h-139.9h-0.98h-139.9
				h-0.98h-22.12c-0.23,0.46-0.46,0.94-0.69,1.41h22.82h0.98h139.9h0.98h139.9h0.98h139.9h0.98h139.9h0.98h139.9h0.98h139.9h0.98
				h93.29c-0.25-0.48-0.5-0.94-0.76-1.41H1840.36z"/>
			<path style="fill:#486773;" d="M1840.36,1367.57h-0.98h-139.9h-0.98h-139.9h-0.98h-139.9h-0.98h-139.9h-0.98h-139.9h-0.98H995.85
				c-0.57,0.47-1.15,0.94-1.71,1.41h0.93h139.9h0.98h139.9h0.98h139.9h0.98h139.9h0.98h139.9h0.98h139.9h0.98h65.1
				c-0.73-0.47-1.49-0.94-2.25-1.41H1840.36z"/>
			<path style="fill:#486773;" d="M1840.36,1339.4h-0.98h-139.9h-0.98h-139.9h-0.98h-63.21c-5.52,0.63-11.3,1.1-17.33,1.41h80.54
				h0.98h139.9h0.98h139.9h0.98h13.04c-0.96-0.47-1.92-0.94-2.89-1.41H1840.36z"/>
			<path style="fill:#486773;" d="M1963.87,1578.89h-123.51h-0.98h-139.9h-0.98h-139.9h-0.98h-139.9h-0.98h-139.9h-0.98h-139.9
				h-0.98h-139.9h-0.98h-64.84c-0.06,0.47-0.13,0.94-0.19,1.41h65.03h0.98h139.9h0.98h139.9h0.98h139.9h0.98h139.9h0.98h139.9h0.98
				h139.9h0.98h123.6C1963.93,1579.83,1963.9,1579.36,1963.87,1578.89z"/>
			<path style="fill:#486773;" d="M1840.36,1550.72h-0.98h-139.9h-0.98h-139.9h-0.98h-139.9h-0.98h-139.9h-0.98h-139.9h-0.98h-139.9
				h-0.98h-60.72c-0.07,0.47-0.15,0.94-0.22,1.41h60.94h0.98h139.9h0.98h139.9h0.98h139.9h0.98h139.9h0.98h139.9h0.98h139.9h0.98
				h121.79c-0.03-0.47-0.07-0.94-0.1-1.41H1840.36z"/>
			<path style="fill:#486773;" d="M1840.36,1522.54h-0.98h-139.9h-0.98h-139.9h-0.98h-139.9h-0.98h-139.9h-0.98h-139.9h-0.98h-139.9
				h-0.98h-56.1c-0.08,0.47-0.16,0.94-0.24,1.41h56.35h0.98h139.9h0.98h139.9h0.98h139.9h0.98h139.9h0.98h139.9h0.98h139.9h0.98
				h119.55c-0.04-0.47-0.08-0.94-0.13-1.41H1840.36z"/>
			<path style="fill:#486773;" d="M1840.36,1494.37h-0.98h-139.9h-0.98h-139.9h-0.98h-139.9h-0.98h-139.9h-0.98h-139.9h-0.98h-139.9
				h-0.98h-50.88c-0.09,0.47-0.19,0.94-0.28,1.41h51.16h0.98h139.9h0.98h139.9h0.98h139.9h0.98h139.9h0.98h139.9h0.98h139.9h0.98
				h116.68c-0.05-0.47-0.11-0.94-0.16-1.41H1840.36z"/>
			<path style="fill:#486773;" d="M1840.36,1466.19h-0.98h-139.9h-0.98h-139.9h-0.98h-139.9h-0.98h-139.9h-0.98h-139.9h-0.98h-139.9
				h-0.98h-44.85c-0.11,0.47-0.22,0.94-0.33,1.41h45.18h0.98h139.9h0.98h139.9h0.98h139.9h0.98h139.9h0.98h139.9h0.98h139.9h0.98
				h112.87c-0.07-0.47-0.15-0.94-0.23-1.41H1840.36z"/>
			<path style="fill:#486773;" d="M1840.36,1564.81h-0.98h-139.9h-0.98h-139.9h-0.98h-139.9h-0.98h-139.9h-0.98h-139.9h-0.98h-139.9
				h-0.98h-62.83c-0.07,0.47-0.14,0.94-0.21,1.41h63.04h0.98h139.9h0.98h139.9h0.98h139.9h0.98h139.9h0.98h139.9h0.98h139.9h0.98
				h122.73c-0.03-0.47-0.06-0.94-0.09-1.41H1840.36z"/>
			<path style="fill:#486773;" d="M1840.36,1536.63h-0.98h-139.9h-0.98h-139.9h-0.98h-139.9h-0.98h-139.9h-0.98h-139.9h-0.98h-139.9
				h-0.98h-58.48c-0.08,0.47-0.15,0.94-0.23,1.41h58.71h0.98h139.9h0.98h139.9h0.98h139.9h0.98h139.9h0.98h139.9h0.98h139.9h0.98
				h120.73c-0.04-0.47-0.07-0.94-0.11-1.41H1840.36z"/>
			<path style="fill:#486773;" d="M1840.36,1508.45h-0.98h-139.9h-0.98h-139.9h-0.98h-139.9h-0.98h-139.9h-0.98h-139.9h-0.98h-139.9
				h-0.98h-53.58c-0.09,0.47-0.17,0.94-0.26,1.41h53.84h0.98h139.9h0.98h139.9h0.98h139.9h0.98h139.9h0.98h139.9h0.98h139.9h0.98
				h118.21c-0.05-0.47-0.09-0.94-0.14-1.41H1840.36z"/>
			<path style="fill:#486773;" d="M1840.36,1480.28h-0.98h-139.9h-0.98h-139.9h-0.98h-139.9h-0.98h-139.9h-0.98h-139.9h-0.98h-139.9
				h-0.98h-47.98c-0.1,0.47-0.2,0.94-0.3,1.41h48.29h0.98h139.9h0.98h139.9h0.98h139.9h0.98h139.9h0.98h139.9h0.98h139.9h0.98
				h114.92c-0.06-0.47-0.13-0.94-0.19-1.41H1840.36z"/>
			<path style="fill:#486773;" d="M1840.36,1452.1h-0.98h-139.9h-0.98h-139.9h-0.98h-139.9h-0.98h-139.9h-0.98h-139.9h-0.98h-139.9
				h-0.98h-41.43c-0.12,0.47-0.24,0.94-0.36,1.41h41.79h0.98h139.9h0.98h139.9h0.98h139.9h0.98h139.9h0.98h139.9h0.98h139.9h0.98
				h110.44c-0.09-0.47-0.17-0.94-0.26-1.41H1840.36z"/>
			<path style="fill:#486773;" d="M1967.12,1719.77h-126.76h-0.98h-139.9h-0.98h-139.9h-0.98h-139.9h-0.98h-139.9h-0.98h-139.9
				h-0.98h-139.9h-0.98h-79.7c-0.03,0.47-0.07,0.94-0.1,1.41h79.81h0.98h139.9h0.98h139.9h0.98h139.9h0.98h139.9h0.98h139.9h0.98
				h139.9h0.98h126.68C1967.07,1720.71,1967.09,1720.25,1967.12,1719.77z"/>
			<path style="fill:#486773;" d="M1840.36,1691.6h-0.98h-139.9h-0.98h-139.9h-0.98h-139.9h-0.98h-139.9h-0.98h-139.9h-0.98h-139.9
				h-0.98h-77.44c-0.04,0.47-0.08,0.94-0.12,1.41h77.56h0.98h139.9h0.98h139.9h0.98h139.9h0.98h139.9h0.98h139.9h0.98h139.9h0.98
				h127.58c0.01-0.46,0.01-0.94,0.02-1.41H1840.36z"/>
			<path style="fill:#486773;" d="M1840.36,1663.42h-0.98h-139.9h-0.98h-139.9h-0.98h-139.9h-0.98h-139.9h-0.98h-139.9h-0.98h-139.9
				h-0.98h-74.82c-0.05,0.47-0.09,0.94-0.14,1.41h74.96h0.98h139.9h0.98h139.9h0.98h139.9h0.98h139.9h0.98h139.9h0.98h139.9h0.98
				h127.51c-0.01-0.47-0.02-0.94-0.03-1.41H1840.36z"/>
			<path style="fill:#486773;" d="M1840.36,1635.25h-0.98h-139.9h-0.98h-139.9h-0.98h-139.9h-0.98h-139.9h-0.98h-139.9h-0.98h-139.9
				h-0.98h-71.86c-0.05,0.47-0.1,0.94-0.16,1.41h72.01h0.98h139.9h0.98h139.9h0.98h139.9h0.98h139.9h0.98h139.9h0.98h139.9h0.98
				h126.51c-0.02-0.47-0.04-0.94-0.07-1.41H1840.36z"/>
			<path style="fill:#486773;" d="M1840.36,1607.07h-0.98h-139.9h-0.98h-139.9h-0.98h-139.9h-0.98h-139.9h-0.98h-139.9h-0.98h-139.9
				h-0.98h-68.54c-0.06,0.47-0.12,0.94-0.18,1.41h68.71h0.98h139.9h0.98h139.9h0.98h139.9h0.98h139.9h0.98h139.9h0.98h139.9h0.98
				h125.13c-0.02-0.47-0.05-0.94-0.07-1.41H1840.36z"/>
			<path style="fill:#486773;" d="M1840.36,1705.69h-0.98h-139.9h-0.98h-139.9h-0.98h-139.9h-0.98h-139.9h-0.98h-139.9h-0.98h-139.9
				h-0.98h-78.62c-0.04,0.47-0.07,0.94-0.11,1.41h78.73h0.98h139.9h0.98h139.9h0.98h139.9h0.98h139.9h0.98h139.9h0.98h139.9h0.98
				h127.25c0.01-0.46,0.03-0.94,0.04-1.41H1840.36z"/>
			<path style="fill:#486773;" d="M1840.36,1677.51h-0.98h-139.9h-0.98h-139.9h-0.98h-139.9h-0.98h-139.9h-0.98h-139.9h-0.98h-139.9
				h-0.98h-76.18c-0.04,0.47-0.09,0.94-0.13,1.41h76.31h0.98h139.9h0.98h139.9h0.98h139.9h0.98h139.9h0.98h139.9h0.98h139.9h0.98
				h127.66c0-0.47-0.01-0.94-0.01-1.41H1840.36z"/>
			<path style="fill:#486773;" d="M1840.36,1649.33h-0.98h-139.9h-0.98h-139.9h-0.98h-139.9h-0.98h-139.9h-0.98h-139.9h-0.98h-139.9
				h-0.98h-73.38c-0.05,0.47-0.1,0.94-0.15,1.41h73.53h0.98h139.9h0.98h139.9h0.98h139.9h0.98h139.9h0.98h139.9h0.98h139.9h0.98
				h127.12c-0.02-0.47-0.03-0.94-0.05-1.41H1840.36z"/>
			<path style="fill:#486773;" d="M1840.36,1621.16h-0.98h-139.9h-0.98h-139.9h-0.98h-139.9h-0.98h-139.9h-0.98h-139.9h-0.98h-139.9
				h-0.98h-70.24c-0.06,0.47-0.11,0.94-0.17,1.41h70.41h0.98h139.9h0.98h139.9h0.98h139.9h0.98h139.9h0.98h139.9h0.98h139.9h0.98
				h125.83c-0.02-0.47-0.05-0.94-0.07-1.41H1840.36z"/>
			<path style="fill:#486773;" d="M1840.36,1592.98h-0.98h-139.9h-0.98h-139.9h-0.98h-139.9h-0.98h-139.9h-0.98h-139.9h-0.98h-139.9
				h-0.98h-66.74c-0.06,0.47-0.12,0.94-0.18,1.41h66.92h0.98h139.9h0.98h139.9h0.98h139.9h0.98h139.9h0.98h139.9h0.98h139.9h0.98
				h124.39c-0.03-0.47-0.05-0.94-0.08-1.41H1840.36z"/>
			<path style="fill:#486773;" d="M1840.36,1804.3h-0.98h-139.9h-0.98h-139.9h-0.98h-139.9h-0.98h-139.9h-0.98h-139.9h-0.98h-139.9
				h-0.98h-83.61c0,0.48,0,0.94-0.01,1.41h83.61h0.98h139.9h0.98h139.9h0.98h139.9h0.98h139.9h0.98h139.9h0.98h139.9h0.98h41.42
				l6.4-1.41H1840.36z"/>
			<path style="fill:#486773;" d="M1840.36,1776.13h-0.98h-139.9h-0.98h-139.9h-0.98h-139.9h-0.98h-139.9h-0.98h-139.9h-0.98h-139.9
				h-0.98h-82.93c-0.02,0.47-0.03,0.94-0.05,1.41h82.99h0.98h139.9h0.98h139.9h0.98h139.9h0.98h139.9h0.98h139.9h0.98h139.9h0.98
				h121.81c0.06-0.45,0.12-0.94,0.18-1.41H1840.36z"/>
			<path style="fill:#486773;" d="M1840.36,1747.95h-0.98h-139.9h-0.98h-139.9h-0.98h-139.9h-0.98h-139.9h-0.98h-139.9h-0.98h-139.9
				h-0.98h-81.56c-0.03,0.47-0.06,0.94-0.08,1.41h81.64h0.98h139.9h0.98h139.9h0.98h139.9h0.98h139.9h0.98h139.9h0.98h139.9h0.98
				h124.81c0.04-0.47,0.08-0.93,0.12-1.41H1840.36z"/>
			<path style="fill:#486773;" d="M1840.36,1790.22h-0.98h-139.9h-0.98h-139.9h-0.98h-139.9h-0.98h-139.9h-0.98h-139.9h-0.98h-139.9
				h-0.98h-83.38c-0.01,0.47-0.02,0.95-0.04,1.41h83.41h0.98h139.9h0.98h139.9h0.98h139.9h0.98h139.9h0.98h139.9h0.98h139.9h0.98
				h105.32l6.4-1.41H1840.36z"/>
			<path style="fill:#486773;" d="M1840.36,1762.04h-0.98h-139.9h-0.98h-139.9h-0.98h-139.9h-0.98h-139.9h-0.98h-139.9h-0.98h-139.9
				h-0.98h-82.32c-0.02,0.47-0.04,0.94-0.07,1.41h82.39h0.98h139.9h0.98h139.9h0.98h139.9h0.98h139.9h0.98h139.9h0.98h139.9h0.98
				h123.47c0.05-0.46,0.1-0.94,0.15-1.41H1840.36z"/>
			<path style="fill:#486773;" d="M1840.36,1733.86h-0.98h-139.9h-0.98h-139.9h-0.98h-139.9h-0.98h-139.9h-0.98h-139.9h-0.98h-139.9
				h-0.98h-80.69c-0.03,0.47-0.06,0.94-0.09,1.41h80.78h0.98h139.9h0.98h139.9h0.98h139.9h0.98h139.9h0.98h139.9h0.98h139.9h0.98
				h125.88c0.03-0.46,0.06-0.94,0.09-1.41H1840.36z"/>
			<path style="fill:#486773;" d="M1756.75,1297.13h-57.27h-0.98h-107.73c-0.43,0.47-0.88,0.94-1.33,1.41h109.05h0.98h60.56
				C1758.94,1298.07,1757.85,1297.6,1756.75,1297.13z"/>
			<path style="fill:#486773;" d="M1698.5,1311.22h-123.59c-0.65,0.47-1.32,0.94-1.99,1.41h125.58h0.98h92.99
				c-1.06-0.47-2.13-0.94-3.19-1.41h-89.8H1698.5z"/>
			<polygon style="fill:#486773;" points="1698.5,1818.39 1558.6,1818.39 1557.62,1818.39 1417.72,1818.39 1416.74,1818.39 
				1276.84,1818.39 1275.86,1818.39 1227.93,1818.39 1312.6,1819.8 1416.74,1819.8 1417.72,1819.8 1557.62,1819.8 1558.6,1819.8 
				1698.5,1819.8 1699.48,1819.8 1817.88,1819.8 1824.28,1818.39 1699.48,1818.39 			"/>
			<path style="fill:#486773;" d="M1688.92,1268.96h-79.75c-0.2,0.47-0.41,0.93-0.62,1.41h83.84
				C1691.22,1269.89,1690.07,1269.42,1688.92,1268.96z"/>
			<path style="fill:#486773;" d="M1617.82,1240.78h-1.44c-0.02,0.33-0.05,0.8-0.1,1.41h5.19
				C1619.88,1241.58,1618.67,1241.11,1617.82,1240.78z"/>
			<path style="fill:#486773;" d="M1699.48,1284.45h27.17c-1.13-0.47-2.26-0.94-3.38-1.41h-23.78h-0.98h-96.83
				c-0.3,0.47-0.61,0.94-0.92,1.41h97.75H1699.48z"/>
			<path style="fill:#486773;" d="M1653.79,1254.87h-39.78c-0.12,0.46-0.24,0.93-0.37,1.41h43.7
				C1656.14,1255.8,1654.95,1255.33,1653.79,1254.87z"/>
			<path style="fill:#486773;" d="M1558.6,1326.72h139.9h0.98h124.22c-1.02-0.47-2.04-0.94-3.07-1.41h-121.15h-0.98h-139.9h-0.98
				h-7.54c-1.1,0.48-2.23,0.95-3.37,1.41h10.9H1558.6z"/>
			<path style="fill:#486773;" d="M1305.69,1240.78h-3.19c-2.24,0.4-4.64,0.88-7.18,1.41h10.44
				C1305.72,1241.58,1305.7,1241.11,1305.69,1240.78z"/>
			<path style="fill:#486773;" d="M1276.84,1270.36h36.09c-0.2-0.47-0.4-0.94-0.59-1.41h-35.5h-0.98h-73.31
				c-1.37,0.47-2.75,0.93-4.13,1.41h77.44H1276.84z"/>
			<path style="fill:#486773;" d="M1276.84,1284.45h43.62c-0.3-0.47-0.6-0.94-0.89-1.41h-42.73h-0.98h-112.77
				c-1.24,0.47-2.49,0.94-3.73,1.41h116.51H1276.84z"/>
			<path style="fill:#486773;" d="M1276.84,1256.28h31.28c-0.12-0.48-0.24-0.95-0.35-1.41h-30.93h-0.98h-29.14
				c-1.55,0.46-3.12,0.93-4.7,1.41h33.84H1276.84z"/>
			<path style="fill:#486773;" d="M1135.96,1298.54h139.9h0.98h54.65c-0.44-0.47-0.87-0.94-1.3-1.41h-53.35h-0.98h-139.9h-0.98
				h-7.81c-1.14,0.47-2.28,0.94-3.42,1.41h11.23H1135.96z"/>
			<path style="fill:#486773;" d="M1135.96,1326.72h139.9h0.98h96.83c-1.13-0.46-2.25-0.93-3.34-1.41h-93.49h-0.98h-139.9h-0.98
				h-70.33c-0.94,0.47-1.86,0.94-2.79,1.41h73.11H1135.96z"/>
			<path style="fill:#486773;" d="M1135.96,1340.81h139.9h0.98h139.9h0.98h25.32c-6.02-0.31-11.8-0.78-17.3-1.41h-8.02h-0.98h-139.9
				h-0.98h-139.9h-0.98h-96.85c-0.83,0.47-1.65,0.94-2.46,1.41h99.32H1135.96z"/>
			<path style="fill:#486773;" d="M1091.26,1312.63h43.71h0.98h139.9h0.98h70.91c-0.66-0.47-1.32-0.93-1.96-1.41h-68.95h-0.98
				h-139.9h-0.98h-40.61C1093.33,1311.69,1092.3,1312.16,1091.26,1312.63z"/>
		</g>
		<path style="fill:#D54A30;" d="M1315.41,1147.07c-110.03,78.93-286.56,158.32-335.65,218.66
			c-41.21,50.65-69.28,321.41-69.28,424.92l140.33,7.19l393.83,6.56l337.77,5.63l196.84-43.4c0,0-8.05-57.33-12.15-143.16
			c-5.13-107.44-11.8-222.6-42.85-257.73c-32.09-36.3-230-107.86-307.04-218.66l-126.31,586.47l-11.69,71.42l-34.57-0.58
			c-6-19.61-13.32-45.45-19.33-70.85C1376.73,1528.58,1303.07,1166.2,1315.41,1147.07z"/>
		<path style="opacity:0.2;fill:#231F20;" d="M910.36,1751.31c33.96,0.49,142.57-5.5,223.58-43.82l-23.81,64.32
			C1028.31,1775.02,966.19,1770.78,910.36,1751.31z"/>
		<path style="opacity:0.2;fill:#231F20;" d="M1964.62,1769.95c-33.96,0.49-145.17-6.01-226.17-44.34l10.11,60.37
			C1830.38,1789.19,1908.79,1789.42,1964.62,1769.95z"/>
		<path style="fill:#D54A30;" d="M1997.52,1853.89c-82.56,15.41-163.82,21.73-243.35,15.77c-5.95,0.39-11.09-4.13-11.48-10.08
			l-5.19-80.12c-0.39-5.95,4.13-11.09,10.08-11.48c87.3,23.71,158.24,11.24,243.35-15.77c5.95-0.39,11.09,4.13,11.48,10.08
			c0,0-2.5,22.17-4.4,42.08c-1.14,11.93,9.6,38.04,9.6,38.04C2007.98,1848.37,2003.47,1853.51,1997.52,1853.89z"/>
		<path style="opacity:0.2;" d="M2003.34,1821.62c-1.49-5.79-2.49-11.54-2.1-15.63c0.49-5.1,1.01-10.35,1.53-15.34
			c-51.27,17.71-125.32,35.29-145.27,33.54C1910.02,1832.52,1965.99,1828.12,2003.34,1821.62z"/>
		<path style="fill:#D54A30;" d="M891.8,1845.99c67.13,27.93,150.07,43.25,224.88,26.41c10.7,1.26,20.4-6.4,21.66-17.11l7.33-62.43
			c1.26-10.7-6.4-20.4-17.11-21.66c-68.28,12.44-143.51,2.77-224.88-26.41c-10.7-1.26-20.4,6.4-21.66,17.11
			c7.19,13.3,4.69,34.15-7.33,62.43C873.44,1835.04,881.09,1844.73,891.8,1845.99z"/>
		<path style="opacity:0.2;" d="M886.03,1780.12c-0.03,7.11-1.41,15.27-4.14,24.48c33.36,17.74,95.28,38.35,136.29,37.08
			C984.62,1828.9,925.57,1807.68,886.03,1780.12z"/>
		<path style="opacity:0.1;fill:#231F20;" d="M1594.37,1216.99c-3.97-5.82-7.16-13.12-9.69-21.45
			c-2.78,18.43-7.82,41.08-16.17,68.86c-38.42,127.86-57.97,294.92-82.71,423.95c2.08-0.09,4.17-0.16,6.24-0.29
			c101.44-212.04,165.65-337.28,162.15-346.45c-5.53-14.53-28.48-33.04-34.82-46.59c-0.47-1.01,0.48-2.09,1.53-1.71l30.67,7.82
			c8.06,2.06,16.43-2.14,19.54-9.86c4.87-12.09,10.2-26.79,14.83-40.26C1635.65,1233.91,1599.09,1223.9,1594.37,1216.99z"/>
		<path style="opacity:0.1;fill:#231F20;" d="M1347.4,1272.28c-10.31-34.31-14.49-59.43-15.65-77.83
			c-4.11,11.47-8.58,19.43-12.71,23.55c-10.51,10.51-43.14,13.87-98.54,30.2c7.59,20.32,17.32,45.15,23.07,60.6
			c2.01,5.39,7.97,8.13,13.38,6.18l38.05-13.77c1.03-0.37,2.01,0.67,1.55,1.67c-6.31,13.54-23.55,51.52-29.09,66.06
			c-3.44,9.05,56.54,110.94,153.66,314.7c4.21,0.77,8.42,1.46,12.64,2.06C1424.26,1579.12,1384.45,1395.56,1347.4,1272.28z"/>
		<path style="opacity:0.1;fill:#231F20;" d="M1219.9,1330.68c2.01,5.39,7.97,8.13,13.38,6.18l38.05-13.77
			c1.03-0.37,2.01,0.67,1.55,1.67c-6.3,13.54-23.55,51.52-29.09,66.06c-3.61,9.49,62.56,121.14,168.18,345.34
			c-1.25-33.7-7.15-79.93-15.99-131.58c-13.62-62.09-27.51-128.2-39.9-190.32c-10.47-42.9-21.54-84.07-32.36-120.09
			c-24.62-81.93-14.34-111.58-11.24-121.92c0.55-1.84,1.2-3.68,1.92-5.5c-0.7-10.64-0.43-17.46,1-19.68
			c-35.98,25.81-79.08,51.68-122.51,76.91c-4.88,6.95-7.38,12.99-6.14,17.32C1191.26,1257.05,1210.68,1305.92,1219.9,1330.68z"/>
		<path style="fill:#D54A30;" d="M1284.65,1136.01c-21.84,14.01-92.97,68.99-87.37,88.6c4.5,15.76,23.93,64.63,33.14,89.39
			c2.01,5.39,7.97,8.13,13.38,6.18l38.05-13.77c1.03-0.37,2.01,0.67,1.55,1.67c-6.31,13.54-23.55,51.52-29.09,66.06
			c-3.61,9.49,62.56,121.14,168.18,345.34c-3.67-99.17-47.62-306.82-88.25-441.99c-24.62-81.93-14.34-111.58-11.24-121.92
			c4.29-14.31,14.2-28.74,21.93-30.43c0.2-2.6,0.38-5.26,0.53-7.96C1323.16,1115.24,1302.09,1124.82,1284.65,1136.01z"/>
		<path style="opacity:0.1;fill:#231F20;" d="M1617.19,1147.07l-4.56,21.2c4.21,19.34,3.97,56.78-16.88,126.15
			c-40.62,135.17-60.14,314.17-87,445.72c28.42-106.23,176.3-359.02,172.69-368.51c-5.53-14.53-28.48-33.03-34.82-46.59
			c-0.47-1.01-16.13-14.47-15.09-14.09l47.29,20.2c8.07,2.06,16.43-2.14,19.54-9.86c9.5-23.59,20.81-57.17,25.06-72.05
			c0.37-1.31,0.43-2.82,0.23-4.49C1681.82,1216.43,1642.82,1183.92,1617.19,1147.07z"/>
		<path style="fill:#D54A30;" d="M1628.73,1140.56c-15.33-9.83-33.38-17.07-52.8-16.16c0.05,3.16,0.12,6.33,0.23,9.49
			c6.51,1.44,14.46,6.31,17.21,13.18c6.26,15.64,10.37,53.03-14.25,134.97c-40.62,135.17-60.14,314.17-87,445.72
			c107.51-225.4,176.3-359.02,172.69-368.51c-5.53-14.53-28.48-33.04-34.82-46.59c-0.47-1.01,0.48-2.09,1.53-1.71l30.67,7.82
			c8.06,2.06,16.43-2.14,19.54-9.86c9.5-23.59,20.81-57.17,25.06-72.05C1712.4,1217.25,1650.57,1154.57,1628.73,1140.56z"/>
		<path style="fill:#F0F2F2;" d="M1879.58,2136.86h-865.91c-1.38,0-2.49-1.11-2.49-2.49v-16.77c0-1.38,1.12-2.49,2.49-2.49h865.91
			c1.38,0,2.49,1.12,2.49,2.49v16.77C1882.07,2135.75,1880.96,2136.86,1879.58,2136.86z"/>
		<path style="fill:#758D99;" d="M1872.71,2122.32h-852.17c-10.83,0-19.61-7.88-19.61-12.81v-541.8c0-14.53,8.78-22.41,19.61-22.41
			h852.17c10.83,0,19.61,7.88,19.61,17.61v541.8C1892.32,2114.44,1883.54,2122.32,1872.71,2122.32z"/>
		<path style="opacity:0.3;fill:#8C3030;" d="M1872.71,2122.32h-852.17c-10.83,0-19.61-7.88-19.61-12.81
			c0,0,220.32-64.31,476.11-230.1s395.67-334.11,395.67-334.11c10.83,0,19.61,7.88,19.61,17.61v541.8
			C1892.32,2114.44,1883.54,2122.32,1872.71,2122.32z"/>
		<path style="fill:#758D99;" d="M1884.73,2151.27h-876.21c-4.19,0-7.59-3.4-7.59-7.59v-6.56c0-4.19,3.4-7.59,7.59-7.59h876.21
			c4.19,0,7.59,3.4,7.59,7.59v6.56C1892.32,2147.87,1888.92,2151.27,1884.73,2151.27z"/>
		<path style="fill:none;stroke:#231F20;stroke-width:1.9567;stroke-miterlimit:10;" d="M1884.73,2151.27h-876.21
			c-4.19,0-7.59-3.4-7.59-7.59v-6.56c0-4.19,3.4-7.59,7.59-7.59h876.21c4.19,0,7.59,3.4,7.59,7.59v6.56
			C1892.32,2147.87,1888.92,2151.27,1884.73,2151.27z"/>
		
			<ellipse transform="matrix(0.2298 -0.9732 0.9732 0.2298 -683.8256 2830.9685)" style="fill:#F0F2F2;" cx="1446.63" cy="1847.51" rx="30.42" ry="30.42"/>
		<g>
			<path style="fill:#8C3030;" d="M1774.79,2419.59c30.74-0.6,92.04,33.31,97.76,27.82c5.72-5.48,206.46-66.67,313.15,12.04
				c106.69,78.71,39.5,190.03-73.51,193.84c-24.42,0.82-76.64-10.71-140.28-27.54c-67.63-17.89-124.77-35.12-135.08-46.36
				l-103.99-14.49L1774.79,2419.59z"/>
			<path style="fill:#F9C88F;" d="M1770.19,2426.51c35.09,49.08,131.36,82.88,131.36,82.88l-4.26,42.43
				c-84.86-0.36-171.43-1.05-180.53,12.74L1770.19,2426.51z"/>
			<g>
				<path style="fill:#244E73;" d="M2140.43,2498.28c114.57,66.5,31.13,155.14-45.41,154.45c-49.86-7.64-230.02-52.1-252.48-68.87
					c-7.41-5.53-6.91-18.19,6.74-22.68c27.72-9.13,85.22-2.1,85.22-2.1l4.81-31.66c0,0-50.77-22.38-62-34.34
					c-4.85-5.17,4.61-16.29,11.76-14.53C1912.75,2484.35,2065.84,2454.99,2140.43,2498.28z"/>
				<g>
					<path style="fill:#8C3030;" d="M1935.02,2563.44l122.76,37.21c16.56-13.64,24.03-36.71,9.08-83.02l-127.6,7.05L1935.02,2563.44
						z"/>
					<path style="fill:#8C3030;" d="M1939.26,2524.68c-38.32-9.53-47.8-26.33-81.44-36.84c-34.87-10.89-47.73,75.64-15.67,80.42
						c22.31,3.33,92.87-4.82,92.87-4.82L1939.26,2524.68z"/>
					<g>
						<g>
							<g>
								<g>
									<path style="fill:#FFDEAF;" d="M2016.4,2586.04c-0.36-0.49,3.3-3.59,8.6-9.14c5.32-5.52,12.1-13.68,18.74-23.34
										c13.27-19.36,22.01-36.5,23.13-35.93c0.47,0.23-1.18,4.78-4.54,11.81c-3.39,7.01-8.52,16.54-15.32,26.37
										c-6.77,9.85-14.1,17.98-20.06,23.11C2020.99,2584.1,2016.67,2586.44,2016.4,2586.04z"/>
								</g>
							</g>
							<g>
								<g>
									<path style="fill:#FFDEAF;" d="M2023.3,2522.95c0.25-0.38,4.71,2.05,10.02,8.12c2.56,3.07,5.46,6.91,7.98,11.55
										c2.57,4.61,5.02,9.87,7.14,15.54c4.19,11.37,6.67,22.02,8.08,29.77c1.39,7.76,1.78,12.62,1.26,12.73
										c-0.57,0.11-1.94-4.56-4.02-12.09c-2.1-7.52-4.98-17.91-9.07-29c-2.08-5.53-4.34-10.66-6.64-15.2
										c-2.26-4.57-4.78-8.38-6.96-11.54C2026.59,2526.6,2022.89,2523.46,2023.3,2522.95z"/>
								</g>
							</g>
						</g>
						<g>
							<g>
								<g>
									<path style="fill:#FFDEAF;" d="M1972.83,2574.73c-0.13-0.57,3.75-1.16,8.52-4.8c2.4-1.77,4.93-4.3,7.48-7.35
										c2.55-3.06,4.97-6.76,7.37-10.74c4.74-8.01,8.3-15.74,10.97-21.29c2.65-5.57,4.35-9.01,4.78-8.84
										c0.38,0.15-0.58,3.88-2.72,9.71c-2.17,5.81-5.44,13.8-10.32,22.04c-2.47,4.1-5.05,7.9-7.87,11.02
										c-2.81,3.11-5.69,5.65-8.44,7.32c-1.38,0.82-2.69,1.47-3.86,1.95c-1.22,0.39-2.24,0.79-3.13,0.93
										C1973.83,2574.92,1972.87,2574.95,1972.83,2574.73z"/>
								</g>
							</g>
							<g>
								<g>
									<path style="fill:#FFDEAF;" d="M1978.18,2525.83c0.27-0.26,3.22,2.16,6.9,7.05c3.7,4.86,7.9,12.26,11.35,20.87
										c6.87,17.28,9.18,32.17,8.47,32.31c-0.95,0.24-4.6-14.24-11.33-31.15c-3.39-8.44-7.15-15.76-10.3-20.8
										C1980.16,2529.06,1977.83,2526.16,1978.18,2525.83z"/>
								</g>
							</g>
						</g>
						<g>
							<g>
								<g>
									<path style="fill:#FFDEAF;" d="M1935.02,2563.44c-0.17-0.37,2.51-1.7,6.09-4.78c3.6-3.05,7.88-8.04,11.8-14.17
										c3.91-6.13,6.94-12.04,9.17-16.3c2.2-4.28,3.62-6.92,3.95-6.78c0.3,0.13-0.55,3.01-2.37,7.51
										c-1.84,4.49-4.66,10.61-8.68,16.91c-4.01,6.29-8.73,11.37-12.79,14.21C1938.14,2562.9,1935.11,2563.7,1935.02,2563.44z"/>
								</g>
							</g>
							<g>
								<g>
									<path style="fill:#FFDEAF;" d="M1939.26,2524.68c0.57-0.32,6.68,9.76,12.48,23.04c5.83,13.26,9.32,24.48,8.71,24.7
										c-0.65,0.24-5.14-10.56-10.93-23.73C1943.77,2535.5,1938.67,2525,1939.26,2524.68z"/>
								</g>
							</g>
						</g>
						<g>
							<g>
								<path style="fill:#FFDEAF;" d="M1951.97,2698.23c-0.44-0.23,0.12-2.21,1.08-5.62c0.86-3.44,1.8-8.45,1.56-14.66
									c-0.24-6.2-1.67-13.55-4.56-21.41c-2.79-7.89-6.8-16.31-11.2-25.17c-4.39-8.87-8.69-17.41-11.76-25.71
									c-1.51-4.15-2.8-8.21-3.48-12.2c-0.44-1.95-0.53-3.95-0.74-5.82c0.04-1.92-0.11-3.74,0.2-5.5c0.12-0.87,0.19-1.73,0.37-2.55
									c0.22-0.81,0.44-1.61,0.65-2.38c0.11-0.38,0.22-0.76,0.32-1.13c0.16-0.35,0.31-0.7,0.46-1.05c0.31-0.68,0.61-1.34,0.9-1.98
									c0.63-1.24,1.44-2.27,2.08-3.26c0.66-0.98,1.5-1.68,2.14-2.39c1.27-1.44,2.62-2.15,3.43-2.71c0.85-0.52,1.36-0.69,1.51-0.52
									c0.15,0.18-0.07,0.7-0.6,1.5c-0.48,0.85-1.49,1.81-2.33,3.36c-1.96,2.86-4.15,7.42-4.23,13.43
									c-0.14,1.48,0.14,3.08,0.22,4.71c0.33,1.65,0.49,3.35,1.02,5.11c0.82,3.52,2.21,7.24,3.79,11.11
									c3.21,7.75,7.6,16.06,12.02,25c4.43,8.93,8.42,17.72,11.05,26.19c2.73,8.41,3.82,16.59,3.45,23.4
									c-0.37,6.84-2.16,12.17-3.85,15.53C1953.69,2696.86,1952.33,2698.44,1951.97,2698.23z"/>
							</g>
						</g>
						<g>
							<g>
								<path style="fill:#FFDEAF;" d="M2032.36,2434.02c-0.14,0.55-2.68,0.54-7.12,0.06c-1.11-0.13-2.33-0.28-3.68-0.45
									c-1.35-0.12-2.81-0.24-4.38-0.38c-1.56-0.15-3.23-0.32-5-0.49c-1.77-0.15-3.64-0.17-5.6-0.29
									c-7.8-0.34-17.18-0.43-26.99,1.8c-1.21,0.32-2.43,0.64-3.67,0.96c-0.62,0.16-1.24,0.31-1.86,0.49l-1.81,0.67
									c-1.21,0.45-2.44,0.9-3.67,1.36c-1.17,0.58-2.36,1.16-3.55,1.75c-4.67,2.51-9.11,5.78-12.86,9.93
									c-7.44,8.42-11.25,19.05-13.02,28.95c-1.74,9.97-1.69,19.31-1.05,27.06c0.6,7.79,1.87,14.02,2.87,18.27
									c1,4.26,1.86,6.55,1.35,6.87c-0.43,0.3-2.34-1.6-4.35-5.79c-2.01-4.16-4.23-10.5-5.62-18.61c-1.42-8.09-2.14-18-0.67-28.98
									c0.71-5.49,2.16-11.21,4.43-16.91c2.29-5.68,5.51-11.36,9.94-16.31c4.44-4.94,9.78-8.8,15.29-11.61
									c1.4-0.65,2.79-1.3,4.17-1.94c1.42-0.52,2.84-0.98,4.24-1.46c0.7-0.23,1.4-0.47,2.09-0.7c0.7-0.19,1.41-0.33,2.11-0.49
									c1.4-0.31,2.78-0.62,4.14-0.92c11-2.02,20.93-1.26,29.01-0.16c2.02,0.31,3.96,0.53,5.76,0.89c1.79,0.4,3.48,0.78,5.06,1.14
									c1.57,0.37,3.04,0.71,4.37,1.06c1.31,0.42,2.52,0.81,3.6,1.16C2030.2,2432.41,2032.49,2433.47,2032.36,2434.02z"/>
							</g>
						</g>
					</g>
				</g>
			</g>
		</g>
		<g>
			<path style="fill:#8C3030;" d="M1122.33,2399.83c-30.74-0.65-91.4,41.08-97.11,35.59c-5.71-5.49-210.7-70.18-317.53,8.35
				c-106.82,78.53-39.81,189.96,73.19,193.96c24.42,0.86,76.65-10.59,140.32-27.31c67.66-17.77,124.83-34.91,135.16-46.14
				l104.01-14.32L1122.33,2399.83z"/>
			<path style="fill:#F9C88F;" d="M1123.26,2411.52c-35.17,49.02-131.5,82.66-131.5,82.66l4.19,42.43
				c84.86-0.22,171.43-0.77,180.51,13.04L1123.26,2411.52z"/>
			<g>
				<path style="fill:#244E73;" d="M752.91,2482.68c-114.68,66.31-31.39,155.09,45.16,154.52c49.87-7.56,230.11-51.72,252.59-68.45
					c7.42-5.52,6.94-18.18-6.7-22.7c-27.71-9.17-85.22-2.24-85.22-2.24l-4.76-31.67c0,0,50.81-22.3,62.05-34.24
					c4.86-5.17-4.59-16.3-11.74-14.55C980.61,2469.13,827.57,2439.51,752.91,2482.68z"/>
				<g>
					<path style="fill:#8C3030;" d="M958.21,2548.17l-122.82,37.01c-16.54-13.66-23.97-36.75-8.94-83.03l127.59,7.26L958.21,2548.17
						z"/>
					<path style="fill:#8C3030;" d="M954.03,2509.4c38.33-9.47,47.84-26.26,81.5-36.71c34.88-10.83,47.6,75.72,15.53,80.45
						c-22.32,3.29-92.86-4.97-92.86-4.97L954.03,2509.4z"/>
					<g>
						<g>
							<g>
								<g>
									<path style="fill:#FFDEAF;" d="M876.8,2570.64c-0.28,0.4-4.59-1.94-10.52-7.13c-5.95-5.14-13.27-13.28-20.03-23.14
										c-6.79-9.85-11.9-19.38-15.28-26.4c-3.35-7.04-5-11.59-4.53-11.82c1.12-0.57,9.83,16.58,23.07,35.96
										c6.63,9.68,13.39,17.85,18.7,23.37C873.5,2567.04,877.16,2570.15,876.8,2570.64z"/>
								</g>
							</g>
							<g>
								<g>
									<path style="fill:#FFDEAF;" d="M870,2507.54c0.4,0.51-3.3,3.65-7.81,9.86c-2.18,3.16-4.71,6.96-6.98,11.53
										c-2.31,4.53-4.58,9.66-6.67,15.19c-4.1,11.08-7.01,21.46-9.12,28.98c-2.1,7.53-3.48,12.2-4.04,12.08
										c-0.52-0.1-0.12-4.97,1.28-12.72c1.42-7.74,3.92-18.39,8.13-29.75c2.14-5.67,4.59-10.93,7.17-15.53
										c2.54-4.63,5.44-8.47,8-11.53C865.29,2509.58,869.76,2507.16,870,2507.54z"/>
								</g>
							</g>
						</g>
						<g>
							<g>
								<g>
									<path style="fill:#FFDEAF;" d="M920.38,2559.41c-0.04,0.21-1,0.19-2.79-0.07c-0.89-0.14-1.9-0.55-3.12-0.93
										c-1.17-0.48-2.49-1.13-3.86-1.95c-2.75-1.67-5.62-4.21-8.43-7.33c-2.81-3.12-5.39-6.93-7.85-11.03
										c-4.86-8.25-8.12-16.24-10.28-22.05c-2.13-5.83-3.09-9.57-2.7-9.72c0.43-0.17,2.12,3.28,4.76,8.85
										c2.66,5.55,6.21,13.29,10.94,21.31c2.39,3.98,4.8,7.69,7.35,10.75c2.54,3.05,5.07,5.59,7.47,7.37
										C916.64,2558.23,920.51,2558.84,920.38,2559.41z"/>
								</g>
							</g>
							<g>
								<g>
									<path style="fill:#FFDEAF;" d="M915.11,2510.5c0.35,0.32-1.99,3.22-5.12,8.27c-3.15,5.03-6.93,12.34-10.33,20.78
										c-6.76,16.9-10.43,31.38-11.38,31.13c-0.7-0.14,1.63-15.02,8.53-32.29c3.47-8.61,7.68-15.99,11.39-20.85
										C911.89,2512.65,914.85,2510.24,915.11,2510.5z"/>
								</g>
							</g>
						</g>
						<g>
							<g>
								<g>
									<path style="fill:#FFDEAF;" d="M958.21,2548.17c-0.09,0.26-3.11-0.54-7.17-3.42c-4.06-2.84-8.77-7.93-12.77-14.23
										c-4.01-6.3-6.82-12.43-8.65-16.92c-1.81-4.5-2.65-7.39-2.35-7.52c0.33-0.14,1.74,2.5,3.94,6.79
										c2.22,4.27,5.24,10.18,9.14,16.31c3.9,6.13,8.17,11.14,11.77,14.19C955.7,2546.47,958.38,2547.8,958.21,2548.17z"/>
								</g>
							</g>
							<g>
								<g>
									<path style="fill:#FFDEAF;" d="M954.03,2509.4c0.59,0.33-4.53,10.82-10.3,24c-5.81,13.16-10.32,23.95-10.97,23.71
										c-0.6-0.22,2.91-11.44,8.75-24.69C947.33,2519.15,953.46,2509.08,954.03,2509.4z"/>
								</g>
							</g>
						</g>
						<g>
							<g>
								<path style="fill:#FFDEAF;" d="M941.04,2682.94c-0.37,0.2-1.72-1.38-3.5-4.72c-1.68-3.36-3.46-8.7-3.82-15.53
									c-0.36-6.81,0.74-14.98,3.48-23.39c2.64-8.47,6.65-17.25,11.09-26.17c4.44-8.93,8.83-17.24,12.06-24.98
									c1.59-3.87,2.98-7.58,3.81-11.1c0.53-1.76,0.7-3.46,1.03-5.11c0.08-1.63,0.37-3.23,0.23-4.71
									c-0.07-6.01-2.25-10.58-4.21-13.44c-0.84-1.55-1.84-2.52-2.33-3.37c-0.53-0.81-0.75-1.33-0.6-1.51
									c0.15-0.18,0.66,0,1.51,0.52c0.81,0.56,2.16,1.27,3.42,2.71c0.64,0.71,1.47,1.42,2.13,2.39c0.64,0.99,1.45,2.02,2.08,3.26
									c0.29,0.64,0.59,1.3,0.9,1.98c0.15,0.34,0.31,0.69,0.46,1.05c0.11,0.37,0.21,0.75,0.32,1.13c0.21,0.77,0.42,1.56,0.64,2.38
									c0.17,0.82,0.24,1.68,0.36,2.55c0.31,1.76,0.16,3.58,0.2,5.5c-0.21,1.86-0.3,3.87-0.75,5.82c-0.69,3.99-1.98,8.04-3.5,12.19
									c-3.09,8.29-7.4,16.83-11.8,25.69c-4.41,8.85-8.44,17.27-11.24,25.16c-2.91,7.86-4.34,15.21-4.6,21.41
									c-0.25,6.21,0.68,11.22,1.54,14.67C940.92,2680.73,941.48,2682.71,941.04,2682.94z"/>
							</g>
						</g>
						<g>
							<g>
								<path style="fill:#FFDEAF;" d="M861.09,2418.59c-0.14-0.55,2.15-1.6,6.46-3.05c1.08-0.35,2.29-0.73,3.6-1.16
									c1.33-0.35,2.8-0.69,4.37-1.05c1.58-0.35,3.27-0.73,5.06-1.13c1.8-0.35,3.74-0.58,5.76-0.88
									c8.08-1.08,18.01-1.83,29.01,0.21c1.36,0.3,2.75,0.61,4.14,0.93c0.7,0.16,1.4,0.31,2.11,0.49c0.69,0.23,1.39,0.47,2.09,0.7
									c1.4,0.48,2.82,0.94,4.23,1.46c1.38,0.64,2.77,1.29,4.17,1.95c5.51,2.82,10.84,6.69,15.27,11.64
									c4.42,4.96,7.63,10.64,9.91,16.33c2.26,5.7,3.7,11.43,4.4,16.92c1.45,10.99,0.72,20.9-0.71,28.98
									c-1.4,8.11-3.63,14.44-5.65,18.6c-2.02,4.18-3.92,6.08-4.36,5.78c-0.51-0.33,0.36-2.61,1.36-6.87
									c1.01-4.25,2.29-10.48,2.9-18.27c0.65-7.75,0.72-17.09-1-27.07c-1.75-9.9-5.55-20.54-12.97-28.97
									c-3.74-4.16-8.17-7.44-12.84-9.95c-1.19-0.59-2.38-1.18-3.55-1.76c-1.24-0.46-2.46-0.92-3.67-1.37l-1.81-0.68
									c-0.62-0.18-1.24-0.33-1.86-0.49c-1.24-0.33-2.46-0.65-3.67-0.96c-9.8-2.24-19.19-2.17-26.99-1.84
									c-1.96,0.11-3.83,0.13-5.6,0.28c-1.77,0.17-3.44,0.33-5,0.48c-1.57,0.13-3.03,0.26-4.38,0.37
									c-1.34,0.16-2.57,0.31-3.68,0.44C863.77,2419.13,861.22,2419.14,861.09,2418.59z"/>
							</g>
						</g>
					</g>
				</g>
			</g>
		</g>
		<path style="fill:#273343;" d="M1129.26,2389.91c233.94-97.78,729.59-374.01,937.6-357.69c192,15.06,169.88,199.09,72.54,261.26
			c-178.95,114.3-461.61,192.81-992.18,259.21C1124.29,2526.81,1129.26,2389.91,1129.26,2389.91z"/>
		<path style="opacity:0.3;fill:#231F20;" d="M1128.81,2417.65c-0.11,41.42,2.02,116.55,18.41,135.03
			c34.38-4.3,67.7-8.66,100.03-13.07C1200.62,2500.35,1164.45,2457.75,1128.81,2417.65z"/>
		<g>
			<path style="fill:#244E73;" d="M1209.37,2568.88c-33.52-2.53-56.69,10.51-97.46,8.47c-2.88,0.25-5.63-1.3-6.89-3.9
				c-24.26-49.88-40.94-100.77-50.18-152.64c-0.54-3.03,0.99-6.06,3.74-7.44c43.59-9,59.09-32.8,85.94-43.42
				c4.11-2.08,9.1,0.33,9.98,4.85c11.99,61.67,22.31,133.49,60.62,184.26C1218.01,2562.9,1214.16,2568.47,1209.37,2568.88z"/>
			<path style="opacity:0.3;fill:#231F20;" d="M1079.62,2407.23c5.82,46.84,29.07,98.04,42.71,119.01
				c-11.6-47.05-14.65-98.07-15.12-133.57C1099.26,2397.91,1090.46,2403.04,1079.62,2407.23z"/>
		</g>
		<path style="opacity:0.3;fill:#231F20;" d="M1850.81,2419.55c-75.35-38.66-310.83-127.43-440.25-171.95
			c-133.14,61.78-230.47,113.21-281.3,142.31c0,0-77.41-12.54-74.43,30.91c73.98,43.64,223.61,86.72,298.31,102.14
			C1572.6,2489.61,1705.36,2462.04,1850.81,2419.55z"/>
		<path style="fill:#273343;" d="M1776.25,2410.5c-129.44-37.41-278.77-132.11-552.04-261.17
			c-147.65-69.73-297.15-150.63-386.6-150.23c-208.41,0.94-208.01,193.42-133.93,265.39c80.98,78.69,512.98,257.81,1031.43,293.18
			C1757.93,2531.69,1776.25,2410.5,1776.25,2410.5z"/>
		<path style="opacity:0.3;fill:#231F20;" d="M1695.12,2554.62l57.81-151.34c-3.87-1.32-5.15-2.04-9.12-3.45
			c-20.97,46-45,102.32-99.12,150.15C1661.4,2551.67,1678.21,2553.22,1695.12,2554.62z"/>
		<g>
			<path style="fill:#244E73;" d="M1676.99,2565.23c32.66-0.03,54.05,13.58,93.69,14.49c2.77,0.43,5.56-0.81,6.99-3.12
				c27.51-44.33,47.76-90.1,60.9-137.29c0.77-2.76-0.47-5.65-3.02-7.12c-41.48-11.28-54.58-34.29-79.72-45.93
				c-3.82-2.2-8.84-0.32-10.05,3.79c-16.58,56.03-32.36,121.55-73.55,165.73C1669.1,2559.12,1672.38,2564.52,1676.99,2565.23z"/>
			<path style="opacity:0.3;fill:#231F20;" d="M1815.65,2425.08c-9.41,42.79-36.05,88.4-50.95,106.8
				c15.02-42.59,22.09-89.41,25.4-122.11C1797.38,2415.14,1805.49,2420.48,1815.65,2425.08z"/>
		</g>
		<g>
			<g>
				<path style="fill:#8C3030;" d="M480.93,2490.16c-48.3,8.76-92.96,8.76-141.26,0c-0.82-0.15-1.44-0.85-1.49-1.68l-1.85-31.98
					h147.94l-1.85,31.98C482.37,2489.32,481.75,2490.02,480.93,2490.16z"/>
			</g>
			<g style="opacity:0.15;">
				<path d="M336.15,2464.23c50.43,11.86,98.5,14.63,147.3,6.31l0.81-14.03H336.33L336.15,2464.23z"/>
			</g>
			<g>
				<path style="fill:#8C3030;" d="M484.46,2464.23c-49.44,8.42-98.88,8.42-148.31,0c-2.01-0.34-3.54-2.01-3.72-4.04l-20.48-233.39
					h196.68l-20.46,233.39C488,2462.21,486.47,2463.88,484.46,2464.23z"/>
			</g>
			<g style="opacity:0.15;">
				<path d="M313.17,2240.63c32.55,11.59,135.38,22.17,192.57,19.11l2.89-32.95H376.16l-63.12,12.34L313.17,2240.63z"/>
			</g>
			<g>
				<g>
					<path style="fill:#2484BF;" d="M519.25,2243.72c-72.39,5.28-145.02,5.24-217.89,0c-1.16,0-2.11-0.94-2.11-2.11v-7.24
						c0-1.16,0.94-2.11,2.11-2.11h217.89c1.16,0,2.11,0.94,2.11,2.11v7.24C521.35,2242.78,520.41,2243.72,519.25,2243.72z"/>
				</g>
				<g>
					<path style="fill:#2484BF;" d="M514.55,2233.29c-69.26,5.37-138.76,5.34-208.5,0c-1.27,0-2.3-1.03-2.3-2.3v-6.8
						c0-1.27,1.03-2.3,2.3-2.3h208.5c1.27,0,2.3,1.03,2.3,2.3v6.8C516.85,2232.26,515.82,2233.29,514.55,2233.29z"/>
				</g>
				<g>
					<path style="fill:#2484BF;" d="M506.47,2226.17c-64.6,4.59-128.72,4.56-192.35,0c-2.01,0-3.64-1.63-3.64-3.64v-14.23
						c0-2.01,1.63-3.64,3.64-3.64h192.35c2.01,0,3.64,1.63,3.64,3.64v14.23C510.12,2224.54,508.49,2226.17,506.47,2226.17z"/>
				</g>
				<g>
					<path style="fill:#2484BF;" d="M357.92,2206.45h-37.47v-12.84c0-3.83,2.94-6.93,6.57-6.93h30.91
						c6.28-0.52,24.08,17.97,51.39,19.58C409.3,2210.08,361.54,2206.45,357.92,2206.45z"/>
				</g>
			</g>
			<g style="opacity:0.5;">
				<g>
					<path style="fill:#8C3030;" d="M492.23,2233.99c0.04,0.34-6.39,1.29-16.84,1.98c-10.45,0.7-24.9,1.18-40.86,1.29
						c-15.96,0.1-30.4-0.12-40.86-0.47c-10.45-0.35-16.91-0.83-16.9-1.2c0.01-0.37,6.47-0.55,16.92-0.69
						c10.47-0.08,24.89-0.19,40.82-0.31c15.94-0.11,30.36-0.29,40.79-0.51C485.74,2233.88,492.19,2233.6,492.23,2233.99z"/>
				</g>
			</g>
		</g>
		<g>
			<g>
				<ellipse style="fill:#8C3030;" cx="2560.1" cy="2105.57" rx="167.09" ry="17.38"/>
			</g>
			<g style="opacity:0.5;">
				<ellipse style="fill:#8C3030;" cx="2560.1" cy="2105.57" rx="167.09" ry="17.38"/>
			</g>
			<g>
				<ellipse style="fill:#8C3030;" cx="2560.1" cy="2105.57" rx="167.09" ry="17.38"/>
			</g>
		</g>
		<g>
			<path style="fill:#3BB44A;" d="M2491.85,2180.49c-92.83-267.38-156.98-233.62-171.57-279.77c-12.15-38.43,23.46-4.28,66.24-4.28
				c29.4,0-205.25-202.48-124.69-196.09c63.41,5.03-22.14-50.95-12.49-57.99c88.19-64.37,269.45,251.94,271.9,489.4
				C2523.7,2369.22,2491.85,2180.49,2491.85,2180.49z"/>
			<path style="opacity:0.5;fill:#3BB44A;" d="M2491.85,2180.49c-92.83-267.38-156.98-233.62-171.57-279.77
				c-12.15-38.43,23.46-4.28,66.24-4.28c29.4,0-205.25-202.48-124.69-196.09c63.41,5.03-22.14-50.95-12.49-57.99
				c88.19-64.37,269.45,251.94,271.9,489.4C2523.7,2369.22,2491.85,2180.49,2491.85,2180.49z"/>
			<path style="opacity:0.5;fill:#3BB44A;" d="M2521.25,2131.76c-0.18-17.23,0.74-11.96-1.22-29.84
				c-35.44-53.46-79.84-100.07-124.27-121.84c26.58,35,59.05,93.72,96.09,200.41C2491.85,2180.49,2523.7,2369.22,2521.25,2131.76z"
				/>
		</g>
		<g>
			<path style="fill:#8C3030;" d="M2352.79,1525.42c-55.17,65.26,91.23-28.84,194.46,665.9c44.45,299.12,61.45,63.54,42.69,3.56
				c-18.76-59.98-47.09-345.9-42.04-441.03c9.01-169.71,2.37-406.25-48.93-316.61c-58.95,103.02-57.67-211.04-101.8-230.87
				c-82.15-36.91,23.61,230.98,3.61,216.84c-20-14.14-67.75-117.24-83.05-83.06c-25.54,57.08,111.06,180.37,96.14,200.71
				C2397.36,1563.38,2364.99,1510.99,2352.79,1525.42z"/>
			<path style="opacity:0.3;fill:#8C3030;" d="M2352.79,1525.42c-55.17,65.26,91.23-28.84,194.46,665.9
				c44.45,299.12,61.45,63.54,42.69,3.56c-18.76-59.98-47.09-345.9-42.04-441.03c9.01-169.71,2.37-406.25-48.93-316.61
				c-58.95,103.02-57.67-211.04-101.8-230.87c-82.15-36.91,23.61,230.98,3.61,216.84c-20-14.14-67.75-117.24-83.05-83.06
				c-25.54,57.08,111.06,180.37,96.14,200.71C2397.36,1563.38,2364.99,1510.99,2352.79,1525.42z"/>
			<path style="opacity:0.3;fill:#8C3030;" d="M2596.45,2237.2c-1.16-16.85-3.32-32.13-6.51-42.32
				c-6.56-20.97-14.29-69.59-21.35-128c-23.39-76.61-56.54-155.8-82.29-189.18c20.76,81.01,41.61,183.47,60.95,313.62
				c11.43,76.94,21.05,118.49,28.71,136.77C2585.02,2301.77,2593.5,2269.94,2596.45,2237.2z"/>
		</g>
		<g>
			<path style="fill:#026636;" d="M2778.35,1255.16c-29.27,39.73-40.01,178.38-92.87,325.11c-4.88,13.56-3.07-124.99-40.57-95.81
				c-8.98,6.98-2.03,43.93-0.66,111.06c3.11,152.01-40.15,537.33-31.55,585.48c17.52,98.09,54.26-486.8,194.79-649.03
				c51.02-58.9,75.03-70.37,44.15-83.29c-23.88-9.99-69.35,62.28-73.3,48.99c-10.95-36.74,101.22-181.27,73.3-188.62
				c-27.91-7.35-25.27-34.29-27.82-53.89C2821.29,1235.56,2802.42,1222.49,2778.35,1255.16z"/>
			<path style="opacity:0.5;fill:#026636;" d="M2778.35,1255.16c-29.27,39.73-40.01,178.38-92.87,325.11
				c-4.88,13.56-3.07-124.99-40.57-95.81c-8.98,6.98-2.03,43.93-0.66,111.06c3.11,152.01-40.15,537.33-31.55,585.48
				c17.52,98.09,54.26-486.8,194.79-649.03c51.02-58.9,75.03-70.37,44.15-83.29c-23.88-9.99-69.35,62.28-73.3,48.99
				c-10.95-36.74,101.22-181.27,73.3-188.62c-27.91-7.35-25.27-34.29-27.82-53.89C2821.29,1235.56,2802.42,1222.49,2778.35,1255.16z
				"/>
			<path style="opacity:0.5;fill:#026636;" d="M2614.82,2084.55c-3.07,48.34-4.36,83.87-2.12,96.44
				c9.19,51.46,23.68-85.07,55.66-249.92C2654.07,1979.29,2635.47,2039.95,2614.82,2084.55z"/>
		</g>
		<g>
			<path style="fill:#3BB44A;" d="M2788.89,1660.15c-55.72,3.98-131.54,440.73-149.25,531.56
				c-17.9,91.82,85.02-188.42,180.51-313.76c15.16-19.89,8.24-29.03,4.83-31.41c-16.22-11.33-34.49,29.13-52.97,25.69
				c-27.85-5.18,85.1-144.12,29.04-139.22C2762.98,1736.33,2845.42,1656.11,2788.89,1660.15z"/>
			<path style="opacity:0.3;fill:#3BB44A;" d="M2788.89,1660.15c-55.72,3.98-131.54,440.73-149.25,531.56
				c-17.9,91.82,85.02-188.42,180.51-313.76c15.16-19.89,8.24-29.03,4.83-31.41c-16.22-11.33-34.49,29.13-52.97,25.69
				c-27.85-5.18,85.1-144.12,29.04-139.22C2762.98,1736.33,2845.42,1656.11,2788.89,1660.15z"/>
			<path style="opacity:0.5;fill:#3BB44A;" d="M2660.83,2080.04c-9.61,49.64-17.01,90.27-21.18,111.68
				c-13.95,71.53,45.44-82.74,117.51-213.68C2721.46,2003.64,2685.05,2043.62,2660.83,2080.04z"/>
		</g>
		<g>
			<path style="fill:#244E73;" d="M2604.21,1543.65c56.12,20.36,6.55,491.52-1.76,590.08c-8.4,99.63-32.39-218.54-93.96-375.28
				c-9.77-24.88,0.01-32.25,4.21-33.7c19.99-6.91,26.95,40.01,46.95,41.88c30.14,2.81-45.41-173.02,10.79-151.61
				C2608.61,1629.55,2547.27,1523,2604.21,1543.65z"/>
			<path style="opacity:0.5;fill:#508DA0;" d="M2594.35,1999.1c-14.22,16.51-12.94-24.74-44.56-93.43
				c31.84,148.39,46.47,301.39,52.65,228.06c3.14-37.19,12.15-127.43,19.14-226.48C2612.04,1949.71,2601.36,1990.95,2594.35,1999.1z
				"/>
		</g>
		<g style="opacity:0.2;">
			<path style="fill:#E4DCCA;" d="M2813.72,1305.12c-14.86,25.66-28.18,52.23-38.76,79.9c-5.28,13.83-9.98,27.88-13.91,42.14
				c-3.95,14.26-7.16,28.72-9.8,43.27c-5.39,29.1-8.01,58.7-14.38,87.83c-3.22,14.54-7.6,28.9-13.73,42.54
				c-3.06,6.82-6.54,13.45-10.38,19.86c-3.76,6.28-6.96,12.92-9.85,19.68c-5.75,13.56-10.39,27.62-14.56,41.8
				c-4.15,14.19-7.76,28.55-11.06,42.98c-6.6,28.87-11.9,58.03-16.75,87.27c-4.84,29.24-9.04,58.59-12.8,87.99
				c-3.83,29.4-7.2,58.86-10.15,88.37c4.58-59.14,11.38-118.11,20.42-176.77c4.58-29.32,9.92-58.53,16.4-87.51
				c3.26-14.49,6.83-28.91,10.95-43.2c4.11-14.28,8.77-28.45,14.68-42.16c2.96-6.85,6.24-13.59,10.12-20.02
				c3.79-6.3,7.24-12.81,10.27-19.51c6.07-13.41,10.44-27.54,13.67-41.94c3.24-14.4,5.46-29.05,7.64-43.7
				c2.19-14.66,4.43-29.34,7.22-43.94c5.52-29.19,13.59-57.95,24.64-85.52C2784.67,1356.92,2798.29,1330.44,2813.72,1305.12z"/>
			<path style="fill:#E4DCCA;" d="M2580.78,1665.97c2.08,7.55,3.5,15.28,4.7,23.03c0.6,3.87,1.08,7.76,1.63,11.65l1.35,11.68
				c1.6,15.6,2.7,31.24,3.66,46.88c1.86,31.29,2.67,62.62,3.39,93.95c0.44,31.33,0.72,62.66,0.6,93.98l-0.29,46.99l-0.25,23.49
				l-0.05,11.74c0.01,3.91-0.06,7.83,0.16,11.74c-0.65-7.81-0.75-15.65-0.95-23.48l-0.47-23.49l-0.59-46.98l-0.54-46.97
				c-0.2-15.66-0.47-31.31-0.78-46.96c-0.45-31.31-1.31-62.61-2.64-93.88c-0.66-15.64-1.49-31.27-2.77-46.86
				C2585.7,1696.87,2584.14,1681.27,2580.78,1665.97z"/>
			<path style="fill:#E4DCCA;" d="M2401.22,1284.6c3.62,31.34,9.87,62.29,17.29,92.9c7.35,30.65,16.05,60.95,24.64,91.29
				c4.24,15.19,8.45,30.4,12.29,45.72c3.85,15.31,7.32,30.75,9.81,46.39c1.19,7.83,2.14,15.71,2.65,23.64
				c0.42,7.98,0.54,15.77,0.92,23.65c0.7,15.72,1.99,31.4,3.68,47.04c3.58,31.27,8.95,62.34,14.93,93.27
				c1.45,7.74,3.04,15.46,4.6,23.19c1.55,7.73,3.12,15.45,4.78,23.15c3.17,15.44,6.48,30.85,9.81,46.26l10.14,46.2l10.33,46.16
				l20.78,92.29l-22.16-91.98c-7.29-30.68-14.38-61.41-21.33-92.18c-6.99-30.76-13.64-61.6-19.72-92.56
				c-6.07-30.96-11.54-62.08-15.22-93.47c-1.71-15.7-3.14-31.46-3.77-47.25c-0.35-7.87-0.46-15.85-0.84-23.61
				c-0.47-7.81-1.38-15.6-2.54-23.36c-2.41-15.51-5.81-30.89-9.59-46.17c-3.76-15.29-7.94-30.49-12.09-45.69
				c-8.28-30.42-16.67-60.85-23.71-91.62C2409.88,1347.12,2404.29,1315.99,2401.22,1284.6z"/>
			<path style="fill:#E4DCCA;" d="M2323.81,1729.68c27.84,31.15,50.26,66.73,70.74,103.06c10.23,18.21,19.61,36.88,28.48,55.78
				c8.85,18.92,17.09,38.12,24.72,57.56c15.06,38.95,27.85,78.82,37.42,119.48c4.77,20.33,8.95,40.8,12.12,61.43
				c3.11,20.64,5.57,41.37,6.98,62.18c-2.14-20.75-4.89-41.41-8.52-61.93c-3.48-20.54-7.92-40.91-12.96-61.11
				c-5.12-20.18-10.64-40.27-17.03-60.08c-6.36-19.82-13.37-39.44-20.97-58.82c-15.01-38.84-32.56-76.69-52.38-113.32
				c-9.9-18.32-20.46-36.29-31.76-53.78C2349.36,1762.62,2337.3,1745.59,2323.81,1729.68z"/>
			<path style="fill:#E4DCCA;" d="M2742.17,1910.3l-6.05,15.46l-5.77,15.56l-5.64,15.6l-5.45,15.67
				c-7.19,20.92-14.3,41.86-21.06,62.93c-6.97,20.99-13.58,42.11-20.2,63.22c-1.67,5.27-3.32,10.55-4.93,15.84
				c-1.64,5.28-3.23,10.58-4.8,15.88c-3.22,10.58-6.4,21.18-8.93,31.96c0.52-2.71,0.91-5.47,1.54-8.16c0.61-2.7,1.2-5.41,1.85-8.1
				c1.33-5.38,2.62-10.76,4.04-16.12c1.4-5.36,2.87-10.7,4.37-16.03c1.47-5.34,2.98-10.66,4.51-15.98
				c6.14-21.28,12.78-42.4,19.52-63.5c7.01-21,14.09-41.99,21.79-62.76l5.87-15.54l6.07-15.46l6.44-15.32
				C2737.54,1920.36,2739.87,1915.33,2742.17,1910.3z"/>
		</g>
		<g>
			<path style="fill:#00A3FE;" d="M2672.42,2492.61c-74.87,24.8-149.75,24.8-224.62,0c-3.77-1.25-6.5-5.03-6.9-9.49l-32.94-359.86
				c101.43,18.91,202.87,18.91,304.3,0l-32.94,359.86C2678.91,2487.59,2676.19,2491.37,2672.42,2492.61z"/>
		</g>
		<g style="opacity:0.5;">
			<path style="fill:#8C3030;" d="M2414.73,2197.37c64.15,28.42,188,47.71,287.85,31.51l8.53-93.21
				c-29.43,5.9-87.84,9.52-151.02,10.15c-60.65,0.61-121.38-3.08-150.95-9.46L2414.73,2197.37z"/>
		</g>
		<g>
			<path style="fill:#00A3FE;" d="M2713.62,2193.64c-105.68,19.96-198.93,19.51-306.98-0.04c-3.53-0.64-6.25-3.92-6.61-7.97
				l-7.01-78.6c14.39,9.63,90.83,15.66,167.09,14.89c78.64-0.79,149.94-6.2,167.09-14.89l-7.02,78.65
				C2719.82,2189.71,2717.12,2192.98,2713.62,2193.64z"/>
		</g>
		<g style="opacity:0.3;">
			<g>
				<path style="fill:#FFFFFF;" d="M2411.15,2127.12c6.64,1.62,13.38,2.54,20.14,3.36c6.76,0.77,13.53,1.41,20.31,1.98
					c13.57,1.09,27.15,1.97,40.76,2.6c13.6,0.7,27.21,1.19,40.82,1.6c13.62,0.35,27.24,0.68,40.9,0.66
					c-13.58,1.49-27.26,2.15-40.92,2.3c-13.67,0.19-27.34-0.14-40.99-0.78c-13.65-0.71-27.29-1.75-40.87-3.45
					C2437.76,2133.67,2424.09,2131.64,2411.15,2127.12z"/>
			</g>
		</g>
	</g>
</g>
<g id="Layer_5">
</g>
<g id="Layer_7">
</g>
<g id="Layer_4">
</g>
</svg>
