<?xml version="1.0" encoding="utf-8"?>
<!-- Generator: Adobe Illustrator 27.0.1, SVG Export Plug-In . SVG Version: 6.00 Build 0)  -->
<svg version="1.1" id="Layer_1" xmlns="http://www.w3.org/2000/svg" xmlns:xlink="http://www.w3.org/1999/xlink" x="0px" y="0px"
	 viewBox="0 0 132 132" style="enable-background:new 0 0 132 132;" xml:space="preserve">
<style type="text/css">
	.st0{fill:#D54A30;stroke:#D54A30;stroke-miterlimit:9.9996;}
</style>
<g>
	<path class="st0" d="M127.4,93.5L82.8,19.4c-5.9-9.3-18.3-12-27.6-6.1c-2.4,1.6-4.5,3.6-6.1,6.1L4.5,93.5c-3.2,5.4-3.3,12-0.3,17.5
		c3.5,6.1,10,9.9,17.1,9.9h89.3c7,0.1,13.6-3.6,17.1-9.7C130.9,105.6,130.8,98.9,127.4,93.5z M66,97.5c-3.2,0-5.8-2.6-5.8-5.8
		c0-3.2,2.6-5.8,5.8-5.8c3.2,0,5.8,2.6,5.8,5.8C71.8,94.9,69.2,97.5,66,97.5z M71.8,74.2c0,3.2-2.6,5.8-5.8,5.8
		c-3.2,0-5.8-2.6-5.8-5.8V51c0-3.2,2.6-5.8,5.8-5.8c3.2,0,5.8,2.6,5.8,5.8V74.2z"/>
</g>
</svg>
