<?xml version="1.0" encoding="utf-8"?>
<!-- Generator: Adobe Illustrator 27.0.1, SVG Export Plug-In . SVG Version: 6.00 Build 0)  -->
<svg version="1.1" id="Layer_1" xmlns="http://www.w3.org/2000/svg" xmlns:xlink="http://www.w3.org/1999/xlink" x="0px" y="0px"
	 viewBox="0 0 2268.5 1616.4" style="enable-background:new 0 0 2268.5 1616.4;" xml:space="preserve">
<style type="text/css">
	.st0{fill:url(#SVGID_1_);}
	.st1{fill:#8FB0F8;}
	.st2{fill:#BBCEF9;}
	.st3{fill:#DBE3FC;}
	.st4{opacity:0.6;}
	.st5{fill:#F6F6F6;}
	.st6{fill:#FFD0C1;}
	.st7{fill:#BCBEC0;}
	.st8{fill:#EAD2B7;}
	.st9{fill:#33435A;}
	.st10{fill:#222D3D;}
	.st11{fill:#06529C;}
	.st12{fill:#D7765B;}
	.st13{fill:#263343;}
	.st14{fill:#FDC4B1;}
	.st15{fill:#D0E8F4;}
	.st16{fill:#E3E3E4;}
	.st17{fill:#FFFFFF;}
	.st18{fill:#CCCDCE;}
	.st19{fill:#9D9D9F;}
	.st20{fill:#EAEAEA;}
	.st21{fill:#FFBDB8;}
	.st22{opacity:0.12;}
	.st23{fill:#272426;}
	.st24{fill:#AAAAAB;}
	.st25{fill:#427CCC;}
	.st26{opacity:0.69;}
</style>
<linearGradient id="SVGID_1_" gradientUnits="userSpaceOnUse" x1="117.6774" y1="2055.2427" x2="2203.865" y2="2055.2427" gradientTransform="matrix(1 0 0 -1 0 2903.0642)">
	<stop  offset="0" style="stop-color:#D9E1FC"/>
	<stop  offset="1" style="stop-color:#E7EDFB"/>
</linearGradient>
<path class="st0" d="M2144.8,929.5c-36.2-39.8-79-78.7-90.1-132.7c-19.3-93.5,63.2-173.3,90.2-264.7c18.7-63.2,9-135.1-25.5-190.2
	s-93.3-92.3-155.3-98.3c-106.8-10.4-211.2,66-316.4,43.9c-84.2-17.7-150.8-95.9-236.2-104.3c-100.6-9.9-184,78.4-280.1,111.6
	c-114.9,39.7-239.5-1.8-352.4-47.4S547.2,151,428.1,172.8c-132.5,24.3-243.7,147-261.4,288.7c-17.6,140.4,129.8,253.1,4.3,421.7
	c-39.2,52.7-65.3,126-47.9,190.6c16.8,62.8,88.5,102.4,89,167.7c0.4,51.5-45.3,92.5-49,143.9c-3.2,44.1,26.7,84.8,63.4,105.7
	s79.2,26,120.6,30.7c0,0,1274.8,10.9,1604.6,3.9c33.9-0.7,68.6-1.6,100.2-14.7c31.6-13.1,59.9-41.1,64.7-76.8
	c8.2-60.7-51.5-113.4-46-174.4c7-78,110.3-108,130-183.5C2214.6,1023,2181,969.3,2144.8,929.5z"/>
<path class="st1" d="M458,1547.2c-63.9,12.8-145.4-56.9-171.7-132.9c-27-78.3,22.5-111.1,22.2-219.7
	c-0.4-123.4-64.6-142-107.1-308.3c-9.6-37.5-65-254.7,3.7-295.4c63.5-37.6,242,70.4,273.3,208.6c22.3,98.6-46.6,140-20.3,254.8
	c23.1,100.8,83.8,102.2,107.1,199.4C593.4,1371.9,541.9,1530.4,458,1547.2z"/>
<path class="st2" d="M351.1,1549.9c66.3-34.6,89-153.2,51.3-191.8c-25.5-26.1-62,1.3-97.3-25.7c-45-34.5-11.9-99.5-47.3-183.7
	c-30.1-71.7-102.3-139.6-144.5-125.6c-44.2,14.6-67.4,122.7-29.7,187.8c24.5,42.3,62.1,44.4,70.2,83.7
	c9.4,45.7-36.2,66.5-36.5,110.8C116.9,1484.9,263.3,1595.6,351.1,1549.9z"/>
<path class="st1" d="M315.3,1580.3c0.4,0,0.8-0.1,1.2-0.3c1.3-0.7,1.9-2.3,1.2-3.6l0,0c-87.9-181.2-113.7-391.4-114-393.5
	c-0.2-1.5-1.5-2.5-3-2.4s-2.5,1.5-2.4,3l0,0c0.2,2.1,26.1,213.2,114.5,395.2C313.3,1579.7,314.2,1580.3,315.3,1580.3z"/>
<path class="st3" d="M134.8,1237.1c-0.3,0-0.6-0.2-0.8-0.4c-22.4-28.8-37.5-56.8-44.9-83.3c-5.9-21.3-6.9-41.6-3-60.4
	c6.8-32.1,25.9-49,26.1-49.2c0.4-0.4,1.1-0.3,1.5,0.1c0.4,0.4,0.3,1.1-0.1,1.5c-0.2,0.2-18.9,16.7-25.4,48.2
	c-6,29.1-2.7,77.3,47.6,141.9c0.4,0.5,0.3,1.1-0.2,1.5c0,0,0,0,0,0C135.3,1237,135.1,1237.1,134.8,1237.1z"/>
<g class="st4">
	<path class="st5" d="M1087,1336.3c-50.2,0.2-100.4,1.4-150.5,7.2c-18.9,2.2-37.4,7-56.3,8.9c-37.8,3.9-75,11.1-112.9,14.4
		c-30.6,2.7-61.3,4.3-91.7,7.7c-28.6,3.2-60.2,2.5-88.6-2.8c-21-3.9-42.1-6.1-62.7-12.4c-23.1-7-48.2-12-72.2-11.9
		c-34.3,0.3-67.7,0.3-100.5,12.7c-11.5,4.3-25.6,11.5-34.4,20.6c-20,20.9-22.7,73-2.7,94.7c33.7,36.5,105.6,50.8,152.8,51.4
		c51.7,0.7,102-3.3,153.8-5.6c48.2-2.2,96.2-5.3,144.4-5.2c98.5,0.2,197,0,295.4-6.8c92.4-6.4,185-4.2,277.6-4.2
		c94.9,0,189.2,0.8,283.5,13.9c41.1,5.7,82.9,7.7,124.2,11.7c37,3.6,72.5-0.1,109.3-3.4c30.9-2.8,61.6-11,89.7-25
		c22.2-11,61.9-45.4,68.7-71.8c19.1-73.9-269.4-72.2-313.7-72c-49.6,0.2-99.5,1.9-149-0.1c-20.8-0.8-41.3-5.1-61.7-9.7
		c-20.2-4.6-40.6-3.4-61.2-5.4c-85.6-8.1-171.4-6.9-257.3-6.9C1142.9,1336.5,1115,1336.2,1087,1336.3z"/>
</g>
<g>
	<g>
		<polygon class="st6" points="644,547.1 646.8,517 634,515.2 627.5,535.4 621.8,531.8 622.5,557.9 635.6,561.5 		"/>
		<polygon class="st7" points="453.5,698.6 587.7,648 621.3,554.2 638.2,560.3 635.7,676.8 510.1,768.2 		"/>
	</g>
	<g id="XMLID_132_">
		<polygon class="st8" points="1170.9,804.6 1169.4,819.7 1141.7,825.9 1128,812.3 1130.2,794.9 1145,796 1146,792.2 1151.2,789.7 
					"/>
	</g>
	<g>
		<g>
			<g>
				<polygon class="st9" points="1821.4,1038.8 1827.3,1176.1 1810,1409.4 1784,1411.3 1752.5,1199.3 1708.9,1020 				"/>
				<polygon class="st10" points="1785,1422.2 1814,1434.2 1827.1,1419.2 1812,1406.2 1784,1408.2 				"/>
			</g>
			<g>
				<polygon class="st9" points="1637.7,990.3 1632,1094 1648.9,1402.5 1674.9,1403.8 1713.8,1201.5 1748.2,979.6 				"/>
				<polygon class="st10" points="1674.2,1414.7 1645.4,1427.4 1632,1412.6 1646.8,1399.3 1674.9,1400.7 				"/>
			</g>
			<g>
				<path class="st11" d="M1788.8,684.7l-81.1-8.7c0,0-45.1,4.8-75.7,112c-17,59.6-22.2,153.5-23.5,225.1c1.9,10.2,13,55,60.1,47.4
					c80.8-13,123.8-26.1,159-19.5c30,6.5,27.4-34.8,24.1-66.2l-11.9-97.4L1788.8,684.7z"/>
			</g>
			<g>
				<path class="st12" d="M1773.1,583.7c-20.4-4.5-41.5-8.5-61.9-4.5c-4.5,0.9-9.3,2.4-11.7,6.3c-0.9,1.5-1.4,3.2-1.9,4.9
					c-5.2,19.2-11.7,47.6,0.9,65.3c2.4,3.4,5.6,6,9.1,8.2c4.6,2.9,9.8,4.9,15.1,5.9c-1.1,4.8-2.6,9.4-4.6,13.9
					c4.7,7.1,26.5,7.9,30.5,1.1c0.2-5.9,0.5-11.7,0.7-17.6c2.7-1.1,5.2-2.4,7.6-4c9.3-6.1,15.5-15.5,19-25.9
					c3.9-11.4,9.4-22.2,12.9-33.7c1.3-4.2,2.3-9,0.1-12.8c-2.4-4.1-7.5-5.4-12-6.5C1775.7,584.3,1774.4,584,1773.1,583.7z"/>
				<path class="st13" d="M1705.1,594.7c10.1-6.5,25.3-9.3,34.8-8.6c28.7,2.1,39.2,23.2,40.8,49.6c7.9-10.1,22.8-22.7,23.7-35.6
					c0.7-10.6-0.7-25-6.7-34.2c-5.6-8.6-19.8-13.3-28.2-18.2c-8-4.7-15.9-9.4-23.9-14c-1.7-1-3.4-2-5.2-2.3
					c-2.2-0.4-4.5,0.2-6.7,0.8c-18.8,4.9-37.6,9.7-56.4,14.6c-3.6,0.9-7.7,2.3-9.1,5.8c-0.8,2.1-0.3,4.5,0.2,6.7
					c2.1,9.8,6.2,19.7,7.3,29.6c1.1,5.7,4.6,35.2,14.8,31.8c3-4.9,3.4-10.9,5.8-16.1C1697.7,600.6,1701,597.3,1705.1,594.7z"/>
			</g>
		</g>
	</g>
	<g id="XMLID_113_">
		<g id="XMLID_115_">
			<g id="XMLID_129_">
				<g id="XMLID_131_">
					<path class="st10" d="M1431.8,1373.9c2.8-3,6-4.7,9.7-4.1c3.5,0.6,6.7,2.9,8.1,6.1c1,2.2,1.2,4.6,1.4,7
						c1,12.2,0.9,41.3-15.4,45.5c-6.9,1.8-12.5-3.1-14.4-9.3C1418.5,1409.7,1422.6,1384,1431.8,1373.9z"/>
				</g>
				<g id="XMLID_130_">
					<path class="st14" d="M1426,1189.2l0.9,74.7c-1,33.2,4.2,66.5,3.2,99.7c-0.2,7.6-2.2,15.7-0.3,23.2c1.9,7.4,7.9,8.7,14.1,5
						c8.3-5,6.9-16.7,8.3-25.3c3.8-23.5,8.2-46.9,12.2-70.3c1.9-11.5-2.1-27.6-1.2-39.3l12.1-62.6L1426,1189.2z"/>
				</g>
			</g>
			<g id="XMLID_128_">
				<polygon class="st9" points="1511.4,1068.5 1478.9,1212.9 1472,1349.2 1420.4,1348.1 1406.4,966.7 1506.3,968.5 				"/>
			</g>
			<g id="XMLID_123_">
				<g id="XMLID_125_">
					<g id="XMLID_127_">
						<path class="st10" d="M1358.1,1371.1c2.9-2.9,6.2-4.4,9.8-3.6c3.5,0.8,6.5,3.3,7.8,6.6c0.9,2.2,1,4.7,1.1,7
							c0.5,12.3-0.8,41.4-17.3,44.6c-6.9,1.4-12.3-3.9-13.9-10.1C1343.3,1406.3,1348.5,1380.8,1358.1,1371.1z"/>
					</g>
					<g id="XMLID_126_">
						<path class="st14" d="M1385.3,1199.6l-4.4,74.6c-0.4,20.7-3.1,41.3-5.3,61.9c-2,19.1,1.1,39-8.9,56.4
							c-3.1,5.5-9.5,9.1-13.9,2.5c-3.4-5.1-1.4-13.6-2-19.4c-2.7-23.6-6-47.2-8.8-70.8c-1.4-11.6,3.4-27.5,3-39.2l-9.1-63.1
							L1385.3,1199.6z"/>
					</g>
				</g>
				<g id="XMLID_124_">
					<polygon class="st9" points="1320.1,1059.7 1315.9,1199.8 1337.9,1341.5 1390.3,1343.1 1388,1189.7 1415.7,1062.5 1425,979.3 
						1341.9,969.5 					"/>
				</g>
			</g>
			<g id="XMLID_122_">
				<polygon class="st15" points="1385.9,682.7 1475.5,680.5 1527.5,777.2 1509,867.7 1505.7,976 1377.9,977.7 1335.8,970.9 
					1347,855.2 1340.6,700.6 				"/>
			</g>
			<g id="XMLID_121_">
				<polygon class="st15" points="1371.8,746.3 1339.4,845.5 1291.1,862.9 1159,827.3 1176.8,799.8 1293,803.6 1340.8,704.9 				"/>
			</g>
			<g id="XMLID_116_">
				<g id="XMLID_120_">
					<path class="st14" d="M1391.5,607.6c13.5-39.3,65.4-24.6,76,10.4c7,22.8-10.6,52.4-34.3,59c-0.1,0.9-0.2,1.7-0.2,2.4
						c0,3.7-0.5,7.3-1,10.9c-0.2,1.4-20.9-2.6-23.2-3.1c-0.8-0.2-1.7-0.4-2.1-1.1c-0.8-1.3,0.5-5.1,0.7-6.6c0.2-1.7,0.4-3.4,0.5-5.1
						c-11.7-5.7-19-17.8-21.1-30.2C1384.8,632,1387.4,619.4,1391.5,607.6z"/>
				</g>
				<g id="XMLID_117_">
					<g id="XMLID_119_">
						<path class="st13" d="M1425.3,572.1c2.8,2.8,3.9,6.8,4.7,10.5c0.5,2.3,0.9,4.6,0.4,6.8c-1.9,8.9-10.8,8.5-17.6,11.3
							c-8.4,3.5-15.7,10.1-20.4,17.6c-7.4,11.8-4.1,26.9-1.1,39.9c1.1,4.6,3.2,11.4-0.4,15.5c-3.6,4.1-11.9,3.5-16.3,1.4
							c-3.9-1.9-7.2-5.6-11.5-6.3c-4.6-0.8-10.8,1.2-12.9-3c-0.6-1.2-0.6-2.6-1.4-3.7c-2.5-3.6-8.8,0.6-12.4-1.9
							c-2.2-1.6-2.2-4.9-1.4-7.6c0.7-2.6,2-5.3,1.5-8c-0.4-2.3-2.1-4.1-3.1-6.3c-2-4.2-1.3-9.6,1.7-13.1c5.6-6.5,16.6-5.3,22.6-11.4
							c3.2-3.2,4.4-7.8,5.5-12.2c1.2-4.4,2.6-9,6-11.9c4.2-3.7,10.2-3,14.3-7.4c2.4-2.5,4-5.9,6.7-8.1c3.6-2.9,10.5-5.2,15-6.7
							C1412.2,565.3,1420.1,566.8,1425.3,572.1z"/>
					</g>
					<g id="XMLID_118_">
						<path class="st13" d="M1458.1,634.8c0.2,12.9-6.2,26.9-0.2,38.3c6,11.5,21,13.6,33.8,14.2c2.1,0.1,29,2.4,29.2,1.9
							c2-9,4.1-18.2,8.8-26.1c4.7-7.9,12.6-14.5,21.6-15c-2.6-0.5-3.9-3.6-3.6-6.3c0.3-2.7,1.7-5.1,2.5-7.7c2-6.3,0.1-13.7-4.7-18.2
							c-9.5-8.9-26.8-5.2-35-15.4c-5.1-6.3-4.5-15.5-7.1-23.2c-5.1-14.9-21.5-18.1-33.7-24.8c-12.9-7.1-25.1-11-39.9-8.5
							c-18.5,3.1-32.2,21.9-25.1,39.6c9.1,22.7,45.6,20.7,52.5,43.8C1457.8,629.6,1458.1,632.2,1458.1,634.8z"/>
					</g>
				</g>
			</g>
		</g>
		<g id="XMLID_114_">
			<polygon class="st16" points="1449,682.2 1421.2,721.4 1408.1,720.4 1386.3,680.5 			"/>
		</g>
	</g>
	<g>
		<polygon class="st10" points="729.8,1392.8 727.7,1408.7 757.4,1428.6 775.3,1414.8 761.5,1396.9 731.8,1377 		"/>
		<g>
			<polygon class="st9" points="728.8,1387.5 751.7,1185.2 724.1,958.6 730.3,910.5 853.4,905.8 857.8,984.2 837.2,1185.5 
				759.4,1397.8 			"/>
		</g>
		<g>
			<polygon class="st9" points="943.7,928.5 944,1132.6 902.9,1395.5 873.3,1395.2 857.1,1152.1 819,908.8 			"/>
			<polygon class="st10" points="873.4,1407.7 905.2,1424 921.3,1408.2 905.5,1392 873.5,1391.7 			"/>
		</g>
		<g>
			<path class="st11" d="M711.4,997.9c0.3-8.8,0.8-16.2,0.8-18.9c0.6-23.7,2.7-47.4,5.7-71c2.7-21.1,6-73.6,9.6-94.5
				c3-17.3,13.4-60.6,20.9-76.7c18.7-40,12.9-43.7,95-55.5c36-5.2,44.5,17.2,73.9,43c2.9,2.5,2.7,17.7,3.4,21.7
				c1.2,7.1,2.5,14.1,3.9,21.1c1.1,5.5,2.4,11,3.8,16.5l0,0c0,0,24.7,112.4,41,136.2c16.3,23.9,50.1,57.2-6.4,77.6
				c-10,3.2-20.1,6.3-30.5,8c0,0-46.1-5.1-69.9-5c-21.9,0.2-43.8,2.4-65.3,6.1c-14.4,2.4-29,5.9-41.9,12.6
				c-12.3,6.4-21.1,15.8-33.6,22.5c-1.2,0.6-2.5,1.3-3.8,1.1C711.1,1041.6,710.8,1016.5,711.4,997.9z"/>
		</g>
		<g>
			<path class="st6" d="M843.6,692.6c-4.1,2-13.9,2.8-24.1-1.2c-2.1-0.8-3.4-2.8-3.4-5c0.1-6.2,0.6-12.4,1.5-18.5
				c-7.6-2.7-16.5-6.7-17.8-14.7c-0.4-2.5,0-5.1,0.5-7.6c1.8-10.4,3.6-20.8,5.4-31.2c0.6-3.6,1.3-7.3,3.2-10.4
				c3.4-5.4,10.1-7.8,16.4-8.9c16.1-2.8,33.7,0.7,46.1,11.2c3.3,2.8,6.3,6.2,7.8,10.3c2.3,6.3,0.6,13.3-1.1,19.8
				c-1.6,6-3.1,12-4.7,18c-1.8,6.9-4.4,14.7-11.1,17.3c-3.5,1.4-7.7,1-10.9,3C845.7,678.2,846.5,686.6,843.6,692.6z"/>
			<path class="st13" d="M936.5,588.8c1.6-2.6,3.3-5.1,5.2-7.5c4.1-5.1,9.2-9.5,12.5-15.1c3.3-5.7,4.5-13.3,0.5-18.5
				c-2.6-3.4-6.7-5-10.8-6.2c-13.4-3.9-27.8-4.2-41.3-0.8c-12.9,3.3-24.4,8.7-37.3,3.9c-12.2-4.5-21-2.7-33.7,1.8
				c-13.8,4.9-32.2,6.1-44.7,13c-5.2,2.9-9.4,7.4-12.6,12.4c-11.2,17.3-11.3,41.2-0.2,58.6c2.5,3.9,5.5,7.5,8.6,10.9
				c6.5,7,14.3,15.7,23.2,18.4c0.2-8-7.1-33.2-0.9-39.7c9.7-10.4,31.8-6.8,43.9-4.2c13.2,2.8,24.9,12.1,38,14.1
				c9.4,1.4,21.4-3.2,29.4-8C926.2,615.8,930.8,598.3,936.5,588.8z"/>
		</g>
		<polygon class="st11" points="775.3,696.7 724.1,741.5 667,861.6 739.2,947.5 751.6,899.4 		"/>
	</g>
	<g>
		<g>
			<polygon class="st11" points="442.6,1041 327.5,1005.9 362,1202.1 358.2,1373.3 357.9,1374.5 358.2,1374.5 358.2,1374.9 
				380.6,1375.7 380.6,1375.7 381.4,1375.7 422.4,1221.1 439.5,1057.9 439.5,1057.9 			"/>
			<polygon class="st10" points="379.9,1383.5 356.8,1384.3 352,1404.1 352.6,1404.2 352.4,1404.2 391.8,1424.7 410.1,1425.6 
				411.2,1404.8 406.1,1401.5 			"/>
		</g>
		<g>
			<polygon class="st11" points="531.4,1039.7 516.8,1379.8 494.5,1382.1 461.7,1200.7 412.5,1021.1 			"/>
			<polygon class="st10" points="517.2,1387.6 547.7,1402.7 545.7,1416.8 492.4,1411.9 494.4,1391.6 			"/>
		</g>
		<g>
			<path class="st7" d="M299.1,1102c-4-57.3,42.1-241.2,42.1-241.2l0,0c4.9-17.3,8.6-34.9,10.6-52.4c1.4-12.5,34.7-155,32.2-155.1
				c25.7,1.2,75.1-6.3,94.7,11.4c0.6,0.5,1.1,1,1.6,1.6c15.3,16.5,24,50.5,31.6,71.4c10,27.4,17.9,55.6,23.5,84.3
				c4.9,25.1,8.2,50.4,10.7,75.8c2.1,21.8,1.5,43.6,2.9,65.1c1.5,23.8,9.4,49.4,15.4,72.5c6,23.2,13.5,46.1,23.5,67.9
				c-25.2,12-53.5,15.9-81.4,16.8c-27.9,0.9-55.8-1-83.7,0.2c-23.6,1-47.4,4.3-70.6,0.2C333.6,1117.1,316.4,1109.4,299.1,1102
				L299.1,1102z"/>
		</g>
		<g>
			<path class="st13" d="M470.3,590.8c11.9,5.5,24.5,20.1,24.2,34c-0.2,6.7-3.7,12-3.6,19.2c0.1,14.2-20.9,29.6-7.4,42.9
				c6.9,6.8,17.5,7.9,27.3,8.6c1.2,0.1,2.4,0.2,3.5-0.3c1.8-0.8,2.6-3,2.5-4.9c-0.1-1.9-0.9-3.8-1.5-5.6c-6.7-19.2,2-42.1,2.5-61.8
				c0.5-19.7-4.7-40.9-21.2-53.3c-10.7,3.6-18.7,8.4-23.7,18.6L470.3,590.8z"/>
			<path class="st6" d="M465.4,675.1c13.3-2.1,24.4-12.2,30.3-24.4c5.9-12.1,7.2-26,6.9-39.4c-1.1-44.8-56.6-46.3-78-13.7
				C405.9,626.1,426.7,681,465.4,675.1z"/>
		</g>
	</g>
	<g>
		<rect x="1547.2" y="939.7" class="st17" width="441.1" height="284.7"/>
		<g>
			<polygon class="st17" points="1929.6,843.3 1767.8,843.3 1606,843.3 1535.6,926.3 1767.8,926.3 2000,926.3 			"/>
			<rect x="1535.6" y="926.3" class="st18" width="464.4" height="29.9"/>
			<polygon class="st19" points="1680.6,871.4 1669.2,884.8 1853.8,884.8 1842.4,871.4 			"/>
		</g>
		<polygon class="st20" points="1547.2,956.2 1988.3,997.3 1988.3,956.2 		"/>
		<polygon class="st5" points="1579,1028 1952.2,1016.4 1943.9,1028 1958.5,1041.9 1946.5,1062.6 1958.5,1074.3 1949.6,1082.2 
			1967.4,1111.5 1941.8,1132.6 1954.3,1145.5 1582.4,1155.9 1590.3,1141.7 1579,1141.7 1590.8,1109.9 1571.4,1094.6 1582.9,1078.7 
			1578.2,1070.6 1587.7,1056.5 1571.4,1037.2 		"/>
		<g>
			<path class="st9" d="M1656.9,1090.4c-2.2-23.6-24.4-51.5-50.4-44.7c-1.9,0.5-3,1.7-3.5,3.1c-0.7,1.1-1.1,2.6-0.7,4.3
				c6.1,26.1,11.2,52.3,15.2,78.8c0.5,3.3,3.3,5,6,5.1c8.3,2.8,19.3-8.1,23.8-13.8C1654.4,1113.9,1657.9,1102,1656.9,1090.4z
				 M1641.7,1111.5c-1.7,3.1-3.9,6-6.5,8.4c-1.8,1.8-3.8,3.3-6.1,4.5c-0.7,0.2-1.3,0.4-1.8,0.6c-3.7-23.3-8.2-46.5-13.4-69.6
				c16.7-0.6,30.3,20.2,31.9,35.1C1646.6,1097.8,1645.2,1105.2,1641.7,1111.5z"/>
			<path class="st9" d="M1694.7,1050.8c-7.9-2.4-16.4-0.6-22.8,7.5c-9.4,11.9-9.5,30.1-6.1,44.2c3.2,13.6,11.8,29.8,27.3,31.6
				c22.3,2.6,25-21.5,25.2-38.1c0.1-9.3-1.5-19-5-27.6C1709.8,1059.7,1702.6,1053.2,1694.7,1050.8z M1692.8,1122.6
				c-25.9-6.4-22.5-73.4,3.8-59.9c8.6,4.4,10.1,19.3,10.6,27.8C1707.8,1100.7,1708.5,1126.5,1692.8,1122.6z"/>
			<path class="st9" d="M1765.3,1052.5c-0.1,0.7-0.1,1.3-0.2,2c-0.1,0.7,0,1.3,0.2,1.8c0.1,12.6,0.1,25.2,0.2,37.7
				c-1.5-3.5-3.2-6.9-4.9-10.3c-6.1-12.4-12-25.4-21.7-35.4c-3.4-3.5-9.3-0.5-9.3,4.1c0.3,24.6,1.1,49.1,2.4,73.7
				c0.4,7,11.4,6.8,11-0.3c-1-18.8-1.7-37.7-2.1-56.5c3.8,6.5,7,13.6,10.3,20.2c6.3,12.8,11.6,25.9,14.6,39.8
				c1.3,6.2,10.8,4.3,10.7-1.7c-0.1-25.1-0.2-50.3-0.3-75.4C1776.2,1045,1765.8,1045.6,1765.3,1052.5z"/>
			<path class="st9" d="M1837.8,1118.7c-6.3-24.8-13.9-49.3-22.6-73.4c-1.9-5.2-9-5-10.6,0.2c-7.9,25.4-13.5,51.4-16.8,77.8
				c-0.9,6.9,9.8,9.7,10.7,2.7c1.1-8.9,2.5-17.6,4.1-26.4c6.1-0.7,12.3-1,18.4-0.9c2.2,7.7,4.3,15.4,6.3,23.1
				C1829,1128.7,1839.5,1125.6,1837.8,1118.7z M1804.7,1088.5c1.7-7.9,3.6-15.7,5.7-23.5c2.6,7.6,5,15.2,7.3,22.8
				C1813.4,1087.9,1809.1,1088.1,1804.7,1088.5z"/>
			<path class="st9" d="M1877.1,1039.3c-16.1,2.3-32,5.2-47.9,8.8c-6.9,1.5-3.7,12.1,3.2,10.5c6.8-1.5,13.5-2.9,20.3-4.2
				c0.4,22.3,1.3,44.5,2.9,66.7c0.5,7,11.5,6.8,11-0.3c-1.6-22.8-2.6-45.6-2.9-68.4c4.6-0.8,9.1-1.5,13.7-2.2
				C1884.2,1049.2,1884.1,1038.2,1877.1,1039.3z"/>
			<path class="st9" d="M1928.3,1115.5c-8.7,0.4-17.4,0.8-26,1.1l-0.5-24.1c4.3-0.2,8.6-0.2,12.9,0.1c3,0.2,5.4-2.8,5.4-5.6
				c-0.1-3.2-2.6-5.2-5.6-5.4c-4.3-0.3-8.6-0.3-12.9-0.1l-0.7-30.8c7.6,0.1,15.2,0.4,22.7,0.9c7.1,0.5,6.8-10.5-0.3-11
				c-7.5-0.5-14.9-0.8-22.4-0.9c-9.7-0.1-11.2,5.3-11,13.7c0.2,7.7,0.3,15.5,0.5,23.2c0.3,14.7,0.6,29.4,1,44.1c0,0.2,0,0.5,0,0.7
				c0.1,3.2,1.3,6.6,5.3,6.4c10.6-0.5,21.2-0.9,31.8-1.4C1935.6,1126.1,1935.4,1115.2,1928.3,1115.5z"/>
		</g>
	</g>
	<polygon class="st12" points="1610.4,902.3 1611.3,917.2 1629.8,939 1640.9,927.8 1632,908 1636.5,900.8 1629.1,892.7 	"/>
	<polygon class="st11" points="1707.7,676 1677.7,685.1 1568.3,799.8 1561.7,837.6 1614.1,924 1628.2,892.3 1606.1,828.5 
		1641.2,803.7 1688.2,698.1 	"/>
	<g>
		<g>
			<g>
				<g>
					<path class="st21" d="M1256,670.5c-48.2-10.2-112.7,8.5-132.7,48.8c-9.3-44.1-80.6-79.5-129.8-81.6
						c-129.8-5.6-191.7,134.4-149.7,239.1c22.6,56.4,58.9,107.7,99.6,154.9c34.1,39.5,124,125.4,124.4,125.2
						c0.3,0.3,108.8-60.6,151.7-90.4c51.2-35.5,99.2-76.3,135.1-125.2C1421.5,850.5,1383.1,697.4,1256,670.5z"/>
				</g>
				<g class="st22">
					<path d="M1325.6,948.1c-37,35.2-78.7,67.4-123,94c-42.8,25.7-91.8,46.6-143.1,49.2c-24.6,1.2-48.2-2.3-69.9-10.4
						c36.9,37.3,77.3,75.8,77.5,75.6c0.3,0.3,108.8-60.6,151.7-90.4c51.2-35.5,99.2-76.3,135.1-125.2c11.6-15.8,20.1-33.6,25.4-52.2
						C1363.2,909.9,1345,929.6,1325.6,948.1z"/>
				</g>
			</g>
		</g>
		<path class="st17" d="M1414.6,992.6c1.7-14.7-8.7-28-23.4-29.8c-14.7-1.8-28.1,8.7-29.9,23.4c0,0,0,0,0,0l-31.7,112.2
			c-7.5,26.4-25.5,48.6-49.8,61.3l-89.1,46.4l65.5-76.8c1.1-1.1,2.1-2.2,3-3.5l0,0l0,0c2.2-3.2,3.8-7,4.3-11.1
			c1.6-13.5-8-25.8-21.5-27.5c-6.1-0.7-12,0.8-16.8,4.1l0,0l-88.7,63.4c-38.3,27.4-63.4,69.6-69.1,116.4l-6.3,52.1
			c-4.3,35.3,20.8,67.4,56.1,71.7c13.6,1.7,26.8-1.1,38-7.1c3.1-1.6,6-3.5,8.8-5.6l182.2-116.9c24.3-15.6,40.4-41.2,43.8-69.8
			L1414.6,992.6L1414.6,992.6z"/>
		<path class="st17" d="M771.4,914.3c1.8-14.7,15.2-25.1,29.9-23.3c14.7,1.8,25.2,15.2,23.4,29.9c0,0,0,0,0,0l3.8,116.5
			c0.9,27.4,13.1,53.3,33.7,71.4l75.4,66.4l-45.1-90.3c-0.8-1.3-1.5-2.7-2-4.1l0,0l0,0c-1.4-3.6-2-7.7-1.5-11.8
			c1.6-13.5,13.9-23.2,27.5-21.5c6.1,0.7,11.5,3.7,15.3,8l0,0l70.9,82.8c30.7,35.8,44.9,82.8,39.2,129.6l-6.3,52.1
			c-4.3,35.3-36.4,60.4-71.7,56.1c-13.6-1.7-25.7-7.5-35.2-16c-2.6-2.3-5-4.9-7.2-7.6l-148.9-157.2c-19.8-21-29.3-49.7-25.8-78.3
			L771.4,914.3L771.4,914.3z"/>
	</g>
	<g>
		<g id="XMLID_112_">
			<polygon class="st8" points="1404.4,994.1 1417.6,1001.5 1412,1029.4 1394,1036.4 1379,1027.3 1386,1014.2 1382.9,1011.8 
				1382.8,1006 			"/>
		</g>
		<g id="XMLID_111_">
			<polygon class="st15" points="1479.3,700.8 1510,752.7 1508.6,880.2 1428.5,1007.7 1399.8,992.9 1462.9,880.2 1451.4,792.5 			
				"/>
		</g>
	</g>
	<polygon class="st23" points="1781.5,692.9 1858.8,665.1 1907.2,550.3 1933.9,552.1 1902.3,678.2 1874.2,710.1 1779.1,757.9 	"/>
	<polygon class="st12" points="1928.2,551.7 1935.1,538.4 1930.3,510.3 1915,514.2 1912.5,535.7 1905,539.6 1907.2,550.3 	"/>
	<g>
		<g>
			<g>
				
					<ellipse transform="matrix(0.7071 -0.7071 0.7071 0.7071 75.0339 1559.5409)" class="st7" cx="1920" cy="689.2" rx="155" ry="155"/>
			</g>
		</g>
		<g>
			<g>
				
					<ellipse transform="matrix(0.7071 -0.7071 0.7071 0.7071 75.0338 1559.5409)" class="st18" cx="1920" cy="689.2" rx="131.6" ry="131.6"/>
			</g>
		</g>
		<g>
			<g>
				<path class="st19" d="M1988.7,576.8c13.1,20.4,20.8,44.7,20.8,70.8c0.1,72.7-58.7,131.7-131.4,131.8c-25.2,0-48.8-7-68.9-19.3
					c23.4,36.5,64.4,60.6,111,60.5c72.7-0.1,131.5-59.1,131.4-131.8C2051.6,641.4,2026.4,599.9,1988.7,576.8z"/>
			</g>
		</g>
		<g>
			<g>
				<path class="st5" d="M1811.5,701.4c-0.1-64.2,51.8-116.2,116-116.4c37.5-0.1,70.9,17.6,92.2,45.2
					c-20.1-34.8-57.8-58.2-100.8-58.1c-64.2,0.1-116.1,52.2-116,116.4c0,26.7,9.1,51.2,24.2,70.8
					C1817.2,742.3,1811.6,722.5,1811.5,701.4z"/>
			</g>
		</g>
		<g>
			<path class="st24" d="M1930.8,604.2l0,16.8c6.7,1.1,12.2,3.3,16.5,6.6c4.3,3.4,8.4,8.5,12.3,15.5l-16.7,9.4
				c-5-9.1-11.6-13.7-19.7-13.7c-5,0-9.2,1.5-12.5,4.5c-3.3,3-4.9,6.7-4.9,11.1c0,4,1.4,7.4,4,10.1c2.6,2.6,7.9,5.7,15.9,9.3
				c6.9,3.1,12.6,6.1,17.1,8.8c4.5,2.8,7.9,5.4,10.2,8c6.5,6.9,9.7,15.4,9.7,25.2c0,9.7-2.9,18.3-8.7,25.7
				c-5.7,7.4-13.4,12.3-23.1,14.9l0,17.7l-15,0l0-17.2c-11.2-1.8-19.7-5.6-25.6-11.5c-5.9-5.9-10.2-14.9-13-27.2l18.8-4
				c2.6,8.7,5.7,14.8,9.4,18.5c3.9,3.5,9,5.3,15.5,5.3c6.3,0,11.5-2,15.7-6.1c4.2-4,6.2-9.2,6.2-15.5c0-5.6-1.8-10.2-5.2-13.6
				c-1.8-1.6-4.4-3.5-7.8-5.6c-3.5-2.1-7.9-4.3-13.2-6.8c-11.1-4.9-18.3-9.5-21.8-13.6c-5.5-6.2-8.3-13.6-8.3-22.3
				c0-4.1,0.6-7.9,1.9-11.5c1.3-3.5,3.2-6.7,5.7-9.6c2.5-2.9,5.5-5.4,9.2-7.5c3.6-2.1,7.8-3.8,12.4-5l0-16.8L1930.8,604.2z"/>
		</g>
	</g>
	<g>
		<g>
			<path class="st17" d="M717.1,981.9c-8-17.8-22-31.1-39.2-37.8c0.1-2.5,0.1-5,0.1-7.5c0-26-5.1-51.2-15.1-74.9
				c-9.7-22.9-23.6-43.5-41.2-61.1c-17.7-17.7-38.2-31.5-61.1-41.2c-23.7-10-48.9-15.1-74.9-15.1c-26,0-51.2,5.1-74.9,15.1
				c-22.9,9.7-43.5,23.6-61.1,41.2c-17.7,17.7-31.5,38.2-41.2,61.1c-10,23.7-15.1,48.9-15.1,74.9c0,26,5.1,51.2,15.1,74.9
				c9.7,22.9,23.6,43.5,41.2,61.1c17.7,17.7,38.2,31.5,61.1,41.2c23.7,10,48.9,15.1,74.9,15.1c26,0,51.2-5.1,74.9-15.1
				c1-0.4,2.1-0.9,3.1-1.4l8.7,6.9c8.4,6.7,16.8,13.1,21,16.3c3,2.2,5.5,4.1,7.2,5.4c1.2,0.9,2.3,1.7,3.3,2.3c1,0.7,3.6,2.3,7.3,2.3
				c0,0,0,0,0.1,0c0.8,0,1.6,0,2.2-0.1l1,0l0.8-0.5c2.1-0.8,4.4-2.5,9.4-6.2c1.1-0.8,2.8-2.1,4.9-3.6l2-1.5c2.1-1.6,4.5-3.4,7.1-5.3
				c9.9-7.5,23.3-17.8,30.9-24.6c20.3-18.1,35.1-35.6,45.2-53.5C726.5,1030,727.3,1004.4,717.1,981.9z"/>
		</g>
		<g>
			<g>
				<g>
					<g>
						<g>
							<g>
								<g>
									<path class="st25" d="M487.1,1116.3c-24.3,0-47.8-4.8-69.9-14.1c-21.4-9-40.6-22-57.1-38.5c-16.5-16.5-29.5-35.7-38.5-57.1
										c-9.4-22.2-14.1-45.7-14.1-69.9s4.8-47.8,14.1-69.9c9-21.4,22-40.6,38.5-57.1c16.5-16.5,35.7-29.5,57.1-38.5
										c22.2-9.4,45.7-14.1,69.9-14.1c24.3,0,47.8,4.8,69.9,14.1c21.4,9,40.6,22,57.1,38.5c16.5,16.5,29.5,35.7,38.5,57.1
										c9.4,22.2,14.1,45.7,14.1,69.9s-4.8,47.8-14.1,69.9c-9,21.4-22,40.6-38.5,57.1c-16.5,16.5-35.7,29.5-57.1,38.5
										C534.9,1111.6,511.4,1116.3,487.1,1116.3z M487.1,775.1c-43.2,0-83.7,16.8-114.3,47.3c-30.5,30.5-47.3,71.1-47.3,114.3
										c0,43.2,16.8,83.7,47.3,114.3c30.5,30.5,71.1,47.3,114.3,47.3s83.7-16.8,114.3-47.3c30.5-30.5,47.3-71.1,47.3-114.3
										c0-43.2-16.8-83.7-47.3-114.3C570.9,791.9,530.3,775.1,487.1,775.1z"/>
								</g>
								<g>
									<rect x="478.1" y="766" class="st25" width="18.1" height="341.3"/>
								</g>
							</g>
							<g>
								<rect x="326.5" y="871.8" class="st25" width="324.2" height="18.1"/>
							</g>
							<g>
								<rect x="321.1" y="975.4" class="st25" width="329.9" height="18.1"/>
							</g>
							<g>
								<path class="st25" d="M479.1,1114.5c-1-0.7-24.8-17.4-48.8-48.2c-14.1-18.1-25.3-37.5-33.4-57.4
									c-10.1-25.1-15.3-51.2-15.3-77.7c0-26.5,5.2-52.1,15.3-76.1c8.1-19.1,19.4-37.2,33.6-53.8c24.1-28.2,48.1-42.2,49.1-42.8
									l9,15.7c-0.2,0.1-22.7,13.3-44.8,39.4c-12.9,15.1-23.1,31.6-30.4,49c-9.1,21.6-13.7,44.7-13.7,68.6c0,24.1,4.7,48,14,70.9
									c7.4,18.4,17.8,36.3,30.9,53.1c22.3,28.7,44.6,44.3,44.8,44.5L479.1,1114.5z"/>
							</g>
							<g>
								<path class="st25" d="M497.5,1114.5l-10.3-14.8c0.2-0.2,22.9-16.1,45.2-45c13-16.8,23.3-34.6,30.7-53
									c9.2-22.8,13.8-46.5,13.8-70.6c0-24.1-4.7-47.3-13.9-69c-7.4-17.4-17.7-33.9-30.7-49.1c-22.1-25.9-44.2-38.7-44.4-38.9
									l9-15.7c1,0.6,25,14.6,49.1,42.8c14.2,16.6,25.5,34.7,33.6,53.8c10.2,24,15.3,49.6,15.3,76.1c0,26.5-5.1,52.6-15.3,77.7
									c-8.1,20-19.3,39.3-33.4,57.4C522.3,1097.1,498.5,1113.8,497.5,1114.5z"/>
							</g>
						</g>
					</g>
				</g>
			</g>
			<g>
				<g>
					<g>
						<path class="st21" d="M658.6,952.3c-17.5-1.5-39.7,7.9-45,23.1c-5.2-15.2-32.1-24.7-49.6-23.4c-46.3,3.6-62.2,56-42.8,91.3
							c10.5,19,25.6,35.7,42,50.7c13.8,12.5,49.4,39.2,49.6,39.1c0.1,0.1,36-26.2,49.9-38.6c16.6-14.8,31.9-31.3,42.6-50.3
							C725.1,1009,704.8,956.4,658.6,952.3z"/>
					</g>
					<g class="st22">
						<path d="M695.3,1047.8c-11.6,14.1-25,27.3-39.6,38.7c-14.1,11-30.6,20.5-48.7,23.6c-8.7,1.5-17.2,1.2-25.2-0.7
							c14.7,11.6,30.7,23.6,30.8,23.5c0.1,0.1,36-26.2,49.9-38.6c16.6-14.8,31.9-31.3,42.6-50.3c3.4-6.1,5.7-12.8,6.8-19.6
							C707,1032.6,701.3,1040.4,695.3,1047.8z"/>
					</g>
				</g>
			</g>
		</g>
	</g>
	<g>
		<g>
			<path class="st6" d="M305.9,983c1.7,6.6,13.3,20.6,20.5,21.6c16.8,2.5,3.6-15.7,0.5-23c2.9-0.3,5.7-0.6,8.4-1.4
				c2.5-0.8-13.5-19.4-16.7-20.5c-7.7-2.5-10.7,1.7-17.3,5.3C303,970.9,304.4,976.9,305.9,983z"/>
		</g>
		<polygon class="st7" points="381.6,669 235.1,854.6 298.9,972.9 328.5,964.9 296.9,865.3 337.2,813.3 417.6,750.8 		"/>
	</g>
	<path class="st13" d="M398.4,682.4c6.8-2.2,13.6-4.5,18.7-10.5c8.3-9.6,10.4-27.4,14.1-39.2c3.9-12.5,8.6-25.9,19.6-32.9
		c7.2-4.6,14.6-4.4,22.7-3.2c5.5,0.8,5.4,2.9,10.5,0.8c3.9-1.7,8.1-7.9,9.6-11.7c2.5-6.4,1-13.9-2.5-19.9
		c-5.4-9.1-12.8-14.4-23-16.4c-35.8-6.8-66.3,10-82.2,43.4c-7.7,16-7.2,35.4-15.1,50.8c-4.9,9.5-12.4,15.1-16.8,25.3
		c-11.4,26.5-32.6,59.4-36.2,88.2c-0.1,1.1-0.2,2.3,0.5,3.1c1.4,1.7,4.1,0.4,5.8-1c9.8-8.2,19.6-16.4,29.4-24.5
		c3.9-3.2,7.8-6.5,10.6-10.6c7-10.3,6.8-25.3,16.4-33.2C385.7,686.2,392.1,684.4,398.4,682.4z"/>
	<polygon class="st6" points="763.6,951.5 789.8,966.6 796.7,955.7 781,941.4 786.7,937.7 762.7,927.6 754,938 	"/>
</g>
<path class="st1" d="M1731.5,1586.1c0,0,61.2-76.9,51.2-149.5s-59.6-64-81.7-21s-41.9,37.1-28.8-3.3s29.6-66.7,2.4-106.9
	s-30-57.3-14.7-93.2s34.5-86.7-26.3-104.9s-121.3,37.6-107.2,110.5c14.2,72.9,22.7,80.9,3.2,107.9s-11.4,38.1-8.6,55.7
	s-27.1,21.7-26.4-3.1s38.6-83.2,12.7-110.5s-76.7-27.6-89.7,35.5s28.7,91.4,26.6,114.2s-24.4-11.8-43.9,11.5s6.8,41.5,26.1,54.1
	s48.4,35.2,20.7,51.6s-53.9,0.7-37,51.3L1731.5,1586.1z"/>
<path class="st3" d="M1605.7,1159.9c-1.9,1.1-3.8,2.3-5.5,3.8c-1.7,1.4-3.3,3-4.7,4.7c-2.9,3.4-5.4,7.1-7.5,11.1
	c-4,8.1-6.4,16.9-7,25.9c-0.1,1.1-0.2,2.2-0.2,3.4s-0.1,2.2-0.1,3.4v3.4l0.2,3.3l0.1,1.7l0.2,1.7l0.3,3.3c0.3,2.2,0.6,4.4,1,6.6
	s0.8,4.4,1.3,6.6l0.8,3.2l0.8,3.2l3.1,12.6c4.1,16.7,8.1,33.5,11.2,50.3s5.2,33.8,4.7,50.6c-0.1,4.2-0.4,8.3-0.9,12.5
	c-0.5,4.1-1.3,8.2-2.3,12.2c-1,4-2.4,7.9-4,11.6c-1.8,4.2-3.2,8.6-4.3,13c-2,8.6-3.4,17.3-4.3,26.1c-0.9,8.7-1.6,17.3-2.2,26
	c-1.2,17.3-2.2,34.5-4.7,51.5c-0.3,2.1-0.6,4.2-1,6.3s-0.8,4.2-1.2,6.3s-1,4.2-1.4,6.2c-0.3,1-0.6,2-0.9,3.1s-0.6,2.1-0.9,3.1l-1,3
	c-0.3,1-0.8,2-1.2,3c-0.8,2-1.7,3.9-2.6,5.8c-1.9,3.8-4.4,7.3-7.2,10.6l0.7,0.7c3.1-3.1,5.9-6.5,8.2-10.3c2.2-3.8,4.2-7.7,5.8-11.8
	c3.1-8.2,5.5-16.6,7.2-25.2c3.5-17.1,5.2-34.5,7.1-51.6c1-8.6,1.8-17.2,3-25.7c1.1-8.4,2.7-16.7,4.8-24.9c1.1-3.9,2.5-7.8,4.1-11.6
	c1.9-4.2,3.4-8.4,4.6-12.8c1.2-4.3,2.1-8.8,2.8-13.2c0.6-4.4,1.1-8.9,1.2-13.4c0.8-17.8-1.5-35.4-4.4-52.6s-7.2-34.2-11.8-50.9
	c-1.2-4.2-2.3-8.3-3.5-12.5l-0.9-3.1l-0.8-3c-0.6-2-1-4.1-1.5-6.1s-0.8-4.1-1.3-6.2l-0.5-3.1c-0.2-1-0.3-2.1-0.4-3.1
	c-0.5-4.1-0.8-8.3-0.8-12.5c0-4.2,0.3-8.3,1-12.4c0.7-4.1,1.8-8.1,3.2-12c0.8-1.9,1.6-3.9,2.6-5.7c0.9-1.9,2-3.7,3.2-5.4
	c2.3-3.6,5.2-6.7,8.4-9.4L1605.7,1159.9z"/>
<path class="st3" d="M1736,1420.3c-1.8,13.6-4.4,27.1-7.6,40.4c-1.6,6.7-3.4,13.3-5.3,19.8c-0.5,1.6-1,3.3-1.5,4.9s-1,3.2-1.6,4.9
	c-1,3.2-2.2,6.4-3.3,9.7s-2.4,6.4-3.8,9.5s-2.7,6.3-4,9.4c-2.9,6.2-5.9,12.2-9.3,18.1s-7,11.6-11,17.1c-4.1,5.5-8.4,10.7-13.1,15.8
	l0.7,0.7c5.4-4.4,10.4-9.2,14.9-14.5c4.5-5.3,8.6-10.9,12.3-16.8c3.7-5.9,7-12,10-18.3c1.4-3.2,2.9-6.3,4.2-9.5s2.5-6.5,3.8-9.7
	s2.3-6.6,3.3-9.9c0.5-1.7,1-3.3,1.5-5s1-3.3,1.4-5c1.8-6.7,3.4-13.4,4.7-20.2c2.7-13.6,4.2-27.3,4.7-41.2L1736,1420.3z"/>
<g class="st26">
	<path class="st17" d="M1011.6,308.8c0.1,0.1,0.3,0.2,0.5,0.2c0.4,0,37-2.1,52.7-3.6c2.8-0.3,5.2-2.2,6.1-4.8
		c2.3-6.8,3.9-13.8,4.7-20.9c0-0.4-0.2-0.7-0.6-0.8c-0.4,0-0.7,0.2-0.8,0.6c-0.8,7-2.4,14-4.7,20.7c-0.7,2.2-2.6,3.7-4.9,3.9
		c-15.7,1.5-52.3,3.6-52.6,3.7s-0.7,0.3-0.6,0.7l0,0C1011.4,308.5,1011.4,308.6,1011.6,308.8z"/>
</g>
</svg>
