<?xml version="1.0" encoding="utf-8"?>
<!-- Generator: Adobe Illustrator 26.3.1, SVG Export Plug-In . SVG Version: 6.00 Build 0)  -->
<svg version="1.1" id="Layer_1" xmlns="http://www.w3.org/2000/svg" xmlns:xlink="http://www.w3.org/1999/xlink" x="0px" y="0px"
	 viewBox="0 0 400 300" style="enable-background:new 0 0 400 300;" xml:space="preserve">
<style type="text/css">
	.st0{fill:#5E3B3B;}
	.st1{fill:#026636;}
	.st2{fill:#198F34;}
	.st3{fill:#3BB44A;}
	.st4{fill:#976063;}
	.st5{fill:#2D2D2D;}
	.st6{fill:#1D1D1B;}
	.st7{fill:#FFFFFF;}
	.st8{fill:#FCB47E;}
	.st9{fill:#4F3737;}
	.st10{fill:#B0B0B5;}
	.st11{fill:#00A3FE;}
	.st12{fill:#FFC457;}
	.st13{fill:#7FB6C9;}
	.st14{fill:#015C7A;}
	.st15{fill:#FFF9EE;}
	.st16{fill:#273343;}
	.st17{fill:#D54A30;}
	.st18{fill:#C4E8E8;}
	.st19{fill:#9E2880;}
	.st20{fill:#C8E6FA;}
	.st21{fill:#FF6B57;}
	.st22{fill:#FEFEFE;}
	.st23{fill:#59204D;}
</style>
<g>
	<g>
		<rect x="33.8" y="290.8" class="st0" width="358.6" height="1.4"/>
	</g>
</g>
<g>
	<g>
		<path class="st1" d="M294.1,196.4l7,3.2c0.3-0.3,0.6-0.6,0.9-0.9c0.4-0.4,0.9-0.8,1.4-1.1c4.6-3.2,11-4.7,16-2.1
			c3.3,1.7,5.9,5,9.6,5.5c6,0.8,10.1-6.3,15.9-8.1c6.6-2.1,14.3,2.9,20.5-0.2c5-2.5,6.2-9.1,4.6-14.6c-0.2-0.7-0.5-1.5-0.8-2.1
			c-2.8-6.1-8.5-10.8-15.1-12.3c-6.6-1.5-13.8,0.3-19,4.7c-5.4,4.6-9,12-15.9,13.8c-3.3,0.9-6.9,0.2-10.3,0.8c-2.9,0.5-6,2.4-8.8,5
			c-2.2,2.1-4.2,4.7-5.6,7.4C294.4,195.8,294.2,196.1,294.1,196.4z"/>
	</g>
</g>
<g>
	<g>
		<g>
			<g>
				<path class="st2" d="M280.5,199.5l-0.8-0.8c0.3-0.3,0.6-0.6,0.9-0.9c0.9-0.9,1.9-1.7,2.9-2.4c2.7-2,5.8-3.3,8.8-4.6
					c0.4-0.2,0.8-0.3,1.2-0.5c4.4-1.9,8.5-1.3,12.5-0.7c3.9,0.5,7.9,1.1,12.2-0.6c3.2-1.2,5.7-3.5,8.2-5.7c3-2.6,6.1-5.3,10.3-6.3
					c4.8-1.1,12.4,0.9,17.7,2.5l-0.3,1.1c-3-0.9-12.1-3.7-17.1-2.5c-3.9,0.9-6.7,3.4-9.8,6.1c-2.5,2.2-5.2,4.6-8.5,5.9
					c-4.6,1.8-8.8,1.2-12.8,0.7c-4-0.6-7.8-1.1-11.9,0.7c-0.4,0.2-0.8,0.3-1.2,0.5c-3.1,1.3-6,2.5-8.5,4.4c-1,0.7-1.9,1.5-2.8,2.4
					C281,199,280.8,199.2,280.5,199.5z"/>
			</g>
		</g>
	</g>
</g>
<g>
	<g>
		<path class="st3" d="M301.7,150c0.4,5.4,0.4,12.2-4.4,14.8c-2,1.1-4.4,1.1-6.4,2.1c-3.4,1.7-5,5.8-5,9.6
			c-0.1,4.7,0.4,10.2,0.9,15.4c0,0.4,0.1,0.9,0.1,1.3l12.1,5.5c0.1-0.4,0.1-0.8,0.2-1.2c0.1-1.1,0.2-2.3,0.3-3.6c0.2-2,0.3-4,0.6-6
			c0.9-5.9,2.9-10.9,10-10.8c3,0.1,6.1,1.9,9,1c4.6-1.4,4.7-7.8,6.8-12c2-4,6.3-6.5,10.6-7.7c4.3-1.2,8.9-1.3,13.3-1.9
			c9.8-1.4,19.5-5.7,25.9-13.2c6.4-7.5,9.1-18.6,5.3-27.7c-3.8-9.1-14.7-15.2-24.2-12.2c-10.1,3.2-16.4,15.1-26.9,16
			c-3.9,0.3-7.9-0.9-11.8-0.6c-6.5,0.6-11.9,5.8-14.4,11.8C301.4,136.8,301.3,143.5,301.7,150z"/>
	</g>
</g>
<g>
	<g>
		<g>
			<g>
				<path class="st2" d="M281.6,206.2l-1.1-0.3c0.4-1.5,0.7-3.2,1.1-4.9c1.2-5.8,2.5-12.4,6.9-15.7c9.7-7.5,11.8-14.6,13.8-21.5
					c1.9-6.6,3.7-12.8,12.3-17.7c2.8-1.6,8-2,14-2.6c14-1.2,33.2-2.9,38.9-19.6l1.1,0.4c-5.9,17.4-25.6,19.1-39.9,20.3
					c-5.9,0.5-11,0.9-13.6,2.4c-8.2,4.7-9.9,10.4-11.8,17.1c-2,6.8-4.2,14.4-14.2,22.1c-4,3.1-5.3,9.4-6.5,15.1
					C282.3,203,282,204.6,281.6,206.2z"/>
			</g>
		</g>
	</g>
</g>
<g>
	<g>
		<path class="st3" d="M173.7,148.3c4.8-0.3,10.7-0.2,12.9,4c0.9,1.7,0.9,3.8,1.8,5.6c1.4,3,5,4.4,8.4,4.5c4.1,0.1,9-0.3,13.5-0.7
			c0.4,0,0.8-0.1,1.1-0.1l4.9-10.6c-0.3-0.1-0.7-0.1-1-0.2c-1-0.1-2-0.2-3.1-0.3c-1.7-0.2-3.5-0.3-5.2-0.6c-5.1-0.8-9.5-2.6-9.3-8.8
			c0.1-2.7,1.7-5.3,0.9-7.9c-1.2-4-6.8-4.2-10.5-6.1c-3.5-1.8-5.6-5.6-6.6-9.3c-1-3.8-1.1-7.8-1.6-11.7c-1.2-8.6-4.8-17.1-11.4-22.8
			s-16.2-8.1-24.2-4.9c-8,3.3-13.4,12.8-10.8,21.1c2.8,8.8,13.1,14.5,13.8,23.7c0.3,3.4-0.9,6.9-0.6,10.3c0.5,5.7,5,10.4,10.2,12.7
			C162.1,148.5,168,148.6,173.7,148.3z"/>
	</g>
</g>
<g>
	<g>
		<g>
			<g>
				<path class="st2" d="M220.3,175.3l-0.3,1c-1.3-0.4-2.8-0.7-4.3-1c-5.1-1.1-10.8-2.3-13.7-6.1c-6.5-8.6-15.2-23.2-15.2-23.2
					s-20.7-7-21.1-12.3c-0.9-12.3-2.2-29.1-16.8-34.2l0.3-0.9c15.2,5.3,16.5,22.5,17.5,35.1c0.4,5.2,24,11.9,24,11.9
					s-13,8.7-7.2,10.5c5.9,1.8,12.6,3.8,19.3,12.6c2.7,3.6,8.2,4.7,13.1,5.8C217.5,174.7,218.9,175,220.3,175.3z"/>
			</g>
		</g>
	</g>
</g>
<g>
	<g>
		<g>
			<g>
				<path class="st4" d="M217,150.6l-5.3,11.4l-1.4,0.1c-4,0.4-9.2,0.8-13.6,0.7c-3.2-0.1-7.2-1.4-8.8-4.7c-0.4-0.9-0.7-1.9-0.9-2.8
					c-0.2-1-0.4-1.9-0.9-2.8l0.9-0.5c0.5,0.9,0.7,2,1,3c0.2,0.9,0.4,1.8,0.8,2.6c1.4,3,5,4.1,7.9,4.2c4.3,0.1,9.4-0.3,13.4-0.7
					l0.9-0.1l4.5-9.7c-0.1,0-0.2,0-0.4-0.1c-1.1-0.1-2.2-0.2-3.1-0.3l-0.4,0c-1.6-0.1-3.2-0.3-4.8-0.5c-4.6-0.7-9.9-2.4-9.8-9.2
					c0,0,0-0.1,0-0.1c0-1.1,0.3-2.2,0.6-3.3c0.4-1.6,0.8-3,0.4-4.4c-0.8-2.5-3.5-3.4-6.4-4.3c-1.3-0.4-2.7-0.9-3.9-1.5l0.5-0.9
					c1.1,0.6,2.4,1,3.7,1.4c3,0.9,6.1,1.9,7,5c0.5,1.7,0.1,3.3-0.4,4.9c-0.3,1-0.5,2.1-0.6,3.1c0,0,0,0.1,0,0.1
					c-0.1,6,4.4,7.5,8.9,8.2c1.6,0.2,3.2,0.4,4.8,0.5l0.4,0c0.9,0.1,2,0.2,3.1,0.3c0.4,0.1,0.7,0.1,1.1,0.2L217,150.6z"/>
			</g>
		</g>
	</g>
</g>
<g>
	<g>
		<g>
			<g>
				<g>
					<path class="st5" d="M302.6,77v208.9c0,2.9-2.4,5.3-5.3,5.3H194.6c-2.9,0-5.3-2.4-5.3-5.3V77c0-2.9,2.4-5.3,5.3-5.3h102.7
						C300.2,71.7,302.6,74,302.6,77z"/>
				</g>
			</g>
		</g>
	</g>
</g>
<g>
	<g>
		<path class="st6" d="M297.8,77v208.9c0,2.9-2.4,5.3-5.3,5.3H189.8c-2.9,0-5.3-2.4-5.3-5.3V77c0-2.9,2.4-5.3,5.3-5.3h102.7
			C295.5,71.7,297.8,74,297.8,77z"/>
	</g>
</g>
<g>
	<g>
		<g>
			<g>
				<g>
					<path class="st7" d="M292.4,94.4v173.5c0,3.5-2.7,6.4-6,6.4H196c-3.3,0-6-2.9-6-6.4V94.4c0-3.5,2.7-6.4,6-6.4h90.4
						C289.7,88,292.4,90.9,292.4,94.4z"/>
				</g>
			</g>
		</g>
	</g>
</g>
<g>
	<path class="st0" d="M255.4,79.3h-28.5c-0.4,0-0.8,0.4-0.8,0.8c0,0.4,0.4,0.8,0.8,0.8h28.5c0.4,0,0.8-0.4,0.8-0.8
		S255.8,79.3,255.4,79.3z"/>
</g>
<g>
	<g>
		<g>
			<g>
				<g>
					<g>
						<g>
							<path class="st8" d="M219.2,277.6l-11-11l9.6-7.8l9.1,10.9c0,0,0.6,1.5-1.3,5.2C223.6,278.5,219.2,277.6,219.2,277.6z"/>
						</g>
					</g>
				</g>
			</g>
		</g>
	</g>
	<g>
		<g>
			<g>
				<g>
					<g>
						<g>
							<g>
								<g>
									<path class="st9" d="M220.4,286l25.3-14.4c0.9-0.5,1.2-1.6,0.6-2.5c0,0,0,0,0,0c-0.1-0.2-0.3-0.4-0.4-0.6
										c-0.5-0.6-1-1.2-1.6-1.4c-2.1-0.9-4.9-0.3-9.9,0.4c-3.2,0.5-6.2,0.3-7.5,0.2c-0.4,0-0.8,0.3-0.9,0.7
										c-2.2,7.7-5.9,8.5-7.9,7c-1.6-1.1-2.4-0.2-2.4,0.4c0,1.9,1.9,6.3,2.8,8.5c0.1,0.2,0.2,0.5,0.3,0.6c0.2,0.4,0.3,0.6,0.3,0.6
										C219.2,286,219.9,286.3,220.4,286z"/>
								</g>
							</g>
						</g>
					</g>
				</g>
			</g>
		</g>
		<g>
			<g>
				<g>
					<g>
						<path class="st7" d="M234.7,268.3c0-0.5-0.1-0.8-0.1-0.9l-0.5,0.1c0,0,0.4,2.1-0.9,3.1l0.3,0.4
							C234.5,270.3,234.7,269.1,234.7,268.3z"/>
					</g>
				</g>
			</g>
			<g>
				<g>
					<g>
						<path class="st7" d="M237.4,268c0-0.5-0.1-0.8-0.1-0.9l-0.5,0.1c0,0,0.4,2.1-0.9,3.1l0.3,0.4C237.3,270,237.5,268.8,237.4,268
							z"/>
					</g>
				</g>
			</g>
			<g>
				<g>
					<g>
						<path class="st7" d="M225,275.3l-0.4-0.3c0,0-3.2,3.8-6.4,2.1l-0.2,0.5C221.5,279.4,225,275.4,225,275.3z"/>
					</g>
				</g>
			</g>
		</g>
		<g>
			<g>
				<g>
					<g>
						
							<rect x="221.2" y="278.2" transform="matrix(0.874 -0.4859 0.4859 0.874 -106.3572 146.6782)" class="st7" width="17" height="0.5"/>
					</g>
				</g>
			</g>
			<g>
				<g>
					<g>
						
							<rect x="238.8" y="272" transform="matrix(0.8741 -0.4858 0.4858 0.8741 -101.9533 151.256)" class="st7" width="4" height="0.5"/>
					</g>
				</g>
			</g>
		</g>
	</g>
</g>
<g>
	<path class="st10" d="M189,243.1c4.7-28-39.3-27.4-42.7-29.1c-3.6-1.8-33.9-21.4-45.3-40.6c-4.9-8.3-15.4-14.2-25.9-16.8
		c-5.9-0.1-22.2,1.1-32.3,17.6v25.6l26.4,48.4l63.9,16.5l40.9-3.5l12.9-12L189,243.1z"/>
</g>
<g>
	<g>
		<ellipse class="st11" cx="287.4" cy="264.5" rx="26.1" ry="26.1"/>
	</g>
</g>
<g>
	<g>
		<g>
			<ellipse class="st7" cx="287.4" cy="264.5" rx="18.8" ry="18.8"/>
		</g>
	</g>
</g>
<g>
	<g>
		<g>
			<g>
				<g>
					<path d="M283.1,276.3c-1.6-0.6-2.8-1.5-3.5-2.8c-0.7-1.2-0.9-2.7-0.5-4.3l0.3-1.7l4.5,0.9l-0.4,2c-0.3,1.5,0.4,2.4,2,2.7
						s2.6-0.3,2.9-1.8c0.2-1,0.1-1.9-0.4-2.8c-0.4-0.9-1.3-2-2.7-3.3c-1.7-1.7-2.8-3.1-3.4-4.4s-0.7-2.6-0.4-4c0.3-1.6,1-2.8,2-3.7
						c1-0.9,2.4-1.3,4.1-1.3l0.4-2.2l3.9,0.8l-0.4,2.2c1.6,0.6,2.8,1.5,3.4,2.7c0.7,1.2,0.8,2.6,0.5,4.3l-0.1,0.7l-4.5-0.9l0.2-1
						c0.3-1.5-0.4-2.4-1.9-2.7c-1.6-0.3-2.5,0.3-2.8,1.7c-0.2,0.9,0,1.8,0.4,2.6s1.3,2,2.7,3.3c1.7,1.7,2.8,3.2,3.4,4.5
						c0.6,1.3,0.7,2.7,0.4,4.1c-0.3,1.7-1,3-2.1,3.9s-2.5,1.3-4.2,1.3l-0.5,2.6l-3.9-0.8L283.1,276.3z"/>
				</g>
			</g>
		</g>
	</g>
</g>
<g>
	<g>
		<rect x="317.1" y="281.4" class="st12" width="50.6" height="9.8"/>
	</g>
</g>
<g>
	<g>
		<rect x="327.7" y="270.5" class="st13" width="50.6" height="9.8"/>
	</g>
</g>
<g>
	<g>
		<rect x="317.1" y="259.8" class="st14" width="50.6" height="9.8"/>
	</g>
</g>
<g>
	<g>
		<g>
			<g>
				<g>
					<g>
						<rect x="361.8" y="259.8" class="st7" width="1.1" height="9.8"/>
					</g>
				</g>
			</g>
		</g>
	</g>
</g>
<g>
	<g>
		<g>
			<g>
				<g>
					<g>
						<rect x="356.5" y="259.8" class="st7" width="1.1" height="9.8"/>
					</g>
				</g>
			</g>
		</g>
	</g>
</g>
<g>
	<g>
		<g>
			<g>
				<g>
					<g>
						<rect x="340.5" y="259.8" class="st7" width="1.1" height="9.8"/>
					</g>
				</g>
			</g>
		</g>
	</g>
</g>
<g>
	<g>
		<g>
			<g>
				<g>
					<g>
						<rect x="329.9" y="259.8" class="st7" width="1.1" height="9.8"/>
					</g>
				</g>
			</g>
		</g>
	</g>
</g>
<g>
	<g>
		<g>
			<rect x="372.5" y="270.5" class="st15" width="1.1" height="9.8"/>
		</g>
	</g>
</g>
<g>
	<g>
		<g>
			<g>
				<g>
					<g>
						<rect x="367.1" y="270.5" class="st7" width="1.1" height="9.8"/>
					</g>
				</g>
			</g>
		</g>
	</g>
</g>
<g>
	<g>
		<g>
			<rect x="351.1" y="270.5" class="st7" width="1.1" height="9.8"/>
		</g>
	</g>
</g>
<g>
	<g>
		<g>
			<g>
				<g>
					<g>
						<rect x="345.8" y="270.5" class="st15" width="1.1" height="9.8"/>
					</g>
				</g>
			</g>
		</g>
	</g>
</g>
<g>
	<g>
		<g>
			<rect x="340.5" y="281.4" class="st7" width="1.1" height="9.8"/>
		</g>
	</g>
</g>
<g>
	<g>
		<g>
			<rect x="329.9" y="281.4" class="st7" width="1.1" height="9.8"/>
		</g>
	</g>
</g>
<g>
	<g>
		<g>
			<rect x="324.5" y="281.4" class="st7" width="1.1" height="9.8"/>
		</g>
	</g>
</g>
<g>
	<g>
		<g>
			<g>
				<g>
					<g>
						<rect x="317.1" y="269.5" class="st7" width="50.3" height="1.1"/>
					</g>
				</g>
			</g>
		</g>
	</g>
</g>
<g>
	<g>
		<g>
			<rect x="327.8" y="280.4" class="st7" width="50.5" height="1.1"/>
		</g>
	</g>
</g>
<g>
	<g>
		<g>
			<g>
				<g>
					<g>
						<g>
							<path class="st15" d="M331.6,274c2,1,3.3,2.5,4.3,4.5l0,0c0.9-1.9,2.3-3.5,4.3-4.5l0,0c-2-1-3.3-2.5-4.3-4.5l0,0
								C335,271.4,333.6,273,331.6,274z"/>
						</g>
					</g>
				</g>
			</g>
		</g>
	</g>
</g>
<g>
	<g>
		<g>
			<g>
				<g>
					<g>
						<g>
							<path class="st15" d="M348.7,286.6c1.1,0.6,1.9,1.5,2.4,2.5l0,0c0.5-1.1,1.3-2,2.4-2.6l0,0c-1.1-0.6-1.9-1.5-2.4-2.5l0,0
								C350.6,285.2,349.8,286.1,348.7,286.6z"/>
						</g>
					</g>
				</g>
			</g>
		</g>
	</g>
</g>
<g>
	<g>
		<g>
			<g>
				<g>
					<g>
						<g>
							<path class="st15" d="M359.4,265.1c1.1,0.6,1.9,1.5,2.4,2.5l0,0c0.5-1.1,1.3-2,2.4-2.6l0,0c-1.1-0.6-1.9-1.5-2.4-2.5l0,0
								C361.3,263.6,360.5,264.5,359.4,265.1z"/>
						</g>
					</g>
				</g>
			</g>
		</g>
	</g>
</g>
<g>
	<g>
		<g>
			<rect x="377.8" y="270.5" class="st15" width="1.1" height="10.9"/>
		</g>
	</g>
</g>
<g>
	<path class="st16" d="M132.4,203.6c0,0,43.5,5.9,49.9,8.2c7.6,2.7,45.8,46.5,45.8,46.5l-16.9,14.8l-42-37.8l-14.7,2.4l-19.2-3
		c0,0-10.3-3.6-13.3-3.8c-9.3-0.7-25.2,4.9-32.3-8.5l34.6-24L132.4,203.6z"/>
</g>
<g>
	<g>
		<g>
			<g>
				<g>
					<path class="st8" d="M57.4,144.3c2.5-0.2,4-0.2,4.5-0.2c0.5,0,1-0.6,1.8-1c1.9-0.9,5.5-2.3,8-1.8c0.3,0.1,0.4,0.5-0.1,0.6
						c-0.8,0.2-2.3,0.5-2.2,0.7c0.2,0.5,4.1-0.9,4.3,0.1c0.2,0.8-4.6,1.2-4.5,1.4c0.1,0.5,4.2-0.8,4.4,0.2c0.2,0.9-3.7,0.7-3.7,1
						c0,0.4,3.1-0.1,3.2,0.5c0.3,1-4.8,1-4.9,1.4c-0.2,0.6,2.4,0.6,2.3,1.5c-0.1,0.8-3.5,0.3-4.1,0.2c-1.5-0.1-2.2-0.9-4,0
						c-1,0.5-2,1-3,1.5L57.4,144.3z"/>
				</g>
			</g>
		</g>
	</g>
</g>
<g>
	<g>
		<g>
			<g>
				<g>
					<path class="st8" d="M94.8,161.9c-6.7-3.9-9.2-8.4-9.2-8.4l-11.7,2c0,0,3.7,7,3.1,13.7c-0.4,4.6,6.4,8.2,16.9,7.9
						S97.8,163.7,94.8,161.9z"/>
				</g>
			</g>
		</g>
	</g>
</g>
<g>
	<g>
		<path class="st7" d="M219.8,265.7l-0.6,0.5c-7.1-8.1-33.6-37.6-43.9-40.9c-3.1-1-9.9-0.7-17.9-0.5c-14.2,0.5-31.8,1.1-42.7-4
			c0,0,0.4-0.4,0.6-0.6c10.7,5,28.1,4.3,42.1,3.9c8.4-0.3,15-0.5,18.2,0.5C186.1,228,212.6,257.5,219.8,265.7z"/>
	</g>
</g>
<g>
	<g>
		<path class="st7" d="M133.1,204.1c-0.4,0-0.8,0-1.2,0c-3.8,0-6.8-0.5-7.1-0.6c0.1-0.2,0.2-0.5,0.3-0.7c0.8,0.1,3.6,0.6,7,0.5
			l0.4,0.2c0,0,0.2,0,0.7,0.1L133.1,204.1z"/>
	</g>
</g>
<g>
	<path class="st17" d="M86.9,224.5c0,0,31.6,1.2,40.2-27.4c0,0-12.9-5.8-19.7-28.8c0,0-4.2-14.4-13.3-13.4l-4.8,3.1
		c0,0,4.4,3.6,2.9,5.8c-1.8,2.6-13.2-1.2-13.2-1.2s-5.8-1.5-9.6-0.1c0,0,7.1,17.8-7.9,23C61.7,185.4,77.1,201.5,86.9,224.5z"/>
</g>
<g>
	<g>
		<path class="st18" d="M102.8,227.8c-20.7-8.8-35.2-44-35.3-44.3l0.7-0.3c0.2,0.4,14.5,35.3,34.9,43.9L102.8,227.8z"/>
	</g>
</g>
<g>
	<g>
		<path class="st17" d="M107.8,169.5L93,155.6c0-0.1,5.6-7.8,7.5-12.2c3.3-7.4,0.5-13.7-5.8-6.7c-2,2.2-6,6.6-6,6.6l-9.4-6.6
			c0,0,4.2-6,6.6-8.7c8.8-10.1,16.5-12.5,23.4-10c3.5,1.3,6.1,3.9,7.4,7.5c2.2,6,2.1,14.5-1.7,27
			C112.4,161.3,107.8,169.5,107.8,169.5z"/>
	</g>
</g>
<g>
	<g>
		<path class="st7" d="M117,220.9l-0.2,0.7c-2.1-0.7-3.8-1.9-4.6-2.5c0,0,0,0,0,0l0.6-0.5c0,0,0,0,0,0
			C113.7,219.3,115.2,220.4,117,220.9z"/>
	</g>
</g>
<g>
	<g>
		<g>
			<g>
				<g>
					<path class="st8" d="M85,134.1c0,0,11.5,18.1,5.8,20.5c-5.7,2.5-12.2,2-13.9,1.1c-1.7-0.8-4.3-6.7-4.3-6.7s-4.1-8.1-1.3-11.1
						C74.2,134.9,80.7,129,85,134.1z"/>
				</g>
			</g>
		</g>
	</g>
</g>
<g>
	<g>
		<path class="st0" d="M70.4,154.3c2,1.6,3.9,3.2,3.9,3.2c1.6-0.9,3.4-3.9,3-5.9c0,0,5.1-2.6,2.6-9.2c0,0,9.2-3.7,6.1-11.7
			c-1.5-4-8.7-4.2-13.5-0.7c-6.1,4.6-7.3,11.1-7.3,11.1C60.9,144.8,67.9,152.2,70.4,154.3z"/>
	</g>
</g>
<g>
	<g>
		<g>
			<g>
				<path class="st8" d="M75.8,150.9c0.5,1.2,1.9,1.9,3.2,1.4c1.2-0.5,1.9-1.9,1.3-3.2c-0.5-1.2-1.9-1.9-3.2-1.4
					C75.9,148.2,75.3,149.7,75.8,150.9z"/>
			</g>
		</g>
	</g>
</g>
<g>
	<g>
		<path class="st18" d="M107.8,170.4c0-0.1-1.6-9.3-7.1-13.1c-2.2-1.5-4.7-2-7.5-1.4l-0.2-0.7c3-0.6,5.7-0.1,8.1,1.5
			c5.8,4,7.4,13.2,7.4,13.6L107.8,170.4z"/>
	</g>
</g>
<g>
	<path class="st0" d="M78.5,143.6l-0.2-0.7c0.1,0,5.3-1.5,7.8-4.3c1.1-1.2,1.5-2.9,1.2-4.7c-0.4-2-1.7-3.8-3.3-4.6l0.3-0.6
		c1.8,0.9,3.2,2.9,3.7,5.1c0.4,2-0.1,3.9-1.3,5.3C84,142.1,78.7,143.5,78.5,143.6z"/>
</g>
<g>
	<g>
		<path class="st18" d="M89.8,165.4c-4.4,0.4-12-2.7-13.1-3.1l0.3-0.7c3.6,1.5,13.4,4.9,15,2c0.9-1.7-1.2-3.8-1.2-3.8l0.5-0.5
			c0.1,0.1,2.6,2.5,1.4,4.7C92.1,164.8,91.1,165.2,89.8,165.4z"/>
	</g>
</g>
<g>
	<path class="st16" d="M217.4,267.8l-6.2,5.4l-20.6-18.6l-21.3-19.2l-14.7,2.4l-19.2-3c0,0-10.3-3.6-13.3-3.8
		c-1.1-0.1-2.4-0.1-3.7,0l-5-8c0,0,12.8-0.3,27.7,5.6c3.6,1.4,9.5,3.6,15.2,3.5c6.5-0.1,13.8-3.5,17.2-2.5c4.5,1.4,8.7,6.6,14,13.4
		c5.4,6.8,11.9,14.9,18.5,21.1C210.8,268.5,217.4,267.8,217.4,267.8z"/>
</g>
<g>
	<path class="st19" d="M186.4,251.1c-7.4,25.5-21.4,36.6-27.6,40.5c-0.2,0.1-0.4,0.2-0.6,0.2H67.6c-0.2,0-0.4-0.1-0.6-0.2
		c-7-4.3-23.8-17.8-30-50.7c-1.4-7.4-2.3-15.9-2.6-25.7c-0.6-19.3,3.1-32.3,8.4-41c0,0,8,38.2,29.3,44.7c17.3,5.2,36.5-1.5,54.2,6.2
		c4.6,2,8.6,5.1,11.8,8.9c3.3,4,4.9,8.3,9.7,11c5.4,3.1,12.6,2.9,18.7,3c5.3,0.1,10.5-0.5,15.7-1.5
		C184.9,245.9,187.1,248.4,186.4,251.1z"/>
</g>
<g>
	<g>
		<g>
			<g>
				<g>
					<g>
						<g>
							<path class="st8" d="M197.9,283.5l-3.9-15.1l13.5,6.2l1,6c0,0-0.2,1.6-3.8,3.8C201.3,286.4,197.9,283.5,197.9,283.5z"/>
						</g>
					</g>
				</g>
			</g>
		</g>
	</g>
	<g>
		<g>
			<g>
				<g>
					<g>
						<g>
							<g>
								<g>
									<path class="st9" d="M194.8,291.2l29.1,0.5c1,0,1.8-0.8,1.8-1.8c0,0,0,0,0,0c0-0.2,0-0.5-0.1-0.7c-0.1-0.8-0.3-1.6-0.6-2
										c-1.4-1.9-4-2.7-8.8-4.7c-3-1.2-5.5-2.9-6.6-3.6c-0.4-0.2-0.8-0.2-1.1,0.1c-5.9,5.5-9.4,4.3-10.4,1.9
										c-0.8-1.8-1.9-1.4-2.2-0.9c-1,1.6-1.6,6.4-1.9,8.7c0,0.3-0.1,0.5-0.1,0.7c0,0.5-0.1,0.7-0.1,0.7
										C193.6,290.6,194.1,291.2,194.8,291.2z"/>
								</g>
							</g>
						</g>
					</g>
				</g>
			</g>
		</g>
		<g>
			<g>
				<g>
					<g>
						<path class="st7" d="M216,283.3c0.2-0.4,0.4-0.8,0.4-0.8l-0.5-0.2c0,0-0.7,2-2.4,2.2l0.1,0.5C214.9,284.9,215.6,284,216,283.3
							z"/>
					</g>
				</g>
			</g>
			<g>
				<g>
					<g>
						<path class="st7" d="M218.5,284.5c0.2-0.4,0.4-0.8,0.4-0.8l-0.5-0.2c0,0-0.7,2-2.4,2.2l0.1,0.5
							C217.4,286.1,218.1,285.2,218.5,284.5z"/>
					</g>
				</g>
			</g>
			<g>
				<g>
					<g>
						<path class="st7" d="M204.1,284.4l-0.2-0.5c0,0-4.7,1.6-6.6-1.5l-0.4,0.3C199,286.1,204.1,284.4,204.1,284.4z"/>
					</g>
				</g>
			</g>
		</g>
		<g>
			<g>
				<g>
					<g>
						
							<rect x="206.3" y="281" transform="matrix(2.750060e-02 -0.9996 0.9996 2.750060e-02 -88.5014 487.9493)" class="st7" width="0.5" height="17"/>
					</g>
				</g>
			</g>
			<g>
				<g>
					<g>
						
							<rect x="218.9" y="287.8" transform="matrix(2.750060e-02 -0.9996 0.9996 2.750060e-02 -76.5588 500.9472)" class="st7" width="0.5" height="4"/>
					</g>
				</g>
			</g>
		</g>
	</g>
</g>
<path class="st20" d="M278.5,188.2h-74.9c-3.3,0-6-2.7-6-6v-50.4c0-3.3,2.7-6,6-6h74.9c3.3,0,6,2.7,6,6v50.4
	C284.5,185.5,281.9,188.2,278.5,188.2z"/>
<g>
	<g>
		<g>
			<polygon class="st0" points="212.4,164 211.8,163 232.1,149.8 240.4,155 267.1,138.2 267.7,139.2 240.4,156.3 232.1,151.2 			"/>
		</g>
		<g>
			<g>
				<polygon class="st0" points="266.1,137.5 269.4,137.4 267.8,140.4 				"/>
			</g>
		</g>
	</g>
	<g>
		<g>
			<rect x="211.7" y="168.8" class="st21" width="6.9" height="7.9"/>
		</g>
		<g>
			<rect x="224.7" y="160.2" class="st22" width="6.9" height="16.4"/>
		</g>
		<g>
			<rect x="237.7" y="165" class="st21" width="6.9" height="11.6"/>
		</g>
		<g>
			<rect x="250.6" y="157.1" class="st22" width="6.9" height="19.5"/>
		</g>
		<g>
			<rect x="263.6" y="147.7" class="st22" width="6.9" height="28.9"/>
		</g>
	</g>
	<g>
		<polygon class="st0" points="276.4,176.8 205.2,176.8 205.2,141 206.3,141 206.3,175.7 276.4,175.7 		"/>
	</g>
</g>
<g>
	<g>
		<path class="st23" d="M144.4,291.7H67.3c-6.8-4.1-24-17.5-30.3-50.9c9.2,12,18.1,24.4,34.9,25.6c24.6,1.7,35.6-4.6,58.2,13.3
			C134.9,283.5,144.4,291.7,144.4,291.7z"/>
	</g>
</g>
<g>
	<g>
		<path class="st16" d="M210.3,275l-6.8-0.2l-15.9-0.5c0,0-2-11.5-3.5-20.4c-0.4-2.3-0.8-4.4-1-6.1l27.1,24.3L210.3,275z"/>
	</g>
	<g>
		<path class="st16" d="M210.3,275l-6.8-0.2L184,253.9c-0.4-2.3-0.8-4.4-1-6.1l27.1,24.3L210.3,275z"/>
	</g>
</g>
<g>
	<path class="st17" d="M61.7,185.4c0,0-20.1-6.7-31.2-21.9c-3.8-5.3-2.2-9.9-1-12.1c3.1-5.8,9.7-8.2,24.6-10c4-0.5,8-0.6,8-0.6
		l1.3,9.9c0,0-18,2.6-17.3,5.8c0.8,4.2,16,5.9,23.5,5.9C75.6,170.6,73.9,183,61.7,185.4z"/>
</g>
<g>
	<g>
		<path class="st18" d="M64.2,186l-0.3-0.7c0.1,0,5.7-2.8,7.6-8.8c1.3-4.1,0.6-8.9-2.2-14l0.7-0.4c2.9,5.3,3.7,10.2,2.3,14.6
			C70.2,183.1,64.4,185.9,64.2,186z"/>
	</g>
</g>
<g>
	
		<rect x="196.1" y="241.7" transform="matrix(0.6679 -0.7442 0.7442 0.6679 -128.1646 232.538)" class="st7" width="0.7" height="36.3"/>
</g>
<g>
	<g>
		<path class="st18" d="M63.2,186.9l-0.4-0.6c0,0,3.5-2.4,5.2-7.2l0.7,0.2C66.9,184.4,63.3,186.8,63.2,186.9z"/>
	</g>
</g>
<g>
	<g>
		<path class="st18" d="M107.9,168.4l-0.7-0.1c1-5.4-1.4-9.9-1.4-10l0.7-0.4C106.5,158.1,108.9,162.7,107.9,168.4z"/>
	</g>
</g>
<g>
	<g>
		<path class="st7" d="M175.5,234c-2.8,1.5-4.9,1.8-5.7,1.8l-0.5-0.4l-1.1,0.2l1.1-0.4c0,0,2.2-1.1,3.5-3.4l0.6,0.4
			c-0.7,1.3-1.7,2.3-2.5,2.9c1-0.2,2.5-0.6,4.3-1.6L175.5,234z"/>
	</g>
</g>
<path class="st7" d="M183.5,156"/>
</svg>
