<?xml version="1.0" encoding="utf-8"?>
<!-- Generator: Adobe Illustrator 26.3.1, SVG Export Plug-In . SVG Version: 6.00 Build 0)  -->
<svg version="1.1" id="_x2014_ÎÓÈ_x5F_1" xmlns="http://www.w3.org/2000/svg" xmlns:xlink="http://www.w3.org/1999/xlink"
	 x="0px" y="0px" viewBox="0 0 2500 2500" style="enable-background:new 0 0 2500 2500;" xml:space="preserve">
<path style="fill-rule:evenodd;clip-rule:evenodd;fill:#C8E6FA;" d="M275.63,1989.6c-36.81-41.28-71.95-94.72-97.73-156.17
	C-142.03,1072.16,685.59,345.19,1278.75,724.27c315.24,201.5,331.36,446.87,718.13,655.13
	c200.15,107.71,351.01,210.65,338.01,503.64c-1.66,37.53-8.63,73.61-21.83,106.57H275.63z"/>
<path style="fill-rule:evenodd;clip-rule:evenodd;fill:#3E1F16;" d="M1056.98,779.37c5.72-7.07,11.96-13.31,18.3-19.23
	c12.89-12.27,26.2-23.6,49.18-31.19c22.98-7.69,55.62-11.54,89.21-6.97c33.58,4.57,68,17.68,99.19,33.06
	c31.09,15.49,59.06,33.27,78.29,42.84c19.13,9.57,29.74,10.92,39.09,10.4c9.46-0.52,17.78-2.91,21.94-4.05
	c4.16-1.25,4.16-1.25,4.16-1.25s0,0,1.04,6.03c0.94,6.13,2.81,18.2,2.5,32.44c-0.31,14.35-2.91,30.78-10.29,48.24
	c-3.33,7.8-7.69,15.7-13.31,23.81c9.67,33.58,9.57,61.45,7.17,89c-2.6,28.49-7.59,56.66-12.37,87.54
	c-4.68,30.88-9.25,64.46-3.43,105.12c5.72,40.65,21.73,88.38,28.8,138.49c6.97,50.22,4.99,102.72-14.76,142.34
	c-19.86,39.61-57.39,66.13-100.44,83.49c-43.15,17.36-91.7,25.47-164.8,20.07c-73.2-5.41-170.83-24.43-232.48-52.71
	c-61.55-28.38-87.13-66.02-99.29-103.97c-12.16-37.95-10.92-76.11,1.25-113.12c12.16-37.01,35.25-72.78,51.78-101.16
	c16.53-28.28,26.51-49.18,26.72-76.21c0.31-27.14-9.25-60.51-11.02-97.11c-1.77-36.49,4.26-76.42,18.09-113.75
	c13.72-37.43,35.25-72.36,56.25-95.55c20.9-23.19,41.17-34.62,59.78-42.73C1050.74,781.87,1053.86,780.52,1056.98,779.37
	L1056.98,779.37z"/>
<path style="fill-rule:evenodd;clip-rule:evenodd;fill:#29150F;" d="M1042.73,1270.22c12.58-29.22,26.51-61.45,34-97.63
	c7.38-36.18,8.32-76.32,48.35-91.81c39.93-15.39,118.94-6.03,156.69,9.77c37.64,15.91,34,38.26,30.67,65.19
	c-3.22,26.93-6.24,58.54-2.18,88.06c4.05,29.53,15.08,56.98,17.26,79.23c2.18,22.15-4.37,39.09-58.33,59.06
	c-53.96,19.96-155.13,43.04-206.7,38.47c-51.57-4.57-53.34-36.81-48.55-66.02C1018.72,1325.43,1030.05,1299.33,1042.73,1270.22
	L1042.73,1270.22z"/>
<path style="fill-rule:evenodd;clip-rule:evenodd;fill:#EE6C4D;" d="M824.7,1467.04c-65.09,146.7-134.85,351.74-89.42,415.37
	c8.32,11.75,10.29,55.94,143.07,61.66c132.77,5.72,387.5,10.4,511.64,10.61c124.14,0.31,117.8-3.85,106.78-91.7
	c-11.02-87.86-26.72-259.31-40.96-355.06c-25.99-175.19-107.09-234.14-270.85-278.96c-52.71-14.45-152.53,20.9-227.18,68
	C880.43,1345.71,862.13,1382.62,824.7,1467.04L824.7,1467.04z"/>
<path style="fill-rule:evenodd;clip-rule:evenodd;fill:#FEFEFE;" d="M1293.93,1267.42c-31.71-14.56-65.09-28.28-104.39-38.47
	c-32.23-8.32-74.03-4.26-130.59,17.99l4.78,10.09c5.3,11.12,11.64,21.42,18.3,31.92c9.57,14.97,21,29.22,34.1,41.07
	c13.72,12.48,29.63,22.77,47.1,29.32c17.05,6.34,35.87,9.36,53.96,7.49C1277.5,1360.78,1291.54,1320.13,1293.93,1267.42
	L1293.93,1267.42z"/>
<path style="fill-rule:evenodd;clip-rule:evenodd;fill:#EDBDAB;" d="M1133.08,1126.33c-8.01,29.42-22.98,84.32-31.4,112.39
	c4.26,7.49,9.77,19.23,16.95,30.88c7.38,12.06,16.43,24.02,26.72,33.79c10.29,9.77,21.94,17.36,34.1,22.15
	c12.16,4.78,24.85,6.65,36.08,5.51c11.33-1.25,21.21-5.51,28.38-12.89c5.82-6.03,9.98-14.04,12.79-21.63
	c0.31-6.34,0.62-13.1,0.94-20.48c1.66-35.77,3.64-83.07,4.57-106.78c0.94-23.71,0.94-23.71-19.03-33.06
	c-19.96-9.36-59.78-28.07-80.27-35.77C1142.44,1092.85,1141.4,1096.17,1133.08,1126.33L1133.08,1126.33z"/>
<path style="fill-rule:evenodd;clip-rule:evenodd;fill:#D6A491;" d="M1258.79,1247.76c0.94-21.11,1.77-40.86,2.29-53.65
	c1.04-23.71,1.04-23.71-20.27-33.06c-15.7-6.86-42.94-18.82-64.98-27.66c-9.77,11.75-15.49,25.89-15.49,41.17
	c0,40.55,40.44,73.51,90.35,73.51C1253.38,1248.08,1256.08,1247.97,1258.79,1247.76L1258.79,1247.76z"/>
<path style="fill-rule:evenodd;clip-rule:evenodd;fill:#7FB6FB;" d="M205.34,1935.54h2143.48c19.34,0,35.25,15.91,35.25,35.25l0,0
	c0,19.34-15.91,35.25-35.25,35.25H205.34c-19.34,0-35.25-15.91-35.25-35.25l0,0C170.1,1951.45,186.01,1935.54,205.34,1935.54
	L205.34,1935.54z"/>
<path style="fill-rule:evenodd;clip-rule:evenodd;fill:#ECB9A6;" d="M1246.62,1822.42c11.44-1.35,22.56-3.33,33.17-4.26
	c11.33-1.14,21.94-1.14,37.01-0.52c14.97,0.52,34.41,1.66,44.4,6.45c9.88,4.68,10.19,13.2,8.42,25.78
	c-1.87,12.68-5.93,29.53-20.07,38.68c-14.04,9.25-38.26,10.71-67.58,9.05c-11.44-0.62-23.71-1.77-35.35-3.22V1822.42z"/>
<polygon style="fill-rule:evenodd;clip-rule:evenodd;" points="1412.35,1460.18 2120.5,1459.87 2012.16,1934.71 1303.29,1934.71 "/>
<rect x="1246.62" y="1883.14" style="fill-rule:evenodd;clip-rule:evenodd;" width="765.23" height="51.57"/>
<path style="fill-rule:evenodd;clip-rule:evenodd;fill:#ACD5D5;" d="M1726.03,1687.67h52.61c8.32,0,15.18,6.86,15.18,15.18v13.93
	c0,8.42-6.86,15.18-15.18,15.18h-52.61c-8.32,0-15.08-6.76-15.08-15.18v-13.93C1710.96,1694.53,1717.72,1687.67,1726.03,1687.67
	L1726.03,1687.67z"/>
<path style="fill-rule:evenodd;clip-rule:evenodd;fill:#C8E6FA;" d="M1807.76,1043.67c-1.87,0.94-3.64,2.29-5.09,4.05l-24.95,28.9
	c-6.34,7.28-5.51,18.51,1.87,24.85l0,0c7.28,6.34,18.51,5.51,24.85-1.87l23.71-27.55c27.03,32.13,63.01,57.29,105.74,71.22
	c42.94,13.93,87.02,14.66,127.89,4.37l2.81,34.21c0.83,9.57,9.46,16.84,19.13,16.01l0,0c9.57-0.73,16.84-9.36,16.01-19.03
	l-3.12-38.05c-0.21-1.56-0.52-3.02-1.04-4.37c59.89-25.27,108.75-75.38,130.48-142.03c20.69-63.84,12.27-130.28-18.19-184.65
	l30.78-22.25l41.17,56.87c34.52-32.13,42.94-81.93,17.78-116.66c-25.06-34.73-75.07-42.42-116.34-19.65l40.96,56.77l-29.42,21.21
	c-27.76-38.05-67.37-68-115.62-83.7c-48.45-15.8-98.46-14.66-143.48,0.1l-12.16-37.22l66.54-21.83
	c-20.07-42.63-64.98-65.92-105.74-52.51c-40.76,13.31-63.21,58.64-54.17,104.91l66.75-21.83l12.68,38.78
	c-56.25,26.2-101.79,74.76-122.48,138.39C1763.26,918.17,1773.65,987.84,1807.76,1043.67L1807.76,1043.67z"/>
<path style="fill-rule:evenodd;clip-rule:evenodd;fill:#FEFEFE;" d="M2069.66,725.31c-109.07-35.45-226.14,24.23-261.59,133.29
	c-35.45,109.07,24.23,226.24,133.29,261.7c109.07,35.45,226.24-24.23,261.7-133.4C2238.51,877.83,2178.73,760.76,2069.66,725.31
	L2069.66,725.31z"/>
<path style="fill-rule:evenodd;clip-rule:evenodd;fill:#C8E6FA;" d="M1942.71,766.48L1942.71,766.48
	c-5.82,2.29-8.63,8.84-6.45,14.66l47.93,122.06c-2.81,3.02-4.89,6.55-6.24,10.61c-4.89,15.28,3.43,31.61,18.61,36.49
	c15.18,4.99,31.61-3.33,36.49-18.61c0.62-1.66,0.94-3.43,1.25-5.2l82.55-17.78c6.03-1.25,9.88-7.28,8.63-13.31l0,0
	c-1.35-6.13-7.38-9.98-13.41-8.73l-83.91,18.09c-3.43-4.37-8.11-7.69-13.72-9.57c-3.22-1.04-6.55-1.46-9.77-1.35l-47.41-121.02
	C1954.98,767.1,1948.43,764.19,1942.71,766.48L1942.71,766.48z"/>
<path style="fill-rule:evenodd;clip-rule:evenodd;fill:#C8E6F0;" d="M2067.89,730.92L2067.89,730.92
	c-5.93-1.87-12.27,1.35-14.24,7.28l-1.56,4.78c-1.87,5.82,1.35,12.27,7.28,14.14l0,0c5.82,1.98,12.27-1.35,14.14-7.17l1.56-4.78
	C2077.04,739.24,2073.72,732.9,2067.89,730.92L2067.89,730.92z"/>
<path style="fill-rule:evenodd;clip-rule:evenodd;fill:#C8E6F0;" d="M1952.28,1087.34L1952.28,1087.34
	c-5.93-1.87-12.27,1.35-14.24,7.28l-1.56,4.78c-1.87,5.82,1.35,12.27,7.28,14.14l0,0c5.93,1.98,12.27-1.35,14.24-7.17l1.56-4.78
	C1961.43,1095.65,1958.2,1089.21,1952.28,1087.34L1952.28,1087.34z"/>
<path style="fill-rule:evenodd;clip-rule:evenodd;fill:#C8E6F0;" d="M1816.39,860.16L1816.39,860.16
	c-1.87,5.93,1.35,12.27,7.28,14.24l4.78,1.56c5.82,1.87,12.27-1.35,14.14-7.28l0,0c1.98-5.93-1.35-12.27-7.17-14.24l-4.78-1.46
	C1824.7,851.01,1818.36,854.23,1816.39,860.16L1816.39,860.16z"/>
<path style="fill-rule:evenodd;clip-rule:evenodd;fill:#C8E6F0;" d="M2172.8,975.77L2172.8,975.77c-1.87,5.93,1.35,12.27,7.28,14.14
	l4.78,1.56c5.82,1.98,12.27-1.35,14.14-7.17l0,0c1.98-5.93-1.35-12.27-7.17-14.24l-4.78-1.56
	C2181.12,966.63,2174.78,969.85,2172.8,975.77L2172.8,975.77z"/>
<path style="fill-rule:evenodd;clip-rule:evenodd;fill:#C8E6F0;" d="M2007.28,926.6c-44.71,24.64-89.42,49.28-134.23,73.82
	c-1.87,1.04-4.16,0.42-5.2-1.46c-0.94-1.87-0.31-4.16,1.56-5.2c16.74-9.15,33.58-18.4,50.32-27.66
	c27.97-15.39,55.94-30.78,83.91-46.16c1.87-1.04,4.16-0.31,5.2,1.56C2009.77,923.27,2009.15,925.66,2007.28,926.6L2007.28,926.6z"/>
<path style="fill-rule:evenodd;clip-rule:evenodd;fill:#C8E6F0;" d="M1788.94,640.99c28.8-69.66,72.05-129.24,153.77-87.34
	c19.65,10.09,37.64,27.86,52.3,44.08C1897.8,517.88,1847.68,543.15,1788.94,640.99L1788.94,640.99z"/>
<path style="fill-rule:evenodd;clip-rule:evenodd;fill:#C8E6F0;" d="M1757.33,618.01c35.35-85.36,88.27-158.24,188.29-106.88
	c24.02,12.27,46.06,34,63.94,53.96C1890.52,467.25,1829.28,498.23,1757.33,618.01L1757.33,618.01z"/>
<path style="fill-rule:evenodd;clip-rule:evenodd;fill:#C8E6F0;" d="M2334.79,832.5c24.54-71.32,31.5-144.62-57.5-167.19
	c-21.42-5.51-46.68-4.05-68.41-1.56C2334.68,668.12,2355.48,720.32,2334.79,832.5L2334.79,832.5z"/>
<path style="fill-rule:evenodd;clip-rule:evenodd;fill:#C8E6F0;" d="M2373.78,836.14c29.94-87.34,38.47-177.06-70.49-204.72
	c-26.2-6.65-57.08-4.89-83.7-1.87C2373.57,634.96,2399.04,698.79,2373.78,836.14L2373.78,836.14z"/>
<path style="fill-rule:evenodd;clip-rule:evenodd;fill:#EDBDAB;" d="M1392.29,958.83c-16.01,37.64-24.85,69.04-31.82,109.48
	c-11.12,64.46-49.7,140.15-125.39,138.8c-13.41-0.21-30.15-3.02-45.12-8.01c-15.08-5.09-28.28-12.58-40.13-23.19
	c-11.85-10.61-22.46-24.43-28.9-34.83c-6.55-10.29-9.05-17.05-10.29-20.38c-0.73-1.98-1.04-2.81-1.46-3.02
	c-24.43,5.3-46.48-20.48-47-43.46c-0.62-32.34,32.02-43.36,51.47-22.25c0.42,0.31,0.62,0.42,0.42-8.01
	c-0.31-8.42-0.94-25.47,0.73-41.38c1.56-15.91,5.41-30.67,9.98-39.3c4.47-8.63,9.67-11.12,14.14-11.85c4.57-0.83,8.42,0,10.29,0.42
	c1.98,0.31,1.98,0.31,1.98,0.31s0,0,0.21-3.22c0.31-3.33,0.73-9.98,4.57-18.71c3.74-8.84,10.81-19.75,18.61-28.07
	c7.69-8.21,16.12-13.93,25.58-16.95c9.46-3.12,20.17-3.53,30.67-0.94c10.61,2.7,21,8.53,32.34,16.74
	c11.23,8.21,23.39,18.82,38.78,27.34c15.49,8.53,34.31,14.97,48.66,18.2c14.35,3.22,24.23,3.22,31.4,2.29
	c7.17-0.94,11.64-2.91,13.93-3.85c2.29-1.04,2.29-1.04,2.29-1.04s0,0-0.52,1.25C1397.28,946.45,1396.34,948.95,1392.29,958.83
	L1392.29,958.83z"/>
<path style="fill-rule:evenodd;clip-rule:evenodd;fill:#D6A491;" d="M1392.29,958.83c-1.04,2.29-1.98,4.47-2.91,6.76
	c-0.52,0.1-1.04,0.21-1.56,0.31c-13,2.7-25.99,1.77-39.93-1.77c-13.93-3.54-28.7-9.57-42.63-17.78
	c-13.93-8.11-27.03-18.3-40.24-27.24c-13.2-8.94-26.62-16.64-39.93-19.96c-13.41-3.33-26.82-2.18-38.26,3.74
	c-10.29,5.3-19.03,14.35-26.82,19.23c3.95-6.86,9.05-14.04,14.56-19.96c7.69-8.21,16.12-13.93,25.58-16.95
	c9.46-3.12,20.17-3.53,30.67-0.94c10.61,2.7,21,8.53,32.34,16.74c11.23,8.21,23.39,18.82,38.78,27.34
	c15.49,8.53,34.31,14.97,48.66,18.2c14.35,3.22,24.23,3.22,31.4,2.29c7.17-0.94,11.64-2.91,13.93-3.85
	c2.29-1.04,2.29-1.04,2.29-1.04s0,0-0.52,1.25C1397.28,946.45,1396.34,948.95,1392.29,958.83L1392.29,958.83z"/>
<path style="fill-rule:evenodd;clip-rule:evenodd;fill:#D6A491;" d="M1097.32,1056.56c-27.24-0.62-21.63,37.85,3.12,51.57
	C1060.3,1102.83,1064.36,1042.63,1097.32,1056.56L1097.32,1056.56z"/>
<path style="fill-rule:evenodd;clip-rule:evenodd;fill:#D6A491;" d="M1102.1,1087.75c-2.81,6.86-2.6,9.67-2.08,17.05
	C1087.65,1101.37,1089.1,1087.13,1102.1,1087.75L1102.1,1087.75z"/>
<path style="fill-rule:evenodd;clip-rule:evenodd;fill:#593125;" d="M1143.38,903.83c60.41-143.9,208.15,51.78,276.46-9.67
	l8.01-8.53l-7.28,9.25C1351.84,970.16,1214.29,772.51,1143.38,903.83L1143.38,903.83z"/>
<path style="fill-rule:evenodd;clip-rule:evenodd;fill:#593125;" d="M1123.31,923.37c-42.32,10.81-38.78,74.03-39.09,107.82
	C1075.59,995.43,1070.6,923.58,1123.31,923.37L1123.31,923.37z"/>
<polygon style="fill-rule:evenodd;clip-rule:evenodd;fill:#FEFEFE;" points="2136.31,1935.12 2106.78,1709.19 2192.35,1709.19 
	2194.11,1709.19 2194.11,1709.19 2195.88,1709.19 2281.45,1709.19 2251.92,1935.12 2194.11,1935.12 2194.11,1935.12 "/>
<polygon style="fill-rule:evenodd;clip-rule:evenodd;fill:#F0A607;" points="2128.3,1874.4 2116.66,1784.57 2271.57,1784.57 
	2259.83,1874.4 "/>
<polygon style="fill-rule:evenodd;clip-rule:evenodd;fill:#3E1F16;" points="2103.14,1692.97 2111.04,1692.97 2111.04,1677.17 
	2277.4,1677.17 2277.4,1692.97 2286.23,1692.97 2286.23,1720.73 2103.14,1720.73 "/>
<rect x="240.69" y="1812.23" style="fill-rule:evenodd;clip-rule:evenodd;fill:#015C7A;" width="516.53" height="123.1"/>
<rect x="697.75" y="1830.63" style="fill-rule:evenodd;clip-rule:evenodd;fill:#7FB6C9;" width="23.81" height="92.22"/>
<rect x="676.54" y="1830.94" style="fill-rule:evenodd;clip-rule:evenodd;fill:#7FB6C9;" width="11.96" height="92.33"/>
<rect x="253.17" y="1553.34" style="fill-rule:evenodd;clip-rule:evenodd;fill:#7FB6C9;" width="495.94" height="118.22"/>
<rect x="287.38" y="1571.01" style="fill-rule:evenodd;clip-rule:evenodd;fill:#E4E0E4;" width="22.98" height="88.48"/>
<rect x="319.19" y="1571.32" style="fill-rule:evenodd;clip-rule:evenodd;fill:#E4E0E4;" width="11.54" height="88.58"/>
<path style="fill-rule:evenodd;clip-rule:evenodd;fill:#F2E5CF;" d="M705.14,1680.49H308.8c-2.6,0-5.2,0.73-7.49,2.08
	c4.26,15.28,6.76,36.18,6.76,59.26c0,23.81-2.7,45.23-7.07,60.51c2.29,1.46,4.99,2.39,7.8,2.39h396.34
	c8.21,0,14.87-6.86,14.87-15.18v-94.09C720,1687.25,713.35,1680.49,705.14,1680.49L705.14,1680.49z"/>
<path style="fill-rule:evenodd;clip-rule:evenodd;fill:#F0A607;" d="M340.92,1671.35h354.86c20.48,0,37.22,17.05,37.22,38.05v67.06
	c0,21-16.74,38.16-37.22,38.16H341.76c-0.31,0-0.62,0-0.94,0h-53.96c-4.57,0-8.32-3.85-8.32-8.53l0,0c0-4.68,3.74-8.53,8.32-8.53
	h9.57h399.36c11.23,0,20.48-9.57,20.48-21.11v-67.06c0-11.54-9.25-21-20.48-21H286.86c-4.57,0-8.32-3.85-8.32-8.63l0,0
	c0-4.68,3.74-8.42,8.32-8.42H340.92z"/>
<rect x="339.47" y="1712.41" style="fill-rule:evenodd;clip-rule:evenodd;fill:#B9B681;" width="333.54" height="3.12"/>
<rect x="339.05" y="1741.32" style="fill-rule:evenodd;clip-rule:evenodd;fill:#B9B681;" width="333.54" height="3.22"/>
<rect x="338.53" y="1770.33" style="fill-rule:evenodd;clip-rule:evenodd;fill:#B9B681;" width="333.54" height="3.22"/>
<polygon style="fill-rule:evenodd;clip-rule:evenodd;fill:#B52B47;" points="595.34,1712.21 665.42,1712.21 665.42,1792.89 
	629.65,1767.52 595.34,1792.89 "/>
<path style="fill-rule:evenodd;clip-rule:evenodd;fill:#F2E5CF;" d="M331.46,1436.37H680.7c2.39,0,4.68,0.73,6.45,1.87
	c-3.54,13.41-5.82,31.92-5.82,52.19c0,20.9,2.39,39.82,6.24,53.34c-2.08,1.25-4.37,2.08-6.86,2.08H331.46c-7.17,0-13-6.03-13-13.31
	v-82.87C318.47,1442.3,324.29,1436.37,331.46,1436.37L331.46,1436.37z"/>
<path style="fill-rule:evenodd;clip-rule:evenodd;fill:#B52B47;" d="M652.53,1428.26H339.78c-17.99,0-32.86,15.18-32.86,33.58v59.06
	c0,18.51,14.87,33.58,32.86,33.58h311.81c0.31,0.1,0.62,0.1,0.94,0.1h47.41c4.05,0,7.38-3.33,7.38-7.59l0,0
	c0-4.05-3.33-7.49-7.38-7.49h-8.32l0,0H339.78c-9.98,0-18.09-8.42-18.09-18.61v-59.06c0-10.19,8.11-18.61,18.09-18.61h360.16
	c4.05,0,7.38-3.33,7.38-7.38l0,0c0-4.16-3.33-7.59-7.38-7.59H652.53z"/>
<rect x="359.85" y="1464.55" style="fill-rule:evenodd;clip-rule:evenodd;fill:#B9B681;" width="293.93" height="2.81"/>
<rect x="360.26" y="1490.02" style="fill-rule:evenodd;clip-rule:evenodd;fill:#B9B681;" width="293.82" height="2.81"/>
<rect x="360.68" y="1515.49" style="fill-rule:evenodd;clip-rule:evenodd;fill:#B9B681;" width="293.72" height="2.81"/>
<path style="fill-rule:evenodd;clip-rule:evenodd;fill:#B52B47;" d="M1246.62,1817.95c0,4.47,0,4.47,0,4.47s0,0-62.18-2.6
	c-62.18-2.7-186.53-8.01-254-10.29c-67.48-2.39-78.08-1.66-83.39-1.25c-5.41,0.42-5.41,0.42,8.01-2.7
	c13.41-3.12,40.13-9.36,105.64-12.16c65.5-2.7,169.68-1.98,223.75-1.04c54.07,0.83,58.12,1.98,60.2,7.07
	C1246.62,1804.43,1246.62,1813.47,1246.62,1817.95L1246.62,1817.95z"/>
<path style="fill-rule:evenodd;clip-rule:evenodd;fill:#B52B47;" d="M957.37,1585.78c-7.49,17.47-27.97,73.92-40.45,112.29
	c-12.48,38.37-16.95,58.54-20.27,73.82c-3.33,15.39-5.61,25.89-1.46,31.3c4.16,5.41,14.87,5.72,30.88,4.78
	c16.01-0.83,37.33-2.81,48.03-3.85c10.61-0.94,10.61-0.94,4.16-5.93c-6.34-4.99-19.23-14.87-26.93-29.53
	c-7.69-14.66-10.29-34.1-8.94-61.03c1.25-27.03,6.34-61.45,11.75-89.52C959.45,1590.04,964.96,1568.41,957.37,1585.78
	L957.37,1585.78z"/>
<path style="fill-rule:evenodd;clip-rule:evenodd;fill:#59392B;" d="M1055.94,786.23c-99.09,47.72-147.02,102.83-154.09,216.37
	c-9.15,147.95,45.54,92.33-32.65,223.75c-45.75,76.84-62.9,126.95-34.1,211.48c-32.13-82.76-18.4-138.8,27.34-215.64
	c76.52-128.61,22.35-71.74,31.5-220C901.23,885.01,951.86,831.05,1055.94,786.23L1055.94,786.23z"/>
<rect x="2111.04" y="1688.08" style="fill-rule:evenodd;clip-rule:evenodd;fill:#1A0E0A;" width="166.35" height="4.89"/>
<path style="fill-rule:evenodd;clip-rule:evenodd;fill:#FEFEFE;" d="M763.36,1115.3H270.95V851.22c0-22.25,18.2-40.45,40.45-40.45
	h411.52c22.25,0,40.44,18.2,40.44,40.45V1115.3z"/>
<path style="fill-rule:evenodd;clip-rule:evenodd;fill:#FEFEFE;" d="M270.74,1060.62v123.73c0,22.25,18.2,40.44,40.45,40.44h411.52
	c22.25,0,40.45-18.19,40.45-40.44v-123.73H270.74z"/>
<path style="fill-rule:evenodd;clip-rule:evenodd;fill:#00A3FE;" d="M270.95,869.31v-18.09c0-22.25,18.2-40.45,40.45-40.45h411.52
	c22.25,0,40.44,18.2,40.44,40.45v18.09H270.95z"/>
<path style="fill-rule:evenodd;clip-rule:evenodd;fill:#0F0036;" d="M406.63,788.52L406.63,788.52c-4.16,0-7.59,3.43-7.59,7.59
	v29.32c0,4.16,3.43,7.59,7.59,7.59l0,0c4.16,0,7.49-3.43,7.49-7.59v-29.32C414.12,791.95,410.79,788.52,406.63,788.52L406.63,788.52
	z"/>
<path style="fill-rule:evenodd;clip-rule:evenodd;fill:#29150F;stroke:#1B1C1C;stroke-width:0.5669;stroke-miterlimit:10;" d="
	M406.63,788.52L406.63,788.52c-4.16,0-7.59,3.43-7.59,7.59v29.32c0,4.16,3.43,7.59,7.59,7.59l0,0c4.16,0,7.49-3.43,7.49-7.59v-29.32
	C414.12,791.95,410.79,788.52,406.63,788.52L406.63,788.52z"/>
<path style="fill-rule:evenodd;clip-rule:evenodd;fill:#0F0036;" d="M517.16,788.52L517.16,788.52c-4.16,0-7.49,3.43-7.49,7.59
	v29.32c0,4.16,3.33,7.59,7.49,7.59l0,0c4.16,0,7.59-3.43,7.59-7.59v-29.32C524.75,791.95,521.31,788.52,517.16,788.52L517.16,788.52
	z"/>
<path style="fill-rule:evenodd;clip-rule:evenodd;fill:#29150F;stroke:#1B1C1C;stroke-width:0.5669;stroke-miterlimit:10;" d="
	M517.16,788.52L517.16,788.52c-4.16,0-7.49,3.43-7.49,7.59v29.32c0,4.16,3.33,7.59,7.49,7.59l0,0c4.16,0,7.59-3.43,7.59-7.59v-29.32
	C524.75,791.95,521.31,788.52,517.16,788.52L517.16,788.52z"/>
<path style="fill-rule:evenodd;clip-rule:evenodd;fill:#0F0036;" d="M627.68,788.52L627.68,788.52c-4.05,0-7.49,3.43-7.49,7.59
	v29.32c0,4.16,3.43,7.59,7.49,7.59l0,0c4.16,0,7.59-3.43,7.59-7.59v-29.32C635.27,791.95,631.84,788.52,627.68,788.52L627.68,788.52
	z"/>
<path style="fill-rule:evenodd;clip-rule:evenodd;fill:#29150F;stroke:#29150F;stroke-width:0.5669;stroke-miterlimit:10;" d="
	M627.68,788.52L627.68,788.52c-4.05,0-7.49,3.43-7.49,7.59v29.32c0,4.16,3.43,7.59,7.49,7.59l0,0c4.16,0,7.59-3.43,7.59-7.59v-29.32
	C635.27,791.95,631.84,788.52,627.68,788.52L627.68,788.52z"/>
<path style="fill-rule:evenodd;clip-rule:evenodd;fill:#EE6C4D;" d="M426.8,1066.75c17.36,0,34.73,0,51.99,0
	c0-17.36,0-34.73,0-52.09c-17.26,0-34.62,0-51.99,0C426.8,1032.02,426.8,1049.39,426.8,1066.75L426.8,1066.75z"/>
<g>
	<rect x="292.16" y="1014.87" style="fill-rule:evenodd;clip-rule:evenodd;fill:#C8E6FA;" width="51.88" height="51.99"/>
	<path style="fill-rule:evenodd;clip-rule:evenodd;fill:#C8E6FA;" d="M359.43,1066.75c17.36,0,34.73,0,51.99,0
		c0-17.36,0-34.62,0-51.99c-17.26,0-34.62,0-51.99,0C359.43,1032.13,359.43,1049.39,359.43,1066.75L359.43,1066.75z"/>
	<path style="fill-rule:evenodd;clip-rule:evenodd;fill:#C8E6FA;" d="M494.18,1066.65c17.36,0,34.62,0,51.99,0
		c0-17.36,0-34.62,0-51.99c-17.36,0-34.62,0-51.99,0C494.18,1032.02,494.18,1049.28,494.18,1066.65L494.18,1066.65z"/>
	<path style="fill-rule:evenodd;clip-rule:evenodd;fill:#C8E6FA;stroke:#C8E6F0;stroke-width:0.1984;stroke-miterlimit:10;" d="
		M561.55,1066.54c17.36,0,34.62,0,51.99,0c0-17.26,0-34.62,0-51.99c-17.36,0-34.62,0-51.99,0
		C561.55,1031.92,561.55,1049.28,561.55,1066.54L561.55,1066.54z"/>
	<path style="fill-rule:evenodd;clip-rule:evenodd;fill:#C8E6FA;" d="M628.92,1066.54c17.26,0,34.62,0,51.99,0
		c0-17.36,0-34.73,0-51.99c-17.36,0-34.73,0-51.99,0C628.92,1031.82,628.92,1049.18,628.92,1066.54L628.92,1066.54z"/>
	<rect x="696.3" y="1014.45" style="fill-rule:evenodd;clip-rule:evenodd;fill:#C8E6FA;" width="51.99" height="51.99"/>
	<rect x="291.12" y="948.64" style="fill-rule:evenodd;clip-rule:evenodd;fill:#C8E6FA;" width="51.99" height="51.99"/>
	<rect x="291.12" y="1081.1" style="fill-rule:evenodd;clip-rule:evenodd;fill:#C8E6FA;" width="52.09" height="51.99"/>
	<rect x="292.06" y="1145.25" style="fill-rule:evenodd;clip-rule:evenodd;fill:#C8E6FA;" width="51.99" height="51.99"/>
	<path style="fill-rule:evenodd;clip-rule:evenodd;fill:#C8E6FA;" d="M358.7,1000.52c17.26,0,34.62,0,51.99,0
		c0-17.36,0-34.62,0-51.99c-17.36,0-34.73,0-51.99,0C358.7,965.9,358.7,983.16,358.7,1000.52L358.7,1000.52z"/>
	<path style="fill-rule:evenodd;clip-rule:evenodd;fill:#C8E6FA;" d="M358.7,1133.08c17.36,0,34.62,0,51.99,0
		c0-17.36,0-34.73,0-51.99c-17.36,0-34.62,0-51.99,0C358.7,1098.36,358.7,1115.72,358.7,1133.08L358.7,1133.08z"/>
	<path style="fill-rule:evenodd;clip-rule:evenodd;fill:#C8E6FA;" d="M359.53,1197.13c17.36,0,34.62,0,51.99,0
		c0-17.36,0-34.62,0-51.99c-17.36,0-34.62,0-51.99,0C359.53,1162.51,359.53,1179.77,359.53,1197.13L359.53,1197.13z"/>
	<path style="fill-rule:evenodd;clip-rule:evenodd;fill:#C8E6FA;" d="M426.18,1000.52c17.36,0,34.62,0,51.99,0
		c0-17.36,0-34.73,0-51.99c-17.36,0-34.62,0-51.99,0C426.18,965.79,426.18,983.16,426.18,1000.52L426.18,1000.52z"/>
	<path style="fill-rule:evenodd;clip-rule:evenodd;fill:#C8E6FA;" d="M426.18,1132.98c17.36,0,34.73,0,51.99,0
		c0-17.36,0-34.62,0-51.99c-17.26,0-34.62,0-51.99,0C426.18,1098.36,426.18,1115.62,426.18,1132.98L426.18,1132.98z"/>
	<path style="fill-rule:evenodd;clip-rule:evenodd;fill:#C8E6FA;" d="M427.12,1197.03c17.26,0,34.62,0,51.88,0
		c0-17.26,0-34.62,0-51.99c-17.26,0-34.62,0-51.88,0C427.12,1162.4,427.12,1179.77,427.12,1197.03L427.12,1197.03z"/>
	<path style="fill-rule:evenodd;clip-rule:evenodd;fill:#C8E6FA;" d="M493.76,1000.42c17.26,0,34.62,0,51.99,0
		c0-17.36,0-34.62,0-51.99c-17.36,0-34.73,0-51.99,0C493.76,965.79,493.76,983.05,493.76,1000.42L493.76,1000.42z"/>
	<path style="fill-rule:evenodd;clip-rule:evenodd;fill:#C8E6FA;" d="M493.76,1132.88c17.26,0,34.62,0,51.99,0
		c0-17.26,0-34.62,0-51.88c-17.36,0-34.73,0-51.99,0C493.76,1098.25,493.76,1115.62,493.76,1132.88L493.76,1132.88z"/>
	<path style="fill-rule:evenodd;clip-rule:evenodd;fill:#C8E6FA;" d="M494.59,1197.03c17.36,0,34.62,0,51.99,0
		c0-17.36,0-34.62,0-51.99c-17.36,0-34.62,0-51.99,0C494.59,1162.4,494.59,1179.66,494.59,1197.03L494.59,1197.03z"/>
	<path style="fill-rule:evenodd;clip-rule:evenodd;fill:#C8E6FA;" d="M561.24,1000.31c17.36,0,34.62,0,51.99,0
		c0-17.26,0-34.62,0-51.99c-17.36,0-34.62,0-51.99,0C561.24,965.69,561.24,983.05,561.24,1000.31L561.24,1000.31z"/>
	<path style="fill-rule:evenodd;clip-rule:evenodd;fill:#C8E6FA;" d="M561.24,1132.88c17.36,0,34.62,0,51.99,0
		c0-17.36,0-34.62,0-51.99c-17.36,0-34.62,0-51.99,0C561.24,1098.25,561.24,1115.51,561.24,1132.88L561.24,1132.88z"/>
	<path style="fill-rule:evenodd;clip-rule:evenodd;fill:#C8E6FA;" d="M562.07,1196.92c17.36,0,34.73,0,51.99,0
		c0-17.26,0-34.62,0-51.99c-17.26,0-34.62,0-51.99,0C562.07,1162.3,562.07,1179.66,562.07,1196.92L562.07,1196.92z"/>
	<path style="fill-rule:evenodd;clip-rule:evenodd;fill:#C8E6FA;" d="M628.72,1000.31c17.36,0,34.73,0,51.99,0
		c0-17.36,0-34.62,0-51.99c-17.26,0-34.62,0-51.99,0C628.72,965.69,628.72,982.95,628.72,1000.31L628.72,1000.31z"/>
	<path style="fill-rule:evenodd;clip-rule:evenodd;fill:#C8E6FA;" d="M628.82,1132.77c17.26,0,34.62,0,51.99,0
		c0-17.26,0-34.62,0-51.99c-17.36,0-34.73,0-51.99,0C628.82,1098.15,628.82,1115.51,628.82,1132.77L628.82,1132.77z"/>
	<rect x="696.3" y="948.22" style="fill-rule:evenodd;clip-rule:evenodd;fill:#C8E6FA;" width="51.99" height="51.99"/>
	<rect x="696.3" y="1080.79" style="fill-rule:evenodd;clip-rule:evenodd;fill:#C8E6FA;" width="51.99" height="51.99"/>
	<path style="fill-rule:evenodd;clip-rule:evenodd;fill:#C8E6FA;" d="M494.49,934.6c17.36,0,34.62,0,51.99,0
		c0-17.36,0-34.73,0-51.99c-17.36,0-34.62,0-51.99,0C494.49,899.88,494.49,917.24,494.49,934.6L494.49,934.6z"/>
	<path style="fill-rule:evenodd;clip-rule:evenodd;fill:#C8E6FA;" d="M561.86,934.5c17.26,0,34.62,0,51.99,0
		c0-17.36,0-34.62,0-51.99c-17.36,0-34.73,0-51.99,0C561.86,899.88,561.86,917.13,561.86,934.5L561.86,934.5z"/>
	<path style="fill-rule:evenodd;clip-rule:evenodd;fill:#C8E6FA;" d="M629.24,934.39c17.26,0,34.62,0,51.99,0
		c0-17.26,0-34.62,0-51.99c-17.36,0-34.73,0-51.99,0C629.24,899.77,629.24,917.13,629.24,934.39L629.24,934.39z"/>
	<rect x="696.61" y="882.41" style="fill-rule:evenodd;clip-rule:evenodd;fill:#C8E6FA;" width="51.88" height="51.99"/>
</g>
</svg>
