<?xml version="1.0" encoding="utf-8"?>
<!-- Generator: Adobe Illustrator 27.0.1, SVG Export Plug-In . SVG Version: 6.00 Build 0)  -->
<svg version="1.1" id="Layer_1" xmlns="http://www.w3.org/2000/svg" xmlns:xlink="http://www.w3.org/1999/xlink" x="0px" y="0px"
	 viewBox="0 0 342.1 438.8" style="enable-background:new 0 0 342.1 438.8;" xml:space="preserve">
<style type="text/css">
	.st0{fill:#FFFFFF;}
	.st1{fill:url(#SVGID_1_);}
	.st2{fill:url(#SVGID_00000062169593933316904660000008665423562157438087_);}
	.st3{fill:url(#SVGID_00000095303257782165115200000014022032892863704704_);}
	.st4{fill:url(#SVGID_00000118371848956497907990000000724530177229254575_);}
	.st5{fill:url(#SVGID_00000031909172678587704190000009516559140525798803_);}
	.st6{fill:url(#SVGID_00000088135188844477571430000013101433878623457462_);}
	.st7{fill:#0E9EDA;}
	.st8{fill:#00A3FE;}
</style>
<path class="st0" d="M27.4,351.5h18.2c13.5,3.7,25.9,10.5,34.2,18.6c7.3-8.3,18.4-14.7,32.2-18.6h23.1l-0.3,87.3h-21.3l0.1-70.7
	c-12.8,6.2-21.7,16.2-21.8,27.9l0.2,42.9H70.6v-46.3c-0.1-2.9-0.7-5.9-1.7-8.6c-2.9-7-9.9-13.8-20.2-18v72.8H27.4V351.5z"/>
<rect x="152.2" y="351.5" class="st0" width="21.3" height="87.3"/>
<path class="st0" d="M212.1,368.7l-0.1,70.1h-21.3v-87.3c20,0,47.3,12.5,60.6,23.5v-23.5h21.3v87.3h-21.3
	c-0.2-11.1,2.2-28.9-2.7-40.7C243.7,386.1,230.8,375,212.1,368.7z"/>
<path class="st0" d="M309.8,425.3c5.5,0,11.5-3.7,9.8-7.8l-28.8-41.7c-0.7-1.1-1.4-2.2-1.9-3.4c-4.6-11.1,8-20.9,25-20.9h28.4v13.3
	c-2.6,0-7.9-0.3-13.4-0.3c-10.4,0-22.1,1.2-19.6,7.4l0.3,0.7l28.8,41.7c0.7,1.1,1.4,2.2,1.9,3.4c4.6,11.1-8,21.1-24.9,21.1h-29.9
	l-0.1-13.5L309.8,425.3z"/>
<path class="st0" d="M27,192.5c1-85.9,71.4-154.7,157.3-153.7C268.8,39.7,337,108,338,192.5c0,1.5-0.1,3-0.1,4.5
	C352.7,104.3,289.7,17.1,197,2.2S17,50.4,2.2,143.1C-10.2,220.5,31.8,296.3,104,326.7C56.3,298.8,27,247.7,27,192.5z"/>
<linearGradient id="SVGID_1_" gradientUnits="userSpaceOnUse" x1="130.6" y1="-484.2" x2="130.6" y2="-334.1" gradientTransform="matrix(1 0 0 -1 0 -202)">
	<stop  offset="0" style="stop-color:#109FDA"/>
	<stop  offset="1" style="stop-color:#49C3CF"/>
</linearGradient>
<path class="st1" d="M151.8,220.4c0-16.6-13.1-18.3-25.9-18.3H116l6.1-22.9H134c8.7,0,19.2-9,19.2-18c0-4.1-2.9-6.1-6.7-6.1H119
	l6.1-23h21.5c16.6,0,29.6,12.2,29.6,29.1c0,11-5.8,21.8-13.9,29.3c8.1,7.6,12.5,18.6,12.5,29.9c0,18.6-10.8,36.3-25,47.6
	c-11,8.4-24.7,14.2-38.6,14.2H85l6.1-23.2c5.2,0,9.9,0.3,14.2,0.3c10.7,0,19.5-1.2,29.9-9.6C144.3,242.8,151.8,232.1,151.8,220.4z"
	/>
<linearGradient id="SVGID_00000181078988962098005600000010119713758636199861_" gradientUnits="userSpaceOnUse" x1="242.9" y1="-484.4" x2="242.9" y2="-334.1997" gradientTransform="matrix(1 0 0 -1 0 -202)">
	<stop  offset="0" style="stop-color:#109FDA"/>
	<stop  offset="1" style="stop-color:#49C3CF"/>
</linearGradient>
<path style="fill:url(#SVGID_00000181078988962098005600000010119713758636199861_);" d="M299.7,183.3c0,38.1-30.2,99.1-73.8,99.1
	c-27.9,0-39.8-27.3-39.8-51.4c0-37.8,30.2-98.8,73.8-98.8C287.8,132.1,299.7,159.1,299.7,183.3z M209.1,230.9
	c0,10.5,3.2,28.2,16.9,28.2c29.4,0,50.6-50.9,50.6-75.8c0-10.2-2.9-28.2-16.6-28.2C230.6,155.1,209.1,206.2,209.1,230.9z"/>
<linearGradient id="SVGID_00000065759817356478116370000006983032980350411404_" gradientUnits="userSpaceOnUse" x1="-46.7028" y1="-485.8972" x2="336.1271" y2="-103.0772" gradientTransform="matrix(1 0 0 -1 0 -202)">
	<stop  offset="0" style="stop-color:#109FDA"/>
	<stop  offset="1" style="stop-color:#49C3CF"/>
</linearGradient>
<rect x="163.3" y="56.2" style="fill:url(#SVGID_00000065759817356478116370000006983032980350411404_);" width="13.5" height="21.9"/>
<linearGradient id="SVGID_00000161603964397158784190000003848362354065842343_" gradientUnits="userSpaceOnUse" x1="7.7254" y1="-540.3254" x2="390.5455" y2="-157.4954" gradientTransform="matrix(1 0 0 -1 4.794533e-04 -201.9951)">
	<stop  offset="0" style="stop-color:#109FDA"/>
	<stop  offset="1" style="stop-color:#49C3CF"/>
</linearGradient>
<polygon style="fill:url(#SVGID_00000161603964397158784190000003848362354065842343_);" points="235.7,102.5 248.4,86.5 259,94.9 
	246.3,110.9 "/>
<linearGradient id="SVGID_00000100363893139797924030000006153737604687694209_" gradientUnits="userSpaceOnUse" x1="-71.6469" y1="-460.9431" x2="311.173" y2="-78.123" gradientTransform="matrix(1 0 0 -1 1.691103e-03 -201.9978)">
	<stop  offset="0" style="stop-color:#109FDA"/>
	<stop  offset="1" style="stop-color:#49C3CF"/>
</linearGradient>
<polygon style="fill:url(#SVGID_00000100363893139797924030000006153737604687694209_);" points="76.7,95 87,86.4 100.5,102.4 
	90.2,111 "/>
<linearGradient id="SVGID_00000005264057816522050360000006601489374044953240_" gradientUnits="userSpaceOnUse" x1="-49.2485" y1="-483.3511" x2="333.5715" y2="-100.5212" gradientTransform="matrix(1 0 0 -1 0 -202)">
	<stop  offset="0" style="stop-color:#109FDA"/>
	<stop  offset="1" style="stop-color:#49C3CF"/>
</linearGradient>
<rect x="42.2" y="174.5" style="fill:url(#SVGID_00000005264057816522050360000006601489374044953240_);" width="17.3" height="13.5"/>
<path class="st7" d="M151.8,220.4c0-16.6-13.1-18.3-25.9-18.3H116l6.1-22.9H134c8.7,0,19.2-9,19.2-18c0-4.1-2.9-6.1-6.7-6.1H119
	l6.1-23h21.5c16.6,0,29.6,12.2,29.6,29.1c0,11-5.8,21.8-13.9,29.3c8.1,7.6,12.5,18.6,12.5,29.9c0,18.6-10.8,36.3-25,47.6
	c-11,8.4-24.7,14.2-38.6,14.2H85l6.1-23.2c5.2,0,9.9,0.3,14.2,0.3c10.7,0,19.5-1.2,29.9-9.6C144.3,242.8,151.8,232.1,151.8,220.4z"
	/>
<path class="st7" d="M299.7,183.3c0,38.1-30.2,99.1-73.8,99.1c-27.9,0-39.8-27.3-39.8-51.4c0-37.8,30.2-98.8,73.8-98.8
	C287.8,132.1,299.7,159.1,299.7,183.3z M209.1,230.9c0,10.5,3.2,28.2,16.9,28.2c29.4,0,50.6-50.9,50.6-75.8
	c0-10.2-2.9-28.2-16.6-28.2C230.6,155.1,209.1,206.2,209.1,230.9z"/>
<rect x="163.3" y="56.2" class="st7" width="13.5" height="21.9"/>
<rect x="237.2" y="91.9" transform="matrix(0.6196 -0.7849 0.7849 0.6196 16.6514 231.7053)" class="st7" width="20.4" height="13.5"/>
<rect x="81.8" y="88.2" transform="matrix(0.7649 -0.6441 0.6441 0.7649 -42.7268 80.2048)" class="st7" width="13.5" height="20.9"/>
<rect x="42.2" y="174.5" class="st7" width="17.3" height="13.5"/>
<path class="st8" d="M151.8,220.4c0-16.6-13.1-18.3-25.9-18.3H116l6.1-22.9H134c8.7,0,19.2-9,19.2-18c0-4.1-2.9-6.1-6.7-6.1H119
	l6.1-23h21.5c16.6,0,29.6,12.2,29.6,29.1c0,11-5.8,21.8-13.9,29.3c8.1,7.6,12.5,18.6,12.5,29.9c0,18.6-10.8,36.3-25,47.6
	c-11,8.4-24.7,14.2-38.6,14.2H85l6.1-23.2c5.2,0,9.9,0.3,14.2,0.3c10.7,0,19.5-1.2,29.9-9.6C144.3,242.8,151.8,232.1,151.8,220.4z"
	/>
<path class="st8" d="M299.7,183.3c0,38.1-30.2,99.1-73.8,99.1c-27.9,0-39.8-27.3-39.8-51.4c0-37.8,30.2-98.8,73.8-98.8
	C287.8,132.1,299.7,159.1,299.7,183.3z M209.1,230.9c0,10.5,3.2,28.2,16.9,28.2c29.4,0,50.6-50.9,50.6-75.8
	c0-10.2-2.9-28.2-16.6-28.2C230.6,155.1,209.1,206.2,209.1,230.9z"/>
<rect x="163.3" y="56.2" class="st8" width="13.5" height="21.9"/>
<rect x="237.2" y="91.9" transform="matrix(0.6196 -0.7849 0.7849 0.6196 16.6514 231.7053)" class="st8" width="20.4" height="13.5"/>
<rect x="81.8" y="88.2" transform="matrix(0.7649 -0.6441 0.6441 0.7649 -42.7268 80.2048)" class="st8" width="13.5" height="20.9"/>
<rect x="42.2" y="174.5" class="st8" width="17.3" height="13.5"/>
</svg>
