<?xml version="1.0" encoding="utf-8"?>
<!-- Generator: Adobe Illustrator 27.0.1, SVG Export Plug-In . SVG Version: 6.00 Build 0)  -->
<svg version="1.1" id="Layer_1" xmlns="http://www.w3.org/2000/svg" xmlns:xlink="http://www.w3.org/1999/xlink" x="0px" y="0px"
	 viewBox="0 0 576 288" style="enable-background:new 0 0 576 288;" xml:space="preserve">
<style type="text/css">
	.st0{fill-rule:evenodd;clip-rule:evenodd;}
</style>
<path class="st0" d="M0,212.3c1.5,0,3-0.1,4.4-0.1c15.3-0.3,28.4-1,37.1-2.2c8.6-1.2,12.8-3,14.8-4.8c1.9-1.7,1.8-3.6,1.7-4.9
	c-0.1-1.5-0.2-2.5,0.2-3.2c0.2-0.4,0.5-0.6,0.9-0.8c-8.8-0.3-16.7-1.4-19.4-9.3c-1.4-4-1.4-9.7-0.8-15.8c0.9-8.3,3.1-17.3,5.1-23.9
	c1.7-5.7,3.2-9.4,4.9-12.1c1.7-2.7,3.6-4.3,6.1-5.7c2.8-1.5,6.3-2.7,9.6-3.8c2.5-0.8,4.9-1.6,6.7-2.5c2.1-1,3.4-2,4.4-3.3
	c1-1.2,1.6-2.7,2.1-4.3c0.6-1.8,1.2-3.9,1.6-6c0.4-1.9,0.7-3.8,0.8-5.6c0.1-1.6,0-3.1-0.2-4.4c-0.2,0.9-0.4,1.8-0.6,2.4
	c-0.3,0.7-0.6,1.2-1,1.5c-0.2,0.1-0.4,0.2-0.6,0.2c-0.2,0-0.4,0-0.6-0.1c-0.4-0.1-0.8-0.5-1.1-1c-0.5-0.7-1-1.9-1.2-3.1
	c-0.2-1-0.2-2.1,0.1-3c0.2-0.5,0.5-1,0.8-1.3c0.3-0.3,0.7-0.5,1.1-0.7c0.4-0.1,0.9-0.1,1.3,0c0.4,0.1,0.7,0.3,1,0.7
	c0.2,0.3,0.5,0.6,0.7,1l0-0.3c0.1-1,0.3-1.9,0.4-2.9c0.3-1.6,0.6-3.1,1-4.4c0.4-1.3,1-2.6,1.7-3.6c0.7-1.1,1.6-2,2.7-2.7
	c1.2-0.7,2.6-1.2,4.4-1.3c1.9-0.1,4.1,0,6.4,0.5c2.1,0.4,4.2,1.2,5.9,2.1c1.6,0.9,2.8,1.9,3.8,3c1.1,1.3,1.8,2.8,2.1,3.9
	c0.3,1,0.2,1.9,0,2.5c-0.2,0.9-0.7,1.4-1.3,1.7c-0.5,0.2-1.1,0.2-1.7-0.2c-0.6-0.3-1.3-0.8-2.2-1.5l-0.5-0.4c-1.7-1.3-4-3-6.1-4
	c-1.1-0.5-2.2-0.8-3.3-1c-1-0.2-2-0.2-2.9-0.1c-0.9,0.1-1.7,0.2-2.5,0.5c-0.8,0.3-1.5,0.7-2.1,1.4c-0.6,0.6-1.1,1.3-1.6,2.1
	c-0.7,1-1.2,2.1-1.5,2.9c-0.3,0.6-0.4,1-0.4,1.3c0,0.2,0.2,0.4,0.5,0.6c0.4,0.3,1,0.6,1.6,0.9c0.6,0.3,1.2,0.6,1.7,0.7
	c0.8,0.3,0.8,0.3,1.5,0.3c0.4,0,1,0,1.7,0c0.7,0,1.5,0.1,2.2,0.2c0.7,0.1,1.3,0.3,1.9,0.5c0.7,0.2,1.2,0.5,1.6,0.7
	c0.2,0.1,0.3,0.2,0.4,0.3c1.2,0.3,2.4,0.6,3.8,0.8c0.8,0.1,1.7,0.2,2.5,0.2c1.3,0.1,2.4,0.2,3.3,0.4c0.2,0,0.4,0.1,0.6,0.2
	c0.4-0.1,0.7-0.2,1-0.3c0-0.7,0-1.4,0-2.1l0-0.4c0-0.9,0-1.6,0-2.1c0.1-1.1,0.3-1.5,0.8-0.9c0.1,0.2,0.3,0.8,0.5,1.6
	c0.1,0.6,0.2,1.3,0.2,2c0,0.8-0.1,1.4-0.5,1.9c-0.1,0.1-0.2,0.2-0.3,0.3c0,1-0.2,2.1-0.4,3.2c-0.3,1.1-0.7,2.3-1.2,3.6
	c-0.5,1.2-1.2,2.5-1.9,3.9c-0.7,1.4-1.5,2.8-2.4,4.2c-0.9,1.4-2,2.7-3.4,3.7c-1.1,0.8-2.3,1.5-3.6,1.9c0.6,0,1.2-0.1,1.7-0.2
	c0.6-0.1,1.1-0.3,1.7-0.4c1.6-0.5,3.1-0.9,5.7-0.4c3,0.6,7.4,2.5,11.2,4.1l1.7,0.7l1.1,0.5c3.6,1.5,6.3,2.7,8,4.7
	c1.8,2.1,2.6,5.2,3.3,7.5l0.2,0.8c0.6,2.2,1,3.7,0,6.6c-0.5,1.5-1.5,3.5-2.3,5.3c-0.8,1.6-1.5,3.1-1.9,4.2c-0.3,1-0.3,1.4-0.1,1.7
	c0.3,0.2,0.9,0.3,1.7,0.3l0.4,0c1.1,0,2.5,0.1,3.6,0.5l0-1.1c0.1-4.6,0.3-9.2,0.7-12.9c0.4-4.1,1.1-7.1,1.9-9.6
	c0.8-2.5,1.9-4.4,3.2-6.2c1.3-1.9,2.9-3.8,4.7-5.4c1.6-1.4,3.4-2.6,5.4-3.4c2.5-1.1,5.3-1.6,8-2.1c1.9-0.4,3.7-0.7,5.3-1.2
	c1.5-0.5,2.8-1.1,4-2c-0.2,0-0.4-0.1-0.7-0.1c-0.8-0.3-1.7-0.9-2.3-1.9c-0.5-0.8-0.9-1.8-1-3.1c-0.1-1.3,0.1-2.9,0.3-4.3
	c0.2-1.5,0.4-2.9,0.1-3.4c-0.2-0.5-1.2-0.2-2.2,0.2c-0.6,0.2-1.3,0.5-2,0.6c-0.5,0.1-0.9,0-1.3-0.1c-0.4-0.1-0.7-0.3-0.9-0.6
	c-0.2-0.3-0.4-0.7-0.4-1.1c-0.1-0.7,0-1.7,0.5-3c0.7-2,2-4.6,3.8-7.3c1.5-2.3,3.4-4.6,5.3-6.5c2.1-2,4.3-3.4,6.6-4.2
	c2.3-0.8,4.8-1,7.4-0.7c2.4,0.3,4.8,1.2,7.1,2.2c2.7,1.3,5.3,2.8,7.1,4.3c1.6,1.2,2.7,2.4,3.4,3.5c1,1.3,1.4,2.5,1.6,3.5
	c0.1,0.7,0.1,1.3-0.1,1.7c-0.1,0.3-0.2,0.6-0.4,0.8c-0.2,0.2-0.5,0.4-0.8,0.4c-0.2,0-0.5,0-0.8-0.1c-0.5-0.1-1-0.5-1.6-0.8
	c-1-0.6-2.3-1.4-3.7-1.4c-1.1,0-2.3,0.3-3.7,1.1c-1.4,0.8-2.9,2.1-4.7,3.8c-2.3,2.3-4.9,5.3-7.4,8.2c-0.6,0.7-1.3,1.5-1.9,2.1
	l0.1-0.1c4.1-3.9,10-9.3,14.2-11.6c2.2-1.2,4-1.5,5.4-1.4c1.9,0.2,3.1,1.3,3.8,2.5c0.6,1.1,0.9,2.2,0.9,3.8c0,1.5-0.3,3.4-0.6,5.9
	c-0.4,2.5-0.9,5.7-1.8,8.7c-0.9,3-2.1,5.7-4,7.1c-0.5,0.4-1.1,0.8-1.8,1l1.3,0.2c3,0.5,6.5,1,10.1,2.7c2.2,1,4.3,2.4,6.3,4.4
	c2,2,3.8,4.6,5.3,8c1.2,2.9,2.2,6.4,3,9.8c1,4.6,1.6,9.2,1.9,12.3c0.2,2.7,0.2,4.3-0.4,5.2c-0.5,0.9-1.5,1.2-3,1.4
	c0.8,1,1.3,2.5,1.6,5c0.1,0.5,0.1,1,0.1,1.6c1,1.7,1.8,3.6,2.3,5.4c0.3,1.2,0.5,2.4,0.7,3.5c0.4,2.3,0.7,4.2,2.4,5.3
	c1.1,0.7,2.7,1.1,4.5,1.3c2.6,0.3,5.4,0.3,7.3,0.2c1.5-0.1,2.4-0.2,2.8-0.7c0.4-0.5,0.3-1.4,0-3c-0.2-1.1-0.6-2.5-1-4.1
	c-0.9-3.4-1.9-7.5-2.1-10.6c-0.2-2.3,0-4.1,0.7-5.5c0.7-1.4,1.9-2.3,3.7-3c1.6-0.6,3.7-0.8,5.8-0.9c2.3,0,4.6,0.2,6.2,0.7
	c1,0.3,1.8,0.7,2.3,1.1c0.2,0.1,0.3,0.3,0.4,0.4l0-0.1c0.2-0.4,0.2-0.7,0-1.1c-0.1-0.3-0.4-0.7-0.9-1c-0.3-0.2-0.8-0.5-1.3-0.7
	c-0.9-0.4-2.2-0.7-3.4-1.1c-1.7-0.5-3.4-1-4.5-1.6c-1.9-1.2-1.8-2.7-1.6-5.8l0-0.3c0.1-1.6,0.2-3.7,0.2-5.6c0-2-0.1-3.9-0.3-5.2
	c-0.1-0.7-0.3-1.2-0.5-1.6c-0.2-0.5-0.5-0.8-0.8-0.9c-0.3-0.2-0.5-0.2-0.8-0.1c-0.1,0-0.2,0.1-0.4,0.1c-0.5,0.2-0.9,0.7-1.3,1.6
	c-0.2,0.4-0.4,0.9-0.6,1.5c0.2,0.5,0.3,1,0.3,1.8c0.1,1.2,0,2.7-0.2,4.6c-0.2,2.2-0.4,4.8-0.6,7c-0.2,1.7-0.4,3.1-0.6,3.9
	c-0.1,0.4-0.3,0.7-0.4,0.8c-0.2,0.2-0.5,0.2-0.7,0c-0.1-0.1-0.2-0.3-0.3-0.5c-0.2-0.6-0.3-2-0.3-3.7c0-1.6,0.2-3.6,0.5-5.7
	c0.3-2.2,0.7-4.4,1.1-6.1c0.2-0.8,0.4-1.5,0.6-2.1c-0.1-0.1-0.1-0.2-0.2-0.3c-0.4-0.4-1.1-0.3-1.9-0.3c-0.7,0-1.4,0.1-2-0.2
	c-0.3-0.1-0.5-0.2-0.7-0.4c-0.3-0.3-0.6-0.7-0.7-1.1c-0.1-0.4-0.1-1,0.1-1.5c0.2-0.4,0.4-0.9,0.8-1.3c0.9-1.1,2.5-2.1,4.1-3.2
	c1.1-0.7,2.2-1.4,2.8-2.1c0.8-0.7,1.1-1.3,1.1-1.8c0-0.6-0.3-1.2-0.7-1.9c-0.1-0.2-0.3-0.5-0.4-0.7c-0.9-1.5-1.9-3.1-1.2-4.5
	c0.4-0.8,1.4-1.3,2.5-2c1.1-0.6,2.3-1.4,3.4-2.5c1-1,1.9-2.3,2.6-3.7c0.8-1.6,1.4-3.3,1.7-4.7c0.2-0.9,0.2-1.6,0.3-2.2
	c0.1-1.4,0.2-2.4,1.3-2.9c0.6-0.3,1.5-0.4,2.4-0.6c1.4-0.2,3-0.4,3.9-1.2c0.8-0.7,1.2-1.9,1.7-3.2c0.4-1.1,0.8-2.3,1.5-3.3
	c0.7-1,1.8-1.8,3.1-2.4c1.4-0.7,3-1.1,4.6-1.2c1.4-0.2,2.8-0.1,4.1,0.1c1.4,0.2,2.7,0.6,3.9,1.1c1,0.4,2,0.9,2.8,1.5
	c1,0.7,1.8,1.3,2.3,1.9c0.5,0.6,0.8,1.1,0.8,1.6c0,0.5-0.4,1-1.1,1.7c-0.3,0.3-0.7,0.6-1.1,0.9c-1.3,1-3,2.3-3.6,3.8
	c-0.5,1.2-0.5,2.6-0.4,4c0,1,0.1,1.9-0.1,2.8c-0.2,0.9-0.5,1.7-0.9,2.5c-0.5,1.1-1,2.2-1,3.7c0,1.5,0.5,3.3,1,5.2
	c0.4,1.5,0.8,2.9,1,4.3c0.2,1.6,0.2,3.1,0,4.4c-0.2,1.3-0.6,2.5-1.1,3.5c-0.3,0.8-0.7,1.5-1,2.1c-0.5,1-0.9,1.7-0.8,2.1
	c0,0.2,0.3,0.4,0.7,0.4c0.5,0.1,1.3,0.1,2.1,0.1c0.8,0,1.7-0.1,2.5-0.3c0.7-0.2,1.3-0.5,1.7-1.1c0.3-0.5,0.4-1.2,0.3-1.9
	c-0.1-0.9-0.4-1.9-0.8-2.7c-0.2-0.4-0.4-0.7-0.6-1c-0.1-0.2-0.3-0.4-0.4-0.6c-0.4-0.7-0.4-1.2,0.5-1.7c0.3-0.2,0.7-0.3,1.2-0.5
	c1.5-0.6,3.8-1.4,5.5-3.7c1.1-1.4,1.9-3.5,2.5-5.7c0.6-2.5,1-5.2,1-7.7c0-2.2-0.2-4.2-0.6-6c-0.5-2.1-1.1-3.9-1.8-5.2
	c-1.1-2.1-2.3-3-3.6-4l-0.5-0.4c-0.9-0.7-1.8-1.5-2.5-2.2c-0.6-0.6-1-1.2-1-1.5c0-0.1,0-0.2,0-0.2c0.1-0.3,0.3-0.4,0.6-0.4
	c0.2,0,0.5,0,0.9,0.1c0.7,0.2,1.8,0.6,3,1.2c1.2,0.7,2.6,1.6,3.9,2.6c1.2,0.9,2.3,1.9,3,2.8c1.4,1.7,1.6,3.1,1.9,4.8l0.1,0.7
	c0.2,1.1,0.5,2.4,0.8,3.6c0.3,1.1,0.6,2.1,1,3c0.3,0.8,0.7,1.5,1,2.1c0.5,0.9,0.9,1.7,1,2.5c0.1,0.6,0,1.1,0,1.6
	c-0.1,0.7-0.1,1.4,0.1,2.2c0.3,0.7,0.9,1.6,1.5,2.4c0.5,0.7,1,1.3,1.3,2c0.4,0.8,0.5,1.5,0.3,2.1c-0.2,0.7-0.6,1.3-1.3,1.8
	c-0.4,0.3-0.9,0.6-1.3,0.9c-1,0.6-2,1.2-1.8,1.7c0.3,0.7,1.9,1.5,3.5,2.4c0.7,0.4,1.4,0.8,2,1.1c1,0.6,1.7,1.2,2.1,1.8
	c0.4,0.7,0.5,1.3,0.2,2.1c-0.3,0.7-0.9,1.5-1.6,2.1c-0.6,0.5-1.4,0.9-2.1,1c0.5,1,1,2.3,1.5,4.2c0.7,2.8,1.2,6.9,1.5,11.2
	c0.5,5.5,0.7,11.5,0.8,16.3c0.1,4.3,0,7.6-0.3,10.2c-0.3,2.6-0.8,4.4-1.6,5.6c-0.2,0.3-0.4,0.6-0.6,0.8c0.8,0.1,1.9,0.1,3-0.1
	c1.4-0.2,2.9-0.7,4.3-1.3c1.2-0.5,2.2-1.2,2.8-1.9c1.1-1.2,0.9-2.8,0.3-7.3c-0.1-0.8-0.2-1.7-0.3-2.4c-0.5-3.7-1-8.9-1.4-14
	c-0.3-4-0.6-7.9-0.6-11.2c-0.1-3.8,0.1-6.6,0.6-8.9c0.5-2.3,1.4-4,2.8-5.4c1.3-1.4,3-2.5,4.9-3.4c2.1-1,4.3-1.6,6.2-1.8
	c1.9-0.2,3.5-0.1,4.9,0c1.4,0.1,2.5,0.2,3.4-0.1c0.7-0.2,1.3-0.8,1.8-1.5c0.5-0.9,0.9-2,1.1-3.2c0.2-1.1,0.2-2.2,0.1-3.3
	c-0.2-1.1-0.6-2.2-1.2-3.3c-0.3-0.5-0.7-1-1.2-1.6c-1.4-1.8-3.1-4-3.5-7.7c-0.2-2.6,0.2-6,1.3-9.2c1-2.8,2.5-5.4,4.5-7.4
	c2-1.9,4.5-3.2,7-3.9c3.1-0.9,6.2-1,8.6-0.5c2.2,0.4,3.8,1.2,4.9,2.6c1.1,1.3,1.8,3.1,2.3,5.3c0.4,2.1,0.6,4.6,0.7,7.3
	c0,1.9,0,3.9-0.1,5.8c0.1,0.1,0.3,0.2,0.4,0.4c0.3,0.5,0.3,1.3,0,2.9c-0.3,1.5-0.8,3.8-1.3,6.1c-0.5,2.3-1,4.6-1.3,6.3
	c-0.3,1.7-0.4,2.9-0.4,3.7c0,0.8,0.2,1.3,0.5,1.8c0.3,0.5,0.6,0.9,1.2,1.3c0.6,0.4,1.4,0.6,2.7,0.7c1.5,0.1,3.7-0.2,5.8-0.4
	c1.4-0.1,2.7-0.3,3.8-0.3c1.4-0.1,2.4,0,3.2,0.2c0.8,0.2,1.4,0.6,2,1c0.6,0.4,1.1,0.9,1.5,1.4c0.5,0.5,0.8,1.1,1.1,1.6l0.1,0.2
	c0.2,0.5,0.3,1,0.2,1.4l0,0.1c1,0.2,1.7,0.4,2.3,0.7c0.6,0.3,1.1,0.7,1.4,1.2c0.3,0.5,0.4,1.1,0.4,1.7c0,0.6,0,1.2-0.1,1.6
	c0,0.5-0.1,0.8-0.3,1.2c-0.1,0.1-0.2,0.2-0.4,0.3c0.6,0.2,1,0.5,1.4,0.9c0.7,0.8,0.8,2.2,0.9,4.4c0.1,1.8,0.3,4.4,0.4,7
	c0.2,3.6,0.4,7.5,0.5,10c0.1,2.2,0.2,3.4,0,4.1c-0.2,0.9-0.6,1.1-1.3,1.4c-0.7,0.3-1.8,0.6-3.1,0.8c-1,0.2-2.1,0.3-3.2,0.3
	c-1.2,0-2.4-0.2-3.5-0.6c-1.1-0.4-2.1-1-2.9-2c-0.7-0.8-1.3-1.7-1.8-2.7c-0.7-1.3-1.5-2.5-2.4-3.2c-1.6-1.3-4.1-1.1-5.4-1l0,0
	c-0.8,0-1.2,0.1-1.6-0.2c-0.4-0.3-0.5-0.8-0.7-1.7c-0.1-0.8-0.3-1.9-0.4-3.2c-0.2-1.6-0.3-3.4-0.5-5.2c-0.1-1.7-0.3-3.4-0.3-5
	c0-1.6,0.1-3.2,0.3-4.5c0.1-0.3,0.1-0.5,0.2-0.8c-0.5,0.6-0.9,1-1.5,1.1c-0.9,0.1-2-0.5-3.3-1.3c-0.7-0.4-1.5-0.9-2.3-1.3
	c-1.1-0.6-2.4-1-3.9-1.2c-1.4-0.2-3-0.3-4.9-0.1c-1.5,0.2-3.2,0.5-4.8,1c-2.2,0.6-4.3,1.3-5.7,1.9c-1.2,0.4-1.8,0.7-2.2,1
	c-0.3,0.2-0.3,0.4-0.3,0.6c0,0.3,0.1,0.7,0.2,1.2c0.1,0.5,0.3,0.9,0.5,1.4c0.2,0.4,0.4,0.7,0.7,0.9c0.3,0.2,0.7,0.3,1.2,0.3
	c0.9-0.1,2.1-0.5,3.7-1.1c0.8-0.3,1.7-0.6,2.6-0.9c1.7-0.5,3.6-1.1,5.6-1.5c1.6-0.4,3.3-0.7,4.8-0.8c2-0.2,3.8-0.2,4.7-0.1
	c0.2,0,0.4,0.1,0.5,0.1c0.4,0.2,0.5,0.4,0.2,0.7c-0.1,0.1-0.2,0.2-0.5,0.2c-0.6,0.1-2,0.3-3.7,0.5c-2.2,0.2-5,0.5-7.5,0.9
	c-2.1,0.4-3.9,0.8-5.5,1.3c-1.7,0.5-3,1.1-4,1.7c-0.8,0.5-1.3,1-1.5,1.8c-0.2,0.9-0.2,2.3,0.1,4.5c0.1,1.2,0.3,2.7,0.5,4.3
	c0.5,4.3,1.2,9.5,1.1,12.7c0,2.3-0.4,3.6-1,4.2c-0.7,0.7-1.6,0.6-2.7,0.2c-0.7-0.3-1.5-0.9-2.3-1.6c-0.2,0.6-0.5,1.2-0.7,1.8
	c0.2,0.3,0.5,0.5,0.7,0.8c1,0.9,2.1,1.4,3.2,1.5c1.9,0.2,3.9-0.7,6.7-1.8c0.5-0.2,1-0.4,1.5-0.6c1.8-0.7,3.9-1.5,5.9-2.2
	c1.9-0.7,3.8-1.3,5.2-1.7c0.7-0.2,1.3-0.3,1.8-0.5c1.4-0.4,2-0.5,2-0.9c0-0.2-0.1-0.5-0.1-0.8c-0.2-1-0.5-2.4,0.6-3.6
	c0.7-0.7,1.9-1.3,3.3-1.8c1.5-0.5,3.3-0.8,4.8-0.9c1.4-0.1,2.6,0.1,3.6,0.6c1,0.5,1.8,1.4,2.6,2.6c0.7,1.2,1.4,2.8,1.9,4.5
	c0.6,1.7,1,3.3,1.4,4.7c0.4,1.4,0.6,2.4,0.7,3.3c0.1,0.9-0.1,1.6-0.7,2.3c-0.6,0.6-1.5,1.1-2.6,1.4c-0.9,0.3-2,0.3-3,0.2
	c0.5,0.4,1,0.8,1.5,1.1c0.9,0.6,1.7,1,2.6,1.2c0.9,0.3,1.8,0.3,2.5,0.2c0.7-0.1,1.3-0.4,1.8-1c0.5-0.5,0.8-1.2,1.1-2.1
	c0.3-1,0.5-2.2,0.6-3.3c0-0.6,0.1-1.1,0.1-1.6c0-1.3,0.1-2.4,0.6-3.3c0.3-0.6,0.9-1.1,1.6-1.5c0.7-0.4,1.6-0.6,2.6-0.8l0.6-0.1
	c1.8-0.3,4-0.6,4.8-3.8c0.8-3.4,0.1-10-0.5-15.7l-0.1-1.1c-0.3-3-0.6-5.6-0.6-7.9c-0.1-2.3,0.1-4.3,0.6-6c0.7-2.2,1.9-3.8,3-5
	c0.5-0.7,1-1.2,1.2-1.7c0.3-0.7,0.3-1.3,0.1-1.8c-0.3-0.6-0.8-1.1-1.5-1.7c-0.2-0.2-0.5-0.4-0.7-0.6c-1.4-1-2.9-2.2-2.7-4
	c0.1-1,0.7-2.1,1.6-3.2c1-1.4,2.4-2.8,3.6-3.9c0.4-0.4,0.8-0.7,1.2-1c1.7-1.4,3.2-2.7,4-5.3c0.5-1.5,0.7-3.6,1-5.7
	c0.3-2.5,0.6-5,1.3-7.2c0.6-2,1.6-3.6,2.9-4.9c1.3-1.2,2.8-2.1,4.7-2.8c1.9-0.6,4-1,6.1-1.1c2.1-0.1,4.2,0.1,6,0.5
	c1.8,0.5,3.3,1.3,4.5,2.4c1.2,1.1,2.3,2.6,3.2,4.4c0.9,1.8,1.8,4,2.4,6.3c0.7,2.4,1.3,4.8,1.6,7.1c0.2,1.6,0.3,3.1,0.5,4.6
	c0.2,2.5,0.4,4.8,1.1,6.9c0.4,1.2,1,2.3,1.6,3.5c1.1,2.2,2.2,4.4,2.1,6.7c-0.1,1.8-0.8,3.7-1.9,5.4c-1.1,1.7-2.5,3.4-3.8,4.8
	c-1.3,1.4-2.6,2.5-3.6,3.3c-1.1,0.8-2.1,1.3-2.7,1.3c-1.1,0-1.1-1-1.1-3c0-0.7,0-1.6-0.1-2.6c-0.1-1.8-0.3-3.9-0.7-6.2
	c-0.3-2.3-0.7-4.6-1-6.7l-0.1-0.3c-0.6-4-1.1-6.9-0.8-9.9c0.1-1.9,0.6-3.8,1-5.5c0.2-1,0.4-2,0.6-2.9c0.2-1,0.2-1.9-0.2-2.6
	c-0.3-0.8-1-1.6-2.2-2.6c-0.7-0.6-1.6-1.2-2.6-1.9c-2.4-1.8-5.1-3.7-6-5.5c-0.9-1.8-0.1-3.3,0.4-4.1l-1.1,0.5
	c-1,0.5-2.2,1.1-3.2,1.6c-1,0.5-1.8,1-2.5,1.5c-0.7,0.5-1.3,1.1-1.8,1.9c-0.6,0.9-1.2,2.1-1.6,3.5c-0.4,1.3-0.7,2.8-0.8,4.4
	c-0.1,2,0,4.2,0.4,6.4c0.3,2,0.9,3.9,1.8,5.7c0.9,1.9,2.2,3.7,3.6,4.9c1.3,1.2,2.7,1.9,4.1,2l0,0c0.5-0.5,1.1-1,1.7-1.5l0.5-0.4
	c0.7-0.6,1.4-1.2,2.1-1.8c1.5-1.3,2.7-2.3,3.4-2.7c0.3-0.1,0.5-0.2,0.7-0.2c0.2,0,0.4,0.2,0.5,0.4c0,0.1,0,0.3,0,0.5
	c-0.1,0.5-0.6,1.2-1.4,2.1c-0.9,1.1-2.2,2.4-3.8,3.3c-1.1,0.6-2.2,1-3.4,1c-1.1,1.1-1.8,2.2-1.5,3.4c0.3,1.4,1.9,3.2,3.5,5
	c0.8,0.9,1.7,1.9,2.4,2.9c1.1,1.5,1.9,3,2.2,4.4c0.2,1.3,0,2.5-0.8,3.6c-0.7,0.9-1.9,1.7-3.2,2.4c-1.2,0.6-2.6,1.1-3.8,1.5l0.8,0
	c2-0.1,4.6-0.1,7.2-0.1c2.4,0.1,4.8,0.2,6.7,0.4c2,0.2,3.4,0.6,4.5,1c1.1,0.4,1.9,1,2.4,1.7c0.5,0.7,0.9,1.4,1.1,2.5l0-0.5
	c0.1-2.3,0.4-3.8,1.3-5c0.9-1.1,2.4-1.8,4.7-2.3c2.3-0.6,5.5-1.1,8.8-1.4c3.1-0.3,6.1-0.5,8.4-0.3c2.4,0.1,3.9,0.5,5,1.2
	c0.4,0.2,0.7,0.5,1,0.8c-0.3-0.9-0.6-1.8-1-2.7c-0.6-1.5-1.4-2.9-2.3-4.2c-1-1.4-2.2-2.5-3.7-3.6c-0.4-0.3-0.9-0.7-1.4-1
	c-1.3-0.5-2.8-1-4.4-1.5c-2.7-0.9-5.6-1.9-7.5-2.9c-1.5-0.8-2.5-1.6-2.8-2.3c-0.2-0.3-0.2-0.5-0.2-0.7c0-0.3,0.1-0.5,0.4-0.6
	c0.3-0.1,0.7-0.2,1.2-0.1c1,0.2,2.7,1,4.5,1.9c1.8,1,3.9,2.2,5.7,3.3c1.2,0.8,2.4,1.5,3.4,2.2l0.3,0.1c1.4,0.6,2.4,1.1,3.3,1.6
	c1.1,0.6,1.8,0.9,2.3,0.8c0.7-0.2,1.4-1.1,2.7-2.7c0.6-0.7,1.3-1.6,2.2-2.7c1.5-1.7,3.5-3.9,5.7-6c1.8-1.8,3.8-3.6,5.8-5.1
	c2.2-1.7,4.3-3.1,6.4-4.1c2.1-1,4.2-1.5,6.3-1.5c2.6,0.1,5,1,7.3,1.8c1.4,0.5,2.6,1,3.7,1.2c1.4,0.3,2.5,0.1,3.5-0.6
	c0.6-0.4,1.1-0.9,1.6-1.7l-0.1,0c-1.5,0.5-3.5,0.7-5.6,0.6c-2.1-0.1-4.4-0.6-6.2-1.3c-1.7-0.7-3.2-1.5-4.4-2.5
	c-1.4-1.2-2.5-2.5-3.2-3.8c-0.5-0.9-0.9-1.8-1.2-2.7c-0.1,0.1-0.1,0.1-0.2,0.1c-0.5,0.4-1.2,0.5-1.9,0.3c-0.7-0.2-1.4-0.7-2.1-1.5
	l-0.2-0.2c-0.7-1-1.3-2.4-1.7-3.7c-0.3-1.3-0.4-2.5-0.2-3.3c0-0.1,0.1-0.3,0.2-0.4c0.3-0.6,0.9-0.9,1.5-1l0.1,0
	c-0.2-0.2-0.3-0.5-0.4-0.7c-1.3-2.2-1.8-4.4-2.2-6l-0.1-0.4c-0.1-0.4-0.2-0.8-0.2-1.1c-0.1-0.6,0-1,0.5-1.3l-0.2-0.1
	c-0.7-0.5-1.3-1.1-1.7-1.9c-0.5-0.9-0.8-1.9-0.6-3.1c0.1-0.9,0.5-1.9,1.3-2.9c0.8-1,2.1-2,3.5-2.9c1.7-1.1,3.6-2,5.5-2.8
	c1.7-0.7,3.4-1.3,5.1-1.6c1.7-0.3,3.4-0.4,5.2-0.2c1.7,0.2,3.6,0.8,5.2,1.5c1.7,0.8,3.2,1.7,4.2,2.7c0.9,0.9,1.5,1.8,1.8,2.8
	c0.3,1.1,0.2,2.2-0.1,3.1c-0.3,0.9-0.7,1.7-1.5,2.4c-0.1,0.1-0.2,0.2-0.3,0.3c0.5,0.3,0.8,0.6,1.2,1.1c0.6,0.8,1,1.8,1.5,3.1
	c0.5,1.3,1,2.9,1.5,4.8c0.4,1.9,0.8,4.1,0.8,6.6c0,2.4-0.3,5.1-0.8,7.6c-0.5,2.5-1.2,4.9-2,6.7c0.5-0.5,0.9-1,1.3-1.4
	c0.5-0.6,0.9-1.1,1.4-1.5c1.3-0.8,2.9-0.3,4.5,0.2l0.7,0.2c0.8,0.2,1.5,0.4,2.5,0.5c0.9,0.1,2.1,0.2,3.7,0.3c1,0.1,2.1,0.1,3.2,0.2
	c2.8,0.2,5.9,0.4,7.9,0.6c1.4,0.1,2.3,0.3,2.7,0.5c0.7,0.4,0.6,0.7-0.1,1.2c0.5,0.3,0.9,0.8,1.3,1.7c0.3,0.9,0.6,2.3,0.8,4.5
	c0.2-0.4,0.4-0.7,0.7-0.8c0.1,0,0.2-0.1,0.3-0.1c0.3-0.1,0.7,0,1.1,0.2c0.3,0.2,0.7,0.6,1,1.1c0.4,0.6,0.7,1.5,1.1,2.5
	c0.5,1.5,0.9,3.4,1.4,5.8c0.6,2.7,1.3,5.9,2.3,9.7c0.5,1.7,1,3.5,1.5,5.4c1.7,6,3.6,12.5,4,17.5c0.2,2.2,0.1,4.1-0.2,5.8
	c0,0.4,0,0.7,0,1c0,0.8,0.1,1.5,0.2,2.1c0.2,1.7,0.4,2.7-0.8,3.8c-0.8,0.7-2.3,1.5-4,2c-0.2,0.1-0.4,0.1-0.5,0.2
	c-0.6,0.4-1.3,0.8-2,0.9c-1.1,0.2-2.3,0.1-3.8-0.4c-0.9-0.1-1.8-0.2-2.7-0.3c-2.1-0.3-3.8-0.5-4.3,0.3c-0.4,0.7-0.1,2.1,0.5,3.7
	c0.6,1.7,1.5,3.6,2.3,5.2c0.7,1.5,1.4,2.6,3.4,3.5c2.1,0.9,5.8,1.4,12.6,1.7c6.9,0.3,16.9,0.2,28.6,0.1c2.1,0,4.3-0.1,6.5-0.1v0.7
	c-2.2,0-4.4,0.1-6.5,0.1c-11.7,0.2-21.7,0.2-28.6-0.1c-6.9-0.3-10.7-0.8-12.9-1.7c-2.3-0.9-3-2.2-3.8-3.8c-0.8-1.6-1.7-3.5-2.3-5.2
	c-0.6-1.8-0.9-3.4-0.4-4.3c0.7-1.2,2.6-1,5-0.6l0.5,0.1c-2-1.1-4.3-2.8-6.5-4.7c-2.4-2.1-4.7-4.5-6.5-6.8c-3.4-4.5-4.5-8.5-5.5-12.1
	l-0.1-0.4c-0.3-1.3-0.7-2.5-1.1-3.5c-0.1,1.2-0.3,2.5-0.7,3.8c-0.7,2-1.8,4.1-3.6,5.9c-1.9,1.9-4.5,3.6-7.2,5.2
	c-2.8,1.7-5.6,3.5-7.7,5.6c-2.6,2.7-4,6.1-5.3,9.2c-0.7,1.7-1.3,3.3-2.1,4.7c-1.1,1.9-2.4,3.5-3.9,4.8c-1.7,1.5-3.6,2.6-5.4,3.4
	c-1.7,0.7-3.3,1.1-5,0.8c-1.6-0.3-3.2-1.4-4.7-3.6c-1.5-2.2-2.9-5.6-4.1-9.7c-1.2-4-2.2-8.6-2.8-13.6c-0.3-2.1-0.5-4.4-0.6-6.5
	c0.1,1.4,0.2,3,0.3,4.5c0.2,2.4,0.4,4.8,0.6,6.7l0.1,0.8c0.3,3,0.5,4.8,0,6c-0.3,0.7-0.8,1.1-1.5,1.4c-0.7,0.3-1.5,0.4-2.5,0.5
	c-1,0.1-2.3,0.2-3.7,0.2c-1.4,0.1-3,0.1-4.9,0.1c-1.8,0-3.8,0.1-5.6,0.1c-1.8,0-3.5-0.1-4.7-0.3c-1.3-0.2-2-0.6-2.6-1.5
	c-0.5-0.8-0.9-2.1-1.3-4.3l-0.3-1.3l0,0.5c0.1,1.8,0.1,3-0.1,3.7c-0.1,0.3-0.1,0.6-0.2,0.7c-0.2,0.2-0.4,0.3-0.6,0.3
	c-0.1,0-0.2,0-0.3-0.1c-0.4-0.2-0.8-0.9-1.2-2.2l-0.1-0.2c0,0.6-0.1,1.1-0.3,1.6c-0.5,1.1-1.5,1.9-3.7,2.4c-2,0.5-5.1,0.7-8.4,0.9
	c-3.2,0.1-6.6,0.2-9.2,0.2c-2.6,0-4.4,0-5.8-0.2c-1.4-0.3-2.3-0.9-2.8-2c-1-2-1.1-5.9-1.1-10.5l0-0.9c0-2.5-0.1-5.1-0.2-7.9
	c-0.1-1.2-0.1-2.4-0.2-3.7c0-0.1,0-0.3-0.1-0.4l0,0c0-0.3-0.1-0.7-0.1-1.1c-0.1-1-0.2-2-0.3-2.9c-0.4-2.7-0.9-5.2-1.5-7.4l-0.1-0.4
	c-0.4-1-0.9-2-1.5-3c-0.9-1.6-1.9-2.9-2.7-3.9c-0.6-0.8-1-1.3-1.1-1.7c0-0.2,0-0.3,0.1-0.4c0.1-0.2,0.3-0.2,0.6-0.1
	c0.1,0,0.3,0.1,0.5,0.3c0.7,0.5,1.8,1.6,2.8,3.4c0.7,1.4,1.4,3.1,2,5.2c0.2,0.5,0.5,1.1,0.7,1.6c0.5,1.3,1,2.4,1.5,3.2
	c0.5,0.8,0.9,1.3,1.5,1.5c0.6,0.2,1.5,0.1,2.7-0.2c1.4-0.3,3.3-0.9,5-1.8c1.2-0.6,2.3-1.4,2.9-2.2c0.7-0.9,0.8-1.9,0.6-3.1
	c-0.2-1.3-1-2.7-2.1-4.1c-0.7-0.9-1.6-1.9-2.4-2.8c-1.7-1.9-3.3-3.7-3.7-5.3c-0.3-1.4,0.3-2.6,1.3-3.7c-1.3-0.3-2.7-1-3.9-2.1
	c-1.5-1.3-2.8-3.1-3.7-5.1c-0.9-1.8-1.5-3.9-1.8-5.9c-0.4-2.3-0.5-4.6-0.4-6.6c0.1-1.8,0.4-3.3,0.8-4.6c0.5-1.5,1.1-2.8,1.7-3.7
	c0.6-0.9,1.2-1.5,2-2.1c0.7-0.5,1.6-1,2.6-1.5c1-0.5,2.2-1.2,3.2-1.6c1.1-0.5,2-0.8,2.3-0.6c0.4,0.3,0.2,0.5-0.1,1
	c-0.4,0.7-1.3,2-0.5,3.5c0.8,1.6,3.5,3.5,5.8,5.2c0.9,0.7,1.8,1.4,2.6,2c1.3,1.1,2.1,2,2.4,2.9c0.4,0.9,0.4,1.9,0.2,3
	c-0.1,0.8-0.3,1.8-0.6,2.9c-0.4,1.7-0.8,3.6-0.9,5.4c-0.2,2.9,0.2,5.8,0.8,9.7l0.1,0.3c0.3,2.1,0.7,4.4,1,6.7
	c0.3,2.3,0.6,4.5,0.7,6.3c0.1,1,0.1,1.9,0.1,2.7c0,1.5,0,2.3,0.4,2.3c0.4,0,1.2-0.4,2.2-1.2c1-0.8,2.3-1.9,3.6-3.2
	c1.3-1.4,2.7-3,3.7-4.7c1-1.7,1.8-3.4,1.8-5.1c0.1-2.2-1-4.3-2.1-6.4c-0.6-1.2-1.2-2.4-1.6-3.6c-0.8-2.2-1-4.6-1.2-7.1
	c-0.1-1.4-0.2-2.9-0.5-4.5c-0.3-2.2-0.9-4.7-1.6-7c-0.7-2.3-1.5-4.4-2.4-6.2c-0.9-1.8-1.9-3.2-3-4.2c-1.2-1-2.5-1.8-4.2-2.2
	c-1.7-0.4-3.7-0.6-5.8-0.5c-2.1,0.1-4.1,0.5-5.9,1.1c-1.8,0.6-3.3,1.4-4.4,2.6c-1.2,1.2-2.1,2.7-2.7,4.6c-0.6,2.1-1,4.6-1.2,7
	c-0.3,2.2-0.5,4.2-1,5.9c-0.9,2.9-2.4,4.2-4.2,5.7c-0.4,0.3-0.8,0.6-1.2,1c-1.2,1.1-2.6,2.4-3.5,3.8c-0.8,1-1.3,2.1-1.4,2.9
	c-0.2,1.5,1.2,2.5,2.4,3.4c0.3,0.2,0.5,0.4,0.8,0.6c0.8,0.6,1.4,1.2,1.7,1.9c0.3,0.7,0.3,1.5-0.1,2.4c-0.3,0.6-0.8,1.2-1.3,1.9
	c-1,1.2-2.2,2.8-2.8,4.8c-0.5,1.6-0.6,3.5-0.6,5.7c0.1,2.3,0.3,4.9,0.6,7.8l0.1,1.1c0.6,5.7,1.4,12.4,0.5,15.9
	c-0.9,3.6-3.3,4-5.4,4.3l-0.6,0.1c-1,0.2-1.8,0.4-2.4,0.7c-0.6,0.3-1,0.7-1.3,1.2c-0.4,0.7-0.4,1.7-0.5,3c0,0.5,0,1-0.1,1.6
	c-0.1,1.1-0.3,2.3-0.6,3.4c-0.3,0.9-0.7,1.7-1.2,2.3c-0.6,0.7-1.3,1-2.2,1.2c-0.9,0.2-1.9,0.1-2.9-0.2c-0.9-0.3-1.9-0.7-2.8-1.3
	c-0.9-0.6-1.7-1.3-2.6-2.1c-0.6-0.2-1.2-0.5-1.7-0.9c-1-0.6-1.9-1.4-2.8-2.2c-0.9-0.9-1.9-1.8-2.5-2.6c-0.6-0.7-1.1-1.4-1.1-1.7
	c0-0.1,0-0.2,0-0.3c0.1-0.2,0.3-0.3,0.6-0.3c0.2,0,0.3,0.1,0.6,0.1c0.6,0.2,1.5,0.8,2.4,1.7c0.8,0.8,1.7,1.8,2.5,2.9
	c0.8,0.9,1.5,1.9,2.3,2.7l0,0c0.4,0.1,0.7,0.2,1.1,0.3c1,0.2,2,0.1,2.9-0.1c0.9-0.3,1.7-0.7,2.2-1.2c0.4-0.5,0.6-1,0.5-1.7
	c0-0.8-0.3-1.8-0.7-3.2c-0.4-1.4-0.8-3-1.4-4.7c-0.5-1.6-1.2-3.2-1.8-4.4c-0.7-1.1-1.4-1.9-2.3-2.3c-0.9-0.5-1.9-0.6-3.2-0.6
	c-1.4,0.1-3.1,0.4-4.6,0.9c-1.3,0.4-2.4,1-3,1.6c-0.9,0.9-0.6,2.1-0.4,2.9c0.1,0.4,0.2,0.7,0.1,1c0,1-0.8,1.2-2.6,1.6
	c-0.5,0.1-1.1,0.3-1.7,0.4c-1.4,0.4-3.3,1-5.2,1.6c-2,0.7-4.1,1.4-5.9,2.1c-0.6,0.2-1.1,0.4-1.5,0.6c-2.8,1.1-4.9,2-7,1.8
	c-1.2-0.1-2.4-0.6-3.6-1.7c-0.2-0.2-0.3-0.3-0.5-0.5c-0.1,0.3-0.2,0.6-0.3,0.9c-0.5,1.7-0.7,3.3-0.9,4.6c-0.2,1.8-0.4,3.2-1.1,4.3
	c-0.6,0.9-1.5,1.4-2.5,1.7c-1.1,0.3-2.4,0.2-3.4-0.2c-1-0.3-1.7-0.9-2.3-1.6c-0.6-0.7-1.1-1.6-1.5-2.5c-0.3-0.8-0.6-1.7-0.9-2.7
	c-0.1,0.8-0.4,1.4-0.9,2c-0.7,0.8-1.8,1.5-3.1,2c-1.4,0.6-3,1.1-4.5,1.4c-1.4,0.3-2.7,0.3-3.7,0.1l-0.1,0c-0.4,0.3-0.8,0.5-1.3,0.6
	c-1.3,0.4-2.6,0.3-3.5,0c-0.8-0.3-1.4-0.7-1.6-1.3c-0.2-0.6-0.2-1.3,0.1-2.1l0-0.1c-0.8,0.3-1.8,0.6-3,0.8c-1.7,0.3-3.8,0.4-6.1,0.4
	c-2,0-4.2-0.2-6.3-0.6c-2.3-0.4-4.5-1-6.4-1.8c-1.9-0.8-3.5-1.7-4.5-2.6c-1-0.9-1.5-1.9-1.7-2.8c-0.2-1.1,0-2.3,0.5-3.2
	c0.4-0.9,1-1.6,1.8-2.1c0.8-0.6,1.8-0.9,3-1.1c1.7-0.3,3.9-0.1,6.4,0l1.2,0.1c-0.6-0.2-1.2-0.5-1.9-0.7c-1.7-0.5-3.6-0.9-5.8-1
	c-1.3-0.1-2.7-0.1-4.2,0c-1.2,1.8-2.9,1.6-5.1,1.3c-0.3,0-0.5-0.1-0.9-0.1c-1.1-0.1-2.4-0.2-3.6-0.3c-1.3-0.1-2.7-0.2-3.8-0.3
	l-0.4,0c-2.6,0-4.4,0-5.3,0.7c-0.5,0.4-0.7,1-0.8,1.8c0.4,0.9,0.9,1.9,1.3,2.9c1,2.2,2.1,4.5,2.5,6.2c0.3,1.2,0.2,2.1-0.1,2.7
	c-0.1,0.3-0.3,0.6-0.6,0.7c-0.3,0.2-0.5,0.2-0.8,0.2c-0.3,0-0.7-0.2-1-0.6c-0.5-0.6-0.9-1.8-1.2-3.2c-0.3-1.3-0.5-2.9-0.7-4.4
	c-0.2-1.5-0.3-2.9-0.3-4c0-0.1,0-0.3,0-0.4c-0.2-0.5-0.4-0.9-0.5-1.4c-0.5-1.5-0.4-2.4,0.1-3.1c0.5-0.7,1.4-1.1,2.5-1.6l1.2-0.5
	c0.1-0.2,0.2-0.3,0.4-0.5c0.6-0.8,1.6-1.6,2.6-2.4c1-0.8,2.1-1.6,2.7-2.4c-0.1-0.2-0.3-0.4-0.5-0.5c-0.5-0.4-1.1-0.7-2.1-1
	c-1.6-0.4-3.7-0.7-6-0.6c-2,0-4.1,0.3-5.6,0.8c-1.6,0.5-2.6,1.4-3.3,2.6c-0.6,1.2-0.8,2.9-0.6,5.1c0.3,3.1,1.3,7.1,2.1,10.5
	c0.4,1.6,0.8,3,1,4.2c0.4,1.9,0.4,2.9-0.1,3.6c-0.5,0.7-1.6,0.8-3.3,0.9c-1.9,0.1-4.8,0.2-7.4-0.2c-1.9-0.2-3.6-0.7-4.8-1.4
	c-2-1.3-2.4-3.3-2.7-5.8c-0.2-1.1-0.3-2.2-0.7-3.4c-0.4-1.3-0.9-2.6-1.5-3.9c0.1,1.8,0,3.8,0,5.8c-0.1,3.5-0.4,7-0.9,9.3
	c-0.4,2.4-1,3.7-2.1,4.2c-1,0.5-2.4,0.1-4.4-0.9c-1.7-0.8-3.9-2.1-6.2-3.5c-2.8-1.7-5.6-3.5-7.5-4.8c-1.1-0.8-1.9-1.3-2.5-1.8
	c-1.5-1.1-2.2-1.6-3.4-2c-0.8-0.2-1.7-0.4-2.7-0.5c-1.3-0.2-2.7-0.4-3.7-0.8c-0.7-0.3-1.2-0.6-1.5-1c-0.2-0.3-0.4-0.5-0.5-0.8
	c-0.3,0.1-0.7,0.2-1.2,0.2c-1.8,0.1-4.9-0.5-8.2-1.5c-3.7-1-7.6-2.5-10.2-3.8c-4.9-2.4-5.5-4.2-6.5-7l-0.1-0.3
	c-0.2-0.7-0.5-1.4-0.8-2.2c-0.9-2.5-1.8-5-1.8-5.7c0-0.1,0.1-0.3,0.1-0.3c0.2-0.2,0.4-0.2,0.7-0.1c0.2,0.1,0.3,0.2,0.5,0.5
	c0.7,0.7,1.7,2.2,2.6,4c0.5,0.9,0.9,1.8,1.4,2.8c1,2.1,1.9,4.1,3.1,5.3c0.8,0.8,1.7,1.3,2.8,1.4c1.2,0.1,2.8,0,4.8-0.4
	c2.1-0.4,4.8-0.9,7.5-1.6c2.6-0.6,5.1-1.3,7.1-2c1-0.3,1.8-0.6,2.5-0.9c0-0.3-0.1-0.7-0.2-1.2c-0.1-0.5-0.2-1-0.4-1.5
	c-0.6-2.3-1.3-5.4-1.1-7.7c0.3-2.6,1.8-4.2,4-6.6c0.4-0.4,0.8-0.9,1.2-1.3c1.5-1.7,3.4-3.9,4.9-6.1c1.3-1.7,2.3-3.4,3-4.8
	c0.6-1.3,0.9-2.4,0.9-3.3c-0.9,0.8-2,2.6-3.4,4.9l-0.7,1.2c-1.4,2.2-3.1,4.9-4.9,7.4c-1.8,2.5-3.9,4.8-5.9,6.5
	c-2.1,1.7-4.2,2.6-6.4,3.1c-2.2,0.5-4.6,0.6-7.3,0.4c-2.7-0.1-5.6-0.4-8.3-0.9c-2.7-0.4-5.1-0.9-6.7-1.5c-1.2-0.4-1.9-0.8-2.3-1.2
	c-0.1-0.1-0.2-0.2-0.2-0.2c-0.1,0.4-0.2,0.8-0.4,1.2c-0.5,1.2-1.2,2.1-2.1,2.8c-0.2,0.2-0.4,0.3-0.7,0.4c0.3,1.5,0.6,3.2,0.8,5
	c0.6,4.6,0.8,9.9,0.9,13.9l0.1,1.9c0.2,4,0.2,6.1-2.3,7.3c-1.3,0.6-3.4,1-5.5,0.9c-1.8-0.1-3.6-0.5-5-1.4c-1.5-1-2.4-2.4-3-4.7
	c-0.3-1.3-0.5-2.8-0.7-4.6c-0.4,1.7-0.9,3.2-1.4,4.5c-0.4,1-0.8,1.8-1.3,2.4c-0.8,1.5-1.9,2.3-3.4,2.6c-0.5,0.1-1.1,0.1-1.7,0.1
	c-1.1,0-2.3-0.2-3.5-0.4c-2.1-0.5-4.4-1.2-6.7-2.1c-2.7-1-5.4-2.2-7.5-3.3c-1.9-1-3.4-1.8-4.4-2.6c-0.7-0.5-1.1-0.9-1.4-1.4
	c-1-0.6-2-1.1-2.9-1.7c-0.1,0-0.3,0.1-0.4,0.1c-1,0.2-2.2,0-3.4-0.6c-1.6-0.8-3.4-2.5-4.9-3.9c-0.9-0.8-1.7-1.6-2.3-2.1
	c-1.4-1.1-2.2-0.6-4.5,0.8l-0.8,0.5c-1.7,1-4,2.3-6.3,3.5c-1.9,1-3.7,1.9-5,2.4c-1.6,0.7-2.6,0.9-3.6,0.2c-0.9-0.6-1.7-2.1-2.9-4.8
	c-1.9-4.1-4.8-11.1-7-16.4l-1.8-4.4c-2.1-5.1-2.2-5.3,1.4-7.3c1.7-0.9,4.3-2.3,7-3.7c2.6-1.4,5.3-2.7,7.3-3.7c2-1,3.2-1.5,4.1-1.5
	c0.7,0,1.3,0.2,1.8,0.8c0.5-0.5,1.2-1,2.2-1.6c1.6-0.9,3.8-2.1,6.2-3.2c3.3-1.6,6.9-3.1,9.3-4.1c2.1-0.9,3.3-1.3,4.3-0.9
	c1,0.4,1.6,1.6,2.6,3.9c0.9,2.1,2.3,5.3,3.6,8.5c1.4,3.6,2.9,7.3,3.8,9.9c0.9,2.5,1.4,3.9,1.4,4.8c0.1,1.1-0.3,1.6-1.1,2.2
	c-0.6,0.5-1.5,1.1-2.5,1.7c-1.2,0.8-2.6,1.6-3.9,2.3c-1.1,0.6-2.1,1.2-3,1.6c-0.9,0.4-1.7,0.7-2.5,0.8c-0.8,0.1-1.5,0.1-2.1-0.3
	c-0.7-0.3-1.3-0.9-2-1.9c-0.2-0.3-0.5-0.7-0.8-1.2c-1.2-1.8-2.6-4.1-4.9-4.8c-0.5-0.2-1.1-0.2-1.7-0.2c-1,0-2.1,0.3-2.9,0.9
	c-0.8,0.5-1.5,1.3-1.8,2.2c-0.1,0.4-0.2,0.8-0.1,1.2c0.1,1.7,1.3,4,3.4,6.5c2.1,2.5,5.2,5.1,9,7.8c1.5,1,3.1,2.1,4.8,3.1
	c0.8-0.2,1.6-0.7,2.1-1.2c0.7-0.6,1.1-1.3,1.5-2.1c0.4-0.8,0.6-1.6,0.8-2.5c0.2-0.9,0.4-1.8,0.4-2.7l0-0.2l-0.1-0.1
	c-0.9-0.8-1.6-1.6-2.1-2.2c-0.3-0.5-0.5-0.9-0.6-1.3c-0.1-0.2-0.1-0.5,0-0.6c0.1-0.2,0.2-0.4,0.4-0.5c0.1,0,0.2-0.1,0.4-0.1
	c0.4,0,1,0.3,1.5,0.8c0.4,0.4,0.8,0.9,1,1.6c0.2,0.6,0.3,1.3,0.3,2c0.4,0.3,0.8,0.7,1.3,1c0.7-0.1,1.6,0.3,3,1
	c0.5,0.2,1,0.5,1.5,0.7c1.5,0.7,3.5,1.5,5.2,1.8c1.3,0.3,2.4,0.4,3.1,0.1c0.8-0.3,1.2-1.1,1.3-2.2c0.2-1.2,0.1-2.6-0.1-4
	c-0.1-1.1-0.2-2.2-0.3-3.2c-0.2-1.7-0.4-3.1-0.4-4.1c0-0.5,0-0.9,0.1-1.1c0.1-0.2,0.2-0.4,0.5-0.3c0.2,0,0.3,0.1,0.4,0.3
	c0.2,0.3,0.4,0.9,0.6,1.9c0.3,1.3,0.7,3.4,1.1,5.5c0.3,1.7,0.5,3.5,0.6,4.9c0.1,1.6,0,2.7-0.3,3.5c-0.3,0.8-0.8,1.3-1.4,1.6
	c-0.6,0.3-1.3,0.4-2.3,0.3c-0.9-0.1-1.9-0.4-3.2-0.8c-1.3-0.5-2.8-1.2-4.4-1.9c-1.5-0.7-2.9-1.5-4.2-2.4c-0.3-0.2-0.6-0.4-0.9-0.6
	c0,0-0.1,0.1-0.1,0.1c-0.3,0.4-0.4,1.3-0.5,2.3c-0.1,1.1-0.3,2.3-0.7,3.2c-0.4,0.9-1,1.5-1.5,2c-0.4,0.4-0.8,0.7-0.7,1.1
	c0,0.1,0.1,0.2,0.1,0.3c1.3,0.7,2.7,1.5,4.1,2.2c4.9,2.5,9.8,4.7,13.4,6c2.4,0.9,4.2,1.3,5.6,1.5c0.7,0,1.4-0.1,2.1-0.4
	c0.9-0.3,1.7-1,2.4-1.9c0.1-0.2,0.3-0.5,0.4-0.7c0.8-1.8,1.5-4.5,2.1-7.2c0.2-1,0.4-2.1,0.6-3.1l0-0.1c-0.2-3.9-0.2-8.9-0.2-13.9
	c-1-0.4-2.5-0.5-3.7-0.6l-0.4,0c-0.9,0-1.7-0.1-2.1-0.5c-0.5-0.4-0.6-1.1-0.1-2.4c0.4-1.1,1.1-2.6,1.9-4.3c0.9-1.8,1.8-3.7,2.3-5.2
	c0.9-2.6,0.5-4,0-6.1l-0.2-0.8c-0.6-2.3-1.4-5.3-3.1-7.3c-1.7-1.9-4.2-3-7.8-4.5l-1.1-0.5l-1.7-0.7c-3.8-1.6-8.1-3.5-11-4.1
	c-2.4-0.5-3.9-0.1-5.4,0.4c-0.5,0.2-1.1,0.3-1.7,0.5c-1.3,0.3-2.9,0.4-4.5,0.1c-1.2,0.1-2.3,0-3.5-0.4c-1.5-0.5-2.9-1.4-4.1-2.5
	c-1.4-1.3-2.6-2.9-3.2-4.2c-0.5-1-0.7-1.9-0.6-2.4c0-0.3,0.1-0.5,0.3-0.6c0.2-0.2,0.4-0.2,0.6-0.2c0.3,0,0.7,0.2,1.1,0.7
	c0.5,0.5,1.1,1.4,1.8,2.3c1.2,1.7,2.6,3.8,4.2,5c1.1,0.9,2.3,1.4,3.5,1.6c0.4,0,0.8-0.1,1.2-0.2c1.6-0.3,3.2-1.1,4.5-2.1
	c1.3-1,2.3-2.2,3.2-3.6c0.9-1.3,1.7-2.8,2.4-4.1c0.7-1.4,1.3-2.6,1.8-3.8c0.3-0.6,0.5-1.2,0.7-1.7c-0.3,0.4-0.7,0.9-1,1.2
	c-0.5,0.5-0.9,0.8-1.4,0.9c-0.5,0.1-1,0-1.7-0.3c-0.7-0.3-1.5-0.9-2.2-1.6c-0.7-0.6-1.2-1.2-1.6-1.9c-0.2-0.3-0.3-0.6-0.4-0.9
	c-0.1-0.4,0-0.7,0.1-1c0.1-0.3,0.4-0.6,0.7-0.8c0.3-0.2,0.6-0.3,1.1-0.4l0.2,0l-0.5-0.1c-1.2-0.1-2.2-0.4-3.2-0.6
	c0,0.2,0,0.5-0.1,0.7c-0.1,0.4-0.3,0.8-0.6,1.3c-0.3,0.4-0.6,0.8-1,1.2c-0.4,0.4-0.8,0.7-1.4,0.9c-0.5,0.2-1.1,0.3-1.9,0.3
	c-0.7,0-1.4-0.2-2.2-0.3c-0.9-0.2-1.7-0.5-2.3-0.8c-0.6-0.3-0.9-0.6-1.2-0.9c-0.2-0.3-0.3-0.7-0.3-1.2c0-0.5,0.1-1.1,0.3-1.6
	c0.2-0.4,0.4-0.9,0.7-1.2c0.1-0.1,0.3-0.2,0.5-0.3c-0.2,0-0.5-0.1-0.9-0.3c-0.4-0.2-1-0.4-1.7-0.8c-0.6-0.3-1.3-0.6-1.7-0.9
	c-0.5-0.3-0.8-0.7-0.8-1.1c0-0.4,0.1-0.9,0.4-1.6c0.4-0.8,0.9-1.9,1.6-3c0.5-0.8,1.1-1.6,1.7-2.2c0.7-0.7,1.5-1.2,2.4-1.6
	c0.8-0.3,1.8-0.5,2.7-0.6c1-0.1,2-0.1,3.1,0.1c1.1,0.2,2.3,0.5,3.5,1c2.2,1,4.5,2.8,6.3,4.1l0.5,0.4c0.9,0.6,1.5,1.1,2.1,1.4
	c0.5,0.2,0.8,0.3,1.1,0.2c0.4-0.2,0.7-0.6,0.9-1.2c0.2-0.6,0.2-1.3,0-2.2c-0.3-1.1-0.9-2.4-2-3.7c-0.9-1-2.1-2.1-3.6-2.9
	c-1.6-0.9-3.7-1.6-5.7-2c-2.2-0.5-4.4-0.6-6.2-0.5c-1.7,0.1-3.1,0.6-4.1,1.2c-1.1,0.6-1.9,1.5-2.5,2.5c-0.7,1-1.2,2.2-1.6,3.4
	c-0.4,1.3-0.7,2.7-1,4.3c-0.2,0.9-0.3,1.9-0.4,2.9l-0.2,1.6c0.1,0.3,0.2,0.7,0.3,1.1c0.3,1.5,0.4,3.3,0.3,5.3
	c-0.1,1.8-0.4,3.8-0.8,5.7c-0.4,2.2-1,4.3-1.7,6.1c-0.6,1.7-1.2,3.2-2.2,4.5c-1,1.3-2.4,2.5-4.6,3.5c-1.9,0.9-4.3,1.7-6.8,2.5
	c-3.3,1.1-6.8,2.2-9.5,3.7c-2.4,1.3-4.2,2.8-5.8,5.4c-1.7,2.6-3.1,6.3-4.8,12c-1.9,6.5-4.1,15.5-5,23.7c-0.7,6-0.6,11.6,0.7,15.5
	c3,8.5,12.5,8.7,22.6,8.9l1.2,0l1.1,0c2.8-0.1,6.1-0.1,8.2-0.7c1.6-0.4,2.6-1,3.2-1.8c0.6-0.7,0.8-1.5,0.8-2.3
	c0-0.8-0.2-1.5-0.8-2.1c-0.6-0.6-1.7-1.2-3.5-1.7c-0.2-0.1-0.4-0.1-0.6-0.2c-1.4-0.1-2.9-0.2-4.4-0.3c-1-0.1-2-0.1-2.9-0.2
	c-2.4-0.2-4.6-0.5-6.4-0.8c-1.9-0.3-3.4-0.7-4.5-1c-1.1-0.4-1.8-0.8-2.1-1.6c-0.3-0.7-0.3-1.7,0-3.3c0.3-1.6,0.7-3.8,1.3-5.8
	c0.5-1.7,1-3.3,1.4-4.2c0.2-0.4,0.4-0.7,0.6-0.8c0.3-0.2,0.5-0.2,0.7,0c0.2,0.1,0.3,0.3,0.4,0.5c0.2,0.6,0.4,1.5,0.5,2.7
	c0.1,1.2,0.2,2.5,0.2,3.8c0,1.5,0,2.9-0.1,4.1l0,0.4c-0.1,1.8-0.2,2.9,2.5,3.6c1.6,0.4,4,0.8,6.6,1.1c2.3,0.3,4.6,0.6,6.4,1
	c1.8,0.2,3.5,0.4,4.9,0.7c0.1-1.4,0.3-2.7,0.6-3.8c0.2-0.6,0.5-1.1,0.8-1.5c0.5-0.6,1-0.9,1.7-1.1c0.6-0.1,1.4-0.1,2.2,0.2
	c0.8,0.3,1.7,0.9,2.7,1.7c0.9,0.8,1.9,1.8,2.8,2.9c1.1,1.4,2.1,3,2.5,4.5c0.5,1.6,0.4,3-0.5,4.2c-0.2,0.2-0.3,0.4-0.5,0.5
	c-2.9,2.3-11.4,2.1-20.6,1.8c-1.6,0-3.2-0.1-4.8-0.1l-0.5,0c-1.2,0-2.3,0.1-3.1,0.2c-1.4,0.1-2,0.4-2.3,0.9
	c-0.3,0.5-0.2,1.4-0.1,2.8c0.1,1.5,0.3,3.5-1.9,5.5c-2.1,1.9-6.4,3.8-15.2,5c-8.7,1.2-21.8,1.8-37.2,2.2C3,213,1.5,213,0,213.1
	V212.3L0,212.3z M73.7,195.7c-0.3,0.1-0.7,0.2-1.1,0.2c7.8,0.2,14.5,0.2,16.9-1.7c0.2-0.1,0.3-0.3,0.4-0.4c0.8-0.9,0.8-2.1,0.3-3.5
	c-0.4-1.4-1.4-2.9-2.4-4.2c-0.9-1.1-1.8-2.1-2.7-2.8c-0.9-0.8-1.7-1.3-2.5-1.5c-0.7-0.2-1.3-0.3-1.8-0.2c-0.5,0.1-0.9,0.4-1.3,0.8
	c-0.3,0.3-0.5,0.8-0.7,1.3c-0.4,1-0.6,2.3-0.6,3.7c0.4,0.1,0.8,0.2,1.1,0.4c1.5,0.6,2.5,1.5,3,2.4c0.7,1.2,0.7,2.4,0.3,3.4
	c-0.2,0.5-0.5,1-0.9,1.3c-0.3,0.3-0.7,0.5-1.1,0.5c-0.4,0-0.8-0.1-1.2-0.3c-0.3-0.2-0.6-0.6-0.9-1.2c-0.2-0.4-0.4-0.9-0.5-1.5
	c-0.1,0.5-0.4,1-0.8,1.5C76.7,194.6,75.5,195.3,73.7,195.7L73.7,195.7z M77.3,188.4c0.1,0.1,0.3,0.3,0.4,0.4l0-0.3
	c0-0.2,0-0.5,0-0.7c-0.5-0.1-1-0.2-1.5-0.3C76.6,187.8,77,188.1,77.3,188.4L77.3,188.4z M63,185.6c-1.3-0.2-2.5-0.4-3.4-0.7
	c-3.3-0.9-3.2-2.2-3-4.4l0-0.4c0.1-1.2,0.1-2.6,0.1-4c0-1.3-0.1-2.6-0.2-3.8c-0.1-1.1-0.3-2-0.5-2.5c0-0.1-0.1-0.1-0.1-0.2
	c-0.1,0.1-0.2,0.2-0.3,0.5c-0.4,0.8-0.9,2.3-1.3,4c-0.5,2-1,4.1-1.3,5.7c-0.2,1.4-0.3,2.3,0,2.9c0.2,0.5,0.8,0.9,1.7,1.2
	c1,0.4,2.5,0.7,4.3,1C60.2,185.3,61.5,185.4,63,185.6L63,185.6z M79.2,188.3c-0.3-0.1-0.6-0.2-0.9-0.3l0,0.5
	c0.1,1.9,0.4,3.8,0.9,4.9c0.2,0.4,0.4,0.7,0.7,0.9c0.2,0.2,0.5,0.2,0.7,0.2c0.2,0,0.5-0.1,0.7-0.3c0.3-0.2,0.5-0.6,0.7-1
	c0.3-0.8,0.3-1.8-0.2-2.8C81.4,189.6,80.5,188.9,79.2,188.3L79.2,188.3z M79.5,97.9c-0.3-0.8-0.6-1.5-1-1.9
	c-0.2-0.2-0.5-0.4-0.7-0.5c-0.3-0.1-0.6-0.1-0.9,0c-0.3,0.1-0.6,0.2-0.8,0.5c-0.3,0.3-0.5,0.6-0.6,1c-0.2,0.7-0.2,1.7,0,2.6
	c0.2,1.1,0.6,2.1,1.1,2.8c0.3,0.4,0.5,0.6,0.8,0.7c0.1,0,0.2,0.1,0.3,0c0.1,0,0.2-0.1,0.3-0.1c0.3-0.2,0.5-0.6,0.8-1.2
	C79,101,79.3,99.5,79.5,97.9L79.5,97.9z M95,101.2c0-0.1-0.1-0.1-0.1-0.2l-1.1-0.3c-0.8-0.2-1.7-0.4-2.4-0.5c-0.7-0.1-1.4-0.2-2-0.3
	c-0.6-0.1-1.2-0.1-1.7,0c-0.4,0.1-0.8,0.2-1,0.4c-0.2,0.2-0.4,0.5-0.5,0.9c-0.2,0.5-0.2,1-0.2,1.4c0,0.3,0,0.6,0.2,0.8
	c0.1,0.2,0.4,0.4,0.9,0.6c0.5,0.3,1.3,0.5,2.1,0.7c0.7,0.2,1.4,0.3,2,0.3c0.6,0,1.2-0.1,1.6-0.3c0.4-0.2,0.8-0.5,1.1-0.8
	c0.3-0.3,0.6-0.7,0.9-1.1c0.2-0.4,0.4-0.8,0.5-1.1C95.1,101.5,95.1,101.3,95,101.2L95,101.2z M106.4,102.3L106.4,102.3L106.4,102.3
	L106.4,102.3L106.4,102.3z M106,103c-0.1-0.2-0.3-0.3-0.6-0.4c-0.8,0.1-1.9,0.1-3,0c-1.1,0-2.3-0.1-3.1,0c-0.3,0.1-0.6,0.2-0.8,0.3
	c-0.2,0.1-0.4,0.3-0.4,0.4c-0.1,0.2-0.1,0.4-0.1,0.6c0,0.2,0.1,0.5,0.3,0.7c0.3,0.5,0.8,1.1,1.4,1.7c0.7,0.6,1.4,1.1,2.1,1.5
	c0.5,0.3,0.9,0.3,1.2,0.3c0.3-0.1,0.7-0.3,1-0.7c0.4-0.5,0.9-1.1,1.3-1.7c0.3-0.6,0.6-1.1,0.7-1.6C106.3,103.5,106.2,103.2,106,103
	L106,103z M107.2,100.1c0-0.2,0-0.3,0-0.5c0-0.3,0-0.7,0-1L107.2,100.1L107.2,100.1z M88.5,121.8c0.2,0.1,0.4,0.1,0.6,0.2
	c-0.4-0.2-0.9-0.5-1.3-0.8c-1.7-1.3-3.2-3.5-4.4-5.2c-0.7-1-1.2-1.8-1.7-2.2c-0.3-0.3-0.5-0.4-0.6-0.4l0,0c0,0,0,0.1-0.1,0.2
	c-0.1,0.4,0.1,1.1,0.6,2c0.6,1.2,1.7,2.7,3.1,3.9C85.9,120.4,87.2,121.3,88.5,121.8L88.5,121.8z M131,158.5c0.3,0.2,0.6,0.4,0.8,0.6
	c0.6,0.7,0.8,1.8,0.8,3.2c0,1.4-0.3,3.3-0.6,5.6c-0.1,0.9-0.3,1.8-0.4,2.8c0.7-3.2,1.5-6.1,2.5-8.1c1.9-3.7,4.7-3.6,7.1-3.6
	c0.5,0,1,0,1.5,0c0.7,0,1.4-0.2,2-0.4c-0.5-2.7-0.9-5-0.6-6.7c0.2-1.2,0.6-2.1,1.2-2.6c0.3-0.2,0.5-0.4,0.8-0.5
	c0.3-0.1,0.6-0.2,0.9-0.1c0.4,0,0.7,0.2,1,0.5c0.6,0.6,0.9,1.7,0.9,2.9c0,0.3,0,0.7,0,1c0.2-0.2,0.4-0.3,0.7-0.4
	c0.7-0.3,1.8-0.5,3.2-0.6c1.4-0.1,3.2-0.1,5.4-0.1c2.7,0,6,0.1,9,0.2c2,0.1,3.9,0.1,5.3,0.2l1.4,0c1.7,0,2.5,0,3.1,0.2
	c-0.3-0.6-0.4-1.2-0.1-2.1c0.3-0.9,0.9-2,2.3-3.8c1.3-1.7,3.2-4,5.2-6.2c2.2-2.5,4.5-4.9,6-6.5c1.5-1.5,2.4-2.2,3-2.4
	c0.8-0.3,1.1,0.1,1.5,0.8c0.2,0.4,0.4,0.8,0.5,1.4c0.4-0.1,0.8-0.1,1.2,0.1c1.6,0.8,3.2,4.8,4.5,8.1l0.6,1.4c1.2,3.1,2.1,5.2,1,8.5
	c-0.7,2.3-2.3,5.1-3.6,7.6c-0.7,1.3-1.3,2.4-1.8,3.3c-0.6,1.2-0.8,2-0.5,2.5c0.3,0.5,1.1,0.7,2.6,1c0.5,0.1,1,0.2,1.6,0.2l0.1,0
	c0.8-0.4,2-0.6,3.4-0.7c1.3-0.1,2.8-0.1,4.1,0.1c1,0.2,1.9,0.4,2.6,1l0.3,0c1.5-0.1,2.4-0.3,2.8-1c0.5-0.8,0.5-2.2,0.3-4.8
	c-0.3-3-0.9-7.6-1.9-12.2c-0.7-3.4-1.7-6.8-2.9-9.7c-1.4-3.3-3.2-5.8-5.1-7.8c-1.9-1.9-4-3.3-6.1-4.2c-3.4-1.6-6.9-2.1-9.9-2.6
	c-0.7-0.1-1.3-0.2-2-0.3c-0.3-0.1-0.6-0.1-0.9-0.2c-0.7,0.1-1.5,0.1-2.3,0c-2.7-0.2-5.6-1.4-7.8-2.6c-2.3-1.2-3.8-2.5-4.4-3.2
	c-0.2-0.2-0.3-0.4-0.4-0.6c-0.1-0.3-0.1-0.5,0.1-0.7c0.1-0.1,0.2-0.1,0.4-0.1c0.6,0.1,2.1,0.9,3.8,1.9c1,0.6,2.2,1.3,3.2,1.8
	c1.4,0.7,2.6,1.3,4,1.7c1,0.4,2.1,0.6,3.3,0.9c1.1-0.2,2.1-0.5,3-1.2c1.7-1.4,2.9-3.9,3.7-6.8c0.9-2.9,1.4-6,1.7-8.6
	c0.4-2.5,0.6-4.4,0.6-5.8c0-1.4-0.2-2.5-0.8-3.4c-0.6-1-1.7-2-3.3-2.1c-1.3-0.1-2.9,0.2-4.9,1.3c-4.1,2.2-9.9,7.6-14,11.5
	c-0.7,0.6-1.3,1.2-1.9,1.7c-1.9,1.7-3.1,2.8-4.1,3.4c-0.3,0.3-0.6,0.5-0.9,0.7c-1.5,1.2-3.1,2-5,2.7c-1.6,0.5-3.4,0.9-5.4,1.3
	c-2.6,0.5-5.4,1.1-7.9,2.1c-1.9,0.8-3.7,2-5.2,3.3c-1.8,1.5-3.3,3.3-4.6,5.2c-1.2,1.8-2.2,3.6-3.1,6c-0.8,2.4-1.5,5.4-1.9,9.4
	c-0.4,3.7-0.6,8.2-0.7,12.8L131,158.5L131,158.5z M131.3,159.6c-0.1-0.1-0.1-0.2-0.2-0.2c0,3.4,0,6.7,0.1,9.7l0.2-1.1
	c0.3-2.4,0.6-4.2,0.6-5.6C131.9,161.1,131.7,160.2,131.3,159.6L131.3,159.6z M111.3,183.1c-2.4-1.1-5-2.3-7.7-3.7l-0.8-0.4
	c0.8,0.5,1.7,1,2.7,1.5C107.2,181.4,109.2,182.3,111.3,183.1L111.3,183.1z M95.5,174.9c-1.4-0.9-2.8-1.8-4.1-2.7
	c-3.9-2.7-7-5.4-9.1-7.9c-2.3-2.6-3.5-5-3.6-6.9c0-0.5,0-1,0.2-1.4c0.3-1.1,1.1-2,2.1-2.6l0.1,0l-0.1-0.1c-0.3-0.3-0.8-0.9-1.3-1.9
	c-0.6-1.1-1.4-2.8-2.2-4.6c-0.9-2.1-1.8-4.3-2.5-6c-0.6-1.6-0.9-2.7-0.6-3.8c0.1-0.3,0.3-0.7,0.5-1c-0.4-0.4-0.8-0.6-1.3-0.6
	c-0.8,0-1.9,0.5-3.8,1.4c-1.9,0.9-4.6,2.3-7.2,3.7c-2.7,1.4-5.3,2.8-7,3.7c-3,1.7-3,1.9-1.1,6.4l0.1,0.3c0.6,1.4,1.1,2.7,1.7,4.1
	c2.2,5.3,5.2,12.3,7,16.4c1.2,2.6,1.9,3.9,2.7,4.5c0.7,0.5,1.5,0.3,2.9-0.3c1.3-0.6,3.1-1.4,4.9-2.4c2.3-1.2,4.6-2.5,6.3-3.5
	l0.8-0.5c2.6-1.5,3.4-2.1,5.3-0.7c0.7,0.5,1.5,1.3,2.4,2.1c1.5,1.4,3.2,3,4.7,3.8C93.9,174.8,94.7,175,95.5,174.9L95.5,174.9z
	 M97.4,175.2c0.6,0.3,1.1,0.7,1.7,1c0-0.6,0.5-1,1-1.4c0.5-0.4,1-0.9,1.4-1.7c0.4-0.8,0.5-2,0.6-3c0.1-1.1,0.3-2.1,0.6-2.7l0.1-0.1
	c-0.3-0.2-0.5-0.4-0.7-0.5c-0.1,0.8-0.2,1.6-0.4,2.4c-0.2,0.9-0.5,1.8-0.8,2.6c-0.4,0.8-0.9,1.6-1.6,2.3
	C98.7,174.5,98.1,174.9,97.4,175.2L97.4,175.2z M82.1,152.8c0.6-0.2,1.3-0.4,2-0.4c0.7,0,1.4,0,2,0.2c2.5,0.7,4.1,3.1,5.3,5.1
	c0.3,0.4,0.5,0.8,0.8,1.2c0.6,0.9,1.2,1.4,1.7,1.7c0.5,0.3,1.1,0.3,1.7,0.2c0.7-0.1,1.4-0.4,2.3-0.8c0.9-0.4,1.9-0.9,3-1.5
	c1.2-0.7,2.6-1.5,3.9-2.3c1-0.6,1.8-1.2,2.4-1.7c0.6-0.5,0.9-0.9,0.8-1.6c-0.1-0.9-0.5-2.2-1.4-4.6c-0.9-2.5-2.4-6.3-3.8-9.9
	c-1.3-3.2-2.6-6.4-3.5-8.5c-1-2.2-1.5-3.3-2.3-3.6c-0.7-0.3-1.8,0.1-3.7,0.9c-2.4,1-6,2.5-9.3,4.1c-2.4,1.1-4.6,2.2-6.2,3.2
	c-0.9,0.6-1.6,1-2.1,1.5l0.2,0.2c0.8,1,1.7,2.5,2.6,4.2c0.9,1.6,1.7,3.4,2.4,5c0.6,1.5,1,2.7,1.2,3.8c0.3,1.3,0.3,2.4,0.3,3.1
	C82.2,152.4,82.2,152.6,82.1,152.8L82.1,152.8z M75.2,136.5c-0.2,0.2-0.3,0.4-0.3,0.6c-0.3,0.8,0.1,1.8,0.6,3.3
	c0.6,1.6,1.5,3.9,2.5,5.9c0.8,1.8,1.6,3.5,2.2,4.6c0.5,0.9,0.9,1.4,1.2,1.7l0.1,0.1c0.1-0.1,0.1-0.3,0.1-0.5c0.1-0.6,0-1.6-0.3-2.8
	c-0.2-1-0.6-2.3-1.1-3.7c-0.6-1.6-1.4-3.3-2.3-4.9C76.9,139.1,76,137.6,75.2,136.5L75.2,136.5L75.2,136.5z M101.4,165.1
	c0-0.4-0.1-0.8-0.2-1.1c-0.2-0.5-0.5-1-0.8-1.3c-0.4-0.4-0.8-0.6-1-0.6c0,0-0.1,0-0.1,0l0,0c0,0.1,0,0.1,0,0.3
	c0.1,0.3,0.2,0.6,0.5,1C100.1,163.9,100.7,164.5,101.4,165.1L101.4,165.1z M105.4,168.1c1.1,0.6,2.2,1.3,3.4,1.9
	c1.5,0.8,3,1.4,4.3,1.9c1.2,0.4,2.2,0.7,3.1,0.8c0.8,0.1,1.4,0,1.9-0.2c0.5-0.2,0.8-0.6,1-1.2c0.2-0.7,0.3-1.7,0.3-3.2
	c-0.1-1.4-0.3-3.1-0.6-4.8c-0.3-2.1-0.7-4.1-1.1-5.4c-0.1-0.2-0.1-0.4-0.2-0.6c0,0.9,0.2,2.2,0.4,3.7c0.1,1,0.2,2.1,0.3,3.2
	c0.1,1.5,0.3,3,0.1,4.2c-0.2,1.3-0.7,2.4-1.8,2.8c-0.9,0.4-2.2,0.3-3.6,0c-1.8-0.4-3.8-1.2-5.4-1.9c-0.6-0.3-1.1-0.5-1.6-0.7
	L105.4,168.1L105.4,168.1z M131.8,173.1l-0.5,2.1c0.2,2.8,0.4,5.1,0.8,6.8c0.5,2.1,1.3,3.4,2.7,4.3c1.2,0.8,2.9,1.2,4.6,1.2
	c2,0.1,3.9-0.3,5.2-0.9c2.1-1,2-2.9,1.9-6.6l-0.1-1.9c-0.1-4-0.3-9.2-0.9-13.8c-0.2-1.7-0.5-3.3-0.8-4.8c-0.6,0.2-1.3,0.4-2.1,0.4
	c-0.5,0-1,0-1.5,0c-2.2,0-4.7-0.1-6.5,3.2C133.5,165.4,132.6,169.2,131.8,173.1L131.8,173.1z M145.3,158.4c0.1-0.1,0.3-0.2,0.4-0.3
	c0.8-0.6,1.5-1.4,1.9-2.5c0.4-1.1,0.6-2.3,0.5-3.5c0-1.1-0.3-2-0.7-2.4c-0.2-0.2-0.4-0.3-0.6-0.3c-0.2,0-0.4,0-0.5,0.1
	c-0.2,0.1-0.4,0.2-0.6,0.4c-0.5,0.4-0.8,1.2-1,2.2C144.5,153.7,144.8,155.8,145.3,158.4L145.3,158.4z M165.2,112.9
	c1.1-1,2.3-2.2,3.6-3.6c1.1-1.2,2.3-2.6,3.5-4c2.5-2.9,5.1-5.9,7.4-8.2c1.8-1.7,3.4-3,4.8-3.9c1.5-0.9,2.8-1.3,4.1-1.2
	c1.6,0.1,2.9,0.9,4,1.5c0.6,0.3,1.1,0.6,1.4,0.8c0.2,0.1,0.3,0.1,0.5,0c0.1,0,0.3-0.1,0.4-0.2c0.1-0.1,0.2-0.3,0.3-0.5
	c0.1-0.4,0.1-0.9,0-1.4c-0.1-0.9-0.6-2-1.4-3.2c-0.7-1-1.8-2.1-3.3-3.3c-1.8-1.4-4.3-3-7-4.2c-2.2-1-4.6-1.8-6.9-2.2
	c-2.5-0.4-4.8-0.1-7.1,0.6c-2.2,0.8-4.4,2.1-6.4,4c-1.9,1.8-3.7,4.1-5.2,6.3c-1.7,2.6-3.1,5.2-3.7,7.1c-0.4,1.2-0.5,2.1-0.4,2.7
	c0,0.3,0.2,0.6,0.3,0.8c0.1,0.2,0.3,0.3,0.6,0.4c0.3,0.1,0.6,0.1,1,0.1c0.6-0.1,1.2-0.3,1.8-0.5c1.4-0.5,2.6-0.9,3.1,0.2
	c0.3,0.7,0.2,2.2-0.1,3.8c-0.2,1.4-0.4,2.9-0.3,4.1c0.1,1.2,0.4,2.1,0.9,2.8c0.5,0.8,1.3,1.4,1.9,1.6c0.6,0.2,1.1,0.1,1.9-0.4
	L165.2,112.9L165.2,112.9z M175.8,121.1c1.9,1,4.3,2,6.6,2.4l-0.5-0.2c-1.4-0.5-2.7-1-4.1-1.8c-1.1-0.6-2.2-1.2-3.2-1.8
	c-1.3-0.8-2.5-1.5-3.1-1.7l0,0C172.2,118.7,173.6,119.9,175.8,121.1L175.8,121.1z M210.7,167.8c-1.5,0.1-3.5,0-5.5-0.1
	c-1.5-0.1-2.9-0.2-4.2-0.3c-0.7,0.5-0.6,1.2-0.5,2.3c0,0.3,0.1,0.7,0.1,1.1c0.1,1.2,0.1,2.6,0,3.9c-0.1,0.7-0.2,1.4-0.3,2l0,0
	c0.5,0.2,0.8-0.5,1.3-1.6c0.3-0.6,0.6-1.4,1-2.1c0.7-1.3,1.8-2.5,3.1-3.2c1.1-0.5,2.2-0.7,3.5-0.1c1.2,0.5,2.3,1.8,3.4,3.3l0-0.2
	c-0.3-2.4-0.8-3.8-1.5-4.7C210.9,168,210.8,167.9,210.7,167.8L210.7,167.8z M205.3,167c1.5,0.1,3,0.1,4.3,0.1
	c-0.4-0.2-0.8-0.3-1.3-0.3c-1.2-0.2-2.6-0.2-3.9-0.1c-0.6,0-1.2,0.1-1.7,0.2C203.5,166.9,204.4,167,205.3,167L205.3,167z
	 M200.1,167.3c-0.3,0-0.7-0.1-0.9-0.1c-1.7-0.3-2.6-0.6-3.1-1.3c-0.4-0.7-0.2-1.7,0.5-3.1c0.4-0.9,1.1-2.1,1.8-3.4
	c1.3-2.4,2.9-5.2,3.6-7.4c0.9-3.1,0.2-5.1-1-8.1l-0.6-1.5c-1.2-3.2-2.7-7-4.1-7.7c-0.2-0.1-0.5-0.1-0.7,0l0,0.1c0,1-0.2,2.3-1,3.9
	c-0.7,1.4-1.8,3.1-3.1,4.9c-1.6,2.2-3.4,4.4-5,6.2c-0.5,0.5-0.8,0.9-1.2,1.3c-2.1,2.3-3.5,3.9-3.8,6.2c-0.2,2.2,0.5,5.3,1.1,7.5
	c0.1,0.6,0.3,1.1,0.4,1.6c0.1,0.4,0.2,0.8,0.2,1.1l0.5-0.2c1.9-0.7,3.2-1.2,4.6-1.2c1,0,2.1,0.4,3,1c1,0.6,1.8,1.5,2.6,2.7
	c0.5,0.8,1,1.6,1.4,2.5c1,0.8,1.9,1.7,2.6,2.5c0.7,0.7,1.4,1.3,1.9,1.7c0.1-0.5,0.2-1,0.2-1.6c0.1-1.3,0.1-2.7,0-3.8
	c0-0.4-0.1-0.8-0.1-1.1C199.7,168.7,199.6,167.9,200.1,167.3L200.1,167.3z M190.7,139.5c1.6-2.6,2.8-4.6,3.9-5.4
	c-0.1-0.6-0.3-1-0.5-1.4c-0.2-0.3-0.3-0.5-0.6-0.4c-0.5,0.2-1.3,0.8-2.7,2.3c-1.6,1.6-3.8,4-6,6.5c-2,2.2-3.9,4.5-5.2,6.2
	c-1.3,1.7-2,2.8-2.2,3.6c-0.2,0.7-0.1,1.1,0.1,1.6c0.2,0.4,0.4,0.8,0.6,1.2l0,0.1c0.3,0.3,0.5,0.6,0.6,0.8l0.1,0.1
	c0.2-0.1,0.3-0.2,0.5-0.4c2-1.6,4-3.9,5.8-6.3c1.8-2.5,3.5-5.1,4.9-7.3L190.7,139.5L190.7,139.5z M173.3,157.3
	c1.8-0.4,3.4-1.1,5.1-2.2c-0.2-0.2-0.4-0.5-0.6-0.9c-0.2-0.2-0.4-0.4-0.6-0.5c-0.5-0.4-1.1-0.4-3.3-0.4l-1.4,0
	c-1.4,0-3.3-0.1-5.3-0.2c-3-0.1-6.4-0.2-9-0.2c-2.2,0-4,0-5.3,0.1c-1.3,0.1-2.3,0.2-3,0.5c-0.3,0.1-0.5,0.3-0.7,0.4
	c-0.1,0.1-0.1,0.2-0.1,0.2c0,0.1,0.1,0.2,0.2,0.4c0.3,0.3,1,0.7,2,1c1.6,0.5,3.9,1,6.6,1.4c2.7,0.4,5.6,0.7,8.2,0.9
	C168.7,157.8,171.1,157.8,173.3,157.3L173.3,157.3z M183.1,168.1c0,0.2,0,0.4-0.1,0.5c-0.2,0.5-0.6,0.8-1.2,1.2l-0.1,0.1
	c-1,0.6-2.5,1.6-2.5,3.5c0,0.5,0.1,1,0.2,1.6c0.1,0.5,0.2,1.1,0.2,1.6c0,0.2,0,0.4,0,0.5l0,0c0.8-0.4,1.9-0.8,2.5-1.8
	c0.4-0.6,0.7-1.5,0.9-2.3c0.5-1.5,1-3.1,2.2-3.9c1-0.6,2.3-0.6,3.8-0.3c1.5,0.4,3.2,1.2,4.7,2.3c-0.2-0.4-0.4-0.7-0.6-1
	c-0.7-1.1-1.5-1.9-2.4-2.5c-0.9-0.6-1.8-0.9-2.7-0.9c-1.2,0-2.5,0.5-4.3,1.2L183.1,168.1L183.1,168.1z M181.5,169.2
	c0.4-0.3,0.7-0.5,0.9-0.8c-0.7,0.2-1.4,0.5-2.2,0.8c-2,0.7-4.6,1.4-7.2,2c-2.7,0.7-5.4,1.2-7.6,1.6c-2.1,0.4-3.7,0.5-5,0.4
	c-1.3-0.2-2.4-0.7-3.3-1.6c-1.2-1.3-2.2-3.4-3.2-5.5c-0.4-0.9-0.9-1.9-1.4-2.8c-0.9-1.7-1.9-3.2-2.5-3.8l-0.1-0.1
	c0.2,0.9,0.9,3,1.7,5.1c0.3,0.7,0.5,1.5,0.8,2.2l0.1,0.3c0.9,2.6,1.5,4.4,6.2,6.6c2.6,1.3,6.5,2.7,10.1,3.7c3.2,0.9,6.2,1.5,8,1.4
	c0.5,0,0.9-0.1,1.2-0.3l0-0.1c0.1-0.2,0.2-0.3,0.3-0.5c0.1-0.1,0.3-0.2,0.4-0.3c0.1-0.3,0.1-0.6,0.1-0.9c0-0.5-0.1-1-0.2-1.5
	c-0.1-0.6-0.2-1.2-0.2-1.7c0-2.3,1.7-3.4,2.8-4.1L181.5,169.2L181.5,169.2z M179.4,178c-0.1,0.3-0.4,0.6-0.7,0.9l0,0.1
	c0.1,0.2,0.2,0.4,0.3,0.5c0.3,0.3,0.7,0.6,1.3,0.8c0.9,0.4,2.3,0.6,3.6,0.8c1,0.2,2,0.3,2.8,0.6c1.3,0.4,2.1,0.9,3.6,2.1
	c0.7,0.5,1.5,1.1,2.5,1.8c1.9,1.3,4.7,3.2,7.5,4.8c2.2,1.4,4.4,2.6,6.1,3.4c1.8,0.9,3,1.2,3.8,0.9c0.8-0.4,1.3-1.5,1.6-3.7
	c0.4-2.3,0.7-5.8,0.9-9.2c0.1-2.5,0.1-5.1,0-7.2c-0.1-0.2-0.3-0.4-0.4-0.6c-1.1-1.6-2.3-2.9-3.4-3.5c-1-0.5-2-0.4-2.8,0.1
	c-1.1,0.6-2.1,1.7-2.8,2.9c-0.4,0.7-0.7,1.4-0.9,2c-0.6,1.4-1,2.4-2.2,2l-0.1,0.2c-0.1,0.3-0.3,0.6-0.5,0.7
	c-0.3,0.3-0.6,0.4-0.9,0.4c-0.3,0-0.6-0.1-0.9-0.4c-0.4-0.3-0.7-0.7-1.1-1.3c-0.4-0.7-0.9-1.7-1.4-2.8c-0.2-0.5-0.5-1.1-0.8-1.7
	c-0.4-0.3-0.8-0.6-1.2-0.9c-1.5-1-3.1-1.8-4.5-2.2c-1.3-0.3-2.5-0.3-3.2,0.2c-1,0.6-1.5,2.1-1.9,3.5c-0.3,0.9-0.6,1.8-1,2.5
	c-0.8,1.2-1.9,1.7-2.8,2.1C179.7,177.8,179.6,177.9,179.4,178L179.4,178z M195.9,173.7l0.1,0.2c0.5,1,0.9,2,1.3,2.7
	c0.3,0.5,0.6,0.9,0.9,1.1c0.2,0.1,0.3,0.2,0.5,0.2c0.1,0,0.2,0,0.3-0.1c0.1-0.1,0.2-0.3,0.3-0.5c0-0.1,0.1-0.2,0.1-0.3
	c-0.6-0.4-1.3-1.1-2.2-2C196.8,174.6,196.4,174.2,195.9,173.7L195.9,173.7z M249.7,165.2c0.1,0.4,0.1,0.8,0,1.3
	c-0.1,0.4-0.3,0.7-0.6,1.1c-1.1,1.3-3.4,2.4-5.4,3.3c-0.1,0.2-0.2,0.3-0.2,0.5c-0.1,0.2-0.1,0.4,0,0.6c0.1,0.2,0.2,0.4,0.4,0.5
	c0.3,0.3,0.8,0.5,1.4,0.7c0.6,0.2,1.3,0.3,2,0.4c0.8,0,1.8,0,2.8,0c1.5,0,3.3-0.1,5.1-0.3c1.7-0.1,3.4-0.2,5.1-0.3
	c0.2-0.4,0.5-0.9,0.7-1.5c1.1-3.3,1.7-10,2.1-14.9c0.1-0.8,0.1-1.6,0.2-2.5c0.1-0.7,0.1-1.3,0.2-1.8c0.3-3,0.4-3.6-0.6-4.2l-0.2-0.1
	c-0.4-0.1-0.7-0.2-1-0.5c-0.5-0.2-1.2-0.5-2-0.7c-1.4-0.4-3.3-0.9-5.4-1.4c-1.8-0.4-3.8-0.8-5.7-1.2c-2.9-0.6-5.6-1.1-7.4-1.6
	c-1.6-0.4-2.4-0.8-2.5-1.2c-0.1-0.5,0.6-0.8,2.2-1c1.3-0.1,3.4-0.2,5.5-0.2c1.9,0,3.8,0.1,5.4,0.3c1.6,0.2,2.8,0.5,3.8,0.9
	c1,0.4,1.7,0.9,2.4,1.4c0.7,0.5,1.3,1.1,1.9,1.6c0.7,0.6,1.3,1.3,1.7,1.8l0.1,0.1c0.1,0.1,0.2,0.3,0.3,0.4c0.3,0.1,0.5,0.2,0.8,0.4
	c0.2,0,0.6,0.1,1,0c0-0.7,0-1.2,0.1-1.6c0.2-0.6,0.6-1.1,1.4-1.5c0.7-0.4,1.9-0.8,3.6-1.3c1.4-0.4,3.3-0.8,5.2-1.2
	c2.7-0.6,5.5-1.2,7.5-1.5c1.6-0.3,2.6-0.5,3.3-0.6c0.7-0.1,1.1,0,1.4,0.2c0.3,0.2,0.5,0.4,0.7,0.7c0.2,0.3,0.3,0.7,0.4,1
	c0,0.2,0.1,0.4,0,0.6l0.2,0c1.2-0.2,1.4,0.2,1.6,1.9c0.2,1.2,0.4,3.3,0.5,5.9c0.1,1.9,0.1,4,0.1,6.3c0,2.6-0.2,5.3-0.4,7.8
	c-0.2,2.8-0.5,5.3-0.8,7.1c-0.3,1.8-0.6,2.8-1.1,3.5c-0.2,0.2-0.4,0.4-0.6,0.6c0.5-0.2,0.9-0.3,1.3-0.4c0.3-0.1,0.6-0.1,0.8,0
	c0.2,0.1,0.4,0.2,0.4,0.3c0.1,0.2,0.1,0.3,0.1,0.5c0,0.2-0.2,0.5-0.4,0.7c-0.1,0.2-0.3,0.4-0.5,0.6c-0.6,0.7-1.4,1.5-1.2,2.3
	c0.1,0.5,0.7,1.1,1.3,1.7c0.7,0.7,1.5,1.5,2,2.6c0.5,1,0.7,2.1,0.9,3.2c0.2,1.1,0.4,2.1,0.8,2.8c0.3,0.5,0.8,0.9,1.4,1.1
	c0.3-0.3,0.6-0.6,0.9-1c0.7-1.1,1.2-2.8,1.5-5.3c0.3-2.5,0.3-5.8,0.2-10.1c-0.1-4.8-0.4-10.8-0.8-16.3c-0.4-4.3-0.9-8.4-1.5-11.1
	c-0.5-2-1-3.4-1.6-4.3c-0.5,0-1-0.2-1.4-0.3c-0.3-0.1-0.6-0.3-0.8-0.5c-0.2-0.2-0.4-0.5-0.4-0.7c0-0.1,0-0.2,0.1-0.3
	c0.1-0.1,0.2-0.2,0.3-0.2c0.3-0.1,0.6-0.1,1.1,0.1c0.4,0.2,0.8,0.5,1.3,1.1l0.2,0.2l0.1,0c0.7-0.1,1.4-0.4,2-0.9
	c0.6-0.5,1.2-1.2,1.4-1.8c0.2-0.5,0.2-1-0.1-1.4c-0.3-0.5-0.9-1-1.9-1.6c-0.6-0.4-1.3-0.7-2-1.1c-1.7-0.9-3.5-1.8-3.8-2.8
	c-0.4-1.1,0.8-1.8,2.1-2.6c0.4-0.3,0.9-0.5,1.3-0.8c0.6-0.4,0.9-0.9,1.1-1.4c0.1-0.5,0-1-0.3-1.6c-0.3-0.6-0.8-1.2-1.2-1.9
	c-0.6-0.8-1.3-1.7-1.6-2.5c-0.3-0.9-0.3-1.7-0.2-2.5c0-0.5,0.1-1,0-1.4c-0.1-0.7-0.5-1.4-0.9-2.3c-0.3-0.6-0.7-1.3-1-2.1
	c-0.4-0.9-0.7-2-1-3.1c-0.3-1.3-0.6-2.6-0.8-3.7l-0.1-0.7c-0.3-1.6-0.5-2.9-1.8-4.5c-0.7-0.9-1.8-1.8-2.9-2.7
	c-1.2-1-2.6-1.9-3.8-2.5c-1.1-0.6-2.1-1-2.8-1.2c-0.3-0.1-0.5-0.1-0.6-0.1c0,0,0,0,0,0c0.1,0.2,0.4,0.6,0.8,1
	c0.6,0.7,1.6,1.5,2.4,2.1l0.5,0.4c1.4,1.1,2.6,2,3.8,4.3c0.7,1.4,1.4,3.2,1.9,5.3c0.4,1.8,0.7,3.9,0.7,6.1c0,2.6-0.3,5.3-1,7.9
	c-0.6,2.3-1.5,4.4-2.6,6c-1.8,2.5-4.3,3.4-5.8,4c-0.4,0.2-0.8,0.3-1.1,0.4c-0.4,0.2-0.4,0.4-0.2,0.8c0.1,0.2,0.2,0.3,0.3,0.5
	c0.2,0.3,0.4,0.7,0.6,1.1c0.4,0.8,0.8,1.9,0.9,2.9c0.1,0.9,0,1.7-0.4,2.4c-0.4,0.7-1.2,1.1-2.1,1.4c-0.8,0.2-1.8,0.3-2.6,0.4
	c-0.9,0-1.7,0-2.2-0.1c-0.7-0.1-1.2-0.4-1.3-1c-0.1-0.6,0.3-1.4,0.9-2.5c0.3-0.6,0.7-1.3,1-2c0.4-1,0.8-2.1,1-3.4
	c0.2-1.3,0.3-2.7,0-4.2c-0.2-1.3-0.6-2.8-1-4.2c-0.5-1.9-1-3.8-1-5.4c0-1.6,0.5-2.8,1.1-4c0.3-0.8,0.7-1.5,0.8-2.3
	c0.1-0.8,0.1-1.7,0.1-2.6c-0.1-1.5-0.1-2.9,0.5-4.3c0.7-1.7,2.5-3.1,3.9-4.1c0.4-0.3,0.8-0.6,1.1-0.9c0.6-0.5,0.8-0.9,0.8-1.2
	c0-0.3-0.2-0.6-0.6-1.1c-0.5-0.5-1.2-1.2-2.1-1.8c-0.8-0.5-1.7-1-2.7-1.4c-1.1-0.5-2.4-0.8-3.7-1c-1.2-0.2-2.6-0.2-3.9-0.1
	c-1.5,0.2-3,0.6-4.4,1.2c-1.2,0.5-2.1,1.3-2.8,2.2c-0.7,0.9-1,2-1.4,3.1c-0.5,1.4-0.9,2.7-1.9,3.5c-1.1,0.9-2.8,1.2-4.3,1.4
	c-0.9,0.1-1.7,0.3-2.2,0.5c-0.7,0.4-0.8,1.1-0.9,2.3c0,0.7-0.1,1.4-0.3,2.3c-0.3,1.4-0.9,3.2-1.7,4.8c-0.7,1.4-1.7,2.8-2.7,3.9
	c-1.1,1.1-2.4,1.9-3.5,2.6c-1.1,0.6-1.9,1.1-2.2,1.7c-0.5,1,0.4,2.5,1.2,3.7c0.1,0.2,0.3,0.5,0.4,0.7c0.5,0.8,0.8,1.5,0.8,2.3
	c0,0.8-0.4,1.5-1.3,2.3c-0.7,0.7-1.8,1.4-2.9,2.1c-1.5,1-3.1,2.1-3.9,3c-0.3,0.4-0.5,0.8-0.7,1.1c-0.1,0.4-0.2,0.8-0.1,1.1
	c0.1,0.3,0.2,0.6,0.5,0.8c0.1,0.1,0.3,0.2,0.5,0.3c0.5,0.2,1.1,0.1,1.7,0.1c0.9,0,1.8-0.1,2.4,0.5l0,0c0.1-0.4,0.3-0.7,0.4-1
	c0.5-1,1-1.6,1.6-1.9c0.2-0.1,0.4-0.2,0.6-0.2c0.4-0.1,0.9,0,1.3,0.2c0.4,0.2,0.8,0.6,1.1,1.2c0.2,0.5,0.4,1,0.6,1.8
	c0.3,1.4,0.4,3.4,0.4,5.4c0,2-0.1,4.1-0.2,5.7l0,0.3c-0.2,2.9-0.3,4.3,1.3,5.2c1,0.6,2.6,1.1,4.3,1.5c1.3,0.4,2.5,0.7,3.5,1.1
	c0.6,0.2,1.1,0.5,1.4,0.8c0.5,0.4,0.9,0.8,1.1,1.3c0.2,0.5,0.2,1-0.1,1.6C249.9,164.8,249.8,165,249.7,165.2L249.7,165.2z
	 M249.1,166.2c0-0.1,0-0.2,0.1-0.3c-0.7,0.7-1.5,1.4-2.4,2.1c-0.6,0.5-1.3,1-1.8,1.5c1.5-0.7,3-1.6,3.7-2.5
	C248.8,166.8,249,166.5,249.1,166.2L249.1,166.2z M242.8,171.3l-0.4,0.2c-1,0.5-1.8,0.8-2.2,1.3c-0.4,0.5-0.4,1.2,0,2.5l0.1,0.3
	c0.2-0.5,0.5-0.9,0.8-1.2c0.7-0.6,1.8-0.8,3.2-0.8c-0.3-0.2-0.6-0.3-0.9-0.5c-0.3-0.3-0.5-0.6-0.6-0.9
	C242.7,171.9,242.7,171.6,242.8,171.3L242.8,171.3z M241.4,179.9c-0.3-0.5-0.5-1.1-0.8-1.6c0,0.9,0.1,1.8,0.3,2.9
	c0.2,1.5,0.4,3,0.7,4.3c0.3,1.3,0.6,2.3,1.1,2.9c0.2,0.2,0.4,0.3,0.6,0.4c0.1,0,0.2,0,0.3-0.1c0.1-0.1,0.2-0.2,0.3-0.4
	c0.2-0.5,0.3-1.2,0-2.3C243.5,184.4,242.4,182.1,241.4,179.9L241.4,179.9z M255.2,174l-1.4,0.1c0.3,0,0.7,0.1,1,0.1
	c0.3,0,0.6,0.1,0.9,0.1c1.7,0.2,3,0.4,4-0.5C258.2,173.8,256.7,173.9,255.2,174L255.2,174z M261.1,173c1.3,0,2.6,0,3.8,0
	c2.3,0.1,4.2,0.5,5.9,1c1.3,0.4,2.5,0.9,3.7,1.4l0.1,0c1.9,0.1,3.9,0,5.7,0c1.7-0.1,3.2-0.2,4.4-0.4c1.1-0.2,1.7-0.5,2.2-1
	c0.5-0.6,0.7-1.6,1-3.2c0.3-1.8,0.6-4.3,0.8-7.1c0.2-2.5,0.3-5.2,0.4-7.7c0-2.3,0-4.4-0.1-6.3c-0.1-2.5-0.3-4.6-0.5-5.8
	c-0.1-1.1-0.2-1.3-0.8-1.3c-0.3,0-0.7,0.1-1.2,0.3c-0.3,0.1-0.7,0.2-1.1,0.3c-0.6,0.2-1.4,0.4-2.4,0.7c-2.1,0.6-5.4,1.4-8.6,2.1
	c-2.4,0.6-4.9,1.1-6.8,1.5c-0.6,0.4-1.1,0.7-1.5,1.1c-0.5,0.4-0.8,0.9-1.1,1.7c-0.1,0.2-0.1,0.4-0.2,0.6l0.1,0.9
	c0.2,1.8,0.3,4,0.4,6.4c0.1,2.4,0.3,4.9,0.3,7c0.1,2,0.1,3.6,0,4.8c0,1.2-0.1,2-0.3,2.5c-0.1,0.2-0.2,0.3-0.3,0.4
	c-0.2,0.2-0.4,0.2-0.6,0c-0.1-0.1-0.2-0.2-0.3-0.4c-0.2-0.5-0.4-1.7-0.5-3.7c-0.1-1.9-0.2-4.5-0.2-7.2c0-1.5,0-3,0.1-4.4
	c-0.4,4.9-1,11.5-2.1,14.8C261.5,172.2,261.3,172.6,261.1,173L261.1,173z M275.6,176.8c-0.4-0.2-0.8-0.4-1.2-0.6
	c-1.1,0-2.1-0.1-3.1-0.1c-2.4-0.1-4.6-0.3-6.3,0c-1.1,0.2-2,0.5-2.7,1c-0.7,0.5-1.2,1.1-1.5,1.9c-0.4,0.8-0.6,1.8-0.4,2.7
	c0.2,0.8,0.6,1.6,1.5,2.4c1,0.9,2.5,1.8,4.3,2.5c1.9,0.8,4,1.4,6.3,1.8c2.1,0.4,4.2,0.6,6.2,0.6c2.3,0,4.4-0.1,6-0.3
	c1.5-0.2,2.5-0.5,3.2-0.9c0.1-0.1,0.2-0.1,0.3-0.2l0.1-0.1c0.2-0.4,0.4-0.8,0.5-1.2c-0.1-0.3-0.4-0.7-0.9-1.2
	c-0.7-0.7-1.6-1.4-2.9-2.3c-1.4-1-3-2.1-4.8-3.2C278.7,178.5,277.1,177.6,275.6,176.8L275.6,176.8z M276.1,176.2
	c1.5,0.8,3,1.7,4.5,2.6c1.8,1.1,3.5,2.2,4.8,3.2c1.3,0.9,2.3,1.7,3,2.4c0.2,0.2,0.4,0.5,0.6,0.7c0.1-0.4,0-0.8-0.1-1.2
	c-0.3-1-1.6-1.9-2.7-2.7c-0.5-0.4-1-0.8-1.4-1.1l0,0c-0.7-0.6-1-1.2-1.1-1.8c-0.1-0.6,0.1-1.2,0.6-1.7l0,0c0.4-0.4,0.9-0.7,1.4-1
	c-0.3,0.1-0.6,0.1-0.9,0.2c-1.1,0.2-2.7,0.4-4.4,0.4C279,176.2,277.5,176.2,276.1,176.2L276.1,176.2z M289.5,186.1
	c0,0.1,0,0.2,0,0.4c0,0.5-0.3,1-0.8,1.4c-0.1,0.3-0.3,0.6-0.4,0.9c-0.2,0.6-0.3,1.2-0.1,1.6c0.2,0.4,0.5,0.7,1.2,0.9
	c0.8,0.3,1.9,0.3,3,0c0.2-0.1,0.4-0.2,0.7-0.3c-0.5-0.3-1-0.7-1.3-1.2c-0.5-0.8-0.7-1.9-0.9-3c-0.2-1-0.4-2.1-0.8-3
	c-0.5-0.9-1.2-1.7-1.9-2.4c-0.7-0.7-1.3-1.3-1.5-2c-0.3-1.1,0.6-2.1,1.3-3c0.2-0.2,0.4-0.4,0.5-0.6c0.1-0.2,0.2-0.3,0.2-0.5
	c0,0,0,0,0,0c0,0,0,0,0,0c-0.1,0-0.3,0-0.5,0c-0.5,0.1-1.2,0.3-1.9,0.7c-0.6,0.3-1.1,0.6-1.5,1l0,0c-0.3,0.4-0.5,0.7-0.4,1.1
	c0.1,0.4,0.3,0.9,0.9,1.4l0,0c0.4,0.3,0.9,0.7,1.4,1.1c1.2,0.9,2.5,1.9,2.9,3C289.9,184.5,289.8,185.3,289.5,186.1L289.5,186.1z
	 M285.2,142.4L285.2,142.4c0.6-0.2,1-0.4,1.2-0.5c0.3-0.2,0.3-0.3,0.3-0.4c-0.1-0.2-0.2-0.5-0.3-0.8c-0.1-0.2-0.3-0.3-0.4-0.4
	c-0.2-0.1-0.4-0.1-0.9-0.1c-0.6,0.1-1.6,0.2-3.2,0.6c-1.9,0.4-4.7,0.9-7.4,1.5c-1.9,0.4-3.8,0.8-5.2,1.2c-1.7,0.5-2.8,0.8-3.4,1.2
	c-0.6,0.3-0.9,0.7-1,1.1c-0.1,0.4-0.1,0.8-0.1,1.4c0.5-0.1,1.1-0.1,1.9-0.3l1-0.2c0.2-0.1,0.3-0.2,0.5-0.3c1-0.5,2.4-1,4.3-1.5
	c2.3-0.6,5.4-1.2,8.2-1.7C282.4,143,284,142.7,285.2,142.4L285.2,142.4z M274.1,145.3l-0.8,0.2L274.1,145.3L274.1,145.3z M265.7,148
	c0.1-0.1,0.2-0.2,0.3-0.2c-0.5,0.1-0.9,0.1-1.3,0.2l0.1,1.2C265.1,148.7,265.4,148.3,265.7,148L265.7,148z M264.6,154.4
	c-0.1,1.9-0.2,4.4-0.2,6.9c0,2.7,0.1,5.3,0.2,7.2c0.1,1.6,0.2,2.6,0.4,3.2c0.1-0.4,0.1-1,0.2-1.9c0-1.2,0-2.8,0-4.8
	c-0.1-2-0.2-4.5-0.3-7C264.7,156.8,264.6,155.6,264.6,154.4L264.6,154.4z M264,148L264,148L264,148L264,148L264,148z M260.7,146.3
	c-0.3-0.4-0.7-0.8-1.2-1.2c-0.6-0.5-1.2-1.1-1.8-1.6c-0.7-0.5-1.4-1-2.3-1.3c-0.9-0.4-2-0.7-3.6-0.9c-1.5-0.2-3.4-0.3-5.3-0.3
	c-2.1,0-4.1,0-5.4,0.2c-1,0.1-1.5,0.1-1.5,0.1c0,0.1,0.7,0.3,1.9,0.7c1.7,0.5,4.5,1,7.3,1.6c2,0.4,4,0.8,5.7,1.2
	c2.2,0.5,4,0.9,5.5,1.4C260.2,146.2,260.5,146.3,260.7,146.3L260.7,146.3z M232.9,144l-0.2,0.7c-0.4,1.7-0.8,3.9-1.1,6.1
	c-0.3,2-0.5,4-0.5,5.6c0,1.6,0.1,2.7,0.2,3.3l0.1-0.2c0.2-0.7,0.4-2.1,0.6-3.8c0.3-2.2,0.5-4.8,0.6-7c0.1-1.9,0.2-3.4,0.2-4.5
	L232.9,144L232.9,144z M291.4,141.4c0.2,0.1,0.4,0.1,0.6,0.2c-0.3-0.3-0.5-0.5-0.8-0.6c-0.2-0.1-0.4-0.1-0.5-0.1
	c0,0,0.1,0.1,0.1,0.1C290.9,141.1,291.1,141.2,291.4,141.4L291.4,141.4z M303.5,152.4c0,2.3,0.2,5,0.4,7.8c0-2.1,0-4.1,0-6
	c0.1-3.1,0.3-5.8,0.7-7.7c0.3-1.4,0.7-2.4,1.1-2.9c0.3-0.4,0.6-0.6,1-0.6c0.4-0.1,0.7,0,1,0.3c0.4,0.3,0.8,0.9,1.2,1.6
	c0.8,1.7,1.3,4.6,2,8.3c0.3,1.5,0.6,3.2,0.9,5c0.7,3.4,1.6,7.2,2.6,10.7c0.8,2.9,1.7,5.6,2.6,7.7c0.6,1.4,1.2,2.5,1.8,3.3
	c0.2-0.5,0.4-1.1,0.7-1.6c-0.1-0.1-0.3-0.3-0.4-0.4c-0.8-1-1.4-2.1-1.6-3.3c-0.2-1.2,0.1-2.5,0.5-3.6c0.6-1.3,1.4-2.4,2.3-2.8
	c0.3-0.2,0.7-0.3,1-0.3c0.4,0,0.8,0.1,1.1,0.4c0.3,0.3,0.5,0.6,0.6,1.1c0.1,0.6,0.1,1.4-0.1,2.3c-0.3,1.4-1.1,3.2-1.9,5.1
	c-0.2,0.5-0.4,1-0.7,1.5c0.7,0.7,1.6,1.3,2.3,1.6c0.8,0.4,1.4,0.4,1.8,0c0.5-0.5,0.8-1.7,0.8-3.7c0-3.1-0.6-8.3-1.1-12.6
	c-0.2-1.6-0.4-3.1-0.5-4.3c-0.2-2.3-0.3-3.8-0.1-4.8c0.2-1,0.7-1.6,1.5-2.1c-0.1,0-0.2,0-0.3,0c-0.8,0.1-1.3-0.1-1.7-0.4
	c-0.4-0.3-0.7-0.7-0.9-1.2c-0.2-0.5-0.4-1-0.6-1.5c-0.1-0.5-0.2-1-0.2-1.4c0-0.5,0.1-0.8,0.6-1.2c0.4-0.3,1.1-0.6,2.3-1.1
	c1.4-0.5,3.5-1.3,5.8-1.9c1.6-0.4,3.3-0.8,4.9-1c1.9-0.2,3.5-0.2,5.1,0.1c1.5,0.3,2.9,0.7,4.1,1.3c0.9,0.4,1.7,0.9,2.4,1.4
	c1.2,0.7,2.2,1.3,2.8,1.2c0.5-0.1,0.9-0.6,1.4-1.2c0.5-0.6,1.1-1.4,1.9-2c0.8-0.7,1.8-1.3,3-1.7c0.3-0.1,0.6-0.2,1-0.3
	c0.3-0.1,0.5-0.2,0.8-0.2c1.8-0.5,3.8-0.8,5.6-0.9c1.7-0.1,3.2-0.1,4.5,0c1,0.1,1.9,0.2,2.7,0.4l0-0.1c0-0.3,0-0.6-0.2-1l-0.1-0.1
	c-0.2-0.4-0.5-0.9-1-1.4c-0.4-0.5-0.9-0.9-1.4-1.3c-0.5-0.4-1-0.7-1.8-0.9c-0.7-0.2-1.7-0.3-3-0.2c-1.1,0-2.4,0.2-3.7,0.3
	c-2.1,0.2-4.3,0.5-5.9,0.4c-1.4-0.1-2.3-0.4-3-0.8c-0.7-0.4-1.1-1-1.4-1.6c-0.3-0.6-0.5-1.2-0.5-2.1c0-0.9,0.1-2.1,0.4-3.9l0.1-0.6
	c-0.1,0.3-0.2,0.5-0.3,0.7c-0.6,1.5-1.2,2.6-1.8,3.5c-0.7,0.9-1.3,1.5-2.1,1.9c-0.8,0.5-1.6,0.8-2.5,0.9c-0.9,0.1-1.8,0.1-2.8-0.2
	c-1.1-0.3-2.2-0.8-3.3-1.6c-1-0.7-2-1.6-3-2.8c-0.9-1.1-1.7-2.4-2.5-3.8c-1-1.8-1.8-3.6-2.4-4.9c-0.5-1.2-0.8-2.1-0.9-2.7
	c-0.1-0.7,0-1.3,0.3-1.7c0.3-0.4,0.7-0.9,1.2-1.2c0.6-0.4,1.2-0.8,2-1.1c0.6-0.3,1.3-0.5,2-0.7l0,0c1.2-0.5,2.6-0.6,4.9-0.7l1.9-0.1
	c2.4-0.2,5.3-0.4,7.2-0.4c0.5,0,0.8,0,1.2,0.1c0.9-0.1,1.7-0.2,2.4-0.2c0.3,0,0.6,0,0.8,0c0.1-1.9,0.2-3.8,0.1-5.6
	c-0.1-2.6-0.3-5.1-0.7-7.2c-0.4-2.1-1.1-3.8-2.1-5c-1-1.2-2.5-2-4.5-2.3c-2.3-0.4-5.3-0.3-8.2,0.5c-2.4,0.7-4.8,1.9-6.7,3.7
	c-1.9,1.9-3.4,4.5-4.3,7.1c-1.1,3.1-1.5,6.4-1.3,8.9c0.3,3.5,2,5.6,3.3,7.4c0.4,0.6,0.9,1.1,1.2,1.6c0.7,1.2,1.2,2.4,1.3,3.5
	c0.2,1.2,0.1,2.4-0.1,3.5c-0.2,1.3-0.6,2.5-1.2,3.5c-0.5,0.9-1.2,1.5-2.2,1.8c-1,0.3-2.2,0.2-3.6,0.1c-1.4-0.1-3-0.2-4.8,0
	c-1.9,0.2-4,0.8-6,1.8c-1.8,0.8-3.4,1.9-4.7,3.2c-1.3,1.4-2.1,2.9-2.6,5.1C303.5,145.9,303.4,148.7,303.5,152.4L303.5,152.4z
	 M350.7,115.1c0.1-0.7,0.1-1.5,0.2-2.3c-0.2,0-0.4,0-0.7,0l-0.7,0c0.3,0.2,0.5,0.5,0.6,0.8c0.3,0.7,0.4,1.6,0.4,2.5l0,0
	C350.6,115.9,350.6,115.5,350.7,115.1L350.7,115.1z M349.6,121.9c0.2-0.9,0.4-1.8,0.6-2.8c-0.1,0.1-0.2,0.2-0.3,0.2
	c-0.4,0.3-1.1,0.5-1.8,0.7c-0.8,0.2-1.7,0.3-2.4,0.4c-0.7,0-1.3,0-1.7-0.1c-0.5-0.1-0.9-0.4-1.1-0.7c-0.3-0.3-0.4-0.7-0.5-1.2
	c-0.1-0.4-0.1-0.9-0.1-1.5c0-0.6,0-1.2,0-1.7c0-0.5,0-0.9,0.1-1.2c0.1-0.4,0.1-0.7,0.4-0.9c-1.1,0.1-2.2,0.2-3.2,0.2l-2.7,0.2
	c0.3,0.1,0.6,0.2,0.8,0.4c0.6,0.4,1.1,0.9,1.4,1.4c0.3,0.6,0.4,1.2,0.3,1.8c0,0.6-0.2,1.1-0.3,1.6c-0.1,0.4-0.3,0.8-0.4,1.1
	c-0.1,0.3-0.2,0.5-0.3,0.7l0,0.2c-0.1,0.6-0.2,1.1-1.4,0.9c-0.6-0.1-1.6-0.4-2.7-0.8c-0.7-0.2-1.4-0.4-1.9-0.6
	c-0.4-0.1-0.7-0.2-1-0.3c-0.9-0.2-1.4-0.3-1.8-0.9c-0.2-0.4-0.3-0.9-0.3-1.4c0-0.5,0.2-1.1,0.5-1.6c0.2-0.3,0.4-0.6,0.6-0.9
	c-0.4,0.2-0.8,0.4-1.2,0.7c-0.4,0.3-0.8,0.7-1,1c-0.2,0.3-0.3,0.7-0.2,1.3c0.1,0.6,0.4,1.4,0.9,2.6c0.6,1.3,1.4,3.1,2.4,4.9
	c0.7,1.3,1.6,2.6,2.4,3.7c0.9,1.2,1.9,2,2.8,2.7c1.1,0.7,2.1,1.2,3.1,1.4c0.9,0.2,1.7,0.3,2.5,0.2c0.8-0.1,1.6-0.4,2.3-0.8
	c0.7-0.4,1.3-1,1.9-1.8c0.6-0.8,1.2-1.9,1.7-3.3C348.4,126.2,349,124.2,349.6,121.9L349.6,121.9z M333.3,114.1
	c-0.2,0-0.3,0.1-0.5,0.1c-0.6,0.2-1.1,0.5-1.5,0.9c-0.4,0.4-0.8,0.8-1,1.3c-0.2,0.5-0.4,0.9-0.4,1.4c0,0.4,0,0.8,0.2,1
	c0.2,0.3,0.6,0.4,1.3,0.5c0.3,0.1,0.7,0.2,1.1,0.3c0.6,0.2,1.3,0.4,1.9,0.6c1,0.3,2,0.7,2.5,0.7c0.5,0.1,0.5-0.1,0.6-0.3
	c0-0.1,0-0.1,0-0.2c0.1-0.3,0.2-0.5,0.3-0.8c0.1-0.3,0.3-0.6,0.4-1c0.1-0.4,0.3-0.9,0.3-1.4c0-0.5,0-1-0.3-1.4
	c-0.2-0.4-0.6-0.9-1.2-1.2c-0.5-0.3-1.2-0.5-1.8-0.6C334.6,113.9,333.9,114,333.3,114.1L333.3,114.1z M348.7,113.3
	c-0.2-0.1-0.6-0.2-1-0.2l-0.1,0c-1.2,0.1-2.5,0.3-3.3,0.4c-0.7,0.1-1.1,0.2-1.3,0.3c-0.1,0-0.1,0.2-0.1,0.4c0,0.3-0.1,0.7-0.1,1.2
	c0,0.5,0,1.1,0,1.7c0,0.5,0,1,0.1,1.4c0.1,0.4,0.2,0.7,0.4,0.9c0.2,0.2,0.4,0.4,0.8,0.5c0.4,0.1,0.9,0.1,1.5,0.1
	c0.7,0,1.5-0.2,2.3-0.4c0.6-0.2,1.2-0.4,1.6-0.6c0.6-0.4,0.5-0.9,0.5-1.6l0-0.3c0-0.2,0-0.4,0-0.6c-0.1-0.8-0.1-1.7-0.4-2.2
	C349.3,113.7,349.1,113.4,348.7,113.3L348.7,113.3z M370.4,141.4c-0.1,0.1-0.2,0.1-0.3,0.2l-0.1,0c-0.5,0.2-1.3,0.2-2.7,0.1
	c-0.6,0-1.3-0.1-2.2-0.1c-1.6-0.1-3.6-0.1-5.5,0c-1,0.1-2.1,0.2-3,0.4c-1.2,0.4-2.3,0.9-3.2,1.4c-0.2,0.1-0.4,0.2-0.5,0.4
	c-0.1,0.1-0.2,0.2-0.2,0.3c-0.7,0.8-1.2,1.8-1.4,3c-0.3,1.3-0.4,2.7-0.3,4.3c0,1.6,0.2,3.3,0.3,5c0.2,1.9,0.3,3.7,0.5,5.2
	c0.1,1.3,0.3,2.4,0.4,3.2c0.1,0.7,0.2,1.1,0.4,1.2c0.2,0.1,0.5,0.1,1.1,0.1l0,0c1.5-0.1,4.1-0.2,5.9,1.2c1.1,0.8,1.8,2.1,2.6,3.4
	c0.5,0.9,1.1,1.9,1.7,2.6c0.7,0.8,1.6,1.4,2.6,1.8c1,0.4,2.1,0.5,3.2,0.6c1,0,2.1-0.1,3.1-0.2c1.2-0.2,2.3-0.5,3-0.7
	c0.5-0.2,0.8-0.4,0.9-0.9c0.1-0.7,0.1-1.8,0-4c-0.1-2.5-0.3-6.3-0.5-10c-0.1-2.6-0.3-5.1-0.4-7c-0.1-2.1-0.2-3.4-0.8-4
	c-0.4-0.5-1.2-0.8-2.7-0.9c-0.7,0.1-1.6,0.1-2.8,0.1c-0.9,0-1.9,0.1-3.2,0.1c-0.8,0-1.8,0.1-2.7,0.1c-3.2,0.2-6.8,0.3-9.1,0.3
	c-1.1,0-1.8-0.1-2.2-0.2c-0.3-0.1-0.4-0.2-0.5-0.5c0-0.2,0.1-0.4,0.4-0.5c0.4-0.1,1.2-0.2,2.6-0.3c2-0.1,5.2-0.2,8.4-0.2
	c3,0,6,0.1,8,0.2c0.3,0,0.6,0,0.9,0.1c0.3,0,0.6-0.1,0.9-0.1c0.4-0.1,0.7-0.2,0.8-0.3c0.1-0.1,0.1-0.4,0.2-0.8c0-0.4,0.1-1,0.1-1.5
	c0-0.5-0.1-1-0.3-1.4c-0.2-0.4-0.6-0.7-1.1-0.9c-0.5-0.2-1.3-0.4-2.2-0.6L370.4,141.4L370.4,141.4z M367.4,140.9l0.9,0.1
	c-0.3,0-0.7-0.1-1-0.1c-0.9-0.1-1.8-0.1-2.9-0.1l0.8,0C366.1,140.8,366.9,140.9,367.4,140.9L367.4,140.9z M363.2,147.5
	c-3.1,0-6.2,0-8.2,0.2c-0.3,0-0.6,0-0.9,0.1l0.5,0C356.7,147.8,360.1,147.6,363.2,147.5L363.2,147.5z M341.5,147.8
	c-1,0.1-2.1,0.3-3.2,0.5c1.5-0.2,3-0.3,4.3-0.5l1.7-0.2C343.5,147.7,342.5,147.7,341.5,147.8L341.5,147.8z M319.6,177.3l0.2,0.2
	l0.5-1.2c0.8-1.9,1.6-3.6,1.9-4.9c0.2-0.8,0.2-1.5,0.1-1.9c-0.1-0.3-0.2-0.6-0.4-0.8c-0.2-0.1-0.4-0.2-0.6-0.2
	c-0.2,0-0.4,0.1-0.7,0.2c-0.7,0.4-1.5,1.3-2,2.5c-0.4,1-0.7,2.2-0.5,3.3C318.3,175.4,318.9,176.4,319.6,177.3L319.6,177.3z
	 M318.1,182c0.1-0.4,0.3-0.9,0.4-1.4c-0.7-1-1.5-2.2-2.2-3.8c-0.9-2.1-1.8-4.9-2.7-7.8c-1-3.5-1.9-7.4-2.6-10.8
	c-0.4-1.8-0.7-3.5-1-5c-0.7-3.6-1.2-6.4-1.9-8.1c-0.3-0.6-0.6-1.1-0.9-1.3c-0.2-0.1-0.3-0.2-0.5-0.1c-0.2,0-0.3,0.1-0.5,0.4
	c-0.4,0.5-0.7,1.3-1,2.6c-0.4,1.8-0.6,4.5-0.7,7.6c-0.1,3.7,0,7.8,0.1,11.5c0.1,3.4,0.4,6.3,0.6,8.9c0.2,2.5,0.5,4.7,0.8,6.5
	c0.3,1.8,0.5,3.1,0.8,4.3c0.3,1.1,0.6,2,0.9,2.9c0.4,0.8,0.8,1.6,1.3,2.3c0.5,0.6,1.2,1.1,2,1.4c0.9,0.3,2,0.4,3,0.2
	c0.8-0.2,1.6-0.6,2-1.4c0.6-0.9,0.7-2.3,1-4C317.4,185.3,317.6,183.7,318.1,182L318.1,182z M353.1,183.5c0.8,0.8,1.7,1.5,2.6,2.1
	c-0.4-0.4-0.7-0.9-1.1-1.3c-0.9-1-1.7-2-2.5-2.8c-0.8-0.8-1.7-1.3-2.2-1.6l-0.1,0c0.1,0.3,0.4,0.6,0.8,1.1
	C351.3,181.8,352.2,182.7,353.1,183.5L353.1,183.5z M402.8,95.7C402.9,95.8,403,95.8,402.8,95.7L402.8,95.7L402.8,95.7z
	 M402.3,128.5c0.8-0.1,1.5-0.4,2.2-0.8c1.5-0.8,2.8-2.1,3.6-3.1c0.7-0.8,1.1-1.4,1.2-1.8l0,0c-0.6,0.3-1.9,1.4-3.3,2.6
	c-0.7,0.6-1.4,1.2-2.1,1.8l-0.5,0.4C403,127.9,402.6,128.2,402.3,128.5L402.3,128.5z M396.4,153.1c-0.1,0-0.3-0.1-0.4-0.1
	c-0.8-0.2-1.4-0.8-2-1.8c-0.2-0.3-0.3-0.6-0.5-1c0.2,1.2,0.5,2.5,0.6,3.8l0.1,0.7c0.1-0.1,0.1-0.2,0.2-0.3
	C394.8,153.8,395.4,153.4,396.4,153.1L396.4,153.1z M388.2,138.9c0.4,0.6,1,1.3,1.6,2.1c-0.7-1.2-1.3-2-1.9-2.6L388.2,138.9
	L388.2,138.9z M394.4,157c0,0.5,0.1,0.9,0.1,1.4l0,0c0.1,0.3,0.4,0.3,2-0.1c0.4-0.1,0.8-0.2,1.3-0.3c2.6-0.6,6.6-1.6,10.6-1.8
	c2.2-0.1,4.3,0,6.3,0.3c2.5,0.3,4.8,0.8,6.4,1.3c0.4,0.1,0.7,0.2,1.1,0.3c-0.2-0.9-0.5-1.6-1-2.2c-0.5-0.6-1.1-1-2.1-1.4
	c-1-0.4-2.4-0.7-4.3-0.9c-1.9-0.2-4.3-0.4-6.7-0.4c-2.6-0.1-5.2-0.1-7.2,0.1c-1.9,0.1-3.3,0.3-4.3,0.6c-0.9,0.3-1.5,0.6-1.8,1.1
	C394.5,155.4,394.4,156.2,394.4,157L394.4,157z M394.6,159.3c0.1,0.9,0.1,1.9,0.2,2.8c0.1,2.7,0.2,5.4,0.2,7.9l0,0.9
	c0.1,4.5,0.1,8.3,1.1,10.2c0.5,0.9,1.2,1.4,2.3,1.6c1.3,0.2,3.1,0.2,5.6,0.2c2.6,0,5.9,0,9.1-0.2c3.2-0.1,6.2-0.4,8.2-0.8
	c1.9-0.4,2.8-1,3.1-1.9c0.4-0.9,0.2-2.3,0-4.1c-0.2-1.8-0.5-4-0.8-6.3c-0.3-2.7-0.6-5.3-0.9-7.1c-0.2-1.4-0.3-2.6-0.5-3.5
	c-0.4-0.2-0.9-0.3-1.4-0.5c-1.6-0.5-3.8-0.9-6.3-1.2c-2-0.2-4.1-0.3-6.2-0.3c-4,0.2-7.9,1.1-10.5,1.8c-0.5,0.1-1,0.2-1.3,0.3
	C395.7,159.2,395.1,159.3,394.6,159.3L394.6,159.3z M423.7,158.7c0.3,0.2,0.6,0.4,0.8,0.7c0.5,0.5,0.9,1.3,1.2,2.2l0-0.2
	c0-2.1,0.3-3.3,0.9-4.1c0.7-0.8,1.6-1.1,2.8-1.4c1.1-0.3,2.5-0.6,4.1-0.9c1.6-0.3,3.4-0.4,5.4-0.4c1.8,0,3.7,0.1,5.5,0.3
	c2.4,0.3,4.6,0.6,6.3,1c0.6,0.1,1.2,0.2,1.7,0.4l0.7,0.2c-0.1-1.3-0.2-2.5-0.5-3.8c-0.1-0.3-0.1-0.5-0.2-0.8c-0.5-0.7-1-1.2-1.8-1.7
	c-1-0.6-2.4-0.9-4.6-1.1c-2.2-0.1-5.3,0-8.3,0.3c-3.2,0.3-6.4,0.8-8.7,1.4c-2.2,0.5-3.5,1.1-4.3,2.1c-0.8,1-1.1,2.4-1.1,4.5
	C423.7,157.8,423.7,158.2,423.7,158.7L423.7,158.7z M424,159.9c-0.1-0.1-0.2-0.2-0.3-0.3c0,1.6,0.2,3.4,0.3,5.2
	c0.3,3.3,0.8,6.7,1.2,9.2c0.4,2.1,0.7,3.6,1,4.6c0.3,1.1,0.6,1.6,0.8,1.8c0-0.1,0.1-0.2,0.1-0.4c0.1-0.6,0.1-1.8,0-3.6
	c-0.1-1.9-0.4-4.6-0.7-7.2c-0.3-2.2-0.7-4.4-1-6C425.1,161.6,424.7,160.6,424,159.9L424,159.9z M453.3,151.5l0.2,0.3
	c0.2,0.3,0.4,0.6,0.5,0.9c0.1-4.2,0.6-7.8,1.4-10.4c0.6-1.9,1.3-3.2,2.2-4c0.5-0.4,1-0.7,1.6-0.8c0.6-0.1,1.1-0.1,1.7,0.1
	c1.1,0.3,2.2,1.2,3.3,2.4c1.5,1.8,3,4.4,4.3,7.4c1.4,3.2,2.6,6.9,3.5,10.4c0.8,3.3,1.3,6.4,1.4,9.2c0.1,1.9,0.1,3.7-0.1,5.3
	c1-1.7,2.4-3.6,4-5.5c1.9-2.3,4.2-4.7,6.6-7c2.2-2.1,4.6-4.2,7-5.9c2.6-1.9,5.1-3.4,7.4-4.3c2.2-0.9,4.1-1.3,5.6-1.1
	c1,0.2,1.8,0.6,2.4,1.3c-0.1-0.2-0.1-0.4-0.2-0.6c-0.4-1.1-0.9-1.8-1.7-2.3c-0.8-0.4-1.7-0.5-2.9-0.3c-0.3,0.1-0.6,0.2-0.9,0.3
	c-0.3,0.1-0.5,0.2-0.8,0.3c-0.6,0.4-1.3,0.8-2.1,1.2c-0.4,0.2-0.9,0.5-1.3,0.7c-0.4,0.2-0.8,0.5-1.3,0.8c-1.7,1-3.4,2.1-4.8,2.5
	l-0.2,0.1c-0.4,0.2-0.9,0.4-1.3,0.5c-1.9,0.7-3.6,0.8-5,0.5c-1.4-0.3-2.7-0.9-3.7-1.6c-0.9-0.6-1.6-1.3-2.2-2.2
	c-0.2-0.1-0.4-0.2-0.6-0.2c-1.1-0.5-1.9-1-2.4-2c-0.5-0.9-0.9-2.3-1.1-4.3c-0.2-1.9-0.4-4.4-0.5-6.8c-0.1-2.9-0.1-5.8-0.1-7.6
	c0-1.2,0.1-1.9,0.2-2.3c0.1-0.3,0.3-0.5,0.5-0.5c0.2,0,0.3,0.2,0.4,0.5c0.2,0.4,0.3,1.3,0.5,2.7c0.1,1.1,0.3,2.6,0.4,4.3
	c0.3,3.5,0.7,7.7,1.3,10.6c0.4,2.1,0.9,3.6,1.5,4.8c0.1,0.1,0.1,0.2,0.2,0.3c1.4,0.5,3.1,1,4.7,1.4c0.8,0.2,1.5,0.4,2.1,0.6
	c0.4,0.1,0.8,0.2,1.1,0.3c1.4,0.4,2.3,0.7,3.5,0.4c1.5-0.7,3-1.6,4.6-2.6c1.7-1,3.4-2,4.9-2.7c0.6-0.4,1.2-0.8,1.6-1.3
	c0.5-0.5,0.7-1.1,0.9-1.8c0.1-0.4,0.1-0.8,0.2-1.3L502,142c-1-0.7-1.5-1.7-1.8-2.9c-0.3-1.1-0.3-2.3-0.4-3.5c0-1.1,0-2.2,0-3
	c0.1-0.9,0.2-1.6,0.4-1.9c0.1-0.1,0.2-0.2,0.3-0.3c0.2-0.1,0.4-0.1,0.6,0c0.1,0.1,0.3,0.2,0.4,0.4c0.3,0.4,0.5,1.1,0.7,2.1
	c0.2,0.9,0.3,2.1,0.4,3.3c0.1,1.5,0.2,3.1,0.2,4.3c0,0.4,0,0.8,0,1.1c0.6,0.3,1.4,0.6,2.2,0.8c1.5,0.4,2.9,0.9,3.5,2
	c0.4,0.8,0.3,1.9,0.2,2.9c-0.1,1.2-0.2,2.2,0.5,2.4c1.2,0.4,4.5-0.9,7.6-2c1-0.4,1.9-0.7,2.7-1c0.4-0.1,0.8-0.3,1.1-0.4
	c2.2-0.7,3.6-1.2,4.4-3.5l0-1.5c0.1-3.7,0.3-7.4,0.5-10.1c0.2-2.2,0.4-3.8,0.6-4.9c0-0.6-0.1-1.1-0.1-1.7c-0.2-2.3-0.4-3.7-0.8-4.6
	c-0.3-0.8-0.7-1.2-1.2-1.5l-0.1-0.1c-0.6,0.3-1.5,0.7-2.7,1.2c-1.2,0.5-2.7,1.1-4.5,1.9c-2,0.9-4.5,2-6.8,3.1c-2.3,1.1-4.5,2.2-6,3
	l-0.9,0.5c-2.3,1.2-2.8,1.5-5.4,1.1c-1.6-0.3-4-0.8-6.6-1.4c-1.8-0.4-3.7-0.8-5.5-1.2c-2.3-0.5-4.4-0.8-6-1.1
	c-1.4-0.2-2.4-0.4-3-0.6c-1.5-0.4-1.5-0.7-0.5-1.1c0.4-0.1,1.1-0.2,2.2-0.4c1.1-0.1,2.4-0.3,3.8-0.4c1.4-0.1,2.9-0.2,4.2-0.1
	c1.3,0.1,2.5,0.3,3.6,0.6c1.1,0.3,2.1,0.7,3.1,1.2c1.4,0.7,2.7,1.4,3.8,2.1c0.6,0.3,1.1,0.6,1.4,0.8c0.6,0.3,0.9,0.4,1.1,0.4
	c0.2,0,0.4-0.1,0.7-0.3c0.2-0.1,0.4-0.4,0.7-0.6c0.7-0.6,1.6-1.5,3-2.5c1-0.7,2.3-1.5,3.7-2.3c1.3-0.7,2.7-1.5,4.1-2.1
	c1.4-0.7,2.9-1.2,4.2-1.7c1.4-0.5,2.7-0.8,3.8-1c1.1-0.2,2-0.3,2.8-0.2c0.6,0.1,1.1,0.2,1.6,0.4l0.2-0.1c0.1-0.1,0.4,0,0.3,0
	c-0.3-0.1-1.1-0.3-2.4-0.4c-2-0.2-5.1-0.4-7.9-0.6c-1.2-0.1-2.3-0.2-3.3-0.2c-1.6-0.1-2.8-0.2-3.7-0.4c-1-0.1-1.7-0.3-2.6-0.5
	c-0.3-0.1-0.5-0.1-0.7-0.2c-1.4-0.4-2.9-0.9-3.9-0.3c-0.4,0.3-0.8,0.7-1.2,1.3c-0.6,0.8-1.3,1.7-2.5,2.4c-0.7,1.3-1.5,2.2-2.4,2.8
	c-1.2,0.8-2.5,1-4.1,0.7c-1.2-0.2-2.5-0.7-3.8-1.2c-2.2-0.8-4.6-1.7-7-1.8c-2,0-4,0.5-6,1.4c-2.1,1-4.1,2.3-6.3,4
	c-1.9,1.5-3.9,3.3-5.7,5c-2.2,2.1-4.2,4.2-5.7,5.9c-0.9,1-1.6,1.9-2.2,2.6c-1.3,1.7-2.1,2.7-3,2.9c-0.8,0.2-1.6-0.2-2.8-0.8
	l-0.7-0.3c1,0.9,1.9,1.8,2.7,2.8c1,1.3,1.8,2.8,2.4,4.3C452.5,148.6,453,150.1,453.3,151.5L453.3,151.5z M454.7,153.9
	c0.1,0.2,0.2,0.4,0.3,0.7c0.4,0.8,0.6,1.6,0.5,2c-0.1,0.5-0.3,0.7-0.8,0.7c0.1,3.9,0.4,8,0.9,11.9c0.6,4.9,1.6,9.6,2.8,13.5
	c1.2,4,2.6,7.3,4,9.5c1.4,2,2.8,3,4.2,3.3c1.4,0.3,3-0.1,4.5-0.8c1-0.4,2.1-1,3.1-1.7c-0.4-0.1-0.8-0.4-1.2-0.8
	c-0.9-0.8-2-2.2-2.8-3.8c-0.6-1.3-1.1-2.6-1.1-4c0-1.4,0.4-2.8,1-4.3c0.1-0.8,0.2-1.5,0.5-2.3c0.3-1.2,0.9-2.5,1.6-3.9
	c0.4-2,0.5-4.4,0.4-7c-0.2-2.8-0.6-5.9-1.4-9.1c-0.8-3.4-2-7.1-3.4-10.3c-1.3-2.9-2.7-5.5-4.2-7.2c-1-1.2-2-1.9-3-2.2
	c-0.5-0.1-0.9-0.2-1.4-0.1c-0.4,0.1-0.8,0.3-1.2,0.6c-0.8,0.7-1.5,1.9-2,3.7C455.2,145.2,454.8,149.3,454.7,153.9L454.7,153.9z
	 M454,154.1c-0.1-0.2-0.2-0.4-0.3-0.6c0.1,1,0.2,1.9,0.3,2.9C454,155.6,454,154.8,454,154.1L454,154.1z M454.8,156.5
	c0-0.2,0-0.4-0.1-0.7L454.8,156.5C454.7,156.6,454.8,156.6,454.8,156.5L454.8,156.5z M453.3,157.2c-0.3-0.1-0.6-0.1-0.9-0.2
	c-0.5-0.1-1-0.2-1.6-0.3c-1.7-0.3-3.9-0.7-6.3-1c-1.8-0.2-3.7-0.3-5.5-0.3c-2,0-3.8,0.2-5.3,0.4c-1.6,0.3-2.9,0.6-4,0.9
	c-1.1,0.3-1.9,0.5-2.4,1.1c-0.5,0.6-0.8,1.7-0.8,3.6c0,1.7,0.3,4,0.7,6.4c0.5,3.3,1.2,6.8,1.8,9.3c0.5,2.1,0.8,3.3,1.3,4
	c0.4,0.7,1.1,1,2.1,1.2c1.2,0.2,2.8,0.3,4.6,0.3c1.8,0,3.8,0,5.6-0.1c1.8,0,3.4-0.1,4.8-0.1c1.4-0.1,2.6-0.1,3.7-0.2
	c1-0.1,1.8-0.2,2.3-0.5c0.5-0.2,0.9-0.5,1.1-1c0.4-1,0.2-2.7,0-5.6l-0.1-0.8c-0.2-2-0.4-4.4-0.6-6.7c-0.1-1.9-0.3-3.8-0.3-5.5
	c0-0.9-0.1-1.7-0.1-2.5C453.3,158.7,453.3,157.9,453.3,157.2L453.3,157.2z M441.2,137l-0.8-0.5c-1.8-1.1-3.9-2.3-5.7-3.3
	c-1.8-1-3.4-1.7-4.3-1.9c-0.4-0.1-0.6-0.1-0.7,0c0,0,0,0,0,0c0,0.1,0,0.2,0.1,0.3c0.3,0.5,1.2,1.3,2.6,2c1.9,1,4.7,1.9,7.4,2.8
	L441.2,137L441.2,137z M495.9,118.3c0.1-0.3,0.3-0.5,0.4-0.8c0.8-1.8,1.6-4.3,2.1-6.9c0.5-2.5,0.8-5.1,0.8-7.5
	c0-2.4-0.3-4.5-0.8-6.4c-0.4-1.9-1-3.4-1.5-4.7c-0.5-1.3-0.9-2.3-1.4-2.9c-0.3-0.5-0.8-0.8-1.3-1c-0.6,0.4-1.4,0.7-2.3,1
	c-1.5,0.5-3.3,0.8-5.4,1.1c-1.5,0.2-3.1,0.3-4.7,0.4c-1.8,0.6-3.4,1.2-5,1.4c-0.2,0-0.3,0-0.5,0.1c0.1,0,0.1,0.1,0.2,0.2l0,0
	c0.1,0.2,0,0.4-0.1,0.7c-0.1,0.4-0.3,1-0.4,1.8c-0.1,0.7-0.3,1.6-0.4,2.6c-0.1,1.3-0.2,2.6-0.3,3.6l0,0.7c-0.1,1-0.1,1.5-0.3,1.7
	c-0.2,0.2-0.4,0.2-0.5,0c0,0.4,0,0.9,0.1,1.3l0,0.1c0.1,0.2,0.2,0.3,0.2,0.5c0.5,1,0.7,1.9,0.6,2.6c0,0.4-0.1,0.8-0.3,1.2
	c0.3,1.1,0.7,2.1,1.3,3.1c0.7,1.2,1.7,2.5,3,3.6c1.1,0.9,2.5,1.8,4.1,2.4c1.8,0.7,4,1.1,6,1.3c2,0.1,3.9,0,5.3-0.5
	C495.3,118.6,495.6,118.4,495.9,118.3L495.9,118.3z M493.8,87.1c0.2,0,0.3,0.1,0.4,0.1c0.3-0.2,0.5-0.3,0.7-0.5
	c0.7-0.6,1.1-1.3,1.3-2c0.3-0.8,0.3-1.8,0.1-2.7c-0.2-0.8-0.7-1.6-1.6-2.5c-1-0.9-2.4-1.8-4-2.6c-1.6-0.7-3.3-1.2-5-1.5
	c-1.7-0.2-3.3-0.2-5,0.2c-1.6,0.3-3.3,0.9-5,1.6c-1.8,0.8-3.7,1.7-5.3,2.7c-1.4,0.9-2.6,1.8-3.4,2.8c-0.7,0.9-1.1,1.8-1.2,2.6
	c-0.1,1,0.1,1.9,0.5,2.6c0.4,0.7,0.9,1.2,1.5,1.6c0.2,0.1,0.4,0.3,0.7,0.4c0.2,0,0.3-0.1,0.6-0.1c1-0.1,2.6-0.1,4.6,0
	c1.8,0,3.9,0.1,6,0c0.7,0,1.3,0,2-0.1l0.8-0.3c0.9-0.3,1.7-0.6,2.7-0.9c1.7-0.6,3.5-1,5.1-1.3C491.6,87,492.8,86.9,493.8,87.1
	L493.8,87.1z M493.2,87.7c-0.8,0-1.8,0-2.8,0.2c-1.6,0.3-3.3,0.8-5,1.3l-0.9,0.3c0.7-0.1,1.3-0.1,2-0.2c2-0.3,3.8-0.6,5.2-1.1
	C492.3,88.1,492.8,87.9,493.2,87.7L493.2,87.7z M476.8,91.2c0.8-0.1,1.6-0.3,2.5-0.6c-2,0-3.9,0-5.6,0c-1.5,0-2.7-0.1-3.7,0l0.2,0.1
	c0.9,0.3,1.9,0.5,3,0.7C474.4,91.4,475.6,91.4,476.8,91.2L476.8,91.2z M476.1,92c-1,0.1-2,0.1-2.9,0c-1.2-0.1-2.2-0.4-3.2-0.7
	c-0.5-0.2-1-0.4-1.5-0.6c-0.5,0.1-0.6,0.4-0.6,0.8c0,0.3,0.1,0.6,0.2,1l0.1,0.4c0.4,1.5,1,3.8,2.2,5.8c0.2,0.4,0.4,0.7,0.7,1.1
	c0.3,0,0.6,0.1,0.9,0.2c0.3,0.1,0.6,0.2,0.8,0.4c0.4,0.2,0.7,0.4,0.9,0.7c0-0.5,0-1,0-1.6c0.1-1.5,0.2-2.9,0.4-4
	c0.2-0.9,0.4-1.6,0.7-2.1C475.4,92.5,475.9,92.1,476.1,92L476.1,92L476.1,92z M471.8,100.7c0.3,0.4,0.6,0.8,0.8,1.1
	c0.4,0.5,0.8,1.1,1.2,1.6c0-0.4,0-0.8,0-1.2c-0.3-0.4-0.7-0.8-1.3-1.1C472.3,100.9,472.1,100.8,471.8,100.7L471.8,100.7L471.8,100.7
	z M472.1,102.3c-0.4-0.6-0.9-1.2-1.3-1.8c-0.2,0-0.3,0-0.5,0c-0.4,0.1-0.8,0.3-1,0.6c0,0.1-0.1,0.2-0.1,0.2
	c-0.2,0.7-0.1,1.8,0.2,2.9c0.3,1.3,0.9,2.6,1.6,3.5l0.1,0.2c0.6,0.7,1.2,1.1,1.7,1.3c0.5,0.1,0.9,0.1,1.3-0.2l0,0
	c0.1-0.1,0.2-0.2,0.3-0.4l0-0.1c-0.3-1.2-0.4-2.4-0.5-3.8C473.4,104,472.7,103.2,472.1,102.3L472.1,102.3z M474.5,102l0.1,0.2
	c0-0.2,0-0.4,0-0.7l0-0.7c0.1-1,0.2-2.3,0.3-3.7c0.1-1,0.2-1.9,0.4-2.6c0-0.2,0.1-0.4,0.1-0.5c-0.2,0.4-0.4,1-0.5,1.7
	c-0.2,1.1-0.4,2.4-0.4,3.9C474.5,100.4,474.5,101.2,474.5,102L474.5,102z M521.2,119.2c0.8-0.3,1.5-0.6,2-0.9
	c-0.2-0.1-0.5-0.1-0.7-0.1c-0.7-0.1-1.6,0-2.6,0.2c-1.1,0.2-2.3,0.5-3.7,1c-1.3,0.5-2.7,1-4.2,1.7c-1.4,0.6-2.8,1.4-4.1,2.1
	c-1.4,0.8-2.6,1.6-3.6,2.3c-1.4,1-2.3,1.8-3,2.4c-0.3,0.2-0.5,0.5-0.7,0.6c-0.3,0.2-0.5,0.4-0.7,0.4c0.9-0.1,1.6-0.4,2.9-1.2
	l0.9-0.5c1.5-0.8,3.7-1.9,6.1-3c2.3-1.1,4.7-2.2,6.8-3.1C518.5,120.4,520,119.8,521.2,119.2L521.2,119.2z M498,128.8
	c0.5,0.1,0.8,0.1,1.2,0.1c-0.3-0.1-0.6-0.2-1.1-0.5c-0.4-0.2-0.9-0.5-1.5-0.8c-1.1-0.6-2.5-1.4-3.8-2c-1-0.5-1.9-0.9-3-1.2
	c-1-0.3-2.1-0.5-3.4-0.5c-1.3-0.1-2.7,0-4.1,0.1c-1.4,0.1-2.7,0.3-3.8,0.4c-0.4,0.1-0.8,0.1-1.2,0.2c0.6,0.1,1.4,0.3,2.5,0.4
	c1.6,0.3,3.7,0.6,6,1.1c1.8,0.4,3.7,0.8,5.5,1.2C494,128,496.4,128.6,498,128.8L498,128.8z M527.1,126.6c0.1,2.3,0.1,5.1,0,7.8
	c-0.1,2.8-0.4,5.5-0.8,7.4c-0.1,0.5-0.2,0.9-0.3,1.3c-0.1,2.8-0.1,5.6,0,8c0,2.5,0.2,4.7,0.4,6.5c1,0.8,1.9,1.6,2.6,2.3
	c0.8,0.9,1.3,1.7,1.6,2.5c0.3,0.9,0.2,1.7-0.1,2.2c-0.2,0.3-0.4,0.5-0.7,0.7c-0.2,0.1-0.5,0.2-0.7,0.1c-0.3,0-0.5-0.1-0.8-0.2
	c-0.4-0.3-0.9-0.8-1.3-1.5c-0.5-1-0.9-2.6-1.2-4.7c0-0.3-0.1-0.6-0.1-0.9c-1.2-0.9-2.6-1.9-3.9-2.8l-0.8-0.5c-2.2-1.5-4-2.8-5.7-3.4
	c-0.9-0.3-1.7-0.4-2.5-0.4c-0.7,0-1.4,0.3-1.9,0.7c-0.5,0.4-0.8,0.9-0.7,1.9c0.1,1.1,0.8,2.7,2.3,5.2c1.4,2.3,3.7,5.3,6,8.3
	c2.7,3.5,5.6,6.9,7.6,9c1.8,1.9,2.8,2.8,3.4,2.9c0.4,0.1,0.6-0.4,0.8-1.3c0.2-1,0.5-2.5,0.7-4.1c0.3-1.7,0.5-3.5,0.9-5.1
	c0.3-1.6,0.8-2.9,1.3-4c0.5-1.1,1.1-2.1,1.9-2.7c0.5-0.5,1.1-0.8,1.6-1c0.4-0.1,0.8-0.2,1.2-0.1c0.3,0.1,0.6,0.2,0.9,0.5
	c-0.8-4-2.1-8.6-3.3-12.8c-0.5-1.9-1.1-3.7-1.5-5.4c-1-3.8-1.7-7-2.3-9.7c-0.5-2.4-0.9-4.3-1.4-5.7c-0.3-1-0.7-1.8-1-2.4
	c-0.3-0.4-0.5-0.7-0.8-0.9c-0.2-0.1-0.3-0.2-0.5-0.1c0,0-0.1,0-0.1,0c-0.3,0.2-0.6,0.7-0.8,1.8C527.1,126.3,527.1,126.4,527.1,126.6
	L527.1,126.6z M526.3,134.4c0-0.5,0-1.1,0-1.6c-0.1,1.6-0.2,3.4-0.3,5.3C526.2,137,526.3,135.7,526.3,134.4L526.3,134.4z
	 M525.2,144.7c-0.9,1.4-2.2,1.8-4.2,2.4c-0.3,0.1-0.7,0.2-1.1,0.4c-0.8,0.3-1.7,0.6-2.6,1c-3.1,1.2-6.5,2.5-8,2
	c-1.3-0.4-1.2-1.7-1-3.2c0.1-0.9,0.2-1.9-0.2-2.5c-0.4-0.8-1.7-1.2-3.1-1.6c-0.7-0.2-1.4-0.4-2.1-0.7c0,0.4-0.1,0.7-0.2,1
	c-0.2,0.8-0.5,1.5-1.1,2.1l-0.2,0.2c1.3-0.3,2.5-0.1,3.4,0.4c0.9,0.5,1.6,1.4,2,2.6c0.1,0.3,0.2,0.6,0.3,1c0.1,0.4,0.1,0.8,0.2,1.2
	l0.1,0.1c0.8,1.4,1.2,3.1,1.8,5l0.1,0.4c1,3.5,2,7.5,5.3,11.9c1.7,2.2,4,4.6,6.4,6.7c2.4,2.1,5,3.9,7,4.9c0.4,0.2,0.9,0.4,1.3,0.6
	c0.4,0,0.7,0,1.1,0c1.5,0,2.9-0.2,4.2-0.5c0.5-0.4,1-0.8,1.4-1.4c1-1.2,2-2.8,2.7-4.9c0.2-0.7,0.4-1.4,0.6-2.2c0-0.8,0-1.6,0-2.5
	c0-2.4,0.1-4.8-0.3-6.2c-0.1-0.4-0.3-0.7-0.5-0.9c-0.2-0.2-0.4-0.3-0.7-0.4c-0.3-0.1-0.5,0-0.8,0.1c-0.5,0.1-0.9,0.4-1.3,0.8
	c-0.7,0.6-1.2,1.4-1.7,2.5c-0.5,1.1-0.9,2.4-1.2,3.9c-0.3,1.5-0.6,3.3-0.9,5c-0.2,1.6-0.5,3.1-0.7,4.1c-0.3,1.3-0.7,2-1.7,1.9
	c-0.8-0.1-1.9-1.1-3.8-3.1c-2-2.2-4.9-5.6-7.6-9.1c-2.4-3-4.6-6.1-6.1-8.4c-1.6-2.6-2.3-4.3-2.4-5.5c-0.2-1.3,0.3-2.1,1-2.6
	c0.6-0.5,1.4-0.7,2.3-0.8c0.9-0.1,1.8,0.1,2.8,0.4c1.8,0.6,3.6,1.9,5.9,3.5l0.8,0.5c1.1,0.7,2.3,1.6,3.4,2.4
	c-0.2-1.7-0.3-3.7-0.3-5.9C525.1,149.2,525.1,147,525.2,144.7L525.2,144.7z M500.9,138.9c0.2,0.9,0.6,1.7,1.3,2.3l0-0.7
	c0-1.3,0-2.8-0.2-4.3c-0.1-1.2-0.2-2.4-0.4-3.3c-0.2-0.9-0.4-1.5-0.6-1.9c0-0.1-0.1-0.1-0.1-0.2c-0.1,0.2-0.2,0.8-0.3,1.6
	c-0.1,0.8-0.1,1.9,0,3C500.6,136.7,500.7,137.9,500.9,138.9L500.9,138.9z M488.2,152.5c-0.6-0.1-1.1-0.3-1.8-0.5
	c-0.3-0.1-0.7-0.2-1.1-0.3c-0.7-0.2-1.4-0.4-2.1-0.6c-1.2-0.3-2.6-0.7-3.8-1c0.4,0.4,0.8,0.8,1.3,1.2c0.9,0.7,2.1,1.3,3.4,1.5
	C485.3,152.9,486.6,152.9,488.2,152.5L488.2,152.5z M475.7,147c0.4,0.7,1,1.2,1.8,1.6c-0.6-1.1-1-2.6-1.4-4.5c-0.6-3-1-7.2-1.3-10.7
	c-0.2-1.6-0.3-3.1-0.4-4.3c-0.1-0.6-0.1-1-0.2-1.4c0,0.3,0,0.6,0,0.9c-0.1,1.8,0,4.7,0.1,7.5c0.1,2.4,0.2,4.9,0.5,6.8
	C474.9,144.9,475.2,146.1,475.7,147L475.7,147z M506,156.3c0.6-1.8,0.8-3.6,0.6-5.1c-0.7-1.1-1.5-1.9-2.8-2.1
	c-1.3-0.2-3.2,0.2-5.2,1c-2.2,0.9-4.7,2.4-7.3,4.3c-2.4,1.7-4.7,3.7-6.9,5.8c-2.4,2.3-4.7,4.7-6.6,7c-1.8,2.1-3.2,4.1-4.2,5.9
	c-0.2,0.4-0.4,0.8-0.6,1.1l-0.1,0.5c-0.4,2-1.1,3.6-1.7,5l-0.3,0.6c-0.1,0.7-0.1,1.3,0,1.9c0.1,1.3,0.5,2.5,1,3.6
	c0.6,1.2,1.4,2.4,2.2,3.4c0.6,0.8,1.1,1.6,1.4,2.2c0.1,0.2,0.1,0.4,0.2,0.5c0.2-0.2,0.5-0.4,0.7-0.6c1.4-1.3,2.7-2.8,3.8-4.7
	c0.8-1.4,1.4-3,2.1-4.6c1.3-3.2,2.7-6.6,5.4-9.4c2.1-2.2,5-4,7.8-5.7c2.6-1.6,5.2-3.2,7.1-5.1C504.3,160.2,505.4,158.2,506,156.3
	L506,156.3z M470.3,182.5c-0.2,0.7-0.3,1.4-0.3,2.1c0,1.2,0.4,2.5,1,3.7c0.7,1.5,1.8,2.8,2.6,3.5c0.5,0.5,0.9,0.7,1.2,0.7
	c0.1,0,0.1,0,0.2,0c0,0,0,0,0-0.1c0-0.1,0-0.3-0.1-0.6c-0.2-0.5-0.7-1.2-1.3-2c-0.7-1-1.6-2.2-2.2-3.5
	C470.8,185.1,470.4,183.8,470.3,182.5L470.3,182.5z M536.5,179.1c-0.1,0.1-0.3,0.3-0.4,0.4c1.2-0.4,2.2-1,2.8-1.5
	c0.9-0.8,0.8-1.7,0.6-3.1c0-0.3-0.1-0.6-0.1-0.9l0,0C538.7,176.2,537.6,177.9,536.5,179.1L536.5,179.1z M526.4,158.7l0,0.2
	c0.3,2,0.6,3.6,1.1,4.5c0.3,0.6,0.7,1,1,1.2c0.2,0.1,0.3,0.1,0.5,0.1c0.1,0,0.3,0,0.4-0.1c0.2-0.1,0.3-0.2,0.4-0.4
	c0.2-0.4,0.2-0.9,0-1.6c-0.2-0.7-0.7-1.4-1.4-2.2C527.8,160,527.1,159.4,526.4,158.7z"/>
</svg>
