<?xml version="1.0" encoding="utf-8"?>
<!-- Generator: Adobe Illustrator 26.0.3, SVG Export Plug-In . SVG Version: 6.00 Build 0)  -->
<svg version="1.1" id="Layer_1" xmlns="http://www.w3.org/2000/svg" xmlns:xlink="http://www.w3.org/1999/xlink" x="0px" y="0px"
	 viewBox="0 0 2810.6 2772.4" style="enable-background:new 0 0 2810.6 2772.4;" xml:space="preserve">
<style type="text/css">
	.st0{fill:url(#SVGID_1_);}
	.st1{fill:#91B3FA;}
	.st2{fill:#BDD0FB;}
	.st3{fill:url(#SVGID_00000102540109215603503710000013683778586289157042_);}
	.st4{fill:url(#SVGID_00000120531613256706725940000015099718687494085031_);}
	.st5{fill:url(#SVGID_00000010298959088328768080000001332459311915190430_);}
	.st6{fill:url(#SVGID_00000016786676183512377020000009694228964864137099_);}
	.st7{fill:url(#SVGID_00000134932748395373597690000003780721488792290432_);}
	.st8{fill:url(#SVGID_00000029756403031530255170000011653627240967423649_);}
	.st9{fill:url(#SVGID_00000139252251573785113490000014146209243421071290_);}
	.st10{fill:url(#SVGID_00000168098292123884938520000005956612727483739816_);}
	.st11{fill:url(#SVGID_00000070113976604432591020000008912107467142792069_);}
	.st12{fill:url(#SVGID_00000141418628409441804300000001135374165534518439_);}
	.st13{fill:url(#SVGID_00000054986721293633906490000016378922639596714150_);}
	.st14{fill:url(#SVGID_00000128485965752959308720000008429061750184205752_);}
	.st15{fill:url(#SVGID_00000044884828291808173560000015026927374940471957_);}
	.st16{fill:url(#SVGID_00000147910428750492902270000005355905497786686621_);}
	.st17{fill:url(#SVGID_00000088823272618438753690000006617273698411653779_);}
	.st18{fill:url(#SVGID_00000134230460901953733930000012135720870142186895_);}
	.st19{fill:url(#SVGID_00000021839367919758522750000004154400896482730681_);}
	.st20{fill:url(#SVGID_00000072262256020012281760000013052657633746495892_);}
	.st21{fill:url(#SVGID_00000083087154902747340170000002451625139715586999_);}
	.st22{fill:url(#SVGID_00000158748027766277387690000016243115645527565230_);}
	.st23{fill:#EE6C4D;}
	.st24{fill:#FFFFFF;}
</style>
<linearGradient id="SVGID_1_" gradientUnits="userSpaceOnUse" x1="3039.5876" y1="-33.9327" x2="980.6976" y2="1767.5875" gradientTransform="matrix(1 0 0 -1 0 2772)">
	<stop  offset="0" style="stop-color:#DAE3FE"/>
	<stop  offset="1" style="stop-color:#E9EFFD"/>
</linearGradient>
<path class="st0" d="M2689.7,1870.3c-266.1,626.5-974.9,977.5-1589.6,882.8c-100-15.4-374.2-61.3-617-277.8
	C15.8,2058.6-84.2,1233.3,292.8,651.7C567.2,228.4,1059.1-11.6,1526.4,0.4C1627.1,3,2012.9,19,2352,298.5
	c49.8,41.1,159.6,138.6,258.6,293.5C2843.1,955.5,2863.1,1462,2689.7,1870.3z"/>
<path class="st1" d="M1033.5,913.6c-1.9-0.1-3.6-1.2-4.6-2.9c-3.7-6.5-7.6-13.1-11.6-19.4c-1.8-2.6-1.1-6.2,1.5-8s6.2-1.1,8,1.5
	c0.1,0.1,0.2,0.2,0.2,0.4c4.1,6.5,8.1,13.2,11.9,19.9c1.6,2.7,0.6,6.2-2.1,7.8C1035.7,913.4,1034.6,913.7,1033.5,913.6z"/>
<path class="st1" d="M578.6,1632.1c-8.7-0.5-17.5-1.5-26.2-2.7c-3.1-0.4-5.4-3.3-5-6.4c0.4-3.1,3.3-5.4,6.4-5
	c8.4,1.1,17.2,1.9,25.6,2.6c6.2,0.5,12.6,0.8,18.9,1c3.1,0,5.5,2.5,5.5,5.6c0,0.1,0,0.2,0,0.4c-0.1,3.2-2.7,5.6-5.9,5.5c0,0,0,0,0,0
	C591.5,1632.9,585,1632.6,578.6,1632.1z M671,1630c-3.2-0.2-5.5-3-5.3-6.2c0.2-2.7,2.3-4.9,5-5.2c14.3-1.7,28.7-4.1,42.8-7.1
	l1.2-0.3c3.1-0.8,6.2,1.1,7,4.1c0.8,3.1-1.1,6.2-4.1,7c-0.2,0-0.3,0.1-0.5,0.1l-1.2,0.3c-14.5,3.1-29.2,5.5-43.8,7.3
	C671.7,1630,671.4,1630,671,1630z M785.9,1601.8c-3.2-0.2-5.5-3-5.3-6.1c0.2-2.2,1.6-4.2,3.7-5c13.9-5.3,27.7-11.3,40.9-17.8
	c2.9-1.2,6.3,0.2,7.5,3.2c1.1,2.6,0,5.7-2.5,7.1c-13.6,6.7-27.7,12.8-41.9,18.2C787.5,1601.7,786.7,1601.8,785.9,1601.8
	L785.9,1601.8z M890.4,1546.5c-3.2-0.2-5.5-3-5.3-6.1c0.1-1.7,1-3.3,2.4-4.3c12.1-8.5,24-17.7,35.3-27.3c2.5-1.9,6.1-1.5,8,1
	c1.8,2.4,1.6,5.7-0.6,7.7c-11.6,9.8-23.7,19.2-36.2,27.9C893,1546.2,891.7,1546.6,890.4,1546.5L890.4,1546.5z M978.2,1467.3
	c-3.2-0.2-5.5-3-5.3-6.1c0.1-1.2,0.6-2.4,1.4-3.3c9.7-11.2,19-23,27.6-35.1c1.8-2.6,5.3-3.3,8-1.6s3.3,5.3,1.6,8
	c-0.1,0.1-0.1,0.2-0.2,0.3c-8.8,12.4-18.3,24.4-28.3,35.9C981.8,1466.7,980,1467.4,978.2,1467.3L978.2,1467.3z M1044.2,1369.1
	c-0.8-0.1-1.5-0.3-2.2-0.6c-2.8-1.4-3.9-4.9-2.5-7.7c0,0,0,0,0,0c6.7-13.2,12.9-26.9,18.3-40.7c1.3-2.9,4.7-4.2,7.6-2.9
	c2.7,1.2,4.1,4.3,3.1,7.2c-5.6,14.1-11.9,28.1-18.7,41.7C1048.7,1368,1046.5,1369.2,1044.2,1369.1L1044.2,1369.1z M1084.4,1257.8
	c-0.3,0-0.6-0.1-0.8-0.1c-3.1-0.7-5-3.8-4.3-6.8c3.3-14.5,5.9-29.3,7.8-44c0.4-3.1,3.2-5.3,6.3-5c0,0,0.1,0,0.1,0
	c3.1,0.4,5.3,3.3,4.9,6.4c0,0,0,0,0,0c-1.9,15-4.6,30.2-8,45C1089.8,1256.1,1087.2,1258,1084.4,1257.8L1084.4,1257.8z M1096.1,1140
	c-2.9-0.2-5.2-2.6-5.3-5.6c-0.4-14.8-1.4-29.8-3.2-44.5c-0.3-3.2,2.1-5.9,5.2-6.2c3-0.2,5.7,1.9,6.1,4.8c1.8,15.1,2.9,30.4,3.3,45.6
	c0.1,3.2-2.4,5.8-5.6,5.9L1096.1,1140z M1078.7,1023c-2.4-0.2-4.4-1.9-5.1-4.2c-4-14.3-8.6-28.6-13.9-42.4c-1.2-2.9,0.1-6.3,3-7.5
	c2.9-1.2,6.3,0.1,7.5,3c0.1,0.1,0.1,0.3,0.2,0.4c5.4,14.1,10.1,28.8,14.2,43.4c0.8,3-0.9,6.2-4,7
	C1080,1022.9,1079.3,1023,1078.7,1023L1078.7,1023z"/>
<path class="st1" d="M480.6,1614.5c-0.4,0-0.8-0.1-1.2-0.2c-7.4-2.1-14.8-4.5-22.1-7c-3-1.1-4.4-4.5-3.3-7.4c1.1-2.8,4.1-4.3,7-3.4
	c7.1,2.4,14.4,4.7,21.6,6.8c3,0.9,4.8,4.1,3.9,7.1C485.7,1612.9,483.3,1614.6,480.6,1614.5L480.6,1614.5z"/>
<path class="st1" d="M186.6,1373.6c-2-0.1-3.7-1.3-4.7-3.1c-3.5-6.8-6.9-13.8-10.2-20.8c-1.3-2.9,0-6.3,2.9-7.6
	c2.8-1.3,6.2,0,7.5,2.8c3.2,6.9,6.5,13.7,9.9,20.3c1.5,2.8,0.4,6.3-2.5,7.7C188.7,1373.4,187.7,1373.7,186.6,1373.6L186.6,1373.6z"
	/>
<path class="st1" d="M151.4,1285.3c-2.4-0.2-4.4-1.8-5.1-4.1c-3.2-11.3-6.1-22.8-8.6-34.3c-0.7-3.2-1.3-6.3-1.9-9.5
	c-0.6-3.1,1.4-6.1,4.5-6.7c3.1-0.6,6.1,1.4,6.7,4.5c0.6,3.1,1.2,6.2,1.9,9.2c2.4,11.2,5.2,22.5,8.4,33.5c0.9,3-0.9,6.2-3.9,7.1
	C152.8,1285.3,152.1,1285.4,151.4,1285.3z M132.8,1170.4c-2.9-0.2-5.2-2.6-5.3-5.5c-0.6-14.9-0.5-30.1,0.3-45c0.2-3.2,2.8-5.6,6-5.4
	c3.1,0.2,5.5,2.9,5.4,6c-0.8,14.6-0.9,29.3-0.2,43.9c0.1,3.2-2.3,5.9-5.5,6c0,0,0,0,0,0C133.2,1170.5,133,1170.5,132.8,1170.4
	L132.8,1170.4z M142.2,1054.4c-0.2,0-0.5-0.1-0.7-0.1c-3.1-0.6-5.1-3.7-4.4-6.8c3-14.6,6.8-29.3,11.1-43.6c0.9-3,4.1-4.8,7.2-3.8
	c3,0.9,4.8,4.1,3.8,7.2l0,0c-4.3,14-7.9,28.3-10.9,42.6C147.7,1052.7,145.1,1054.6,142.2,1054.4L142.2,1054.4z M179.4,944.1
	c-0.7,0-1.4-0.2-2.1-0.5c-2.8-1.4-4.1-4.8-2.7-7.6c6.4-13.5,13.6-26.8,21.2-39.6c1.6-2.7,5.1-3.6,7.8-2c2.7,1.6,3.6,5.1,2,7.8
	c-7.5,12.5-14.4,25.5-20.7,38.7C183.9,943,181.7,944.3,179.4,944.1L179.4,944.1z M241.8,845.9c-3.2-0.3-5.5-3-5.3-6.2
	c0.1-1.2,0.5-2.3,1.3-3.2c9.4-11.5,19.6-22.8,30-33.4c2.3-2.2,5.9-2.1,8.1,0.2c2.1,2.2,2.1,5.6,0,7.9
	c-10.2,10.4-20.1,21.4-29.4,32.6C245.4,845.2,243.6,846,241.8,845.9L241.8,845.9z M325.9,765.4c-3.2-0.2-5.5-3-5.3-6.1
	c0.1-1.7,1-3.2,2.3-4.2c11.9-8.9,24.5-17.4,37.2-25.2c2.7-1.7,6.2-0.8,7.9,1.9s0.8,6.2-1.9,7.9l0,0c-12.5,7.6-24.7,15.9-36.3,24.6
	C328.6,765.1,327.2,765.5,325.9,765.4L325.9,765.4z M426.9,707.5c-3.2-0.2-5.5-3-5.3-6.1c0.2-2.2,1.5-4,3.5-4.9
	c13.8-5.8,28-11,42.2-15.5c3.1-0.8,6.2,1,7,4c0.8,2.9-0.8,5.9-3.6,6.9c-13.9,4.4-27.8,9.5-41.2,15.2
	C428.7,707.5,427.7,707.6,426.9,707.5L426.9,707.5z M538.8,675.6c-3.2-0.2-5.5-3-5.3-6.1c0.2-2.7,2.2-4.9,4.8-5.3
	c14.8-2.4,29.8-4.1,44.7-5c3.2-0.2,5.9,2.2,6.1,5.3c0.2,3.2-2.2,5.9-5.3,6.1c-14.5,1-29.2,2.6-43.6,4.9
	C539.7,675.6,539.2,675.6,538.8,675.6L538.8,675.6z M699.1,677l-0.6-0.1c-14.4-2.6-29-4.5-43.5-5.7c-3.2-0.3-5.5-3-5.2-6.2
	s3-5.5,6.2-5.2h0.1c14.9,1.3,29.9,3.2,44.6,5.9c3.1,0.6,5.2,3.6,4.6,6.7C704.6,675.2,702,677.2,699.1,677z"/>
<path class="st1" d="M790.8,703c-0.6,0-1.1-0.2-1.7-0.4c-7-2.8-14.1-5.4-21.2-7.8c-3-1-4.6-4.3-3.6-7.3s4.3-4.6,7.3-3.6
	c7.3,2.5,14.6,5.2,21.7,8c2.9,1.2,4.3,4.5,3.1,7.5C795.5,701.7,793.2,703.2,790.8,703L790.8,703z"/>
<path class="st1" d="M792.6,821.1c-2-1.4-4.7-1.4-6.7,0.1L729,862.7c-31-12.3-63.7-19.5-97-21.3L597.7,780c-1.2-2.2-3.6-3.3-6.1-2.9
	L508.5,792c-2.4,0.4-4.3,2.4-4.7,4.8L493,866.3c-30.6,13.2-58.8,31.3-83.6,53.7l-67.7-19.2c-2.4-0.7-4.9,0.2-6.3,2.3l-48.2,69.3
	c-1.4,2-1.4,4.7,0.1,6.7l41.5,56.9c-12.3,31-19.5,63.7-21.3,97l-61.4,34.3c-2.2,1.2-3.3,3.6-2.9,6.1l14.9,83.1
	c0.4,2.4,2.4,4.3,4.8,4.7l69.5,10.8c13.2,30.6,31.4,58.9,53.7,83.6l-19.2,67.7c-0.7,2.4,0.2,4.9,2.3,6.3l69.3,48.2
	c2,1.4,4.7,1.4,6.7-0.1l56.9-41.5c31,12.3,63.7,19.5,97,21.3l34.3,61.4c1.2,2.2,3.6,3.3,6.1,2.9l83.1-14.9c2.4-0.4,4.3-2.4,4.7-4.8
	l10.8-69.5c30.6-13.2,58.8-31.3,83.6-53.6l67.7,19.2c2.4,0.7,4.9-0.2,6.3-2.3l48.2-69.3c1.4-2,1.4-4.7-0.1-6.7l-41.5-56.8
	c12.3-31,19.5-63.7,21.3-97l61.4-34.3c2.2-1.2,3.3-3.6,2.9-6.1l-14.9-83.1c-0.4-2.4-2.4-4.3-4.8-4.7l-69.5-10.9
	c-13.2-30.6-31.3-58.8-53.6-83.6l19.2-67.7c0.7-2.4-0.2-4.9-2.3-6.3L792.6,821.1z"/>
<path class="st2" d="M609.3,1232.8c-8-0.6-15.9-2.4-23.4-5.2c-42.8-16.3-64.4-64.2-48.1-107.1c16.3-42.8,64.2-64.4,107.1-48.1
	c42.8,16.3,64.4,64.2,48.1,107.1C680,1213.9,646,1235.6,609.3,1232.8z M620.3,1083.2c-36.7-2.8-68.6,24.7-71.4,61.4
	s24.7,68.6,61.4,71.4c36.7,2.8,68.6-24.7,71.4-61.4c2.2-29.4-15.2-56.8-42.8-67.3C633,1085.1,626.7,1083.7,620.3,1083.2
	L620.3,1083.2z"/>
<path class="st2" d="M598.4,1362.8c-96.4-7.5-175.7-79.1-192.8-174.3c-3.2-17.7-4.1-35.7-2.8-53.6c7.5-96.4,79.1-175.7,174.3-192.8
	c1.5-0.3,2.9-0.5,4.4-0.7c12-1.9,24.1-2.8,36.2-2.6c1.5,0,3,0.1,4.5,0.1l-0.6,17.2c-13.9-0.5-27.8,0.5-41.5,3l0,0
	c-48.2,8.5-91.3,34.9-120.9,73.9c-1.7,2.2-3.3,4.4-4.9,6.7c-61.6,88.5-39.7,210.1,48.7,271.6c42.5,29.6,94.9,41,145.9,31.9
	c89.4-16,153.8-90.9,160.2-177.6c3.8-52-13.2-103.3-47.4-142.6l12.9-11.3c37.2,42.8,55.8,98.6,51.6,155.2
	c-7,94.3-77,175.8-174.3,193.2C634.3,1363.2,616.3,1364.1,598.4,1362.8z"/>
<path class="st1" d="M1655.8,691.5c-2.7-0.2-5-1.8-6.2-4.2c-4.5-8.8-9.4-17.5-14.7-25.9c-2.2-3.6-1.2-8.3,2.4-10.5s8.3-1.2,10.5,2.4
	l0,0c5.5,8.7,10.7,17.9,15.4,27.1c1.9,3.8,0.4,8.4-3.4,10.3C1658.6,691.3,1657.2,691.6,1655.8,691.5L1655.8,691.5z"/>
<path class="st1" d="M1385.2,1170c-4.2-0.3-7.3-4-7-8.2c0.3-3.7,3.3-6.7,7-7c14.9-1.1,29.7-3.2,44.3-6.3c5.2-1.1,10.3-2.3,15.3-3.6
	c4.1-1.1,8.2,1.3,9.3,5.4s-1.3,8.2-5.4,9.3c0,0-0.1,0-0.1,0c-5.3,1.4-10.6,2.7-16,3.8c-15.3,3.3-30.8,5.5-46.4,6.6
	C1385.9,1170,1385.5,1170,1385.2,1170z M1538.1,1120c-4.2-0.4-7.3-4.1-7-8.3c0.2-2.3,1.5-4.5,3.4-5.7c17-10.8,33-23.1,47.8-36.9
	c3.1-2.9,7.9-2.7,10.8,0.4s2.7,7.9-0.4,10.8c-15.4,14.4-32.2,27.4-50,38.7C1541.3,1119.7,1539.7,1120.1,1538.1,1120L1538.1,1120z
	 M1649,1003.4c-1.1-0.1-2.2-0.4-3.2-1c-3.7-2.1-5-6.7-2.9-10.4c9.9-17.5,18.2-36,24.7-55c1.5-3.9,5.9-5.9,9.8-4.4
	c3.8,1.4,5.8,5.5,4.6,9.4c-6.8,20-15.5,39.3-25.9,57.7C1654.7,1002.2,1651.9,1003.6,1649,1003.4z M1691.7,848.4
	c-4-0.3-7.1-3.7-7.1-7.8c0.4-20.2-1.1-40.3-4.4-60.2c-0.4-4.2,2.7-7.9,6.9-8.3c3.7-0.3,7.2,2.1,8.1,5.7c3.5,20.8,5,42,4.6,63.1
	c-0.1,4.2-3.6,7.6-7.8,7.5c0,0,0,0,0,0L1691.7,848.4z"/>
<path class="st1" d="M1285,1161.7c-0.4,0-0.8-0.1-1.2-0.2c-10.1-2.4-20.2-5.4-29.9-8.7c-4-1.2-6.3-5.5-5.1-9.5
	c1.2-4,5.5-6.3,9.5-5.1c0.2,0,0.3,0.1,0.5,0.2c9.3,3.2,19,6,28.6,8.3c4.1,1.1,6.5,5.2,5.5,9.3
	C1291.9,1159.5,1288.6,1161.8,1285,1161.7L1285,1161.7z"/>
<path class="st1" d="M1069.5,993.1c-2.6-0.2-5-1.7-6.2-4.1c-4.8-9.2-9.2-18.7-13.1-28.3c-1.6-3.9,0.3-8.3,4.2-9.9
	c3.9-1.6,8.3,0.3,9.9,4.2c3.7,9.2,7.9,18.3,12.5,27c1.9,3.7,0.5,8.3-3.3,10.3C1072.3,992.9,1070.9,993.2,1069.5,993.1L1069.5,993.1z
	"/>
<path class="st1" d="M1033.6,869.5c-3.7-0.3-6.7-3.2-7-6.9c-1.6-18.1-1.7-36.2-0.4-54.3c0.2-2.6,0.4-5.3,0.7-7.9
	c0.5-4.1,4.2-7.1,8.3-6.8c4.2,0.4,7.2,4.1,6.8,8.3c0,0,0,0,0,0c-0.2,2.5-0.5,5-0.7,7.5c-1.3,17.3-1.2,34.6,0.3,51.9
	c0.4,4.2-2.7,7.9-6.9,8.3c0,0,0,0,0,0C1034.5,869.6,1034.1,869.6,1033.6,869.5z M1058.2,713.2c-0.8-0.1-1.6-0.3-2.4-0.6
	c-3.9-1.6-5.7-6.1-4.1-10c0,0,0,0,0,0c8.1-19.1,17.9-37.5,29.3-54.8c2.4-3.4,7.2-4.3,10.6-1.8c3.3,2.3,4.2,6.8,2.1,10.2
	c-10.9,16.6-20.3,34.1-28,52.3C1064.6,711.6,1061.5,713.5,1058.2,713.2z M1152.8,586.4c-4.2-0.3-7.3-4-7-8.2c0.2-2.1,1.1-4,2.7-5.3
	c16-13.2,33.3-24.9,51.5-34.9c3.7-2,8.3-0.7,10.4,3s0.7,8.3-3,10.4l0,0c-17.4,9.6-33.8,20.7-49.1,33.3
	C1156.7,585.9,1154.8,586.5,1152.8,586.4z M1295.6,518.3c-4.2-0.3-7.4-3.9-7.1-8.1c0.2-3.4,2.7-6.3,6.1-7c20.3-4.2,41-6.5,61.8-6.9
	c4.1-0.2,7.6,3,7.8,7.1c0,0.1,0,0.2,0,0.3c0.1,4.2-3.3,7.7-7.5,7.8c0,0,0,0,0,0c-19.8,0.4-39.6,2.6-59,6.6
	C1297,518.3,1296.3,518.3,1295.6,518.3L1295.6,518.3z"/>
<path class="st1" d="M1482.8,534.4c-0.8-0.1-1.5-0.2-2.2-0.5c-9.2-3.6-18.7-6.9-28.2-9.6c-4-1.2-6.4-5.4-5.2-9.5
	c1.2-4,5.4-6.4,9.5-5.2c9.9,2.9,19.9,6.3,29.5,10.1c3.9,1.6,5.8,6,4.3,9.9C1489.2,532.7,1486.1,534.6,1482.8,534.4z"/>
<path class="st1" d="M1484.3,611.5c-1.4-1-3.2-1-4.6,0l-38.9,28.4c-21.2-8.4-43.6-13.3-66.4-14.5l-23.5-42c-0.8-1.5-2.5-2.3-4.2-2
	l-56.8,10.2c-1.7,0.3-2.9,1.6-3.2,3.3l-7.4,47.5c-20.9,9-40.2,21.4-57.2,36.7l-46.3-13.1c-1.6-0.4-3.4,0.2-4.3,1.5l-33,47.4
	c-1,1.4-1,3.2,0,4.6l28.5,38.8c-8.4,21.2-13.3,43.6-14.6,66.4l-42,23.5c-1.5,0.8-2.3,2.5-2,4.2l10.2,56.8c0.3,1.7,1.6,3,3.3,3.2
	l47.5,7.4c9,20.9,21.4,40.3,36.7,57.2l-13.1,46.3c-0.4,1.6,0.2,3.3,1.6,4.3l47.4,33c1.4,1,3.2,1,4.6,0l38.9-28.4
	c21.2,8.4,43.6,13.3,66.4,14.6l23.5,42c0.8,1.5,2.5,2.3,4.2,2l56.8-10.2c1.7-0.3,2.9-1.6,3.2-3.3l7.4-47.6
	c20.9-9,40.3-21.4,57.2-36.7l46.3,13.1c1.6,0.4,3.3-0.2,4.3-1.5l33-47.4c1-1.4,1-3.2,0-4.6l-28.4-38.9c8.4-21.2,13.3-43.6,14.6-66.4
	l42-23.5c1.5-0.8,2.3-2.5,2-4.2l-10.2-56.8c-0.3-1.7-1.6-2.9-3.3-3.2l-47.5-7.4c-9-20.9-21.4-40.3-36.7-57.2l13.1-46.3
	c0.4-1.6-0.2-3.4-1.5-4.3L1484.3,611.5z"/>
<path class="st2" d="M1358.6,898.6c-34.5-2.5-60.5-32.6-58-67.1c1.7-22.9,15.8-43.1,36.7-52.6l0,0c31.6-14.3,68.7-0.3,83,31.3
	c14.3,31.6,0.3,68.7-31.3,83C1379.5,897.5,1369,899.4,1358.6,898.6z M1346.7,799.8c-20.1,9.1-29,32.7-19.9,52.7s32.7,29,52.7,19.9
	c20.1-9.1,29-32.7,19.9-52.7c0,0,0,0,0,0C1390.4,799.6,1366.8,790.7,1346.7,799.8z"/>
<path class="st2" d="M1351,987.6c-68.5-5.3-124.8-56.2-137-123.8c-2.3-12.6-2.9-25.4-2-38.1c6.3-80.7,75.1-142.1,156-139.2
	l-0.8,22.9c-9.1-0.3-18.2,0.3-27.2,1.9c-31.9,5.6-60.5,23.2-79.8,49.2l-0.9,1.2c-0.6,0.8-1.2,1.6-1.7,2.4
	c-40.3,58-26,137.7,32.1,178s137.7,26,178-32.1c13-18.7,20.7-40.5,22.5-63.1c2.5-34.2-8.7-67.9-31.1-93.8l17.2-15
	c54.6,63,47.9,158.3-15.1,212.9C1430.8,977.4,1391.1,990.6,1351,987.6z"/>
<linearGradient id="SVGID_00000075866146494338559880000000919392353254020742_" gradientUnits="userSpaceOnUse" x1="1453.0162" y1="1224.0222" x2="1076.3562" y2="1813.5822" gradientTransform="matrix(0.96 0.27 0.27 -0.96 -567.7 3479.8301)">
	<stop  offset="0" style="stop-color:#00A3FE"/>
	<stop  offset="0.2745" style="stop-color:#02A0FD"/>
	<stop  offset="0.4648" style="stop-color:#0897FB"/>
	<stop  offset="0.6296" style="stop-color:#1288F6"/>
	<stop  offset="0.7799" style="stop-color:#2072F0"/>
	<stop  offset="0.919" style="stop-color:#3356E8"/>
	<stop  offset="1" style="stop-color:#4042E2"/>
</linearGradient>
<path style="fill:url(#SVGID_00000075866146494338559880000000919392353254020742_);" d="M1156.2,2221.9
	c-198.2-43.7-48.9-337.8-41.8-349.1l-355.2,124.7c0,0-31.7,171,189.3,328.3c55.9,39.8,112.5,56.9,165.9,60.5
	C1110.7,2317.6,1131,2262.8,1156.2,2221.9z"/>
<linearGradient id="SVGID_00000056400606819774112490000008702485152777242277_" gradientUnits="userSpaceOnUse" x1="1310.3441" y1="1657.3687" x2="1844.4541" y2="1657.3687" gradientTransform="matrix(0.96 0.27 0.27 -0.96 -567.7 3479.8301)">
	<stop  offset="0" style="stop-color:#FEBBBA"/>
	<stop  offset="1" style="stop-color:#FF928E"/>
</linearGradient>
<path style="fill:url(#SVGID_00000056400606819774112490000008702485152777242277_);" d="M1559.7,2235.4
	c-58.2-71.2-154.9-44.1-154.9-44.1c-115.2,35.9-194.7,42.4-248.6,30.6c-25.2,40.8-45.5,95.7-41.9,164.3c115.4,7.6,215.7-49,261-79.8
	c16.3-11.1,38.6-7.5,50.1,8.5c11.7,16.2,21.8,36.8,14.2,53.2c-14.9,32.4,21.4,54.4,27.9,43s10.8-89.1,10.8-89.1
	s56.2,101.6,78.3,140.8s69.4,19.8,69.4,19.8S1617.9,2306.6,1559.7,2235.4z"/>
<linearGradient id="SVGID_00000114796631489683533080000000611389496680457883_" gradientUnits="userSpaceOnUse" x1="726.5942" y1="108.9969" x2="-474.3056" y2="-764.3834" gradientTransform="matrix(0.9593 -0.2825 -0.2825 -0.9593 417.9393 1790.9802)">
	<stop  offset="0" style="stop-color:#00A3FE"/>
	<stop  offset="0.2745" style="stop-color:#02A0FD"/>
	<stop  offset="0.4648" style="stop-color:#0897FB"/>
	<stop  offset="0.6296" style="stop-color:#1288F6"/>
	<stop  offset="0.7799" style="stop-color:#2072F0"/>
	<stop  offset="0.919" style="stop-color:#3356E8"/>
	<stop  offset="1" style="stop-color:#4042E2"/>
</linearGradient>
<path style="fill:url(#SVGID_00000114796631489683533080000000611389496680457883_);" d="M365.6,1475c0,0,249.4-196.5,903.6,83
	c0,0,70.8,78,46.6,173.1S951,2355.3,952.7,2592.6c0,0-246.2,168.6-589.4,41.8C363.2,2634.4,208.8,2018.1,365.6,1475z"/>
<linearGradient id="SVGID_00000074399830295361673720000009870218115608614063_" gradientUnits="userSpaceOnUse" x1="587.3631" y1="911.8977" x2="1015.9531" y2="1481.1277" gradientTransform="matrix(1 0 0 -1 0 2772)">
	<stop  offset="0" style="stop-color:#FEBBBA"/>
	<stop  offset="1" style="stop-color:#FF928E"/>
</linearGradient>
<path style="fill:url(#SVGID_00000074399830295361673720000009870218115608614063_);" d="M894.8,1209.3l-89.5,209.7
	c-9,20.8-5,44.9,10.2,61.7c30.9,33.7,93.7,77.6,193,39.7c29.6-11.3,50.9-37.4,56.1-68.6l38.1-229.9L894.8,1209.3z"/>
<linearGradient id="SVGID_00000174596215865551926670000013736456338241960344_" gradientUnits="userSpaceOnUse" x1="554.3809" y1="345.7779" x2="-646.5193" y2="-527.6021" gradientTransform="matrix(0.9593 -0.2825 -0.2825 -0.9593 417.9393 1790.9802)">
	<stop  offset="0" style="stop-color:#00A3FE"/>
	<stop  offset="0.2745" style="stop-color:#02A0FD"/>
	<stop  offset="0.4648" style="stop-color:#0897FB"/>
	<stop  offset="0.6296" style="stop-color:#1288F6"/>
	<stop  offset="0.7799" style="stop-color:#2072F0"/>
	<stop  offset="0.919" style="stop-color:#3356E8"/>
	<stop  offset="1" style="stop-color:#4042E2"/>
</linearGradient>
<path style="fill:url(#SVGID_00000174596215865551926670000013736456338241960344_);" d="M359.5,2262.1
	c-72.2-124,172.5-520,172.5-520L365.6,1475c0,0-577.2,689.4-281,1019.8c42.5,47.4,88.7,75.7,136.6,89.6
	C233.1,2411.8,304.3,2313.3,359.5,2262.1z"/>
<linearGradient id="SVGID_00000178898102371797038400000014102461685632951221_" gradientUnits="userSpaceOnUse" x1="936.4213" y1="1065.6178" x2="456.4913" y2="788.8177" gradientTransform="matrix(1 0 0 -1 0 2772)">
	<stop  offset="0" style="stop-color:#09005D"/>
	<stop  offset="1" style="stop-color:#1A0F91"/>
</linearGradient>
<path style="fill:url(#SVGID_00000178898102371797038400000014102461685632951221_);" d="M353.5,2262c-3.6,1.1-7.5-0.5-9.4-3.7
	c-73.8-126.8,162.5-512,172.6-528.4c2.4-3.8,7.4-5,11.3-2.7c3.8,2.4,5,7.4,2.7,11.3c-2.4,3.9-241.3,393.2-172.4,511.5
	c2.3,3.9,0.9,8.9-3,11.2c0,0,0,0,0,0C354.7,2261.6,354.1,2261.8,353.5,2262z"/>
<linearGradient id="SVGID_00000092442073021095238040000008756938941449175728_" gradientUnits="userSpaceOnUse" x1="666.8265" y1="172.1792" x2="-689.7936" y2="-2185.2207" gradientTransform="matrix(0.9977 -6.818942e-02 -6.818942e-02 -0.9977 161.8886 2577.9812)">
	<stop  offset="0" style="stop-color:#FEBBBA"/>
	<stop  offset="1" style="stop-color:#FF928E"/>
</linearGradient>
<path style="fill:url(#SVGID_00000092442073021095238040000008756938941449175728_);" d="M939.8,2248.5
	c-44.3,12.3-85.5,34.3-130,45.6c-49.4,12.6-98.2,27.4-148,38.6c-77.4,17.4-179.2,37.4-247.2-15.8c-5.7-4.5-51.8-56.6-55.1-54.7
	C236,2333.4,212,2500.1,212,2580.9c225,123,579-116.6,674.3-186.6c15.6-11.5,35.1-16.5,54.4-13.9c39,5.3,106.2,12.5,141.6,4.6
	c51.8-11.6,139.7,168,220.7,105.2C1303.1,2490.3,1208.4,2174,939.8,2248.5z"/>
<linearGradient id="SVGID_00000002365578985682162170000006358065848571573402_" gradientUnits="userSpaceOnUse" x1="1179.2347" y1="1665.6941" x2="742.1248" y2="1331.2341" gradientTransform="matrix(0.9938 0.1109 0.1109 -0.9938 -173.1796 2592.937)">
	<stop  offset="0" style="stop-color:#FEBBBA"/>
	<stop  offset="1" style="stop-color:#FF928E"/>
</linearGradient>
<path style="fill:url(#SVGID_00000002365578985682162170000006358065848571573402_);" d="M1184.8,912.9c0,0,56.5,183,51.4,275.2
	s8,153.8-100,160.5s-191.4-56.1-229.5-152.8c0,0-60.1-149.1-36.7-204.8S1184.8,912.9,1184.8,912.9z"/>
<linearGradient id="SVGID_00000104693585908696896490000000939498394280283024_" gradientUnits="userSpaceOnUse" x1="872.228" y1="1929.7161" x2="1268.048" y2="1420.0861" gradientTransform="matrix(0.9938 0.1109 0.1109 -0.9938 -173.1796 2592.937)">
	<stop  offset="0" style="stop-color:#09005D"/>
	<stop  offset="1" style="stop-color:#1A0F91"/>
</linearGradient>
<path style="fill:url(#SVGID_00000104693585908696896490000000939498394280283024_);" d="M950.2,1134.2l13.4,1.5
	c0,0-42.6-119.3,8.1-133.8s247.1-32.2,296.2-95.8c47.3-61.2,21.1-150.1-29.5-179.8c-3.3-1.8-7.4-0.8-9.4,2.3l-5.3,7.9
	c-2.3,3.3-6.8,4.2-10.1,1.9c-1.6-1.1-2.7-2.8-3.1-4.8l0,0c-1-6.1-8.9-8.2-12.7-3.4c-15,19-53,48.3-147,55
	c-133.4,9.5-225.7,52.8-237.9,142.9c-0.5,4-4.2,6.8-8.1,6.3c-1.4-0.2-2.6-0.7-3.7-1.6c-9-7-24.1-11.4-46.7,3.6
	c-39.3,26.2-33.3,106.1,38.2,179.3c2.8,2.8,2.9,7.3,0.1,10.2c-0.5,0.5-1.1,1-1.8,1.3c-15.3,7.7-39,27.4,12.8,63
	c53,36.4,86.7,36.8,99.7,35c3.5-0.5,6.1-3.3,6.3-6.8l4-80.6c0.2-4,3.6-7.1,7.6-6.9c0.1,0,0.3,0,0.4,0L950.2,1134.2z"/>
<linearGradient id="SVGID_00000149356204735213159940000005548017252302407568_" gradientUnits="userSpaceOnUse" x1="1125.0555" y1="1736.4908" x2="687.9456" y2="1402.0309" gradientTransform="matrix(0.9938 0.1109 0.1109 -0.9938 -173.1796 2592.937)">
	<stop  offset="0" style="stop-color:#FEBBBA"/>
	<stop  offset="1" style="stop-color:#FF928E"/>
</linearGradient>
<path style="fill:url(#SVGID_00000149356204735213159940000005548017252302407568_);" d="M951.7,1151.4c0,0-16.6-114.7-70-89
	s12,127.8,51.7,136.5L951.7,1151.4z"/>
<linearGradient id="SVGID_00000059993804073666909990000013110763531533955484_" gradientUnits="userSpaceOnUse" x1="13253.9453" y1="-347.7637" x2="12559.2354" y2="-538.1635" gradientTransform="matrix(-1.05 -3.000000e-02 3.000000e-02 -1 14600.8594 2437.54)">
	<stop  offset="0" style="stop-color:#09005D"/>
	<stop  offset="1" style="stop-color:#1A0F91"/>
</linearGradient>
<path style="fill:url(#SVGID_00000059993804073666909990000013110763531533955484_);" d="M776.1,2596.1c0.7,0,1.4,0,2.1,0
	l908.2-14.1c22.4-0.3,40.3-17.9,39.8-39.2s-19.1-38.7-41.4-38L776.6,2519c-22.5,0.3-40.3,17.9-39.8,39.2
	C737.2,2578.9,754.6,2595.4,776.1,2596.1z"/>
<linearGradient id="SVGID_00000153706546071594529690000015248635538916882106_" gradientUnits="userSpaceOnUse" x1="1113.7043" y1="1754.4141" x2="772.1644" y2="1294.5741" gradientTransform="matrix(1 0 0 -1 0 2772)">
	<stop  offset="0" style="stop-color:#00A3FE"/>
	<stop  offset="0.2745" style="stop-color:#02A0FD"/>
	<stop  offset="0.4648" style="stop-color:#0897FB"/>
	<stop  offset="0.6296" style="stop-color:#1288F6"/>
	<stop  offset="0.7799" style="stop-color:#2072F0"/>
	<stop  offset="0.919" style="stop-color:#3356E8"/>
	<stop  offset="1" style="stop-color:#4042E2"/>
</linearGradient>
<path style="fill:url(#SVGID_00000153706546071594529690000015248635538916882106_);" d="M1129.6,1266.6
	c-161.8,13.7-294.2-113-295.1-114.9v-28.6c0.9,1.8,140.4,142.6,294.2,129.6L1129.6,1266.6z"/>
<linearGradient id="SVGID_00000029021099134627522880000000178673267566491524_" gradientUnits="userSpaceOnUse" x1="1247.2406" y1="1632.9995" x2="1044.1006" y2="1367.3595" gradientTransform="matrix(1 0 0 -1 0 2772)">
	<stop  offset="0" style="stop-color:#00A3FE"/>
	<stop  offset="0.2745" style="stop-color:#02A0FD"/>
	<stop  offset="0.4648" style="stop-color:#0897FB"/>
	<stop  offset="0.6296" style="stop-color:#1288F6"/>
	<stop  offset="0.7799" style="stop-color:#2072F0"/>
	<stop  offset="0.919" style="stop-color:#3356E8"/>
	<stop  offset="1" style="stop-color:#4042E2"/>
</linearGradient>
<path style="fill:url(#SVGID_00000029021099134627522880000000178673267566491524_);" d="M1195.6,1259.5c0,10.8-7.8,19.5-17.4,19.5
	h-46.3c-9.6,0-17.4-8.7-17.4-19.5l0,0c0-10.8,7.8-19.5,17.4-19.5h46.3C1187.8,1240,1195.6,1248.8,1195.6,1259.5z"/>
<linearGradient id="SVGID_00000037685760315466545700000009574299188610060731_" gradientUnits="userSpaceOnUse" x1="1739.0498" y1="1931.5315" x2="225.3399" y2="1681.4414" gradientTransform="matrix(0.9856 -0.1692 -0.1692 -0.9856 87.3102 2893.3618)">
	<stop  offset="0" style="stop-color:#00A3FE"/>
	<stop  offset="0.2745" style="stop-color:#02A0FD"/>
	<stop  offset="0.4648" style="stop-color:#0897FB"/>
	<stop  offset="0.6296" style="stop-color:#1288F6"/>
	<stop  offset="0.7799" style="stop-color:#2072F0"/>
	<stop  offset="0.919" style="stop-color:#3356E8"/>
	<stop  offset="1" style="stop-color:#4042E2"/>
</linearGradient>
<path style="fill:url(#SVGID_00000037685760315466545700000009574299188610060731_);" d="M917.2,979.4c0,0-37-197.2,191-198.3
	c1.5,0,2.7-1.2,2.7-2.7c0-1.2-0.8-2.3-2.1-2.6c-62.4-14.4-243.7-35.7-246.4,200.9C897.1,989.3,917.2,979.4,917.2,979.4z"/>
<linearGradient id="SVGID_00000091736751528001869170000016313160889561644968_" gradientUnits="userSpaceOnUse" x1="1039.799" y1="1923.847" x2="872.379" y2="1660.4371" gradientTransform="matrix(1 0 0 -1 0 2772)">
	<stop  offset="0" style="stop-color:#00A3FE"/>
	<stop  offset="0.2745" style="stop-color:#02A0FD"/>
	<stop  offset="0.4648" style="stop-color:#0897FB"/>
	<stop  offset="0.6296" style="stop-color:#1288F6"/>
	<stop  offset="0.7799" style="stop-color:#2072F0"/>
	<stop  offset="0.919" style="stop-color:#3356E8"/>
	<stop  offset="1" style="stop-color:#4042E2"/>
</linearGradient>
<path style="fill:url(#SVGID_00000091736751528001869170000016313160889561644968_);" d="M875.4,955.4c-89,18-78,130.5-78,130.5
	c-6.4,81.6,17.4,122.1,48,141.4c32.9,20.7,76.3,10.8,96.9-22.1c6.1-9.7,9.7-20.8,10.6-32.2c1.6-22.2,3.5-43.3,5.2-50.8
	C962,1104,964.3,937.3,875.4,955.4z"/>
<linearGradient id="SVGID_00000115514976548609145560000010964621560670903993_" gradientUnits="userSpaceOnUse" x1="882.6627" y1="1663.9913" x2="583.5427" y2="2264.4714" gradientTransform="matrix(1 0 0 -1 0 2772)">
	<stop  offset="0" style="stop-color:#00A3FE"/>
	<stop  offset="0.2745" style="stop-color:#02A0FD"/>
	<stop  offset="0.4648" style="stop-color:#0897FB"/>
	<stop  offset="0.6296" style="stop-color:#1288F6"/>
	<stop  offset="0.7799" style="stop-color:#2072F0"/>
	<stop  offset="0.919" style="stop-color:#3356E8"/>
	<stop  offset="1" style="stop-color:#4042E2"/>
</linearGradient>
<path style="fill:url(#SVGID_00000115514976548609145560000010964621560670903993_);" d="M883.6,983.8c-18.4-3.2-36.7,6.6-44.1,23.8
	c-53.2,123.2,12.1,203.3,44.2,204.9c33.8,1.8,33.1-160.7,25.9-202.4C906.5,992.7,895.4,985.9,883.6,983.8z"/>
<linearGradient id="SVGID_00000087402291230522235010000010727678964864715960_" gradientUnits="userSpaceOnUse" x1="1407.8726" y1="-274.4401" x2="1446.6125" y2="577.7499" gradientTransform="matrix(1 0 0 -1 0 2772)">
	<stop  offset="0" style="stop-color:#09005D"/>
	<stop  offset="1" style="stop-color:#1A0F91"/>
</linearGradient>
<path style="fill:url(#SVGID_00000087402291230522235010000010727678964864715960_);" d="M47.5,2627.2c-1.5-11.2,0.5-22.8,5.6-31.6
	s12.6-13.9,20.6-13.9h2702.7c10.5,0,20.3,7.6,25.9,20.3s6.4,28.6,2,42.2l-29.3,90.8c-6.7,20.8-21.2,34.1-37.2,34.1H92.3
	c-14.9,0-27.7-15.1-30.5-36L47.5,2627.2z"/>
<path class="st1" d="M2737.9,2772.4H92.3c-16.5,0-30.8-16.4-33.8-38.9l-14.3-105.8c-1.6-12,0.6-24.3,6-33.8
	c5.7-9.9,14.3-15.6,23.5-15.6h2702.7c11.9,0,22.7,8.3,29,22.3c6,13.5,6.8,30.1,2.1,44.6l-29.3,90.8
	C2771.1,2758.1,2755.3,2772.4,2737.9,2772.4z M50.9,2626.8l14.3,105.8c2.6,19.2,14,33.1,27.2,33.1h2645.5c14.4,0,27.8-12.5,34-31.8
	l29.3-90.8c4.2-13.1,3.5-27.2-1.9-39.8c-5.1-11.5-13.7-18.3-22.9-18.3H73.8c-6.8,0-13.2,4.5-17.7,12.2
	C51.3,2605.5,49.4,2616.2,50.9,2626.8L50.9,2626.8z"/>
<linearGradient id="SVGID_00000053534079445434505230000013077002170011845043_" gradientUnits="userSpaceOnUse" x1="1957.6017" y1="1176.6545" x2="2249.1516" y2="431.1444" gradientTransform="matrix(1 0 0 -1 0 2772)">
	<stop  offset="0" style="stop-color:#09005D"/>
	<stop  offset="1" style="stop-color:#1A0F91"/>
</linearGradient>
<path style="fill:url(#SVGID_00000053534079445434505230000013077002170011845043_);" d="M1476.7,1550.3
	c-15.3,124.7-83.9,631.6-103.6,776.4c-2.5,18.2,10.3,34.9,28.5,37.4c1.8,0.2,3.7,0.3,5.5,0.3l1165-33.3
	c15.2-0.4,28.3-11.2,31.6-26.1l181.2-816.2c4-18-7.3-35.7-25.3-39.7c-3-0.7-6.1-0.9-9.2-0.7l-1242.6,72.8
	C1491.7,1522,1478.6,1534.3,1476.7,1550.3z"/>
<linearGradient id="SVGID_00000144311260479665175340000004568482824323692714_" gradientUnits="userSpaceOnUse" x1="1922.5034" y1="880.2722" x2="2089.0935" y2="-144.2979" gradientTransform="matrix(1 0 0 -1 0 2772)">
	<stop  offset="0" style="stop-color:#09005D"/>
	<stop  offset="1" style="stop-color:#1A0F91"/>
</linearGradient>
<path style="fill:url(#SVGID_00000144311260479665175340000004568482824323692714_);" d="M1945,2062.1l-172.2,488.7l400.4,8.5
	l33.3-494.3c1.4-21.2-14.6-39.5-35.7-40.9c-1.7-0.1-3.4-0.1-5.1,0l-187,12.4C1963.3,2037.6,1950.1,2047.6,1945,2062.1z"/>
<path class="st1" d="M2176.3,2562.7l-3.2-0.1l-405-8.6l173.7-493c5.5-15.8,19.9-26.7,36.6-27.8l187-12.4c23-1.5,42.9,15.9,44.4,38.9
	c0.1,1.9,0.1,3.7,0,5.6L2176.3,2562.7z M1777.5,2547.5l392.5,8.3l33.1-491.1c1.3-19.3-13.2-36-32.5-37.3c-1.6-0.1-3.2-0.1-4.8,0
	l-187,12.4c-14,0.9-26.1,10.1-30.8,23.3L1777.5,2547.5z"/>
<linearGradient id="SVGID_00000005239723109391818410000002460438666586660769_" gradientUnits="userSpaceOnUse" x1="1847.4817" y1="284.2927" x2="2338.9417" y2="-37.7973" gradientTransform="matrix(1 0 0 -1 0 2772)">
	<stop  offset="0" style="stop-color:#09005D"/>
	<stop  offset="1" style="stop-color:#1A0F91"/>
</linearGradient>
<path style="fill:url(#SVGID_00000005239723109391818410000002460438666586660769_);" d="M1610.5,2557.8L1610.5,2557.8
	c-3.6,10.9,2.4,22.7,13.3,26.2c2.1,0.7,4.3,1,6.5,1h627c11.5,0,20.8-9.3,20.8-20.8l0,0v-26.9c0-11.5-9.3-20.8-20.8-20.8
	c-0.3,0-0.6,0-0.9,0l-627,26.9C1620.7,2543.8,1613.2,2549.5,1610.5,2557.8z"/>
<path class="st1" d="M2257.2,2588.4h-627c-13.3,0-24.1-10.8-24.1-24.1c0-2.6,0.4-5.1,1.2-7.5c3.2-9.5,11.9-16.1,21.9-16.6l627-26.9
	c13.3-0.6,24.6,9.8,25.2,23.1c0,0.3,0,0.7,0,1v26.9C2281.4,2577.6,2270.6,2588.4,2257.2,2588.4z M2257.2,2519.9h-0.8l-627,26.9
	c-7.3,0.3-13.5,5.1-15.8,12l0,0c-3,9.2,2,19,11.2,22c1.7,0.6,3.6,0.9,5.4,0.9h627c9.6,0,17.4-7.8,17.4-17.4v-26.9
	C2274.6,2527.7,2266.9,2519.9,2257.2,2519.9L2257.2,2519.9z"/>
<path class="st1" d="M1459.1,2065.9l-8.3-1.1l57.2-451.4c3.6-28,26.6-49.5,54.7-51.2l1073.8-64.8l0.5,8.3l-1073.8,64.8
	c-24.2,1.5-43.9,19.9-47,44L1459.1,2065.9z"/>
<rect x="1385.5" y="2252.8" transform="matrix(0.1302 -0.9915 0.9915 0.1302 -989.8281 3385.6003)" class="st1" width="98.4" height="8.3"/>
<path class="st23" d="M1830.9,351.3v251.3c0,29.9,23.5,54.5,53.3,55.8l314.3,14.8c30.9,1.4,57-22.4,58.5-53.3c0-0.9,0.1-1.7,0.1-2.6
	V351.3c0-30.9-25-55.9-55.9-55.9h-314.3C1855.9,295.4,1830.9,320.4,1830.9,351.3z"/>
<path class="st24" d="M1950.8,418.9l-12.3-45.4l-35.8-19.5l-4.8,8.7l32,17.3l38.2,140l1.2,4.2h155.8c15.1,0.1,29.2-7.5,37.4-20.2
	l7-9.2c7.5-11.6,12.5-25,12.5-38.9v-37L1950.8,418.9z M2170.7,455.9c-0.1,11.9-3.7,23.6-10.2,33.5l-6.2,10.4
	c-6.4,9.9-17.4,16.9-29.1,16.9h-148.1l-8.1-29.9l-15.4-56.6h217.2V455.9z"/>
<path class="st24" d="M2161,575c0,2.8-2.2,5.6-5,5.6h-182.8c-2.8,0-5.6-4.3-5.6-7.1v-86.2c0-1,0.6-0.8,1-1.5l8.4,30.8h1.8v52.7H2156
	C2158.8,569.4,2161,572.3,2161,575z"/>
<rect x="2059.6" y="424" class="st24" width="6.7" height="93.8"/>
<rect x="2000.6" y="424" class="st24" width="6.7" height="93.8"/>
<rect x="2117.1" y="424" class="st24" width="6.7" height="93.8"/>
<rect x="1956.1" y="451.5" class="st24" width="217" height="6"/>
<rect x="1965.6" y="484.2" class="st24" width="202.1" height="6"/>
<path class="st24" d="M1996.6,587.1c-11.9,0-21.6,9.6-21.6,21.6s9.6,21.6,21.6,21.6s21.6-9.6,21.6-21.6c0,0,0,0,0,0
	C2018.2,596.8,2008.5,587.1,1996.6,587.1L1996.6,587.1z M1996.6,621.7c-7.2,0-13-5.8-13-13s5.8-13,13-13s13,5.8,13,13l0,0
	C2009.6,615.9,2003.8,621.7,1996.6,621.7z"/>
<path class="st24" d="M2130.6,587.1c-11.9,0-21.6,9.6-21.6,21.6c0,11.9,9.6,21.6,21.6,21.6c11.9,0,21.6-9.6,21.6-21.6c0,0,0,0,0,0
	C2152.1,596.8,2142.5,587.1,2130.6,587.1L2130.6,587.1z M2130.6,621.7c-7.2,0-13-5.8-13-13s5.8-13,13-13s13,5.8,13,13l0,0
	C2143.6,615.9,2137.7,621.7,2130.6,621.7z"/>
<path class="st24" d="M1925,362.8c0,5.6-4.5,10.1-10.1,10.1h-33.7c-5.6,0-10.2-4.5-10.2-10.1c0,0,0,0,0-0.1l0,0
	c0-5.6,4.5-10.1,10.1-10.1h33.7C1920.4,352.6,1925,357.1,1925,362.8C1925,362.7,1925,362.8,1925,362.8z"/>
<path class="st23" d="M1149.6,60.7v269.6c0,32,25.2,58.4,57.2,59.9l337.2,15.8c33.1,1.5,61.2-24,62.7-57.1c0-0.9,0.1-1.8,0.1-2.8
	V60.7c0-33.1-26.9-60-60-60h-337.1C1176.4,0.8,1149.6,27.6,1149.6,60.7z"/>
<path class="st24" d="M1494.8,325.4h-232.3c-17.4,0-31.6-14.1-31.6-31.6V124c0-17.4,14.1-31.6,31.6-31.6h232.3
	c17.4,0,31.6,14.1,31.6,31.6v169.9C1526.4,311.3,1512.3,325.4,1494.8,325.4z M1262.5,113.2c-6,0-10.8,4.8-10.8,10.8c0,0,0,0,0,0
	v169.9c0,5.9,4.8,10.7,10.8,10.8h232.3c5.9,0,10.8-4.8,10.8-10.8V124c0-5.9-4.8-10.8-10.8-10.8L1262.5,113.2z"/>
<path class="st24" d="M1378.9,212.7c-2.2,0-4.2-0.7-6-1.9l-130.2-92.3c-4.7-3.3-5.8-9.8-2.5-14.5s9.8-5.8,14.5-2.5l124.2,88
	l122.6-87c4.7-3.3,11.2-2.2,14.5,2.5s2.2,11.2-2.5,14.5l0,0l-128.6,91.3C1383.1,212,1381,212.7,1378.9,212.7z"/>
<path class="st24" d="M1250.3,318.2l-3-20.6l1.4,10.3l-8.7-5.7c2.4-3.9,49.4-86,80.3-140.3c2.9-5,9.3-6.6,14.3-3.7
	c4.9,2.9,6.6,9.1,3.8,14c0,0-20.1,35.2-40.2,70.4c-10.1,17.6-20.1,35.2-27.7,48.4C1255.3,317.4,1255.3,317.4,1250.3,318.2z"/>
<path class="st24" d="M1506.7,318.2c-5-0.8-5-0.8-20.1-27.1c-7.6-13.2-17.7-30.8-27.7-48.4c-20.1-35.2-40.2-70.4-40.2-70.4
	c-3-4.9-1.6-11.3,3.3-14.3c4.9-3,11.3-1.6,14.3,3.3c0.1,0.2,0.3,0.5,0.4,0.7c31,54.2,77.9,136.4,80.3,140.3l-8.7,5.7L1506.7,318.2z"
	/>
<path class="st23" d="M2221.1,897.4v237.1c0,28.2,22.1,51.4,50.3,52.7l296.6,13.9c29.1,1.4,53.8-21.1,55.2-50.2
	c0-0.8,0.1-1.7,0.1-2.5V897.4c0-29.1-23.6-52.8-52.8-52.8h-296.6C2244.8,844.7,2221.1,868.3,2221.1,897.4z"/>
<path class="st24" d="M2297,1182.4c-4.1,0.1-8.1-1.3-11.2-4l-8.6-7.9c-4.1-3.8-5.9-9.7-4.9-16.5c1.2-7,4.5-13.5,9.4-18.6l5.7-6.2
	c0.4-0.4,0.8-0.9,1.2-1.3l107-107c1-1,2.7-1,3.7,0c1,1,1,2.7,0,3.7l-107,107c-0.4,0.4-0.7,0.7-1.1,1.1l-5.7,6.2
	c-4.2,4.4-7,9.9-8.1,15.8c-0.8,5,0.4,9.2,3.2,11.8l8.6,7.9c6,5.5,18.5,2.2,27.1-7.2l5.7-6.2c0.4-0.4,0.7-0.8,1-1.2l85.4-101.6
	c1-1,2.7-1,3.7,0c0.9,0.9,1,2.4,0.3,3.4l-85.4,101.6c-0.4,0.5-0.8,0.9-1.2,1.4l-5.7,6.2C2313.5,1178.3,2304.6,1182.4,2297,1182.4z
	 M2299.6,1165.6c-2.8,0.1-5.5-0.9-7.6-2.7c-6-5.4-4-17,4.6-26.3c3.5-4,8.1-7,13.2-8.7c5.1-1.5,9.6-0.8,12.6,1.9s4.1,7.2,3,12.4
	c-1.3,5.2-3.9,10-7.6,13.9C2312.2,1162.2,2305.3,1165.6,2299.6,1165.6L2299.6,1165.6z M2314.9,1132.3c-1.2,0-2.4,0.2-3.6,0.6
	c-4.2,1.4-7.9,3.9-10.8,7.2c-6.2,6.7-8.5,15.5-4.9,18.8c3.2,2.9,11.5,1,18.3-6.5l0,0c3.1-3.2,5.2-7.1,6.3-11.4
	c0.4-1.9,0.8-5.4-1.4-7.4C2317.7,1132.8,2316.3,1132.3,2314.9,1132.3L2314.9,1132.3z M2448,1018c-1.5,0-2.6-1.2-2.6-2.7
	c0-0.6,0.2-1.2,0.6-1.7l30.8-36.7l1.9,1.2c24,14.6,52.8,10.6,71.6-9.9c12.1-13.1,18.1-30.8,16.3-48.6c-0.2-2.3-1.8-4.3-4-5
	c-2.3-0.8-4.8-0.1-6.4,1.7l-33.3,36.2c-2.9,3.2-7.1,4.8-11.4,4.5l-17.9-1.5c-6.3-0.5-11.4-5.3-12.5-11.5l-3.1-17.7
	c-0.7-4.2,0.6-8.6,3.5-11.8l33.2-36.2c1.6-1.8,2.1-4.3,1.1-6.5c-0.9-2.2-3-3.6-5.3-3.6c-17.9-0.2-35,7.2-47,20.4
	c-18.9,20.5-20.3,49.6-3.7,72.2l1.3,1.8l-39.9,39.9c-1,1-2.7,1-3.7,0s-1-2.7,0-3.7l36.8-36.8c-16.8-24.5-14.7-55.1,5.4-77
	c13-14.4,31.6-22.4,51-22.1c4.4,0.1,8.3,2.7,10,6.8c1.8,4.1,1,8.9-2,12.2l-33.2,36.2c-1.8,2-2.6,4.7-2.1,7.3l3.1,17.7
	c0.7,3.9,3.9,6.8,7.8,7.1l17.9,1.5c2.7,0.2,5.3-0.8,7.1-2.8l33.2-36.2c3-3.3,7.7-4.5,11.9-3.1c4.2,1.3,7.2,5,7.6,9.4
	c1.9,19.3-4.5,38.5-17.6,52.7c-20.1,21.9-50.5,26.6-76.3,12l-27.9,33.2C2449.6,1017.7,2448.8,1018.1,2448,1018L2448,1018z"/>
<path class="st24" d="M2528.2,1183.7c-0.7,0-1.4,0-2.1-0.1c-6.6-0.5-12.7-3.7-16.9-8.9l-99.2-121.5c-4.3-5.2-3.6-12.9,1.5-17.3
	l19.6-17.1c5.1-4.5,12.8-4.1,17.4,0.9l106.9,114.8c9.2,9.9,8.7,25.4-1.2,34.6c-0.2,0.2-0.4,0.3-0.6,0.5l-9.2,8
	C2539.9,1181.6,2534.1,1183.7,2528.2,1183.7z M2435.6,1024.1l-19.6,17.1c-2.2,1.9-2.5,5.3-0.6,7.6l99.2,121.5
	c6.1,7.5,17.1,8.6,24.5,2.5c0.2-0.1,0.3-0.3,0.5-0.4l9.2-8c7.3-6.3,8-17.4,1.6-24.6c-0.1-0.1-0.2-0.3-0.3-0.4l-106.9-114.8
	C2441.2,1022.4,2437.9,1022.3,2435.6,1024.1L2435.6,1024.1z"/>
<path class="st24" d="M2416.2,1038.1l-86.1-100.8c-1.3,0-2.6-0.5-3.7-1.3l-25.8-19.8c-0.7-0.5-1.3-1.2-1.7-2l-11.4-22.7
	c-1.4-3-0.5-6.6,2.1-8.6l6.4-5.6c2.4-2.3,6-2.6,8.8-0.9l20.9,14.4c0.7,0.5,1.3,1.1,1.7,1.8l16.7,27.7c0.9,1.5,1.1,3.3,0.6,5
	l88.8,99.7L2416.2,1038.1z M2332.2,931.7l84.8,99.2l8.8-6.6l-87.2-98l0.9-1.6c0.3-0.4,0.4-1,0.2-1.5l-16.7-27.7
	c0-0.1-0.1-0.1-0.2-0.2l-20.9-14.4c-0.8-0.3-1.8-0.1-2.4,0.5l-6.5,5.6c-0.7,0.5-1.1,1.4-0.8,2.3l11.4,22.7c0,0.1,0.1,0.2,0.2,0.2
	l25.8,19.8c0.3,0.2,0.7,0.2,1.1,0.1L2332.2,931.7z"/>
<path class="st23" d="M425.4,231.6v283.5c0,33.7,26.5,61.4,60.1,63l354.6,16.7c34.8,1.6,64.3-25.3,65.9-60.1c0-1,0.1-1.9,0.1-2.9
	V231.6c0-34.8-28.2-63.1-63.1-63.1l0,0H488.5C453.6,168.5,425.4,196.7,425.4,231.6z"/>
<path class="st24" d="M678.9,406.6c0,25.2-1.8,50.4-6.2,75.3c-1.1,6.2-2.4,12.4-4,18.5c-1.5,6.1-3.4,12.2-5.5,18.1
	c-2.1,6-4.9,11.7-8.3,17.1c-1.7,2.7-3.8,5.1-6.2,7.3c-1.2,1.1-2.6,1.9-4,2.6c-1.5,0.7-3.1,1.1-4.7,1.1c-1.6,0-3.3-0.3-4.8-0.9
	c-1.5-0.6-2.9-1.5-4.2-2.5c-2.5-2.1-4.6-4.5-6.3-7.1c-3.4-5.3-6.2-11-8.4-17c-2.2-5.9-4.1-11.9-5.6-18c-1.6-6.1-2.9-12.3-4-18.5
	c-2.3-12.4-3.8-24.9-4.8-37.5s-1.5-25.2-1.6-37.8c0-6.3,0.1-12.6,0.4-18.9s0.6-12.6,1-18.9c0.9-12.6,2.3-25.1,4.4-37.5
	c1-6.2,2.2-12.4,3.7-18.5c1.4-6.2,3.2-12.2,5.3-18.2c1-3,2.2-5.9,3.5-8.8c1.3-2.9,2.8-5.7,4.5-8.4c1.7-2.7,3.8-5.1,6.2-7.2
	c1.2-1,2.6-1.9,4.1-2.5c1.5-0.6,3.1-0.9,4.7-0.8c1.6,0.1,3.2,0.4,4.7,1.1c1.4,0.7,2.8,1.5,4,2.5c2.4,2,4.6,4.4,6.3,7.1
	c3.5,5.3,6.4,10.9,8.7,16.8c2.3,5.9,4.3,11.9,6,18c1.7,6.1,3.1,12.2,4.3,18.4C676.8,356.1,678.8,381.4,678.9,406.6z M677,406.6
	c0-12.6-0.5-25.1-1.5-37.6c-1-12.5-2.6-25-4.9-37.3c-1.2-6.2-2.5-12.3-4.1-18.4c-1.6-6.1-3.5-12-5.7-17.9c-2.2-5.9-5-11.5-8.4-16.7
	c-1.7-2.6-3.8-5-6.1-7c-1.2-1-2.5-1.8-3.9-2.5c-1.4-0.6-2.9-1-4.4-1.1c-1.5,0-3.1,0.2-4.5,0.8c-1.4,0.6-2.7,1.4-3.9,2.4
	c-2.3,2-4.4,4.4-6,7.1c-1.7,2.6-3.1,5.4-4.4,8.3c-1.3,2.9-2.4,5.8-3.4,8.8c-2,5.9-3.6,12-5,18.1c-1.4,6.1-2.5,12.3-3.5,18.5
	c-1.9,12.4-3.2,24.9-4,37.5s-1.1,25.1-1,37.7s0.4,25.1,1.3,37.6s2.4,25,4.5,37.4c1.1,6.2,2.3,12.3,3.8,18.4c1.5,6.1,3.3,12.1,5.4,18
	c2.1,5.9,4.8,11.5,8.1,16.8c1.7,2.6,3.7,5,6.1,7c1.2,1,2.5,1.8,3.9,2.4c1.4,0.6,2.9,0.9,4.4,0.8c1.5-0.1,3-0.4,4.3-1.1
	c1.4-0.7,2.7-1.5,3.8-2.5c2.3-2.1,4.3-4.4,5.9-7.1c3.3-5.3,6-11,8-16.9c2.1-5.9,3.9-11.9,5.3-18c1.5-6.1,2.7-12.2,3.8-18.4
	c2.1-12.4,3.5-24.9,4.5-37.4S677,419.2,677,406.6L677,406.6z"/>
<path class="st24" d="M639.6,550.2c-2,0-4-0.4-5.8-1.2c-1.8-0.7-3.5-1.8-5-3c-2.8-2.3-5.1-5-7.1-8c-3.6-5.6-6.6-11.5-8.8-17.8
	c-2.2-6-4.2-12.2-5.7-18.5c-1.5-5.9-2.8-12-4.1-18.8c-2.2-11.9-3.8-24.3-4.9-37.9c-1-12.3-1.6-25.1-1.6-38.1c0-6.8,0.2-13.4,0.4-19
	c0.2-6.4,0.6-12.8,1-19c1-13.6,2.5-26,4.4-37.9c1.1-6.7,2.3-12.9,3.7-18.8c1.4-6.3,3.2-12.5,5.3-18.5c1.2-3.4,2.4-6.4,3.7-9.1
	c1.4-3.1,3-6,4.8-8.8c1.9-3,4.2-5.7,7-8c1.5-1.2,3.2-2.3,5.1-3c2-0.8,4.1-1.2,6.2-1.1c2.1,0.1,4.1,0.5,6,1.4c1.7,0.8,3.4,1.8,4.9,3
	c2.7,2.3,5,4.9,7,7.8c3.7,5.5,6.7,11.4,9.1,17.5c2.4,6,4.4,12.1,6.1,18.3c1.6,5.9,3.1,12,4.4,18.7c4.6,23.5,6.9,48.3,7,75.9l0,0
	c0,27.7-2.1,52.6-6.2,75.9c-1.2,6.7-2.5,12.8-4,18.8c-1.5,6.3-3.4,12.4-5.7,18.5c-2.2,6.2-5.1,12.2-8.6,17.8c-1.9,3-4.2,5.7-6.9,8
	c-1.5,1.3-3.1,2.3-4.9,3.2c-1.9,0.9-4,1.4-6.2,1.5L639.6,550.2z M637.7,271.8c-1,0-1.9,0.2-2.8,0.6c-1.1,0.5-2.1,1.1-3,1.9
	c-2.1,1.8-3.8,3.9-5.2,6.2c-1.6,2.5-2.9,5.1-4.1,7.8c-1.1,2.5-2.2,5.3-3.3,8.5c-1.9,5.8-3.6,11.7-4.9,17.7
	c-1.3,5.7-2.4,11.7-3.4,18.3c-1.8,11.6-3.1,23.8-3.9,37.1c-0.7,11.4-1.1,23.7-1,37.4c0,12.7,0.4,25.3,1.3,37.4
	c1,13.3,2.5,25.4,4.5,37c1.1,6.5,2.4,12.4,3.8,18.2c1.4,6,3.2,11.8,5.3,17.6c2,5.6,4.6,11,7.7,16.1c1.5,2.3,3.2,4.4,5.3,6.1
	c0.9,0.7,1.9,1.4,2.9,1.8c0.9,0.4,1.9,0.6,2.9,0.6c1,0,2-0.3,2.9-0.7c1.1-0.5,2.1-1.2,3-2c2-1.8,3.8-4,5.2-6.3
	c3.1-5.1,5.7-10.5,7.6-16.1c2.1-5.8,3.8-11.7,5.2-17.6c1.4-5.7,2.6-11.6,3.8-18.2c2-11.5,3.4-23.6,4.5-37
	c0.9-12.1,1.4-24.6,1.4-37.4l0,0c0-12.7-0.5-25.2-1.5-37.3c-1-12.4-2.6-24.7-4.8-37c-1.2-6.4-2.5-12.4-4-18.1
	c-1.5-5.9-3.4-11.8-5.6-17.5c-2.1-5.6-4.7-11-8-16c-1.5-2.3-3.3-4.4-5.4-6.2c-0.9-0.8-2-1.5-3.1-2c-0.9-0.4-2-0.7-3-0.8L637.7,271.8
	z"/>
<path class="st24" d="M742.2,406.6c0,16.3-2.2,32.4-6.5,48.1c-4.3,15.7-11.1,30.5-20.1,44.1c-4.5,6.8-9.6,13.1-15.3,18.8
	c-5.7,5.8-12,10.9-18.8,15.2c-6.8,4.3-14.2,7.7-22,10.1c-15.6,4.7-32.2,4.7-47.8,0c-7.7-2.4-15.1-5.8-22-10.1
	c-6.8-4.3-13.2-9.5-18.9-15.2c-5.7-5.8-10.8-12.1-15.3-18.8c-9-13.6-15.8-28.5-20.1-44.1c-2.2-7.8-3.8-15.8-4.9-23.9
	c-2.2-16.1-2.2-32.5,0-48.6c1.1-8.1,2.7-16,4.9-23.9c4.4-15.7,11.2-30.5,20.1-44.1c4.5-6.7,9.6-13,15.3-18.8
	c5.7-5.8,12-10.9,18.9-15.2c6.9-4.3,14.3-7.7,22-10c15.6-4.8,32.2-4.8,47.8,0c7.7,2.4,15.1,5.7,22,10.1c6.8,4.3,13.2,9.4,18.8,15.2
	c5.7,5.8,10.8,12.1,15.3,18.8c9,13.6,15.7,28.4,20.1,44.1C740,374.2,742.2,390.4,742.2,406.6z M740.1,406.6
	c0-16.1-2.1-32.1-6.2-47.6c-4.1-15.5-10.7-30.3-19.4-43.8c-4.4-6.7-9.4-13-15-18.8c-5.5-5.8-11.7-10.9-18.4-15.2
	c-6.8-4.3-14.1-7.7-21.7-10.1c-15.4-4.8-31.9-4.8-47.3,0c-7.7,2.4-15,5.8-21.7,10.1c-6.7,4.4-12.9,9.5-18.5,15.2
	c-5.6,5.8-10.6,12.1-14.9,18.8c-8.7,13.5-15.2,28.3-19.4,43.8c-2.1,7.7-3.6,15.6-4.7,23.6c-2.1,15.9-2.1,32,0,48
	c1,8,2.6,15.8,4.7,23.6c4.1,15.5,10.7,30.3,19.4,43.8c4.4,6.7,9.4,13,14.9,18.8c5.6,5.8,11.8,10.9,18.5,15.2
	c6.7,4.3,14,7.7,21.7,10.1c15.4,4.8,31.8,4.8,47.2,0c7.6-2.3,14.9-5.7,21.7-10c6.7-4.3,12.9-9.4,18.5-15.2c5.6-5.8,10.6-12,15-18.8
	c8.7-13.5,15.3-28.3,19.4-43.8C738,438.7,740.1,422.7,740.1,406.6z"/>
<path class="st24" d="M635.6,550.2c-8.5,0-16.9-1.3-25-3.7c-8.1-2.5-15.8-6-22.9-10.5c-7.1-4.5-13.6-9.7-19.5-15.7
	c-5.9-5.9-11.2-12.4-15.8-19.4c-9.2-13.9-16.1-29.1-20.6-45.2c-2.2-8-3.9-16.1-5-24.4c-1.1-8.2-1.6-16.5-1.7-24.8
	c0-8.3,0.6-16.6,1.7-24.8c1.1-8.2,2.8-16.4,5-24.4c4.5-16,11.4-31.3,20.6-45.2c4.6-6.9,9.9-13.4,15.8-19.3
	c5.9-6,12.4-11.2,19.5-15.7c7.1-4.5,14.8-8,22.9-10.5c16.3-5,33.6-5,49.9,0c8,2.5,15.7,6,22.8,10.5c7.1,4.5,13.6,9.8,19.5,15.7
	c5.9,5.9,11.1,12.4,15.8,19.4c9.2,13.9,16.1,29.1,20.6,45.1c4.4,16,6.6,32.5,6.7,49.1v0c0,16.6-2.3,33.1-6.6,49.1
	c-4.4,16-11.4,31.3-20.5,45.2c-4.6,6.9-9.9,13.4-15.8,19.4c-5.9,6-12.4,11.2-19.5,15.8c-7.1,4.5-14.8,8-22.9,10.5
	C652.5,549,644.1,550.2,635.6,550.2z M635.6,271.2c-7.7,0-15.3,1.2-22.6,3.4c-7.3,2.3-14.3,5.5-20.8,9.7
	c-6.5,4.2-12.5,9.1-17.8,14.7c-5.4,5.6-10.3,11.7-14.5,18.2c-8.5,13.2-14.8,27.6-18.9,42.7c-2,7.6-3.6,15.3-4.5,23.1
	c-2,15.6-2,31.4,0,47c1,7.8,2.5,15.5,4.5,23.1c4.1,15.1,10.5,29.6,19,42.7c4.2,6.5,9.1,12.6,14.5,18.2c5.4,5.6,11.3,10.5,17.8,14.7
	c6.5,4.1,13.5,7.4,20.8,9.6c14.7,4.6,30.4,4.6,45.1,0c7.3-2.3,14.3-5.5,20.8-9.6c6.5-4.2,12.5-9.1,17.8-14.7
	c5.4-5.6,10.2-11.6,14.5-18.1c8.5-13.2,14.9-27.6,19-42.7c8.2-30.5,8.2-62.7,0-93.2c-4.1-15.2-10.4-29.6-18.9-42.8
	c-4.2-6.5-9.1-12.7-14.5-18.3c-5.4-5.6-11.4-10.5-17.8-14.7c-6.5-4.1-13.5-7.4-20.8-9.7C650.9,272.4,643.2,271.2,635.6,271.2
	L635.6,271.2z"/>
<path class="st24" d="M511.2,351.2l32-0.3l32-0.1l64-0.1l64,0.1l32,0.2l32,0.3c0,0,0.1,0,0.1,0.1c0,0,0,0,0,0c0,0,0,0.1-0.1,0.1
	l-32,0.3l-32,0.2l-64,0.1l-64-0.1l-32-0.1l-32-0.3c-0.1,0-0.1,0-0.1-0.1C511,351.3,511.1,351.2,511.2,351.2z"/>
<polygon class="st24" points="639.3,355.7 543.2,355.4 509.6,355.2 507.4,352.9 507.4,351.3 507.5,347.7 511.2,347.5 575.2,347.1 
	639.2,347 735.3,347.3 771,347.6 771.1,355 767.3,355.1 703.3,355.6 "/>
<path class="st24" d="M548.3,297.4c7.6-0.1,15.2-0.2,22.7-0.3l22.7-0.1c7.6-0.1,15.2-0.1,22.7-0.1h22.7l45.5,0.1l22.7,0.2
	c7.6,0.1,15.2,0.1,22.7,0.3c0,0,0.1,0,0.1,0c0,0.1,0,0.1-0.1,0.1c-7.6,0.1-15.2,0.2-22.7,0.3l-22.7,0.2l-45.5,0.1h-22.7
	c-7.6,0-15.2,0-22.7-0.1l-22.7-0.1c-7.6-0.1-15.2-0.1-22.7-0.3c-0.1,0-0.1-0.1-0.1-0.1v0C548.2,297.5,548.2,297.4,548.3,297.4
	C548.3,297.4,548.3,297.4,548.3,297.4z"/>
<path class="st24" d="M639.3,301.9l-28.6-0.1c-5.6,0-11.2,0-16.9-0.1l-30.3-0.2c-5.1,0-10.1-0.1-15.2-0.2h-3.6l-0.1-7.4l3.7-0.1
	c4.9-0.1,9.8-0.1,14.7-0.2l30.8-0.2c5.3,0,10.7,0,16-0.1l29.5-0.1l76.5,0.4c4.8,0,9.7,0.1,14.5,0.2l3.7,0.1l-0.2,7.4l-3.6,0.1
	c-5,0.1-10.1,0.1-15.1,0.2l-30.3,0.2L639.3,301.9z"/>
<path class="st24" d="M500.1,405.1l34.8-0.3l34.8-0.1l69.6-0.1l69.6,0.1l34.8,0.2l34.8,0.3c0.1,0,0.1,0,0.1,0.1c0,0,0,0.1-0.1,0.1
	l-34.8,0.3l-34.8,0.2l-69.6,0.1l-69.6-0.1l-34.8-0.1l-34.8-0.3c-0.1,0-0.1-0.1-0.1-0.1v0C499.9,405.1,500,405.1,500.1,405.1z"/>
<polygon class="st24" points="639.3,409.5 534.8,409.3 496.4,409 496.3,401.5 500,401.4 569.6,401 639.2,400.9 743.7,401.1 
	780,401.4 782.2,403.7 782.1,408.9 778.5,409 708.9,409.4 "/>
<path class="st24" d="M511.2,458.9l32-0.3l32-0.1l64-0.1l64,0.1l32,0.2l32,0.3c0,0,0.1,0,0.1,0c0,0.1,0,0.1-0.1,0.1l-32,0.3l-32,0.2
	l-64,0.1l-64-0.1l-32-0.1l-32-0.3c-0.1,0-0.1-0.1-0.1-0.1C511.1,458.9,511.1,458.9,511.2,458.9L511.2,458.9z"/>
<polygon class="st24" points="639.3,463.4 543.2,463.1 509.6,462.8 507.4,460.6 507.4,459 507.5,455.4 511.2,455.2 575.2,454.8 
	639.2,454.7 735.3,455 771,455.3 771.1,462.7 767.3,462.8 703.3,463.2 "/>
<path class="st24" d="M734.8,513.4H552.9c-0.3,0-0.5-0.2-0.5-0.5s0.2-0.5,0.5-0.5h181.9c0.3,0,0.5,0.2,0.5,0.5
	S735,513.4,734.8,513.4z"/>
<path class="st24" d="M734.8,517H552.9c-2.3-0.1-4.1-2.1-4-4.4c0.1-2.1,1.8-3.9,4-4h181.9c2.3,0.1,4.1,2.1,4,4.4
	C738.6,515.2,736.9,516.9,734.8,517z"/>
<path class="st24" d="M639.2,553.1c-82.5,0-149.5-66.4-149.5-147.9s67.1-147.9,149.5-147.9s149.5,66.4,149.5,147.9
	S721.7,553.1,639.2,553.1z M639.2,270.4c-75.2,0-136.4,60.5-136.4,134.8S564,540,639.2,540s136.4-60.5,136.4-134.8
	S714.5,270.4,639.2,270.4z"/>
<path class="st24" d="M783,285.5h-42.9v-11.1l14.2-20.1c2.9-4,5.6-8.1,8-12.4c1.4-2.4,2.4-5,3.2-7.7c0.7-2.5,1-5.1,1-7.6
	c0-3.1-0.7-5.4-2.1-6.9c-1.3-1.5-3.3-2.4-5.3-2.3c-1.9,0-3.8,0.5-5.4,1.5c-2.3,1.6-4.3,3.4-6.1,5.5l-8.3-8.8
	c3.8-4.3,7.4-7.3,10.7-8.9c3.3-1.6,7-2.4,10.7-2.4c6.5,0,11.5,1.9,15.2,5.7c3.6,3.8,5.5,9.1,5.5,15.8c0,2.9-0.3,5.9-1,8.7
	c-0.7,2.8-1.7,5.6-3,8.2c-1.5,3-3.1,5.9-5,8.6c-2,3-7.2,9.8-15.5,20.5v0.4H783V285.5z"/>
<path class="st24" d="M838.2,268.7h-8.1v16.8h-14v-16.8H790v-12.1l24.2-51.2h15.9v50.9h8.1L838.2,268.7z M816.1,256.4v-16.9l0.3-7.4
	l0.4-7.1h-0.4c-1.2,3.7-2.6,7.3-4.2,10.8l-9.6,20.6H816.1z"/>
</svg>
