<?xml version="1.0" standalone="no"?>
<!DOCTYPE svg PUBLIC "-//W3C//DTD SVG 20010904//EN"
 "http://www.w3.org/TR/2001/REC-SVG-20010904/DTD/svg10.dtd">
<svg version="1.0" xmlns="http://www.w3.org/2000/svg"
 width="820.000000pt" height="844.000000pt" viewBox="0 0 820.000000 844.000000"
 preserveAspectRatio="xMidYMid meet">

<g transform="translate(0.000000,844.000000) scale(0.100000,-0.100000)"
fill="#fff" stroke="none">
<path d="M211 8018 c0 -7 159 -805 352 -1773 l352 -1760 70 -7 c39 -4 203 -14
365 -23 297 -15 1269 -69 2260 -125 761 -43 813 -46 1440 -80 311 -17 580 -33
598 -36 27 -4 33 -9 30 -27 -3 -22 -12 -23 -1113 -114 -610 -51 -1683 -139
-2384 -198 -701 -58 -1275 -106 -1276 -108 -2 -1 -21 -85 -43 -187 -23 -102
-69 -306 -102 -455 -72 -316 -162 -719 -225 -1000 -25 -110 -133 -587 -239
-1060 -107 -473 -192 -862 -191 -863 3 -4 1602 798 2510 1258 204 103 852 430
1440 726 589 296 1453 730 1920 966 468 235 1135 571 1482 746 348 174 633
320 633 323 0 3 -89 49 -198 102 -324 157 -1437 695 -1567 757 -66 32 -462
223 -880 425 -418 202 -1088 526 -1490 720 -401 194 -932 450 -1180 570 -782
378 -1335 645 -1480 715 -77 37 -351 169 -608 294 -258 124 -471 226 -473 226
-2 0 -4 -6 -3 -12z"/>
</g>
</svg>
