<?xml version="1.0" encoding="utf-8"?>
<!-- Generator: Adobe Illustrator 26.0.3, SVG Export Plug-In . SVG Version: 6.00 Build 0)  -->
<svg version="1.1" id="Layer_1" xmlns="http://www.w3.org/2000/svg" xmlns:xlink="http://www.w3.org/1999/xlink" x="0px" y="0px"
	 viewBox="0 0 3161 2000" style="enable-background:new 0 0 3161 2000;" xml:space="preserve">
<style type="text/css">
	.st0{fill:#B0B0B0;}
	.st1{fill:#D5D5D5;}
	.st2{fill:#D5D6DA;}
	.st3{fill:#C4C4C4;}
	.st4{fill:#0E2E35;}
	.st5{fill:#00A3FF;}
	.st6{fill:#FF6141;}
	.st7{fill:#3CB4C5;}
	.st8{fill:#F79C8D;}
	.st9{fill:#F48C7F;}
	.st10{fill:#F7A491;}
	.st11{fill:#13375B;}
	.st12{fill:#355389;}
	.st13{fill:#69CDF9;}
	.st14{fill:#F47458;}
	.st15{fill:#B75742;}
	.st16{fill:#595352;}
	.st17{fill:#FFFFFF;}
	.st18{opacity:0.3;fill:#DAEEF7;}
	.st19{opacity:0.2;fill:#3CB4C5;}
	.st20{opacity:0.2;fill:#8AD7F9;}
	.st21{fill:#00A6FF;}
	.st22{fill:#EAEAEA;}
	.st23{opacity:0.3;fill:#B0B0B0;}
	.st24{fill:#6DB1B5;}
	.st25{fill:#184655;}
	.st26{fill:#F8A492;}
	.st27{fill:#50EA92;}
	.st28{fill:#0BA852;}
</style>
<g>
	<g>
		<g>
			<path class="st0" d="M532.99,1423.68c-48.08-71.68-59.72-159.9-61.02-221.28c-1.41-66.64,8.72-116.94,8.82-117.44l-3.33-1.08
				c-0.1,0.5-10.32,51.17-8.91,118.25c1.3,61.99,13.07,151.12,61.75,223.68L532.99,1423.68z"/>
		</g>
		<g>
			<path class="st0" d="M491.55,1072.38c-0.58,15.11-6.59,27.99-15.63,36.08c-8.33-10.21-13.31-24.42-12.73-39.53
				c0.58-15.11,6.59-27.99,15.63-36.08C487.16,1043.05,492.13,1057.27,491.55,1072.38z"/>
		</g>
		<g>
			<path class="st0" d="M462.06,1108.27c8.18,12.77,11.1,27.53,9.09,40.51c-11.91-2.48-23.65-10.6-31.83-23.37
				c-8.18-12.77-11.1-27.53-9.09-40.51C442.15,1087.39,453.89,1095.51,462.06,1108.27z"/>
		</g>
		<g>
			<path class="st0" d="M446.12,1149.84c12.26,7.62,20.82,19.74,24.41,32.71c-11.26,3.75-24.68,2.22-36.95-5.39
				c-12.26-7.62-20.82-19.74-24.41-32.71C420.43,1140.7,433.85,1142.23,446.12,1149.84z"/>
		</g>
		<g>
			
				<ellipse transform="matrix(0.5679 -0.8231 0.8231 0.5679 -811.1843 895.4067)" class="st0" cx="447.24" cy="1220.32" rx="14.86" ry="28.71"/>
		</g>
		<g>
			<path class="st0" d="M490.29,1137.7c10.45-6.26,22.37-7.02,32.73-3.14c-2.29,11.47-9.1,21.94-19.55,28.2
				c-10.45,6.26-22.37,7.02-32.73,3.14C473.03,1154.44,479.84,1143.97,490.29,1137.7z"/>
		</g>
		<g>
			<path class="st0" d="M490.52,1177.12c10.45-6.26,22.37-7.02,32.73-3.14c-2.29,11.47-9.1,21.94-19.55,28.2
				c-10.45,6.26-22.37,7.02-32.73,3.14C473.26,1193.86,480.07,1183.39,490.52,1177.12z"/>
		</g>
	</g>
	<g>
		<g>
			<path class="st1" d="M483.45,1775.69c-100.79-36.7-171.29-124.23-212.68-191.19c-44.94-72.7-66.24-137.55-66.45-138.19
				l-4.45,1.77c0.21,0.65,21.66,65.98,66.88,139.17c41.79,67.63,113.02,156.05,215.06,193.21L483.45,1775.69z"/>
		</g>
		<g>
			<path class="st1" d="M208.26,1422.75c9.18,17.29,10.77,36.93,5.86,53.96c-16.02-3.91-30.88-15.24-40.05-32.53
				c-9.18-17.29-10.77-36.93-5.86-53.96C184.23,1394.12,199.08,1405.46,208.26,1422.75z"/>
		</g>
		<g>
			<path class="st1" d="M198.39,1488.86c17.52,6.88,30.41,20.66,36.59,36.86c-15.04,7.86-33.54,9.31-51.06,2.43
				c-17.52-6.88-30.41-20.66-36.59-36.86C162.37,1483.43,180.87,1481.98,198.39,1488.86z"/>
		</g>
		<g>
			
				<ellipse transform="matrix(0.99 -0.1411 0.1411 0.99 -219.4545 45.245)" class="st1" cx="209.28" cy="1569.95" rx="47.37" ry="20.8"/>
		</g>
		<g>
			
				<ellipse transform="matrix(0.99 -0.1411 0.1411 0.99 -227.2641 50.8399)" class="st1" cx="244.82" cy="1627.76" rx="47.37" ry="20.8"/>
		</g>
		<g>
			<path class="st1" d="M240.15,1516.97c1.02-18.25,8.63-34.73,19.83-45.98c9.96,10.87,15.75,27.11,14.73,45.36
				c-1.02,18.25-8.63,34.73-19.83,45.98C244.91,1551.47,239.13,1535.23,240.15,1516.97z"/>
		</g>
		<g>
			<path class="st1" d="M277.26,1576.81c0.75-18.26,8.13-34.88,19.17-46.33c10.13,10.67,16.15,26.79,15.4,45.05
				c-0.75,18.26-8.13,34.88-19.17,46.33C282.53,1611.19,276.5,1595.07,277.26,1576.81z"/>
		</g>
		<g>
			<path class="st1" d="M303.59,1666.8c7.16-3.78,15.03-3.9,21.67-1.02c-2.03,7.46-6.99,14.12-14.14,17.9
				c-7.16,3.78-15.03,3.9-21.67,1.02C291.48,1677.24,296.43,1670.58,303.59,1666.8z"/>
		</g>
	</g>
	<path class="st2" d="M725.15,1678.63c0,0,78.35-173,52.16-211.6c-36.2-53.35-81.21,110.35-83.41,95.96
		c-20.73-135.88-16.39-307.25-113.36-333.22c-55.12-14.76,3.64,127.99-3.2,164.77c-6.84,36.78-98.54-94.53-155.01-164.01
		c-56.47-69.47-91.05-31.14-58.32,53.14c31.65,81.5,146.33,177,120.66,185.17c-25.67,8.17-169.61-105.36-191.3-63.52
		c-26.6,51.3,195.13,141.86,172.88,152.08c-22.25,10.22-127.87-37.81-127.87,3.05s145.96,51.08,142.16,68.75
		c-6.15,28.61-97.83-44.64-104.99-4.94c-7.32,40.6,124.46,43.68,119.86,75.44c-2.65,18.25-35.84-0.85-41.84,24.24
		c-13.69,57.21,193.98,137.39,193.98,137.39L725.15,1678.63z"/>
	<path class="st1" d="M866.79,1716.73c31.53,14.77,23.02,51.45,23.02,51.45s85.48-66.75,117.44-27.79
		c31.96,38.96,15.16,115.32-22.32,127.74c-37.48,12.41-363.49,3.71-363.49,3.71S838.43,1703.44,866.79,1716.73z"/>
	<g>
		<g>
			<g>
				<path class="st3" d="M643.42,1810.83l3.02-2.58c-68.49-83.44-97.74-188.02-110.21-261.07c-13.54-79.27-10.8-139.55-10.77-140.15
					l-4.16-0.75c-0.03,0.6-2.79,61.28,10.81,141.03C544.69,1620.99,574.2,1726.5,643.42,1810.83z"/>
			</g>
			<g>
				<path class="st3" d="M534.62,1393.79c2.03,18.01-2.63,33.57-11.63,43.56c-11.46-11.81-19.76-28.53-21.79-46.53
					c-2.03-18.01,2.63-33.57,11.63-43.56C524.3,1359.07,532.59,1375.78,534.62,1393.79z"/>
			</g>
			<g>
				<path class="st3" d="M507.9,1435.73c11.74,14.86,17.76,32.31,17.75,47.84c-14.23-2.48-29.26-11.67-41-26.53
					c-11.74-14.86-17.76-32.31-17.75-47.84C481.13,1411.68,496.16,1420.87,507.9,1435.73z"/>
			</g>
			<g>
				<path class="st3" d="M496.88,1485.83c15.55,8.57,27.62,22.65,34.09,37.95c-12.36,4.92-28.16,3.64-43.71-4.93
					c-15.55-8.57-27.62-22.65-34.09-37.95C465.53,1475.98,481.33,1477.26,496.88,1485.83z"/>
			</g>
			<g>
				<path class="st3" d="M524.67,1568.31c6.71,3.11,12.15,8.67,15.3,14.92c-4.98,2.49-11.58,2.47-18.29-0.64
					c-6.71-3.11-12.15-8.67-15.3-14.92C511.36,1565.18,517.96,1565.2,524.67,1568.31z"/>
			</g>
			<g>
				<path class="st3" d="M533.1,1599.07c6.71,3.11,12.15,8.67,15.3,14.92c-4.98,2.49-11.58,2.47-18.29-0.64
					c-6.71-3.11-12.15-8.67-15.3-14.92C519.79,1595.93,526.39,1595.96,533.1,1599.07z"/>
			</g>
			<g>
				<path class="st3" d="M545.81,1469.62c10.97-7.87,24.62-9.25,37.31-5.05c-0.6,13.74-6.61,26.47-17.58,34.35
					c-10.97,7.87-24.62,9.25-37.31,5.05C528.84,1490.23,534.84,1477.49,545.81,1469.62z"/>
			</g>
			<g>
				<path class="st3" d="M553.12,1516.52c10.97-7.87,24.62-9.25,37.31-5.05c-0.6,13.74-6.61,26.47-17.58,34.34
					s-24.62,9.25-37.31,5.05C536.14,1537.12,542.14,1524.39,553.12,1516.52z"/>
			</g>
			<g>
				<path class="st3" d="M557.91,1584.24c7.14-5.12,16.03-6.02,24.28-3.29c-0.39,8.94-4.3,17.23-11.44,22.35
					c-7.14,5.12-16.03,6.02-24.28,3.29C546.86,1597.65,550.77,1589.37,557.91,1584.24z"/>
			</g>
		</g>
	</g>
	<path class="st3" d="M695.07,1873.44c0,0-100.13-128.55-141.98-148.25c-44.6-20.99-5.93,51.74-5.93,51.74
		s-95.36-93.68-117.76-70.29c-22.4,23.39,1.52,45.28,1.52,45.28s-79.85-14.84-91.5,15.08c-17.89,45.97,113.45,68.83,113.45,68.83
		s-62.92-13.81-50.33,14.65C421.52,1893.4,695.07,1873.44,695.07,1873.44z"/>
	<path class="st1" d="M339.42,1767c11.64-29.91,91.5-15.08,91.5-15.08s-23.92-21.89-1.52-45.28c22.4-23.39,97.05,31.85,97.05,31.85
		s-11.57-50.77,44.51-10.83c40.05,28.53,117.36,134.93,117.36,134.93L339.42,1767z"/>
	<g>
		<g>
			<path class="st3" d="M621.45,1871.51c0,0,159.55,11.28,190.62-17.29c31.08-28.57,0.25-80.33,0.25-80.33s54.75-43.28,53.89-71.54
				c-0.85-28.26-36.52-13.92-36.52-13.92s60.45-77.84,46.12-92.65c-26.71-27.57-96.6,53.34-96.6,53.34s20.74-38.49-1.14-44.6
				c-33-9.22-57.28,85.71-57.28,85.71s6.16-37.49-16.59-32.51C663.37,1666.66,621.45,1871.51,621.45,1871.51z"/>
		</g>
	</g>
	<polygon class="st4" points="753.94,1873.27 740.59,1873.27 790.35,1614.68 801.45,1616.79 	"/>
	<path class="st3" d="M2211.93,1431.65l12.88-31.23c9.99-22.97,35.57-33.94,57.12-24.5l0,0c54.31,23.79,77.92,90,52.74,147.89
		l-18.41,42.32c-8.07,18.54-5.26,38.94,5.62,53.32c9.88,13.06,11.49,31.22,4.64,46.97l-9.71,22.31
		c-10.51,24.16-30.96,42.05-55.21,49.42c-14.18,4.32-26.71,15-33.33,30.22l-13.74,31.59c-15.19,34.93-54.08,51.61-86.84,37.25
		l-18.7-8.19c-32.77-14.35-47.01-54.3-31.82-89.23l0,0c24.57-41.76,22.61-72.93,13.91-94.07c-12.8-31.09-12.65-66.85,1.2-98.69
		l1.94-4.46c14.62-33.6,42.85-58.69,76.46-69.43C2185.51,1468.4,2200.98,1456.82,2211.93,1431.65z"/>
	<path class="st1" d="M1977.86,1870.39c26.36-34.29,172.8-216.39,267.04-247c104.02-33.79,5.98,100.41,5.98,100.41
		s184.53-202.46,252.24-184.21c62.07,16.73,0,142.22,0,142.22s69.91-69.49,154.69-69.49c82.51,0-57.29,252.67-64.85,265.86
		L1977.86,1870.39z"/>
	<g>
		<g>
			<path class="st0" d="M2533.81,1480.68c-75.39,118.15-130.32,255.24-161.78,394.67l-7.46-0.08
				c31.33-136.51,88.18-274.68,163.45-392.7c17.49-27.43,36.38-59.97,69.13-70.67c0.63-0.21,0.87,0.76,0.27,0.99
				C2567.5,1424.2,2550.17,1455.03,2533.81,1480.68z"/>
		</g>
		<g>
			<path class="st0" d="M2389.17,1875.61c84.25-114.96,187.61-222.42,309.4-314.81c1.22-0.92,2.86,1.2,1.63,2.15
				c-115.51,89.09-217.33,193.84-303.32,312.73L2389.17,1875.61z"/>
		</g>
		<path class="st0" d="M2540.7,1407.41c1.94,2.86,9.37,10.33,11.55,20.15c2.93,9.31,0.62,20.96,0.37,20.56
			c-0.56,0.23,8.6-7.54,11.46-19.89c3.7-11.85,1.11-28.29-3.5-33.73c-7.96-12.31-21.85-13.56-24.55-7.59
			C2533.16,1392.83,2536.79,1400.9,2540.7,1407.41z"/>
		<path class="st0" d="M2558.73,1512.87c-2.81-2-10.11-9.6-19.85-11.99c-9.22-3.12-20.88-1.03-20.47-0.77
			c-0.24,0.56,7.68-8.48,20.05-11.1c11.88-3.48,28.21-0.56,33.54,4.17c12.11,8.22,13.08,22.19,7.08,24.78
			C2573.11,1520.72,2565.15,1516.92,2558.73,1512.87z"/>
		<path class="st0" d="M2531.51,1559.09c-2.81-2-10.11-9.6-19.85-11.99c-9.22-3.12-20.88-1.03-20.47-0.77
			c-0.24,0.56,7.68-8.47,20.04-11.1c11.88-3.48,28.21-0.56,33.54,4.17c12.11,8.22,13.08,22.19,7.08,24.78
			C2545.9,1566.94,2537.93,1563.14,2531.51,1559.09z"/>
		<path class="st0" d="M2628.6,1666.3c-2.81-2-10.11-9.6-19.85-11.99c-9.22-3.12-20.88-1.03-20.47-0.77
			c-0.24,0.56,7.68-8.48,20.04-11.1c11.88-3.48,28.21-0.56,33.54,4.17c12.11,8.22,13.08,22.19,7.08,24.78
			C2642.98,1674.15,2635.02,1670.35,2628.6,1666.3z"/>
		<path class="st0" d="M2678.2,1622.46c-2.82-2-10.11-9.6-19.85-11.99c-9.22-3.12-20.88-1.03-20.47-0.77
			c-0.24,0.56,7.68-8.48,20.05-11.1c11.88-3.48,28.21-0.56,33.54,4.17c12.11,8.22,13.08,22.19,7.08,24.78
			C2692.59,1630.3,2684.62,1626.5,2678.2,1622.46z"/>
		<path class="st0" d="M2502.61,1459.71c2.37,2.52,10.88,8.72,14.57,18.07c4.36,8.73,3.9,20.6,3.59,20.24
			c-0.52,0.32,7.3-8.8,8.19-21.46c1.79-12.29-3.35-28.11-8.75-32.76c-9.79-10.9-23.71-9.93-25.44-3.61
			C2492.88,1446.5,2497.73,1453.9,2502.61,1459.71z"/>
		<path class="st0" d="M2462.59,1512.13c3.37,1.79,15.14,5.04,21.06,13.88c6.7,7.86,7.55,21.31,7.1,21.04
			c-0.63,0.58,8.39-12.97,8-27.48c0.83-14.49-7.74-29.93-15.3-32.79c-13.99-7.94-31.9-0.86-33.37,6.94
			C2448.39,1501.59,2455.57,1507.74,2462.59,1512.13z"/>
		<path class="st0" d="M2420.46,1591.52c3.62,1.2,15.77,2.42,23.08,10.13c7.92,6.62,11.01,19.73,10.53,19.54
			c-0.52,0.67,6.09-14.2,3.28-28.43c-1.61-14.42-12.65-28.2-20.58-29.74c-15.13-5.47-31.59,4.54-31.73,12.47
			C2404.7,1583.53,2412.81,1588.38,2420.46,1591.52z"/>
		<path class="st0" d="M2545.12,1646.83c2.64,1.65,12.03,4.97,16.34,12.49c5,6.78,4.93,17.77,4.58,17.52
			c-0.55,0.43,7.56-10.07,8.07-21.89c1.5-11.74-4.6-24.79-10.58-27.54c-10.93-7.26-25.9-2.52-27.54,3.74
			C2534.16,1637.44,2539.66,1642.86,2545.12,1646.83z"/>
		<path class="st0" d="M2610.01,1426c-1.58-1.31-5.56-6.12-11.22-7.96c-5.32-2.25-12.3-1.53-12.08-1.36
			c-0.17,0.32,4.91-4.68,12.34-5.69c7.18-1.54,16.71,0.91,19.66,3.94c6.8,5.4,6.77,13.7,3.11,14.97
			C2618.18,1431.27,2613.63,1428.67,2610.01,1426z"/>
		<path class="st0" d="M2594.9,1392.26c0.07,2.05,1.44,8.16-0.56,13.78c-1.47,5.6-6.31,10.71-6.3,10.43
			c-0.35-0.06,6.69-1.05,12.02-6.34c5.6-4.77,9.48-13.84,8.89-18.03c-0.1-8.7-6.68-13.74-9.92-11.61
			C2595.72,1382.55,2595,1387.75,2594.9,1392.26z"/>
		<path class="st0" d="M2713.92,1577.79c-1.58-1.31-5.56-6.12-11.22-7.96c-5.32-2.25-12.3-1.53-12.08-1.36
			c-0.17,0.32,4.91-4.68,12.34-5.69c7.18-1.54,16.71,0.91,19.66,3.94c6.81,5.4,6.77,13.7,3.11,14.97
			C2722.09,1583.07,2717.54,1580.46,2713.92,1577.79z"/>
		<path class="st0" d="M2695.69,1543.76c0.24,2.04,2.1,8.01,0.56,13.78c-1,5.7-5.41,11.19-5.43,10.91
			c-0.36-0.03,6.58-1.59,11.47-7.3c5.19-5.21,8.32-14.57,7.39-18.7c-0.82-8.66-7.78-13.15-10.83-10.75
			C2695.72,1534.02,2695.42,1539.26,2695.69,1543.76z"/>
	</g>
	<path class="st0" d="M2613.62,1739.71c0.5,3.17,3.79,12.37,1.76,21.46c-1.2,8.96-7.73,17.81-7.77,17.37
		c-0.56-0.03,10.17-2.91,17.42-12.14c7.76-8.47,12.05-23.27,10.33-29.66c-1.83-13.47-12.99-20.02-17.6-16.08
		C2613.03,1724.5,2612.91,1732.7,2613.62,1739.71z"/>
	<path class="st0" d="M2545.8,1764.07c0.5,3.17,3.79,12.37,1.76,21.46c-1.2,8.96-7.73,17.82-7.77,17.37
		c-0.56-0.03,10.17-2.91,17.42-12.14c7.76-8.47,12.05-23.27,10.33-29.66c-1.83-13.47-12.99-20.02-17.6-16.08
		C2545.21,1748.87,2545.09,1757.07,2545.8,1764.07z"/>
	<path class="st0" d="M2476.88,1794.89c0.5,3.17,3.79,12.37,1.76,21.46c-1.2,8.96-7.73,17.81-7.77,17.37
		c-0.56-0.03,10.17-2.91,17.42-12.14c7.76-8.47,12.05-23.27,10.33-29.66c-1.83-13.47-12.99-20.02-17.6-16.08
		C2476.3,1779.69,2476.18,1787.89,2476.88,1794.89z"/>
	<path class="st0" d="M2633.86,1803.29c-1.39-2.62-4.09-11.24-10.64-16.8c-5.87-5.93-15.6-8.8-15.39-8.45
		c-0.4,0.33,9.11-3.55,19.59-0.81c10.43,1.89,21.83,10.4,24.11,16.07c6.14,10.95,1.56,22.02-4.02,21.71
		C2641.89,1814.82,2637.24,1808.85,2633.86,1803.29z"/>
	<path class="st0" d="M2563.32,1828.34c-1.39-2.62-4.09-11.24-10.64-16.8c-5.87-5.93-15.6-8.8-15.39-8.45
		c-0.4,0.33,9.11-3.55,19.59-0.81c10.43,1.89,21.83,10.4,24.11,16.07c6.14,10.95,1.56,22.02-4.02,21.7
		C2571.35,1839.88,2566.69,1833.9,2563.32,1828.34z"/>
	<path class="st0" d="M2687.59,1777.5c-1.22-1.46-4.05-6.52-8.89-9.14c-4.47-2.95-10.96-3.46-10.78-3.27
		c-0.21,0.26,5.26-3.43,12.2-3.11c6.8-0.19,15.07,3.64,17.26,6.89c5.3,6.06,3.88,13.62,0.33,14.16
		C2694.15,1783.67,2690.44,1780.54,2687.59,1777.5z"/>
	<path class="st0" d="M2679.45,1744.22c-0.28,1.88-0.05,7.68-2.81,12.46c-2.27,4.86-7.53,8.7-7.48,8.44
		c-0.31-0.12,6.27,0.17,12.01-3.75c5.89-3.4,10.95-11.01,11.11-14.93c1.36-7.95-3.79-13.65-7.1-12.24
		C2681.82,1735.51,2680.29,1740.13,2679.45,1744.22z"/>
	<path class="st5" d="M2320.19,858.46c4.13,0.51,7.66-4.1,6.62-7.97c-1.66-6.22-3.22-12.47-4.82-18.72
		c-3.52-13.78-4.09-14.21-3.12-15.38c2.31-2.78,7.87,0.46,9.81,1.84c4.3,3.07,7.85,7.25,12.75,9.41
		c9.55,4.22,19.04-1.22,17.48-12.15c-1.42-10.01-3.42-20.01-5.48-29.96c9.99,5.35,19.85,10.98,29.91,16.18
		c3.57,1.84,7.17-0.75,6.69-4.71c-1.07-8.8-4.24-34.84-5.28-43.43c-0.27-2.22-2.75-12.42-0.5-13.56c2.02-1.03,8.72,3.17,10.32,3.92
		c8.86,4.1,12.04,5.43,41.15,18.11c3.47,1.51,7.94-2.51,6.69-6.14c-12.33-35.76-7.84-37.35-14.13-43.72
		c-1.41-1.43-3.35-0.76-4.13,0.9c-1.99,4.23-2.17,5.39,1.59,21.81c0.97,4.25,2.05,8.47,3.24,12.66
		c-35.06-16.07-43.52-20.96-50.92-14.22c-5.14,4.68-3.93,6.73,2.19,56.01c-10.19-6.15-20.69-11.65-31.17-17.38
		c-3.98-2.18-8.29,0.91-7.63,5.37c5.27,35.82,6.87,36.54,6.48,39.82c-0.01,0.09,1.78,1.1-1.01-0.01
		c-4.74-1.88-11.58-11.62-21.22-13.31c-8.47-1.49-18.27,2.88-19.07,12.36c-0.47,5.51,0.92,7.92,5.5,28.15
		c-10.17-0.96-20.42-0.7-31.3,0.84c-4.72,0.67-7.73,1.72-11.46,4.73c-3.04,2.47-1.9,8.26,1.99,9.18
		C2282.39,861.7,2289.6,854.7,2320.19,858.46z"/>
	<path class="st6" d="M2486.6,1002.72c1.38-9.64,3.35-18.66,6.49-28.27c0.59-1.81,1.29-5.31,3.47-5.9c5.26-1.43,9.64,8.18,25.61,17
		c6.93,3.83,20.92,12.34,27.13,3.35c3.19-4.61,4.02-11.37,5.58-16.67c1.18-4.02,2.52-8,3.78-11.99
		c25.4,16.08,23.33,17.23,30.44,16.36c1.84-0.23,3.44-2.47,2.92-4.29c-1.91-6.77-1.66-4.93-33.49-25.52
		c-2.9-1.88-7.47-0.84-8.53,2.78c-1.59,5.44-7.49,30.5-8.71,33.46c-0.23-0.28-1.63-0.42-1.91-0.52
		c-11.46-3.85-19.94-10.94-29.16-18.4c-7.55-6.11-19.22-9.66-25.2,0.55c-3.24,5.54-6.3,18.06-8.24,27.82
		c-15.28-10.43-30.48-20.97-45.82-31.29c-3-2.02-8.49-0.98-9.4,3.06c-2.53,11.24-5.43,22.36-8.43,33.46
		c-8.95-6.22-16.9-13.81-23.58-22.49c-4.92-6.39-15.51,0.02-1.99,15.29c7.29,8.79,15.97,16.2,25.85,22.22
		c3.27,1.99,8.2,0.99,9.42-3.07c3.28-10.91,6.08-21.98,8.65-33.09c15.34,10.2,30.8,20.24,46.14,30.44
		C2481.38,1009.52,2485.99,1007,2486.6,1002.72z"/>
	<path class="st7" d="M2479.18,1241.27c-0.93,3.38,0.57,6.16,3.57,7.67c14.67,7.41,29.59,13.42,45.96,15.4
		c8.51,1.03,9.21-11.89,1.03-13.39c-12.82-2.35-25.85-5.46-37.9-10.8c3.08-9.23,7.02-18.08,11.99-26.42c1.89-3.17,1-8.45-3.06-9.53
		c-10.09-2.7-48.61-11.78-49.07-11.47c0.05-0.06,0.2-0.3,0.27-1.02c0.46-4.25,7.49-17.05,9.05-23.4
		c1.74-7.12-6.82-12.45-12.31-14.67c-11.14-4.51-26.3-0.02-36.14-7.8c-9.46-7.48,7.63-20.72,2.89-36.46
		c-3.65-12.13-16.04-12.5-35.19-14.4c-4.7-0.47-9.29-0.87-12.84,2.84c-0.88,0.92-1.44,2.48-0.72,3.71
		c3.94,6.69,11.16,6.35,28.53,8.54c2.21,0.28,6.14,0.09,7.55,2.2c4.7,7.05-8.69,18.58-4.87,32.81c2.98,11.08,14,16.24,24.14,17.97
		c7.95,1.36,18.75-0.29,25.71,4.8c-2.41,6.54-5.02,13.08-6.92,19.75c-2.07,7.29,0.13,13.46,7.27,16.24
		c7.89,3.07,16.64,4.47,24.82,6.5c5.51,1.37,11.01,2.76,16.53,4.08C2485.24,1223.02,2481.75,1231.94,2479.18,1241.27z"/>
	<path class="st7" d="M2159.04,685.48c-32.74-48.41-64.32-23.02-56.24-4.56c3.46,7.91,12.8,11.25,19.71,5.52
		c3.16-2.62,1.54-9-2.91-8.93c-3.69,0.05-3.34-4.02,0.68-4.44c5.42-0.56,10.23,4.72,13.73,8.16c8.17,8.03,18.88,18.32,16.91,30.98
		c-2.94,18.89-27.12,32.6-51.32,13.87c-34.91-27.01-13.82-91.01,31.22-89.27c24.5,0.95,46.09,17.9,54.48,40.78
		c1.64,4.47,7.79,1.64,7.41-2.47c-2.89-31.12-35.22-52.28-64.94-50.87c-30.48,1.45-52.89,26.45-57.14,55.81
		c-4.46,30.78,13.46,62.83,45.17,68.84C2150.56,755.48,2181.93,719.33,2159.04,685.48z"/>
	<path class="st0" d="M2430.37,1333.79c-5.6-7.04-19.27-14.42-26.88-6.21c-3.54,3.81-3.95,9.7,0.75,12.95
		c4.59,3.18,10.14,1.86,12.67,7.73c2.17,5.04-1.58,10.22-5.73,12.93c-12.65,8.24-31.62-1.09-40.99-10.54
		c-14.88-15.01-10.41-41.37,12.39-47.84c7.13-2.02,14.35-0.78,21.6-0.34c4.01,0.24,7.57-5.15,4.21-8.33
		c-12.94-12.22-34.66-7.94-47.53,2.32c-13.51,10.77-18.9,30.25-14.24,46.71c5.2,18.39,22.69,31.98,40.54,37.08
		C2424.25,1390.84,2448.5,1356.61,2430.37,1333.79z"/>
	<g>
		<path class="st4" d="M763.38,1015.08c0.98-23.82-2.5-47.34-13.08-69.51c-9.1-19.08-31.61-29.91-52.14-29.93
			c-65.19-0.09-73.48,86.71-114.98,120.19c-12.68,10.23-26.85,18.56-38.85,29.6c-44.31,40.74-24.35,116.15,16.33,151.87
			c28.23,24.78,72.6,38.87,107.4,19.49c18.16-10.11,31.95-26.93,41.77-45.34c13.94-26.14,22.93-56.31,32.84-84.17
			C753.23,1077.62,762.08,1046.74,763.38,1015.08z"/>
		<path class="st8" d="M623.57,1024.91c0,0-47.88-86.12-59.53-104.42c-11.65-18.31-41.99-91.05-43.08-93.91
			c-1.08-2.87,20.9-37.29,15.99-38.47c-4.91-1.18-10.34,18.15-15.57,15.84c-5.23-2.31-20.53-48.84-23.51-46.53
			c-5.58,4.32,8.24,28.86,5.27,30.41c-2.98,1.55-11.99-27-17.83-26.16c-5.84,0.84,11.11,26.17,9.48,28.41
			c-1.63,2.24-19.24-21.63-22.42-16.54c-1.73,2.76,16.19,20.83,12.75,22.52c-3.44,1.69-19.38-9.97-21.07-6.61
			c-1.69,3.36,14.74,7.97,19.65,17.04c4.91,9.07,13.28,12.99,16.75,29.78c3.47,16.79,8.67,77.56,26.46,107.87
			c17.79,30.32,56.93,97.41,56.93,97.41L623.57,1024.91z"/>
		<path class="st9" d="M876.94,1341.81l-74.44-56.98c0,0-7.49-53.16-17.52-100.34c-12.56,3.56-23.9,13.45-36.47,16.9l18.93,105.64
			l97.57,50.51l27.56,35.54l6.27-36.48L876.94,1341.81z"/>
		<path class="st5" d="M774.03,1130.42c-20.36-61.98-43.13-59.34-43.13-59.34l17.61,130.31c12.57-3.45,28.95-11.13,41.51-14.69
			C785.85,1167.11,779.04,1145.69,774.03,1130.42z"/>
		<path class="st10" d="M559.59,1781.91c0,0-4.59,32.04-12.49,42.38c-2.65,3.47-7.5,7.86-10.68,14.13
			c-4.95,9.76-2.21,24.3,1.44,32.3c1.87,4.11-0.13,4.1,4.14,5.42c12.64,3.92,26.08-2.68,31.46-14.86c3.01-6.8,5.64-15.87,6.17-27.3
			c1.35-29.09,10.35-43.88,10.35-43.88L559.59,1781.91z"/>
		<path class="st10" d="M697.83,1796.56c0,0,2.84,36.13,0.53,47.87c-1.23,6.29-8.1,19.23-4.95,25.14c3.15,5.92,6.75,7.4,6.75,7.4
			l81.6,1.32c4.44,0.07,1.51-2.8-2.08-5.45c-5.87-4.34-10.6-7.21-29.34-16.32c-1.22-0.59-5.67-3.44-7.28-4.43
			c-4.07-2.5-8.15-6.43-11.67-10.37c-5.86-6.56-6.37-38.38-6.37-38.38L697.83,1796.56z"/>
		<path class="st11" d="M761.61,1316.34c0,0,10.28,58.66,3.53,97.11c-6.75,38.46-39.13,394.91-39.13,394.91l-35.99,2.04
			c0,0-7.54-148.9-6.19-169.6c1.35-20.71,12.03-55.36,12.03-55.36l-3.58-120.22l45.41-157.93L761.61,1316.34z"/>
		<path class="st12" d="M655.84,1304c0,0-28.34,42.89-35.08,78.39c-6.75,35.5,4.95,144.59-8.03,191.11
			c-7.03,25.18-33.65,64.07-37.7,96.61c-4.05,32.54-19.93,117.77-19.93,117.77l35.97,7.17l83.6-212.87l65.57-192.4l16.8-99.09
			L655.84,1304z"/>
		<path class="st13" d="M678.78,1059.96c0,0-37.52-2.4-52.36,13.87c-14.84,16.27,32.93,144.97,35.62,165.68
			c2.7,20.71-13.76,75.76-13.76,75.76s88.13,17.84,113.32,1.07c0,0,2.7-148.9,0-163.69c-2.7-14.79-25.19-74.94-30.59-80.86
			C725.63,1065.87,678.78,1059.96,678.78,1059.96z"/>
		<path class="st10" d="M691.27,1009.54c0,0-0.19,1.11-0.54,3c-1.67,9.07-8.11,39.16-12.47,47.44c-5.26,10,18,41.88,40.39,37.99
			c6.66-1.16-5.63-29.3-5.04-32.28c1.13-5.71,2.67-13.49,4.24-21.47c0.89-4.5,1.78-9.07,2.62-13.36
			c2.39-12.19,4.35-22.16,4.35-22.16L691.27,1009.54z"/>
		<path class="st14" d="M690.73,1012.54c0.35-1.89,0.54-3,0.54-3l33.55-0.84c0,0-1.95,9.97-4.35,22.16
			c-0.84,4.27-1.73,8.8-2.61,13.28c-5.18-0.77-10.59-3.3-16.02-8.08c-5.92-5.21-9.79-11.47-12.13-18.15
			C690.12,1015.79,690.47,1013.95,690.73,1012.54z"/>
		<path class="st10" d="M713.85,932.84c0,0-15.81-1.84-25.73,11.06s-20.6,52.77,4.03,74.44c24.62,21.68,48.95-2.86,52.56-28.88
			C748.32,963.45,749.73,931.9,713.85,932.84z"/>
		<path class="st10" d="M752,989.08c-2.94,5.75-7.87,8.93-11.02,7.11c-3.15-1.82-3.31-7.96-0.38-13.7
			c2.94-5.75,7.87-8.93,11.02-7.11C754.77,977.2,754.94,983.34,752,989.08z"/>
		<path class="st4" d="M715.62,928.58c0,0-21.13,37.92-36.24,39.67c-15.11,1.75-17.1,21.9-17.1,21.9s5.4-46.43,20.37-55.38
			C697.61,925.82,715.62,928.58,715.62,928.58z"/>
		<path class="st15" d="M575.91,1854.88c-19.6,3.59-32.65-7.94-39.44-16.57c-4.98,9.78-7.41,24.38-3.75,32.41
			c3.23,7.08,12.66,6.87,20.09,7.15c7.85,0.29,13.93-4.09,17.83-10.97C572.46,1863.68,574.34,1859.68,575.91,1854.88z"/>
		<path class="st15" d="M743.06,1852.08c-21.58,5.57-37.53,1.78-46.46-1.84c-2.3,6.56-5.35,14.79-3.73,19.53
			c1.98,5.81,4.8,7.12,7.29,7.19c19.71,0.52,72.2,1.23,87.24,1.43c2.1,0.03,3.26-2.44,1.91-4.06
			C785.58,1869.86,744.67,1853.07,743.06,1852.08z"/>
		<path class="st10" d="M683.34,977.78c1.23,6.73-1.24,12.91-5.52,13.79c-4.28,0.88-8.74-3.86-9.97-10.59s1.24-12.91,5.52-13.79
			C677.65,966.3,682.12,971.04,683.34,977.78z"/>
		<path class="st5" d="M610.32,997c0,0,52.96,57.27,60.84,80.36c7.87,23.08-7.68,56.1-29.15,57.54s-69.26-101.66-69.26-101.66
			L610.32,997z"/>
	</g>
	<path class="st16" d="M1669.4,271.51L1669.4,271.51c-0.07-0.02-0.13-0.04-0.2-0.07c-1.87-0.67-3.78-1.28-5.7-1.83
		c-0.66-0.19-1.31-0.39-1.97-0.56c-0.7-0.18-1.4-0.35-2.1-0.52c-0.71-0.17-1.43-0.34-2.15-0.5c-0.68-0.15-1.36-0.28-2.05-0.41
		c-0.77-0.15-1.54-0.29-2.31-0.41c-0.66-0.11-1.31-0.21-1.98-0.31c-0.84-0.12-1.67-0.22-2.52-0.32c-0.61-0.07-1.22-0.14-1.84-0.2
		c-0.96-0.09-1.93-0.16-2.9-0.22c-0.51-0.03-1.02-0.08-1.53-0.1c-1.49-0.07-2.99-0.11-4.5-0.11H946.02c-1.61,0-3.21,0.04-4.8,0.12
		c-3.18,0.16-6.32,0.48-9.4,0.96c-1.54,0.24-3.08,0.51-4.59,0.82c-39.46,8.1-69.85,41.21-73.99,82.11
		c-0.32,3.15-0.48,6.34-0.48,9.57v1154.87v263.48c0,40.5,25.64,74.98,61.53,88.01l0,0c0.16,0.06,0.32,0.11,0.48,0.16
		c1.78,0.63,3.59,1.21,5.41,1.73c0.66,0.19,1.31,0.39,1.98,0.56c0.7,0.18,1.4,0.35,2.1,0.52c0.71,0.17,1.43,0.34,2.15,0.5
		c0.68,0.15,1.36,0.28,2.05,0.41c0.77,0.15,1.54,0.29,2.31,0.41c0.66,0.11,1.31,0.21,1.97,0.31c0.83,0.12,1.67,0.22,2.52,0.32
		c0.61,0.07,1.22,0.14,1.84,0.2c0.96,0.09,1.93,0.16,2.9,0.22c0.51,0.03,1.02,0.08,1.53,0.1c1.49,0.07,2.99,0.11,4.5,0.11h691.65
		c3.22,0,6.4-0.16,9.54-0.48c43.89-4.47,78.79-39.49,83.25-83.53c0.32-3.15,0.48-6.34,0.48-9.57V623V359.52
		C1730.93,319.02,1705.28,284.54,1669.4,271.51z"/>
	<rect x="897.96" y="393.48" class="st17" width="787.75" height="1350.42"/>
	<path class="st17" d="M1460.16,351.05h-335.35c-0.48,0-0.87-0.39-0.87-0.87v-15.19c0-0.48,0.39-0.87,0.87-0.87h335.35
		c0.48,0,0.87,0.39,0.87,0.87v15.19C1461.02,350.66,1460.63,351.05,1460.16,351.05z"/>
	<ellipse class="st18" cx="1291.39" cy="1808.96" rx="38.69" ry="38.82"/>
	<rect x="897.96" y="1687.24" class="st19" width="787.75" height="56.66"/>
	<rect x="897.96" y="393.48" class="st20" width="787.75" height="71.66"/>
	<path class="st18" d="M1056.78,426.51H372.64c-23.63,0-42.79,19.22-42.79,42.93v283.29c0,23.71,19.16,42.93,42.79,42.93h538.62
		c21.8,30.52,61.32,85.18,64.81,85.18c3.27,0-3.02-51.63-7.45-85.18h88.16c23.63,0,42.79-19.22,42.79-42.93V469.45
		C1099.57,445.73,1080.41,426.51,1056.78,426.51z"/>
	<path class="st21" d="M1028.53,353.03H344.39c-23.63,0-42.79,19.22-42.79,42.93v283.29c0,23.71,19.16,42.93,42.79,42.93h538.62
		c21.8,30.52,61.32,85.18,64.81,85.18c3.27,0-3.02-51.63-7.45-85.18h88.16c23.63,0,42.79-19.22,42.79-42.93V395.96
		C1071.32,372.25,1052.17,353.03,1028.53,353.03z"/>
	<path class="st17" d="M708.7,463.58H373.31c-0.53,0-0.96-0.43-0.96-0.96v-16.78c0-0.53,0.43-0.96,0.96-0.96H708.7
		c0.53,0,0.96,0.43,0.96,0.96v16.78C709.66,463.15,709.23,463.58,708.7,463.58z"/>
	<path class="st17" d="M516.7,512.94H373.31c-0.53,0-0.96-0.43-0.96-0.96v-16.78c0-0.53,0.43-0.96,0.96-0.96H516.7
		c0.53,0,0.96,0.43,0.96,0.96v16.78C517.66,512.51,517.23,512.94,516.7,512.94z"/>
	<path class="st17" d="M985.32,512.94H535c-0.53,0-0.96-0.43-0.96-0.96v-16.78c0-0.53,0.43-0.96,0.96-0.96h450.31
		c0.53,0,0.96,0.43,0.96,0.96v16.78C986.28,512.51,985.85,512.94,985.32,512.94z"/>
	<path class="st17" d="M986.68,463.58H745.1c-0.53,0-0.96-0.43-0.96-0.96v-16.78c0-0.53,0.43-0.96,0.96-0.96h241.59
		c0.53,0,0.96,0.43,0.96,0.96v16.78C987.64,463.15,987.21,463.58,986.68,463.58z"/>
	<path class="st17" d="M986.68,609.68H373.31c-0.53,0-0.96-0.43-0.96-0.96v-16.78c0-0.53,0.43-0.96,0.96-0.96h613.37
		c0.53,0,0.96,0.43,0.96,0.96v16.78C987.64,609.25,987.21,609.68,986.68,609.68z"/>
	<path class="st17" d="M689.25,562.29H373.31c-0.53,0-0.96-0.43-0.96-0.96v-16.78c0-0.53,0.43-0.96,0.96-0.96h315.94
		c0.53,0,0.96,0.43,0.96,0.96v16.78C690.21,561.86,689.78,562.29,689.25,562.29z"/>
	<path class="st17" d="M986.68,562.29H709.63c-0.53,0-0.96-0.43-0.96-0.96v-16.78c0-0.53,0.43-0.96,0.96-0.96h277.06
		c0.53,0,0.96,0.43,0.96,0.96v16.78C987.64,561.86,987.21,562.29,986.68,562.29z"/>
	<path class="st17" d="M1589.81,272.26h208.57c0.47,0,0.86-0.38,0.86-0.86v-15c0-0.47-0.38-0.86-0.86-0.86h-208.57
		c-0.47,0-0.86,0.38-0.86,0.86v15C1588.95,271.88,1589.33,272.26,1589.81,272.26z"/>
	<path class="st18" d="M1527.18,208.53h611.2c21.11,0,38.23,17.17,38.23,38.36v253.09c0,21.18-17.12,38.36-38.23,38.36h-481.2
		c-19.47,27.27-54.79,76.1-57.9,76.1c-2.92,0,2.7-46.12,6.66-76.1h-78.76c-21.11,0-38.23-17.17-38.23-38.36V246.89
		C1488.95,225.7,1506.07,208.53,1527.18,208.53z"/>
	<path class="st21" d="M1552.42,142.88h611.2c21.11,0,38.23,17.17,38.23,38.36v253.09c0,21.18-17.11,38.36-38.23,38.36h-481.2
		c-19.47,27.27-54.78,76.1-57.9,76.1c-2.92,0,2.7-46.12,6.66-76.1h-78.76c-21.11,0-38.23-17.17-38.23-38.36V181.24
		C1514.19,160.06,1531.3,142.88,1552.42,142.88z"/>
	<path class="st17" d="M1937.4,241.65h185.14c0.47,0,0.86-0.38,0.86-0.86v-15c0-0.47-0.38-0.86-0.86-0.86H1937.4
		c-0.47,0-0.86,0.38-0.86,0.86v15C1936.54,241.27,1936.93,241.65,1937.4,241.65z"/>
	<path class="st17" d="M1998.04,296.23h124.5c0.47,0,0.86-0.38,0.86-0.86v-15c0-0.47-0.38-0.86-0.86-0.86l-124.5,0
		c-0.47,0-0.86,0.38-0.86,0.86v15C1997.18,295.84,1997.56,296.23,1998.04,296.23z"/>
	<path class="st17" d="M1827.47,296.23h153.61c0.47,0,0.86-0.38,0.86-0.86v-15c0-0.47-0.38-0.86-0.86-0.86l-153.61,0
		c-0.47,0-0.86,0.38-0.86,0.86v15C1826.61,295.84,1827,296.23,1827.47,296.23z"/>
	<path class="st17" d="M1590.72,296.23h215.36c0.47,0,0.86-0.38,0.86-0.86v-15c0-0.47-0.38-0.86-0.86-0.86l-215.36,0
		c-0.47,0-0.86,0.38-0.86,0.86v15C1589.86,295.84,1590.25,296.23,1590.72,296.23z"/>
	<path class="st17" d="M1589.81,241.65h311.69c0.47,0,0.86-0.38,0.86-0.86v-15c0-0.47-0.38-0.86-0.86-0.86h-311.69
		c-0.47,0-0.86,0.38-0.86,0.86v15C1588.95,241.27,1589.33,241.65,1589.81,241.65z"/>
	<path class="st17" d="M1589.81,403.12h532.74c0.47,0,0.86-0.38,0.86-0.86v-14.99c0-0.47-0.38-0.86-0.86-0.86h-532.74
		c-0.47,0-0.86,0.38-0.86,0.86v15C1588.95,402.73,1589.33,403.12,1589.81,403.12z"/>
	<path class="st17" d="M1848.16,350.3h274.38c0.47,0,0.86-0.38,0.86-0.86v-15c0-0.47-0.38-0.86-0.86-0.86h-274.38
		c-0.47,0-0.86,0.38-0.86,0.86v15C1847.3,349.92,1847.69,350.3,1848.16,350.3z"/>
	<path class="st17" d="M1589.81,350.3h242.94c0.47,0,0.86-0.38,0.86-0.86v-15c0-0.47-0.38-0.86-0.86-0.86h-242.94
		c-0.47,0-0.86,0.38-0.86,0.86v15C1588.95,349.92,1589.33,350.3,1589.81,350.3z"/>
	<path class="st6" d="M1095.03,905.44c0,0-152.69,22.03-129.36,169.39c21.75,137.39,152.69,109.48,186.32,102.6
		C1185.62,1170.55,1095.03,905.44,1095.03,905.44z"/>
	<path class="st6" d="M1151.99,1177.43c15.66-3.21,4.38-62.4-12.13-124.74c-56.21,11.02-118.83,23.31-171.99,33.81
		C995.03,1210.6,1119.35,1184.12,1151.99,1177.43z"/>
	<path class="st1" d="M1182.87,1202.91c0,0,33.54,119.74,24.7,212.77c-8.23,86.76,4.12,101.22,36.37,98.47
		c32.25-2.75,110.49-22.03,111.86-53.02s-13.04-190.05-67.25-275.43S1182.87,1202.91,1182.87,1202.91z"/>
	<path class="st3" d="M1234.99,1152.97c-21.5,14.44-52.12,49.94-52.12,49.94s33.54,119.74,24.7,212.77
		c-8.23,86.76,4.12,101.22,36.37,98.47c11.83-1.01,29.84-4.25,47.98-9.46C1304.8,1291.45,1249.79,1177.1,1234.99,1152.97z"/>
	<path class="st1" d="M1557.56,615.21c0,0-253.22,184.37-335.06,240.14l-47.87,71.27l33.97,207.61l81.83,40.28l399.91,79.01
		l-9.26-44.93l-72.57-201.41l-37.06-229.3l-10.81-140.99L1557.56,615.21z"/>
	<polygon class="st3" points="1608.52,1007.18 1598.8,947.07 1194.11,1045.62 1208.61,1134.23 1290.44,1174.51 1690.35,1253.52 
		1681.09,1208.59 	"/>
	<path class="st0" d="M1222.5,855.35c0,0-33.45,176.1,67.94,319.16c0,0,5.66,13.26-6.69,21.52l-75.49,19.28
		c0,0-35,12.39-64.51-37.87c-29.51-50.27-81.66-163.19-50.78-287.83c0,0,7.55-33.74,48.72-39.94l54.9-10.33
		C1196.6,839.34,1220.96,835.55,1222.5,855.35z"/>
	<path class="st22" d="M1557.56,615.21c0,0,65.88-48.54,103.97-47.51c38.09,1.03,76.17,51.64,100.88,92.96
		c24.71,41.31,89.56,203.48,95.73,312.96s5.15,265.45-48.38,284.04c-53.53,18.59-119.41-4.13-119.41-4.13
		s-86.47-74.37-136.91-305.73C1503.01,716.43,1557.56,615.21,1557.56,615.21z"/>
	<path class="st0" d="M1771.84,1263.85c0,0,61.58-80.04,30.19-296.16c-49.41-340.27-173.96-391.73-173.96-391.73
		s-92.19,70.25-4.12,399.08C1696.53,1246,1771.84,1263.85,1771.84,1263.85z"/>
	<path class="st6" d="M1594.48,836.67c5.98,40.06,15.43,85.91,29.48,138.37c7.03,26.25,14.09,50.11,21.1,71.82
		c38.29-13.31,100.23-46.65,73.78-131.21C1694.33,837.29,1630.53,832.5,1594.48,836.67z"/>
	<path class="st6" d="M1623.96,975.04c7.03,26.25,14.09,50.11,21.1,71.82c37.77-13.12,98.51-45.73,74.82-127.74l-104.08,24.07
		C1618.33,953.53,1621.04,964.14,1623.96,975.04z"/>
	<path class="st23" d="M1290.44,1174.51c-31.78-44.83-50.31-92.91-60.77-137.79l-133.78,25.33c12.88,49.8,33.18,90.36,47.87,115.39
		c29.51,50.27,64.51,37.87,64.51,37.87l75.49-19.28C1296.1,1187.76,1290.44,1174.51,1290.44,1174.51z"/>
	<path class="st6" d="M2545.94,467.25l-0.61,66.32l42.03-39.57l132.48-89.98l-108.13,23.58c0,0-54.04,20.48-56.72,23.59
		C2552.31,454.31,2545.94,467.25,2545.94,467.25z"/>
	<polygon class="st14" points="2492.66,433.84 2719.84,404.03 2545.94,467.25 	"/>
	<polygon class="st14" points="2627.1,523.86 2561.62,483.21 2719.84,404.03 	"/>
	<g>
		<g>
			<path class="st24" d="M2257.85,741.03c0.05-5.28,0.39-10.65,1.03-15.96c0.58-4.89,1.42-9.84,2.5-14.73l5.27,1.17
				c-1.04,4.71-1.85,9.49-2.41,14.2c-0.61,5.11-0.94,10.28-0.99,15.37c-0.01,1.49-0.01,2.99,0.03,4.48l-5.39,0.12
				C2257.85,744.11,2257.84,742.54,2257.85,741.03z M2272.66,676.77c4.7-10.37,10.55-20.72,17.38-30.77l4.45,3.05
				c-6.66,9.78-12.35,19.86-16.92,29.95L2272.66,676.77z M2441.14,645.03c-0.34-0.16-0.67-0.32-1-0.49l2.42-4.84
				c0.29,0.15,0.58,0.29,0.82,0.41c0,0,0.16,0.06,0.56,0.1c2.99,0.36,10.66-0.59,14.64-3.7c3.35-2.61,5.85-6.29,7.45-10.93l5.1,1.77
				c-1.92,5.57-5.11,10.22-9.24,13.44c-5.52,4.3-14.84,5.25-18.59,4.8C2442.42,645.49,2441.71,645.3,2441.14,645.03z
				 M2311.97,618.39c7.78-8.5,16.32-16.71,25.39-24.4l3.48,4.13c-8.89,7.55-17.27,15.6-24.9,23.93L2311.97,618.39z M2414.6,605.76
				c-0.65-5.15-0.64-10.54,0.01-16.02c0.35-2.94,0.9-5.97,1.62-8.98l5.24,1.27c-0.67,2.81-1.18,5.62-1.51,8.35
				c-0.6,5.04-0.61,9.98-0.01,14.7c0.42,3.35,1.19,6.68,2.29,9.9l-5.11,1.75C2415.92,613.17,2415.07,609.47,2414.6,605.76z
				 M2436.96,575.22l-0.72-0.24l1.68-5.15l0.78,0.26c11.71,4,21.92,11.79,28.02,21.37l-4.54,2.92
				C2456.72,585.81,2447.53,578.83,2436.96,575.22z M2368.19,576.34c5.72-2.56,16.16-6.99,21.82-7.97c4.4-0.76,8.44-1.31,12.37-1.67
				l0.5,5.39c-3.79,0.35-7.69,0.88-11.95,1.62c-3.71,0.64-11.2,3.4-20.54,7.58L2368.19,576.34z M2430.81,548.18
				c6.54-9.93,14.52-18.84,23.72-26.49l3.44,4.17c-8.79,7.31-16.42,15.82-22.67,25.31L2430.81,548.18z"/>
		</g>
		<g>
			<path class="st24" d="M2487,508.3c5.44-2.25,11-4.03,16.51-5.29l-1.2-5.28c-5.81,1.33-11.65,3.2-17.37,5.57L2487,508.3z"/>
		</g>
	</g>
	<path class="st11" d="M1960.47,1161.74l-2.76,2.48c-1.42,1.28-3.56,1.22-4.78-0.12l-49.02-54.07c-1.22-1.34-1.05-3.46,0.37-4.74
		l2.76-2.48c1.42-1.28,3.56-1.22,4.78,0.12l49.02,54.07C1962.06,1158.34,1961.89,1160.46,1960.47,1161.74z"/>
	<path class="st10" d="M2091.67,1117.81c-6.55-5.35-57.22,16.96-56.58,24.73s-35.36,83.05-35.36,83.05l-62.21-49.77l-0.03,0.02
		c-0.55-1.8-6.45-21.16-6.73-24.62c-0.3-3.63-10.81-9.99-15.7-9.05c-4.88,0.94,4.18,7.08,4.77,8.21c1.62,3.07-4.64,4.22-4.64,4.22
		s-17.97-9.9-18.36-15.72s-4.09-18.02-7.98-15.47c-2,1.32-1.99,9.97-1.36,14.08c-1.16-4.66-2.79-9.93-4.38-10.45
		c-2.91-0.95-4.35,2.76-3.83,4.58c0.53,1.82,5.22,21.62,6.65,23.85c1.39,2.18,30.42,25.64,34.6,30.74c0,0,80.47,92.3,86.2,94.71
		c5.03,2.12,22.95-29.69,39.88-50.81C2063.57,1208.99,2112.14,1134.51,2091.67,1117.81z"/>
	<path class="st9" d="M2254.03,1796.49c0,0,11.06,10.83,11.31,14.8c0.25,3.97,0.98,46.54-3.54,50.51
		c-4.51,3.97-17.77,6.79-13.51,11.26c3.22,3.38,28.01,2.66,44.43,1.75c4.79-0.26,10.81-38.65,12.71-44.3
		c2.76-8.19,9.47-26.65,6.96-32.36c-1.22-2.78-7.07-8.5-15.3-13.84c-8.67-5.62-16.95-18.12-16.95-18.12L2254.03,1796.49z"/>
	<path class="st10" d="M2139.49,1821.7c0,0,9.9,28.05,9.91,28.12c0.74,4.44,3.63,15.42,3.63,19.46c0,15.18-68.21-12.88-52.92-19.61
		c1.38-0.61,5.72-5.47,6.18-10.64c0.7-7.96-5.75-17.94-5.75-17.94L2139.49,1821.7z"/>
	<g>
		<path class="st12" d="M2032.48,1299.41c0,0-4.97,50.28-4.97,51.03c0,81.34-16.07,240.22-13.01,255.51
			c7.46,37.3,87.69,227.57,87.69,227.57l43.37-5.2l-56.51-227.81l20.79-91.7l29.43-181.25L2032.48,1299.41z"/>
		<path class="st11" d="M2178.02,1343.88l8.23,47.66l22.26,196.14l84.79,191.69c0,0-11.93,27.89-29.52,31.81l-134.94-196.81
			l-83.82-251.84l2.94-55.95L2178.02,1343.88z"/>
	</g>
	<path class="st5" d="M2015.19,1179.68l60.13,6.16c0,0,2.76-49.47,2.76-73.06c0-28.63-2.43-65.5-5.88-64.71
		c-9.67,2.23-22.69,7.58-30.45,18.27C2014.93,1103.34,2015.19,1179.68,2015.19,1179.68z"/>
	<path class="st13" d="M2044.73,1107.73c-1.26,8.73-24.38,246.01-24.38,246.01c109.49,53.06,169.91,9.45,169.91,9.45
		s-3.58-166.62,0.71-189.3c2.84-15.01,6.38-114.71-3.31-117.5c-12.44-3.58-26.69-7.39-42.24-9.01c-13.27-1.38-64.8-2.18-74.02,0.92
		C2071.41,1048.31,2050.02,1071.03,2044.73,1107.73z"/>
	<path class="st25" d="M2296.55,1784.04c0,0-25.48,72-35.46,75.47c-2.65,0.92-15.36,3.26-17.76,8.9c-0.72,1.7,0,7.37,0,7.37h53.12
		c0,0,6.72-31.72,9.38-45.66c0,0,14.06-34.05,12.5-37.15S2296.55,1784.04,2296.55,1784.04z"/>
	<path class="st25" d="M2156.91,1874.29l-7.81-24.76c0,0-16.4,6.96-24.61,5.8c-8.2-1.16-24.22-5.8-24.22-5.8
		c-32.74,10.81-59.56,16.06-54.68,24.76l0,0H2156.91z"/>
	<g>
		<path class="st10" d="M2041.75,1280.91c-0.25-0.1-1.14-0.81-1.65-1.23c1.95-23.25,1.6-45.77-5.68-53.39
			c0.17-0.37,1.76-3.75,3.42-7.27c8.43,6.54,12.43,23.91,10.86,52.12c-0.11,1.94-0.66,3.42-1.11,5.84
			C2045.15,1279.67,2042.93,1281.41,2041.75,1280.91z"/>
	</g>
	<path class="st26" d="M2298.7,1356.26c0.07-0.51,0.08-1.02,0.03-1.53c-1.61-16.43-15.21-154.42-17.5-160.29
		c-2.07-5.3-63.05-92.81-63.05-92.81l-29.97,40.98l58.65,78.5c1.32,4.99,22.48,98.14,22.48,98.14s4.34,16.98,6.28,27.15
		c-0.89,2.45-1.76,4.76-2.53,6.66c-1.94,4.06-4.24,7.39-6.32,10.19c-2.62,3.53-6.96,11.23-7.49,13.29
		c-0.62,2.4-1.74,7.38-2.37,10.38c-0.63,3.01-1.5,6.51-1.65,8.14c-0.09,0.99-1.11,2.97-1.89,4.37c-1.17,2.08,0.83,4.54,3.09,3.79
		c2.13-0.71,3.79-3.48,4.81-5.2c2.89-4.87,4.42-13.76,5.14-13.29s3.25,15.55,3.65,17.25c0.4,1.71,3.43,19.21,5.15,22.42
		c1.71,3.2,3.98,2.67,4.58,0.66c0.52-1.72-1.89-26.23-1.89-26.23s-0.3-3.12,1.06-2.15c1.36,0.98,3.59,23.22,4.54,26.47
		s3.11,4.98,4.95,2.36c2.23-3.18-1.61-26.77-1.61-26.77s-0.43-2.96,0.83-2.69s2.84,19.23,3.83,20.87c0.98,1.64,3.46,2.23,4.65-0.51
		c1.39-3.22-2.21-24.25-2.21-24.25s0.18-1.67,0.96-1.12s3.29,16.62,4.92,18.1c1.37,1.25,2.51,0.04,2.51,0.04
		c2.99-2.05-1.59-17.32-1.55-24.92c0.04-7.6-3.47-16.13-2.42-25.18C2298.4,1358.53,2298.59,1357.14,2298.7,1356.26z"/>
	<path class="st5" d="M2265.82,1157.06l-52.09,35.09c0,0-29.36-43.84-45.12-59.45c-19.74-19.55,7.19-79.45,19.91-76.06
		C2216.97,1064.23,2265.82,1157.06,2265.82,1157.06z"/>
	<path class="st10" d="M2141.6,996.08l7.79,51.53c0,0-28.46,61.36-45.44,56.04c-14.25-4.46-5.48-58.75-5.48-58.75
		s7.77-29.16,5.44-43.75C2101.58,986.56,2141.6,996.08,2141.6,996.08z"/>
	<path class="st14" d="M2103.9,1001.15c-2.33-14.59,37.7-5.07,37.7-5.07l0.65,4.27c-1.17,2.86-2.6,5.31-4.34,7.18
		c-8.94,9.66-22.92,15.45-35,15.89C2104.12,1015.56,2104.86,1007.13,2103.9,1001.15z"/>
	<g>
		<path class="st10" d="M2148.17,923.18c1.13-0.41,9.07,58.69-5.99,74.95c-15.06,16.26-44.41,21.58-54.93,8.78
			c-11.64-14.17-11.06-77.69,12.36-94.42C2123.02,895.76,2148.17,923.18,2148.17,923.18z"/>
		<path class="st25" d="M2108.52,880.88c18.1,3.7,29.82,14.8,34.13,19.53c8.22,0.97,19.39,5.53,30.92,24.69
			c14.18,23.56,3.71,49.67-12.8,62.48c-16.51,12.81-16.28,27.6-16.28,27.6l-2.61-7.65c-1.93-5.8-2.71-11.94-2.07-18.03
			c0.39-3.65,1.17-7.59,2.67-10.84c3.97-8.55-8.53-14.24-12.04-21.35c-2.7-5.48-2.83-18.02-7.08-27.07l-5.08-6.91
			c0,0-11.72-9.15-23.18-6.57C2083.65,919.34,2085.29,876.12,2108.52,880.88z"/>
		<path class="st10" d="M2131.22,967.83c-0.12,7.21,3.15,13.11,7.3,13.18c4.15,0.07,7.61-5.72,7.73-12.93
			c0.12-7.21-3.15-13.11-7.3-13.19C2134.8,954.83,2131.34,960.62,2131.22,967.83z"/>
	</g>
	<path class="st17" d="M2106.76,984.49l-22.7-1.18c0,0,0.08,8.68,10.04,9.49C2106.26,993.79,2106.76,984.49,2106.76,984.49z"/>
	<polygon class="st4" points="1122.15,1872.11 1133.25,1870 1085.28,1614.68 1074.18,1616.79 	"/>
	<polygon class="st4" points="998.42,1873.27 985.07,1873.27 1034.84,1614.68 1045.94,1616.79 	"/>
	<polygon class="st4" points="875.61,1873.27 886.46,1873.4 838.74,1615.84 827.64,1617.95 	"/>
	<path class="st13" d="M924.05,1266.43c-43.96,4.72-100.86,9.71-157.97,106.96c-62.42,106.29-29.56,265.07,19.71,309.19
		c49.27,44.12,210.19,98.6,345.46,17.04c0,0,81.68-49.43,39.76-131.45c-64.51-126.23-55.39-152.56-84.23-202.03
		S1017.37,1256.4,924.05,1266.43z"/>
	<path class="st5" d="M766.08,1373.39c38.98-66.38,77.86-89.77,112.6-99.44c-13.44,13.95-27.06,31.9-40.69,55.11
		c-62.42,106.29-29.56,265.07,19.71,309.19c43.69,39.13,175.19,86.38,298.74,39.7c-12.7,14.1-25.19,21.66-25.19,21.66
		c-135.27,81.56-296.19,27.08-345.46-17.04C736.52,1638.46,703.66,1479.68,766.08,1373.39z"/>
	<polygon class="st8" points="1065.2,1427.99 1076.5,1462 1042.06,1448.41 	"/>
	<path class="st27" d="M1029.69,1326.77c2.3,0.09,8.59,2.2,17.79,19.59c11.75,22.2,28.92,89.27,28.92,89.27l-51.25,19.09l-6.58-14
		l-10.84-107.77C1007.72,1332.94,1029.06,1326.74,1029.69,1326.77z"/>
	<path class="st28" d="M961.95,1317.1c14.66,0.02,50.92,4.29,67.75,9.67c0,0,12.36,106.27-11.13,187.02
		c-5.26,18.08,4.35,74.93,4.35,74.93l-151.87-2c0,0,17.99-137.45,11.21-159.66c-6.78-22.2-6.94-99.58-6.94-99.58
		s1.04-0.16,34.12-5.88C924.87,1318.94,946.3,1317.08,961.95,1317.1z"/>
	<path class="st10" d="M944.25,1785.97c0,0,3.36,38.78,9.54,49.51c6.18,10.74-0.33,28.99-0.65,31.5c-0.33,2.51-13,6.08-33.16,3.94
		c-20.16-2.15-19.83-6.8-18.21-14.32c1.63-7.52,12.35-17.18,13-24.34c0.65-7.16-6.18-32.93-6.18-32.93L944.25,1785.97z"/>
	<path class="st22" d="M1005.78,1556.72c0,0,104.83-5.82,128.24,8.36c23.41,14.18-4.23,43.29-4.23,43.29s-85.35,37.11-228.23,45.35
		c-33.83,1.95-36.75-88.22-30.42-95.68C877.46,1550.57,1005.78,1556.72,1005.78,1556.72z"/>
	<path class="st25" d="M917.46,1873.93c-20.76-2.21-18.19-12.41-16.52-20.15c1.05-4.85,7-10.56,10.55-15.96
		c1.86,1.48,4.87,4.09,13.89,6.75c9.36,2.76,22.19-2.71,30.37-6.13c2.91,10.85,3.05,24.68,2.78,26.78
		C958.19,1867.79,938.22,1876.14,917.46,1873.93z"/>
	<path class="st0" d="M928.92,1631.72c4.19,31.69,24.93,189.47,24.93,189.47l-48.12,5.97c0,0-59.17-205.94-56.14-237.44
		c3.03-31.5,25.18-34.15,25.18-34.15S917.83,1547.82,928.92,1631.72z"/>
	<path class="st10" d="M873.67,1339.3c14.2-5.33,21.15,122.61,23.06,175.27c25.15,2.42,68.97,0.02,79.89-0.8
		c5.13-0.39,16.97-4.72,22.07-5.39c5.23-0.69,9.97-1.04,12.54-0.59c0.94,0.17,27.15,10.88,29.4,13.23
		c2.78,2.92,10.3,10.27,9.03,13.45s-14.46-8.86-14.46-8.86l-6.45-3.62c8.02,7.84,23.33,18.16,21.12,21.92
		c-2.15,3.67-15.96-6.81-25.79-13.95c8.44,7.62,18.92,21.26,16.51,23.39c-2.17,1.91-14.1-13.88-26.84-18.43
		c-4.72-1.68-9.43,2.98-13.15,3.55c-2.73,0.41-6.95,1.3-9.63,0.54l-13.8-3.91c-4.7,0.42-4.82,3.21-9.57,4.22
		c-5.51,1.17-14.55,2.41-21.57,4.12c-40.42,9.88-53.9,14.46-66.27,14.45C842.28,1557.86,840.11,1351.89,873.67,1339.3z"/>
	<path class="st27" d="M846.72,1459.41c-2.66-53.94-2.27-120.42,27.97-131.77c11.93-4.48,32.96,22.44,29.18,132.86
		C887.73,1461.84,864.03,1462.91,846.72,1459.41z"/>
	<polygon class="st8" points="1015.89,1436.23 1012.81,1436.23 966.47,1550.1 969.66,1549.62 	"/>
	<path class="st10" d="M1084.95,1819.14c0,0-4.2,13.46,3.32,22.36c7.52,8.9,38.76,17.64,42.86,22.46s3.79,8.93,3.79,8.93
		l-87.68-2.41l0.96-26.48l4.04-19.03L1084.95,1819.14z"/>
	<path class="st25" d="M1093.73,1845.94c0,0-22.53,9.11-33.41,3.72c-10.88-5.4-10.55-6.89-13.7-4.88
		c-3.15,2.01-4.28,26.83-4.28,26.83l98.59,2.9c6.86-0.16,10.33-5.21,4.76-9.54c-3.82-2.97-8.24-4.95-10.75-6.39
		C1127.22,1854.16,1093.73,1845.94,1093.73,1845.94z"/>
	<path class="st0" d="M1081.63,1581.57c6.78-14.26,22.19-32.83,49.31-21.65c25.86,10.67,32.81,36.88,24.65,63.72
		c-8.16,26.84-61.88,184.64-63.76,206.33l-42.89,0.28c0,0,7.8-124.94,9.71-155.14C1060.48,1646.06,1069.9,1606.25,1081.63,1581.57z"
		/>
	<path d="M1151.27,1436.23h-143.38c-3.79,0-7.21,2.3-8.65,5.82l-44.15,108.04h-79.05c-2.21,0-4,1.8-4,4.01l0,0
		c0,2.22,1.79,4.01,4,4.01h224.98c6.19,0,11.79-3.64,14.33-9.3l44.45-99.37C1162.57,1443.25,1158.05,1436.23,1151.27,1436.23z"/>
	<path class="st17" d="M1074.07,1499.15c-0.97,4.85-5.19,8.1-9.42,7.25c-4.24-0.85-6.88-5.47-5.92-10.33
		c0.97-4.85,5.19-8.1,9.42-7.25C1072.39,1489.67,1075.04,1494.3,1074.07,1499.15z"/>
	<g>
		<path class="st4" d="M996.02,1187.3c-4.32-1.46-8.58-3.1-12.68-5.08c-4.64-2.24-10.66-4.86-14.46-5.45
			c-8-1.24-21.75-0.41-29.34,7.82c-9.46,10.26-26.26,1.85-22.88,55.59c3.83,60.82,37.65,54.15,38.47,53.12
			c0.82-1.03,30.16-38.91,30.16-38.91s10.26,22.44,10.26,21.62C995.55,1275.21,1047.93,1204.79,996.02,1187.3z"/>
		<path class="st10" d="M970.35,1297.8l2.92,21.73c0,0,6.54,31.31-1.87,37.35c-8.41,6.04-35.78-38.24-35.78-38.24l2.89-55.07
			L970.35,1297.8z"/>
		<path class="st14" d="M937.57,1281.41c6.95,18.78,23.5,30.33,35.25,34.81l-2.48-18.43l-31.84-34.23L937.57,1281.41z"/>
		<path class="st10" d="M968.62,1203.64c17.83-2.88,33.82,11.46,33.37,29.31c-0.19,7.76-0.83,17.44-2.44,27.88
			c-3.88,25.09-20.99,47.18-32.31,45.21c-11.32-1.97-39.79-23.61-34.78-59.31C935.56,1224.67,949.91,1206.66,968.62,1203.64z"/>
		<path class="st10" d="M940.31,1250.97c-0.96,5.52-5.37,9.35-9.87,8.57c-4.5-0.78-7.37-5.89-6.41-11.41
			c0.96-5.52,5.37-9.35,9.87-8.57C938.4,1240.35,941.27,1245.46,940.31,1250.97z"/>
		<path class="st4" d="M933.9,1239.57c0,0,13.68,3.4,18.76-5.4c5.08-8.8,23.24-27.79,46.32-19.92
			c23.08,7.88-20.31-19.15-22.16-19.15c-1.85,0-24.01-0.15-24.01-0.15s-17.08,14.05-17.7,15.6c-0.62,1.54-5.54,18.37-5.54,18.37
			L933.9,1239.57z"/>
	</g>
	<path class="st17" d="M958.94,1276.29l24.9,4.76c0,0-2.38,9.38-13.39,7.6C957.03,1286.49,958.94,1276.29,958.94,1276.29z"/>
	<path class="st17" d="M701.64,998.92l24.9,4.76c0,0-2.38,9.38-13.39,7.6C699.73,1009.11,701.64,998.92,701.64,998.92z"/>
	<path class="st0" d="M2682.95,1763.03c-21.73,1.96-43.2,5.96-64.3,11.51c-38.49,10.11-75.51,25.05-111.94,40.94
		c-17.91,7.81-35.93,15.51-53.5,24.07c-8.21,4-16.48,8.01-24.05,13.14c-10.2,6.91-26.12,20.76-28.05,22.95l8.36,0.25
		c5.71-4.66,26.7-22.38,55.82-36.41c69.02-33.25,140.72-67.35,217.7-75.81C2683.4,1763.61,2683.35,1762.99,2682.95,1763.03z"/>
</g>
</svg>
