<?xml version="1.0" encoding="utf-8"?>
<!-- Generator: Adobe Illustrator 26.0.3, SVG Export Plug-In . SVG Version: 6.00 Build 0)  -->
<svg version="1.1" xmlns="http://www.w3.org/2000/svg" xmlns:xlink="http://www.w3.org/1999/xlink" x="0px" y="0px"
	 viewBox="0 0 500 500" style="enable-background:new 0 0 500 500;" xml:space="preserve">
<style type="text/css">
	.st0{fill:#EBEBEB;}
	.st1{fill:#E6E6E6;}
	.st2{fill:#FAFAFA;}
	.st3{fill:#F5F5F5;}
	.st4{fill:#F0F0F0;}
	.st5{display:none;}
	.st6{display:inline;}
	.st7{fill:#407BFF;}
	.st8{opacity:0.9;fill:#FFFFFF;}
	.st9{fill:#00A3FF;}
	.st10{opacity:0.2;enable-background:new    ;}
	.st11{opacity:0.2;fill:#FFFFFF;enable-background:new    ;}
	.st12{opacity:0.4;fill:#FFFFFF;enable-background:new    ;}
	.st13{fill:#263238;}
	.st14{opacity:0.2;}
	.st15{opacity:0.1;fill:#FFFFFF;}
	.st16{opacity:0.3;}
	.st17{opacity:0.4;fill:#FFFFFF;}
	.st18{opacity:0.1;}
	.st19{opacity:0.6;fill:#FFFFFF;enable-background:new    ;}
	.st20{opacity:0.5;fill:#FAFAFA;}
	.st21{opacity:0.2;fill:#FAFAFA;}
	.st22{opacity:0.7;fill:#FFFFFF;}
	.st23{fill:#FFFFFF;}
	.st24{opacity:0.5;fill:#FFFFFF;enable-background:new    ;}
	.st25{opacity:0.3;fill:#FFFFFF;}
	.st26{fill:#F6AE00;}
	.st27{opacity:0.5;}
	.st28{opacity:0.5;fill:#FFFFFF;}
	.st29{fill:#FFC3BD;}
	.st30{opacity:0.2;fill:#FFFFFF;}
	.st31{fill:#EEC1BB;}
	.st32{fill:#D4827D;}
</style>
<g id="Background_Complete">
	<g>
		<rect y="382.4" class="st0" width="500" height="0.25"/>
		<rect x="416.78" y="398.49" class="st0" width="33.12" height="0.25"/>
		<rect x="322.53" y="401.21" class="st0" width="8.69" height="0.25"/>
		<rect x="396.59" y="389.21" class="st0" width="19.19" height="0.25"/>
		<rect x="52.46" y="390.89" class="st0" width="43.19" height="0.25"/>
		<rect x="104.56" y="390.89" class="st0" width="6.33" height="0.25"/>
		<rect x="131.47" y="395.11" class="st0" width="93.68" height="0.25"/>
		<path class="st0" d="M237.01,337.8H43.92c-3.15,0-5.71-2.56-5.71-5.71V60.66c0-3.15,2.56-5.71,5.71-5.71h193.1
			c3.15,0,5.71,2.56,5.71,5.71v271.43C242.72,335.24,240.16,337.8,237.01,337.8z M43.92,55.2c-3.01,0-5.46,2.45-5.46,5.46v271.43
			c0,3.01,2.45,5.46,5.46,5.46h193.1c3.01,0,5.46-2.45,5.46-5.46V60.66c0-3.01-2.45-5.46-5.46-5.46H43.92z"/>
		<path class="st0" d="M453.31,337.8h-193.1c-3.15,0-5.71-2.56-5.71-5.71V60.66c0-3.15,2.56-5.71,5.71-5.71h193.1
			c3.15,0,5.71,2.56,5.71,5.71v271.43C459.02,335.24,456.46,337.8,453.31,337.8z M260.21,55.2c-3.01,0-5.46,2.45-5.46,5.46v271.43
			c0,3.01,2.45,5.46,5.46,5.46h193.1c3.01,0,5.46-2.45,5.46-5.46V60.66c0-3.01-2.45-5.46-5.46-5.46H260.21z"/>
	</g>
	<g>
		<g>
			<g>
				<polygon class="st1" points="78.08,141.73 127.49,112.98 165.57,112.98 215.81,140.37 215.81,326.69 78.08,326.69 				"/>
			</g>
			<g>
				<g>
					<g>
						<path class="st2" d="M217.22,326.69H78.08V141.73l1.42-1.36c18.38-17.66,42.58-27.39,68.16-27.39c0,0,0,0,0,0
							c25.57,0,49.78,9.73,68.16,27.39l1.42,1.36V326.69z M87.31,317.46h120.69V145.69c-16.47-15.16-37.82-23.48-60.34-23.48
							c-22.53,0-43.88,8.32-60.34,23.48V317.46z"/>
					</g>
				</g>
				<polygon class="st3" points="144.19,318.57 151.11,318.57 151.11,256.74 209.74,256.74 209.74,249.82 151.11,249.82 
					151.11,186.57 209.74,186.57 209.74,179.65 151.11,179.65 151.11,121.02 144.19,121.02 144.19,179.65 85.56,179.65 
					85.56,186.57 144.19,186.57 144.19,249.82 85.56,249.82 85.56,256.74 144.19,256.74 				"/>
				<g>
					<path class="st3" d="M221.84,331.31H73.46V139.85l1.35-1.35c40.16-40.16,105.51-40.16,145.67,0l1.35,1.35V331.31z
						 M82.69,322.08h129.92V143.7c-36.21-34.8-93.71-34.8-129.92,0V322.08z"/>
				</g>
			</g>
		</g>
		<g>
			<path class="st1" d="M394.91,133.14c0,0,1.34-8.86-5.12-14.55c-6.46-5.68-5.9-9.06-4.05-9.5c1.85-0.44,3.55,5.24,6.39,6.8
				c0,0,0.09-8.1-2.8-11.08c-2.89-2.98-4.4-10.67-1.65-10.8c2.75-0.14,3.03,4.56,3.6,7.9c0.57,3.33,3.63,8.02,3.63,8.02
				s0.6-7.25,2.46-10.23c1.87-2.98-3.11-9.8-1.19-12.79s5.33,2.7,5.04,9.09c-0.28,6.39-4.55,13.21-3.55,19.89
				c0,0,1.88-4.69,3.57-5.11c1.69-0.43,3.39-3.53,4.53-4.68c1.14-1.15,2.56,2.83,0,6.52c-2.56,3.69-9.09,13.58-8.1,21.56
				L394.91,133.14z"/>
			<path class="st3" d="M391.04,129.11l-2.12,13.28c-0.65,4.1,2.52,7.82,6.67,7.82h2.26c4.15,0,7.32-3.71,6.67-7.82l-2.12-13.28
				H391.04z"/>
			<rect x="273.43" y="145.31" class="st4" width="149.63" height="7.69"/>
			<rect x="280.32" y="116.97" class="st3" width="6.59" height="28.34"/>
			<rect x="312.19" y="116.97" class="st3" width="6.59" height="28.34"/>
			
				<rect x="350.83" y="116.62" transform="matrix(0.9855 -0.1698 0.1698 0.9855 -17.0677 62.0455)" class="st3" width="6.59" height="28.34"/>
			<rect x="288.49" y="120.7" class="st3" width="6.59" height="24.6"/>
			<rect x="303.64" y="120.7" class="st3" width="6.59" height="24.6"/>
			<rect x="341.88" y="120.7" class="st3" width="6.59" height="24.6"/>
			
				<rect x="323.6" y="120.28" transform="matrix(0.9762 -0.2169 0.2169 0.9762 -20.9756 74.0602)" class="st3" width="6.59" height="24.6"/>
			<rect x="297.48" y="115.56" class="st3" width="3.3" height="29.75"/>
			<rect x="336.69" y="115.56" class="st3" width="3.3" height="29.75"/>
		</g>
		<g>
			
				<rect x="273.43" y="202.7" transform="matrix(-1 -1.224647e-16 1.224647e-16 -1 696.4913 413.0906)" class="st4" width="149.63" height="7.69"/>
			
				<rect x="409.58" y="174.36" transform="matrix(-1 -1.224647e-16 1.224647e-16 -1 825.7549 377.0642)" class="st3" width="6.59" height="28.34"/>
			
				<rect x="377.71" y="174.36" transform="matrix(-1 -1.224647e-16 1.224647e-16 -1 762.0051 377.0642)" class="st3" width="6.59" height="28.34"/>
			
				<rect x="339.07" y="174.01" transform="matrix(-0.9855 -0.1699 0.1699 -0.9855 647.7855 431.7754)" class="st3" width="6.59" height="28.34"/>
			
				<rect x="401.41" y="178.1" transform="matrix(-1 -1.224647e-16 1.224647e-16 -1 809.4185 380.7987)" class="st3" width="6.59" height="24.6"/>
			
				<rect x="386.26" y="178.1" transform="matrix(-1 -1.224647e-16 1.224647e-16 -1 779.1151 380.7987)" class="st3" width="6.59" height="24.6"/>
			
				<rect x="348.02" y="178.1" transform="matrix(-1 -1.224647e-16 1.224647e-16 -1 702.6258 380.7987)" class="st3" width="6.59" height="24.6"/>
			
				<rect x="366.3" y="177.68" transform="matrix(-0.9762 -0.2169 0.2169 -0.9762 689.1901 455.597)" class="st3" width="6.59" height="24.6"/>
			
				<rect x="395.71" y="172.96" transform="matrix(-1 -1.224647e-16 1.224647e-16 -1 794.7221 375.6572)" class="st3" width="3.3" height="29.75"/>
			
				<rect x="356.5" y="172.96" transform="matrix(-1 -1.224647e-16 1.224647e-16 -1 716.3036 375.6572)" class="st3" width="3.3" height="29.75"/>
			
				<rect x="287.79" y="180.27" transform="matrix(-1 -1.224647e-16 1.224647e-16 -1 607.6967 382.7192)" class="st3" width="32.12" height="22.17"/>
		</g>
	</g>
</g>
<g id="Background_Simple" class="st5">
	<g class="st6">
		<path class="st7" d="M84.54,111.63c27.92-59.45,127.06-51.06,165.32-9.26c38.26,41.81,50.7,68.6,85.21,52.98
			c34.51-15.62,78.52-11.44,81.04,38.16S378.2,301.79,314.02,319.14c-64.18,17.35-64.16,78.76-149.1,66.37
			c-46.31-6.76-47.37-56.86-40.83-98.3S52.16,180.57,84.54,111.63z"/>
		<path class="st8" d="M84.54,111.63c27.92-59.45,127.06-51.06,165.32-9.26c38.26,41.81,50.7,68.6,85.21,52.98
			c34.51-15.62,78.52-11.44,81.04,38.16S378.2,301.79,314.02,319.14c-64.18,17.35-64.16,78.76-149.1,66.37
			c-46.31-6.76-47.37-56.86-40.83-98.3S52.16,180.57,84.54,111.63z"/>
	</g>
</g>
<g id="Shadow_1_">
	<ellipse id="_x3C_Path_x3E__359_" class="st3" cx="250" cy="416.24" rx="193.89" ry="11.32"/>
</g>
<g id="Shapes">
	<path class="st9" d="M109.24,291.51c11.59-3.51,25.89-0.7,33.57,9.19c7.5,9.31,8.66,21.48,7.62,32.71
		c-1.05,10.13-0.93,20.83,3.73,30.05c4.62,9.47,15.12,14.94,25.64,13.93c-10.83,1.99-22.26-2.98-28.01-12.56
		c-5.85-9.43-7.03-20.93-6.82-31.75c0.23-9.46-1.41-20.32-8-27.3c-6.27-6.83-16.31-7.86-24.73-4.73
		C105.72,303.13,102.67,293.59,109.24,291.51L109.24,291.51z"/>
	<path class="st9" d="M241.59,329.32c2.54,2.56,5.58,1,6.09-2.22c0.31-2.39-1.34-4.05-3.62-4.94c-3.96-1.46-7.94,1.57-10.24,5.01
		c-4.47,6.95-4.48,16.94-10.67,23.06c-3.76,3.6-9.07,5.73-14.22,5.56c3.41-0.23,6.67-1.49,9.39-3.36
		c9.34-6.03,7.44-18.13,12.26-27.16c2.79-5.26,8.82-9.77,15.1-7.86c7.46,1.96,10.4,10.65,5.17,16.63
		c-3.53,4.23-9.87,3.94-13.72,0.69C233.4,331.67,237.89,326.23,241.59,329.32L241.59,329.32z"/>
	<path class="st9" d="M116.24,149.98c4.72,10.21-7.08,19.04-15.59,11.78c-9.39-7.17-4.49-20.83,4.52-25.71
		c8.8-5.07,20.67-1.17,26.37,6.76c6.91,10.15,7.18,23.01,9.72,34.59c2.18,11.57,5.72,23.06,12.47,32.83
		c-1.77-2.37-3.43-4.84-4.89-7.43c-4.4-7.78-7.19-16.37-9.29-25.03c-1.43-5.77-2.58-11.6-4.05-17.27
		c-1.49-5.63-3.31-11.28-6.74-15.57c-3.33-4.18-8.67-6.68-13.95-6.79c-5.11-0.08-9.96,3.03-12.24,7.54
		c-1.71,3.32-2.24,7.52,0.48,10.14c1.64,1.84,4.69,3.22,6.43,1.38c1.13-1.1,1.26-2.74,0.48-4.1c-0.88-1.72-0.21-3.83,1.51-4.71
		C113.23,147.49,115.39,148.21,116.24,149.98L116.24,149.98z"/>
	<path class="st9" d="M256.74,198.87c-5.68-10.85-13.24-1.47-15.42,6.38c-2.19,6.9-1.61,14.72-3.66,21.77
		c-1.96,7.28-5.49,15.29-12.66,18.73c-3.5,1.68-7.69,1.41-11.05-0.38c3.41,1.34,7.37,1.21,10.47-0.73
		c6.17-3.88,8.51-11.5,9.57-18.37c0.51-3.55,0.64-7.17,0.52-10.77c-0.26-8.02,0.57-16.34,5.38-23.4c7.07-10.13,19.01-8.24,25.35,1.5
		C269,199.48,260.31,204.85,256.74,198.87L256.74,198.87z"/>
	<path class="st9" d="M117.95,342.81c4.58,6.71-4.34,13.63-10.1,8.51c-8.05-7.15,0.21-18.55,9.18-19.13
		c6.7-0.64,13.28,3.35,16.42,9.13c2.35,4.34,2.27,9.22,3.76,13.75c0.51,1.48,1.33,2.86,2.53,3.91c-2.58-1.99-3.41-5.36-4.13-8.37
		c-0.72-3.07-1.47-6.15-3.06-8.78c-3.07-5.05-9.37-8.51-15.26-7.61c-5.29,0.67-11.03,6.12-9.51,11.55c0.91,3.34,5.51,5.7,7.4,1.93
		c0.33-0.87,0.17-1.7-0.46-2.52c-0.68-0.87-0.51-2.13,0.36-2.81C115.98,341.66,117.31,341.87,117.95,342.81L117.95,342.81z"/>
	<path class="st9" d="M81.96,259.39c0.02,0.19,0.05,0.33,0.05,0.36c0.01,0.01-0.05-0.02-0.02,0.01c0.03,0.02,0.16,0.07,0.36,0.06
		c4.79-0.84,4.49-6.9,0.16-8.33c-2.71-0.82-5.76,0.71-7.59,2.84c-4.07,4.73-4.33,12.47-1.02,17.8c5.33,8.67,16.71,11.68,26.38,9.52
		c-6.5,1.75-13.75,1.31-19.89-1.9c-4.62-2.37-8.5-6.53-10.02-11.6c-1.38-5.2-0.83-10.99,2.63-15.42c4.66-6.24,14.63-6.02,16.23,2.57
		c0.48,3.37-1.75,6.64-4.84,7.89c-2.72,1.23-6.2-0.06-6.42-3.5C77.73,256.94,81.78,256.63,81.96,259.39L81.96,259.39z"/>
	<path class="st9" d="M147.17,104.1c0.53-6.86-8.17-9.24-13.05-5.46c-8.01,6-7.76,20.17-4.53,28.83
		c3.49,10.09,11.83,18.86,11.62,30.05c-0.33-11.26-9.03-19.48-12.99-29.52c-4-9.47-4.66-24.63,4.14-31.75
		c7.09-5.78,19.04-2,18.81,8.03C151.02,106.98,147.07,106.78,147.17,104.1L147.17,104.1z"/>
	<path class="st9" d="M83.56,223.73c3.79-2.76,9.46-2.47,12.59,1.04c2.94,3.2,2.31,8.01,1.52,11.67c-0.44,2.44-0.72,5,0.34,7.34
		c-2.75-4.31-0.17-10.19-1.82-14.62c-1.38-4.22-6.96-5.28-10.03-2.39C84.06,228.82,81.21,225.49,83.56,223.73L83.56,223.73z"/>
	<path class="st9" d="M230.11,146.82c4.62-0.84,9.59,1.89,10.88,6.41c1.26,4.16-1.41,8.22-3.7,11.17c-1.46,2.01-2.82,4.19-2.89,6.76
		c-0.6-5.07,4.28-9.25,4.72-13.95c0.59-4.4-3.97-7.78-7.99-6.51C228.35,151.63,227.23,147.39,230.11,146.82L230.11,146.82z"/>
	<path class="st9" d="M317.4,146.72c1.18,0.34,3.02-0.98,3.54-2.17c1.52-3.58-1.66-7.35-5.26-8.05
		c-9.64-1.89-15.59,7.48-14.64,16.25c0.62,6.97,4.25,13.05,7.27,19.33c2.03,4.24,4,8.73,4.31,13.58
		c0.73,10.81-5.77,18.73-16.91,18.26c10.9,0.04,16.99-7.63,15.92-18.18c-1.44-11.84-11.45-20.77-12.84-32.76
		c-1.51-10.68,5.92-21.6,17.56-19.64c4.02,0.65,7.87,4.04,8.49,8.27c1.02,4.78-3.32,9.98-8.46,8.99
		C313.65,149.95,314.71,145.93,317.4,146.72L317.4,146.72z"/>
	<path class="st9" d="M203.75,106.41c-2.63-1.42-5.71-1.91-7.83,0.61c-2.02,2.46-2.94,6.24-2.18,9.45
		c-1.74-4.13-1.17-9.88,2.54-12.89c2.5-1.98,6.19-1.76,8.96-0.89C207.99,103.62,206.38,107.65,203.75,106.41L203.75,106.41z"/>
	<path class="st9" d="M182.9,207.89c-1.36-1.85-3.18-1.37-3.9,0.65c-0.9,4.04,4.76,6.07,7.51,8.03c4.85,2.82,6.12,6.65,3.12,11.53
		c0.61-1.34,1.07-2.77,1.12-4.2c0.21-8.07-15.55-6.53-14.51-15.93c0.76-4.78,6.19-6.34,9.59-2.8
		C187.82,207.18,184.74,210.02,182.9,207.89L182.9,207.89z"/>
	<path class="st9" d="M223.23,305.89c4.46-0.35,7.89,3.19,8.14,7.47c0.34,3.65-1.94,6.71-3.23,9.78c-0.91,1.97-1.67,4.01-2.11,6.16
		c0.1-2.19,0.56-4.38,1.17-6.5c0.72-3,2.38-6.03,1.7-9.01c-0.55-2.55-2.6-4.61-5.26-3.92C220.77,310.33,220.33,306.02,223.23,305.89
		L223.23,305.89z"/>
	<path class="st9" d="M284.38,110.53c15.4,10.58,1.33,33.82,11.32,46.99c-1.41-1.47-2.47-3.27-3.22-5.18
		c-3.58-9.51-1.26-20.35-3.92-29.95c-0.99-3.55-2.98-6.72-6.24-8.43C279.92,112.58,282.03,109.05,284.38,110.53L284.38,110.53z"/>
	<path class="st9" d="M181.6,93.12c-10.85-0.52-9.62,9.81-2.24,14.38c3.03,1.99,6,4.18,8.33,7c2.72,3.09,4.22,7.74,2.15,11.54
		c3.1-7.93-5.39-13.68-11.43-16.92c-2.36-1.35-4.54-3.07-6.02-5.48c-2.52-3.87-2.24-9.36,1.73-12.29c2.25-1.61,5.06-2.19,7.61-2.23
		C184.54,89.14,184.4,93.28,181.6,93.12L181.6,93.12z"/>
</g>
<g id="Chest">
	<g>
		<path class="st9" d="M170.94,114.78l-20.61,3.17c-3.46,0.53-5.83,3.77-5.29,7.22l1.99,12.91l12.52-1.93l8.09-1.25l12.52-1.93
			l-1.99-12.91C177.63,116.61,174.39,114.24,170.94,114.78z"/>
		<path class="st10" d="M159.54,136.16l-12.52,1.93l-1.99-12.91c-0.53-3.46,1.84-6.69,5.29-7.22l0,0c3.46-0.53,6.69,1.84,7.22,5.29
			L159.54,136.16z"/>
		<path class="st10" d="M147.78,137.05l-1.85-12.02c-0.46-2.96,1.58-5.73,4.54-6.19c2.96-0.46,5.73,1.58,6.19,4.54l1.85,12.02
			L147.78,137.05z"/>
		
			<rect x="159.43" y="123.58" transform="matrix(0.9883 -0.1522 0.1522 0.9883 -17.6096 27.2212)" class="st10" width="19.04" height="10.05"/>
		<path class="st10" d="M177.26,120.21l0.22,1.45l-18.82,2.9l-0.22-1.45c-0.53-3.45-3.76-5.83-7.22-5.29l18.82-2.9
			C173.5,114.38,176.73,116.75,177.26,120.21z"/>
		<g>
			<path class="st9" d="M178.58,122.04l-33.51,5.16c-0.19,0.03-0.37-0.1-0.4-0.3l-0.11-0.72c-0.03-0.19,0.1-0.37,0.3-0.4l33.51-5.16
				c0.19-0.03,0.37,0.1,0.4,0.3l0.11,0.72C178.9,121.83,178.77,122.01,178.58,122.04z"/>
			<path class="st11" d="M178.76,120.9l0.12,0.75c0.03,0.18-0.1,0.35-0.28,0.38l-33.54,5.17c-0.18,0.03-0.35-0.1-0.38-0.28
				l-0.12-0.75c-0.03-0.18,0.1-0.36,0.28-0.39l33.54-5.17C178.56,120.59,178.73,120.71,178.76,120.9z"/>
			<path class="st10" d="M158.15,124.07l0.12,0.75c0.03,0.18-0.1,0.35-0.28,0.38l-12.93,1.99c-0.18,0.03-0.35-0.1-0.38-0.28
				l-0.12-0.75c-0.03-0.18,0.1-0.36,0.28-0.39l12.93-1.99C157.95,123.76,158.12,123.89,158.15,124.07z"/>
		</g>
		<g>
			<g>
				<path class="st11" d="M169.8,127.53c-0.05,0.01-0.09,0.02-0.14,0.03c-0.75,0.12-1.46-0.45-1.58-1.26
					c-0.13-0.81,0.38-1.56,1.13-1.68c0.05-0.01,0.1-0.01,0.15-0.01c-0.67,0.18-1.1,0.89-0.99,1.65
					C168.48,127.02,169.1,127.56,169.8,127.53z"/>
				<path class="st12" d="M171.07,125.84c0.12,0.81-0.38,1.56-1.13,1.68c-0.75,0.12-1.46-0.45-1.58-1.26
					c-0.12-0.81,0.38-1.56,1.13-1.68C170.24,124.47,170.95,125.03,171.07,125.84z"/>
			</g>
			<path class="st10" d="M169.99,125.59c-0.03-0.19-0.2-0.32-0.39-0.29c-0.19,0.03-0.32,0.2-0.29,0.39
				c0.02,0.15,0.14,0.26,0.28,0.28l0.06,0.86l0.38-0.06l-0.2-0.84C169.95,125.86,170.01,125.73,169.99,125.59z"/>
		</g>
	</g>
</g>
<g id="Car">
	<g>
		<g>
			<path class="st13" d="M193.5,311.57c-0.26,0.15-1.21,0.7-1.47,0.85c-1.56,0.9-2.1,2.89-1.2,4.46c0.9,1.56,2.89,2.1,4.46,1.2
				c0.26-0.15,1.21-0.7,1.47-0.85c1.56-0.9,2.1-2.89,1.2-4.46C197.06,311.21,195.06,310.67,193.5,311.57z"/>
			<path class="st14" d="M196.49,313.62c0.9,1.56,0.36,3.56-1.2,4.46c-1.56,0.9-3.56,0.36-4.46-1.2c-0.9-1.56-0.36-3.56,1.2-4.46
				C193.59,311.52,195.59,312.05,196.49,313.62z"/>
			<path class="st13" d="M195.3,314.3c0.52,0.91,0.21,2.06-0.7,2.59c-0.91,0.52-2.06,0.21-2.59-0.7c-0.52-0.91-0.21-2.06,0.7-2.59
				C193.62,313.08,194.78,313.39,195.3,314.3z"/>
		</g>
		<g>
			<path class="st13" d="M207.66,303.42c-0.26,0.15-1.21,0.7-1.47,0.85c-1.56,0.9-2.1,2.89-1.2,4.46c0.9,1.56,2.89,2.1,4.46,1.2
				c0.26-0.15,1.21-0.7,1.47-0.85c1.56-0.9,2.1-2.89,1.2-4.46C211.21,303.06,209.22,302.52,207.66,303.42z"/>
			<path class="st14" d="M210.64,305.47c0.9,1.56,0.36,3.56-1.2,4.46c-1.56,0.9-3.56,0.36-4.46-1.2c-0.9-1.56-0.36-3.56,1.2-4.46
				C207.75,303.37,209.74,303.9,210.64,305.47z"/>
			<path class="st13" d="M209.46,306.15c0.52,0.91,0.21,2.06-0.7,2.59c-0.91,0.52-2.06,0.21-2.59-0.7s-0.21-2.06,0.7-2.59
				C207.78,304.93,208.94,305.24,209.46,306.15z"/>
		</g>
		<polygon class="st13" points="212.24,303.14 211.15,304.64 182.94,320.88 180.43,316.52 206.72,301.39 		"/>
		<g>
			<path class="st13" d="M200.58,307.5c-0.26,0.15-1.21,0.7-1.47,0.85c-1.56,0.9-2.1,2.89-1.2,4.46s2.89,2.1,4.46,1.2
				c0.26-0.15,1.21-0.7,1.47-0.85c1.56-0.9,2.1-2.89,1.2-4.46C204.14,307.13,202.14,306.6,200.58,307.5z"/>
			<path class="st15" d="M200.58,307.5c-0.26,0.15-1.21,0.7-1.47,0.85c-1.56,0.9-2.1,2.89-1.2,4.46s2.89,2.1,4.46,1.2
				c0.26-0.15,1.21-0.7,1.47-0.85c1.56-0.9,2.1-2.89,1.2-4.46C204.14,307.13,202.14,306.6,200.58,307.5z"/>
			<path class="st15" d="M203.56,309.54c0.9,1.56,0.36,3.56-1.2,4.46c-1.56,0.9-3.56,0.36-4.46-1.2c-0.9-1.56-0.36-3.56,1.2-4.46
				C200.67,307.44,202.67,307.98,203.56,309.54z"/>
			<path class="st9" d="M202.38,310.22c0.52,0.91,0.21,2.06-0.7,2.59c-0.91,0.52-2.06,0.21-2.59-0.7c-0.52-0.91-0.21-2.06,0.7-2.59
				C200.7,309.01,201.86,309.32,202.38,310.22z"/>
		</g>
		<g>
			<path class="st13" d="M186.42,315.65c-0.26,0.15-1.21,0.7-1.47,0.85c-1.56,0.9-2.1,2.89-1.2,4.46c0.9,1.56,2.89,2.1,4.46,1.2
				c0.26-0.15,1.21-0.7,1.47-0.85c1.56-0.9,2.1-2.89,1.2-4.46C189.98,315.28,187.98,314.75,186.42,315.65z"/>
			<path class="st15" d="M186.42,315.65c-0.26,0.15-1.21,0.7-1.47,0.85c-1.56,0.9-2.1,2.89-1.2,4.46c0.9,1.56,2.89,2.1,4.46,1.2
				c0.26-0.15,1.21-0.7,1.47-0.85c1.56-0.9,2.1-2.89,1.2-4.46C189.98,315.28,187.98,314.75,186.42,315.65z"/>
			<path class="st15" d="M189.41,317.69c0.9,1.56,0.36,3.56-1.2,4.46c-1.56,0.9-3.56,0.36-4.46-1.2c-0.9-1.56-0.36-3.56,1.2-4.46
				C186.51,315.59,188.51,316.13,189.41,317.69z"/>
			<path class="st9" d="M188.22,318.37c0.52,0.91,0.21,2.06-0.7,2.59c-0.91,0.52-2.06,0.21-2.59-0.7c-0.52-0.91-0.21-2.06,0.7-2.59
				C186.54,317.16,187.7,317.47,188.22,318.37z"/>
		</g>
		<g>
			<polygon class="st9" points="180.76,308.4 178.59,305.92 180.88,304.6 184.44,305.56 184.75,306.1 			"/>
			<polygon class="st16" points="180.76,308.4 178.59,305.92 180.88,304.6 184.44,305.56 184.75,306.1 			"/>
			
				<rect x="172.84" y="308.77" transform="matrix(0.8666 -0.499 0.499 0.8666 -130.4834 130.1263)" class="st9" width="10.66" height="0.75"/>
			
				<rect x="172.84" y="308.77" transform="matrix(0.8666 -0.499 0.499 0.8666 -130.4834 130.1263)" class="st16" width="10.66" height="0.75"/>
			<path class="st9" d="M211.68,301.09l1.24,2.15l-9.27,5.34c-0.88-1.53-2.83-2.07-4.36-1.19c-1.53,0.88-2.06,2.84-1.18,4.37
				l-8.62,4.96c-0.88-1.53-2.83-2.07-4.36-1.19c-1.53,0.88-2.06,2.84-1.18,4.37l-1.8,1.04l-1.75-3.04l-2.35-8.77l10.55-6.07
				c0,0,0.81-0.58,2.87-1.16c2.63-0.78,7.34-1.57,15.01-1.2C208.07,300.78,209.82,300.9,211.68,301.09z"/>
			<path class="st14" d="M199.42,305.59c-2.25,1.3-3.03,4.17-1.73,6.42l0.42-0.24c-0.88-1.53-0.35-3.49,1.18-4.37
				c1.53-0.88,3.48-0.34,4.36,1.19l2.18-1.26C204.53,305.08,201.65,304.3,199.42,305.59z"/>
			<path class="st14" d="M185.26,313.74c-2.25,1.3-3.03,4.17-1.73,6.42l0.42-0.24c-0.88-1.53-0.35-3.49,1.18-4.37
				c1.53-0.88,3.48-0.34,4.36,1.19l2.18-1.26C190.37,313.23,187.5,312.45,185.26,313.74z"/>
			<g>
				<path class="st9" d="M177.1,312.74l7.33-4.22c1.23-0.71,2.63-1.07,4.04-1.04l9.63-0.03l-0.7,1.87l-7.72,0.23
					c-1.64,0.06-3.24,0.51-4.66,1.33l-6.03,3.47C179.01,314.35,177.3,314.63,177.1,312.74z"/>
				<path class="st14" d="M177.1,312.74l7.33-4.22c1.23-0.71,2.63-1.07,4.04-1.04l9.63-0.03l-0.7,1.87l-7.72,0.23
					c-1.64,0.06-3.24,0.51-4.66,1.33l-6.03,3.47C179.01,314.35,177.3,314.63,177.1,312.74z"/>
			</g>
			<polygon class="st9" points="213.13,300.27 204.06,305.49 205.3,307.64 213.7,302.8 213.78,301.41 			"/>
			<polygon class="st14" points="213.13,300.27 204.06,305.49 205.3,307.64 213.7,302.8 213.78,301.41 			"/>
			
				<rect x="207.95" y="303.27" transform="matrix(0.8666 -0.499 0.499 0.8666 -123.6492 144.5893)" class="st17" width="1.37" height="0.62"/>
			
				<rect x="211.99" y="300.94" transform="matrix(0.8666 -0.499 0.499 0.8666 -121.9461 146.2985)" class="st17" width="1.37" height="0.62"/>
			<polygon class="st9" points="173.68,312.47 171.51,309.99 173.8,308.68 177.36,309.64 177.67,310.17 			"/>
			<path class="st18" d="M213.12,300.26l0.66,1.15l-0.09,1.39l-7.43,4.28l0.41-1.52l-0.68-1.19l-1.66,0.95c0,0-4.12-1.04-11.91-1.04
				c-7.75-0.01-14.37,4.86-14.37,4.86l0.06,0.46l-0.57,0.33l0.14,0.24l-3.99,2.3l-2.18-2.48l2.29-1.32l3.01,0.81l3.26-1.87
				l-1.48-1.69l2.29-1.32l3.44,0.94l4.28-2.46c0,0,0.81-0.58,2.87-1.16c2.63-0.78,7.34-1.57,15.01-1.2c1.58,0.07,3.33,0.19,5.2,0.38
				L213.12,300.26z"/>
			<path class="st17" d="M206.48,300.71l-1.02,0.59l-2.01-0.09l-1.6,0.92l0.54,0.93l-2.58,1.48c-9.28-1.27-15.3,1.36-15.3,1.36
				l6.95-4C194.1,301.13,198.81,300.34,206.48,300.71z"/>
		</g>
	</g>
</g>
<g id="Bird">
	<g>
		<path class="st9" d="M213.88,272.83c0,0,1.38-4.09,2.59-4.68c1.21-0.59,8.88-1.42,8.88-1.42s0.13,0.98-1.32,1.24l1.47,0.29
			c0,0-0.07,0.94-1.64,1.03c0,0,1.03,0.79-0.6,2.4C221.63,273.29,213.88,272.83,213.88,272.83z"/>
		<path class="st12" d="M213.88,272.83c0,0,1.38-4.09,2.59-4.68c1.21-0.59,8.88-1.42,8.88-1.42s0.13,0.98-1.32,1.24l1.47,0.29
			c0,0-0.07,0.94-1.64,1.03c0,0,1.03,0.79-0.6,2.4C221.63,273.29,213.88,272.83,213.88,272.83z"/>
		<path class="st9" d="M209.36,269.76c0.95-2.29,3.83-1.12,6.52,1.86c1.11,1.23,4.5-0.23,6.84-0.5c3.66-0.42,8.92,1.47,14.41,3.04
			c0,0,0.3,1.06-1.72,0.9l2.14,1.56c0,0-0.33,1.15-2.89,0.23c0,0,0.39,1-0.81,2.27c-2.11,2.23-7.45,0.45-7.45,0.45
			s2.27,1.64,8.89,3.37c0,0-3.43,1.79-8.1,0.39l-2.81-1.59c0,0-4.05,0.46-7.6-2.01c-3.55-2.48-4.99-6.22-5.94-7.04
			C209.92,271.86,209.06,270.49,209.36,269.76z"/>
		<path class="st19" d="M235.31,282.95c0,0-3.43,1.79-8.1,0.39l-2.81-1.59c0,0-4.05,0.46-7.6-2.01c-0.49-0.35-0.95-0.71-1.36-1.1
			c-2.58-2.37-3.76-5.24-4.58-5.95c-0.94-0.82-1.81-2.19-1.51-2.92c0.94-2.29,3.83-1.11,6.52,1.87c1.11,1.23,4.5-0.23,6.84-0.5
			c3.66-0.42,8.92,1.47,14.41,3.04c0,0,0.3,1.07-1.72,0.9l2.14,1.56c0,0-0.33,1.15-2.89,0.23c0,0,0.4,1-0.81,2.27
			c-0.85,0.89-2.21,1.14-3.54,1.12c-1.99-0.02-3.91-0.67-3.91-0.67S228.69,281.22,235.31,282.95z"/>
		<path class="st9" d="M209.7,269.18c0,0-0.84-0.17-1.83-0.04c0,0,0.78,1.08,1.55,1.54l0.37-0.66L209.7,269.18z"/>
		<path class="st13" d="M210.94,269.61c-0.04,0.1-0.13,0.17-0.19,0.14c-0.06-0.03-0.08-0.13-0.04-0.24c0.04-0.1,0.13-0.17,0.19-0.14
			C210.97,269.4,210.99,269.51,210.94,269.61z"/>
		<path class="st10" d="M234.67,276.86c0,0,0.4,1-0.81,2.27c-0.85,0.89-2.21,1.14-3.54,1.12l-3.91-0.67c0,0-6.19-1.1-8.38-4.34
			c0,0,3.92-0.77,5.52-1.82c1.6-1.05,11.39,1.91,13.58,0.74c0,0,0.3,1.07-1.72,0.9l2.14,1.56
			C237.56,276.63,237.23,277.78,234.67,276.86z"/>
		<path class="st10" d="M235.31,282.95c0,0-3.43,1.79-8.1,0.39l-2.81-1.59c0,0-4.05,0.46-7.6-2.01c-0.49-0.35-0.95-0.71-1.36-1.1
			c1.32,0.78,3.33,1.8,5.31,2.09c3.36,0.51,5.6-0.39,5.6-0.39S232.54,283.26,235.31,282.95z"/>
	</g>
</g>
<g id="Heart">
	<g>
		<path class="st9" d="M302.08,188.49c1.5-6.3-4.58-9.39-9.98-8.74c0.66-5.4-2.42-11.49-8.72-9.99
			c-10.63,2.52-8.38,16.96-6.83,23.28c0.17,0.72,0.32,1.32,0.45,1.8c0.49,0.13,1.08,0.28,1.8,0.45
			C285.11,196.85,299.54,199.12,302.08,188.49z"/>
		<path class="st20" d="M302.08,188.49c1.5-6.3-4.58-9.39-9.98-8.74c0.66-5.4-2.42-11.49-8.72-9.99
			c-10.63,2.52-8.38,16.96-6.83,23.28c0.17,0.72,0.32,1.32,0.45,1.8c0.49,0.13,1.08,0.28,1.8,0.45
			C285.11,196.85,299.54,199.12,302.08,188.49z"/>
		<path class="st21" d="M288.51,172.16c-1.63-1.49-3.95-1.6-5.18-0.25c-1.23,1.35-0.9,3.65,0.73,5.14c1.63,1.49,3.95,1.6,5.18,0.24
			C290.46,175.94,290.14,173.64,288.51,172.16z"/>
		<path class="st21" d="M281.75,175.96c-0.06-0.81-0.66-1.42-1.32-1.37c-0.67,0.05-1.16,0.75-1.09,1.55
			c0.06,0.81,0.66,1.42,1.32,1.37C281.32,177.46,281.81,176.77,281.75,175.96z"/>
	</g>
</g>
<g id="Clouds">
	<g>
		<path class="st9" d="M127.58,245c0-2.07,1.68-3.74,3.74-3.74c0.37,0,0.73,0.06,1.08,0.16c-0.05-0.38-0.08-0.76-0.08-1.15
			c0-4.38,3.55-7.93,7.93-7.93c0.5,0,0.99,0.05,1.46,0.14c1.22-1.99,3.41-3.33,5.92-3.33c3.8,0,6.88,3.05,6.93,6.83
			c0.04,0,0.08-0.01,0.12-0.01c3.53,0,6.39,2.86,6.39,6.39s-2.86,6.39-6.39,6.39h-23.46l0-0.01
			C129.2,248.69,127.58,247.04,127.58,245z"/>
		<path class="st22" d="M127.58,245c0-2.07,1.68-3.74,3.74-3.74c0.37,0,0.73,0.06,1.08,0.16c-0.05-0.38-0.08-0.76-0.08-1.15
			c0-4.38,3.55-7.93,7.93-7.93c0.5,0,0.99,0.05,1.46,0.14c1.22-1.99,3.41-3.33,5.92-3.33c3.8,0,6.88,3.05,6.93,6.83
			c0.04,0,0.08-0.01,0.12-0.01c3.53,0,6.39,2.86,6.39,6.39s-2.86,6.39-6.39,6.39h-23.46l0-0.01
			C129.2,248.69,127.58,247.04,127.58,245z"/>
	</g>
	<g>
		<path class="st9" d="M149.12,161.2c0-1.29,1.04-2.33,2.33-2.33c0.23,0,0.46,0.04,0.67,0.1c-0.03-0.23-0.05-0.47-0.05-0.72
			c0-2.73,2.21-4.94,4.94-4.94c0.31,0,0.61,0.03,0.91,0.08c0.76-1.24,2.12-2.07,3.68-2.07c2.36,0,4.28,1.9,4.32,4.25
			c0.02,0,0.05,0,0.07,0c2.2,0,3.98,1.78,3.98,3.98c0,2.2-1.78,3.98-3.98,3.98h-14.6l0,0C150.13,163.5,149.12,162.47,149.12,161.2z"
			/>
		<path class="st22" d="M149.12,161.2c0-1.29,1.04-2.33,2.33-2.33c0.23,0,0.46,0.04,0.67,0.1c-0.03-0.23-0.05-0.47-0.05-0.72
			c0-2.73,2.21-4.94,4.94-4.94c0.31,0,0.61,0.03,0.91,0.08c0.76-1.24,2.12-2.07,3.68-2.07c2.36,0,4.28,1.9,4.32,4.25
			c0.02,0,0.05,0,0.07,0c2.2,0,3.98,1.78,3.98,3.98c0,2.2-1.78,3.98-3.98,3.98h-14.6l0,0C150.13,163.5,149.12,162.47,149.12,161.2z"
			/>
	</g>
	<g>
		<path class="st9" d="M222.28,98.94c0-1.29,1.04-2.33,2.33-2.33c0.23,0,0.46,0.04,0.67,0.1c-0.03-0.23-0.05-0.47-0.05-0.72
			c0-2.73,2.21-4.94,4.94-4.94c0.31,0,0.61,0.03,0.91,0.08c0.76-1.24,2.12-2.07,3.68-2.07c2.36,0,4.28,1.9,4.32,4.25
			c0.02,0,0.05,0,0.07,0c2.2,0,3.98,1.78,3.98,3.98c0,2.2-1.78,3.98-3.98,3.98h-14.6l0,0C223.29,101.24,222.28,100.21,222.28,98.94z
			"/>
		<path class="st22" d="M222.28,98.94c0-1.29,1.04-2.33,2.33-2.33c0.23,0,0.46,0.04,0.67,0.1c-0.03-0.23-0.05-0.47-0.05-0.72
			c0-2.73,2.21-4.94,4.94-4.94c0.31,0,0.61,0.03,0.91,0.08c0.76-1.24,2.12-2.07,3.68-2.07c2.36,0,4.28,1.9,4.32,4.25
			c0.02,0,0.05,0,0.07,0c2.2,0,3.98,1.78,3.98,3.98c0,2.2-1.78,3.98-3.98,3.98h-14.6l0,0C223.29,101.24,222.28,100.21,222.28,98.94z
			"/>
	</g>
	<g>
		<path class="st9" d="M264.79,154.9c0-1.29,1.04-2.33,2.33-2.33c0.23,0,0.46,0.04,0.67,0.1c-0.03-0.23-0.05-0.47-0.05-0.72
			c0-2.73,2.21-4.94,4.94-4.94c0.31,0,0.61,0.03,0.91,0.09c0.76-1.24,2.12-2.07,3.68-2.07c2.36,0,4.28,1.9,4.32,4.25
			c0.02,0,0.05,0,0.07,0c2.2,0,3.98,1.78,3.98,3.98c0,2.2-1.78,3.98-3.98,3.98h-14.6l0,0C265.8,157.19,264.79,156.16,264.79,154.9z"
			/>
		<path class="st22" d="M264.79,154.9c0-1.29,1.04-2.33,2.33-2.33c0.23,0,0.46,0.04,0.67,0.1c-0.03-0.23-0.05-0.47-0.05-0.72
			c0-2.73,2.21-4.94,4.94-4.94c0.31,0,0.61,0.03,0.91,0.09c0.76-1.24,2.12-2.07,3.68-2.07c2.36,0,4.28,1.9,4.32,4.25
			c0.02,0,0.05,0,0.07,0c2.2,0,3.98,1.78,3.98,3.98c0,2.2-1.78,3.98-3.98,3.98h-14.6l0,0C265.8,157.19,264.79,156.16,264.79,154.9z"
			/>
	</g>
	<g>
		<path class="st9" d="M101.33,183.58c0-1.29,1.04-2.33,2.33-2.33c0.23,0,0.46,0.04,0.67,0.1c-0.03-0.23-0.05-0.47-0.05-0.72
			c0-2.73,2.21-4.94,4.94-4.94c0.31,0,0.61,0.03,0.91,0.08c0.76-1.24,2.12-2.07,3.68-2.07c2.36,0,4.28,1.9,4.32,4.25
			c0.02,0,0.05,0,0.07,0c2.2,0,3.98,1.78,3.98,3.98s-1.78,3.98-3.98,3.98h-14.6l0,0C102.34,185.88,101.33,184.85,101.33,183.58z"/>
		<path class="st22" d="M101.33,183.58c0-1.29,1.04-2.33,2.33-2.33c0.23,0,0.46,0.04,0.67,0.1c-0.03-0.23-0.05-0.47-0.05-0.72
			c0-2.73,2.21-4.94,4.94-4.94c0.31,0,0.61,0.03,0.91,0.08c0.76-1.24,2.12-2.07,3.68-2.07c2.36,0,4.28,1.9,4.32,4.25
			c0.02,0,0.05,0,0.07,0c2.2,0,3.98,1.78,3.98,3.98s-1.78,3.98-3.98,3.98h-14.6l0,0C102.34,185.88,101.33,184.85,101.33,183.58z"/>
	</g>
	<g>
		<path class="st9" d="M149.12,327.62c0-1.29,1.04-2.33,2.33-2.33c0.23,0,0.46,0.04,0.67,0.1c-0.03-0.23-0.05-0.47-0.05-0.72
			c0-2.73,2.21-4.94,4.94-4.94c0.31,0,0.61,0.03,0.91,0.09c0.76-1.24,2.12-2.07,3.68-2.07c2.36,0,4.28,1.9,4.32,4.25
			c0.02,0,0.05,0,0.07,0c2.2,0,3.98,1.78,3.98,3.98c0,2.2-1.78,3.98-3.98,3.98h-14.6l0,0C150.13,329.91,149.12,328.88,149.12,327.62
			z"/>
		<path class="st22" d="M149.12,327.62c0-1.29,1.04-2.33,2.33-2.33c0.23,0,0.46,0.04,0.67,0.1c-0.03-0.23-0.05-0.47-0.05-0.72
			c0-2.73,2.21-4.94,4.94-4.94c0.31,0,0.61,0.03,0.91,0.09c0.76-1.24,2.12-2.07,3.68-2.07c2.36,0,4.28,1.9,4.32,4.25
			c0.02,0,0.05,0,0.07,0c2.2,0,3.98,1.78,3.98,3.98c0,2.2-1.78,3.98-3.98,3.98h-14.6l0,0C150.13,329.91,149.12,328.88,149.12,327.62
			z"/>
	</g>
	<g>
		<path class="st9" d="M195.1,237.36c0-1.27,1.03-2.3,2.3-2.3c0.23,0,0.45,0.03,0.66,0.1c-0.03-0.23-0.05-0.47-0.05-0.71
			c0-2.69,2.18-4.86,4.86-4.86c0.31,0,0.61,0.03,0.9,0.08c0.75-1.22,2.09-2.04,3.63-2.04c2.33,0,4.22,1.87,4.25,4.19
			c0.02,0,0.05,0,0.07,0c2.16,0,3.92,1.75,3.92,3.92c0,2.16-1.75,3.92-3.92,3.92h-14.39l0,0
			C196.09,239.62,195.1,238.61,195.1,237.36z"/>
		<path class="st22" d="M195.1,237.36c0-1.27,1.03-2.3,2.3-2.3c0.23,0,0.45,0.03,0.66,0.1c-0.03-0.23-0.05-0.47-0.05-0.71
			c0-2.69,2.18-4.86,4.86-4.86c0.31,0,0.61,0.03,0.9,0.08c0.75-1.22,2.09-2.04,3.63-2.04c2.33,0,4.22,1.87,4.25,4.19
			c0.02,0,0.05,0,0.07,0c2.16,0,3.92,1.75,3.92,3.92c0,2.16-1.75,3.92-3.92,3.92h-14.39l0,0
			C196.09,239.62,195.1,238.61,195.1,237.36z"/>
	</g>
</g>
<g id="Stars">
	<g>
		<path class="st9" d="M117.61,257.3c0,0-5.61-4.64-6.4-4.51c-0.79,0.13,0.33,7.99,0.33,7.99s-5.58,3.81-5.77,4.55
			c-0.19,0.74,6.94,1.73,6.94,1.73s1.25,7.34,1.87,7.56c0.62,0.22,5.08-7.44,5.08-7.44s7.56,0.78,8.01,0.3
			c0.45-0.49-5.75-5.94-5.75-5.94s3.13-6.46,2.68-6.89C124.14,254.22,117.61,257.3,117.61,257.3z"/>
		<polygon class="st11" points="123,255.7 116.35,261.62 111.6,253.64 117.4,257.64 		"/>
		<path class="st11" d="M106.83,265.12l9.52-3.5l-4.54-0.51C111.8,261.12,106.86,264.31,106.83,265.12z"/>
		<polygon class="st11" points="116.35,261.62 127.08,267.01 121.22,261.88 		"/>
		<polygon class="st10" points="116.28,262.26 115.02,273.61 118.92,266.85 		"/>
		<path class="st10" d="M113.05,266.35l2.79-4.08l-9.02,2.85C106.83,265.12,110.27,266.49,113.05,266.35z"/>
	</g>
	<g>
		<path class="st9" d="M175.1,342.38c0,0-3.05-3.54-3.56-3.54c-0.51,0-0.65,5.08-0.65,5.08s-3.94,1.8-4.14,2.25
			c-0.2,0.45,4.2,1.84,4.2,1.84s0,4.77,0.37,4.97c0.37,0.2,4.01-4.15,4.01-4.15s4.69,1.31,5.02,1.05c0.33-0.26-2.99-4.37-2.99-4.37
			s2.67-3.74,2.43-4.06C179.56,341.14,175.1,342.38,175.1,342.38z"/>
		<polygon class="st11" points="178.67,341.95 173.83,344.98 171.69,339.42 174.93,342.57 		"/>
		<path class="st11" d="M167.45,346.16l6.39-1.18l-2.81-0.81C171.02,344.17,167.56,345.65,167.45,346.16z"/>
		<polygon class="st11" points="173.83,344.98 180.03,349.54 176.89,345.66 		"/>
		<polygon class="st10" points="173.72,345.37 171.71,352.4 174.89,348.55 		"/>
		<path class="st10" d="M171.25,347.61l2.2-2.27l-6,0.83C167.45,346.16,169.47,347.39,171.25,347.61z"/>
	</g>
	<g>
		<path class="st9" d="M242.99,299.95c0,0-0.18-2.98-0.44-3.18s-2.3,2.34-2.3,2.34s-2.71-0.61-2.98-0.46
			c-0.28,0.15,1.43,2.57,1.43,2.57s-1.85,2.43-1.74,2.68c0.11,0.25,3.65-0.56,3.65-0.56s1.89,2.49,2.16,2.48
			c0.27,0,0.17-3.39,0.17-3.39s2.81-0.87,2.82-1.13C245.74,301.04,242.99,299.95,242.99,299.95z"/>
		<polygon class="st11" points="244.97,301.12 241.34,300.78 242.4,297.12 242.83,299.98 		"/>
		<path class="st11" d="M237.62,298.91l3.72,1.87l-1.12-1.5C240.22,299.28,237.87,298.69,237.62,298.91z"/>
		<polygon class="st11" points="241.34,300.78 242.73,305.51 242.63,302.31 		"/>
		<polygon class="st10" points="241.13,300.94 237.38,303.74 240.49,303.02 		"/>
		<path class="st10" d="M239,301.12l2-0.31l-3.38-1.9C237.62,298.91,238.17,300.32,239,301.12z"/>
	</g>
	<g>
		<path class="st9" d="M162.71,181.75c0,0-0.18-2.98-0.44-3.18c-0.26-0.2-2.3,2.34-2.3,2.34s-2.71-0.61-2.98-0.46
			c-0.28,0.15,1.43,2.57,1.43,2.57s-1.85,2.43-1.74,2.68c0.11,0.25,3.65-0.56,3.65-0.56s1.89,2.49,2.16,2.48
			c0.27,0,0.17-3.39,0.17-3.39s2.81-0.87,2.82-1.13C165.47,182.84,162.71,181.75,162.71,181.75z"/>
		<polygon class="st11" points="164.7,182.91 161.06,182.58 162.12,178.92 162.55,181.78 		"/>
		<path class="st11" d="M157.35,180.71l3.72,1.87l-1.12-1.5C159.94,181.08,157.6,180.49,157.35,180.71z"/>
		<polygon class="st11" points="161.06,182.58 162.46,187.31 162.35,184.11 		"/>
		<polygon class="st10" points="160.85,182.74 157.1,185.54 160.22,184.81 		"/>
		<path class="st10" d="M158.72,182.92l2-0.31l-3.38-1.9C157.35,180.71,157.9,182.12,158.72,182.92z"/>
	</g>
	<g>
		<path class="st9" d="M111.27,115.44c0,0-2.89-0.76-3.16-0.58s1.5,2.92,1.5,2.92s-1.42,2.38-1.37,2.69
			c0.06,0.31,2.88-0.55,2.88-0.55s1.73,2.52,2,2.49c0.27-0.03,0.61-3.65,0.61-3.65s2.95-1.01,3.03-1.27
			c0.08-0.26-3.17-1.22-3.17-1.22s0.05-2.94-0.19-3.03C113.17,113.17,111.27,115.44,111.27,115.44z"/>
		<polygon class="st11" points="113,113.92 111.54,117.27 108.39,115.11 111.24,115.6 		"/>
		<path class="st11" d="M108.6,120.21l2.94-2.94l-1.78,0.59C109.76,117.86,108.47,119.9,108.6,120.21z"/>
		<polygon class="st11" points="111.54,117.27 116.47,117.43 113.4,116.52 		"/>
		<polygon class="st10" points="111.62,117.52 113.11,121.96 113.4,118.77 		"/>
		<path class="st10" d="M111.13,119.6l0.34-2l-2.87,2.61C108.6,120.21,110.11,120.13,111.13,119.6z"/>
	</g>
	<g>
		<path class="st9" d="M264.51,110.71c0,0-2.89-0.76-3.16-0.58c-0.27,0.19,1.5,2.92,1.5,2.92s-1.42,2.38-1.37,2.69
			c0.06,0.31,2.88-0.55,2.88-0.55s1.73,2.52,2,2.49c0.27-0.03,0.61-3.65,0.61-3.65s2.95-1.01,3.03-1.27
			c0.08-0.26-3.17-1.22-3.17-1.22s0.05-2.94-0.19-3.03C266.41,108.43,264.51,110.71,264.51,110.71z"/>
		<polygon class="st11" points="266.24,109.19 264.78,112.54 261.64,110.38 264.49,110.87 		"/>
		<path class="st11" d="M261.84,115.48l2.94-2.94l-1.78,0.59C263,113.13,261.71,115.17,261.84,115.48z"/>
		<polygon class="st11" points="264.78,112.54 269.71,112.69 266.64,111.79 		"/>
		<polygon class="st10" points="264.87,112.78 266.35,117.23 266.64,114.04 		"/>
		<path class="st10" d="M264.37,114.86l0.34-2l-2.87,2.61C261.84,115.48,263.35,115.4,264.37,114.86z"/>
	</g>
	<g>
		<path class="st9" d="M256.04,165.1c0,0-3.05-3.54-3.56-3.54c-0.51,0-0.65,5.08-0.65,5.08s-3.94,1.8-4.14,2.25
			c-0.2,0.45,4.2,1.84,4.2,1.84s0,4.77,0.37,4.97c0.37,0.2,4.01-4.15,4.01-4.15s4.69,1.31,5.02,1.05c0.33-0.26-2.99-4.37-2.99-4.37
			s2.67-3.74,2.43-4.06C260.5,163.86,256.04,165.1,256.04,165.1z"/>
		<polygon class="st11" points="259.61,164.67 254.78,167.7 252.64,162.14 255.87,165.29 		"/>
		<path class="st11" d="M248.39,168.88l6.39-1.18l-2.81-0.81C251.96,166.89,248.5,168.37,248.39,168.88z"/>
		<polygon class="st11" points="254.78,167.7 260.98,172.26 257.83,168.38 		"/>
		<polygon class="st10" points="254.67,168.09 252.65,175.12 255.84,171.27 		"/>
		<path class="st10" d="M252.19,170.33l2.2-2.27l-6,0.83C248.39,168.88,250.41,170.11,252.19,170.33z"/>
	</g>
	<g>
		<path class="st9" d="M82.74,164.53c0,0-0.36-4.65-0.78-4.96c-0.41-0.3-3.53,3.71-3.53,3.71s-4.24-0.88-4.67-0.63
			c-0.43,0.24,2.3,3.97,2.3,3.97s-2.82,3.84-2.65,4.23s5.69-0.98,5.69-0.98s3.01,3.83,3.43,3.82c0.42-0.01,0.17-5.29,0.17-5.29
			s4.37-1.43,4.36-1.83C87.07,166.16,82.74,164.53,82.74,164.53z"/>
		<polygon class="st11" points="85.88,166.29 80.19,165.87 81.75,160.12 82.49,164.58 		"/>
		<path class="st11" d="M74.34,163.04l5.85,2.83l-1.79-2.32C78.4,163.55,74.73,162.7,74.34,163.04z"/>
		<polygon class="st11" points="80.19,165.87 82.49,173.21 82.24,168.22 		"/>
		<polygon class="st10" points="79.87,166.12 74.08,170.59 78.93,169.38 		"/>
		<path class="st10" d="M76.55,166.46l3.12-0.53l-5.33-2.88C74.34,163.04,75.24,165.24,76.55,166.46z"/>
	</g>
	<g>
		<path class="st9" d="M179.37,227.43c0,0,0.7-4.61,0.36-5c-0.33-0.39-4.28,2.82-4.28,2.82s-3.93-1.81-4.4-1.67
			c-0.47,0.14,1.34,4.38,1.34,4.38s-3.62,3.11-3.53,3.52c0.09,0.41,5.76,0.33,5.76,0.33s2.07,4.41,2.48,4.49
			c0.41,0.08,1.37-5.12,1.37-5.12s4.58-0.41,4.67-0.8C183.22,230,179.37,227.43,179.37,227.43z"/>
		<polygon class="st11" points="182.02,229.86 176.58,228.16 179.4,222.92 179.12,227.42 		"/>
		<path class="st11" d="M171.52,224.09l5.06,4.07l-1.22-2.66C175.36,225.5,171.97,223.84,171.52,224.09z"/>
		<polygon class="st11" points="176.58,228.16 177.16,235.83 178.05,230.92 		"/>
		<polygon class="st10" points="176.21,228.33 169.56,231.38 174.56,231.29 		"/>
		<path class="st10" d="M172.9,227.91l3.16,0.19l-4.54-4.01C171.52,224.09,171.9,226.42,172.9,227.91z"/>
	</g>
</g>
<g id="Ship">
	<g>
		<path class="st9" d="M212.55,132.8c-0.99-1.2-1.7-2.61-2.04-4.18c-1.32-6.13,3.52-12.36,10.79-13.93
			c7.28-1.56,14.24,2.14,15.56,8.27c0.34,1.57,0.27,3.15-0.14,4.65L212.55,132.8z"/>
		<path class="st12" d="M212.55,132.8c-0.99-1.2-1.7-2.61-2.04-4.18c-1.32-6.13,3.52-12.36,10.79-13.93
			c7.28-1.56,14.24,2.14,15.56,8.27c0.34,1.57,0.27,3.15-0.14,4.65L212.55,132.8z"/>
		<path class="st9" d="M194.4,134.88c0.07,0.31,0.23,0.59,0.49,0.84c2.72,2.69,15.69,2.41,30.74-0.82c15.06-3.23,27-8.3,28.37-11.87
			c0.14-0.33,0.17-0.66,0.1-0.97c-0.76-3.55-14.75-3.56-31.24-0.02C206.39,125.58,193.64,131.33,194.4,134.88z"/>
		<path class="st10" d="M194.89,135.72c2.72,2.69,15.69,2.41,30.74-0.82c15.06-3.23,27-8.3,28.37-11.87
			c-2.71-2.69-15.68-2.42-30.75,0.82C208.21,127.08,196.27,132.16,194.89,135.72z"/>
		<path class="st9" d="M214.78,133.73c0.02,0.11,0.08,0.2,0.17,0.29c0.92,0.92,5.33,0.82,10.44-0.28c5.11-1.1,9.17-2.82,9.64-4.04
			c0.04-0.11,0.06-0.22,0.03-0.33c-0.09-0.4-0.66-0.67-1.6-0.8c-1.89-0.27-5.26-0.01-9.01,0.8c-3.75,0.81-6.93,1.94-8.54,2.97
			C215.11,132.85,214.7,133.34,214.78,133.73z"/>
		<path class="st12" d="M215.91,132.35c1.89,0.28,5.26,0.01,9.01-0.79c3.75-0.8,6.93-1.94,8.54-2.98c-1.89-0.27-5.26-0.01-9.01,0.8
			C220.7,130.18,217.52,131.32,215.91,132.35z"/>
		<path class="st9" d="M221.06,126.95c0.13,0.59,1.21,0.86,2.42,0.6c1.21-0.26,2.09-0.95,1.96-1.54c-0.13-0.59-1.21-0.86-2.42-0.6
			S220.93,126.36,221.06,126.95z"/>
		<path class="st9" d="M209.52,130.55c0.13,0.59,1.21,0.86,2.42,0.6c1.21-0.26,2.09-0.95,1.96-1.54c-0.13-0.59-1.21-0.86-2.42-0.6
			C210.27,129.27,209.39,129.96,209.52,130.55z"/>
		<path class="st9" d="M202.14,135.31c0.13,0.59,1.21,0.86,2.42,0.6c1.21-0.26,2.09-0.95,1.96-1.54c-0.13-0.59-1.21-0.86-2.42-0.6
			C202.89,134.02,202.02,134.71,202.14,135.31z"/>
		<path class="st9" d="M237.09,124.17c0.13,0.59-0.75,1.28-1.96,1.54s-2.29-0.01-2.42-0.6c-0.13-0.59,0.75-1.28,1.96-1.54
			C235.88,123.31,236.97,123.58,237.09,124.17z"/>
		<path class="st9" d="M245.77,125.48c0.13,0.59-0.75,1.28-1.96,1.54c-1.21,0.26-2.29-0.01-2.42-0.6c-0.13-0.59,0.75-1.28,1.96-1.54
			C244.56,124.61,245.64,124.88,245.77,125.48z"/>
		<g>
			<path class="st23" d="M217.45,117.76c0.04-0.01,0.08-0.02,0.12-0.05c0.86-0.55,1.79-1.01,2.76-1.34
				c0.18-0.06,0.28-0.26,0.21-0.44c-0.06-0.18-0.26-0.28-0.44-0.21c-1.02,0.35-2,0.83-2.91,1.41c-0.16,0.1-0.21,0.32-0.1,0.48
				C217.17,117.73,217.32,117.79,217.45,117.76z"/>
		</g>
		<g>
			<path class="st23" d="M232.78,118.81c0.07-0.01,0.13-0.05,0.18-0.1c0.13-0.14,0.12-0.36-0.02-0.49
				c-2.75-2.55-6.72-3.7-10.63-3.06c-0.18,0.03-0.32,0.21-0.29,0.4c0.03,0.19,0.21,0.32,0.4,0.29c3.7-0.6,7.45,0.47,10.05,2.88
				C232.56,118.8,232.68,118.83,232.78,118.81z"/>
		</g>
	</g>
</g>
<g id="Planet">
	<g>
		<path class="st9" d="M188.7,272.68c-0.03,1.28-0.22,2.52-0.54,3.7c-0.24,0.91-0.58,1.8-0.98,2.63c-2.54,5.29-8.02,8.89-14.26,8.75
			c-5.1-0.12-9.57-2.69-12.3-6.58c-0.43-0.6-0.81-1.24-1.14-1.91c-0.22-0.44-0.42-0.88-0.6-1.34c-0.26-0.68-0.48-1.39-0.64-2.11
			c-0.11-0.45-0.19-0.89-0.24-1.35c-0.13-0.82-0.17-1.65-0.15-2.5c0-0.18,0.01-0.36,0.02-0.54c0.47-8.26,7.41-14.73,15.76-14.54
			c2.61,0.06,5.07,0.77,7.2,1.97c1.04,0.58,2.01,1.29,2.89,2.11c1.36,1.24,2.48,2.71,3.32,4.36c0.29,0.58,0.55,1.19,0.77,1.8
			c0.17,0.46,0.32,0.93,0.43,1.41c0.09,0.32,0.15,0.65,0.21,0.98C188.63,270.55,188.72,271.6,188.7,272.68z"/>
		<path class="st11" d="M187.8,267.14c-0.43-0.12-0.89-0.22-1.39-0.26c-2.5-0.19-5.86-0.13-8.57,2.88
			c-2.72,3.01-3.76-0.23-10.63,0.92c-3.21,0.54-6.55,2.19-9.22,3.8c-0.13-0.82-0.17-1.65-0.15-2.5c0-0.18,0.01-0.36,0.02-0.54
			c3.87-2.82-0.14-5.11,6.26-5.77c7.83-0.8,6.96,0.44,10.98-4.35c1.49-1.77,3.62-2.38,5.71-2.45c1.04,0.58,2.01,1.29,2.89,2.11
			c1.36,1.24,2.48,2.71,3.32,4.36C187.32,265.92,187.58,266.52,187.8,267.14z"/>
		<path class="st11" d="M188.7,272.68c-0.03,1.28-0.22,2.52-0.54,3.7c-0.24,0.91-0.58,1.8-0.98,2.63c-1.76-0.05-3.36-0.87-5.62-1.09
			c-3.76-0.36-4.33,0.19-5.76,1.69c-1.43,1.5-5.03,0.16-7.81,0.38c-1.81,0.14-5.19,0.76-7.37,1.19c-0.43-0.6-0.81-1.24-1.14-1.91
			c2.91-0.55,7.43-1.45,8.28-1.8c1.27-0.53,5.91-2.23,8.83-1.89c2.92,0.35,2.99-2.71,4.86-5.46c1.5-2.19,3.21-2.12,6.78-1.57
			c0.09,0.32,0.15,0.65,0.21,0.98C188.63,270.55,188.72,271.6,188.7,272.68z"/>
		<path class="st11" d="M187.03,265.34c-1.89-0.07-4.11-0.24-5.79-0.52c-3.48-0.57-3.54,2.21-4.05,3.23
			c-0.51,1.01-1.83,0.33-3.07-0.03c-1.25-0.37-3.71,0.18-5.81,0.5c-2.09,0.32-5.55,2.01-5.19,1.11c0.37-0.89,2.55-1.4,4.3-1.76
			c1.74-0.37,2.73-0.66,4.62-0.82c1.89-0.17,4.05-0.47,5.39-1.42c1.29-0.9,3.02-4.46,6.27-4.65
			C185.07,262.22,186.19,263.69,187.03,265.34z"/>
		<path class="st11" d="M188.7,272.68c-0.03,1.28-0.22,2.52-0.54,3.7c-0.21-0.07-0.42-0.13-0.64-0.13
			c-1.05-0.02-3.07,0.28-4.11-0.23c-1.04-0.51-2.02,0.02-4.61,0.66c-2.59,0.64-2.39,0.93-4.57,1.92c-2.19,1-4.28,0.68-4.4-0.1
			c-0.12-0.76,3.18-1.74,4.36-1.57c1.18,0.16,3.36-0.62,3.85-0.61c0.49,0.01,1.69-0.66,2.04-0.79c0.35-0.13,2.24-0.44,2.4-1.34
			c0.16-0.9,0.14-3.13,3.65-4.52c0.66-0.26,1.46-0.28,2.31-0.14C188.63,270.55,188.72,271.6,188.7,272.68z"/>
		<path class="st11" d="M172.57,273.33c-0.05,0.49-8.29,4-10.17,3.96c-0.94-0.02-2.35,0.35-3.53,0.65
			c-0.26-0.68-0.48-1.39-0.64-2.11c1.63-0.83,3.72-1.83,5.15-2.28c2.67-0.85,4.14-1.03,5.53-0.78
			C170.3,273.01,172.61,272.85,172.57,273.33z"/>
		<path class="st9" d="M157.03,277.49c0,0-10.08,3.07-10.71,1.97c-1.88-3.25,20.81-13.58,43.47-16.83c22.66-3.25,1.97,5.5,1.97,5.5
			s4.96-3.57,2.92-3.62c-3.85-0.09-27.92,5.54-40.48,11.92C152.59,277.25,157.03,277.49,157.03,277.49z"/>
		<path class="st24" d="M157.03,277.49c0,0-10.08,3.07-10.71,1.97c-1.88-3.25,20.81-13.58,43.47-16.83c22.66-3.25,1.97,5.5,1.97,5.5
			s4.96-3.57,2.92-3.62c-3.85-0.09-27.92,5.54-40.48,11.92C152.59,277.25,157.03,277.49,157.03,277.49z"/>
	</g>
</g>
<g id="Airplane">
	<g>
		<g>
			<path class="st9" d="M124.49,219.8l0.24,0.15l0.39,0.24l8.72-0.81h0.01l-3.08-2.46l-6.2,2.19
				C124.25,219.21,124.21,219.63,124.49,219.8z"/>
			<path class="st14" d="M124.72,219.94l0.39,0.24l8.72-0.81l-2.69-2.15l-6.2,2.19C124.72,219.5,124.63,219.75,124.72,219.94z"/>
			<path class="st9" d="M132.07,215.76l5.14,3.35l0.05-0.11l2.84-7.05l-1.36-0.67c-0.02-0.01-0.03-0.02-0.05-0.02
				c-0.63-0.28-1.37-0.18-1.88,0.29L132.07,215.76z"/>
			<path class="st14" d="M132.48,215.89l4.77,3.11l2.84-7.05l-1.36-0.67c-0.02-0.01-0.03-0.02-0.05-0.02
				c-0.52-0.09-1.06,0.05-1.47,0.41L132.48,215.89z"/>
		</g>
		<g>
			<path class="st9" d="M73.21,205.62c0.01,0.01,0.02,0.02,0.04,0.03l2.12,1.71h29.78l-3.76-3.77l-3.06-3.07l-24.62,3.48
				C72.91,204.12,72.63,205.1,73.21,205.62z"/>
			<path class="st22" d="M75.58,206.31l1.04,1.06h28.52l-3.76-3.77l-25.54,2.01C75.49,205.63,75.34,206.06,75.58,206.31z"/>
			<path class="st14" d="M73.21,205.62c0.01,0.01,0.02,0.02,0.04,0.03l2.12,1.71h29.48l-6.22-6.23L74,204.61
				C73.47,204.69,73.17,205.16,73.21,205.62z"/>
			<g>
				<path class="st9" d="M87.94,204.4c-0.23-0.29-0.37-0.69-0.37-1.15c0.01-1.02,0.71-1.96,1.57-2.1c0.37-0.06,0.71,0.04,0.97,0.26
					c1.61,1.04,7.06,4.92,7.93,6.94c0.54,1.27-1.38,0.59-2.7,0.32c-1.3-0.26-5.06-2.48-7.1-3.99c-0.05-0.03-0.09-0.06-0.13-0.1
					c0,0,0,0,0,0C88.04,204.52,87.98,204.46,87.94,204.4z"/>
				<path class="st22" d="M87.57,203.25c-0.01,0.47,0.13,0.86,0.37,1.15c0.05,0.06,0.1,0.12,0.17,0.18c0.04,0.04,0.09,0.07,0.13,0.1
					c0.28,0.21,0.59,0.42,0.92,0.65c2.1,1.43,5.05,3.12,6.18,3.34c1.33,0.27,3.25,0.95,2.7-0.32c-0.7-1.64-4.45-4.52-6.69-6.09
					c-0.51-0.36-0.94-0.65-1.24-0.85c-0.26-0.22-0.6-0.32-0.97-0.26C88.28,201.29,87.58,202.23,87.57,203.25z"/>
				<path class="st9" d="M87.57,203.25c-0.01,0.47,0.13,0.86,0.37,1.15c0.05,0.06,0.1,0.12,0.17,0.18c0.04,0.04,0.09,0.07,0.13,0.1
					c0.28,0.21,0.59,0.42,0.92,0.65c0.43,0,0.82-0.09,1.15-0.28c1.12-0.66,1.26-1.87,1.05-2.79c-0.51-0.36-0.94-0.65-1.24-0.85
					c-0.26-0.22-0.6-0.32-0.97-0.26C88.28,201.29,87.58,202.23,87.57,203.25z"/>
				<path class="st14" d="M87.68,202.93c-0.01,0.76,0.5,1.3,1.14,1.19c0.64-0.1,1.16-0.81,1.17-1.57c0.01-0.76-0.5-1.3-1.14-1.19
					S87.69,202.17,87.68,202.93z"/>
				<path class="st9" d="M89.17,202.34c-0.12-0.16-0.84-0.19-0.86,0.01c-0.04,0.57,0.31,0.95,0.58,0.91
					C88.94,203.25,89.58,202.9,89.17,202.34z"/>
				<path class="st14" d="M97.61,209.09c0.84,0.17-7.58-5.55-7.58-5.55s-0.54,1.16-1.72,0.77
					C88.31,204.31,92.47,208.08,97.61,209.09z"/>
			</g>
			<g>
				<path class="st9" d="M80.05,205.15c-0.17-0.21-0.28-0.51-0.27-0.85c0.01-0.75,0.53-1.45,1.16-1.55
					c0.27-0.04,0.52,0.03,0.72,0.19c1.19,0.77,5.21,3.63,5.85,5.12c0.4,0.94-1.02,0.43-1.99,0.24c-0.96-0.19-3.73-1.83-5.24-2.95
					c-0.03-0.02-0.07-0.05-0.1-0.07c0,0,0,0,0,0C80.12,205.24,80.08,205.2,80.05,205.15z"/>
				<path class="st22" d="M79.78,204.3c0,0.34,0.1,0.64,0.27,0.85c0.04,0.05,0.08,0.09,0.13,0.13c0.03,0.03,0.06,0.05,0.1,0.07
					c0.21,0.15,0.43,0.31,0.68,0.48c1.55,1.05,3.73,2.3,4.56,2.47c0.98,0.2,2.4,0.7,1.99-0.24c-0.52-1.21-3.28-3.33-4.93-4.49
					c-0.38-0.27-0.7-0.48-0.92-0.62c-0.19-0.16-0.44-0.23-0.72-0.19C80.3,202.85,79.78,203.55,79.78,204.3z"/>
				<path class="st9" d="M79.78,204.3c0,0.34,0.1,0.64,0.27,0.85c0.04,0.05,0.08,0.09,0.13,0.13c0.03,0.03,0.06,0.05,0.1,0.07
					c0.21,0.15,0.43,0.31,0.68,0.48c0.31,0,0.61-0.06,0.85-0.21c0.83-0.49,0.93-1.38,0.77-2.06c-0.38-0.27-0.7-0.48-0.92-0.62
					c-0.19-0.16-0.44-0.23-0.72-0.19C80.3,202.85,79.78,203.55,79.78,204.3z"/>
				<path class="st14" d="M79.86,204.06c-0.01,0.56,0.37,0.96,0.84,0.88c0.47-0.08,0.86-0.59,0.86-1.16
					c0.01-0.56-0.37-0.96-0.84-0.88C80.25,202.98,79.86,203.5,79.86,204.06z"/>
				<path class="st9" d="M80.96,203.63c-0.09-0.12-0.62-0.14-0.63,0c-0.03,0.42,0.23,0.7,0.43,0.67
					C80.79,204.3,81.26,204.04,80.96,203.63z"/>
				<path class="st14" d="M86.99,208.51c0.6,0.12-5.45-3.99-5.45-3.99s-0.39,0.84-1.24,0.56C80.31,205.07,83.3,207.78,86.99,208.51z
					"/>
			</g>
		</g>
		<g>
			<path class="st9" d="M82.28,191.45c0.09,0.34,0.27,0.74,0.57,1.19c0.43,0.64,1.14,1.36,2.27,2.11c0.17,0.11,0.34,0.23,0.51,0.34
				h0.01c0.93,0.61,1.84,1.18,2.39,1.51l23.79,15.1c4.1,2.61,8.59,4.55,13.3,5.76l1.54,0.4l8.11,2.08c0.6,0.15,1.23,0.04,1.74-0.32
				l0,0l1.19-0.84l-6.41-4.53c-1.24-0.87-2.51-1.71-3.8-2.49l-31.9-19.3c-4.76-2.67-6.07-2.57-8.79-2.11
				c-1.43-0.3-2.75-0.26-3.6-0.18c-0.37,0.04-0.68,0.27-0.83,0.57C82.24,190.94,82.21,191.2,82.28,191.45z"/>
			<path class="st22" d="M82.28,191.45c0.09,0.34,0.27,0.74,0.57,1.19c0.43,0.64,1.14,1.36,2.27,2.11c0.17,0.11,0.34,0.23,0.51,0.34
				h0.01c0.02,0.01,0.03,0.02,0.05,0.04c0,0,0,0,0,0c0.92,0.6,1.8,1.15,2.33,1.48l7.13,4.52l16.66,10.57
				c0.14,0.09,0.27,0.17,0.41,0.26c3.99,2.48,8.33,4.33,12.89,5.5l1.54,0.4l8.11,2.08c0.6,0.15,1.23,0.04,1.74-0.32l1.19-0.84
				l-6.41-4.53c-1.24-0.87-2.51-1.71-3.8-2.49l-3.75-2.26l-17-10.29l-11.15-6.75c-4.76-2.67-6.07-2.57-8.79-2.11
				c-0.1-0.02-0.21-0.04-0.31-0.06c-1.31-0.23-2.51-0.2-3.3-0.12c-0.37,0.04-0.68,0.27-0.83,0.57
				C82.24,190.94,82.21,191.2,82.28,191.45z"/>
			<g>
				<path class="st13" d="M128.72,214.17c-0.08,0-0.16-0.02-0.24-0.07l-0.26-0.16c-0.21-0.13-0.28-0.41-0.15-0.62
					c0.13-0.21,0.41-0.28,0.62-0.15l0.26,0.16c0.21,0.13,0.28,0.41,0.15,0.62C129.02,214.09,128.87,214.17,128.72,214.17z"/>
				<path class="st13" d="M127.19,213.24c-0.08,0-0.16-0.02-0.23-0.07l-0.51-0.31c-0.21-0.13-0.28-0.41-0.15-0.62
					c0.13-0.21,0.41-0.28,0.62-0.15l0.51,0.31c0.21,0.13,0.28,0.41,0.15,0.62C127.49,213.16,127.34,213.24,127.19,213.24z
					 M125.4,212.16c-0.08,0-0.16-0.02-0.23-0.07l-0.51-0.31c-0.21-0.13-0.28-0.41-0.15-0.62c0.13-0.21,0.41-0.28,0.62-0.15
					l0.51,0.31c0.21,0.13,0.28,0.41,0.15,0.62C125.7,212.08,125.56,212.16,125.4,212.16z M123.61,211.08
					c-0.08,0-0.16-0.02-0.23-0.07l-0.51-0.31c-0.21-0.13-0.28-0.41-0.15-0.62c0.13-0.21,0.41-0.28,0.62-0.15l0.51,0.31
					c0.21,0.13,0.28,0.41,0.15,0.62C123.92,211,123.77,211.08,123.61,211.08z M121.83,209.99c-0.08,0-0.16-0.02-0.23-0.07
					l-0.51-0.31c-0.21-0.13-0.28-0.41-0.15-0.62c0.13-0.21,0.41-0.28,0.62-0.15l0.51,0.31c0.21,0.13,0.28,0.41,0.15,0.62
					C122.13,209.91,121.98,209.99,121.83,209.99z M120.04,208.91c-0.08,0-0.16-0.02-0.23-0.07l-0.51-0.31
					c-0.21-0.13-0.28-0.41-0.15-0.62c0.13-0.21,0.41-0.28,0.62-0.15l0.51,0.31c0.21,0.13,0.28,0.41,0.15,0.62
					C120.34,208.83,120.19,208.91,120.04,208.91z M118.25,207.83c-0.08,0-0.16-0.02-0.23-0.07l-0.51-0.31
					c-0.21-0.13-0.28-0.41-0.15-0.62c0.13-0.21,0.41-0.28,0.62-0.15l0.51,0.31c0.21,0.13,0.28,0.41,0.15,0.62
					C118.56,207.75,118.41,207.83,118.25,207.83z M116.47,206.75c-0.08,0-0.16-0.02-0.23-0.07l-0.51-0.31
					c-0.21-0.13-0.28-0.41-0.15-0.62c0.13-0.21,0.41-0.28,0.62-0.15l0.51,0.31c0.21,0.13,0.28,0.41,0.15,0.62
					C116.77,206.67,116.62,206.75,116.47,206.75z M114.68,205.67c-0.08,0-0.16-0.02-0.23-0.07l-0.51-0.31
					c-0.21-0.13-0.28-0.41-0.15-0.62c0.13-0.21,0.41-0.28,0.62-0.15l0.51,0.31c0.21,0.13,0.28,0.41,0.15,0.62
					C114.98,205.59,114.83,205.67,114.68,205.67z M112.89,204.58c-0.08,0-0.16-0.02-0.23-0.07l-0.51-0.31
					c-0.21-0.13-0.28-0.41-0.15-0.62c0.13-0.21,0.41-0.28,0.62-0.15l0.51,0.31c0.21,0.13,0.28,0.41,0.15,0.62
					C113.2,204.51,113.05,204.58,112.89,204.58z M111.11,203.5c-0.08,0-0.16-0.02-0.23-0.07l-0.51-0.31
					c-0.21-0.13-0.28-0.41-0.15-0.62c0.13-0.21,0.41-0.28,0.62-0.15l0.51,0.31c0.21,0.13,0.28,0.41,0.15,0.62
					C111.41,203.42,111.26,203.5,111.11,203.5z M109.32,202.42c-0.08,0-0.16-0.02-0.23-0.07l-0.51-0.31
					c-0.21-0.13-0.28-0.41-0.15-0.62c0.13-0.21,0.41-0.28,0.62-0.15l0.51,0.31c0.21,0.13,0.28,0.41,0.15,0.62
					C109.62,202.34,109.47,202.42,109.32,202.42z M107.53,201.34c-0.08,0-0.16-0.02-0.23-0.07l-0.51-0.31
					c-0.21-0.13-0.28-0.41-0.15-0.62c0.13-0.21,0.41-0.28,0.62-0.15l0.51,0.31c0.21,0.13,0.28,0.41,0.15,0.62
					C107.83,201.26,107.68,201.34,107.53,201.34z M105.74,200.25c-0.08,0-0.16-0.02-0.23-0.07l-0.51-0.31
					c-0.21-0.13-0.28-0.41-0.15-0.62c0.13-0.21,0.41-0.28,0.62-0.15l0.51,0.31c0.21,0.13,0.28,0.41,0.15,0.62
					C106.05,200.18,105.9,200.25,105.74,200.25z M103.96,199.17c-0.08,0-0.16-0.02-0.23-0.07l-0.51-0.31
					c-0.21-0.13-0.28-0.41-0.15-0.62c0.13-0.21,0.41-0.28,0.62-0.15l0.51,0.31c0.21,0.13,0.28,0.41,0.15,0.62
					C104.26,199.09,104.11,199.17,103.96,199.17z M102.17,198.09c-0.08,0-0.16-0.02-0.23-0.07l-0.51-0.31
					c-0.21-0.13-0.28-0.41-0.15-0.62c0.13-0.21,0.41-0.28,0.62-0.15l0.51,0.31c0.21,0.13,0.28,0.41,0.15,0.62
					C102.47,198.01,102.32,198.09,102.17,198.09z M100.15,196.94l0.23-0.39l-0.31,0.34l-0.43-0.26c-0.21-0.13-0.28-0.41-0.15-0.62
					c0.13-0.21,0.41-0.28,0.62-0.15l0.43,0.26l-0.16,0.44L100.15,196.94z M98.59,195.93c-0.08,0-0.16-0.02-0.23-0.07l-0.51-0.31
					c-0.21-0.13-0.28-0.41-0.15-0.62c0.13-0.21,0.41-0.28,0.62-0.15l0.51,0.31c0.21,0.13,0.28,0.41,0.15,0.62
					C98.9,195.85,98.75,195.93,98.59,195.93z M96.81,194.84c-0.08,0-0.16-0.02-0.23-0.07l-0.51-0.31c-0.21-0.13-0.28-0.41-0.15-0.62
					c0.13-0.21,0.41-0.28,0.62-0.15l0.51,0.31c0.21,0.13,0.28,0.41,0.15,0.62C97.11,194.76,96.96,194.84,96.81,194.84z"/>
				<path class="st13" d="M95.04,193.77c-0.08,0-0.16-0.02-0.23-0.07l-0.26-0.16c-0.21-0.13-0.28-0.41-0.15-0.62
					c0.13-0.21,0.41-0.28,0.62-0.15l0.26,0.16c0.21,0.13,0.28,0.41,0.15,0.62C95.34,193.7,95.19,193.77,95.04,193.77z"/>
			</g>
			<g>
				<path class="st13" d="M92.47,192.29l0.01-1.05c-0.97-0.49-2.38-1.33-4.53-1.07l-1.16,0.17c1.83-0.15,3.66,0.73,5.22,1.68
					L92.47,192.29z"/>
			</g>
			<path class="st14" d="M82.28,191.45c0.09,0.34,0.27,0.74,0.57,1.19c0.66,0.49,1.5,1.06,2.47,1.67
				c3.03,1.91,24.79,15.57,27.67,17.63c2.09,1.49,6.57,3.75,13.66,5.91c2.41,0.73,5.12,1.45,8.15,2.13c0.58,0.13,1.18,0,1.67-0.34
				l0.04-0.03c0,0-9.55-3.21-11.71-4.41c-2.15-1.19-33.09-20.31-36.24-22.04c-2.49-1.36-4.85-2.24-6.2-2.44
				C82.24,190.94,82.21,191.2,82.28,191.45z"/>
		</g>
		<g>
			<path class="st9" d="M104.09,201.3l0.14,0.09l1.62,1.04l7.04,4.51c0.42,0.27,0.92,0.42,1.42,0.42h33.3l-1.24-1.36
				c-1.05-1.15-2.5-1.87-4.06-2.01l-37.95-3.47C103.91,200.48,103.71,201.06,104.09,201.3z"/>
			<path class="st22" d="M105.85,202.43l7.04,4.51c0.42,0.27,0.92,0.42,1.42,0.42h32.31c-0.99-0.87-2.24-1.41-3.56-1.53
				L105.85,202.43z"/>
			<path class="st14" d="M104.23,201.39l8.66,5.55c0.42,0.27,0.92,0.42,1.42,0.42h33.05l-0.69-0.75c-1.06-1.15-2.5-1.87-4.06-2.01
				l-37.95-3.47C104.44,201.11,104.29,201.23,104.23,201.39z"/>
			<g>
				<path class="st9" d="M115.16,204.4c-0.23-0.29-0.37-0.69-0.37-1.15c0.01-1.02,0.71-1.96,1.57-2.1c0.37-0.06,0.71,0.04,0.97,0.26
					c1.61,1.04,7.06,4.92,7.93,6.94c0.54,1.27-1.38,0.59-2.7,0.32c-1.3-0.26-5.06-2.48-7.1-3.99c-0.05-0.03-0.09-0.06-0.13-0.1
					c0,0,0,0,0,0C115.26,204.52,115.21,204.46,115.16,204.4z"/>
				<path class="st22" d="M114.79,203.24c-0.01,0.47,0.13,0.86,0.37,1.15c0.05,0.06,0.1,0.12,0.17,0.18
					c0.04,0.04,0.09,0.07,0.13,0.1c0.28,0.21,0.59,0.42,0.92,0.65c2.1,1.43,5.05,3.12,6.18,3.34c1.33,0.27,3.25,0.95,2.7-0.32
					c-0.7-1.64-4.45-4.52-6.69-6.09c-0.51-0.36-0.94-0.65-1.24-0.85c-0.26-0.22-0.6-0.32-0.97-0.26
					C115.51,201.29,114.8,202.23,114.79,203.24z"/>
				<path class="st9" d="M114.79,203.24c-0.01,0.47,0.13,0.86,0.37,1.15c0.05,0.06,0.1,0.12,0.17,0.18c0.04,0.04,0.09,0.07,0.13,0.1
					c0.28,0.21,0.59,0.42,0.92,0.65c0.43,0,0.82-0.09,1.15-0.28c1.12-0.66,1.26-1.87,1.05-2.79c-0.51-0.36-0.94-0.65-1.24-0.85
					c-0.26-0.22-0.6-0.32-0.97-0.26C115.51,201.29,114.8,202.23,114.79,203.24z"/>
				<path class="st14" d="M114.9,202.93c-0.01,0.76,0.5,1.3,1.14,1.19c0.64-0.1,1.16-0.81,1.17-1.57c0.01-0.76-0.5-1.3-1.14-1.19
					C115.44,201.46,114.91,202.16,114.9,202.93z"/>
				<path class="st9" d="M116.39,202.34c-0.12-0.16-0.84-0.19-0.86,0.01c-0.04,0.57,0.31,0.95,0.58,0.91
					C116.16,203.25,116.81,202.9,116.39,202.34z"/>
				<path class="st14" d="M124.84,209.09c0.84,0.17-7.58-5.55-7.58-5.55s-0.54,1.16-1.72,0.77
					C115.53,204.31,119.7,208.08,124.84,209.09z"/>
			</g>
			<g>
				<path class="st9" d="M128.45,205.15c-0.17-0.21-0.28-0.51-0.27-0.85c0.01-0.75,0.53-1.45,1.16-1.55
					c0.27-0.04,0.52,0.03,0.72,0.19c1.19,0.77,5.21,3.63,5.85,5.12c0.4,0.94-1.02,0.43-1.99,0.24c-0.96-0.19-3.73-1.83-5.24-2.95
					c-0.03-0.02-0.07-0.05-0.1-0.07c0,0,0,0,0,0C128.52,205.24,128.48,205.2,128.45,205.15z"/>
				<path class="st22" d="M128.17,204.3c0,0.34,0.1,0.64,0.27,0.85c0.04,0.05,0.08,0.09,0.13,0.13c0.03,0.03,0.06,0.05,0.1,0.07
					c0.21,0.15,0.43,0.31,0.68,0.48c1.55,1.05,3.73,2.3,4.56,2.47c0.98,0.2,2.4,0.7,1.99-0.24c-0.52-1.21-3.28-3.33-4.93-4.49
					c-0.38-0.27-0.7-0.48-0.92-0.62c-0.19-0.16-0.44-0.23-0.72-0.19C128.7,202.85,128.18,203.55,128.17,204.3z"/>
				<path class="st9" d="M128.17,204.3c0,0.34,0.1,0.64,0.27,0.85c0.04,0.05,0.08,0.09,0.13,0.13c0.03,0.03,0.06,0.05,0.1,0.07
					c0.21,0.15,0.43,0.31,0.68,0.48c0.31,0,0.61-0.06,0.85-0.21c0.83-0.49,0.93-1.38,0.77-2.06c-0.38-0.27-0.7-0.48-0.92-0.62
					c-0.19-0.16-0.44-0.23-0.72-0.19C128.7,202.85,128.18,203.55,128.17,204.3z"/>
				<path class="st14" d="M128.26,204.06c-0.01,0.56,0.37,0.96,0.84,0.88c0.47-0.08,0.86-0.59,0.86-1.16
					c0.01-0.56-0.37-0.96-0.84-0.88C128.65,202.98,128.26,203.5,128.26,204.06z"/>
				<path class="st9" d="M129.36,203.63c-0.09-0.12-0.62-0.14-0.63,0c-0.03,0.42,0.23,0.7,0.43,0.67
					C129.18,204.3,129.66,204.04,129.36,203.63z"/>
				<path class="st14" d="M135.39,208.51c0.6,0.12-5.45-3.99-5.45-3.99s-0.39,0.84-1.24,0.56
					C128.71,205.07,131.7,207.78,135.39,208.51z"/>
			</g>
		</g>
		<g>
			<path class="st9" d="M146.84,220.22l-10.87-0.79l-5.21-2.51l13.75,1.67c0.48,0.06,0.93,0.27,1.27,0.61L146.84,220.22z"/>
			<path class="st9" d="M132.21,217.61c0.01,0.02,0.03,0.03,0.05,0.04l3.71,1.79l10.39,0.75l0.48,0.04l-1.06-1.02
				c-0.35-0.34-0.8-0.55-1.27-0.61l-12.09-1.47C132.13,217.08,132,217.45,132.21,217.61z"/>
			<path class="st14" d="M132.21,217.61c0.01,0.02,0.03,0.03,0.05,0.04l3.71,1.79l10.39,0.75l-0.58-0.56
				c-0.35-0.34-0.8-0.55-1.27-0.61l-12.09-1.47C132.33,217.54,132.26,217.56,132.21,217.61z"/>
		</g>
	</g>
</g>
<g id="Light_bulb">
	<path class="st13" d="M222.67,206.15c1.25,2.88-1.69,6.95-6.57,9.07c-4.88,2.12-9.86,1.51-11.11-1.38
		c-1.26-2.88,1.69-6.95,6.57-9.07C216.44,202.65,221.41,203.26,222.67,206.15z"/>
	<path class="st13" d="M222.32,194.91c0.27-0.76,0.31-1.46,0.05-2.07c-1.23-2.83-8.25-2.51-15.68,0.72
		c-7.43,3.23-12.45,8.15-11.22,10.98c0.26,0.61,0.8,1.06,1.54,1.38c-0.02,0.36,0.03,0.69,0.17,1c0.26,0.6,0.8,1.04,1.55,1.35
		c-0.03,0.37,0.02,0.71,0.16,1.03c0.26,0.6,0.81,1.03,1.57,1.32c-0.04,0.38,0,0.73,0.14,1.06c0.26,0.59,0.81,1.02,1.59,1.3
		c-0.05,0.39-0.02,0.75,0.12,1.08c1.02,2.35,6.86,2.09,13.04-0.6c6.18-2.69,10.35-6.77,9.33-9.13c-0.14-0.33-0.39-0.6-0.7-0.83
		c0.32-0.76,0.39-1.46,0.13-2.05c-0.14-0.32-0.37-0.6-0.67-0.83c0.3-0.75,0.36-1.45,0.1-2.05c-0.14-0.32-0.36-0.59-0.65-0.82
		c0.28-0.75,0.33-1.45,0.07-2.05C222.81,195.41,222.59,195.14,222.32,194.91z"/>
	<path class="st25" d="M222.32,194.91c0.27-0.76,0.31-1.46,0.05-2.07c-1.23-2.83-8.25-2.51-15.68,0.72
		c-7.43,3.23-12.45,8.15-11.22,10.98c0.26,0.61,0.8,1.06,1.54,1.38c-0.02,0.36,0.03,0.69,0.17,1c0.26,0.6,0.8,1.04,1.55,1.35
		c-0.03,0.37,0.02,0.71,0.16,1.03c0.26,0.6,0.81,1.03,1.57,1.32c-0.04,0.38,0,0.73,0.14,1.06c0.26,0.59,0.81,1.02,1.59,1.3
		c-0.05,0.39-0.02,0.75,0.12,1.08c1.02,2.35,6.86,2.09,13.04-0.6c6.18-2.69,10.35-6.77,9.33-9.13c-0.14-0.33-0.39-0.6-0.7-0.83
		c0.32-0.76,0.39-1.46,0.13-2.05c-0.14-0.32-0.37-0.6-0.67-0.83c0.3-0.75,0.36-1.45,0.1-2.05c-0.14-0.32-0.36-0.59-0.65-0.82
		c0.28-0.75,0.33-1.45,0.07-2.05C222.81,195.41,222.59,195.14,222.32,194.91z"/>
	<path class="st9" d="M222.53,164.92c-5.96-13.71-22.33-19.67-35.83-12.66c-11.64,6.05-16.94,20.14-12.2,32.38
		c3.08,7.95,9.59,13.46,17.13,15.61c1.37,0.39,2.48,1.4,2.91,2.75c0.02,0.07,0.05,0.13,0.07,0.19c1.25,2.88,8.38,2.55,15.93-0.74
		c7.55-3.28,12.65-8.27,11.4-11.15c-0.03-0.06-0.06-0.12-0.09-0.18c-0.7-1.26-0.66-2.77-0.01-4.05
		C225.25,180.4,225.75,172.32,222.53,164.92z"/>
	<path class="st26" d="M222.53,164.92c-5.96-13.71-22.33-19.67-35.83-12.66c-11.64,6.05-16.94,20.14-12.2,32.38
		c3.08,7.95,9.59,13.46,17.13,15.61c1.37,0.39,2.48,1.4,2.91,2.75c0.02,0.07,0.05,0.13,0.07,0.19c1.25,2.88,8.38,2.55,15.93-0.74
		c7.55-3.28,12.65-8.27,11.4-11.15c-0.03-0.06-0.06-0.12-0.09-0.18c-0.7-1.26-0.66-2.77-0.01-4.05
		C225.25,180.4,225.75,172.32,222.53,164.92z"/>
	<path class="st13" d="M203.84,200.73c-0.12,0-0.23-0.07-0.29-0.19c-3.69-8.48-13.27-11.99-13.37-12.02
		c-0.12-0.04-0.2-0.16-0.21-0.28c0-0.13,0.07-0.25,0.19-0.3l4.29-1.87l-0.03-3.79c0-0.12,0.07-0.23,0.17-0.28
		c0.11-0.05,0.24-0.04,0.33,0.03l4.87,3.81l0.54-6.16c0.01-0.12,0.08-0.22,0.19-0.26c0.11-0.04,0.23-0.02,0.32,0.05l5.15,4.46
		l0.25-6.81c0-0.12,0.08-0.23,0.19-0.28c0.11-0.05,0.24-0.02,0.33,0.06l2.75,2.6l4.29-1.87c0.13-0.06,0.28-0.02,0.37,0.09
		c0.09,0.11,0.09,0.26,0.01,0.38c-4.35,5.95-1.05,18.16-1.02,18.28c0.05,0.17-0.05,0.34-0.22,0.38c-0.17,0.05-0.34-0.05-0.38-0.22
		c-0.14-0.49-3.12-11.55,0.55-17.94l-3.53,1.54c-0.11,0.05-0.25,0.03-0.34-0.06l-2.4-2.27l-0.24,6.77c0,0.12-0.08,0.23-0.19,0.27
		c-0.11,0.05-0.24,0.03-0.33-0.05l-5.18-4.49l-0.54,6.12c-0.01,0.11-0.08,0.21-0.19,0.26c-0.11,0.05-0.23,0.03-0.32-0.04l-4.82-3.76
		l0.03,3.35c0,0.12-0.07,0.24-0.19,0.29l-3.8,1.65c2.32,1,9.83,4.72,13.03,12.08c0.07,0.16,0,0.34-0.16,0.41
		C203.92,200.72,203.88,200.73,203.84,200.73z"/>
	<path class="st17" d="M198.08,155.36c4.36,3.68,3.63,11.73-1.65,17.98c-5.27,6.25-13.08,8.33-17.45,4.65
		c-4.36-3.68-3.63-11.73,1.65-17.98S193.71,151.68,198.08,155.36z"/>
	<path class="st17" d="M204.22,173.27c1.75,1.48,1.46,4.71-0.66,7.22c-2.12,2.51-5.25,3.34-7,1.87c-1.75-1.48-1.46-4.71,0.66-7.22
		C199.33,172.63,202.47,171.79,204.22,173.27z"/>
</g>
<g id="Speech_bubble">
	<g>
		<g>
			<path class="st9" d="M382.32,168.99h-28.73c-4.89,0-8.85,3.96-8.85,8.85v25c0,4.89,3.96,8.85,8.85,8.85h8.39l-0.03,7.89
				l5.98-7.89h14.39c4.89,0,8.85-3.96,8.85-8.85v-25C391.17,172.95,387.21,168.99,382.32,168.99z"/>
			<path class="st22" d="M382.32,168.99h-28.73c-4.89,0-8.85,3.96-8.85,8.85v25c0,4.89,3.96,8.85,8.85,8.85h8.39l-0.03,7.89
				l5.98-7.89h14.39c4.89,0,8.85-3.96,8.85-8.85v-25C391.17,172.95,387.21,168.99,382.32,168.99z"/>
		</g>
		<g class="st27">
			<g>
				<path d="M358.28,178.63h-4.41v-2.6h12.01v2.6h-4.41v11.18h-3.19V178.63z"/>
			</g>
			<g>
				<g>
					<rect x="368.43" y="176.03" width="13.62" height="1.97"/>
				</g>
				<g>
					<rect x="353.86" y="202.15" width="28.18" height="1.97"/>
				</g>
				<g>
					<rect x="353.86" y="196.92" width="28.18" height="1.97"/>
				</g>
				<g>
					<rect x="353.86" y="191.7" width="28.18" height="1.97"/>
				</g>
				<g>
					<rect x="368.43" y="186.48" width="13.62" height="1.97"/>
				</g>
				<g>
					<rect x="368.43" y="181.26" width="13.62" height="1.97"/>
				</g>
			</g>
		</g>
	</g>
</g>
<g id="Character">
	<g>
		<g>
			<path class="st9" d="M146.31,385.24c0,0,13.56-2.84,41.2-2.84c27.64,0,44.96,2.84,44.96,2.84H146.31z"/>
			<path class="st28" d="M146.31,385.24c0,0,13.56-2.84,41.2-2.84c27.64,0,44.96,2.84,44.96,2.84H146.31z"/>
		</g>
		<g>
			<path class="st13" d="M297.22,210.37c0,0,15.75-3.5,31.02,20.99c15.27,24.49,7.44,93.67-12.51,112.21
				c-19.94,18.55-39.87,20.79-51.85-3.41c-11.98-24.2,3.11-25.2-8.77-54.11c-11.88-28.91-15.85-53.04,1.62-67.1
				C274.21,204.89,297.22,210.37,297.22,210.37z"/>
			<g>
				<path class="st9" d="M276.53,304.58c0,0,13.96,58.13,51.03,105.6c0,0,66.45-4.6,80.95-8.15c-12.66-28.4-20.45-47.32-30.53-99.78
					c-2.43-12.67-14.61-20.58-26.7-19.06c-3.45,0.43-15.03-0.58-34.92,4.97C301.84,292.2,276.53,304.58,276.53,304.58z"/>
				<path class="st22" d="M276.53,304.58c0,0,13.96,58.13,51.03,105.6c0,0,66.45-4.6,80.95-8.15
					c-12.66-28.4-20.45-47.32-30.53-99.78c-2.43-12.67-14.61-20.58-26.7-19.06c-3.45,0.43-15.03-0.58-34.92,4.97
					C301.84,292.2,276.53,304.58,276.53,304.58z"/>
			</g>
			<path class="st9" d="M414.13,409.95l-30.5,1.99c0,0-1.61-2.3-4.18-6.06c-3.61-5.32-9.11-13.59-14.58-22.46
				c-5.45-8.84-10.88-18.27-14.39-25.97c-0.05-0.11-0.1-0.22-0.15-0.33c-15.84-35.06-11.07-68.44-10.24-73.38
				c0.07-0.42,0.11-0.63,0.11-0.63l14.31-1.43c10.57-1.06,21.48,7.2,24.03,18.18l12.61,54.27l2.81,12.1l2,4.34L414.13,409.95z"/>
			<path class="st9" d="M329.36,410.05c-0.1,1.6-0.28,3.08-0.54,4.43l-13.1-2.31c0.49-5.1,0.98-8.97,0.98-8.97s-2.68-5.1-6.65-13
				c-3.37-6.71-7.68-15.45-12.07-24.82c-11.2-23.85-22.98-51.78-21.45-60.8c0.57-3.39,26.38-11.92,26.38-11.92s0.01,0.06,0.03,0.19
				c0.44,2.83,5.86,37.01,15.07,60.48c1.11,2.82,2.17,5.82,3.18,8.93c2.83,8.68,5.2,18.23,6.67,27.11
				C329.13,397.09,329.73,404.31,329.36,410.05z"/>
			<g>
				<path class="st29" d="M213.47,363.98l-16.56-6.27l1.89,20.63c0,0,11.98,0.86,19-8.2L213.47,363.98z"/>
				<polygon class="st29" points="180.32,363.07 184.58,378.12 198.8,378.34 196.91,357.71 				"/>
			</g>
			<path class="st9" d="M279.96,301.63c-14.06,6.56-33.05,59.57-37.5,60.36c-5.06,0.9-30.36-0.79-30.36-0.79l-4.22,17.16
				c0,0,27.73,5.82,39.03,5.82c11.3,0,28.95-28.48,41.85-47.47L279.96,301.63z"/>
			<g>
				<path class="st13" d="M211.45,341.51l-23.53,39.2l-4.72-2.84l23.53-39.2c0.78-1.3,2.48-1.73,3.78-0.95
					c0.65,0.39,1.08,1.01,1.25,1.7C211.93,340.11,211.84,340.86,211.45,341.51z"/>
				<polygon class="st9" points="183.19,377.88 181.98,385.24 187.91,380.71 				"/>
				<polygon class="st22" points="187.92,380.71 184.02,383.69 181.98,385.24 182.4,382.71 183.19,377.87 				"/>
				<polygon class="st13" points="184.02,383.69 181.98,385.24 182.4,382.71 				"/>
				
					<rect x="174.76" y="357.46" transform="matrix(0.5147 -0.8574 0.8574 0.5147 -213.2364 343.739)" class="st30" width="44.49" height="5.51"/>
				
					<rect x="174.76" y="358.61" transform="matrix(0.5147 -0.8574 0.8574 0.5147 -213.2364 343.7395)" class="st30" width="44.49" height="3.21"/>
			</g>
			<path class="st10" d="M395.96,370.57c-0.12,0.08-0.25,0.16-0.38,0.25c-4.82,3.14-14.52,8.36-30.71,12.6
				c-9.83,2.57-22.04,4.79-37.01,5.95c-4.52,0.35-9.3,0.61-14.34,0.75c-1.14,0.04-2.3,0.06-3.47,0.08
				c-3.37-6.71-7.68-15.45-12.07-24.82c0.49-0.06,1.02-0.12,1.58-0.2c5.16-0.62,12.91-1.62,21.63-2.92
				c9.28-1.39,19.66-3.13,29.14-5.14c5.2-1.1,10.13-2.29,14.47-3.55c0,0-4.22-29.82-2.9-39.05c0.86-6,16.42,18.4,27.2,36.22
				c0,0.01,0.01,0.01,0.01,0.02c0.71,1.15,1.38,2.29,2.04,3.37l2.81,12.1L395.96,370.57z"/>
			<g>
				<path class="st29" d="M313.69,374.31l-16.56-6.27l1.89,20.63c0,0,11.98,0.86,19-8.2L313.69,374.31z"/>
				<polygon class="st29" points="280.54,373.39 284.8,388.45 299.02,388.67 297.13,368.04 				"/>
			</g>
			<path class="st9" d="M358.07,281.67c-9,7.84,10.42,71.03,10.42,73.93s-59.64,15.35-59.64,15.35l2,16.45
				c0,0,72.42-7.97,80.68-12.55c8.26-4.58-4.32-53.84-10.16-73.22C374.73,279.6,358.07,281.67,358.07,281.67z"/>
			<path class="st13" d="M317.59,340.6c-0.15,0-0.29-0.07-0.38-0.18c-0.19-0.23-19.06-23.35-8.82-50c0.1-0.26,0.39-0.39,0.65-0.29
				c0.26,0.1,0.39,0.39,0.29,0.65c-9.17,23.87,5.51,44.86,8.23,48.46c17.97-27.94,17.66-54.76,17.66-55.03
				c-0.01-0.28,0.21-0.5,0.49-0.51c0.3-0.02,0.5,0.21,0.51,0.49c0.01,0.27,0.33,27.77-18.2,56.18c-0.09,0.13-0.23,0.22-0.39,0.23
				C317.61,340.6,317.6,340.6,317.59,340.6z"/>
			<g>
				<path class="st31" d="M303.01,289.08c3.97,4.01,5.59,7.14,6.11,9.42c0.77,3.34-0.8,4.91-0.8,4.91
					c2.32,8.19,13.41,6.12,13.41,6.12c12-14.9,10.49-24.7,10.49-24.7c-7.98,0.09-13.6-4.78-17.3-9.85
					c-3.96-5.45-5.7-11.12-5.7-11.12l-13.5,18.9C298.76,285.06,301.13,287.18,303.01,289.08z"/>
				<path class="st10" d="M295.7,282.75c3.05,2.3,5.43,4.43,7.3,6.33c3.97,4.01,5.59,7.14,6.11,9.42c5.85-7.45,6.64-16.24,5.8-23.52
					c-3.96-5.45-5.7-11.12-5.7-11.12L295.7,282.75z"/>
			</g>
			<g>
				<path class="st31" d="M307.83,234.07c6.42,18.91,9.53,26.76,4.39,40.45c-7.73,20.6-31.57,25.44-43.32,9.09
					c-10.57-14.71-19.3-43.16-4.86-58.74C278.27,209.53,301.41,215.16,307.83,234.07z"/>
				<path class="st13" d="M286.17,230c16.3,6.86,4.8,31.78,23.73,20.05c18.92-11.73-4.37-34.66-19.38-34.4
					C275.51,215.91,286.17,230,286.17,230z"/>
				<path class="st13" d="M290.58,215.89c4.14,13.03,3.97,17.11-8.19,19.79c0.81-4.38-2.53-9.02-2.53-9.02s1.02,5.79-2.19,9.68
					c-3.82,0.52-7.07,1.1-10.14,2.22c-0.27-2.6-2.33-5.33-2.33-5.33s0.54,3.9-1.23,6.97c-2.75,1.52-5.46,3.7-8.43,6.92
					C248.66,234.79,262.02,209.82,290.58,215.89z"/>
				<path class="st13" d="M282.35,252.17c0.61,1.56,0.32,3.2-0.65,3.65c-0.96,0.45-2.24-0.45-2.85-2.01
					c-0.61-1.56-0.32-3.2,0.65-3.65C280.46,249.71,281.74,250.61,282.35,252.17z"/>
				<path class="st13" d="M264.3,260.98c0.61,1.56,0.32,3.2-0.65,3.65c-0.96,0.45-2.24-0.45-2.85-2.01
					c-0.61-1.56-0.32-3.2,0.65-3.65C262.42,258.52,263.69,259.42,264.3,260.98z"/>
				<path class="st13" d="M261.91,258.86l-3.97,0.58C257.95,259.44,260.91,261.52,261.91,258.86z"/>
				<path class="st32" d="M270.36,261.17c0,0,0.11,7.91-1.38,12.45c2.7,1.01,5.67-1.43,5.67-1.43L270.36,261.17z"/>
				<path class="st13" d="M285.37,273.98c-0.71,0.5-1.5,0.97-2.39,1.39c-0.24,0.11-0.51,0-0.61-0.26c-0.1-0.25,0.01-0.55,0.26-0.66
					c6.47-3.04,7.64-9.26,7.65-9.32c0.05-0.28,0.29-0.46,0.55-0.42c0.25,0.04,0.42,0.3,0.37,0.58
					C291.16,265.53,290.22,270.54,285.37,273.98z"/>
				<path class="st31" d="M318.78,249.62c0.22,4.49-1.43,8.27-3.68,10.46c-3.38,3.3-7.68-0.29-8.92-5.59
					c-1.12-4.77-0.7-12.24,3.74-13.44C314.3,239.87,318.52,244.48,318.78,249.62z"/>
				<path class="st13" d="M282.84,241.65c-0.22,0.13-0.48,0.17-0.74,0.08c-3.95-1.35-6.7,0.97-6.73,0.99
					c-0.41,0.34-1,0.29-1.32-0.14c-0.32-0.43-0.24-1.06,0.17-1.41c0.14-0.12,3.59-3.03,8.49-1.36c0.49,0.17,0.75,0.73,0.58,1.26
					C283.21,241.33,283.05,241.53,282.84,241.65z"/>
				<path class="st13" d="M255.69,254.88c-0.2,0.13-0.45,0.19-0.69,0.14c-0.51-0.11-0.82-0.63-0.7-1.18
					c1.18-5.44,5.25-7.23,5.42-7.3c0.49-0.21,1.03,0.04,1.2,0.55c0.18,0.51-0.07,1.1-0.56,1.3c-0.16,0.07-3.29,1.5-4.23,5.83
					C256.07,254.51,255.91,254.74,255.69,254.88z"/>
				<path class="st13" d="M279.96,250.05l-3.97,0.58C275.99,250.63,278.95,252.71,279.96,250.05z"/>
			</g>
			<g>
				<path class="st13" d="M317.45,339.25c0,0,4.91,6.67,0,6.67C312.53,345.91,317.45,339.25,317.45,339.25z"/>
				<path class="st9" d="M317.45,341.55c0,0,2.64,3.82,0,3.82C314.81,345.38,317.45,341.55,317.45,341.55z"/>
			</g>
		</g>
		<g>
			<rect x="70.64" y="392.63" class="st13" width="360.17" height="23.28"/>
			<rect x="70.64" y="392.63" class="st25" width="360.17" height="23.28"/>
			<path class="st13" d="M432.16,384.87H69.3c-2.05,0-3.71,1.66-3.71,3.71v8.1c0,2.05,1.66,3.71,3.71,3.71h362.86
				c2.05,0,3.71-1.66,3.71-3.71v-8.1C435.87,386.53,434.21,384.87,432.16,384.87z"/>
			<path class="st17" d="M432.16,384.87H69.3c-2.05,0-3.71,1.66-3.71,3.71v8.1c0,2.05,1.66,3.71,3.71,3.71h362.86
				c2.05,0,3.71-1.66,3.71-3.71v-8.1C435.87,386.53,434.21,384.87,432.16,384.87z"/>
		</g>
		<g>
			<path class="st9" d="M118.54,377.88h44.39c0,0,7.03,5.36,25.86,7.36H138.4C138.4,385.24,123.09,383.94,118.54,377.88z"/>
			<path class="st22" d="M118.54,377.88h44.39c0,0,7.03,5.36,25.86,7.36H138.4C138.4,385.24,123.09,383.94,118.54,377.88z"/>
		</g>
	</g>
</g>
</svg>
