<?xml version="1.0" encoding="utf-8"?>
<!-- Generator: Adobe Illustrator 26.3.1, SVG Export Plug-In . SVG Version: 6.00 Build 0)  -->
<svg version="1.1" id="Layer_1" xmlns="http://www.w3.org/2000/svg" xmlns:xlink="http://www.w3.org/1999/xlink" x="0px" y="0px"
	 viewBox="0 0 64 64" style="enable-background:new 0 0 64 64;" xml:space="preserve">
<style type="text/css">
	.st0{fill:#00A3FE;}
	.st1{fill:#3C4752;}
	.st2{fill:#66CEDB;}
	.st3{fill:#FFFFFF;}
	.st4{fill:none;stroke:#00A3FE;stroke-width:2;stroke-miterlimit:10;}
	.st5{fill:none;stroke:#00A3FE;stroke-width:2;stroke-miterlimit:10;stroke-dasharray:3.6874;}
	.st6{fill:none;stroke:#00A3FE;stroke-width:2;stroke-miterlimit:10;stroke-dasharray:1.8437;}
	.st7{fill:none;stroke:#00A3FE;stroke-width:2;stroke-miterlimit:10;stroke-dasharray:0.9219;}
</style>
<path class="st0" d="M58,50c-0.9,0-1.7,0.4-2.2,1H55v-6h-8v-0.8c0.6-0.5,1-1.3,1-2.2c0-1.7-1.3-3-3-3s-3,1.3-3,3
	c0,0.9,0.4,1.7,1,2.2V45h-8v6h-0.8c-0.5-0.6-1.3-1-2.2-1c-1.7,0-3,1.3-3,3s1.3,3,3,3c0.9,0,1.7-0.4,2.2-1H35v6h20v-6h0.8
	c0.5,0.6,1.3,1,2.2,1c1.7,0,3-1.3,3-3S59.7,50,58,50L58,50z"/>
<path class="st1" d="M22,28h-0.8c-0.5,0.6-1.3,1-2.2,1c-1.7,0-3-1.3-3-3s1.3-3,3-3c0.9,0,1.7,0.4,2.2,1H22v-6h8v-0.8
	c-0.6-0.5-1-1.3-1-2.2c0-1.7,1.3-3,3-3c1.7,0,3,1.3,3,3c0,0.9-0.4,1.7-1,2.2V18h8v6h0.8c0.5-0.6,1.3-1,2.2-1c1.7,0,3,1.3,3,3
	s-1.3,3-3,3c-0.9,0-1.7-0.4-2.2-1H42v6h19V3H3v31h19V28z"/>
<path class="st2" d="M0,0"/>
<path class="st2" d="M0,0"/>
<g>
	<line class="st3" x1="32" y1="33.4" x2="32" y2="20.4"/>
	<g>
		<line class="st4" x1="32" y1="33.4" x2="32" y2="26.1"/>
		<g>
			<polygon class="st0" points="36,27.3 32,20.4 28,27.3 			"/>
		</g>
	</g>
</g>
<g>
	<line class="st3" x1="32" y1="38.3" x2="32" y2="34.7"/>
	<line class="st5" x1="32" y1="38.3" x2="32" y2="34.7"/>
</g>
<g>
	<line class="st3" x1="32" y1="41.2" x2="32" y2="39.4"/>
	<line class="st6" x1="32" y1="41.2" x2="32" y2="39.4"/>
</g>
<g>
	<line class="st3" x1="32" y1="43.3" x2="32" y2="42.4"/>
	<line class="st7" x1="32" y1="43.3" x2="32" y2="42.4"/>
</g>
</svg>
