<?xml version="1.0" encoding="utf-8"?>
<!-- Generator: Adobe Illustrator 26.3.1, SVG Export Plug-In . SVG Version: 6.00 Build 0)  -->
<svg version="1.1" id="Layer_1" xmlns="http://www.w3.org/2000/svg" xmlns:xlink="http://www.w3.org/1999/xlink" x="0px" y="0px"
	 viewBox="0 0 52 52" style="enable-background:new 0 0 52 52;" xml:space="preserve">
<style type="text/css">
	.st0{fill:#FFFFFF;stroke:#000000;stroke-miterlimit:10;}
	.st1{fill:#00A3FE;}
	.st2{fill:#FFFFFF;}
</style>
<path d="M48.2,12.2h-0.6V9.9c0-2-1.6-3.5-3.5-3.5H22c-0.5,0-1-0.3-1.3-0.7c-0.9-1-1.7-3.4-4.4-3.4H7.9c-1.9,0-3.5,1.6-3.5,3.5v6.4
	H3.8c-1.3,0-2.3,1-2.3,2.3c0,0.1,0,0.1,0,0.2l2.1,22.9c0.2,2.4,2.2,4.2,4.6,4.2h7.7c1,4.5,5,8,9.8,8c4.8,0,8.9-3.4,9.8-8h8.3
	c2.4,0,4.4-1.8,4.6-4.2l2.1-22.9c0.1-1.3-0.8-2.4-2.1-2.5C48.4,12.2,48.3,12.2,48.2,12.2z"/>
<path class="st0" d="M6.3,5.8c0-0.8,0.7-1.5,1.5-1.5h8.4c1.3,0,1.6,1.3,2.7,2.6c0.7,0.9,1.8,1.5,3,1.5h22.2c0.8,0,1.5,0.7,1.5,1.5
	v2.3H6.3V5.8z"/>
<path class="st1" d="M33.7,39.8c0,4.3-3.6,8-8,8c-4.4,0-8-3.6-8-8v0c0-4.4,3.6-8,8-8C30.1,31.8,33.7,35.4,33.7,39.8L33.7,39.8z"/>
<path class="st0" d="M46.4,37.4c-0.1,1.4-1.3,2.4-2.6,2.4h-8.1v0c0-5.5-4.5-10-10-10c-5.5,0-10,4.5-10,10v0H8.2
	c-1.4,0-2.5-1-2.6-2.4L3.5,14.5c0-0.1,0.1-0.3,0.3-0.3h44.5c0.2,0,0.3,0.2,0.3,0.3L46.4,37.4z"/>
<path class="st2" d="M28.9,36.6c-0.4-0.4-1-0.4-1.4,0l-1.8,1.8l-1.8-1.8c-0.4-0.4-1-0.4-1.4,0c-0.4,0.4-0.4,1,0,1.4c0,0,0,0,0,0
	l1.8,1.8l-1.8,1.8c-0.4,0.4-0.4,1,0,1.4c0.4,0.4,1,0.4,1.4,0c0,0,0,0,0,0l1.8-1.8l1.8,1.8c0.4,0.4,1,0.4,1.4,0c0,0,0,0,0,0
	c0.4-0.4,0.4-1,0-1.4l-1.8-1.8l1.8-1.8C29.3,37.6,29.3,37,28.9,36.6z"/>
</svg>
